<svg width="375" height="812" viewBox="0 0 375 812" fill="none" xmlns="http://www.w3.org/2000/svg">
<g clip-path="url(#clip0_27_127)">
<rect width="375" height="812" fill="white"/>
<rect y="217" width="375" height="595" fill="white"/>
<rect x="0.5" y="0.5" width="374" height="216" fill="#E5E5E5" stroke="black"/>
<line x1="0.250427" y1="-0.432766" x2="375.25" y2="216.567" stroke="black"/>
<line x1="375.25" y1="0.432766" x2="0.250425" y2="217.433" stroke="black"/>
<path d="M22.2334 42.3398L27.7354 44.5635V46.2861L20.5459 42.9551V41.6719L27.7354 38.3496V40.0723L22.2334 42.3398ZM35.0215 48V35.2031H39.2051C40.5938 35.2031 41.6367 35.4902 42.334 36.0645C43.0371 36.6387 43.3887 37.4883 43.3887 38.6133C43.3887 39.2109 43.2188 39.7412 42.8789 40.2041C42.5391 40.6611 42.0762 41.0156 41.4902 41.2676C42.1816 41.4609 42.7266 41.8301 43.125 42.375C43.5293 42.9141 43.7314 43.5586 43.7314 44.3086C43.7314 45.457 43.3594 46.3594 42.6152 47.0156C41.8711 47.6719 40.8193 48 39.46 48H35.0215ZM36.709 42.0146V46.6201H39.4951C40.2803 46.6201 40.8984 46.418 41.3496 46.0137C41.8066 45.6035 42.0352 45.041 42.0352 44.3262C42.0352 42.7852 41.1973 42.0146 39.5215 42.0146H36.709ZM36.709 40.6611H39.2578C39.9961 40.6611 40.585 40.4766 41.0244 40.1074C41.4697 39.7383 41.6924 39.2373 41.6924 38.6045C41.6924 37.9014 41.4873 37.3916 41.0771 37.0752C40.667 36.7529 40.043 36.5918 39.2051 36.5918H36.709V40.6611ZM51.8525 48C51.7588 47.8125 51.6826 47.4785 51.624 46.998C50.8682 47.7832 49.9658 48.1758 48.917 48.1758C47.9795 48.1758 47.209 47.9121 46.6055 47.3848C46.0078 46.8516 45.709 46.1777 45.709 45.3633C45.709 44.373 46.084 43.6055 46.834 43.0605C47.5898 42.5098 48.6504 42.2344 50.0156 42.2344H51.5977V41.4873C51.5977 40.9189 51.4277 40.4678 51.0879 40.1338C50.748 39.7939 50.2471 39.624 49.585 39.624C49.0049 39.624 48.5186 39.7705 48.126 40.0635C47.7334 40.3564 47.5371 40.7109 47.5371 41.127H45.9023C45.9023 40.6523 46.0693 40.1953 46.4033 39.7559C46.7432 39.3105 47.2002 38.959 47.7744 38.7012C48.3545 38.4434 48.9902 38.3145 49.6816 38.3145C50.7773 38.3145 51.6357 38.5898 52.2568 39.1406C52.8779 39.6855 53.2002 40.4385 53.2236 41.3994V45.7764C53.2236 46.6494 53.335 47.3438 53.5576 47.8594V48H51.8525ZM49.1543 46.7607C49.6641 46.7607 50.1475 46.6289 50.6045 46.3652C51.0615 46.1016 51.3926 45.7588 51.5977 45.3369V43.3857H50.3232C48.3311 43.3857 47.335 43.9688 47.335 45.1348C47.335 45.6445 47.5049 46.043 47.8447 46.3301C48.1846 46.6172 48.6211 46.7607 49.1543 46.7607ZM59.5869 46.8486C60.167 46.8486 60.6738 46.6729 61.1074 46.3213C61.541 45.9697 61.7812 45.5303 61.8281 45.0029H63.3662C63.3369 45.5479 63.1494 46.0664 62.8037 46.5586C62.458 47.0508 61.9951 47.4434 61.415 47.7363C60.8408 48.0293 60.2314 48.1758 59.5869 48.1758C58.292 48.1758 57.2607 47.7451 56.4932 46.8838C55.7314 46.0166 55.3506 44.833 55.3506 43.333V43.0605C55.3506 42.1348 55.5205 41.3115 55.8604 40.5908C56.2002 39.8701 56.6865 39.3105 57.3193 38.9121C57.958 38.5137 58.7109 38.3145 59.5781 38.3145C60.6445 38.3145 61.5293 38.6338 62.2324 39.2725C62.9414 39.9111 63.3193 40.7402 63.3662 41.7598H61.8281C61.7812 41.1445 61.5469 40.6406 61.125 40.248C60.709 39.8496 60.1934 39.6504 59.5781 39.6504C58.752 39.6504 58.1104 39.9492 57.6533 40.5469C57.2021 41.1387 56.9766 41.9971 56.9766 43.1221V43.4297C56.9766 44.5254 57.2021 45.3691 57.6533 45.9609C58.1045 46.5527 58.749 46.8486 59.5869 46.8486ZM67.8486 43.5967L66.8291 44.6602V48H65.2031V34.5H66.8291V42.665L67.6992 41.6191L70.6611 38.4902H72.6387L68.9385 42.4629L73.0693 48H71.1621L67.8486 43.5967Z" fill="black"/>
<circle cx="165" cy="186" r="5.5" fill="#C4C4C4" stroke="black"/>
<circle cx="186" cy="186" r="5.5" fill="#C4C4C4" stroke="black"/>
<circle cx="207" cy="186" r="5.5" fill="#C4C4C4" stroke="black"/>
<path d="M27.1084 258.672L34.0811 276.074L41.0537 258.672H44.7012V280H41.8887V271.694L42.1523 262.729L35.1504 280H32.9971L26.0098 262.773L26.2881 271.694V280H23.4756V258.672H27.1084ZM55.8193 280.293C53.6709 280.293 51.9229 279.59 50.5752 278.184C49.2275 276.768 48.5537 274.878 48.5537 272.515V272.017C48.5537 270.444 48.8516 269.043 49.4473 267.812C50.0527 266.572 50.8926 265.605 51.9668 264.912C53.0508 264.209 54.2227 263.857 55.4824 263.857C57.543 263.857 59.1445 264.536 60.2871 265.894C61.4297 267.251 62.001 269.194 62.001 271.724V272.852H51.2637C51.3027 274.414 51.7568 275.679 52.626 276.646C53.5049 277.603 54.6182 278.081 55.9658 278.081C56.9229 278.081 57.7334 277.886 58.3975 277.495C59.0615 277.104 59.6426 276.587 60.1406 275.942L61.7959 277.231C60.4678 279.272 58.4756 280.293 55.8193 280.293ZM55.4824 266.084C54.3887 266.084 53.4707 266.484 52.7285 267.285C51.9863 268.076 51.5273 269.189 51.3516 270.625H59.291V270.42C59.2129 269.043 58.8418 267.979 58.1777 267.227C57.5137 266.465 56.6152 266.084 55.4824 266.084ZM67.7139 264.15L67.8018 266.143C69.0127 264.619 70.5947 263.857 72.5479 263.857C75.8975 263.857 77.5869 265.747 77.6162 269.526V280H74.9062V269.512C74.8965 268.369 74.6328 267.524 74.1152 266.978C73.6074 266.431 72.8115 266.157 71.7275 266.157C70.8486 266.157 70.0771 266.392 69.4131 266.86C68.749 267.329 68.2314 267.944 67.8604 268.706V280H65.1504V264.15H67.7139ZM91.4883 278.433C90.4336 279.673 88.8857 280.293 86.8447 280.293C85.1553 280.293 83.8662 279.805 82.9775 278.828C82.0986 277.842 81.6543 276.387 81.6445 274.463V264.15H84.3545V274.39C84.3545 276.792 85.3311 277.993 87.2842 277.993C89.3545 277.993 90.7314 277.222 91.415 275.679V264.15H94.125V280H91.5469L91.4883 278.433ZM117.885 270.581H108.935V280H106.122V258.672H119.335V260.986H108.935V268.281H117.885V270.581ZM131.566 280C131.41 279.688 131.283 279.131 131.186 278.33C129.926 279.639 128.422 280.293 126.674 280.293C125.111 280.293 123.827 279.854 122.821 278.975C121.825 278.086 121.327 276.963 121.327 275.605C121.327 273.955 121.952 272.676 123.202 271.768C124.462 270.85 126.229 270.391 128.505 270.391H131.142V269.146C131.142 268.198 130.858 267.446 130.292 266.89C129.726 266.323 128.891 266.04 127.787 266.04C126.82 266.04 126.01 266.284 125.355 266.772C124.701 267.261 124.374 267.852 124.374 268.545H121.649C121.649 267.754 121.928 266.992 122.484 266.26C123.051 265.518 123.812 264.932 124.77 264.502C125.736 264.072 126.796 263.857 127.948 263.857C129.774 263.857 131.205 264.316 132.24 265.234C133.275 266.143 133.812 267.397 133.852 268.999V276.294C133.852 277.749 134.037 278.906 134.408 279.766V280H131.566ZM127.069 277.935C127.919 277.935 128.725 277.715 129.486 277.275C130.248 276.836 130.8 276.265 131.142 275.562V272.31H129.018C125.697 272.31 124.037 273.281 124.037 275.225C124.037 276.074 124.32 276.738 124.887 277.217C125.453 277.695 126.181 277.935 127.069 277.935ZM143.095 276.323L147.021 264.15H149.789L144.105 280H142.04L136.298 264.15H139.066L143.095 276.323ZM151.444 271.929C151.444 270.376 151.747 268.979 152.353 267.739C152.968 266.499 153.817 265.542 154.901 264.868C155.995 264.194 157.24 263.857 158.637 263.857C160.795 263.857 162.538 264.604 163.866 266.099C165.204 267.593 165.873 269.58 165.873 272.061V272.251C165.873 273.794 165.575 275.181 164.979 276.411C164.394 277.632 163.549 278.584 162.445 279.268C161.352 279.951 160.092 280.293 158.666 280.293C156.518 280.293 154.774 279.546 153.437 278.052C152.108 276.558 151.444 274.58 151.444 272.119V271.929ZM154.169 272.251C154.169 274.009 154.574 275.42 155.385 276.484C156.205 277.549 157.299 278.081 158.666 278.081C160.043 278.081 161.137 277.544 161.947 276.47C162.758 275.386 163.163 273.872 163.163 271.929C163.163 270.19 162.748 268.784 161.918 267.71C161.098 266.626 160.004 266.084 158.637 266.084C157.299 266.084 156.22 266.616 155.399 267.681C154.579 268.745 154.169 270.269 154.169 272.251ZM176.933 266.582C176.522 266.514 176.078 266.479 175.6 266.479C173.822 266.479 172.616 267.236 171.981 268.75V280H169.271V264.15H171.908L171.952 265.981C172.841 264.565 174.101 263.857 175.731 263.857C176.259 263.857 176.659 263.926 176.933 264.062V266.582ZM182.382 280H179.672V264.15H182.382V280ZM179.452 259.946C179.452 259.507 179.584 259.136 179.848 258.833C180.121 258.53 180.521 258.379 181.049 258.379C181.576 258.379 181.977 258.53 182.25 258.833C182.523 259.136 182.66 259.507 182.66 259.946C182.66 260.386 182.523 260.752 182.25 261.045C181.977 261.338 181.576 261.484 181.049 261.484C180.521 261.484 180.121 261.338 179.848 261.045C179.584 260.752 179.452 260.386 179.452 259.946ZM190.409 260.312V264.15H193.368V266.245H190.409V276.074C190.409 276.709 190.541 277.188 190.805 277.51C191.068 277.822 191.518 277.979 192.152 277.979C192.465 277.979 192.895 277.92 193.441 277.803V280C192.729 280.195 192.035 280.293 191.361 280.293C190.15 280.293 189.237 279.927 188.622 279.194C188.007 278.462 187.699 277.422 187.699 276.074V266.245H184.813V264.15H187.699V260.312H190.409Z" fill="black"/>
<path d="M26.3027 458.7H36.4102V461H23.4756V439.672H26.3027V458.7ZM48.9785 461C48.8223 460.688 48.6953 460.131 48.5977 459.33C47.3379 460.639 45.834 461.293 44.0859 461.293C42.5234 461.293 41.2393 460.854 40.2334 459.975C39.2373 459.086 38.7393 457.963 38.7393 456.605C38.7393 454.955 39.3643 453.676 40.6143 452.768C41.874 451.85 43.6416 451.391 45.917 451.391H48.5537V450.146C48.5537 449.198 48.2705 448.446 47.7041 447.89C47.1377 447.323 46.3027 447.04 45.1992 447.04C44.2324 447.04 43.4219 447.284 42.7676 447.772C42.1133 448.261 41.7861 448.852 41.7861 449.545H39.0615C39.0615 448.754 39.3398 447.992 39.8965 447.26C40.4629 446.518 41.2246 445.932 42.1816 445.502C43.1484 445.072 44.208 444.857 45.3604 444.857C47.1865 444.857 48.6172 445.316 49.6523 446.234C50.6875 447.143 51.2246 448.397 51.2637 449.999V457.294C51.2637 458.749 51.4492 459.906 51.8203 460.766V461H48.9785ZM44.4814 458.935C45.3311 458.935 46.1367 458.715 46.8984 458.275C47.6602 457.836 48.2119 457.265 48.5537 456.562V453.31H46.4297C43.1094 453.31 41.4492 454.281 41.4492 456.225C41.4492 457.074 41.7324 457.738 42.2988 458.217C42.8652 458.695 43.5928 458.935 44.4814 458.935ZM58.4561 461H55.7461V445.15H58.4561V461ZM55.5264 440.946C55.5264 440.507 55.6582 440.136 55.9219 439.833C56.1953 439.53 56.5957 439.379 57.123 439.379C57.6504 439.379 58.0508 439.53 58.3242 439.833C58.5977 440.136 58.7344 440.507 58.7344 440.946C58.7344 441.386 58.5977 441.752 58.3242 442.045C58.0508 442.338 57.6504 442.484 57.123 442.484C56.5957 442.484 56.1953 442.338 55.9219 442.045C55.6582 441.752 55.5264 441.386 55.5264 440.946ZM65.3701 445.15L65.458 447.143C66.6689 445.619 68.251 444.857 70.2041 444.857C73.5537 444.857 75.2432 446.747 75.2725 450.526V461H72.5625V450.512C72.5527 449.369 72.2891 448.524 71.7715 447.978C71.2637 447.431 70.4678 447.157 69.3838 447.157C68.5049 447.157 67.7334 447.392 67.0693 447.86C66.4053 448.329 65.8877 448.944 65.5166 449.706V461H62.8066V445.15H65.3701ZM81.9229 445.15L82.0107 447.143C83.2217 445.619 84.8037 444.857 86.7568 444.857C90.1064 444.857 91.7959 446.747 91.8252 450.526V461H89.1152V450.512C89.1055 449.369 88.8418 448.524 88.3242 447.978C87.8164 447.431 87.0205 447.157 85.9365 447.157C85.0576 447.157 84.2861 447.392 83.6221 447.86C82.958 448.329 82.4404 448.944 82.0693 449.706V461H79.3594V445.15H81.9229ZM101.098 457.03L104.789 445.15H107.689L101.317 463.446C100.331 466.083 98.7637 467.401 96.6152 467.401L96.1025 467.357L95.0918 467.167V464.97L95.8242 465.028C96.7422 465.028 97.4551 464.843 97.9629 464.472C98.4805 464.101 98.9053 463.422 99.2373 462.436L99.8379 460.824L94.1836 445.15H97.1426L101.098 457.03ZM119.672 461C119.516 460.688 119.389 460.131 119.291 459.33C118.031 460.639 116.527 461.293 114.779 461.293C113.217 461.293 111.933 460.854 110.927 459.975C109.931 459.086 109.433 457.963 109.433 456.605C109.433 454.955 110.058 453.676 111.308 452.768C112.567 451.85 114.335 451.391 116.61 451.391H119.247V450.146C119.247 449.198 118.964 448.446 118.397 447.89C117.831 447.323 116.996 447.04 115.893 447.04C114.926 447.04 114.115 447.284 113.461 447.772C112.807 448.261 112.479 448.852 112.479 449.545H109.755C109.755 448.754 110.033 447.992 110.59 447.26C111.156 446.518 111.918 445.932 112.875 445.502C113.842 445.072 114.901 444.857 116.054 444.857C117.88 444.857 119.311 445.316 120.346 446.234C121.381 447.143 121.918 448.397 121.957 449.999V457.294C121.957 458.749 122.143 459.906 122.514 460.766V461H119.672ZM115.175 458.935C116.024 458.935 116.83 458.715 117.592 458.275C118.354 457.836 118.905 457.265 119.247 456.562V453.31H117.123C113.803 453.31 112.143 454.281 112.143 456.225C112.143 457.074 112.426 457.738 112.992 458.217C113.559 458.695 114.286 458.935 115.175 458.935Z" fill="black"/>
<path d="M27.1084 627.672L34.0811 645.074L41.0537 627.672H44.7012V649H41.8887V640.694L42.1523 631.729L35.1504 649H32.9971L26.0098 631.773L26.2881 640.694V649H23.4756V627.672H27.1084ZM52.1865 649H49.4766V633.15H52.1865V649ZM49.2568 628.946C49.2568 628.507 49.3887 628.136 49.6523 627.833C49.9258 627.53 50.3262 627.379 50.8535 627.379C51.3809 627.379 51.7812 627.53 52.0547 627.833C52.3281 628.136 52.4648 628.507 52.4648 628.946C52.4648 629.386 52.3281 629.752 52.0547 630.045C51.7812 630.338 51.3809 630.484 50.8535 630.484C50.3262 630.484 49.9258 630.338 49.6523 630.045C49.3887 629.752 49.2568 629.386 49.2568 628.946ZM59.1006 633.15L59.1885 635.143C60.3994 633.619 61.9814 632.857 63.9346 632.857C67.2842 632.857 68.9736 634.747 69.0029 638.526V649H66.293V638.512C66.2832 637.369 66.0195 636.524 65.502 635.978C64.9941 635.431 64.1982 635.157 63.1143 635.157C62.2354 635.157 61.4639 635.392 60.7998 635.86C60.1357 636.329 59.6182 636.944 59.2471 637.706V649H56.5371V633.15H59.1006ZM82.875 647.433C81.8203 648.673 80.2725 649.293 78.2314 649.293C76.542 649.293 75.2529 648.805 74.3643 647.828C73.4854 646.842 73.041 645.387 73.0312 643.463V633.15H75.7412V643.39C75.7412 645.792 76.7178 646.993 78.6709 646.993C80.7412 646.993 82.1182 646.222 82.8018 644.679V633.15H85.5117V649H82.9336L82.875 647.433ZM92.1914 633.15L92.2646 634.908C93.4268 633.541 94.9941 632.857 96.9668 632.857C99.1836 632.857 100.692 633.707 101.493 635.406C102.021 634.645 102.704 634.029 103.544 633.561C104.394 633.092 105.395 632.857 106.547 632.857C110.023 632.857 111.791 634.698 111.85 638.38V649H109.14V638.541C109.14 637.408 108.881 636.563 108.363 636.007C107.846 635.44 106.977 635.157 105.756 635.157C104.75 635.157 103.915 635.46 103.251 636.065C102.587 636.661 102.201 637.467 102.094 638.482V649H99.3691V638.614C99.3691 636.31 98.2412 635.157 95.9854 635.157C94.208 635.157 92.9922 635.914 92.3379 637.428V649H89.6279V633.15H92.1914ZM125.736 649C125.58 648.688 125.453 648.131 125.355 647.33C124.096 648.639 122.592 649.293 120.844 649.293C119.281 649.293 117.997 648.854 116.991 647.975C115.995 647.086 115.497 645.963 115.497 644.605C115.497 642.955 116.122 641.676 117.372 640.768C118.632 639.85 120.399 639.391 122.675 639.391H125.312V638.146C125.312 637.198 125.028 636.446 124.462 635.89C123.896 635.323 123.061 635.04 121.957 635.04C120.99 635.04 120.18 635.284 119.525 635.772C118.871 636.261 118.544 636.852 118.544 637.545H115.819C115.819 636.754 116.098 635.992 116.654 635.26C117.221 634.518 117.982 633.932 118.939 633.502C119.906 633.072 120.966 632.857 122.118 632.857C123.944 632.857 125.375 633.316 126.41 634.234C127.445 635.143 127.982 636.397 128.021 637.999V645.294C128.021 646.749 128.207 647.906 128.578 648.766V649H125.736ZM121.239 646.935C122.089 646.935 122.895 646.715 123.656 646.275C124.418 645.836 124.97 645.265 125.312 644.562V641.31H123.188C119.867 641.31 118.207 642.281 118.207 644.225C118.207 645.074 118.49 645.738 119.057 646.217C119.623 646.695 120.351 646.935 121.239 646.935ZM134.833 633.15L134.921 635.143C136.132 633.619 137.714 632.857 139.667 632.857C143.017 632.857 144.706 634.747 144.735 638.526V649H142.025V638.512C142.016 637.369 141.752 636.524 141.234 635.978C140.727 635.431 139.931 635.157 138.847 635.157C137.968 635.157 137.196 635.392 136.532 635.86C135.868 636.329 135.351 636.944 134.979 637.706V649H132.27V633.15H134.833Z" fill="black"/>
<rect x="56.5" y="206.5" width="135" height="24" fill="#C4C4C4" stroke="black"/>
<rect x="192.5" y="206.5" width="135" height="24" fill="#8E8A8A" stroke="black"/>
<path d="M109.084 219.66H103.723L102.519 223H100.778L105.665 210.203H107.142L112.037 223H110.306L109.084 219.66ZM104.232 218.271H108.583L106.403 212.286L104.232 218.271ZM121.556 218.351C121.556 219.804 121.222 220.973 120.554 221.857C119.886 222.736 118.989 223.176 117.864 223.176C116.663 223.176 115.734 222.751 115.078 221.901L114.999 223H113.505V209.5H115.131V214.536C115.787 213.722 116.692 213.314 117.847 213.314C119.001 213.314 119.906 213.751 120.562 214.624C121.225 215.497 121.556 216.692 121.556 218.21V218.351ZM119.93 218.166C119.93 217.059 119.716 216.203 119.288 215.6C118.86 214.996 118.245 214.694 117.442 214.694C116.37 214.694 115.6 215.192 115.131 216.188V220.302C115.629 221.298 116.405 221.796 117.46 221.796C118.239 221.796 118.846 221.494 119.279 220.891C119.713 220.287 119.93 219.379 119.93 218.166ZM123.182 218.157C123.182 217.226 123.363 216.388 123.727 215.644C124.096 214.899 124.605 214.325 125.256 213.921C125.912 213.517 126.659 213.314 127.497 213.314C128.792 213.314 129.838 213.763 130.635 214.659C131.438 215.556 131.839 216.748 131.839 218.236V218.351C131.839 219.276 131.66 220.108 131.303 220.847C130.951 221.579 130.444 222.15 129.782 222.561C129.126 222.971 128.37 223.176 127.515 223.176C126.226 223.176 125.18 222.728 124.377 221.831C123.58 220.935 123.182 219.748 123.182 218.271V218.157ZM124.816 218.351C124.816 219.405 125.06 220.252 125.546 220.891C126.038 221.529 126.694 221.849 127.515 221.849C128.341 221.849 128.997 221.526 129.483 220.882C129.97 220.231 130.213 219.323 130.213 218.157C130.213 217.114 129.964 216.271 129.466 215.626C128.974 214.976 128.317 214.65 127.497 214.65C126.694 214.65 126.047 214.97 125.555 215.608C125.062 216.247 124.816 217.161 124.816 218.351ZM139.749 222.06C139.116 222.804 138.188 223.176 136.963 223.176C135.949 223.176 135.176 222.883 134.643 222.297C134.115 221.705 133.849 220.832 133.843 219.678V213.49H135.469V219.634C135.469 221.075 136.055 221.796 137.227 221.796C138.469 221.796 139.295 221.333 139.705 220.407V213.49H141.331V223H139.784L139.749 222.06ZM146.016 211.188V213.49H147.791V214.747H146.016V220.645C146.016 221.025 146.095 221.312 146.253 221.506C146.411 221.693 146.681 221.787 147.062 221.787C147.249 221.787 147.507 221.752 147.835 221.682V223C147.407 223.117 146.991 223.176 146.587 223.176C145.86 223.176 145.312 222.956 144.943 222.517C144.574 222.077 144.39 221.453 144.39 220.645V214.747H142.658V213.49H144.39V211.188H146.016Z" fill="black"/>
<path d="M237.604 210.203L241.787 220.645L245.971 210.203H248.159V223H246.472V218.017L246.63 212.638L242.429 223H241.137L236.944 212.664L237.111 218.017V223H235.424V210.203H237.604ZM254.83 223.176C253.541 223.176 252.492 222.754 251.684 221.91C250.875 221.061 250.471 219.927 250.471 218.509V218.21C250.471 217.267 250.649 216.426 251.007 215.688C251.37 214.943 251.874 214.363 252.519 213.947C253.169 213.525 253.872 213.314 254.628 213.314C255.864 213.314 256.825 213.722 257.511 214.536C258.196 215.351 258.539 216.517 258.539 218.034V218.711H252.097C252.12 219.648 252.393 220.407 252.914 220.987C253.441 221.562 254.109 221.849 254.918 221.849C255.492 221.849 255.979 221.731 256.377 221.497C256.775 221.263 257.124 220.952 257.423 220.565L258.416 221.339C257.619 222.563 256.424 223.176 254.83 223.176ZM254.628 214.65C253.972 214.65 253.421 214.891 252.976 215.371C252.53 215.846 252.255 216.514 252.149 217.375H256.913V217.252C256.866 216.426 256.644 215.787 256.245 215.336C255.847 214.879 255.308 214.65 254.628 214.65ZM261.967 213.49L262.02 214.686C262.746 213.771 263.695 213.314 264.867 213.314C266.877 213.314 267.891 214.448 267.908 216.716V223H266.282V216.707C266.276 216.021 266.118 215.515 265.808 215.187C265.503 214.858 265.025 214.694 264.375 214.694C263.848 214.694 263.385 214.835 262.986 215.116C262.588 215.397 262.277 215.767 262.055 216.224V223H260.429V213.49H261.967ZM276.231 222.06C275.599 222.804 274.67 223.176 273.445 223.176C272.432 223.176 271.658 222.883 271.125 222.297C270.598 221.705 270.331 220.832 270.325 219.678V213.49H271.951V219.634C271.951 221.075 272.537 221.796 273.709 221.796C274.951 221.796 275.777 221.333 276.188 220.407V213.49H277.813V223H276.267L276.231 222.06Z" fill="black"/>
<rect x="21.5" y="294.5" width="125" height="83" fill="white" stroke="black"/>
<rect x="21.5" y="483.5" width="125" height="83" fill="white" stroke="black"/>
<rect x="21.5" y="672.5" width="125" height="83" fill="white" stroke="black"/>
<rect x="167.5" y="483.5" width="125" height="83" fill="white" stroke="black"/>
<rect x="167.5" y="672.5" width="125" height="83" fill="white" stroke="black"/>
<rect x="168.5" y="294.5" width="125" height="83" fill="white" stroke="black"/>
<rect x="315.5" y="294.5" width="63" height="83" fill="white" stroke="black"/>
<rect x="315.5" y="484.5" width="63" height="83" fill="white" stroke="black"/>
<rect x="315.5" y="673.5" width="63" height="83" fill="white" stroke="black"/>
<line x1="21.2751" y1="294.582" x2="147.275" y2="377.582" stroke="black"/>
<line x1="21.2751" y1="483.582" x2="147.275" y2="566.582" stroke="black"/>
<line x1="21.2751" y1="672.582" x2="147.275" y2="755.582" stroke="black"/>
<line x1="167.275" y1="483.582" x2="293.275" y2="566.582" stroke="black"/>
<line x1="167.275" y1="672.582" x2="293.275" y2="755.582" stroke="black"/>
<line x1="168.275" y1="294.582" x2="294.275" y2="377.582" stroke="black"/>
<line x1="315.287" y1="294.59" x2="375.287" y2="336.59" stroke="black"/>
<line x1="315.287" y1="484.59" x2="375.287" y2="526.59" stroke="black"/>
<line x1="315.287" y1="673.59" x2="375.287" y2="715.59" stroke="black"/>
<line x1="147.275" y1="295.418" x2="21.2751" y2="378.418" stroke="black"/>
<line x1="147.275" y1="484.418" x2="21.2751" y2="567.418" stroke="black"/>
<line x1="147.275" y1="673.418" x2="21.2751" y2="756.418" stroke="black"/>
<line x1="293.275" y1="484.418" x2="167.275" y2="567.418" stroke="black"/>
<line x1="293.275" y1="673.418" x2="167.275" y2="756.418" stroke="black"/>
<line x1="294.275" y1="295.418" x2="168.275" y2="378.418" stroke="black"/>
<line x1="375.282" y1="337.413" x2="315.282" y2="378.413" stroke="black"/>
<line x1="375.282" y1="527.413" x2="315.282" y2="568.413" stroke="black"/>
<line x1="375.282" y1="716.413" x2="315.282" y2="757.413" stroke="black"/>
<path d="M37.7344 407H36.2266L30.5 398.234V407H28.9922V395.625H30.5L36.2422 404.43V395.625H37.7344V407ZM45.3906 407C45.3073 406.833 45.2396 406.536 45.1875 406.109C44.5156 406.807 43.7135 407.156 42.7812 407.156C41.9479 407.156 41.263 406.922 40.7266 406.453C40.1953 405.979 39.9297 405.38 39.9297 404.656C39.9297 403.776 40.263 403.094 40.9297 402.609C41.6016 402.12 42.5443 401.875 43.7578 401.875H45.1641V401.211C45.1641 400.706 45.013 400.305 44.7109 400.008C44.4089 399.706 43.9635 399.555 43.375 399.555C42.8594 399.555 42.4271 399.685 42.0781 399.945C41.7292 400.206 41.5547 400.521 41.5547 400.891H40.1016C40.1016 400.469 40.25 400.062 40.5469 399.672C40.849 399.276 41.2552 398.964 41.7656 398.734C42.2812 398.505 42.8464 398.391 43.4609 398.391C44.4349 398.391 45.1979 398.635 45.75 399.125C46.3021 399.609 46.5885 400.279 46.6094 401.133V405.023C46.6094 405.799 46.7083 406.417 46.9062 406.875V407H45.3906ZM42.9922 405.898C43.4453 405.898 43.875 405.781 44.2812 405.547C44.6875 405.312 44.9818 405.008 45.1641 404.633V402.898H44.0312C42.2604 402.898 41.375 403.417 41.375 404.453C41.375 404.906 41.526 405.26 41.8281 405.516C42.1302 405.771 42.5182 405.898 42.9922 405.898ZM50.2344 398.547L50.2734 399.484C50.8932 398.755 51.7292 398.391 52.7812 398.391C53.9635 398.391 54.7682 398.844 55.1953 399.75C55.4766 399.344 55.8411 399.016 56.2891 398.766C56.7422 398.516 57.276 398.391 57.8906 398.391C59.7448 398.391 60.6875 399.372 60.7188 401.336V407H59.2734V401.422C59.2734 400.818 59.1354 400.367 58.8594 400.07C58.5833 399.768 58.1198 399.617 57.4688 399.617C56.9323 399.617 56.487 399.779 56.1328 400.102C55.7786 400.419 55.5729 400.849 55.5156 401.391V407H54.0625V401.461C54.0625 400.232 53.4609 399.617 52.2578 399.617C51.3099 399.617 50.6615 400.021 50.3125 400.828V407H48.8672V398.547H50.2344ZM68.125 407C68.0417 406.833 67.974 406.536 67.9219 406.109C67.25 406.807 66.4479 407.156 65.5156 407.156C64.6823 407.156 63.9974 406.922 63.4609 406.453C62.9297 405.979 62.6641 405.38 62.6641 404.656C62.6641 403.776 62.9974 403.094 63.6641 402.609C64.3359 402.12 65.2786 401.875 66.4922 401.875H67.8984V401.211C67.8984 400.706 67.7474 400.305 67.4453 400.008C67.1432 399.706 66.6979 399.555 66.1094 399.555C65.5938 399.555 65.1615 399.685 64.8125 399.945C64.4635 400.206 64.2891 400.521 64.2891 400.891H62.8359C62.8359 400.469 62.9844 400.062 63.2812 399.672C63.5833 399.276 63.9896 398.964 64.5 398.734C65.0156 398.505 65.5807 398.391 66.1953 398.391C67.1693 398.391 67.9323 398.635 68.4844 399.125C69.0365 399.609 69.3229 400.279 69.3438 401.133V405.023C69.3438 405.799 69.4427 406.417 69.6406 406.875V407H68.125ZM65.7266 405.898C66.1797 405.898 66.6094 405.781 67.0156 405.547C67.4219 405.312 67.7161 405.008 67.8984 404.633V402.898H66.7656C64.9948 402.898 64.1094 403.417 64.1094 404.453C64.1094 404.906 64.2604 405.26 64.5625 405.516C64.8646 405.771 65.2526 405.898 65.7266 405.898ZM77.7422 395.625L81.4609 404.906L85.1797 395.625H87.125V407H85.625V402.57L85.7656 397.789L82.0312 407H80.8828L77.1562 397.812L77.3047 402.57V407H75.8047V395.625H77.7422ZM94.7656 407C94.6823 406.833 94.6146 406.536 94.5625 406.109C93.8906 406.807 93.0885 407.156 92.1562 407.156C91.3229 407.156 90.638 406.922 90.1016 406.453C89.5703 405.979 89.3047 405.38 89.3047 404.656C89.3047 403.776 89.638 403.094 90.3047 402.609C90.9766 402.12 91.9193 401.875 93.1328 401.875H94.5391V401.211C94.5391 400.706 94.388 400.305 94.0859 400.008C93.7839 399.706 93.3385 399.555 92.75 399.555C92.2344 399.555 91.8021 399.685 91.4531 399.945C91.1042 400.206 90.9297 400.521 90.9297 400.891H89.4766C89.4766 400.469 89.625 400.062 89.9219 399.672C90.224 399.276 90.6302 398.964 91.1406 398.734C91.6562 398.505 92.2214 398.391 92.8359 398.391C93.8099 398.391 94.5729 398.635 95.125 399.125C95.6771 399.609 95.9635 400.279 95.9844 401.133V405.023C95.9844 405.799 96.0833 406.417 96.2812 406.875V407H94.7656ZM92.3672 405.898C92.8203 405.898 93.25 405.781 93.6562 405.547C94.0625 405.312 94.3568 405.008 94.5391 404.633V402.898H93.4062C91.6354 402.898 90.75 403.417 90.75 404.453C90.75 404.906 90.901 405.26 91.2031 405.516C91.5052 405.771 91.8932 405.898 92.3672 405.898ZM100.609 403.086L99.7031 404.031V407H98.2578V395H99.7031V402.258L100.477 401.328L103.109 398.547H104.867L101.578 402.078L105.25 407H103.555L100.609 403.086ZM111.578 407C111.495 406.833 111.427 406.536 111.375 406.109C110.703 406.807 109.901 407.156 108.969 407.156C108.135 407.156 107.451 406.922 106.914 406.453C106.383 405.979 106.117 405.38 106.117 404.656C106.117 403.776 106.451 403.094 107.117 402.609C107.789 402.12 108.732 401.875 109.945 401.875H111.352V401.211C111.352 400.706 111.201 400.305 110.898 400.008C110.596 399.706 110.151 399.555 109.562 399.555C109.047 399.555 108.615 399.685 108.266 399.945C107.917 400.206 107.742 400.521 107.742 400.891H106.289C106.289 400.469 106.438 400.062 106.734 399.672C107.036 399.276 107.443 398.964 107.953 398.734C108.469 398.505 109.034 398.391 109.648 398.391C110.622 398.391 111.385 398.635 111.938 399.125C112.49 399.609 112.776 400.279 112.797 401.133V405.023C112.797 405.799 112.896 406.417 113.094 406.875V407H111.578ZM109.18 405.898C109.633 405.898 110.062 405.781 110.469 405.547C110.875 405.312 111.169 405.008 111.352 404.633V402.898H110.219C108.448 402.898 107.562 403.417 107.562 404.453C107.562 404.906 107.714 405.26 108.016 405.516C108.318 405.771 108.706 405.898 109.18 405.898ZM116.43 398.547L116.477 399.609C117.122 398.797 117.966 398.391 119.008 398.391C120.794 398.391 121.695 399.398 121.711 401.414V407H120.266V401.406C120.26 400.797 120.12 400.346 119.844 400.055C119.573 399.763 119.148 399.617 118.57 399.617C118.102 399.617 117.69 399.742 117.336 399.992C116.982 400.242 116.706 400.57 116.508 400.977V407H115.062V398.547H116.43ZM129.109 407C129.026 406.833 128.958 406.536 128.906 406.109C128.234 406.807 127.432 407.156 126.5 407.156C125.667 407.156 124.982 406.922 124.445 406.453C123.914 405.979 123.648 405.38 123.648 404.656C123.648 403.776 123.982 403.094 124.648 402.609C125.32 402.12 126.263 401.875 127.477 401.875H128.883V401.211C128.883 400.706 128.732 400.305 128.43 400.008C128.128 399.706 127.682 399.555 127.094 399.555C126.578 399.555 126.146 399.685 125.797 399.945C125.448 400.206 125.273 400.521 125.273 400.891H123.82C123.82 400.469 123.969 400.062 124.266 399.672C124.568 399.276 124.974 398.964 125.484 398.734C126 398.505 126.565 398.391 127.18 398.391C128.154 398.391 128.917 398.635 129.469 399.125C130.021 399.609 130.307 400.279 130.328 401.133V405.023C130.328 405.799 130.427 406.417 130.625 406.875V407H129.109ZM126.711 405.898C127.164 405.898 127.594 405.781 128 405.547C128.406 405.312 128.701 405.008 128.883 404.633V402.898H127.75C125.979 402.898 125.094 403.417 125.094 404.453C125.094 404.906 125.245 405.26 125.547 405.516C125.849 405.771 126.237 405.898 126.711 405.898ZM133.961 398.547L134.008 399.609C134.654 398.797 135.497 398.391 136.539 398.391C138.326 398.391 139.227 399.398 139.242 401.414V407H137.797V401.406C137.792 400.797 137.651 400.346 137.375 400.055C137.104 399.763 136.68 399.617 136.102 399.617C135.633 399.617 135.221 399.742 134.867 399.992C134.513 400.242 134.237 400.57 134.039 400.977V407H132.594V398.547H133.961Z" fill="black"/>
<path d="M37.7344 598H36.2266L30.5 589.234V598H28.9922V586.625H30.5L36.2422 595.43V586.625H37.7344V598ZM45.3906 598C45.3073 597.833 45.2396 597.536 45.1875 597.109C44.5156 597.807 43.7135 598.156 42.7812 598.156C41.9479 598.156 41.263 597.922 40.7266 597.453C40.1953 596.979 39.9297 596.38 39.9297 595.656C39.9297 594.776 40.263 594.094 40.9297 593.609C41.6016 593.12 42.5443 592.875 43.7578 592.875H45.1641V592.211C45.1641 591.706 45.013 591.305 44.7109 591.008C44.4089 590.706 43.9635 590.555 43.375 590.555C42.8594 590.555 42.4271 590.685 42.0781 590.945C41.7292 591.206 41.5547 591.521 41.5547 591.891H40.1016C40.1016 591.469 40.25 591.062 40.5469 590.672C40.849 590.276 41.2552 589.964 41.7656 589.734C42.2812 589.505 42.8464 589.391 43.4609 589.391C44.4349 589.391 45.1979 589.635 45.75 590.125C46.3021 590.609 46.5885 591.279 46.6094 592.133V596.023C46.6094 596.799 46.7083 597.417 46.9062 597.875V598H45.3906ZM42.9922 596.898C43.4453 596.898 43.875 596.781 44.2812 596.547C44.6875 596.312 44.9818 596.008 45.1641 595.633V593.898H44.0312C42.2604 593.898 41.375 594.417 41.375 595.453C41.375 595.906 41.526 596.26 41.8281 596.516C42.1302 596.771 42.5182 596.898 42.9922 596.898ZM50.2344 589.547L50.2734 590.484C50.8932 589.755 51.7292 589.391 52.7812 589.391C53.9635 589.391 54.7682 589.844 55.1953 590.75C55.4766 590.344 55.8411 590.016 56.2891 589.766C56.7422 589.516 57.276 589.391 57.8906 589.391C59.7448 589.391 60.6875 590.372 60.7188 592.336V598H59.2734V592.422C59.2734 591.818 59.1354 591.367 58.8594 591.07C58.5833 590.768 58.1198 590.617 57.4688 590.617C56.9323 590.617 56.487 590.779 56.1328 591.102C55.7786 591.419 55.5729 591.849 55.5156 592.391V598H54.0625V592.461C54.0625 591.232 53.4609 590.617 52.2578 590.617C51.3099 590.617 50.6615 591.021 50.3125 591.828V598H48.8672V589.547H50.2344ZM68.125 598C68.0417 597.833 67.974 597.536 67.9219 597.109C67.25 597.807 66.4479 598.156 65.5156 598.156C64.6823 598.156 63.9974 597.922 63.4609 597.453C62.9297 596.979 62.6641 596.38 62.6641 595.656C62.6641 594.776 62.9974 594.094 63.6641 593.609C64.3359 593.12 65.2786 592.875 66.4922 592.875H67.8984V592.211C67.8984 591.706 67.7474 591.305 67.4453 591.008C67.1432 590.706 66.6979 590.555 66.1094 590.555C65.5938 590.555 65.1615 590.685 64.8125 590.945C64.4635 591.206 64.2891 591.521 64.2891 591.891H62.8359C62.8359 591.469 62.9844 591.062 63.2812 590.672C63.5833 590.276 63.9896 589.964 64.5 589.734C65.0156 589.505 65.5807 589.391 66.1953 589.391C67.1693 589.391 67.9323 589.635 68.4844 590.125C69.0365 590.609 69.3229 591.279 69.3438 592.133V596.023C69.3438 596.799 69.4427 597.417 69.6406 597.875V598H68.125ZM65.7266 596.898C66.1797 596.898 66.6094 596.781 67.0156 596.547C67.4219 596.312 67.7161 596.008 67.8984 595.633V593.898H66.7656C64.9948 593.898 64.1094 594.417 64.1094 595.453C64.1094 595.906 64.2604 596.26 64.5625 596.516C64.8646 596.771 65.2526 596.898 65.7266 596.898ZM77.7422 586.625L81.4609 595.906L85.1797 586.625H87.125V598H85.625V593.57L85.7656 588.789L82.0312 598H80.8828L77.1562 588.812L77.3047 593.57V598H75.8047V586.625H77.7422ZM94.7656 598C94.6823 597.833 94.6146 597.536 94.5625 597.109C93.8906 597.807 93.0885 598.156 92.1562 598.156C91.3229 598.156 90.638 597.922 90.1016 597.453C89.5703 596.979 89.3047 596.38 89.3047 595.656C89.3047 594.776 89.638 594.094 90.3047 593.609C90.9766 593.12 91.9193 592.875 93.1328 592.875H94.5391V592.211C94.5391 591.706 94.388 591.305 94.0859 591.008C93.7839 590.706 93.3385 590.555 92.75 590.555C92.2344 590.555 91.8021 590.685 91.4531 590.945C91.1042 591.206 90.9297 591.521 90.9297 591.891H89.4766C89.4766 591.469 89.625 591.062 89.9219 590.672C90.224 590.276 90.6302 589.964 91.1406 589.734C91.6562 589.505 92.2214 589.391 92.8359 589.391C93.8099 589.391 94.5729 589.635 95.125 590.125C95.6771 590.609 95.9635 591.279 95.9844 592.133V596.023C95.9844 596.799 96.0833 597.417 96.2812 597.875V598H94.7656ZM92.3672 596.898C92.8203 596.898 93.25 596.781 93.6562 596.547C94.0625 596.312 94.3568 596.008 94.5391 595.633V593.898H93.4062C91.6354 593.898 90.75 594.417 90.75 595.453C90.75 595.906 90.901 596.26 91.2031 596.516C91.5052 596.771 91.8932 596.898 92.3672 596.898ZM100.609 594.086L99.7031 595.031V598H98.2578V586H99.7031V593.258L100.477 592.328L103.109 589.547H104.867L101.578 593.078L105.25 598H103.555L100.609 594.086ZM111.578 598C111.495 597.833 111.427 597.536 111.375 597.109C110.703 597.807 109.901 598.156 108.969 598.156C108.135 598.156 107.451 597.922 106.914 597.453C106.383 596.979 106.117 596.38 106.117 595.656C106.117 594.776 106.451 594.094 107.117 593.609C107.789 593.12 108.732 592.875 109.945 592.875H111.352V592.211C111.352 591.706 111.201 591.305 110.898 591.008C110.596 590.706 110.151 590.555 109.562 590.555C109.047 590.555 108.615 590.685 108.266 590.945C107.917 591.206 107.742 591.521 107.742 591.891H106.289C106.289 591.469 106.438 591.062 106.734 590.672C107.036 590.276 107.443 589.964 107.953 589.734C108.469 589.505 109.034 589.391 109.648 589.391C110.622 589.391 111.385 589.635 111.938 590.125C112.49 590.609 112.776 591.279 112.797 592.133V596.023C112.797 596.799 112.896 597.417 113.094 597.875V598H111.578ZM109.18 596.898C109.633 596.898 110.062 596.781 110.469 596.547C110.875 596.312 111.169 596.008 111.352 595.633V593.898H110.219C108.448 593.898 107.562 594.417 107.562 595.453C107.562 595.906 107.714 596.26 108.016 596.516C108.318 596.771 108.706 596.898 109.18 596.898ZM116.43 589.547L116.477 590.609C117.122 589.797 117.966 589.391 119.008 589.391C120.794 589.391 121.695 590.398 121.711 592.414V598H120.266V592.406C120.26 591.797 120.12 591.346 119.844 591.055C119.573 590.763 119.148 590.617 118.57 590.617C118.102 590.617 117.69 590.742 117.336 590.992C116.982 591.242 116.706 591.57 116.508 591.977V598H115.062V589.547H116.43ZM129.109 598C129.026 597.833 128.958 597.536 128.906 597.109C128.234 597.807 127.432 598.156 126.5 598.156C125.667 598.156 124.982 597.922 124.445 597.453C123.914 596.979 123.648 596.38 123.648 595.656C123.648 594.776 123.982 594.094 124.648 593.609C125.32 593.12 126.263 592.875 127.477 592.875H128.883V592.211C128.883 591.706 128.732 591.305 128.43 591.008C128.128 590.706 127.682 590.555 127.094 590.555C126.578 590.555 126.146 590.685 125.797 590.945C125.448 591.206 125.273 591.521 125.273 591.891H123.82C123.82 591.469 123.969 591.062 124.266 590.672C124.568 590.276 124.974 589.964 125.484 589.734C126 589.505 126.565 589.391 127.18 589.391C128.154 589.391 128.917 589.635 129.469 590.125C130.021 590.609 130.307 591.279 130.328 592.133V596.023C130.328 596.799 130.427 597.417 130.625 597.875V598H129.109ZM126.711 596.898C127.164 596.898 127.594 596.781 128 596.547C128.406 596.312 128.701 596.008 128.883 595.633V593.898H127.75C125.979 593.898 125.094 594.417 125.094 595.453C125.094 595.906 125.245 596.26 125.547 596.516C125.849 596.771 126.237 596.898 126.711 596.898ZM133.961 589.547L134.008 590.609C134.654 589.797 135.497 589.391 136.539 589.391C138.326 589.391 139.227 590.398 139.242 592.414V598H137.797V592.406C137.792 591.797 137.651 591.346 137.375 591.055C137.104 590.763 136.68 590.617 136.102 590.617C135.633 590.617 135.221 590.742 134.867 590.992C134.513 591.242 134.237 591.57 134.039 591.977V598H132.594V589.547H133.961Z" fill="black"/>
<path d="M37.1172 789H35.6094L29.8828 780.234V789H28.375V777.625H29.8828L35.625 786.43V777.625H37.1172V789ZM44.7734 789C44.6901 788.833 44.6224 788.536 44.5703 788.109C43.8984 788.807 43.0964 789.156 42.1641 789.156C41.3307 789.156 40.6458 788.922 40.1094 788.453C39.5781 787.979 39.3125 787.38 39.3125 786.656C39.3125 785.776 39.6458 785.094 40.3125 784.609C40.9844 784.12 41.9271 783.875 43.1406 783.875H44.5469V783.211C44.5469 782.706 44.3958 782.305 44.0938 782.008C43.7917 781.706 43.3464 781.555 42.7578 781.555C42.2422 781.555 41.8099 781.685 41.4609 781.945C41.112 782.206 40.9375 782.521 40.9375 782.891H39.4844C39.4844 782.469 39.6328 782.062 39.9297 781.672C40.2318 781.276 40.638 780.964 41.1484 780.734C41.6641 780.505 42.2292 780.391 42.8438 780.391C43.8177 780.391 44.5807 780.635 45.1328 781.125C45.6849 781.609 45.9714 782.279 45.9922 783.133V787.023C45.9922 787.799 46.0911 788.417 46.2891 788.875V789H44.7734ZM42.375 787.898C42.8281 787.898 43.2578 787.781 43.6641 787.547C44.0703 787.312 44.3646 787.008 44.5469 786.633V784.898H43.4141C41.6432 784.898 40.7578 785.417 40.7578 786.453C40.7578 786.906 40.9089 787.26 41.2109 787.516C41.513 787.771 41.901 787.898 42.375 787.898ZM49.6172 780.547L49.6562 781.484C50.276 780.755 51.112 780.391 52.1641 780.391C53.3464 780.391 54.151 780.844 54.5781 781.75C54.8594 781.344 55.224 781.016 55.6719 780.766C56.125 780.516 56.6589 780.391 57.2734 780.391C59.1276 780.391 60.0703 781.372 60.1016 783.336V789H58.6562V783.422C58.6562 782.818 58.5182 782.367 58.2422 782.07C57.9661 781.768 57.5026 781.617 56.8516 781.617C56.3151 781.617 55.8698 781.779 55.5156 782.102C55.1615 782.419 54.9557 782.849 54.8984 783.391V789H53.4453V783.461C53.4453 782.232 52.8438 781.617 51.6406 781.617C50.6927 781.617 50.0443 782.021 49.6953 782.828V789H48.25V780.547H49.6172ZM67.5078 789C67.4245 788.833 67.3568 788.536 67.3047 788.109C66.6328 788.807 65.8307 789.156 64.8984 789.156C64.0651 789.156 63.3802 788.922 62.8438 788.453C62.3125 787.979 62.0469 787.38 62.0469 786.656C62.0469 785.776 62.3802 785.094 63.0469 784.609C63.7188 784.12 64.6615 783.875 65.875 783.875H67.2812V783.211C67.2812 782.706 67.1302 782.305 66.8281 782.008C66.526 781.706 66.0807 781.555 65.4922 781.555C64.9766 781.555 64.5443 781.685 64.1953 781.945C63.8464 782.206 63.6719 782.521 63.6719 782.891H62.2188C62.2188 782.469 62.3672 782.062 62.6641 781.672C62.9661 781.276 63.3724 780.964 63.8828 780.734C64.3984 780.505 64.9635 780.391 65.5781 780.391C66.5521 780.391 67.3151 780.635 67.8672 781.125C68.4193 781.609 68.7057 782.279 68.7266 783.133V787.023C68.7266 787.799 68.8255 788.417 69.0234 788.875V789H67.5078ZM65.1094 787.898C65.5625 787.898 65.9922 787.781 66.3984 787.547C66.8047 787.312 67.099 787.008 67.2812 786.633V784.898H66.1484C64.3776 784.898 63.4922 785.417 63.4922 786.453C63.4922 786.906 63.6432 787.26 63.9453 787.516C64.2474 787.771 64.6354 787.898 65.1094 787.898ZM77.125 777.625L80.8438 786.906L84.5625 777.625H86.5078V789H85.0078V784.57L85.1484 779.789L81.4141 789H80.2656L76.5391 779.812L76.6875 784.57V789H75.1875V777.625H77.125ZM90.5 789H89.0547V780.547H90.5V789ZM88.9375 778.305C88.9375 778.07 89.0078 777.872 89.1484 777.711C89.2943 777.549 89.5078 777.469 89.7891 777.469C90.0703 777.469 90.2839 777.549 90.4297 777.711C90.5755 777.872 90.6484 778.07 90.6484 778.305C90.6484 778.539 90.5755 778.734 90.4297 778.891C90.2839 779.047 90.0703 779.125 89.7891 779.125C89.5078 779.125 89.2943 779.047 89.1484 778.891C89.0078 778.734 88.9375 778.539 88.9375 778.305ZM94.1875 780.547L94.2344 781.609C94.8802 780.797 95.724 780.391 96.7656 780.391C98.5521 780.391 99.4531 781.398 99.4688 783.414V789H98.0234V783.406C98.0182 782.797 97.8776 782.346 97.6016 782.055C97.3307 781.763 96.9062 781.617 96.3281 781.617C95.8594 781.617 95.4479 781.742 95.0938 781.992C94.7396 782.242 94.4635 782.57 94.2656 782.977V789H92.8203V780.547H94.1875ZM106.867 788.164C106.305 788.826 105.479 789.156 104.391 789.156C103.49 789.156 102.802 788.896 102.328 788.375C101.859 787.849 101.622 787.073 101.617 786.047V780.547H103.062V786.008C103.062 787.289 103.583 787.93 104.625 787.93C105.729 787.93 106.464 787.518 106.828 786.695V780.547H108.273V789H106.898L106.867 788.164ZM111.836 780.547L111.875 781.484C112.495 780.755 113.331 780.391 114.383 780.391C115.565 780.391 116.37 780.844 116.797 781.75C117.078 781.344 117.443 781.016 117.891 780.766C118.344 780.516 118.878 780.391 119.492 780.391C121.346 780.391 122.289 781.372 122.32 783.336V789H120.875V783.422C120.875 782.818 120.737 782.367 120.461 782.07C120.185 781.768 119.721 781.617 119.07 781.617C118.534 781.617 118.089 781.779 117.734 782.102C117.38 782.419 117.174 782.849 117.117 783.391V789H115.664V783.461C115.664 782.232 115.062 781.617 113.859 781.617C112.911 781.617 112.263 782.021 111.914 782.828V789H110.469V780.547H111.836ZM129.727 789C129.643 788.833 129.576 788.536 129.523 788.109C128.852 788.807 128.049 789.156 127.117 789.156C126.284 789.156 125.599 788.922 125.062 788.453C124.531 787.979 124.266 787.38 124.266 786.656C124.266 785.776 124.599 785.094 125.266 784.609C125.938 784.12 126.88 783.875 128.094 783.875H129.5V783.211C129.5 782.706 129.349 782.305 129.047 782.008C128.745 781.706 128.299 781.555 127.711 781.555C127.195 781.555 126.763 781.685 126.414 781.945C126.065 782.206 125.891 782.521 125.891 782.891H124.438C124.438 782.469 124.586 782.062 124.883 781.672C125.185 781.276 125.591 780.964 126.102 780.734C126.617 780.505 127.182 780.391 127.797 780.391C128.771 780.391 129.534 780.635 130.086 781.125C130.638 781.609 130.924 782.279 130.945 783.133V787.023C130.945 787.799 131.044 788.417 131.242 788.875V789H129.727ZM127.328 787.898C127.781 787.898 128.211 787.781 128.617 787.547C129.023 787.312 129.318 787.008 129.5 786.633V784.898H128.367C126.596 784.898 125.711 785.417 125.711 786.453C125.711 786.906 125.862 787.26 126.164 787.516C126.466 787.771 126.854 787.898 127.328 787.898ZM134.578 780.547L134.625 781.609C135.271 780.797 136.115 780.391 137.156 780.391C138.943 780.391 139.844 781.398 139.859 783.414V789H138.414V783.406C138.409 782.797 138.268 782.346 137.992 782.055C137.721 781.763 137.297 781.617 136.719 781.617C136.25 781.617 135.839 781.742 135.484 781.992C135.13 782.242 134.854 782.57 134.656 782.977V789H133.211V780.547H134.578Z" fill="black"/>
<path d="M183.734 407H182.227L176.5 398.234V407H174.992V395.625H176.5L182.242 404.43V395.625H183.734V407ZM191.391 407C191.307 406.833 191.24 406.536 191.188 406.109C190.516 406.807 189.714 407.156 188.781 407.156C187.948 407.156 187.263 406.922 186.727 406.453C186.195 405.979 185.93 405.38 185.93 404.656C185.93 403.776 186.263 403.094 186.93 402.609C187.602 402.12 188.544 401.875 189.758 401.875H191.164V401.211C191.164 400.706 191.013 400.305 190.711 400.008C190.409 399.706 189.964 399.555 189.375 399.555C188.859 399.555 188.427 399.685 188.078 399.945C187.729 400.206 187.555 400.521 187.555 400.891H186.102C186.102 400.469 186.25 400.062 186.547 399.672C186.849 399.276 187.255 398.964 187.766 398.734C188.281 398.505 188.846 398.391 189.461 398.391C190.435 398.391 191.198 398.635 191.75 399.125C192.302 399.609 192.589 400.279 192.609 401.133V405.023C192.609 405.799 192.708 406.417 192.906 406.875V407H191.391ZM188.992 405.898C189.445 405.898 189.875 405.781 190.281 405.547C190.688 405.312 190.982 405.008 191.164 404.633V402.898H190.031C188.26 402.898 187.375 403.417 187.375 404.453C187.375 404.906 187.526 405.26 187.828 405.516C188.13 405.771 188.518 405.898 188.992 405.898ZM196.234 398.547L196.273 399.484C196.893 398.755 197.729 398.391 198.781 398.391C199.964 398.391 200.768 398.844 201.195 399.75C201.477 399.344 201.841 399.016 202.289 398.766C202.742 398.516 203.276 398.391 203.891 398.391C205.745 398.391 206.688 399.372 206.719 401.336V407H205.273V401.422C205.273 400.818 205.135 400.367 204.859 400.07C204.583 399.768 204.12 399.617 203.469 399.617C202.932 399.617 202.487 399.779 202.133 400.102C201.779 400.419 201.573 400.849 201.516 401.391V407H200.062V401.461C200.062 400.232 199.461 399.617 198.258 399.617C197.31 399.617 196.661 400.021 196.312 400.828V407H194.867V398.547H196.234ZM214.125 407C214.042 406.833 213.974 406.536 213.922 406.109C213.25 406.807 212.448 407.156 211.516 407.156C210.682 407.156 209.997 406.922 209.461 406.453C208.93 405.979 208.664 405.38 208.664 404.656C208.664 403.776 208.997 403.094 209.664 402.609C210.336 402.12 211.279 401.875 212.492 401.875H213.898V401.211C213.898 400.706 213.747 400.305 213.445 400.008C213.143 399.706 212.698 399.555 212.109 399.555C211.594 399.555 211.161 399.685 210.812 399.945C210.464 400.206 210.289 400.521 210.289 400.891H208.836C208.836 400.469 208.984 400.062 209.281 399.672C209.583 399.276 209.99 398.964 210.5 398.734C211.016 398.505 211.581 398.391 212.195 398.391C213.169 398.391 213.932 398.635 214.484 399.125C215.036 399.609 215.323 400.279 215.344 401.133V405.023C215.344 405.799 215.443 406.417 215.641 406.875V407H214.125ZM211.727 405.898C212.18 405.898 212.609 405.781 213.016 405.547C213.422 405.312 213.716 405.008 213.898 404.633V402.898H212.766C210.995 402.898 210.109 403.417 210.109 404.453C210.109 404.906 210.26 405.26 210.562 405.516C210.865 405.771 211.253 405.898 211.727 405.898ZM223.742 395.625L227.461 404.906L231.18 395.625H233.125V407H231.625V402.57L231.766 397.789L228.031 407H226.883L223.156 397.812L223.305 402.57V407H221.805V395.625H223.742ZM240.766 407C240.682 406.833 240.615 406.536 240.562 406.109C239.891 406.807 239.089 407.156 238.156 407.156C237.323 407.156 236.638 406.922 236.102 406.453C235.57 405.979 235.305 405.38 235.305 404.656C235.305 403.776 235.638 403.094 236.305 402.609C236.977 402.12 237.919 401.875 239.133 401.875H240.539V401.211C240.539 400.706 240.388 400.305 240.086 400.008C239.784 399.706 239.339 399.555 238.75 399.555C238.234 399.555 237.802 399.685 237.453 399.945C237.104 400.206 236.93 400.521 236.93 400.891H235.477C235.477 400.469 235.625 400.062 235.922 399.672C236.224 399.276 236.63 398.964 237.141 398.734C237.656 398.505 238.221 398.391 238.836 398.391C239.81 398.391 240.573 398.635 241.125 399.125C241.677 399.609 241.964 400.279 241.984 401.133V405.023C241.984 405.799 242.083 406.417 242.281 406.875V407H240.766ZM238.367 405.898C238.82 405.898 239.25 405.781 239.656 405.547C240.062 405.312 240.357 405.008 240.539 404.633V402.898H239.406C237.635 402.898 236.75 403.417 236.75 404.453C236.75 404.906 236.901 405.26 237.203 405.516C237.505 405.771 237.893 405.898 238.367 405.898ZM246.609 403.086L245.703 404.031V407H244.258V395H245.703V402.258L246.477 401.328L249.109 398.547H250.867L247.578 402.078L251.25 407H249.555L246.609 403.086ZM257.578 407C257.495 406.833 257.427 406.536 257.375 406.109C256.703 406.807 255.901 407.156 254.969 407.156C254.135 407.156 253.451 406.922 252.914 406.453C252.383 405.979 252.117 405.38 252.117 404.656C252.117 403.776 252.451 403.094 253.117 402.609C253.789 402.12 254.732 401.875 255.945 401.875H257.352V401.211C257.352 400.706 257.201 400.305 256.898 400.008C256.596 399.706 256.151 399.555 255.562 399.555C255.047 399.555 254.615 399.685 254.266 399.945C253.917 400.206 253.742 400.521 253.742 400.891H252.289C252.289 400.469 252.438 400.062 252.734 399.672C253.036 399.276 253.443 398.964 253.953 398.734C254.469 398.505 255.034 398.391 255.648 398.391C256.622 398.391 257.385 398.635 257.938 399.125C258.49 399.609 258.776 400.279 258.797 401.133V405.023C258.797 405.799 258.896 406.417 259.094 406.875V407H257.578ZM255.18 405.898C255.633 405.898 256.062 405.781 256.469 405.547C256.875 405.312 257.169 405.008 257.352 404.633V402.898H256.219C254.448 402.898 253.562 403.417 253.562 404.453C253.562 404.906 253.714 405.26 254.016 405.516C254.318 405.771 254.706 405.898 255.18 405.898ZM262.43 398.547L262.477 399.609C263.122 398.797 263.966 398.391 265.008 398.391C266.794 398.391 267.695 399.398 267.711 401.414V407H266.266V401.406C266.26 400.797 266.12 400.346 265.844 400.055C265.573 399.763 265.148 399.617 264.57 399.617C264.102 399.617 263.69 399.742 263.336 399.992C262.982 400.242 262.706 400.57 262.508 400.977V407H261.062V398.547H262.43ZM275.109 407C275.026 406.833 274.958 406.536 274.906 406.109C274.234 406.807 273.432 407.156 272.5 407.156C271.667 407.156 270.982 406.922 270.445 406.453C269.914 405.979 269.648 405.38 269.648 404.656C269.648 403.776 269.982 403.094 270.648 402.609C271.32 402.12 272.263 401.875 273.477 401.875H274.883V401.211C274.883 400.706 274.732 400.305 274.43 400.008C274.128 399.706 273.682 399.555 273.094 399.555C272.578 399.555 272.146 399.685 271.797 399.945C271.448 400.206 271.273 400.521 271.273 400.891H269.82C269.82 400.469 269.969 400.062 270.266 399.672C270.568 399.276 270.974 398.964 271.484 398.734C272 398.505 272.565 398.391 273.18 398.391C274.154 398.391 274.917 398.635 275.469 399.125C276.021 399.609 276.307 400.279 276.328 401.133V405.023C276.328 405.799 276.427 406.417 276.625 406.875V407H275.109ZM272.711 405.898C273.164 405.898 273.594 405.781 274 405.547C274.406 405.312 274.701 405.008 274.883 404.633V402.898H273.75C271.979 402.898 271.094 403.417 271.094 404.453C271.094 404.906 271.245 405.26 271.547 405.516C271.849 405.771 272.237 405.898 272.711 405.898ZM279.961 398.547L280.008 399.609C280.654 398.797 281.497 398.391 282.539 398.391C284.326 398.391 285.227 399.398 285.242 401.414V407H283.797V401.406C283.792 400.797 283.651 400.346 283.375 400.055C283.104 399.763 282.68 399.617 282.102 399.617C281.633 399.617 281.221 399.742 280.867 399.992C280.513 400.242 280.237 400.57 280.039 400.977V407H278.594V398.547H279.961Z" fill="black"/>
<path d="M183.734 598H182.227L176.5 589.234V598H174.992V586.625H176.5L182.242 595.43V586.625H183.734V598ZM191.391 598C191.307 597.833 191.24 597.536 191.188 597.109C190.516 597.807 189.714 598.156 188.781 598.156C187.948 598.156 187.263 597.922 186.727 597.453C186.195 596.979 185.93 596.38 185.93 595.656C185.93 594.776 186.263 594.094 186.93 593.609C187.602 593.12 188.544 592.875 189.758 592.875H191.164V592.211C191.164 591.706 191.013 591.305 190.711 591.008C190.409 590.706 189.964 590.555 189.375 590.555C188.859 590.555 188.427 590.685 188.078 590.945C187.729 591.206 187.555 591.521 187.555 591.891H186.102C186.102 591.469 186.25 591.062 186.547 590.672C186.849 590.276 187.255 589.964 187.766 589.734C188.281 589.505 188.846 589.391 189.461 589.391C190.435 589.391 191.198 589.635 191.75 590.125C192.302 590.609 192.589 591.279 192.609 592.133V596.023C192.609 596.799 192.708 597.417 192.906 597.875V598H191.391ZM188.992 596.898C189.445 596.898 189.875 596.781 190.281 596.547C190.688 596.312 190.982 596.008 191.164 595.633V593.898H190.031C188.26 593.898 187.375 594.417 187.375 595.453C187.375 595.906 187.526 596.26 187.828 596.516C188.13 596.771 188.518 596.898 188.992 596.898ZM196.234 589.547L196.273 590.484C196.893 589.755 197.729 589.391 198.781 589.391C199.964 589.391 200.768 589.844 201.195 590.75C201.477 590.344 201.841 590.016 202.289 589.766C202.742 589.516 203.276 589.391 203.891 589.391C205.745 589.391 206.688 590.372 206.719 592.336V598H205.273V592.422C205.273 591.818 205.135 591.367 204.859 591.07C204.583 590.768 204.12 590.617 203.469 590.617C202.932 590.617 202.487 590.779 202.133 591.102C201.779 591.419 201.573 591.849 201.516 592.391V598H200.062V592.461C200.062 591.232 199.461 590.617 198.258 590.617C197.31 590.617 196.661 591.021 196.312 591.828V598H194.867V589.547H196.234ZM214.125 598C214.042 597.833 213.974 597.536 213.922 597.109C213.25 597.807 212.448 598.156 211.516 598.156C210.682 598.156 209.997 597.922 209.461 597.453C208.93 596.979 208.664 596.38 208.664 595.656C208.664 594.776 208.997 594.094 209.664 593.609C210.336 593.12 211.279 592.875 212.492 592.875H213.898V592.211C213.898 591.706 213.747 591.305 213.445 591.008C213.143 590.706 212.698 590.555 212.109 590.555C211.594 590.555 211.161 590.685 210.812 590.945C210.464 591.206 210.289 591.521 210.289 591.891H208.836C208.836 591.469 208.984 591.062 209.281 590.672C209.583 590.276 209.99 589.964 210.5 589.734C211.016 589.505 211.581 589.391 212.195 589.391C213.169 589.391 213.932 589.635 214.484 590.125C215.036 590.609 215.323 591.279 215.344 592.133V596.023C215.344 596.799 215.443 597.417 215.641 597.875V598H214.125ZM211.727 596.898C212.18 596.898 212.609 596.781 213.016 596.547C213.422 596.312 213.716 596.008 213.898 595.633V593.898H212.766C210.995 593.898 210.109 594.417 210.109 595.453C210.109 595.906 210.26 596.26 210.562 596.516C210.865 596.771 211.253 596.898 211.727 596.898ZM223.742 586.625L227.461 595.906L231.18 586.625H233.125V598H231.625V593.57L231.766 588.789L228.031 598H226.883L223.156 588.812L223.305 593.57V598H221.805V586.625H223.742ZM240.766 598C240.682 597.833 240.615 597.536 240.562 597.109C239.891 597.807 239.089 598.156 238.156 598.156C237.323 598.156 236.638 597.922 236.102 597.453C235.57 596.979 235.305 596.38 235.305 595.656C235.305 594.776 235.638 594.094 236.305 593.609C236.977 593.12 237.919 592.875 239.133 592.875H240.539V592.211C240.539 591.706 240.388 591.305 240.086 591.008C239.784 590.706 239.339 590.555 238.75 590.555C238.234 590.555 237.802 590.685 237.453 590.945C237.104 591.206 236.93 591.521 236.93 591.891H235.477C235.477 591.469 235.625 591.062 235.922 590.672C236.224 590.276 236.63 589.964 237.141 589.734C237.656 589.505 238.221 589.391 238.836 589.391C239.81 589.391 240.573 589.635 241.125 590.125C241.677 590.609 241.964 591.279 241.984 592.133V596.023C241.984 596.799 242.083 597.417 242.281 597.875V598H240.766ZM238.367 596.898C238.82 596.898 239.25 596.781 239.656 596.547C240.062 596.312 240.357 596.008 240.539 595.633V593.898H239.406C237.635 593.898 236.75 594.417 236.75 595.453C236.75 595.906 236.901 596.26 237.203 596.516C237.505 596.771 237.893 596.898 238.367 596.898ZM246.609 594.086L245.703 595.031V598H244.258V586H245.703V593.258L246.477 592.328L249.109 589.547H250.867L247.578 593.078L251.25 598H249.555L246.609 594.086ZM257.578 598C257.495 597.833 257.427 597.536 257.375 597.109C256.703 597.807 255.901 598.156 254.969 598.156C254.135 598.156 253.451 597.922 252.914 597.453C252.383 596.979 252.117 596.38 252.117 595.656C252.117 594.776 252.451 594.094 253.117 593.609C253.789 593.12 254.732 592.875 255.945 592.875H257.352V592.211C257.352 591.706 257.201 591.305 256.898 591.008C256.596 590.706 256.151 590.555 255.562 590.555C255.047 590.555 254.615 590.685 254.266 590.945C253.917 591.206 253.742 591.521 253.742 591.891H252.289C252.289 591.469 252.438 591.062 252.734 590.672C253.036 590.276 253.443 589.964 253.953 589.734C254.469 589.505 255.034 589.391 255.648 589.391C256.622 589.391 257.385 589.635 257.938 590.125C258.49 590.609 258.776 591.279 258.797 592.133V596.023C258.797 596.799 258.896 597.417 259.094 597.875V598H257.578ZM255.18 596.898C255.633 596.898 256.062 596.781 256.469 596.547C256.875 596.312 257.169 596.008 257.352 595.633V593.898H256.219C254.448 593.898 253.562 594.417 253.562 595.453C253.562 595.906 253.714 596.26 254.016 596.516C254.318 596.771 254.706 596.898 255.18 596.898ZM262.43 589.547L262.477 590.609C263.122 589.797 263.966 589.391 265.008 589.391C266.794 589.391 267.695 590.398 267.711 592.414V598H266.266V592.406C266.26 591.797 266.12 591.346 265.844 591.055C265.573 590.763 265.148 590.617 264.57 590.617C264.102 590.617 263.69 590.742 263.336 590.992C262.982 591.242 262.706 591.57 262.508 591.977V598H261.062V589.547H262.43ZM275.109 598C275.026 597.833 274.958 597.536 274.906 597.109C274.234 597.807 273.432 598.156 272.5 598.156C271.667 598.156 270.982 597.922 270.445 597.453C269.914 596.979 269.648 596.38 269.648 595.656C269.648 594.776 269.982 594.094 270.648 593.609C271.32 593.12 272.263 592.875 273.477 592.875H274.883V592.211C274.883 591.706 274.732 591.305 274.43 591.008C274.128 590.706 273.682 590.555 273.094 590.555C272.578 590.555 272.146 590.685 271.797 590.945C271.448 591.206 271.273 591.521 271.273 591.891H269.82C269.82 591.469 269.969 591.062 270.266 590.672C270.568 590.276 270.974 589.964 271.484 589.734C272 589.505 272.565 589.391 273.18 589.391C274.154 589.391 274.917 589.635 275.469 590.125C276.021 590.609 276.307 591.279 276.328 592.133V596.023C276.328 596.799 276.427 597.417 276.625 597.875V598H275.109ZM272.711 596.898C273.164 596.898 273.594 596.781 274 596.547C274.406 596.312 274.701 596.008 274.883 595.633V593.898H273.75C271.979 593.898 271.094 594.417 271.094 595.453C271.094 595.906 271.245 596.26 271.547 596.516C271.849 596.771 272.237 596.898 272.711 596.898ZM279.961 589.547L280.008 590.609C280.654 589.797 281.497 589.391 282.539 589.391C284.326 589.391 285.227 590.398 285.242 592.414V598H283.797V592.406C283.792 591.797 283.651 591.346 283.375 591.055C283.104 590.763 282.68 590.617 282.102 590.617C281.633 590.617 281.221 590.742 280.867 590.992C280.513 591.242 280.237 591.57 280.039 591.977V598H278.594V589.547H279.961Z" fill="black"/>
<path d="M183.117 789H181.609L175.883 780.234V789H174.375V777.625H175.883L181.625 786.43V777.625H183.117V789ZM190.773 789C190.69 788.833 190.622 788.536 190.57 788.109C189.898 788.807 189.096 789.156 188.164 789.156C187.331 789.156 186.646 788.922 186.109 788.453C185.578 787.979 185.312 787.38 185.312 786.656C185.312 785.776 185.646 785.094 186.312 784.609C186.984 784.12 187.927 783.875 189.141 783.875H190.547V783.211C190.547 782.706 190.396 782.305 190.094 782.008C189.792 781.706 189.346 781.555 188.758 781.555C188.242 781.555 187.81 781.685 187.461 781.945C187.112 782.206 186.938 782.521 186.938 782.891H185.484C185.484 782.469 185.633 782.062 185.93 781.672C186.232 781.276 186.638 780.964 187.148 780.734C187.664 780.505 188.229 780.391 188.844 780.391C189.818 780.391 190.581 780.635 191.133 781.125C191.685 781.609 191.971 782.279 191.992 783.133V787.023C191.992 787.799 192.091 788.417 192.289 788.875V789H190.773ZM188.375 787.898C188.828 787.898 189.258 787.781 189.664 787.547C190.07 787.312 190.365 787.008 190.547 786.633V784.898H189.414C187.643 784.898 186.758 785.417 186.758 786.453C186.758 786.906 186.909 787.26 187.211 787.516C187.513 787.771 187.901 787.898 188.375 787.898ZM195.617 780.547L195.656 781.484C196.276 780.755 197.112 780.391 198.164 780.391C199.346 780.391 200.151 780.844 200.578 781.75C200.859 781.344 201.224 781.016 201.672 780.766C202.125 780.516 202.659 780.391 203.273 780.391C205.128 780.391 206.07 781.372 206.102 783.336V789H204.656V783.422C204.656 782.818 204.518 782.367 204.242 782.07C203.966 781.768 203.503 781.617 202.852 781.617C202.315 781.617 201.87 781.779 201.516 782.102C201.161 782.419 200.956 782.849 200.898 783.391V789H199.445V783.461C199.445 782.232 198.844 781.617 197.641 781.617C196.693 781.617 196.044 782.021 195.695 782.828V789H194.25V780.547H195.617ZM213.508 789C213.424 788.833 213.357 788.536 213.305 788.109C212.633 788.807 211.831 789.156 210.898 789.156C210.065 789.156 209.38 788.922 208.844 788.453C208.312 787.979 208.047 787.38 208.047 786.656C208.047 785.776 208.38 785.094 209.047 784.609C209.719 784.12 210.661 783.875 211.875 783.875H213.281V783.211C213.281 782.706 213.13 782.305 212.828 782.008C212.526 781.706 212.081 781.555 211.492 781.555C210.977 781.555 210.544 781.685 210.195 781.945C209.846 782.206 209.672 782.521 209.672 782.891H208.219C208.219 782.469 208.367 782.062 208.664 781.672C208.966 781.276 209.372 780.964 209.883 780.734C210.398 780.505 210.964 780.391 211.578 780.391C212.552 780.391 213.315 780.635 213.867 781.125C214.419 781.609 214.706 782.279 214.727 783.133V787.023C214.727 787.799 214.826 788.417 215.023 788.875V789H213.508ZM211.109 787.898C211.562 787.898 211.992 787.781 212.398 787.547C212.805 787.312 213.099 787.008 213.281 786.633V784.898H212.148C210.378 784.898 209.492 785.417 209.492 786.453C209.492 786.906 209.643 787.26 209.945 787.516C210.247 787.771 210.635 787.898 211.109 787.898ZM223.125 777.625L226.844 786.906L230.562 777.625H232.508V789H231.008V784.57L231.148 779.789L227.414 789H226.266L222.539 779.812L222.688 784.57V789H221.188V777.625H223.125ZM236.5 789H235.055V780.547H236.5V789ZM234.938 778.305C234.938 778.07 235.008 777.872 235.148 777.711C235.294 777.549 235.508 777.469 235.789 777.469C236.07 777.469 236.284 777.549 236.43 777.711C236.576 777.872 236.648 778.07 236.648 778.305C236.648 778.539 236.576 778.734 236.43 778.891C236.284 779.047 236.07 779.125 235.789 779.125C235.508 779.125 235.294 779.047 235.148 778.891C235.008 778.734 234.938 778.539 234.938 778.305ZM240.188 780.547L240.234 781.609C240.88 780.797 241.724 780.391 242.766 780.391C244.552 780.391 245.453 781.398 245.469 783.414V789H244.023V783.406C244.018 782.797 243.878 782.346 243.602 782.055C243.331 781.763 242.906 781.617 242.328 781.617C241.859 781.617 241.448 781.742 241.094 781.992C240.74 782.242 240.464 782.57 240.266 782.977V789H238.82V780.547H240.188ZM252.867 788.164C252.305 788.826 251.479 789.156 250.391 789.156C249.49 789.156 248.802 788.896 248.328 788.375C247.859 787.849 247.622 787.073 247.617 786.047V780.547H249.062V786.008C249.062 787.289 249.583 787.93 250.625 787.93C251.729 787.93 252.464 787.518 252.828 786.695V780.547H254.273V789H252.898L252.867 788.164ZM257.836 780.547L257.875 781.484C258.495 780.755 259.331 780.391 260.383 780.391C261.565 780.391 262.37 780.844 262.797 781.75C263.078 781.344 263.443 781.016 263.891 780.766C264.344 780.516 264.878 780.391 265.492 780.391C267.346 780.391 268.289 781.372 268.32 783.336V789H266.875V783.422C266.875 782.818 266.737 782.367 266.461 782.07C266.185 781.768 265.721 781.617 265.07 781.617C264.534 781.617 264.089 781.779 263.734 782.102C263.38 782.419 263.174 782.849 263.117 783.391V789H261.664V783.461C261.664 782.232 261.062 781.617 259.859 781.617C258.911 781.617 258.263 782.021 257.914 782.828V789H256.469V780.547H257.836ZM275.727 789C275.643 788.833 275.576 788.536 275.523 788.109C274.852 788.807 274.049 789.156 273.117 789.156C272.284 789.156 271.599 788.922 271.062 788.453C270.531 787.979 270.266 787.38 270.266 786.656C270.266 785.776 270.599 785.094 271.266 784.609C271.938 784.12 272.88 783.875 274.094 783.875H275.5V783.211C275.5 782.706 275.349 782.305 275.047 782.008C274.745 781.706 274.299 781.555 273.711 781.555C273.195 781.555 272.763 781.685 272.414 781.945C272.065 782.206 271.891 782.521 271.891 782.891H270.438C270.438 782.469 270.586 782.062 270.883 781.672C271.185 781.276 271.591 780.964 272.102 780.734C272.617 780.505 273.182 780.391 273.797 780.391C274.771 780.391 275.534 780.635 276.086 781.125C276.638 781.609 276.924 782.279 276.945 783.133V787.023C276.945 787.799 277.044 788.417 277.242 788.875V789H275.727ZM273.328 787.898C273.781 787.898 274.211 787.781 274.617 787.547C275.023 787.312 275.318 787.008 275.5 786.633V784.898H274.367C272.596 784.898 271.711 785.417 271.711 786.453C271.711 786.906 271.862 787.26 272.164 787.516C272.466 787.771 272.854 787.898 273.328 787.898ZM280.578 780.547L280.625 781.609C281.271 780.797 282.115 780.391 283.156 780.391C284.943 780.391 285.844 781.398 285.859 783.414V789H284.414V783.406C284.409 782.797 284.268 782.346 283.992 782.055C283.721 781.763 283.297 781.617 282.719 781.617C282.25 781.617 281.839 781.742 281.484 781.992C281.13 782.242 280.854 782.57 280.656 782.977V789H279.211V780.547H280.578Z" fill="black"/>
<path d="M331.734 406H330.227L324.5 397.234V406H322.992V394.625H324.5L330.242 403.43V394.625H331.734V406ZM339.391 406C339.307 405.833 339.24 405.536 339.188 405.109C338.516 405.807 337.714 406.156 336.781 406.156C335.948 406.156 335.263 405.922 334.727 405.453C334.195 404.979 333.93 404.38 333.93 403.656C333.93 402.776 334.263 402.094 334.93 401.609C335.602 401.12 336.544 400.875 337.758 400.875H339.164V400.211C339.164 399.706 339.013 399.305 338.711 399.008C338.409 398.706 337.964 398.555 337.375 398.555C336.859 398.555 336.427 398.685 336.078 398.945C335.729 399.206 335.555 399.521 335.555 399.891H334.102C334.102 399.469 334.25 399.062 334.547 398.672C334.849 398.276 335.255 397.964 335.766 397.734C336.281 397.505 336.846 397.391 337.461 397.391C338.435 397.391 339.198 397.635 339.75 398.125C340.302 398.609 340.589 399.279 340.609 400.133V404.023C340.609 404.799 340.708 405.417 340.906 405.875V406H339.391ZM336.992 404.898C337.445 404.898 337.875 404.781 338.281 404.547C338.688 404.312 338.982 404.008 339.164 403.633V401.898H338.031C336.26 401.898 335.375 402.417 335.375 403.453C335.375 403.906 335.526 404.26 335.828 404.516C336.13 404.771 336.518 404.898 336.992 404.898ZM344.234 397.547L344.273 398.484C344.893 397.755 345.729 397.391 346.781 397.391C347.964 397.391 348.768 397.844 349.195 398.75C349.477 398.344 349.841 398.016 350.289 397.766C350.742 397.516 351.276 397.391 351.891 397.391C353.745 397.391 354.688 398.372 354.719 400.336V406H353.273V400.422C353.273 399.818 353.135 399.367 352.859 399.07C352.583 398.768 352.12 398.617 351.469 398.617C350.932 398.617 350.487 398.779 350.133 399.102C349.779 399.419 349.573 399.849 349.516 400.391V406H348.062V400.461C348.062 399.232 347.461 398.617 346.258 398.617C345.31 398.617 344.661 399.021 344.312 399.828V406H342.867V397.547H344.234ZM362.125 406C362.042 405.833 361.974 405.536 361.922 405.109C361.25 405.807 360.448 406.156 359.516 406.156C358.682 406.156 357.997 405.922 357.461 405.453C356.93 404.979 356.664 404.38 356.664 403.656C356.664 402.776 356.997 402.094 357.664 401.609C358.336 401.12 359.279 400.875 360.492 400.875H361.898V400.211C361.898 399.706 361.747 399.305 361.445 399.008C361.143 398.706 360.698 398.555 360.109 398.555C359.594 398.555 359.161 398.685 358.812 398.945C358.464 399.206 358.289 399.521 358.289 399.891H356.836C356.836 399.469 356.984 399.062 357.281 398.672C357.583 398.276 357.99 397.964 358.5 397.734C359.016 397.505 359.581 397.391 360.195 397.391C361.169 397.391 361.932 397.635 362.484 398.125C363.036 398.609 363.323 399.279 363.344 400.133V404.023C363.344 404.799 363.443 405.417 363.641 405.875V406H362.125ZM359.727 404.898C360.18 404.898 360.609 404.781 361.016 404.547C361.422 404.312 361.716 404.008 361.898 403.633V401.898H360.766C358.995 401.898 358.109 402.417 358.109 403.453C358.109 403.906 358.26 404.26 358.562 404.516C358.865 404.771 359.253 404.898 359.727 404.898ZM371.742 394.625L375.461 403.906L379.18 394.625H381.125V406H379.625V401.57L379.766 396.789L376.031 406H374.883L371.156 396.812L371.305 401.57V406H369.805V394.625H371.742ZM388.766 406C388.682 405.833 388.615 405.536 388.562 405.109C387.891 405.807 387.089 406.156 386.156 406.156C385.323 406.156 384.638 405.922 384.102 405.453C383.57 404.979 383.305 404.38 383.305 403.656C383.305 402.776 383.638 402.094 384.305 401.609C384.977 401.12 385.919 400.875 387.133 400.875H388.539V400.211C388.539 399.706 388.388 399.305 388.086 399.008C387.784 398.706 387.339 398.555 386.75 398.555C386.234 398.555 385.802 398.685 385.453 398.945C385.104 399.206 384.93 399.521 384.93 399.891H383.477C383.477 399.469 383.625 399.062 383.922 398.672C384.224 398.276 384.63 397.964 385.141 397.734C385.656 397.505 386.221 397.391 386.836 397.391C387.81 397.391 388.573 397.635 389.125 398.125C389.677 398.609 389.964 399.279 389.984 400.133V404.023C389.984 404.799 390.083 405.417 390.281 405.875V406H388.766ZM386.367 404.898C386.82 404.898 387.25 404.781 387.656 404.547C388.062 404.312 388.357 404.008 388.539 403.633V401.898H387.406C385.635 401.898 384.75 402.417 384.75 403.453C384.75 403.906 384.901 404.26 385.203 404.516C385.505 404.771 385.893 404.898 386.367 404.898ZM394.609 402.086L393.703 403.031V406H392.258V394H393.703V401.258L394.477 400.328L397.109 397.547H398.867L395.578 401.078L399.25 406H397.555L394.609 402.086ZM405.578 406C405.495 405.833 405.427 405.536 405.375 405.109C404.703 405.807 403.901 406.156 402.969 406.156C402.135 406.156 401.451 405.922 400.914 405.453C400.383 404.979 400.117 404.38 400.117 403.656C400.117 402.776 400.451 402.094 401.117 401.609C401.789 401.12 402.732 400.875 403.945 400.875H405.352V400.211C405.352 399.706 405.201 399.305 404.898 399.008C404.596 398.706 404.151 398.555 403.562 398.555C403.047 398.555 402.615 398.685 402.266 398.945C401.917 399.206 401.742 399.521 401.742 399.891H400.289C400.289 399.469 400.438 399.062 400.734 398.672C401.036 398.276 401.443 397.964 401.953 397.734C402.469 397.505 403.034 397.391 403.648 397.391C404.622 397.391 405.385 397.635 405.938 398.125C406.49 398.609 406.776 399.279 406.797 400.133V404.023C406.797 404.799 406.896 405.417 407.094 405.875V406H405.578ZM403.18 404.898C403.633 404.898 404.062 404.781 404.469 404.547C404.875 404.312 405.169 404.008 405.352 403.633V401.898H404.219C402.448 401.898 401.562 402.417 401.562 403.453C401.562 403.906 401.714 404.26 402.016 404.516C402.318 404.771 402.706 404.898 403.18 404.898ZM410.43 397.547L410.477 398.609C411.122 397.797 411.966 397.391 413.008 397.391C414.794 397.391 415.695 398.398 415.711 400.414V406H414.266V400.406C414.26 399.797 414.12 399.346 413.844 399.055C413.573 398.763 413.148 398.617 412.57 398.617C412.102 398.617 411.69 398.742 411.336 398.992C410.982 399.242 410.706 399.57 410.508 399.977V406H409.062V397.547H410.43ZM423.109 406C423.026 405.833 422.958 405.536 422.906 405.109C422.234 405.807 421.432 406.156 420.5 406.156C419.667 406.156 418.982 405.922 418.445 405.453C417.914 404.979 417.648 404.38 417.648 403.656C417.648 402.776 417.982 402.094 418.648 401.609C419.32 401.12 420.263 400.875 421.477 400.875H422.883V400.211C422.883 399.706 422.732 399.305 422.43 399.008C422.128 398.706 421.682 398.555 421.094 398.555C420.578 398.555 420.146 398.685 419.797 398.945C419.448 399.206 419.273 399.521 419.273 399.891H417.82C417.82 399.469 417.969 399.062 418.266 398.672C418.568 398.276 418.974 397.964 419.484 397.734C420 397.505 420.565 397.391 421.18 397.391C422.154 397.391 422.917 397.635 423.469 398.125C424.021 398.609 424.307 399.279 424.328 400.133V404.023C424.328 404.799 424.427 405.417 424.625 405.875V406H423.109ZM420.711 404.898C421.164 404.898 421.594 404.781 422 404.547C422.406 404.312 422.701 404.008 422.883 403.633V401.898H421.75C419.979 401.898 419.094 402.417 419.094 403.453C419.094 403.906 419.245 404.26 419.547 404.516C419.849 404.771 420.237 404.898 420.711 404.898ZM427.961 397.547L428.008 398.609C428.654 397.797 429.497 397.391 430.539 397.391C432.326 397.391 433.227 398.398 433.242 400.414V406H431.797V400.406C431.792 399.797 431.651 399.346 431.375 399.055C431.104 398.763 430.68 398.617 430.102 398.617C429.633 398.617 429.221 398.742 428.867 398.992C428.513 399.242 428.237 399.57 428.039 399.977V406H426.594V397.547H427.961Z" fill="black"/>
<path d="M331.734 597H330.227L324.5 588.234V597H322.992V585.625H324.5L330.242 594.43V585.625H331.734V597ZM339.391 597C339.307 596.833 339.24 596.536 339.188 596.109C338.516 596.807 337.714 597.156 336.781 597.156C335.948 597.156 335.263 596.922 334.727 596.453C334.195 595.979 333.93 595.38 333.93 594.656C333.93 593.776 334.263 593.094 334.93 592.609C335.602 592.12 336.544 591.875 337.758 591.875H339.164V591.211C339.164 590.706 339.013 590.305 338.711 590.008C338.409 589.706 337.964 589.555 337.375 589.555C336.859 589.555 336.427 589.685 336.078 589.945C335.729 590.206 335.555 590.521 335.555 590.891H334.102C334.102 590.469 334.25 590.062 334.547 589.672C334.849 589.276 335.255 588.964 335.766 588.734C336.281 588.505 336.846 588.391 337.461 588.391C338.435 588.391 339.198 588.635 339.75 589.125C340.302 589.609 340.589 590.279 340.609 591.133V595.023C340.609 595.799 340.708 596.417 340.906 596.875V597H339.391ZM336.992 595.898C337.445 595.898 337.875 595.781 338.281 595.547C338.688 595.312 338.982 595.008 339.164 594.633V592.898H338.031C336.26 592.898 335.375 593.417 335.375 594.453C335.375 594.906 335.526 595.26 335.828 595.516C336.13 595.771 336.518 595.898 336.992 595.898ZM344.234 588.547L344.273 589.484C344.893 588.755 345.729 588.391 346.781 588.391C347.964 588.391 348.768 588.844 349.195 589.75C349.477 589.344 349.841 589.016 350.289 588.766C350.742 588.516 351.276 588.391 351.891 588.391C353.745 588.391 354.688 589.372 354.719 591.336V597H353.273V591.422C353.273 590.818 353.135 590.367 352.859 590.07C352.583 589.768 352.12 589.617 351.469 589.617C350.932 589.617 350.487 589.779 350.133 590.102C349.779 590.419 349.573 590.849 349.516 591.391V597H348.062V591.461C348.062 590.232 347.461 589.617 346.258 589.617C345.31 589.617 344.661 590.021 344.312 590.828V597H342.867V588.547H344.234ZM362.125 597C362.042 596.833 361.974 596.536 361.922 596.109C361.25 596.807 360.448 597.156 359.516 597.156C358.682 597.156 357.997 596.922 357.461 596.453C356.93 595.979 356.664 595.38 356.664 594.656C356.664 593.776 356.997 593.094 357.664 592.609C358.336 592.12 359.279 591.875 360.492 591.875H361.898V591.211C361.898 590.706 361.747 590.305 361.445 590.008C361.143 589.706 360.698 589.555 360.109 589.555C359.594 589.555 359.161 589.685 358.812 589.945C358.464 590.206 358.289 590.521 358.289 590.891H356.836C356.836 590.469 356.984 590.062 357.281 589.672C357.583 589.276 357.99 588.964 358.5 588.734C359.016 588.505 359.581 588.391 360.195 588.391C361.169 588.391 361.932 588.635 362.484 589.125C363.036 589.609 363.323 590.279 363.344 591.133V595.023C363.344 595.799 363.443 596.417 363.641 596.875V597H362.125ZM359.727 595.898C360.18 595.898 360.609 595.781 361.016 595.547C361.422 595.312 361.716 595.008 361.898 594.633V592.898H360.766C358.995 592.898 358.109 593.417 358.109 594.453C358.109 594.906 358.26 595.26 358.562 595.516C358.865 595.771 359.253 595.898 359.727 595.898ZM371.742 585.625L375.461 594.906L379.18 585.625H381.125V597H379.625V592.57L379.766 587.789L376.031 597H374.883L371.156 587.812L371.305 592.57V597H369.805V585.625H371.742ZM388.766 597C388.682 596.833 388.615 596.536 388.562 596.109C387.891 596.807 387.089 597.156 386.156 597.156C385.323 597.156 384.638 596.922 384.102 596.453C383.57 595.979 383.305 595.38 383.305 594.656C383.305 593.776 383.638 593.094 384.305 592.609C384.977 592.12 385.919 591.875 387.133 591.875H388.539V591.211C388.539 590.706 388.388 590.305 388.086 590.008C387.784 589.706 387.339 589.555 386.75 589.555C386.234 589.555 385.802 589.685 385.453 589.945C385.104 590.206 384.93 590.521 384.93 590.891H383.477C383.477 590.469 383.625 590.062 383.922 589.672C384.224 589.276 384.63 588.964 385.141 588.734C385.656 588.505 386.221 588.391 386.836 588.391C387.81 588.391 388.573 588.635 389.125 589.125C389.677 589.609 389.964 590.279 389.984 591.133V595.023C389.984 595.799 390.083 596.417 390.281 596.875V597H388.766ZM386.367 595.898C386.82 595.898 387.25 595.781 387.656 595.547C388.062 595.312 388.357 595.008 388.539 594.633V592.898H387.406C385.635 592.898 384.75 593.417 384.75 594.453C384.75 594.906 384.901 595.26 385.203 595.516C385.505 595.771 385.893 595.898 386.367 595.898ZM394.609 593.086L393.703 594.031V597H392.258V585H393.703V592.258L394.477 591.328L397.109 588.547H398.867L395.578 592.078L399.25 597H397.555L394.609 593.086ZM405.578 597C405.495 596.833 405.427 596.536 405.375 596.109C404.703 596.807 403.901 597.156 402.969 597.156C402.135 597.156 401.451 596.922 400.914 596.453C400.383 595.979 400.117 595.38 400.117 594.656C400.117 593.776 400.451 593.094 401.117 592.609C401.789 592.12 402.732 591.875 403.945 591.875H405.352V591.211C405.352 590.706 405.201 590.305 404.898 590.008C404.596 589.706 404.151 589.555 403.562 589.555C403.047 589.555 402.615 589.685 402.266 589.945C401.917 590.206 401.742 590.521 401.742 590.891H400.289C400.289 590.469 400.438 590.062 400.734 589.672C401.036 589.276 401.443 588.964 401.953 588.734C402.469 588.505 403.034 588.391 403.648 588.391C404.622 588.391 405.385 588.635 405.938 589.125C406.49 589.609 406.776 590.279 406.797 591.133V595.023C406.797 595.799 406.896 596.417 407.094 596.875V597H405.578ZM403.18 595.898C403.633 595.898 404.062 595.781 404.469 595.547C404.875 595.312 405.169 595.008 405.352 594.633V592.898H404.219C402.448 592.898 401.562 593.417 401.562 594.453C401.562 594.906 401.714 595.26 402.016 595.516C402.318 595.771 402.706 595.898 403.18 595.898ZM410.43 588.547L410.477 589.609C411.122 588.797 411.966 588.391 413.008 588.391C414.794 588.391 415.695 589.398 415.711 591.414V597H414.266V591.406C414.26 590.797 414.12 590.346 413.844 590.055C413.573 589.763 413.148 589.617 412.57 589.617C412.102 589.617 411.69 589.742 411.336 589.992C410.982 590.242 410.706 590.57 410.508 590.977V597H409.062V588.547H410.43ZM423.109 597C423.026 596.833 422.958 596.536 422.906 596.109C422.234 596.807 421.432 597.156 420.5 597.156C419.667 597.156 418.982 596.922 418.445 596.453C417.914 595.979 417.648 595.38 417.648 594.656C417.648 593.776 417.982 593.094 418.648 592.609C419.32 592.12 420.263 591.875 421.477 591.875H422.883V591.211C422.883 590.706 422.732 590.305 422.43 590.008C422.128 589.706 421.682 589.555 421.094 589.555C420.578 589.555 420.146 589.685 419.797 589.945C419.448 590.206 419.273 590.521 419.273 590.891H417.82C417.82 590.469 417.969 590.062 418.266 589.672C418.568 589.276 418.974 588.964 419.484 588.734C420 588.505 420.565 588.391 421.18 588.391C422.154 588.391 422.917 588.635 423.469 589.125C424.021 589.609 424.307 590.279 424.328 591.133V595.023C424.328 595.799 424.427 596.417 424.625 596.875V597H423.109ZM420.711 595.898C421.164 595.898 421.594 595.781 422 595.547C422.406 595.312 422.701 595.008 422.883 594.633V592.898H421.75C419.979 592.898 419.094 593.417 419.094 594.453C419.094 594.906 419.245 595.26 419.547 595.516C419.849 595.771 420.237 595.898 420.711 595.898ZM427.961 588.547L428.008 589.609C428.654 588.797 429.497 588.391 430.539 588.391C432.326 588.391 433.227 589.398 433.242 591.414V597H431.797V591.406C431.792 590.797 431.651 590.346 431.375 590.055C431.104 589.763 430.68 589.617 430.102 589.617C429.633 589.617 429.221 589.742 428.867 589.992C428.513 590.242 428.237 590.57 428.039 590.977V597H426.594V588.547H427.961Z" fill="black"/>
<path d="M331.117 788H329.609L323.883 779.234V788H322.375V776.625H323.883L329.625 785.43V776.625H331.117V788ZM338.773 788C338.69 787.833 338.622 787.536 338.57 787.109C337.898 787.807 337.096 788.156 336.164 788.156C335.331 788.156 334.646 787.922 334.109 787.453C333.578 786.979 333.312 786.38 333.312 785.656C333.312 784.776 333.646 784.094 334.312 783.609C334.984 783.12 335.927 782.875 337.141 782.875H338.547V782.211C338.547 781.706 338.396 781.305 338.094 781.008C337.792 780.706 337.346 780.555 336.758 780.555C336.242 780.555 335.81 780.685 335.461 780.945C335.112 781.206 334.938 781.521 334.938 781.891H333.484C333.484 781.469 333.633 781.062 333.93 780.672C334.232 780.276 334.638 779.964 335.148 779.734C335.664 779.505 336.229 779.391 336.844 779.391C337.818 779.391 338.581 779.635 339.133 780.125C339.685 780.609 339.971 781.279 339.992 782.133V786.023C339.992 786.799 340.091 787.417 340.289 787.875V788H338.773ZM336.375 786.898C336.828 786.898 337.258 786.781 337.664 786.547C338.07 786.312 338.365 786.008 338.547 785.633V783.898H337.414C335.643 783.898 334.758 784.417 334.758 785.453C334.758 785.906 334.909 786.26 335.211 786.516C335.513 786.771 335.901 786.898 336.375 786.898ZM343.617 779.547L343.656 780.484C344.276 779.755 345.112 779.391 346.164 779.391C347.346 779.391 348.151 779.844 348.578 780.75C348.859 780.344 349.224 780.016 349.672 779.766C350.125 779.516 350.659 779.391 351.273 779.391C353.128 779.391 354.07 780.372 354.102 782.336V788H352.656V782.422C352.656 781.818 352.518 781.367 352.242 781.07C351.966 780.768 351.503 780.617 350.852 780.617C350.315 780.617 349.87 780.779 349.516 781.102C349.161 781.419 348.956 781.849 348.898 782.391V788H347.445V782.461C347.445 781.232 346.844 780.617 345.641 780.617C344.693 780.617 344.044 781.021 343.695 781.828V788H342.25V779.547H343.617ZM361.508 788C361.424 787.833 361.357 787.536 361.305 787.109C360.633 787.807 359.831 788.156 358.898 788.156C358.065 788.156 357.38 787.922 356.844 787.453C356.312 786.979 356.047 786.38 356.047 785.656C356.047 784.776 356.38 784.094 357.047 783.609C357.719 783.12 358.661 782.875 359.875 782.875H361.281V782.211C361.281 781.706 361.13 781.305 360.828 781.008C360.526 780.706 360.081 780.555 359.492 780.555C358.977 780.555 358.544 780.685 358.195 780.945C357.846 781.206 357.672 781.521 357.672 781.891H356.219C356.219 781.469 356.367 781.062 356.664 780.672C356.966 780.276 357.372 779.964 357.883 779.734C358.398 779.505 358.964 779.391 359.578 779.391C360.552 779.391 361.315 779.635 361.867 780.125C362.419 780.609 362.706 781.279 362.727 782.133V786.023C362.727 786.799 362.826 787.417 363.023 787.875V788H361.508ZM359.109 786.898C359.562 786.898 359.992 786.781 360.398 786.547C360.805 786.312 361.099 786.008 361.281 785.633V783.898H360.148C358.378 783.898 357.492 784.417 357.492 785.453C357.492 785.906 357.643 786.26 357.945 786.516C358.247 786.771 358.635 786.898 359.109 786.898ZM371.125 776.625L374.844 785.906L378.562 776.625H380.508V788H379.008V783.57L379.148 778.789L375.414 788H374.266L370.539 778.812L370.688 783.57V788H369.188V776.625H371.125ZM384.5 788H383.055V779.547H384.5V788ZM382.938 777.305C382.938 777.07 383.008 776.872 383.148 776.711C383.294 776.549 383.508 776.469 383.789 776.469C384.07 776.469 384.284 776.549 384.43 776.711C384.576 776.872 384.648 777.07 384.648 777.305C384.648 777.539 384.576 777.734 384.43 777.891C384.284 778.047 384.07 778.125 383.789 778.125C383.508 778.125 383.294 778.047 383.148 777.891C383.008 777.734 382.938 777.539 382.938 777.305ZM388.188 779.547L388.234 780.609C388.88 779.797 389.724 779.391 390.766 779.391C392.552 779.391 393.453 780.398 393.469 782.414V788H392.023V782.406C392.018 781.797 391.878 781.346 391.602 781.055C391.331 780.763 390.906 780.617 390.328 780.617C389.859 780.617 389.448 780.742 389.094 780.992C388.74 781.242 388.464 781.57 388.266 781.977V788H386.82V779.547H388.188ZM400.867 787.164C400.305 787.826 399.479 788.156 398.391 788.156C397.49 788.156 396.802 787.896 396.328 787.375C395.859 786.849 395.622 786.073 395.617 785.047V779.547H397.062V785.008C397.062 786.289 397.583 786.93 398.625 786.93C399.729 786.93 400.464 786.518 400.828 785.695V779.547H402.273V788H400.898L400.867 787.164ZM405.836 779.547L405.875 780.484C406.495 779.755 407.331 779.391 408.383 779.391C409.565 779.391 410.37 779.844 410.797 780.75C411.078 780.344 411.443 780.016 411.891 779.766C412.344 779.516 412.878 779.391 413.492 779.391C415.346 779.391 416.289 780.372 416.32 782.336V788H414.875V782.422C414.875 781.818 414.737 781.367 414.461 781.07C414.185 780.768 413.721 780.617 413.07 780.617C412.534 780.617 412.089 780.779 411.734 781.102C411.38 781.419 411.174 781.849 411.117 782.391V788H409.664V782.461C409.664 781.232 409.062 780.617 407.859 780.617C406.911 780.617 406.263 781.021 405.914 781.828V788H404.469V779.547H405.836ZM423.727 788C423.643 787.833 423.576 787.536 423.523 787.109C422.852 787.807 422.049 788.156 421.117 788.156C420.284 788.156 419.599 787.922 419.062 787.453C418.531 786.979 418.266 786.38 418.266 785.656C418.266 784.776 418.599 784.094 419.266 783.609C419.938 783.12 420.88 782.875 422.094 782.875H423.5V782.211C423.5 781.706 423.349 781.305 423.047 781.008C422.745 780.706 422.299 780.555 421.711 780.555C421.195 780.555 420.763 780.685 420.414 780.945C420.065 781.206 419.891 781.521 419.891 781.891H418.438C418.438 781.469 418.586 781.062 418.883 780.672C419.185 780.276 419.591 779.964 420.102 779.734C420.617 779.505 421.182 779.391 421.797 779.391C422.771 779.391 423.534 779.635 424.086 780.125C424.638 780.609 424.924 781.279 424.945 782.133V786.023C424.945 786.799 425.044 787.417 425.242 787.875V788H423.727ZM421.328 786.898C421.781 786.898 422.211 786.781 422.617 786.547C423.023 786.312 423.318 786.008 423.5 785.633V783.898H422.367C420.596 783.898 419.711 784.417 419.711 785.453C419.711 785.906 419.862 786.26 420.164 786.516C420.466 786.771 420.854 786.898 421.328 786.898ZM428.578 779.547L428.625 780.609C429.271 779.797 430.115 779.391 431.156 779.391C432.943 779.391 433.844 780.398 433.859 782.414V788H432.414V782.406C432.409 781.797 432.268 781.346 431.992 781.055C431.721 780.763 431.297 780.617 430.719 780.617C430.25 780.617 429.839 780.742 429.484 780.992C429.13 781.242 428.854 781.57 428.656 781.977V788H427.211V779.547H428.578Z" fill="black"/>
<rect x="315.5" y="21.5" width="41" height="41" fill="white" stroke="black"/>
<line x1="315.349" y1="20.6422" x2="357.349" y2="61.6422" stroke="black"/>
<line x1="357.349" y1="21.3578" x2="315.349" y2="62.3578" stroke="black"/>
</g>
<rect x="0.5" y="0.5" width="374" height="811" stroke="black"/>
<defs>
<clipPath id="clip0_27_127">
<rect width="375" height="812" fill="white"/>
</clipPath>
</defs>
</svg>
