<svg width="375" height="812" viewBox="0 0 375 812" fill="none" xmlns="http://www.w3.org/2000/svg">
<g clip-path="url(#clip0_27_303)">
<rect width="375" height="812" fill="white"/>
<rect y="217" width="375" height="595" fill="white"/>
<rect x="0.5" y="0.5" width="374" height="216" fill="#E5E5E5" stroke="black"/>
<line x1="0.250427" y1="-0.432766" x2="375.25" y2="216.567" stroke="black"/>
<line x1="375.25" y1="0.432766" x2="0.250425" y2="217.433" stroke="black"/>
<path d="M22.2334 42.3398L27.7354 44.5635V46.2861L20.5459 42.9551V41.6719L27.7354 38.3496V40.0723L22.2334 42.3398ZM35.0215 48V35.2031H39.2051C40.5938 35.2031 41.6367 35.4902 42.334 36.0645C43.0371 36.6387 43.3887 37.4883 43.3887 38.6133C43.3887 39.2109 43.2188 39.7412 42.8789 40.2041C42.5391 40.6611 42.0762 41.0156 41.4902 41.2676C42.1816 41.4609 42.7266 41.8301 43.125 42.375C43.5293 42.9141 43.7314 43.5586 43.7314 44.3086C43.7314 45.457 43.3594 46.3594 42.6152 47.0156C41.8711 47.6719 40.8193 48 39.46 48H35.0215ZM36.709 42.0146V46.6201H39.4951C40.2803 46.6201 40.8984 46.418 41.3496 46.0137C41.8066 45.6035 42.0352 45.041 42.0352 44.3262C42.0352 42.7852 41.1973 42.0146 39.5215 42.0146H36.709ZM36.709 40.6611H39.2578C39.9961 40.6611 40.585 40.4766 41.0244 40.1074C41.4697 39.7383 41.6924 39.2373 41.6924 38.6045C41.6924 37.9014 41.4873 37.3916 41.0771 37.0752C40.667 36.7529 40.043 36.5918 39.2051 36.5918H36.709V40.6611ZM51.8525 48C51.7588 47.8125 51.6826 47.4785 51.624 46.998C50.8682 47.7832 49.9658 48.1758 48.917 48.1758C47.9795 48.1758 47.209 47.9121 46.6055 47.3848C46.0078 46.8516 45.709 46.1777 45.709 45.3633C45.709 44.373 46.084 43.6055 46.834 43.0605C47.5898 42.5098 48.6504 42.2344 50.0156 42.2344H51.5977V41.4873C51.5977 40.9189 51.4277 40.4678 51.0879 40.1338C50.748 39.7939 50.2471 39.624 49.585 39.624C49.0049 39.624 48.5186 39.7705 48.126 40.0635C47.7334 40.3564 47.5371 40.7109 47.5371 41.127H45.9023C45.9023 40.6523 46.0693 40.1953 46.4033 39.7559C46.7432 39.3105 47.2002 38.959 47.7744 38.7012C48.3545 38.4434 48.9902 38.3145 49.6816 38.3145C50.7773 38.3145 51.6357 38.5898 52.2568 39.1406C52.8779 39.6855 53.2002 40.4385 53.2236 41.3994V45.7764C53.2236 46.6494 53.335 47.3438 53.5576 47.8594V48H51.8525ZM49.1543 46.7607C49.6641 46.7607 50.1475 46.6289 50.6045 46.3652C51.0615 46.1016 51.3926 45.7588 51.5977 45.3369V43.3857H50.3232C48.3311 43.3857 47.335 43.9688 47.335 45.1348C47.335 45.6445 47.5049 46.043 47.8447 46.3301C48.1846 46.6172 48.6211 46.7607 49.1543 46.7607ZM59.5869 46.8486C60.167 46.8486 60.6738 46.6729 61.1074 46.3213C61.541 45.9697 61.7812 45.5303 61.8281 45.0029H63.3662C63.3369 45.5479 63.1494 46.0664 62.8037 46.5586C62.458 47.0508 61.9951 47.4434 61.415 47.7363C60.8408 48.0293 60.2314 48.1758 59.5869 48.1758C58.292 48.1758 57.2607 47.7451 56.4932 46.8838C55.7314 46.0166 55.3506 44.833 55.3506 43.333V43.0605C55.3506 42.1348 55.5205 41.3115 55.8604 40.5908C56.2002 39.8701 56.6865 39.3105 57.3193 38.9121C57.958 38.5137 58.7109 38.3145 59.5781 38.3145C60.6445 38.3145 61.5293 38.6338 62.2324 39.2725C62.9414 39.9111 63.3193 40.7402 63.3662 41.7598H61.8281C61.7812 41.1445 61.5469 40.6406 61.125 40.248C60.709 39.8496 60.1934 39.6504 59.5781 39.6504C58.752 39.6504 58.1104 39.9492 57.6533 40.5469C57.2021 41.1387 56.9766 41.9971 56.9766 43.1221V43.4297C56.9766 44.5254 57.2021 45.3691 57.6533 45.9609C58.1045 46.5527 58.749 46.8486 59.5869 46.8486ZM67.8486 43.5967L66.8291 44.6602V48H65.2031V34.5H66.8291V42.665L67.6992 41.6191L70.6611 38.4902H72.6387L68.9385 42.4629L73.0693 48H71.1621L67.8486 43.5967Z" fill="black"/>
<circle cx="165" cy="186" r="5.5" fill="#C4C4C4" stroke="black"/>
<circle cx="186" cy="186" r="5.5" fill="#C4C4C4" stroke="black"/>
<circle cx="207" cy="186" r="5.5" fill="#C4C4C4" stroke="black"/>
<path d="M117.281 256.083L114.674 258.793V266H111.861V244.672H114.674V255.219L124.151 244.672H127.55L119.156 254.091L128.209 266H124.84L117.281 256.083ZM129.117 257.929C129.117 256.376 129.42 254.979 130.025 253.739C130.641 252.499 131.49 251.542 132.574 250.868C133.668 250.194 134.913 249.857 136.31 249.857C138.468 249.857 140.211 250.604 141.539 252.099C142.877 253.593 143.546 255.58 143.546 258.061V258.251C143.546 259.794 143.248 261.181 142.652 262.411C142.066 263.632 141.222 264.584 140.118 265.268C139.024 265.951 137.765 266.293 136.339 266.293C134.19 266.293 132.447 265.546 131.109 264.052C129.781 262.558 129.117 260.58 129.117 258.119V257.929ZM131.842 258.251C131.842 260.009 132.247 261.42 133.058 262.484C133.878 263.549 134.972 264.081 136.339 264.081C137.716 264.081 138.81 263.544 139.62 262.47C140.431 261.386 140.836 259.872 140.836 257.929C140.836 256.19 140.421 254.784 139.591 253.71C138.771 252.626 137.677 252.084 136.31 252.084C134.972 252.084 133.893 252.616 133.072 253.681C132.252 254.745 131.842 256.269 131.842 258.251ZM149.508 250.15L149.596 252.143C150.807 250.619 152.389 249.857 154.342 249.857C157.691 249.857 159.381 251.747 159.41 255.526V266H156.7V255.512C156.69 254.369 156.427 253.524 155.909 252.978C155.401 252.431 154.605 252.157 153.521 252.157C152.643 252.157 151.871 252.392 151.207 252.86C150.543 253.329 150.025 253.944 149.654 254.706V266H146.944V250.15H149.508ZM164.405 266V252.245H161.9V250.15H164.405V248.803C164.405 247.035 164.908 245.658 165.914 244.672C166.93 243.686 168.36 243.192 170.206 243.192C171.3 243.192 172.682 243.49 174.352 244.086L173.897 246.371C172.677 245.883 171.515 245.639 170.411 245.639C169.249 245.639 168.409 245.902 167.892 246.43C167.384 246.947 167.13 247.729 167.13 248.773V250.15H170.367V252.245H167.13V266H164.405ZM175.699 266H172.975V250.15H175.699V266ZM187.77 252.582C187.359 252.514 186.915 252.479 186.437 252.479C184.659 252.479 183.453 253.236 182.818 254.75V266H180.108V250.15H182.745L182.789 251.981C183.678 250.565 184.938 249.857 186.568 249.857C187.096 249.857 187.496 249.926 187.77 250.062V252.582ZM192.823 250.15L192.896 251.908C194.059 250.541 195.626 249.857 197.599 249.857C199.815 249.857 201.324 250.707 202.125 252.406C202.652 251.645 203.336 251.029 204.176 250.561C205.025 250.092 206.026 249.857 207.179 249.857C210.655 249.857 212.423 251.698 212.481 255.38V266H209.771V255.541C209.771 254.408 209.513 253.563 208.995 253.007C208.478 252.44 207.608 252.157 206.388 252.157C205.382 252.157 204.547 252.46 203.883 253.065C203.219 253.661 202.833 254.467 202.726 255.482V266H200.001V255.614C200.001 253.31 198.873 252.157 196.617 252.157C194.84 252.157 193.624 252.914 192.97 254.428V266H190.26V250.15H192.823ZM226.368 266C226.212 265.688 226.085 265.131 225.987 264.33C224.728 265.639 223.224 266.293 221.476 266.293C219.913 266.293 218.629 265.854 217.623 264.975C216.627 264.086 216.129 262.963 216.129 261.605C216.129 259.955 216.754 258.676 218.004 257.768C219.264 256.85 221.031 256.391 223.307 256.391H225.943V255.146C225.943 254.198 225.66 253.446 225.094 252.89C224.527 252.323 223.692 252.04 222.589 252.04C221.622 252.04 220.812 252.284 220.157 252.772C219.503 253.261 219.176 253.852 219.176 254.545H216.451C216.451 253.754 216.729 252.992 217.286 252.26C217.853 251.518 218.614 250.932 219.571 250.502C220.538 250.072 221.598 249.857 222.75 249.857C224.576 249.857 226.007 250.316 227.042 251.234C228.077 252.143 228.614 253.397 228.653 254.999V262.294C228.653 263.749 228.839 264.906 229.21 265.766V266H226.368ZM221.871 263.935C222.721 263.935 223.526 263.715 224.288 263.275C225.05 262.836 225.602 262.265 225.943 261.562V258.31H223.819C220.499 258.31 218.839 259.281 218.839 261.225C218.839 262.074 219.122 262.738 219.688 263.217C220.255 263.695 220.982 263.935 221.871 263.935ZM242.13 261.796C242.13 261.063 241.852 260.497 241.295 260.097C240.748 259.687 239.786 259.335 238.409 259.042C237.042 258.749 235.953 258.397 235.143 257.987C234.342 257.577 233.746 257.089 233.355 256.522C232.975 255.956 232.784 255.282 232.784 254.501C232.784 253.202 233.331 252.104 234.425 251.205C235.528 250.307 236.935 249.857 238.644 249.857C240.44 249.857 241.896 250.321 243.009 251.249C244.132 252.177 244.693 253.363 244.693 254.809H241.969C241.969 254.066 241.651 253.427 241.017 252.89C240.392 252.353 239.601 252.084 238.644 252.084C237.657 252.084 236.886 252.299 236.329 252.729C235.772 253.158 235.494 253.72 235.494 254.413C235.494 255.067 235.753 255.561 236.271 255.893C236.788 256.225 237.721 256.542 239.068 256.845C240.426 257.147 241.524 257.509 242.364 257.929C243.204 258.349 243.824 258.856 244.225 259.452C244.635 260.038 244.84 260.756 244.84 261.605C244.84 263.021 244.273 264.159 243.141 265.019C242.008 265.868 240.538 266.293 238.731 266.293C237.462 266.293 236.339 266.068 235.362 265.619C234.386 265.17 233.619 264.545 233.062 263.744C232.516 262.934 232.242 262.06 232.242 261.122H234.952C235.001 262.03 235.362 262.753 236.036 263.29C236.72 263.817 237.618 264.081 238.731 264.081C239.757 264.081 240.577 263.876 241.192 263.466C241.817 263.046 242.13 262.489 242.13 261.796ZM251.314 266H248.604V250.15H251.314V266ZM248.385 245.946C248.385 245.507 248.517 245.136 248.78 244.833C249.054 244.53 249.454 244.379 249.981 244.379C250.509 244.379 250.909 244.53 251.183 244.833C251.456 245.136 251.593 245.507 251.593 245.946C251.593 246.386 251.456 246.752 251.183 247.045C250.909 247.338 250.509 247.484 249.981 247.484C249.454 247.484 249.054 247.338 248.78 247.045C248.517 246.752 248.385 246.386 248.385 245.946Z" fill="black"/>
<path d="M56.3203 328H54.624L48.1816 318.139V328H46.4854V315.203H48.1816L54.6416 325.108V315.203H56.3203V328ZM64.9336 328C64.8398 327.812 64.7637 327.479 64.7051 326.998C63.9492 327.783 63.0469 328.176 61.998 328.176C61.0605 328.176 60.29 327.912 59.6865 327.385C59.0889 326.852 58.79 326.178 58.79 325.363C58.79 324.373 59.165 323.605 59.915 323.061C60.6709 322.51 61.7314 322.234 63.0967 322.234H64.6787V321.487C64.6787 320.919 64.5088 320.468 64.1689 320.134C63.8291 319.794 63.3281 319.624 62.666 319.624C62.0859 319.624 61.5996 319.771 61.207 320.063C60.8145 320.356 60.6182 320.711 60.6182 321.127H58.9834C58.9834 320.652 59.1504 320.195 59.4844 319.756C59.8242 319.311 60.2812 318.959 60.8555 318.701C61.4355 318.443 62.0713 318.314 62.7627 318.314C63.8584 318.314 64.7168 318.59 65.3379 319.141C65.959 319.686 66.2812 320.438 66.3047 321.399V325.776C66.3047 326.649 66.416 327.344 66.6387 327.859V328H64.9336ZM62.2354 326.761C62.7451 326.761 63.2285 326.629 63.6855 326.365C64.1426 326.102 64.4736 325.759 64.6787 325.337V323.386H63.4043C61.4121 323.386 60.416 323.969 60.416 325.135C60.416 325.645 60.5859 326.043 60.9258 326.33C61.2656 326.617 61.7021 326.761 62.2354 326.761ZM70.3828 318.49L70.4268 319.545C71.124 318.725 72.0645 318.314 73.248 318.314C74.5781 318.314 75.4834 318.824 75.9639 319.844C76.2803 319.387 76.6904 319.018 77.1943 318.736C77.7041 318.455 78.3047 318.314 78.9961 318.314C81.082 318.314 82.1426 319.419 82.1777 321.628V328H80.5518V321.725C80.5518 321.045 80.3965 320.538 80.0859 320.204C79.7754 319.864 79.2539 319.694 78.5215 319.694C77.918 319.694 77.417 319.876 77.0186 320.239C76.6201 320.597 76.3887 321.08 76.3242 321.689V328H74.6895V321.769C74.6895 320.386 74.0127 319.694 72.6592 319.694C71.5928 319.694 70.8633 320.148 70.4707 321.057V328H68.8447V318.49H70.3828ZM90.5098 328C90.416 327.812 90.3398 327.479 90.2812 326.998C89.5254 327.783 88.623 328.176 87.5742 328.176C86.6367 328.176 85.8662 327.912 85.2627 327.385C84.665 326.852 84.3662 326.178 84.3662 325.363C84.3662 324.373 84.7412 323.605 85.4912 323.061C86.2471 322.51 87.3076 322.234 88.6729 322.234H90.2549V321.487C90.2549 320.919 90.085 320.468 89.7451 320.134C89.4053 319.794 88.9043 319.624 88.2422 319.624C87.6621 319.624 87.1758 319.771 86.7832 320.063C86.3906 320.356 86.1943 320.711 86.1943 321.127H84.5596C84.5596 320.652 84.7266 320.195 85.0605 319.756C85.4004 319.311 85.8574 318.959 86.4316 318.701C87.0117 318.443 87.6475 318.314 88.3389 318.314C89.4346 318.314 90.293 318.59 90.9141 319.141C91.5352 319.686 91.8574 320.438 91.8809 321.399V325.776C91.8809 326.649 91.9922 327.344 92.2148 327.859V328H90.5098ZM87.8115 326.761C88.3213 326.761 88.8047 326.629 89.2617 326.365C89.7188 326.102 90.0498 325.759 90.2549 325.337V323.386H88.9805C86.9883 323.386 85.9922 323.969 85.9922 325.135C85.9922 325.645 86.1621 326.043 86.502 326.33C86.8418 326.617 87.2783 326.761 87.8115 326.761Z" fill="black"/>
<path d="M55.3271 379.592H51.2139V391H49.5352V379.592H45.4307V378.203H55.3271V379.592ZM60.0381 391.176C58.749 391.176 57.7002 390.754 56.8916 389.91C56.083 389.061 55.6787 387.927 55.6787 386.509V386.21C55.6787 385.267 55.8574 384.426 56.2148 383.688C56.5781 382.943 57.082 382.363 57.7266 381.947C58.377 381.525 59.0801 381.314 59.8359 381.314C61.0723 381.314 62.0332 381.722 62.7188 382.536C63.4043 383.351 63.7471 384.517 63.7471 386.034V386.711H57.3047C57.3281 387.648 57.6006 388.407 58.1221 388.987C58.6494 389.562 59.3174 389.849 60.126 389.849C60.7002 389.849 61.1865 389.731 61.585 389.497C61.9834 389.263 62.332 388.952 62.6309 388.565L63.624 389.339C62.8271 390.563 61.6318 391.176 60.0381 391.176ZM59.8359 382.65C59.1797 382.65 58.6289 382.891 58.1836 383.371C57.7383 383.846 57.4629 384.514 57.3574 385.375H62.1211V385.252C62.0742 384.426 61.8516 383.787 61.4531 383.336C61.0547 382.879 60.5156 382.65 59.8359 382.65ZM67.4033 391H65.7773V377.5H67.4033V391ZM78.0469 386.351C78.0469 387.798 77.7158 388.964 77.0537 389.849C76.3916 390.733 75.4951 391.176 74.3643 391.176C73.21 391.176 72.3018 390.81 71.6396 390.077V394.656H70.0137V381.49H71.499L71.5781 382.545C72.2402 381.725 73.1602 381.314 74.3379 381.314C75.4805 381.314 76.3828 381.745 77.0449 382.606C77.7129 383.468 78.0469 384.666 78.0469 386.201V386.351ZM76.4209 386.166C76.4209 385.094 76.1924 384.247 75.7354 383.626C75.2783 383.005 74.6514 382.694 73.8545 382.694C72.8701 382.694 72.1318 383.131 71.6396 384.004V388.548C72.126 389.415 72.8701 389.849 73.8721 389.849C74.6514 389.849 75.2695 389.541 75.7266 388.926C76.1895 388.305 76.4209 387.385 76.4209 386.166Z" fill="black"/>
<path d="M50.3271 506.592H46.2139V518H44.5352V506.592H40.4307V505.203H50.3271V506.592ZM56.8398 518C56.7461 517.812 56.6699 517.479 56.6113 516.998C55.8555 517.783 54.9531 518.176 53.9043 518.176C52.9668 518.176 52.1963 517.912 51.5928 517.385C50.9951 516.852 50.6963 516.178 50.6963 515.363C50.6963 514.373 51.0713 513.605 51.8213 513.061C52.5771 512.51 53.6377 512.234 55.0029 512.234H56.585V511.487C56.585 510.919 56.415 510.468 56.0752 510.134C55.7354 509.794 55.2344 509.624 54.5723 509.624C53.9922 509.624 53.5059 509.771 53.1133 510.063C52.7207 510.356 52.5244 510.711 52.5244 511.127H50.8896C50.8896 510.652 51.0566 510.195 51.3906 509.756C51.7305 509.311 52.1875 508.959 52.7617 508.701C53.3418 508.443 53.9775 508.314 54.6689 508.314C55.7646 508.314 56.623 508.59 57.2441 509.141C57.8652 509.686 58.1875 510.438 58.2109 511.399V515.776C58.2109 516.649 58.3223 517.344 58.5449 517.859V518H56.8398ZM54.1416 516.761C54.6514 516.761 55.1348 516.629 55.5918 516.365C56.0488 516.102 56.3799 515.759 56.585 515.337V513.386H55.3105C53.3184 513.386 52.3223 513.969 52.3223 515.135C52.3223 515.645 52.4922 516.043 52.832 516.33C53.1719 516.617 53.6084 516.761 54.1416 516.761ZM62.2979 508.49L62.3506 509.686C63.0771 508.771 64.0264 508.314 65.1982 508.314C67.208 508.314 68.2217 509.448 68.2393 511.716V518H66.6133V511.707C66.6074 511.021 66.4492 510.515 66.1387 510.187C65.834 509.858 65.3564 509.694 64.7061 509.694C64.1787 509.694 63.7158 509.835 63.3174 510.116C62.9189 510.397 62.6084 510.767 62.3857 511.224V518H60.7598V508.49H62.2979ZM70.3047 513.166C70.3047 511.684 70.6475 510.506 71.333 509.633C72.0186 508.754 72.9268 508.314 74.0576 508.314C75.2178 508.314 76.123 508.725 76.7734 509.545L76.8525 508.49H78.3379V517.771C78.3379 519.002 77.9717 519.972 77.2393 520.681C76.5127 521.39 75.5342 521.744 74.3037 521.744C73.6182 521.744 72.9473 521.598 72.291 521.305C71.6348 521.012 71.1338 520.61 70.7881 520.101L71.6318 519.125C72.3291 519.986 73.1816 520.417 74.1895 520.417C74.9805 520.417 75.5957 520.194 76.0352 519.749C76.4805 519.304 76.7031 518.677 76.7031 517.868V517.051C76.0527 517.801 75.165 518.176 74.04 518.176C72.9268 518.176 72.0244 517.728 71.333 516.831C70.6475 515.935 70.3047 514.713 70.3047 513.166ZM71.9395 513.351C71.9395 514.423 72.1592 515.267 72.5986 515.882C73.0381 516.491 73.6533 516.796 74.4443 516.796C75.4697 516.796 76.2227 516.33 76.7031 515.398V511.057C76.2051 510.148 75.458 509.694 74.4619 509.694C73.6709 509.694 73.0527 510.002 72.6074 510.617C72.1621 511.232 71.9395 512.144 71.9395 513.351ZM80.4121 513.166C80.4121 511.684 80.7549 510.506 81.4404 509.633C82.126 508.754 83.0342 508.314 84.165 508.314C85.3252 508.314 86.2305 508.725 86.8809 509.545L86.96 508.49H88.4453V517.771C88.4453 519.002 88.0791 519.972 87.3467 520.681C86.6201 521.39 85.6416 521.744 84.4111 521.744C83.7256 521.744 83.0547 521.598 82.3984 521.305C81.7422 521.012 81.2412 520.61 80.8955 520.101L81.7393 519.125C82.4365 519.986 83.2891 520.417 84.2969 520.417C85.0879 520.417 85.7031 520.194 86.1426 519.749C86.5879 519.304 86.8105 518.677 86.8105 517.868V517.051C86.1602 517.801 85.2725 518.176 84.1475 518.176C83.0342 518.176 82.1318 517.728 81.4404 516.831C80.7549 515.935 80.4121 514.713 80.4121 513.166ZM82.0469 513.351C82.0469 514.423 82.2666 515.267 82.7061 515.882C83.1455 516.491 83.7607 516.796 84.5518 516.796C85.5771 516.796 86.3301 516.33 86.8105 515.398V511.057C86.3125 510.148 85.5654 509.694 84.5693 509.694C83.7783 509.694 83.1602 510.002 82.7148 510.617C82.2695 511.232 82.0469 512.144 82.0469 513.351ZM96.7773 518C96.6836 517.812 96.6074 517.479 96.5488 516.998C95.793 517.783 94.8906 518.176 93.8418 518.176C92.9043 518.176 92.1338 517.912 91.5303 517.385C90.9326 516.852 90.6338 516.178 90.6338 515.363C90.6338 514.373 91.0088 513.605 91.7588 513.061C92.5146 512.51 93.5752 512.234 94.9404 512.234H96.5225V511.487C96.5225 510.919 96.3525 510.468 96.0127 510.134C95.6729 509.794 95.1719 509.624 94.5098 509.624C93.9297 509.624 93.4434 509.771 93.0508 510.063C92.6582 510.356 92.4619 510.711 92.4619 511.127H90.8271C90.8271 510.652 90.9941 510.195 91.3281 509.756C91.668 509.311 92.125 508.959 92.6992 508.701C93.2793 508.443 93.915 508.314 94.6064 508.314C95.7021 508.314 96.5605 508.59 97.1816 509.141C97.8027 509.686 98.125 510.438 98.1484 511.399V515.776C98.1484 516.649 98.2598 517.344 98.4824 517.859V518H96.7773ZM94.0791 516.761C94.5889 516.761 95.0723 516.629 95.5293 516.365C95.9863 516.102 96.3174 515.759 96.5225 515.337V513.386H95.248C93.2559 513.386 92.2598 513.969 92.2598 515.135C92.2598 515.645 92.4297 516.043 92.7695 516.33C93.1094 516.617 93.5459 516.761 94.0791 516.761ZM102.464 518H100.838V504.5H102.464V518ZM105.399 519.099H104.002L109.346 505.203H110.734L105.399 519.099ZM115.507 513.966L115.753 515.653L116.113 514.133L118.645 505.203H120.068L122.538 514.133L122.89 515.68L123.162 513.957L125.148 505.203H126.845L123.742 518H122.204L119.567 508.675L119.365 507.699L119.163 508.675L116.43 518H114.892L111.798 505.203H113.485L115.507 513.966ZM134.043 518C133.949 517.812 133.873 517.479 133.814 516.998C133.059 517.783 132.156 518.176 131.107 518.176C130.17 518.176 129.399 517.912 128.796 517.385C128.198 516.852 127.899 516.178 127.899 515.363C127.899 514.373 128.274 513.605 129.024 513.061C129.78 512.51 130.841 512.234 132.206 512.234H133.788V511.487C133.788 510.919 133.618 510.468 133.278 510.134C132.938 509.794 132.438 509.624 131.775 509.624C131.195 509.624 130.709 509.771 130.316 510.063C129.924 510.356 129.728 510.711 129.728 511.127H128.093C128.093 510.652 128.26 510.195 128.594 509.756C128.934 509.311 129.391 508.959 129.965 508.701C130.545 508.443 131.181 508.314 131.872 508.314C132.968 508.314 133.826 508.59 134.447 509.141C135.068 509.686 135.391 510.438 135.414 511.399V515.776C135.414 516.649 135.525 517.344 135.748 517.859V518H134.043ZM131.345 516.761C131.854 516.761 132.338 516.629 132.795 516.365C133.252 516.102 133.583 515.759 133.788 515.337V513.386H132.514C130.521 513.386 129.525 513.969 129.525 515.135C129.525 515.645 129.695 516.043 130.035 516.33C130.375 516.617 130.812 516.761 131.345 516.761ZM140.617 513.597L139.598 514.66V518H137.972V504.5H139.598V512.665L140.468 511.619L143.43 508.49H145.407L141.707 512.463L145.838 518H143.931L140.617 513.597ZM149.292 506.188V508.49H151.067V509.747H149.292V515.645C149.292 516.025 149.371 516.312 149.529 516.506C149.688 516.693 149.957 516.787 150.338 516.787C150.525 516.787 150.783 516.752 151.111 516.682V518C150.684 518.117 150.268 518.176 149.863 518.176C149.137 518.176 148.589 517.956 148.22 517.517C147.851 517.077 147.666 516.453 147.666 515.645V509.747H145.935V508.49H147.666V506.188H149.292ZM158.846 517.06C158.213 517.804 157.284 518.176 156.06 518.176C155.046 518.176 154.272 517.883 153.739 517.297C153.212 516.705 152.945 515.832 152.939 514.678V508.49H154.565V514.634C154.565 516.075 155.151 516.796 156.323 516.796C157.565 516.796 158.392 516.333 158.802 515.407V508.49H160.428V518H158.881L158.846 517.06Z" fill="black"/>
<path d="M48.1729 575.99V581H46.4854V568.203H51.2051C52.6055 568.203 53.7012 568.561 54.4922 569.275C55.2891 569.99 55.6875 570.937 55.6875 572.114C55.6875 573.356 55.2979 574.314 54.5186 574.988C53.7451 575.656 52.6348 575.99 51.1875 575.99H48.1729ZM48.1729 574.61H51.2051C52.1074 574.61 52.7988 574.399 53.2793 573.978C53.7598 573.55 54 572.935 54 572.132C54 571.37 53.7598 570.761 53.2793 570.304C52.7988 569.847 52.1396 569.609 51.3018 569.592H48.1729V574.61ZM61.4092 581.176C60.1201 581.176 59.0713 580.754 58.2627 579.91C57.4541 579.061 57.0498 577.927 57.0498 576.509V576.21C57.0498 575.267 57.2285 574.426 57.5859 573.688C57.9492 572.943 58.4531 572.363 59.0977 571.947C59.748 571.525 60.4512 571.314 61.207 571.314C62.4434 571.314 63.4043 571.722 64.0898 572.536C64.7754 573.351 65.1182 574.517 65.1182 576.034V576.711H58.6758C58.6992 577.648 58.9717 578.407 59.4932 578.987C60.0205 579.562 60.6885 579.849 61.4971 579.849C62.0713 579.849 62.5576 579.731 62.9561 579.497C63.3545 579.263 63.7031 578.952 64.002 578.565L64.9951 579.339C64.1982 580.563 63.0029 581.176 61.4092 581.176ZM61.207 572.65C60.5508 572.65 60 572.891 59.5547 573.371C59.1094 573.846 58.834 574.514 58.7285 575.375H63.4922V575.252C63.4453 574.426 63.2227 573.787 62.8242 573.336C62.4258 572.879 61.8867 572.65 61.207 572.65ZM72.5449 578.478C72.5449 578.038 72.3779 577.698 72.0439 577.458C71.7158 577.212 71.1387 577.001 70.3125 576.825C69.4922 576.649 68.8389 576.438 68.3525 576.192C67.8721 575.946 67.5146 575.653 67.2803 575.313C67.0518 574.974 66.9375 574.569 66.9375 574.101C66.9375 573.321 67.2656 572.662 67.9219 572.123C68.584 571.584 69.4277 571.314 70.4531 571.314C71.5312 571.314 72.4043 571.593 73.0723 572.149C73.7461 572.706 74.083 573.418 74.083 574.285H72.4482C72.4482 573.84 72.2578 573.456 71.877 573.134C71.502 572.812 71.0273 572.65 70.4531 572.65C69.8613 572.65 69.3984 572.779 69.0645 573.037C68.7305 573.295 68.5635 573.632 68.5635 574.048C68.5635 574.44 68.7188 574.736 69.0293 574.936C69.3398 575.135 69.8994 575.325 70.708 575.507C71.5225 575.688 72.1816 575.905 72.6855 576.157C73.1895 576.409 73.5615 576.714 73.8018 577.071C74.0479 577.423 74.1709 577.854 74.1709 578.363C74.1709 579.213 73.8311 579.896 73.1514 580.411C72.4717 580.921 71.5898 581.176 70.5059 581.176C69.7441 581.176 69.0703 581.041 68.4844 580.771C67.8984 580.502 67.4385 580.127 67.1045 579.646C66.7764 579.16 66.6123 578.636 66.6123 578.073H68.2383C68.2676 578.618 68.4844 579.052 68.8887 579.374C69.2988 579.69 69.8379 579.849 70.5059 579.849C71.1211 579.849 71.6133 579.726 71.9824 579.479C72.3574 579.228 72.5449 578.894 72.5449 578.478ZM82.1602 581C82.0664 580.812 81.9902 580.479 81.9316 579.998C81.1758 580.783 80.2734 581.176 79.2246 581.176C78.2871 581.176 77.5166 580.912 76.9131 580.385C76.3154 579.852 76.0166 579.178 76.0166 578.363C76.0166 577.373 76.3916 576.605 77.1416 576.061C77.8975 575.51 78.958 575.234 80.3232 575.234H81.9053V574.487C81.9053 573.919 81.7354 573.468 81.3955 573.134C81.0557 572.794 80.5547 572.624 79.8926 572.624C79.3125 572.624 78.8262 572.771 78.4336 573.063C78.041 573.356 77.8447 573.711 77.8447 574.127H76.21C76.21 573.652 76.377 573.195 76.7109 572.756C77.0508 572.311 77.5078 571.959 78.082 571.701C78.6621 571.443 79.2979 571.314 79.9893 571.314C81.085 571.314 81.9434 571.59 82.5645 572.141C83.1855 572.686 83.5078 573.438 83.5312 574.399V578.776C83.5312 579.649 83.6426 580.344 83.8652 580.859V581H82.1602ZM79.4619 579.761C79.9717 579.761 80.4551 579.629 80.9121 579.365C81.3691 579.102 81.7002 578.759 81.9053 578.337V576.386H80.6309C78.6387 576.386 77.6426 576.969 77.6426 578.135C77.6426 578.645 77.8125 579.043 78.1523 579.33C78.4922 579.617 78.9287 579.761 79.4619 579.761ZM87.6182 571.49L87.6709 572.686C88.3975 571.771 89.3467 571.314 90.5186 571.314C92.5283 571.314 93.542 572.448 93.5596 574.716V581H91.9336V574.707C91.9277 574.021 91.7695 573.515 91.459 573.187C91.1543 572.858 90.6768 572.694 90.0264 572.694C89.499 572.694 89.0361 572.835 88.6377 573.116C88.2393 573.397 87.9287 573.767 87.7061 574.224V581H86.0801V571.49H87.6182ZM101.883 581C101.789 580.812 101.713 580.479 101.654 579.998C100.898 580.783 99.9961 581.176 98.9473 581.176C98.0098 581.176 97.2393 580.912 96.6357 580.385C96.0381 579.852 95.7393 579.178 95.7393 578.363C95.7393 577.373 96.1143 576.605 96.8643 576.061C97.6201 575.51 98.6807 575.234 100.046 575.234H101.628V574.487C101.628 573.919 101.458 573.468 101.118 573.134C100.778 572.794 100.277 572.624 99.6152 572.624C99.0352 572.624 98.5488 572.771 98.1562 573.063C97.7637 573.356 97.5674 573.711 97.5674 574.127H95.9326C95.9326 573.652 96.0996 573.195 96.4336 572.756C96.7734 572.311 97.2305 571.959 97.8047 571.701C98.3848 571.443 99.0205 571.314 99.7119 571.314C100.808 571.314 101.666 571.59 102.287 572.141C102.908 572.686 103.23 573.438 103.254 574.399V578.776C103.254 579.649 103.365 580.344 103.588 580.859V581H101.883ZM99.1846 579.761C99.6943 579.761 100.178 579.629 100.635 579.365C101.092 579.102 101.423 578.759 101.628 578.337V576.386H100.354C98.3613 576.386 97.3652 576.969 97.3652 578.135C97.3652 578.645 97.5352 579.043 97.875 579.33C98.2148 579.617 98.6514 579.761 99.1846 579.761ZM107.341 571.49L107.394 572.686C108.12 571.771 109.069 571.314 110.241 571.314C112.251 571.314 113.265 572.448 113.282 574.716V581H111.656V574.707C111.65 574.021 111.492 573.515 111.182 573.187C110.877 572.858 110.399 572.694 109.749 572.694C109.222 572.694 108.759 572.835 108.36 573.116C107.962 573.397 107.651 573.767 107.429 574.224V581H105.803V571.49H107.341Z" fill="black"/>
<path d="M51.8467 441.203H53.543V450.265C53.543 451.489 53.1738 452.447 52.4355 453.139C51.7031 453.83 50.7246 454.176 49.5 454.176C48.2285 454.176 47.2383 453.851 46.5293 453.2C45.8203 452.55 45.4658 451.639 45.4658 450.467H47.1533C47.1533 451.199 47.3525 451.771 47.751 452.181C48.1553 452.591 48.7383 452.796 49.5 452.796C50.1973 452.796 50.7598 452.576 51.1875 452.137C51.6211 451.697 51.8408 451.082 51.8467 450.291V441.203ZM62.0332 453.06C61.4004 453.804 60.4717 454.176 59.2471 454.176C58.2334 454.176 57.46 453.883 56.9268 453.297C56.3994 452.705 56.1328 451.832 56.127 450.678V444.49H57.7529V450.634C57.7529 452.075 58.3389 452.796 59.5107 452.796C60.7529 452.796 61.5791 452.333 61.9893 451.407V444.49H63.6152V454H62.0684L62.0332 453.06ZM67.623 444.49L67.667 445.545C68.3643 444.725 69.3047 444.314 70.4883 444.314C71.8184 444.314 72.7236 444.824 73.2041 445.844C73.5205 445.387 73.9307 445.018 74.4346 444.736C74.9443 444.455 75.5449 444.314 76.2363 444.314C78.3223 444.314 79.3828 445.419 79.418 447.628V454H77.792V447.725C77.792 447.045 77.6367 446.538 77.3262 446.204C77.0156 445.864 76.4941 445.694 75.7617 445.694C75.1582 445.694 74.6572 445.876 74.2588 446.239C73.8604 446.597 73.6289 447.08 73.5645 447.689V454H71.9297V447.769C71.9297 446.386 71.2529 445.694 69.8994 445.694C68.833 445.694 68.1035 446.148 67.7109 447.057V454H66.085V444.49H67.623ZM83.6455 454H82.0195V440.5H83.6455V454ZM92.127 454C92.0332 453.812 91.957 453.479 91.8984 452.998C91.1426 453.783 90.2402 454.176 89.1914 454.176C88.2539 454.176 87.4834 453.912 86.8799 453.385C86.2822 452.852 85.9834 452.178 85.9834 451.363C85.9834 450.373 86.3584 449.605 87.1084 449.061C87.8643 448.51 88.9248 448.234 90.29 448.234H91.8721V447.487C91.8721 446.919 91.7021 446.468 91.3623 446.134C91.0225 445.794 90.5215 445.624 89.8594 445.624C89.2793 445.624 88.793 445.771 88.4004 446.063C88.0078 446.356 87.8115 446.711 87.8115 447.127H86.1768C86.1768 446.652 86.3438 446.195 86.6777 445.756C87.0176 445.311 87.4746 444.959 88.0488 444.701C88.6289 444.443 89.2646 444.314 89.9561 444.314C91.0518 444.314 91.9102 444.59 92.5312 445.141C93.1523 445.686 93.4746 446.438 93.498 447.399V451.776C93.498 452.649 93.6094 453.344 93.832 453.859V454H92.127ZM89.4287 452.761C89.9385 452.761 90.4219 452.629 90.8789 452.365C91.3359 452.102 91.667 451.759 91.8721 451.337V449.386H90.5977C88.6055 449.386 87.6094 449.969 87.6094 451.135C87.6094 451.645 87.7793 452.043 88.1191 452.33C88.459 452.617 88.8955 452.761 89.4287 452.761ZM97.6729 445.642C98.3936 444.757 99.3311 444.314 100.485 444.314C102.495 444.314 103.509 445.448 103.526 447.716V454H101.9V447.707C101.895 447.021 101.736 446.515 101.426 446.187C101.121 445.858 100.644 445.694 99.9932 445.694C99.4658 445.694 99.0029 445.835 98.6045 446.116C98.2061 446.397 97.8955 446.767 97.6729 447.224V454H96.0469V440.5H97.6729V445.642ZM119.171 442.592H115.058V454H113.379V442.592H109.274V441.203H119.171V442.592ZM125.684 454C125.59 453.812 125.514 453.479 125.455 452.998C124.699 453.783 123.797 454.176 122.748 454.176C121.811 454.176 121.04 453.912 120.437 453.385C119.839 452.852 119.54 452.178 119.54 451.363C119.54 450.373 119.915 449.605 120.665 449.061C121.421 448.51 122.481 448.234 123.847 448.234H125.429V447.487C125.429 446.919 125.259 446.468 124.919 446.134C124.579 445.794 124.078 445.624 123.416 445.624C122.836 445.624 122.35 445.771 121.957 446.063C121.564 446.356 121.368 446.711 121.368 447.127H119.733C119.733 446.652 119.9 446.195 120.234 445.756C120.574 445.311 121.031 444.959 121.605 444.701C122.186 444.443 122.821 444.314 123.513 444.314C124.608 444.314 125.467 444.59 126.088 445.141C126.709 445.686 127.031 446.438 127.055 447.399V451.776C127.055 452.649 127.166 453.344 127.389 453.859V454H125.684ZM122.985 452.761C123.495 452.761 123.979 452.629 124.436 452.365C124.893 452.102 125.224 451.759 125.429 451.337V449.386H124.154C122.162 449.386 121.166 449.969 121.166 451.135C121.166 451.645 121.336 452.043 121.676 452.33C122.016 452.617 122.452 452.761 122.985 452.761ZM131.133 444.49L131.177 445.545C131.874 444.725 132.814 444.314 133.998 444.314C135.328 444.314 136.233 444.824 136.714 445.844C137.03 445.387 137.44 445.018 137.944 444.736C138.454 444.455 139.055 444.314 139.746 444.314C141.832 444.314 142.893 445.419 142.928 447.628V454H141.302V447.725C141.302 447.045 141.146 446.538 140.836 446.204C140.525 445.864 140.004 445.694 139.271 445.694C138.668 445.694 138.167 445.876 137.769 446.239C137.37 446.597 137.139 447.08 137.074 447.689V454H135.439V447.769C135.439 446.386 134.763 445.694 133.409 445.694C132.343 445.694 131.613 446.148 131.221 447.057V454H129.595V444.49H131.133ZM151.26 453.06C150.627 453.804 149.698 454.176 148.474 454.176C147.46 454.176 146.687 453.883 146.153 453.297C145.626 452.705 145.359 451.832 145.354 450.678V444.49H146.979V450.634C146.979 452.075 147.565 452.796 148.737 452.796C149.979 452.796 150.806 452.333 151.216 451.407V444.49H152.842V454H151.295L151.26 453.06Z" fill="black"/>
<rect x="108.5" y="301.5" width="230" height="41" fill="#E5E5E5" stroke="black"/>
<rect x="108.5" y="364.5" width="230" height="41" fill="#E5E5E5" stroke="black"/>
<rect x="170.5" y="427.5" width="168" height="41" fill="#E5E5E5" stroke="black"/>
<rect x="171.5" y="490.5" width="167" height="41" fill="#E5E5E5" stroke="black"/>
<rect x="129.5" y="554.5" width="209" height="61" fill="#E5E5E5" stroke="black"/>
<rect x="34" y="638" width="313" height="42" fill="#8E8A8A"/>
<rect x="34" y="701" width="313" height="42" fill="#8E8A8A"/>
<path d="M109.594 660V642.938H115.172C117.023 642.938 118.414 643.32 119.344 644.086C120.281 644.852 120.75 645.984 120.75 647.484C120.75 648.281 120.523 648.988 120.07 649.605C119.617 650.215 119 650.688 118.219 651.023C119.141 651.281 119.867 651.773 120.398 652.5C120.938 653.219 121.207 654.078 121.207 655.078C121.207 656.609 120.711 657.812 119.719 658.688C118.727 659.562 117.324 660 115.512 660H109.594ZM111.844 652.02V658.16H115.559C116.605 658.16 117.43 657.891 118.031 657.352C118.641 656.805 118.945 656.055 118.945 655.102C118.945 653.047 117.828 652.02 115.594 652.02H111.844ZM111.844 650.215H115.242C116.227 650.215 117.012 649.969 117.598 649.477C118.191 648.984 118.488 648.316 118.488 647.473C118.488 646.535 118.215 645.855 117.668 645.434C117.121 645.004 116.289 644.789 115.172 644.789H111.844V650.215ZM132.035 660C131.91 659.75 131.809 659.305 131.73 658.664C130.723 659.711 129.52 660.234 128.121 660.234C126.871 660.234 125.844 659.883 125.039 659.18C124.242 658.469 123.844 657.57 123.844 656.484C123.844 655.164 124.344 654.141 125.344 653.414C126.352 652.68 127.766 652.312 129.586 652.312H131.695V651.316C131.695 650.559 131.469 649.957 131.016 649.512C130.562 649.059 129.895 648.832 129.012 648.832C128.238 648.832 127.59 649.027 127.066 649.418C126.543 649.809 126.281 650.281 126.281 650.836H124.102C124.102 650.203 124.324 649.594 124.77 649.008C125.223 648.414 125.832 647.945 126.598 647.602C127.371 647.258 128.219 647.086 129.141 647.086C130.602 647.086 131.746 647.453 132.574 648.188C133.402 648.914 133.832 649.918 133.863 651.199V657.035C133.863 658.199 134.012 659.125 134.309 659.812V660H132.035ZM128.438 658.348C129.117 658.348 129.762 658.172 130.371 657.82C130.98 657.469 131.422 657.012 131.695 656.449V653.848H129.996C127.34 653.848 126.012 654.625 126.012 656.18C126.012 656.859 126.238 657.391 126.691 657.773C127.145 658.156 127.727 658.348 128.438 658.348ZM141.223 656.824L144.176 647.32H146.496L141.398 661.957C140.609 664.066 139.355 665.121 137.637 665.121L137.227 665.086L136.418 664.934V663.176L137.004 663.223C137.738 663.223 138.309 663.074 138.715 662.777C139.129 662.48 139.469 661.938 139.734 661.148L140.215 659.859L135.691 647.32H138.059L141.223 656.824ZM156.082 660C155.957 659.75 155.855 659.305 155.777 658.664C154.77 659.711 153.566 660.234 152.168 660.234C150.918 660.234 149.891 659.883 149.086 659.18C148.289 658.469 147.891 657.57 147.891 656.484C147.891 655.164 148.391 654.141 149.391 653.414C150.398 652.68 151.812 652.312 153.633 652.312H155.742V651.316C155.742 650.559 155.516 649.957 155.062 649.512C154.609 649.059 153.941 648.832 153.059 648.832C152.285 648.832 151.637 649.027 151.113 649.418C150.59 649.809 150.328 650.281 150.328 650.836H148.148C148.148 650.203 148.371 649.594 148.816 649.008C149.27 648.414 149.879 647.945 150.645 647.602C151.418 647.258 152.266 647.086 153.188 647.086C154.648 647.086 155.793 647.453 156.621 648.188C157.449 648.914 157.879 649.918 157.91 651.199V657.035C157.91 658.199 158.059 659.125 158.355 659.812V660H156.082ZM152.484 658.348C153.164 658.348 153.809 658.172 154.418 657.82C155.027 657.469 155.469 657.012 155.742 656.449V653.848H154.043C151.387 653.848 150.059 654.625 150.059 656.18C150.059 656.859 150.285 657.391 150.738 657.773C151.191 658.156 151.773 658.348 152.484 658.348ZM167.438 649.266C167.109 649.211 166.754 649.184 166.371 649.184C164.949 649.184 163.984 649.789 163.477 651V660H161.309V647.32H163.418L163.453 648.785C164.164 647.652 165.172 647.086 166.477 647.086C166.898 647.086 167.219 647.141 167.438 647.25V649.266ZM180.762 652.395C178.832 651.84 177.426 651.16 176.543 650.355C175.668 649.543 175.23 648.543 175.23 647.355C175.23 646.012 175.766 644.902 176.836 644.027C177.914 643.145 179.312 642.703 181.031 642.703C182.203 642.703 183.246 642.93 184.16 643.383C185.082 643.836 185.793 644.461 186.293 645.258C186.801 646.055 187.055 646.926 187.055 647.871H184.793C184.793 646.84 184.465 646.031 183.809 645.445C183.152 644.852 182.227 644.555 181.031 644.555C179.922 644.555 179.055 644.801 178.43 645.293C177.812 645.777 177.504 646.453 177.504 647.32C177.504 648.016 177.797 648.605 178.383 649.09C178.977 649.566 179.98 650.004 181.395 650.402C182.816 650.801 183.926 651.242 184.723 651.727C185.527 652.203 186.121 652.762 186.504 653.402C186.895 654.043 187.09 654.797 187.09 655.664C187.09 657.047 186.551 658.156 185.473 658.992C184.395 659.82 182.953 660.234 181.148 660.234C179.977 660.234 178.883 660.012 177.867 659.566C176.852 659.113 176.066 658.496 175.512 657.715C174.965 656.934 174.691 656.047 174.691 655.055H176.953C176.953 656.086 177.332 656.902 178.09 657.504C178.855 658.098 179.875 658.395 181.148 658.395C182.336 658.395 183.246 658.152 183.879 657.668C184.512 657.184 184.828 656.523 184.828 655.688C184.828 654.852 184.535 654.207 183.949 653.754C183.363 653.293 182.301 652.84 180.762 652.395ZM194.906 660.234C193.188 660.234 191.789 659.672 190.711 658.547C189.633 657.414 189.094 655.902 189.094 654.012V653.613C189.094 652.355 189.332 651.234 189.809 650.25C190.293 649.258 190.965 648.484 191.824 647.93C192.691 647.367 193.629 647.086 194.637 647.086C196.285 647.086 197.566 647.629 198.48 648.715C199.395 649.801 199.852 651.355 199.852 653.379V654.281H191.262C191.293 655.531 191.656 656.543 192.352 657.316C193.055 658.082 193.945 658.465 195.023 658.465C195.789 658.465 196.438 658.309 196.969 657.996C197.5 657.684 197.965 657.27 198.363 656.754L199.688 657.785C198.625 659.418 197.031 660.234 194.906 660.234ZM194.637 648.867C193.762 648.867 193.027 649.188 192.434 649.828C191.84 650.461 191.473 651.352 191.332 652.5H197.684V652.336C197.621 651.234 197.324 650.383 196.793 649.781C196.262 649.172 195.543 648.867 194.637 648.867ZM205.91 654.129L204.551 655.547V660H202.383V642H204.551V652.887L205.711 651.492L209.66 647.32H212.297L207.363 652.617L212.871 660H210.328L205.91 654.129ZM222.363 660C222.238 659.75 222.137 659.305 222.059 658.664C221.051 659.711 219.848 660.234 218.449 660.234C217.199 660.234 216.172 659.883 215.367 659.18C214.57 658.469 214.172 657.57 214.172 656.484C214.172 655.164 214.672 654.141 215.672 653.414C216.68 652.68 218.094 652.312 219.914 652.312H222.023V651.316C222.023 650.559 221.797 649.957 221.344 649.512C220.891 649.059 220.223 648.832 219.34 648.832C218.566 648.832 217.918 649.027 217.395 649.418C216.871 649.809 216.609 650.281 216.609 650.836H214.43C214.43 650.203 214.652 649.594 215.098 649.008C215.551 648.414 216.16 647.945 216.926 647.602C217.699 647.258 218.547 647.086 219.469 647.086C220.93 647.086 222.074 647.453 222.902 648.188C223.73 648.914 224.16 649.918 224.191 651.199V657.035C224.191 658.199 224.34 659.125 224.637 659.812V660H222.363ZM218.766 658.348C219.445 658.348 220.09 658.172 220.699 657.82C221.309 657.469 221.75 657.012 222.023 656.449V653.848H220.324C217.668 653.848 216.34 654.625 216.34 656.18C216.34 656.859 216.566 657.391 217.02 657.773C217.473 658.156 218.055 658.348 218.766 658.348ZM233.719 649.266C233.391 649.211 233.035 649.184 232.652 649.184C231.23 649.184 230.266 649.789 229.758 651V660H227.59V647.32H229.699L229.734 648.785C230.445 647.652 231.453 647.086 232.758 647.086C233.18 647.086 233.5 647.141 233.719 647.25V649.266ZM243.082 660C242.957 659.75 242.855 659.305 242.777 658.664C241.77 659.711 240.566 660.234 239.168 660.234C237.918 660.234 236.891 659.883 236.086 659.18C235.289 658.469 234.891 657.57 234.891 656.484C234.891 655.164 235.391 654.141 236.391 653.414C237.398 652.68 238.812 652.312 240.633 652.312H242.742V651.316C242.742 650.559 242.516 649.957 242.062 649.512C241.609 649.059 240.941 648.832 240.059 648.832C239.285 648.832 238.637 649.027 238.113 649.418C237.59 649.809 237.328 650.281 237.328 650.836H235.148C235.148 650.203 235.371 649.594 235.816 649.008C236.27 648.414 236.879 647.945 237.645 647.602C238.418 647.258 239.266 647.086 240.188 647.086C241.648 647.086 242.793 647.453 243.621 648.188C244.449 648.914 244.879 649.918 244.91 651.199V657.035C244.91 658.199 245.059 659.125 245.355 659.812V660H243.082ZM239.484 658.348C240.164 658.348 240.809 658.172 241.418 657.82C242.027 657.469 242.469 657.012 242.742 656.449V653.848H241.043C238.387 653.848 237.059 654.625 237.059 656.18C237.059 656.859 237.285 657.391 237.738 657.773C238.191 658.156 238.773 658.348 239.484 658.348ZM250.359 647.32L250.43 648.914C251.398 647.695 252.664 647.086 254.227 647.086C256.906 647.086 258.258 648.598 258.281 651.621V660H256.113V651.609C256.105 650.695 255.895 650.02 255.48 649.582C255.074 649.145 254.438 648.926 253.57 648.926C252.867 648.926 252.25 649.113 251.719 649.488C251.188 649.863 250.773 650.355 250.477 650.965V660H248.309V647.32H250.359ZM261.035 653.555C261.035 651.578 261.492 650.008 262.406 648.844C263.32 647.672 264.531 647.086 266.039 647.086C267.586 647.086 268.793 647.633 269.66 648.727L269.766 647.32H271.746V659.695C271.746 661.336 271.258 662.629 270.281 663.574C269.312 664.52 268.008 664.992 266.367 664.992C265.453 664.992 264.559 664.797 263.684 664.406C262.809 664.016 262.141 663.48 261.68 662.801L262.805 661.5C263.734 662.648 264.871 663.223 266.215 663.223C267.27 663.223 268.09 662.926 268.676 662.332C269.27 661.738 269.566 660.902 269.566 659.824V658.734C268.699 659.734 267.516 660.234 266.016 660.234C264.531 660.234 263.328 659.637 262.406 658.441C261.492 657.246 261.035 655.617 261.035 653.555ZM263.215 653.801C263.215 655.23 263.508 656.355 264.094 657.176C264.68 657.988 265.5 658.395 266.555 658.395C267.922 658.395 268.926 657.773 269.566 656.531V650.742C268.902 649.531 267.906 648.926 266.578 648.926C265.523 648.926 264.699 649.336 264.105 650.156C263.512 650.977 263.215 652.191 263.215 653.801Z" fill="black"/>
<path d="M130.863 723V705.938H136.441C138.293 705.938 139.684 706.32 140.613 707.086C141.551 707.852 142.02 708.984 142.02 710.484C142.02 711.281 141.793 711.988 141.34 712.605C140.887 713.215 140.27 713.688 139.488 714.023C140.41 714.281 141.137 714.773 141.668 715.5C142.207 716.219 142.477 717.078 142.477 718.078C142.477 719.609 141.98 720.812 140.988 721.688C139.996 722.562 138.594 723 136.781 723H130.863ZM133.113 715.02V721.16H136.828C137.875 721.16 138.699 720.891 139.301 720.352C139.91 719.805 140.215 719.055 140.215 718.102C140.215 716.047 139.098 715.02 136.863 715.02H133.113ZM133.113 713.215H136.512C137.496 713.215 138.281 712.969 138.867 712.477C139.461 711.984 139.758 711.316 139.758 710.473C139.758 709.535 139.484 708.855 138.938 708.434C138.391 708.004 137.559 707.789 136.441 707.789H133.113V713.215ZM153.305 723C153.18 722.75 153.078 722.305 153 721.664C151.992 722.711 150.789 723.234 149.391 723.234C148.141 723.234 147.113 722.883 146.309 722.18C145.512 721.469 145.113 720.57 145.113 719.484C145.113 718.164 145.613 717.141 146.613 716.414C147.621 715.68 149.035 715.312 150.855 715.312H152.965V714.316C152.965 713.559 152.738 712.957 152.285 712.512C151.832 712.059 151.164 711.832 150.281 711.832C149.508 711.832 148.859 712.027 148.336 712.418C147.812 712.809 147.551 713.281 147.551 713.836H145.371C145.371 713.203 145.594 712.594 146.039 712.008C146.492 711.414 147.102 710.945 147.867 710.602C148.641 710.258 149.488 710.086 150.41 710.086C151.871 710.086 153.016 710.453 153.844 711.188C154.672 711.914 155.102 712.918 155.133 714.199V720.035C155.133 721.199 155.281 722.125 155.578 722.812V723H153.305ZM149.707 721.348C150.387 721.348 151.031 721.172 151.641 720.82C152.25 720.469 152.691 720.012 152.965 719.449V716.848H151.266C148.609 716.848 147.281 717.625 147.281 719.18C147.281 719.859 147.508 720.391 147.961 720.773C148.414 721.156 148.996 721.348 149.707 721.348ZM162.492 719.824L165.445 710.32H167.766L162.668 724.957C161.879 727.066 160.625 728.121 158.906 728.121L158.496 728.086L157.688 727.934V726.176L158.273 726.223C159.008 726.223 159.578 726.074 159.984 725.777C160.398 725.48 160.738 724.938 161.004 724.148L161.484 722.859L156.961 710.32H159.328L162.492 719.824ZM177.352 723C177.227 722.75 177.125 722.305 177.047 721.664C176.039 722.711 174.836 723.234 173.438 723.234C172.188 723.234 171.16 722.883 170.355 722.18C169.559 721.469 169.16 720.57 169.16 719.484C169.16 718.164 169.66 717.141 170.66 716.414C171.668 715.68 173.082 715.312 174.902 715.312H177.012V714.316C177.012 713.559 176.785 712.957 176.332 712.512C175.879 712.059 175.211 711.832 174.328 711.832C173.555 711.832 172.906 712.027 172.383 712.418C171.859 712.809 171.598 713.281 171.598 713.836H169.418C169.418 713.203 169.641 712.594 170.086 712.008C170.539 711.414 171.148 710.945 171.914 710.602C172.688 710.258 173.535 710.086 174.457 710.086C175.918 710.086 177.062 710.453 177.891 711.188C178.719 711.914 179.148 712.918 179.18 714.199V720.035C179.18 721.199 179.328 722.125 179.625 722.812V723H177.352ZM173.754 721.348C174.434 721.348 175.078 721.172 175.688 720.82C176.297 720.469 176.738 720.012 177.012 719.449V716.848H175.312C172.656 716.848 171.328 717.625 171.328 719.18C171.328 719.859 171.555 720.391 172.008 720.773C172.461 721.156 173.043 721.348 173.754 721.348ZM188.707 712.266C188.379 712.211 188.023 712.184 187.641 712.184C186.219 712.184 185.254 712.789 184.746 714V723H182.578V710.32H184.688L184.723 711.785C185.434 710.652 186.441 710.086 187.746 710.086C188.168 710.086 188.488 710.141 188.707 710.25V712.266ZM210.117 723H207.855L199.266 709.852V723H197.004V705.938H199.266L207.879 719.145V705.938H210.117V723ZM221.602 723C221.477 722.75 221.375 722.305 221.297 721.664C220.289 722.711 219.086 723.234 217.688 723.234C216.438 723.234 215.41 722.883 214.605 722.18C213.809 721.469 213.41 720.57 213.41 719.484C213.41 718.164 213.91 717.141 214.91 716.414C215.918 715.68 217.332 715.312 219.152 715.312H221.262V714.316C221.262 713.559 221.035 712.957 220.582 712.512C220.129 712.059 219.461 711.832 218.578 711.832C217.805 711.832 217.156 712.027 216.633 712.418C216.109 712.809 215.848 713.281 215.848 713.836H213.668C213.668 713.203 213.891 712.594 214.336 712.008C214.789 711.414 215.398 710.945 216.164 710.602C216.938 710.258 217.785 710.086 218.707 710.086C220.168 710.086 221.312 710.453 222.141 711.188C222.969 711.914 223.398 712.918 223.43 714.199V720.035C223.43 721.199 223.578 722.125 223.875 722.812V723H221.602ZM218.004 721.348C218.684 721.348 219.328 721.172 219.938 720.82C220.547 720.469 220.988 720.012 221.262 719.449V716.848H219.562C216.906 716.848 215.578 717.625 215.578 719.18C215.578 719.859 215.805 720.391 216.258 720.773C216.711 721.156 217.293 721.348 218.004 721.348ZM228.879 710.32L228.949 711.914C229.918 710.695 231.184 710.086 232.746 710.086C235.426 710.086 236.777 711.598 236.801 714.621V723H234.633V714.609C234.625 713.695 234.414 713.02 234 712.582C233.594 712.145 232.957 711.926 232.09 711.926C231.387 711.926 230.77 712.113 230.238 712.488C229.707 712.863 229.293 713.355 228.996 713.965V723H226.828V710.32H228.879ZM243.012 707.25V710.32H245.379V711.996H243.012V719.859C243.012 720.367 243.117 720.75 243.328 721.008C243.539 721.258 243.898 721.383 244.406 721.383C244.656 721.383 245 721.336 245.438 721.242V723C244.867 723.156 244.312 723.234 243.773 723.234C242.805 723.234 242.074 722.941 241.582 722.355C241.09 721.77 240.844 720.938 240.844 719.859V711.996H238.535V710.32H240.844V707.25H243.012ZM250.277 723H248.109V710.32H250.277V723ZM247.934 706.957C247.934 706.605 248.039 706.309 248.25 706.066C248.469 705.824 248.789 705.703 249.211 705.703C249.633 705.703 249.953 705.824 250.172 706.066C250.391 706.309 250.5 706.605 250.5 706.957C250.5 707.309 250.391 707.602 250.172 707.836C249.953 708.07 249.633 708.188 249.211 708.188C248.789 708.188 248.469 708.07 248.25 707.836C248.039 707.602 247.934 707.309 247.934 706.957Z" fill="black"/>
<rect x="315.5" y="21.5" width="41" height="41" fill="white" stroke="black"/>
<line x1="315.349" y1="20.6422" x2="357.349" y2="61.6422" stroke="black"/>
<line x1="357.349" y1="21.3578" x2="315.349" y2="62.3578" stroke="black"/>
</g>
<rect x="0.5" y="0.5" width="374" height="811" stroke="black"/>
<defs>
<clipPath id="clip0_27_303">
<rect width="375" height="812" fill="white"/>
</clipPath>
</defs>
</svg>
