<svg width="375" height="812" viewBox="0 0 375 812" fill="none" xmlns="http://www.w3.org/2000/svg">
<g clip-path="url(#clip0_27_440)">
<rect width="375" height="812" fill="white"/>
<rect x="-2" y="217" width="375" height="595" fill="white"/>
<rect x="0.5" y="0.5" width="374" height="216" fill="#E5E5E5" stroke="black"/>
<line x1="0.250427" y1="-0.432766" x2="375.25" y2="216.567" stroke="black"/>
<line x1="375.25" y1="0.432766" x2="0.250425" y2="217.433" stroke="black"/>
<path d="M22.2334 42.3398L27.7354 44.5635V46.2861L20.5459 42.9551V41.6719L27.7354 38.3496V40.0723L22.2334 42.3398ZM35.0215 48V35.2031H39.2051C40.5938 35.2031 41.6367 35.4902 42.334 36.0645C43.0371 36.6387 43.3887 37.4883 43.3887 38.6133C43.3887 39.2109 43.2188 39.7412 42.8789 40.2041C42.5391 40.6611 42.0762 41.0156 41.4902 41.2676C42.1816 41.4609 42.7266 41.8301 43.125 42.375C43.5293 42.9141 43.7314 43.5586 43.7314 44.3086C43.7314 45.457 43.3594 46.3594 42.6152 47.0156C41.8711 47.6719 40.8193 48 39.46 48H35.0215ZM36.709 42.0146V46.6201H39.4951C40.2803 46.6201 40.8984 46.418 41.3496 46.0137C41.8066 45.6035 42.0352 45.041 42.0352 44.3262C42.0352 42.7852 41.1973 42.0146 39.5215 42.0146H36.709ZM36.709 40.6611H39.2578C39.9961 40.6611 40.585 40.4766 41.0244 40.1074C41.4697 39.7383 41.6924 39.2373 41.6924 38.6045C41.6924 37.9014 41.4873 37.3916 41.0771 37.0752C40.667 36.7529 40.043 36.5918 39.2051 36.5918H36.709V40.6611ZM51.8525 48C51.7588 47.8125 51.6826 47.4785 51.624 46.998C50.8682 47.7832 49.9658 48.1758 48.917 48.1758C47.9795 48.1758 47.209 47.9121 46.6055 47.3848C46.0078 46.8516 45.709 46.1777 45.709 45.3633C45.709 44.373 46.084 43.6055 46.834 43.0605C47.5898 42.5098 48.6504 42.2344 50.0156 42.2344H51.5977V41.4873C51.5977 40.9189 51.4277 40.4678 51.0879 40.1338C50.748 39.7939 50.2471 39.624 49.585 39.624C49.0049 39.624 48.5186 39.7705 48.126 40.0635C47.7334 40.3564 47.5371 40.7109 47.5371 41.127H45.9023C45.9023 40.6523 46.0693 40.1953 46.4033 39.7559C46.7432 39.3105 47.2002 38.959 47.7744 38.7012C48.3545 38.4434 48.9902 38.3145 49.6816 38.3145C50.7773 38.3145 51.6357 38.5898 52.2568 39.1406C52.8779 39.6855 53.2002 40.4385 53.2236 41.3994V45.7764C53.2236 46.6494 53.335 47.3438 53.5576 47.8594V48H51.8525ZM49.1543 46.7607C49.6641 46.7607 50.1475 46.6289 50.6045 46.3652C51.0615 46.1016 51.3926 45.7588 51.5977 45.3369V43.3857H50.3232C48.3311 43.3857 47.335 43.9688 47.335 45.1348C47.335 45.6445 47.5049 46.043 47.8447 46.3301C48.1846 46.6172 48.6211 46.7607 49.1543 46.7607ZM59.5869 46.8486C60.167 46.8486 60.6738 46.6729 61.1074 46.3213C61.541 45.9697 61.7812 45.5303 61.8281 45.0029H63.3662C63.3369 45.5479 63.1494 46.0664 62.8037 46.5586C62.458 47.0508 61.9951 47.4434 61.415 47.7363C60.8408 48.0293 60.2314 48.1758 59.5869 48.1758C58.292 48.1758 57.2607 47.7451 56.4932 46.8838C55.7314 46.0166 55.3506 44.833 55.3506 43.333V43.0605C55.3506 42.1348 55.5205 41.3115 55.8604 40.5908C56.2002 39.8701 56.6865 39.3105 57.3193 38.9121C57.958 38.5137 58.7109 38.3145 59.5781 38.3145C60.6445 38.3145 61.5293 38.6338 62.2324 39.2725C62.9414 39.9111 63.3193 40.7402 63.3662 41.7598H61.8281C61.7812 41.1445 61.5469 40.6406 61.125 40.248C60.709 39.8496 60.1934 39.6504 59.5781 39.6504C58.752 39.6504 58.1104 39.9492 57.6533 40.5469C57.2021 41.1387 56.9766 41.9971 56.9766 43.1221V43.4297C56.9766 44.5254 57.2021 45.3691 57.6533 45.9609C58.1045 46.5527 58.749 46.8486 59.5869 46.8486ZM67.8486 43.5967L66.8291 44.6602V48H65.2031V34.5H66.8291V42.665L67.6992 41.6191L70.6611 38.4902H72.6387L68.9385 42.4629L73.0693 48H71.1621L67.8486 43.5967Z" fill="black"/>
<circle cx="165" cy="186" r="5.5" fill="#C4C4C4" stroke="black"/>
<circle cx="186" cy="186" r="5.5" fill="#C4C4C4" stroke="black"/>
<circle cx="207" cy="186" r="5.5" fill="#C4C4C4" stroke="black"/>
<path d="M62.5869 271.372H57.5771V280H54.75V258.672H61.8105C64.2129 258.672 66.0586 259.219 67.3477 260.312C68.6465 261.406 69.2959 262.998 69.2959 265.088C69.2959 266.416 68.9346 267.573 68.2119 268.56C67.499 269.546 66.5029 270.283 65.2236 270.771L70.2334 279.824V280H67.2158L62.5869 271.372ZM57.5771 269.072H61.8984C63.2949 269.072 64.4033 268.711 65.2236 267.988C66.0537 267.266 66.4688 266.299 66.4688 265.088C66.4688 263.77 66.0732 262.759 65.2822 262.056C64.501 261.353 63.3682 260.996 61.8838 260.986H57.5771V269.072ZM79.4033 280.293C77.2549 280.293 75.5068 279.59 74.1592 278.184C72.8115 276.768 72.1377 274.878 72.1377 272.515V272.017C72.1377 270.444 72.4355 269.043 73.0312 267.812C73.6367 266.572 74.4766 265.605 75.5508 264.912C76.6348 264.209 77.8066 263.857 79.0664 263.857C81.127 263.857 82.7285 264.536 83.8711 265.894C85.0137 267.251 85.585 269.194 85.585 271.724V272.852H74.8477C74.8867 274.414 75.3408 275.679 76.21 276.646C77.0889 277.603 78.2021 278.081 79.5498 278.081C80.5068 278.081 81.3174 277.886 81.9814 277.495C82.6455 277.104 83.2266 276.587 83.7246 275.942L85.3799 277.231C84.0518 279.272 82.0596 280.293 79.4033 280.293ZM79.0664 266.084C77.9727 266.084 77.0547 266.484 76.3125 267.285C75.5703 268.076 75.1113 269.189 74.9355 270.625H82.875V270.42C82.7969 269.043 82.4258 267.979 81.7617 267.227C81.0977 266.465 80.1992 266.084 79.0664 266.084ZM97.9629 275.796C97.9629 275.063 97.6846 274.497 97.1279 274.097C96.5811 273.687 95.6191 273.335 94.2422 273.042C92.875 272.749 91.7861 272.397 90.9756 271.987C90.1748 271.577 89.5791 271.089 89.1885 270.522C88.8076 269.956 88.6172 269.282 88.6172 268.501C88.6172 267.202 89.1641 266.104 90.2578 265.205C91.3613 264.307 92.7676 263.857 94.4766 263.857C96.2734 263.857 97.7285 264.321 98.8418 265.249C99.9648 266.177 100.526 267.363 100.526 268.809H97.8018C97.8018 268.066 97.4844 267.427 96.8496 266.89C96.2246 266.353 95.4336 266.084 94.4766 266.084C93.4902 266.084 92.7188 266.299 92.1621 266.729C91.6055 267.158 91.3271 267.72 91.3271 268.413C91.3271 269.067 91.5859 269.561 92.1035 269.893C92.6211 270.225 93.5537 270.542 94.9014 270.845C96.2588 271.147 97.3574 271.509 98.1973 271.929C99.0371 272.349 99.6572 272.856 100.058 273.452C100.468 274.038 100.673 274.756 100.673 275.605C100.673 277.021 100.106 278.159 98.9736 279.019C97.8408 279.868 96.3711 280.293 94.5645 280.293C93.2949 280.293 92.1719 280.068 91.1953 279.619C90.2188 279.17 89.4521 278.545 88.8955 277.744C88.3486 276.934 88.0752 276.06 88.0752 275.122H90.7852C90.834 276.03 91.1953 276.753 91.8691 277.29C92.5527 277.817 93.4512 278.081 94.5645 278.081C95.5898 278.081 96.4102 277.876 97.0254 277.466C97.6504 277.046 97.9629 276.489 97.9629 275.796ZM110.78 280.293C108.632 280.293 106.884 279.59 105.536 278.184C104.188 276.768 103.515 274.878 103.515 272.515V272.017C103.515 270.444 103.812 269.043 104.408 267.812C105.014 266.572 105.854 265.605 106.928 264.912C108.012 264.209 109.184 263.857 110.443 263.857C112.504 263.857 114.105 264.536 115.248 265.894C116.391 267.251 116.962 269.194 116.962 271.724V272.852H106.225C106.264 274.414 106.718 275.679 107.587 276.646C108.466 277.603 109.579 278.081 110.927 278.081C111.884 278.081 112.694 277.886 113.358 277.495C114.022 277.104 114.604 276.587 115.102 275.942L116.757 277.231C115.429 279.272 113.437 280.293 110.78 280.293ZM110.443 266.084C109.35 266.084 108.432 266.484 107.689 267.285C106.947 268.076 106.488 269.189 106.312 270.625H114.252V270.42C114.174 269.043 113.803 267.979 113.139 267.227C112.475 266.465 111.576 266.084 110.443 266.084ZM127.772 266.582C127.362 266.514 126.918 266.479 126.439 266.479C124.662 266.479 123.456 267.236 122.821 268.75V280H120.111V264.15H122.748L122.792 265.981C123.681 264.565 124.94 263.857 126.571 263.857C127.099 263.857 127.499 263.926 127.772 264.062V266.582ZM135.771 276.323L139.696 264.15H142.465L136.781 280H134.716L128.974 264.15H131.742L135.771 276.323ZM154.623 280C154.467 279.688 154.34 279.131 154.242 278.33C152.982 279.639 151.479 280.293 149.73 280.293C148.168 280.293 146.884 279.854 145.878 278.975C144.882 278.086 144.384 276.963 144.384 275.605C144.384 273.955 145.009 272.676 146.259 271.768C147.519 270.85 149.286 270.391 151.562 270.391H154.198V269.146C154.198 268.198 153.915 267.446 153.349 266.89C152.782 266.323 151.947 266.04 150.844 266.04C149.877 266.04 149.066 266.284 148.412 266.772C147.758 267.261 147.431 267.852 147.431 268.545H144.706C144.706 267.754 144.984 266.992 145.541 266.26C146.107 265.518 146.869 264.932 147.826 264.502C148.793 264.072 149.853 263.857 151.005 263.857C152.831 263.857 154.262 264.316 155.297 265.234C156.332 266.143 156.869 267.397 156.908 268.999V276.294C156.908 277.749 157.094 278.906 157.465 279.766V280H154.623ZM150.126 277.935C150.976 277.935 151.781 277.715 152.543 277.275C153.305 276.836 153.856 276.265 154.198 275.562V272.31H152.074C148.754 272.31 147.094 273.281 147.094 275.225C147.094 276.074 147.377 276.738 147.943 277.217C148.51 277.695 149.237 277.935 150.126 277.935ZM170.385 275.796C170.385 275.063 170.106 274.497 169.55 274.097C169.003 273.687 168.041 273.335 166.664 273.042C165.297 272.749 164.208 272.397 163.397 271.987C162.597 271.577 162.001 271.089 161.61 270.522C161.229 269.956 161.039 269.282 161.039 268.501C161.039 267.202 161.586 266.104 162.68 265.205C163.783 264.307 165.189 263.857 166.898 263.857C168.695 263.857 170.15 264.321 171.264 265.249C172.387 266.177 172.948 267.363 172.948 268.809H170.224C170.224 268.066 169.906 267.427 169.271 266.89C168.646 266.353 167.855 266.084 166.898 266.084C165.912 266.084 165.141 266.299 164.584 266.729C164.027 267.158 163.749 267.72 163.749 268.413C163.749 269.067 164.008 269.561 164.525 269.893C165.043 270.225 165.976 270.542 167.323 270.845C168.681 271.147 169.779 271.509 170.619 271.929C171.459 272.349 172.079 272.856 172.479 273.452C172.89 274.038 173.095 274.756 173.095 275.605C173.095 277.021 172.528 278.159 171.396 279.019C170.263 279.868 168.793 280.293 166.986 280.293C165.717 280.293 164.594 280.068 163.617 279.619C162.641 279.17 161.874 278.545 161.317 277.744C160.771 276.934 160.497 276.06 160.497 275.122H163.207C163.256 276.03 163.617 276.753 164.291 277.29C164.975 277.817 165.873 278.081 166.986 278.081C168.012 278.081 168.832 277.876 169.447 277.466C170.072 277.046 170.385 276.489 170.385 275.796ZM179.569 280H176.859V264.15H179.569V280ZM176.64 259.946C176.64 259.507 176.771 259.136 177.035 258.833C177.309 258.53 177.709 258.379 178.236 258.379C178.764 258.379 179.164 258.53 179.438 258.833C179.711 259.136 179.848 259.507 179.848 259.946C179.848 260.386 179.711 260.752 179.438 261.045C179.164 261.338 178.764 261.484 178.236 261.484C177.709 261.484 177.309 261.338 177.035 261.045C176.771 260.752 176.64 260.386 176.64 259.946ZM191.786 280V258.672H198.759C201.073 258.672 202.812 259.15 203.974 260.107C205.146 261.064 205.731 262.48 205.731 264.355C205.731 265.352 205.448 266.235 204.882 267.007C204.315 267.769 203.544 268.359 202.567 268.779C203.72 269.102 204.628 269.717 205.292 270.625C205.966 271.523 206.303 272.598 206.303 273.848C206.303 275.762 205.683 277.266 204.442 278.359C203.202 279.453 201.449 280 199.184 280H191.786ZM194.599 270.024V277.7H199.242C200.551 277.7 201.581 277.363 202.333 276.689C203.095 276.006 203.476 275.068 203.476 273.877C203.476 271.309 202.079 270.024 199.286 270.024H194.599ZM194.599 267.769H198.847C200.077 267.769 201.059 267.461 201.791 266.846C202.533 266.23 202.904 265.396 202.904 264.341C202.904 263.169 202.562 262.319 201.879 261.792C201.195 261.255 200.155 260.986 198.759 260.986H194.599V267.769ZM216.63 280.293C214.481 280.293 212.733 279.59 211.386 278.184C210.038 276.768 209.364 274.878 209.364 272.515V272.017C209.364 270.444 209.662 269.043 210.258 267.812C210.863 266.572 211.703 265.605 212.777 264.912C213.861 264.209 215.033 263.857 216.293 263.857C218.354 263.857 219.955 264.536 221.098 265.894C222.24 267.251 222.812 269.194 222.812 271.724V272.852H212.074C212.113 274.414 212.567 275.679 213.437 276.646C214.315 277.603 215.429 278.081 216.776 278.081C217.733 278.081 218.544 277.886 219.208 277.495C219.872 277.104 220.453 276.587 220.951 275.942L222.606 277.231C221.278 279.272 219.286 280.293 216.63 280.293ZM216.293 266.084C215.199 266.084 214.281 266.484 213.539 267.285C212.797 268.076 212.338 269.189 212.162 270.625H220.102V270.42C220.023 269.043 219.652 267.979 218.988 267.227C218.324 266.465 217.426 266.084 216.293 266.084ZM233.622 266.582C233.212 266.514 232.768 266.479 232.289 266.479C230.512 266.479 229.306 267.236 228.671 268.75V280H225.961V264.15H228.598L228.642 265.981C229.53 264.565 230.79 263.857 232.421 263.857C232.948 263.857 233.349 263.926 233.622 264.062V266.582ZM238.837 266.069C240.038 264.595 241.601 263.857 243.524 263.857C246.874 263.857 248.563 265.747 248.593 269.526V280H245.883V269.512C245.873 268.369 245.609 267.524 245.092 266.978C244.584 266.431 243.788 266.157 242.704 266.157C241.825 266.157 241.054 266.392 240.39 266.86C239.726 267.329 239.208 267.944 238.837 268.706V280H236.127V257.5H238.837V266.069ZM262.436 280C262.279 279.688 262.152 279.131 262.055 278.33C260.795 279.639 259.291 280.293 257.543 280.293C255.98 280.293 254.696 279.854 253.69 278.975C252.694 278.086 252.196 276.963 252.196 275.605C252.196 273.955 252.821 272.676 254.071 271.768C255.331 270.85 257.099 270.391 259.374 270.391H262.011V269.146C262.011 268.198 261.728 267.446 261.161 266.89C260.595 266.323 259.76 266.04 258.656 266.04C257.689 266.04 256.879 266.284 256.225 266.772C255.57 267.261 255.243 267.852 255.243 268.545H252.519C252.519 267.754 252.797 266.992 253.354 266.26C253.92 265.518 254.682 264.932 255.639 264.502C256.605 264.072 257.665 263.857 258.817 263.857C260.644 263.857 262.074 264.316 263.109 265.234C264.145 266.143 264.682 267.397 264.721 268.999V276.294C264.721 277.749 264.906 278.906 265.277 279.766V280H262.436ZM257.938 277.935C258.788 277.935 259.594 277.715 260.355 277.275C261.117 276.836 261.669 276.265 262.011 275.562V272.31H259.887C256.566 272.31 254.906 273.281 254.906 275.225C254.906 276.074 255.189 276.738 255.756 277.217C256.322 277.695 257.05 277.935 257.938 277.935ZM278.197 275.796C278.197 275.063 277.919 274.497 277.362 274.097C276.815 273.687 275.854 273.335 274.477 273.042C273.109 272.749 272.021 272.397 271.21 271.987C270.409 271.577 269.813 271.089 269.423 270.522C269.042 269.956 268.852 269.282 268.852 268.501C268.852 267.202 269.398 266.104 270.492 265.205C271.596 264.307 273.002 263.857 274.711 263.857C276.508 263.857 277.963 264.321 279.076 265.249C280.199 266.177 280.761 267.363 280.761 268.809H278.036C278.036 268.066 277.719 267.427 277.084 266.89C276.459 266.353 275.668 266.084 274.711 266.084C273.725 266.084 272.953 266.299 272.396 266.729C271.84 267.158 271.562 267.72 271.562 268.413C271.562 269.067 271.82 269.561 272.338 269.893C272.855 270.225 273.788 270.542 275.136 270.845C276.493 271.147 277.592 271.509 278.432 271.929C279.271 272.349 279.892 272.856 280.292 273.452C280.702 274.038 280.907 274.756 280.907 275.605C280.907 277.021 280.341 278.159 279.208 279.019C278.075 279.868 276.605 280.293 274.799 280.293C273.529 280.293 272.406 280.068 271.43 279.619C270.453 279.17 269.687 278.545 269.13 277.744C268.583 276.934 268.31 276.06 268.31 275.122H271.02C271.068 276.03 271.43 276.753 272.104 277.29C272.787 277.817 273.686 278.081 274.799 278.081C275.824 278.081 276.645 277.876 277.26 277.466C277.885 277.046 278.197 276.489 278.197 275.796ZM287.382 280H284.672V264.15H287.382V280ZM284.452 259.946C284.452 259.507 284.584 259.136 284.848 258.833C285.121 258.53 285.521 258.379 286.049 258.379C286.576 258.379 286.977 258.53 287.25 258.833C287.523 259.136 287.66 259.507 287.66 259.946C287.66 260.386 287.523 260.752 287.25 261.045C286.977 261.338 286.576 261.484 286.049 261.484C285.521 261.484 285.121 261.338 284.848 261.045C284.584 260.752 284.452 260.386 284.452 259.946ZM294.677 280H291.967V257.5H294.677V280ZM302.06 273.979H299.613L299.423 258.672H302.265L302.06 273.979ZM299.32 278.638C299.32 278.198 299.452 277.832 299.716 277.539C299.989 277.236 300.39 277.085 300.917 277.085C301.444 277.085 301.845 277.236 302.118 277.539C302.392 277.832 302.528 278.198 302.528 278.638C302.528 279.077 302.392 279.443 302.118 279.736C301.845 280.02 301.444 280.161 300.917 280.161C300.39 280.161 299.989 280.02 299.716 279.736C299.452 279.443 299.32 279.077 299.32 278.638Z" fill="black"/>
<rect x="315.5" y="21.5" width="41" height="41" fill="white" stroke="black"/>
<line x1="315.349" y1="20.6422" x2="357.349" y2="61.6422" stroke="black"/>
<line x1="357.349" y1="21.3578" x2="315.349" y2="62.3578" stroke="black"/>
<rect x="36" y="609" width="311" height="41" fill="#8E8A8A"/>
<rect x="36" y="673" width="311" height="41" fill="#8E8A8A"/>
<rect x="84.5" y="315.5" width="209" height="209" fill="#C4C4C4" stroke="black"/>
<line x1="84.3536" y1="314.646" x2="294.354" y2="524.646" stroke="black"/>
<line x1="294.354" y1="315.354" x2="84.3535" y2="525.354" stroke="black"/>
<path d="M80.2793 556.62H86.3438V558H78.583V545.203H80.2793V556.62ZM87.583 553.157C87.583 552.226 87.7646 551.388 88.1279 550.644C88.4971 549.899 89.0068 549.325 89.6572 548.921C90.3135 548.517 91.0605 548.314 91.8984 548.314C93.1934 548.314 94.2393 548.763 95.0361 549.659C95.8389 550.556 96.2402 551.748 96.2402 553.236V553.351C96.2402 554.276 96.0615 555.108 95.7041 555.847C95.3525 556.579 94.8457 557.15 94.1836 557.561C93.5273 557.971 92.7715 558.176 91.916 558.176C90.627 558.176 89.5811 557.728 88.7783 556.831C87.9814 555.935 87.583 554.748 87.583 553.271V553.157ZM89.2178 553.351C89.2178 554.405 89.4609 555.252 89.9473 555.891C90.4395 556.529 91.0957 556.849 91.916 556.849C92.7422 556.849 93.3984 556.526 93.8848 555.882C94.3711 555.231 94.6143 554.323 94.6143 553.157C94.6143 552.114 94.3652 551.271 93.8672 550.626C93.375 549.976 92.7188 549.65 91.8984 549.65C91.0957 549.65 90.4482 549.97 89.9561 550.608C89.4639 551.247 89.2178 552.161 89.2178 553.351ZM102.876 549.949C102.63 549.908 102.363 549.888 102.076 549.888C101.01 549.888 100.286 550.342 99.9053 551.25V558H98.2793V548.49H99.8613L99.8877 549.589C100.421 548.739 101.177 548.314 102.155 548.314C102.472 548.314 102.712 548.355 102.876 548.438V549.949ZM108.149 558.176C106.86 558.176 105.812 557.754 105.003 556.91C104.194 556.061 103.79 554.927 103.79 553.509V553.21C103.79 552.267 103.969 551.426 104.326 550.688C104.689 549.943 105.193 549.363 105.838 548.947C106.488 548.525 107.191 548.314 107.947 548.314C109.184 548.314 110.145 548.722 110.83 549.536C111.516 550.351 111.858 551.517 111.858 553.034V553.711H105.416C105.439 554.648 105.712 555.407 106.233 555.987C106.761 556.562 107.429 556.849 108.237 556.849C108.812 556.849 109.298 556.731 109.696 556.497C110.095 556.263 110.443 555.952 110.742 555.565L111.735 556.339C110.938 557.563 109.743 558.176 108.149 558.176ZM107.947 549.65C107.291 549.65 106.74 549.891 106.295 550.371C105.85 550.846 105.574 551.514 105.469 552.375H110.232V552.252C110.186 551.426 109.963 550.787 109.564 550.336C109.166 549.879 108.627 549.65 107.947 549.65ZM115.277 548.49L115.321 549.545C116.019 548.725 116.959 548.314 118.143 548.314C119.473 548.314 120.378 548.824 120.858 549.844C121.175 549.387 121.585 549.018 122.089 548.736C122.599 548.455 123.199 548.314 123.891 548.314C125.977 548.314 127.037 549.419 127.072 551.628V558H125.446V551.725C125.446 551.045 125.291 550.538 124.98 550.204C124.67 549.864 124.148 549.694 123.416 549.694C122.812 549.694 122.312 549.876 121.913 550.239C121.515 550.597 121.283 551.08 121.219 551.689V558H119.584V551.769C119.584 550.386 118.907 549.694 117.554 549.694C116.487 549.694 115.758 550.148 115.365 551.057V558H113.739V548.49H115.277ZM135.765 558H134.139V548.49H135.765V558ZM134.007 545.968C134.007 545.704 134.086 545.481 134.244 545.3C134.408 545.118 134.648 545.027 134.965 545.027C135.281 545.027 135.521 545.118 135.686 545.3C135.85 545.481 135.932 545.704 135.932 545.968C135.932 546.231 135.85 546.451 135.686 546.627C135.521 546.803 135.281 546.891 134.965 546.891C134.648 546.891 134.408 546.803 134.244 546.627C134.086 546.451 134.007 546.231 134.007 545.968ZM146.408 553.351C146.408 554.798 146.077 555.964 145.415 556.849C144.753 557.733 143.856 558.176 142.726 558.176C141.571 558.176 140.663 557.81 140.001 557.077V561.656H138.375V548.49H139.86L139.939 549.545C140.602 548.725 141.521 548.314 142.699 548.314C143.842 548.314 144.744 548.745 145.406 549.606C146.074 550.468 146.408 551.666 146.408 553.201V553.351ZM144.782 553.166C144.782 552.094 144.554 551.247 144.097 550.626C143.64 550.005 143.013 549.694 142.216 549.694C141.231 549.694 140.493 550.131 140.001 551.004V555.548C140.487 556.415 141.231 556.849 142.233 556.849C143.013 556.849 143.631 556.541 144.088 555.926C144.551 555.305 144.782 554.385 144.782 553.166ZM154.02 555.478C154.02 555.038 153.853 554.698 153.519 554.458C153.19 554.212 152.613 554.001 151.787 553.825C150.967 553.649 150.313 553.438 149.827 553.192C149.347 552.946 148.989 552.653 148.755 552.313C148.526 551.974 148.412 551.569 148.412 551.101C148.412 550.321 148.74 549.662 149.396 549.123C150.059 548.584 150.902 548.314 151.928 548.314C153.006 548.314 153.879 548.593 154.547 549.149C155.221 549.706 155.558 550.418 155.558 551.285H153.923C153.923 550.84 153.732 550.456 153.352 550.134C152.977 549.812 152.502 549.65 151.928 549.65C151.336 549.65 150.873 549.779 150.539 550.037C150.205 550.295 150.038 550.632 150.038 551.048C150.038 551.44 150.193 551.736 150.504 551.936C150.814 552.135 151.374 552.325 152.183 552.507C152.997 552.688 153.656 552.905 154.16 553.157C154.664 553.409 155.036 553.714 155.276 554.071C155.522 554.423 155.646 554.854 155.646 555.363C155.646 556.213 155.306 556.896 154.626 557.411C153.946 557.921 153.064 558.176 151.98 558.176C151.219 558.176 150.545 558.041 149.959 557.771C149.373 557.502 148.913 557.127 148.579 556.646C148.251 556.16 148.087 555.636 148.087 555.073H149.713C149.742 555.618 149.959 556.052 150.363 556.374C150.773 556.69 151.312 556.849 151.98 556.849C152.596 556.849 153.088 556.726 153.457 556.479C153.832 556.228 154.02 555.894 154.02 555.478ZM163.635 557.06C163.002 557.804 162.073 558.176 160.849 558.176C159.835 558.176 159.062 557.883 158.528 557.297C158.001 556.705 157.734 555.832 157.729 554.678V548.49H159.354V554.634C159.354 556.075 159.94 556.796 161.112 556.796C162.354 556.796 163.181 556.333 163.591 555.407V548.49H165.217V558H163.67L163.635 557.06ZM169.225 548.49L169.269 549.545C169.966 548.725 170.906 548.314 172.09 548.314C173.42 548.314 174.325 548.824 174.806 549.844C175.122 549.387 175.532 549.018 176.036 548.736C176.546 548.455 177.146 548.314 177.838 548.314C179.924 548.314 180.984 549.419 181.02 551.628V558H179.394V551.725C179.394 551.045 179.238 550.538 178.928 550.204C178.617 549.864 178.096 549.694 177.363 549.694C176.76 549.694 176.259 549.876 175.86 550.239C175.462 550.597 175.23 551.08 175.166 551.689V558H173.531V551.769C173.531 550.386 172.854 549.694 171.501 549.694C170.435 549.694 169.705 550.148 169.312 551.057V558H167.687V548.49H169.225ZM187.55 553.166C187.55 551.707 187.896 550.535 188.587 549.65C189.278 548.76 190.184 548.314 191.303 548.314C192.416 548.314 193.298 548.695 193.948 549.457V544.5H195.574V558H194.08L194.001 556.98C193.351 557.777 192.445 558.176 191.285 558.176C190.184 558.176 189.284 557.725 188.587 556.822C187.896 555.92 187.55 554.742 187.55 553.289V553.166ZM189.176 553.351C189.176 554.429 189.398 555.272 189.844 555.882C190.289 556.491 190.904 556.796 191.689 556.796C192.721 556.796 193.474 556.333 193.948 555.407V551.039C193.462 550.143 192.715 549.694 191.707 549.694C190.91 549.694 190.289 550.002 189.844 550.617C189.398 551.232 189.176 552.144 189.176 553.351ZM197.675 553.157C197.675 552.226 197.856 551.388 198.22 550.644C198.589 549.899 199.099 549.325 199.749 548.921C200.405 548.517 201.152 548.314 201.99 548.314C203.285 548.314 204.331 548.763 205.128 549.659C205.931 550.556 206.332 551.748 206.332 553.236V553.351C206.332 554.276 206.153 555.108 205.796 555.847C205.444 556.579 204.938 557.15 204.275 557.561C203.619 557.971 202.863 558.176 202.008 558.176C200.719 558.176 199.673 557.728 198.87 556.831C198.073 555.935 197.675 554.748 197.675 553.271V553.157ZM199.31 553.351C199.31 554.405 199.553 555.252 200.039 555.891C200.531 556.529 201.188 556.849 202.008 556.849C202.834 556.849 203.49 556.526 203.977 555.882C204.463 555.231 204.706 554.323 204.706 553.157C204.706 552.114 204.457 551.271 203.959 550.626C203.467 549.976 202.811 549.65 201.99 549.65C201.188 549.65 200.54 549.97 200.048 550.608C199.556 551.247 199.31 552.161 199.31 553.351ZM210.138 558H208.512V544.5H210.138V558ZM212.317 553.157C212.317 552.226 212.499 551.388 212.862 550.644C213.231 549.899 213.741 549.325 214.392 548.921C215.048 548.517 215.795 548.314 216.633 548.314C217.928 548.314 218.974 548.763 219.771 549.659C220.573 550.556 220.975 551.748 220.975 553.236V553.351C220.975 554.276 220.796 555.108 220.438 555.847C220.087 556.579 219.58 557.15 218.918 557.561C218.262 557.971 217.506 558.176 216.65 558.176C215.361 558.176 214.315 557.728 213.513 556.831C212.716 555.935 212.317 554.748 212.317 553.271V553.157ZM213.952 553.351C213.952 554.405 214.195 555.252 214.682 555.891C215.174 556.529 215.83 556.849 216.65 556.849C217.477 556.849 218.133 556.526 218.619 555.882C219.105 555.231 219.349 554.323 219.349 553.157C219.349 552.114 219.1 551.271 218.602 550.626C218.109 549.976 217.453 549.65 216.633 549.65C215.83 549.65 215.183 549.97 214.69 550.608C214.198 551.247 213.952 552.161 213.952 553.351ZM227.61 549.949C227.364 549.908 227.098 549.888 226.811 549.888C225.744 549.888 225.021 550.342 224.64 551.25V558H223.014V548.49H224.596L224.622 549.589C225.155 548.739 225.911 548.314 226.89 548.314C227.206 548.314 227.446 548.355 227.61 548.438V549.949ZM239.115 555.478C239.115 555.038 238.948 554.698 238.614 554.458C238.286 554.212 237.709 554.001 236.883 553.825C236.062 553.649 235.409 553.438 234.923 553.192C234.442 552.946 234.085 552.653 233.851 552.313C233.622 551.974 233.508 551.569 233.508 551.101C233.508 550.321 233.836 549.662 234.492 549.123C235.154 548.584 235.998 548.314 237.023 548.314C238.102 548.314 238.975 548.593 239.643 549.149C240.316 549.706 240.653 550.418 240.653 551.285H239.019C239.019 550.84 238.828 550.456 238.447 550.134C238.072 549.812 237.598 549.65 237.023 549.65C236.432 549.65 235.969 549.779 235.635 550.037C235.301 550.295 235.134 550.632 235.134 551.048C235.134 551.44 235.289 551.736 235.6 551.936C235.91 552.135 236.47 552.325 237.278 552.507C238.093 552.688 238.752 552.905 239.256 553.157C239.76 553.409 240.132 553.714 240.372 554.071C240.618 554.423 240.741 554.854 240.741 555.363C240.741 556.213 240.401 556.896 239.722 557.411C239.042 557.921 238.16 558.176 237.076 558.176C236.314 558.176 235.641 558.041 235.055 557.771C234.469 557.502 234.009 557.127 233.675 556.646C233.347 556.16 233.183 555.636 233.183 555.073H234.809C234.838 555.618 235.055 556.052 235.459 556.374C235.869 556.69 236.408 556.849 237.076 556.849C237.691 556.849 238.184 556.726 238.553 556.479C238.928 556.228 239.115 555.894 239.115 555.478ZM244.626 558H243V548.49H244.626V558ZM242.868 545.968C242.868 545.704 242.947 545.481 243.105 545.3C243.27 545.118 243.51 545.027 243.826 545.027C244.143 545.027 244.383 545.118 244.547 545.3C244.711 545.481 244.793 545.704 244.793 545.968C244.793 546.231 244.711 546.451 244.547 546.627C244.383 546.803 244.143 546.891 243.826 546.891C243.51 546.891 243.27 546.803 243.105 546.627C242.947 546.451 242.868 546.231 242.868 545.968ZM249.442 546.188V548.49H251.218V549.747H249.442V555.645C249.442 556.025 249.521 556.312 249.68 556.506C249.838 556.693 250.107 556.787 250.488 556.787C250.676 556.787 250.934 556.752 251.262 556.682V558C250.834 558.117 250.418 558.176 250.014 558.176C249.287 558.176 248.739 557.956 248.37 557.517C248.001 557.077 247.816 556.453 247.816 555.645V549.747H246.085V548.49H247.816V546.188H249.442ZM263.461 558C263.367 557.812 263.291 557.479 263.232 556.998C262.477 557.783 261.574 558.176 260.525 558.176C259.588 558.176 258.817 557.912 258.214 557.385C257.616 556.852 257.317 556.178 257.317 555.363C257.317 554.373 257.692 553.605 258.442 553.061C259.198 552.51 260.259 552.234 261.624 552.234H263.206V551.487C263.206 550.919 263.036 550.468 262.696 550.134C262.356 549.794 261.855 549.624 261.193 549.624C260.613 549.624 260.127 549.771 259.734 550.063C259.342 550.356 259.146 550.711 259.146 551.127H257.511C257.511 550.652 257.678 550.195 258.012 549.756C258.352 549.311 258.809 548.959 259.383 548.701C259.963 548.443 260.599 548.314 261.29 548.314C262.386 548.314 263.244 548.59 263.865 549.141C264.486 549.686 264.809 550.438 264.832 551.399V555.776C264.832 556.649 264.943 557.344 265.166 557.859V558H263.461ZM260.763 556.761C261.272 556.761 261.756 556.629 262.213 556.365C262.67 556.102 263.001 555.759 263.206 555.337V553.386H261.932C259.939 553.386 258.943 553.969 258.943 555.135C258.943 555.645 259.113 556.043 259.453 556.33C259.793 556.617 260.229 556.761 260.763 556.761ZM268.91 548.49L268.954 549.545C269.651 548.725 270.592 548.314 271.775 548.314C273.105 548.314 274.011 548.824 274.491 549.844C274.808 549.387 275.218 549.018 275.722 548.736C276.231 548.455 276.832 548.314 277.523 548.314C279.609 548.314 280.67 549.419 280.705 551.628V558H279.079V551.725C279.079 551.045 278.924 550.538 278.613 550.204C278.303 549.864 277.781 549.694 277.049 549.694C276.445 549.694 275.944 549.876 275.546 550.239C275.147 550.597 274.916 551.08 274.852 551.689V558H273.217V551.769C273.217 550.386 272.54 549.694 271.187 549.694C270.12 549.694 269.391 550.148 268.998 551.057V558H267.372V548.49H268.91ZM287.112 558.176C285.823 558.176 284.774 557.754 283.966 556.91C283.157 556.061 282.753 554.927 282.753 553.509V553.21C282.753 552.267 282.932 551.426 283.289 550.688C283.652 549.943 284.156 549.363 284.801 548.947C285.451 548.525 286.154 548.314 286.91 548.314C288.146 548.314 289.107 548.722 289.793 549.536C290.479 550.351 290.821 551.517 290.821 553.034V553.711H284.379C284.402 554.648 284.675 555.407 285.196 555.987C285.724 556.562 286.392 556.849 287.2 556.849C287.774 556.849 288.261 556.731 288.659 556.497C289.058 556.263 289.406 555.952 289.705 555.565L290.698 556.339C289.901 557.563 288.706 558.176 287.112 558.176ZM286.91 549.65C286.254 549.65 285.703 549.891 285.258 550.371C284.812 550.846 284.537 551.514 284.432 552.375H289.195V552.252C289.148 551.426 288.926 550.787 288.527 550.336C288.129 549.879 287.59 549.65 286.91 549.65ZM294.917 546.188V548.49H296.692V549.747H294.917V555.645C294.917 556.025 294.996 556.312 295.154 556.506C295.312 556.693 295.582 556.787 295.963 556.787C296.15 556.787 296.408 556.752 296.736 556.682V558C296.309 558.117 295.893 558.176 295.488 558.176C294.762 558.176 294.214 557.956 293.845 557.517C293.476 557.077 293.291 556.453 293.291 555.645V549.747H291.56V548.49H293.291V546.188H294.917ZM298.547 560.549L297.624 559.916C298.175 559.148 298.462 558.357 298.485 557.543V556.075H300.076V557.35C300.076 557.941 299.93 558.533 299.637 559.125C299.35 559.717 298.986 560.191 298.547 560.549ZM86.5371 577.849C87.1172 577.849 87.624 577.673 88.0576 577.321C88.4912 576.97 88.7314 576.53 88.7783 576.003H90.3164C90.2871 576.548 90.0996 577.066 89.7539 577.559C89.4082 578.051 88.9453 578.443 88.3652 578.736C87.791 579.029 87.1816 579.176 86.5371 579.176C85.2422 579.176 84.2109 578.745 83.4434 577.884C82.6816 577.017 82.3008 575.833 82.3008 574.333V574.061C82.3008 573.135 82.4707 572.312 82.8105 571.591C83.1504 570.87 83.6367 570.311 84.2695 569.912C84.9082 569.514 85.6611 569.314 86.5283 569.314C87.5947 569.314 88.4795 569.634 89.1826 570.272C89.8916 570.911 90.2695 571.74 90.3164 572.76H88.7783C88.7314 572.145 88.4971 571.641 88.0752 571.248C87.6592 570.85 87.1436 570.65 86.5283 570.65C85.7021 570.65 85.0605 570.949 84.6035 571.547C84.1523 572.139 83.9268 572.997 83.9268 574.122V574.43C83.9268 575.525 84.1523 576.369 84.6035 576.961C85.0547 577.553 85.6992 577.849 86.5371 577.849ZM91.7139 574.157C91.7139 573.226 91.8955 572.388 92.2588 571.644C92.6279 570.899 93.1377 570.325 93.7881 569.921C94.4443 569.517 95.1914 569.314 96.0293 569.314C97.3242 569.314 98.3701 569.763 99.167 570.659C99.9697 571.556 100.371 572.748 100.371 574.236V574.351C100.371 575.276 100.192 576.108 99.835 576.847C99.4834 577.579 98.9766 578.15 98.3145 578.561C97.6582 578.971 96.9023 579.176 96.0469 579.176C94.7578 579.176 93.7119 578.728 92.9092 577.831C92.1123 576.935 91.7139 575.748 91.7139 574.271V574.157ZM93.3486 574.351C93.3486 575.405 93.5918 576.252 94.0781 576.891C94.5703 577.529 95.2266 577.849 96.0469 577.849C96.873 577.849 97.5293 577.526 98.0156 576.882C98.502 576.231 98.7451 575.323 98.7451 574.157C98.7451 573.114 98.4961 572.271 97.998 571.626C97.5059 570.976 96.8496 570.65 96.0293 570.65C95.2266 570.65 94.5791 570.97 94.0869 571.608C93.5947 572.247 93.3486 573.161 93.3486 574.351ZM103.948 569.49L104.001 570.686C104.728 569.771 105.677 569.314 106.849 569.314C108.858 569.314 109.872 570.448 109.89 572.716V579H108.264V572.707C108.258 572.021 108.1 571.515 107.789 571.187C107.484 570.858 107.007 570.694 106.356 570.694C105.829 570.694 105.366 570.835 104.968 571.116C104.569 571.397 104.259 571.767 104.036 572.224V579H102.41V569.49H103.948ZM117.879 576.478C117.879 576.038 117.712 575.698 117.378 575.458C117.05 575.212 116.473 575.001 115.646 574.825C114.826 574.649 114.173 574.438 113.687 574.192C113.206 573.946 112.849 573.653 112.614 573.313C112.386 572.974 112.271 572.569 112.271 572.101C112.271 571.321 112.6 570.662 113.256 570.123C113.918 569.584 114.762 569.314 115.787 569.314C116.865 569.314 117.738 569.593 118.406 570.149C119.08 570.706 119.417 571.418 119.417 572.285H117.782C117.782 571.84 117.592 571.456 117.211 571.134C116.836 570.812 116.361 570.65 115.787 570.65C115.195 570.65 114.732 570.779 114.398 571.037C114.064 571.295 113.897 571.632 113.897 572.048C113.897 572.44 114.053 572.736 114.363 572.936C114.674 573.135 115.233 573.325 116.042 573.507C116.856 573.688 117.516 573.905 118.02 574.157C118.523 574.409 118.896 574.714 119.136 575.071C119.382 575.423 119.505 575.854 119.505 576.363C119.505 577.213 119.165 577.896 118.485 578.411C117.806 578.921 116.924 579.176 115.84 579.176C115.078 579.176 114.404 579.041 113.818 578.771C113.232 578.502 112.772 578.127 112.438 577.646C112.11 577.16 111.946 576.636 111.946 576.073H113.572C113.602 576.618 113.818 577.052 114.223 577.374C114.633 577.69 115.172 577.849 115.84 577.849C116.455 577.849 116.947 577.726 117.316 577.479C117.691 577.228 117.879 576.894 117.879 576.478ZM125.569 579.176C124.28 579.176 123.231 578.754 122.423 577.91C121.614 577.061 121.21 575.927 121.21 574.509V574.21C121.21 573.267 121.389 572.426 121.746 571.688C122.109 570.943 122.613 570.363 123.258 569.947C123.908 569.525 124.611 569.314 125.367 569.314C126.604 569.314 127.564 569.722 128.25 570.536C128.936 571.351 129.278 572.517 129.278 574.034V574.711H122.836C122.859 575.648 123.132 576.407 123.653 576.987C124.181 577.562 124.849 577.849 125.657 577.849C126.231 577.849 126.718 577.731 127.116 577.497C127.515 577.263 127.863 576.952 128.162 576.565L129.155 577.339C128.358 578.563 127.163 579.176 125.569 579.176ZM125.367 570.65C124.711 570.65 124.16 570.891 123.715 571.371C123.27 571.846 122.994 572.514 122.889 573.375H127.652V573.252C127.605 572.426 127.383 571.787 126.984 571.336C126.586 570.879 126.047 570.65 125.367 570.65ZM134.982 577.849C135.562 577.849 136.069 577.673 136.503 577.321C136.937 576.97 137.177 576.53 137.224 576.003H138.762C138.732 576.548 138.545 577.066 138.199 577.559C137.854 578.051 137.391 578.443 136.811 578.736C136.236 579.029 135.627 579.176 134.982 579.176C133.688 579.176 132.656 578.745 131.889 577.884C131.127 577.017 130.746 575.833 130.746 574.333V574.061C130.746 573.135 130.916 572.312 131.256 571.591C131.596 570.87 132.082 570.311 132.715 569.912C133.354 569.514 134.106 569.314 134.974 569.314C136.04 569.314 136.925 569.634 137.628 570.272C138.337 570.911 138.715 571.74 138.762 572.76H137.224C137.177 572.145 136.942 571.641 136.521 571.248C136.104 570.85 135.589 570.65 134.974 570.65C134.147 570.65 133.506 570.949 133.049 571.547C132.598 572.139 132.372 572.997 132.372 574.122V574.43C132.372 575.525 132.598 576.369 133.049 576.961C133.5 577.553 134.145 577.849 134.982 577.849ZM142.796 567.188V569.49H144.571V570.747H142.796V576.645C142.796 577.025 142.875 577.312 143.033 577.506C143.191 577.693 143.461 577.787 143.842 577.787C144.029 577.787 144.287 577.752 144.615 577.682V579C144.188 579.117 143.771 579.176 143.367 579.176C142.641 579.176 142.093 578.956 141.724 578.517C141.354 578.077 141.17 577.453 141.17 576.645V570.747H139.438V569.49H141.17V567.188H142.796ZM150.425 579.176C149.136 579.176 148.087 578.754 147.278 577.91C146.47 577.061 146.065 575.927 146.065 574.509V574.21C146.065 573.267 146.244 572.426 146.602 571.688C146.965 570.943 147.469 570.363 148.113 569.947C148.764 569.525 149.467 569.314 150.223 569.314C151.459 569.314 152.42 569.722 153.105 570.536C153.791 571.351 154.134 572.517 154.134 574.034V574.711H147.691C147.715 575.648 147.987 576.407 148.509 576.987C149.036 577.562 149.704 577.849 150.513 577.849C151.087 577.849 151.573 577.731 151.972 577.497C152.37 577.263 152.719 576.952 153.018 576.565L154.011 577.339C153.214 578.563 152.019 579.176 150.425 579.176ZM150.223 570.65C149.566 570.65 149.016 570.891 148.57 571.371C148.125 571.846 147.85 572.514 147.744 573.375H152.508V573.252C152.461 572.426 152.238 571.787 151.84 571.336C151.441 570.879 150.902 570.65 150.223 570.65ZM158.229 567.188V569.49H160.005V570.747H158.229V576.645C158.229 577.025 158.309 577.312 158.467 577.506C158.625 577.693 158.895 577.787 159.275 577.787C159.463 577.787 159.721 577.752 160.049 577.682V579C159.621 579.117 159.205 579.176 158.801 579.176C158.074 579.176 157.526 578.956 157.157 578.517C156.788 578.077 156.604 577.453 156.604 576.645V570.747H154.872V569.49H156.604V567.188H158.229ZM167.783 578.06C167.15 578.804 166.222 579.176 164.997 579.176C163.983 579.176 163.21 578.883 162.677 578.297C162.149 577.705 161.883 576.832 161.877 575.678V569.49H163.503V575.634C163.503 577.075 164.089 577.796 165.261 577.796C166.503 577.796 167.329 577.333 167.739 576.407V569.49H169.365V579H167.818L167.783 578.06ZM176.44 570.949C176.194 570.908 175.928 570.888 175.641 570.888C174.574 570.888 173.851 571.342 173.47 572.25V579H171.844V569.49H173.426L173.452 570.589C173.985 569.739 174.741 569.314 175.72 569.314C176.036 569.314 176.276 569.355 176.44 569.438V570.949ZM188.279 579C188.186 578.812 188.109 578.479 188.051 577.998C187.295 578.783 186.393 579.176 185.344 579.176C184.406 579.176 183.636 578.912 183.032 578.385C182.435 577.852 182.136 577.178 182.136 576.363C182.136 575.373 182.511 574.605 183.261 574.061C184.017 573.51 185.077 573.234 186.442 573.234H188.024V572.487C188.024 571.919 187.854 571.468 187.515 571.134C187.175 570.794 186.674 570.624 186.012 570.624C185.432 570.624 184.945 570.771 184.553 571.063C184.16 571.356 183.964 571.711 183.964 572.127H182.329C182.329 571.652 182.496 571.195 182.83 570.756C183.17 570.311 183.627 569.959 184.201 569.701C184.781 569.443 185.417 569.314 186.108 569.314C187.204 569.314 188.062 569.59 188.684 570.141C189.305 570.686 189.627 571.438 189.65 572.399V576.776C189.65 577.649 189.762 578.344 189.984 578.859V579H188.279ZM185.581 577.761C186.091 577.761 186.574 577.629 187.031 577.365C187.488 577.102 187.819 576.759 188.024 576.337V574.386H186.75C184.758 574.386 183.762 574.969 183.762 576.135C183.762 576.645 183.932 577.043 184.271 577.33C184.611 577.617 185.048 577.761 185.581 577.761ZM191.804 574.166C191.804 572.707 192.149 571.535 192.841 570.65C193.532 569.76 194.438 569.314 195.557 569.314C196.67 569.314 197.552 569.695 198.202 570.457V565.5H199.828V579H198.334L198.255 577.98C197.604 578.777 196.699 579.176 195.539 579.176C194.438 579.176 193.538 578.725 192.841 577.822C192.149 576.92 191.804 575.742 191.804 574.289V574.166ZM193.43 574.351C193.43 575.429 193.652 576.272 194.098 576.882C194.543 577.491 195.158 577.796 195.943 577.796C196.975 577.796 197.728 577.333 198.202 576.407V572.039C197.716 571.143 196.969 570.694 195.961 570.694C195.164 570.694 194.543 571.002 194.098 571.617C193.652 572.232 193.43 573.144 193.43 574.351ZM204.126 579H202.5V569.49H204.126V579ZM202.368 566.968C202.368 566.704 202.447 566.481 202.605 566.3C202.77 566.118 203.01 566.027 203.326 566.027C203.643 566.027 203.883 566.118 204.047 566.3C204.211 566.481 204.293 566.704 204.293 566.968C204.293 567.231 204.211 567.451 204.047 567.627C203.883 567.803 203.643 567.891 203.326 567.891C203.01 567.891 202.77 567.803 202.605 567.627C202.447 567.451 202.368 567.231 202.368 566.968ZM214.77 574.351C214.77 575.798 214.438 576.964 213.776 577.849C213.114 578.733 212.218 579.176 211.087 579.176C209.933 579.176 209.024 578.81 208.362 578.077V582.656H206.736V569.49H208.222L208.301 570.545C208.963 569.725 209.883 569.314 211.061 569.314C212.203 569.314 213.105 569.745 213.768 570.606C214.436 571.468 214.77 572.666 214.77 574.201V574.351ZM213.144 574.166C213.144 573.094 212.915 572.247 212.458 571.626C212.001 571.005 211.374 570.694 210.577 570.694C209.593 570.694 208.854 571.131 208.362 572.004V576.548C208.849 577.415 209.593 577.849 210.595 577.849C211.374 577.849 211.992 577.541 212.449 576.926C212.912 576.305 213.144 575.385 213.144 574.166ZM218.61 579H216.984V569.49H218.61V579ZM216.853 566.968C216.853 566.704 216.932 566.481 217.09 566.3C217.254 566.118 217.494 566.027 217.811 566.027C218.127 566.027 218.367 566.118 218.531 566.3C218.695 566.481 218.777 566.704 218.777 566.968C218.777 567.231 218.695 567.451 218.531 567.627C218.367 567.803 218.127 567.891 217.811 567.891C217.494 567.891 217.254 567.803 217.09 567.627C216.932 567.451 216.853 567.231 216.853 566.968ZM226.758 576.478C226.758 576.038 226.591 575.698 226.257 575.458C225.929 575.212 225.352 575.001 224.525 574.825C223.705 574.649 223.052 574.438 222.565 574.192C222.085 573.946 221.728 573.653 221.493 573.313C221.265 572.974 221.15 572.569 221.15 572.101C221.15 571.321 221.479 570.662 222.135 570.123C222.797 569.584 223.641 569.314 224.666 569.314C225.744 569.314 226.617 569.593 227.285 570.149C227.959 570.706 228.296 571.418 228.296 572.285H226.661C226.661 571.84 226.471 571.456 226.09 571.134C225.715 570.812 225.24 570.65 224.666 570.65C224.074 570.65 223.611 570.779 223.277 571.037C222.943 571.295 222.776 571.632 222.776 572.048C222.776 572.44 222.932 572.736 223.242 572.936C223.553 573.135 224.112 573.325 224.921 573.507C225.735 573.688 226.395 573.905 226.898 574.157C227.402 574.409 227.774 574.714 228.015 575.071C228.261 575.423 228.384 575.854 228.384 576.363C228.384 577.213 228.044 577.896 227.364 578.411C226.685 578.921 225.803 579.176 224.719 579.176C223.957 579.176 223.283 579.041 222.697 578.771C222.111 578.502 221.651 578.127 221.317 577.646C220.989 577.16 220.825 576.636 220.825 576.073H222.451C222.48 576.618 222.697 577.052 223.102 577.374C223.512 577.69 224.051 577.849 224.719 577.849C225.334 577.849 225.826 577.726 226.195 577.479C226.57 577.228 226.758 576.894 226.758 576.478ZM234.316 577.849C234.896 577.849 235.403 577.673 235.837 577.321C236.271 576.97 236.511 576.53 236.558 576.003H238.096C238.066 576.548 237.879 577.066 237.533 577.559C237.188 578.051 236.725 578.443 236.145 578.736C235.57 579.029 234.961 579.176 234.316 579.176C233.021 579.176 231.99 578.745 231.223 577.884C230.461 577.017 230.08 575.833 230.08 574.333V574.061C230.08 573.135 230.25 572.312 230.59 571.591C230.93 570.87 231.416 570.311 232.049 569.912C232.688 569.514 233.44 569.314 234.308 569.314C235.374 569.314 236.259 569.634 236.962 570.272C237.671 570.911 238.049 571.74 238.096 572.76H236.558C236.511 572.145 236.276 571.641 235.854 571.248C235.438 570.85 234.923 570.65 234.308 570.65C233.481 570.65 232.84 570.949 232.383 571.547C231.932 572.139 231.706 572.997 231.706 574.122V574.43C231.706 575.525 231.932 576.369 232.383 576.961C232.834 577.553 233.479 577.849 234.316 577.849ZM241.69 579H240.064V569.49H241.69V579ZM239.933 566.968C239.933 566.704 240.012 566.481 240.17 566.3C240.334 566.118 240.574 566.027 240.891 566.027C241.207 566.027 241.447 566.118 241.611 566.3C241.775 566.481 241.857 566.704 241.857 566.968C241.857 567.231 241.775 567.451 241.611 567.627C241.447 567.803 241.207 567.891 240.891 567.891C240.574 567.891 240.334 567.803 240.17 567.627C240.012 567.451 239.933 567.231 239.933 566.968ZM245.839 569.49L245.892 570.686C246.618 569.771 247.567 569.314 248.739 569.314C250.749 569.314 251.763 570.448 251.78 572.716V579H250.154V572.707C250.148 572.021 249.99 571.515 249.68 571.187C249.375 570.858 248.897 570.694 248.247 570.694C247.72 570.694 247.257 570.835 246.858 571.116C246.46 571.397 246.149 571.767 245.927 572.224V579H244.301V569.49H245.839ZM253.846 574.166C253.846 572.684 254.188 571.506 254.874 570.633C255.56 569.754 256.468 569.314 257.599 569.314C258.759 569.314 259.664 569.725 260.314 570.545L260.394 569.49H261.879V578.771C261.879 580.002 261.513 580.972 260.78 581.681C260.054 582.39 259.075 582.744 257.845 582.744C257.159 582.744 256.488 582.598 255.832 582.305C255.176 582.012 254.675 581.61 254.329 581.101L255.173 580.125C255.87 580.986 256.723 581.417 257.73 581.417C258.521 581.417 259.137 581.194 259.576 580.749C260.021 580.304 260.244 579.677 260.244 578.868V578.051C259.594 578.801 258.706 579.176 257.581 579.176C256.468 579.176 255.565 578.728 254.874 577.831C254.188 576.935 253.846 575.713 253.846 574.166ZM255.48 574.351C255.48 575.423 255.7 576.267 256.14 576.882C256.579 577.491 257.194 577.796 257.985 577.796C259.011 577.796 259.764 577.33 260.244 576.398V572.057C259.746 571.148 258.999 570.694 258.003 570.694C257.212 570.694 256.594 571.002 256.148 571.617C255.703 572.232 255.48 573.144 255.48 574.351ZM272.751 579.176C271.462 579.176 270.413 578.754 269.604 577.91C268.796 577.061 268.392 575.927 268.392 574.509V574.21C268.392 573.267 268.57 572.426 268.928 571.688C269.291 570.943 269.795 570.363 270.439 569.947C271.09 569.525 271.793 569.314 272.549 569.314C273.785 569.314 274.746 569.722 275.432 570.536C276.117 571.351 276.46 572.517 276.46 574.034V574.711H270.018C270.041 575.648 270.313 576.407 270.835 576.987C271.362 577.562 272.03 577.849 272.839 577.849C273.413 577.849 273.899 577.731 274.298 577.497C274.696 577.263 275.045 576.952 275.344 576.565L276.337 577.339C275.54 578.563 274.345 579.176 272.751 579.176ZM272.549 570.65C271.893 570.65 271.342 570.891 270.896 571.371C270.451 571.846 270.176 572.514 270.07 573.375H274.834V573.252C274.787 572.426 274.564 571.787 274.166 571.336C273.768 570.879 273.229 570.65 272.549 570.65ZM280.116 579H278.49V565.5H280.116V579ZM284.493 579H282.867V569.49H284.493V579ZM282.735 566.968C282.735 566.704 282.814 566.481 282.973 566.3C283.137 566.118 283.377 566.027 283.693 566.027C284.01 566.027 284.25 566.118 284.414 566.3C284.578 566.481 284.66 566.704 284.66 566.968C284.66 567.231 284.578 567.451 284.414 567.627C284.25 567.803 284.01 567.891 283.693 567.891C283.377 567.891 283.137 567.803 282.973 567.627C282.814 567.451 282.735 567.231 282.735 566.968ZM289.31 567.188V569.49H291.085V570.747H289.31V576.645C289.31 577.025 289.389 577.312 289.547 577.506C289.705 577.693 289.975 577.787 290.355 577.787C290.543 577.787 290.801 577.752 291.129 577.682V579C290.701 579.117 290.285 579.176 289.881 579.176C289.154 579.176 288.606 578.956 288.237 578.517C287.868 578.077 287.684 577.453 287.684 576.645V570.747H285.952V569.49H287.684V567.188H289.31ZM293.027 578.147C293.027 577.866 293.109 577.632 293.273 577.444C293.443 577.257 293.695 577.163 294.029 577.163C294.363 577.163 294.615 577.257 294.785 577.444C294.961 577.632 295.049 577.866 295.049 578.147C295.049 578.417 294.961 578.643 294.785 578.824C294.615 579.006 294.363 579.097 294.029 579.097C293.695 579.097 293.443 579.006 293.273 578.824C293.109 578.643 293.027 578.417 293.027 578.147Z" fill="black"/>
<path d="M74.3457 629.389L72.6074 631.195V636H70.7324V621.781H72.6074V628.812L78.9258 621.781H81.1914L75.5957 628.061L81.6309 636H79.3848L74.3457 629.389ZM87.1191 636.195C85.6868 636.195 84.5215 635.727 83.623 634.789C82.7246 633.845 82.2754 632.585 82.2754 631.01V630.678C82.2754 629.63 82.474 628.695 82.8711 627.875C83.2747 627.048 83.8346 626.404 84.5508 625.941C85.2734 625.473 86.0547 625.238 86.8945 625.238C88.2682 625.238 89.3359 625.691 90.0977 626.596C90.8594 627.501 91.2402 628.796 91.2402 630.482V631.234H84.082C84.1081 632.276 84.4108 633.119 84.9902 633.764C85.5762 634.402 86.3184 634.721 87.2168 634.721C87.8548 634.721 88.3952 634.59 88.8379 634.33C89.2806 634.07 89.668 633.725 90 633.295L91.1035 634.154C90.2181 635.515 88.89 636.195 87.1191 636.195ZM86.8945 626.723C86.1654 626.723 85.5534 626.99 85.0586 627.523C84.5638 628.051 84.2578 628.793 84.1406 629.75H89.4336V629.613C89.3815 628.695 89.1341 627.986 88.6914 627.484C88.2487 626.977 87.6497 626.723 86.8945 626.723ZM95.0391 625.434L95.0879 626.605C95.8626 625.694 96.9076 625.238 98.2227 625.238C99.7005 625.238 100.706 625.805 101.24 626.938C101.592 626.43 102.048 626.02 102.607 625.707C103.174 625.395 103.841 625.238 104.609 625.238C106.927 625.238 108.105 626.465 108.145 628.92V636H106.338V629.027C106.338 628.272 106.165 627.709 105.82 627.338C105.475 626.96 104.896 626.771 104.082 626.771C103.411 626.771 102.855 626.973 102.412 627.377C101.969 627.774 101.712 628.311 101.641 628.988V636H99.8242V629.076C99.8242 627.54 99.0723 626.771 97.5684 626.771C96.3835 626.771 95.5729 627.276 95.1367 628.285V636H93.3301V625.434H95.0391ZM119.824 630.834C119.824 632.449 119.453 633.747 118.711 634.73C117.969 635.707 116.973 636.195 115.723 636.195C114.388 636.195 113.356 635.723 112.627 634.779L112.539 636H110.879V621H112.686V626.596C113.415 625.691 114.421 625.238 115.703 625.238C116.986 625.238 117.992 625.723 118.721 626.693C119.456 627.663 119.824 628.992 119.824 630.678V630.834ZM118.018 630.629C118.018 629.398 117.78 628.448 117.305 627.777C116.829 627.107 116.146 626.771 115.254 626.771C114.062 626.771 113.206 627.325 112.686 628.432V633.002C113.239 634.109 114.102 634.662 115.273 634.662C116.139 634.662 116.813 634.327 117.295 633.656C117.777 632.986 118.018 631.977 118.018 630.629ZM128.633 636C128.529 635.792 128.444 635.421 128.379 634.887C127.539 635.759 126.536 636.195 125.371 636.195C124.329 636.195 123.473 635.902 122.803 635.316C122.139 634.724 121.807 633.975 121.807 633.07C121.807 631.97 122.223 631.117 123.057 630.512C123.896 629.9 125.075 629.594 126.592 629.594H128.35V628.764C128.35 628.132 128.161 627.631 127.783 627.26C127.406 626.882 126.849 626.693 126.113 626.693C125.469 626.693 124.928 626.856 124.492 627.182C124.056 627.507 123.838 627.901 123.838 628.363H122.021C122.021 627.836 122.207 627.328 122.578 626.84C122.956 626.345 123.464 625.954 124.102 625.668C124.746 625.382 125.452 625.238 126.221 625.238C127.438 625.238 128.392 625.544 129.082 626.156C129.772 626.762 130.13 627.598 130.156 628.666V633.529C130.156 634.499 130.28 635.271 130.527 635.844V636H128.633ZM125.635 634.623C126.201 634.623 126.738 634.477 127.246 634.184C127.754 633.891 128.122 633.51 128.35 633.041V630.873H126.934C124.72 630.873 123.613 631.521 123.613 632.816C123.613 633.383 123.802 633.826 124.18 634.145C124.557 634.464 125.042 634.623 125.635 634.623ZM134.951 636H133.145V621H134.951V636ZM139.814 636H138.008V625.434H139.814V636ZM137.861 622.631C137.861 622.338 137.949 622.09 138.125 621.889C138.307 621.687 138.574 621.586 138.926 621.586C139.277 621.586 139.544 621.687 139.727 621.889C139.909 622.09 140 622.338 140 622.631C140 622.924 139.909 623.168 139.727 623.363C139.544 623.559 139.277 623.656 138.926 623.656C138.574 623.656 138.307 623.559 138.125 623.363C137.949 623.168 137.861 622.924 137.861 622.631ZM150.625 631.107L149.492 632.289V636H147.686V621H149.492V630.072L150.459 628.91L153.75 625.434H155.947L151.836 629.848L156.426 636H154.307L150.625 631.107ZM162.002 636.195C160.57 636.195 159.404 635.727 158.506 634.789C157.607 633.845 157.158 632.585 157.158 631.01V630.678C157.158 629.63 157.357 628.695 157.754 627.875C158.158 627.048 158.717 626.404 159.434 625.941C160.156 625.473 160.938 625.238 161.777 625.238C163.151 625.238 164.219 625.691 164.98 626.596C165.742 627.501 166.123 628.796 166.123 630.482V631.234H158.965C158.991 632.276 159.294 633.119 159.873 633.764C160.459 634.402 161.201 634.721 162.1 634.721C162.738 634.721 163.278 634.59 163.721 634.33C164.163 634.07 164.551 633.725 164.883 633.295L165.986 634.154C165.101 635.515 163.773 636.195 162.002 636.195ZM161.777 626.723C161.048 626.723 160.436 626.99 159.941 627.523C159.447 628.051 159.141 628.793 159.023 629.75H164.316V629.613C164.264 628.695 164.017 627.986 163.574 627.484C163.132 626.977 162.533 626.723 161.777 626.723ZM184.395 636H182.51V629.428H175.342V636H173.467V621.781H175.342V627.895H182.51V621.781H184.395V636ZM193.965 636C193.861 635.792 193.776 635.421 193.711 634.887C192.871 635.759 191.868 636.195 190.703 636.195C189.661 636.195 188.805 635.902 188.135 635.316C187.471 634.724 187.139 633.975 187.139 633.07C187.139 631.97 187.555 631.117 188.389 630.512C189.229 629.9 190.407 629.594 191.924 629.594H193.682V628.764C193.682 628.132 193.493 627.631 193.115 627.26C192.738 626.882 192.181 626.693 191.445 626.693C190.801 626.693 190.26 626.856 189.824 627.182C189.388 627.507 189.17 627.901 189.17 628.363H187.354C187.354 627.836 187.539 627.328 187.91 626.84C188.288 626.345 188.796 625.954 189.434 625.668C190.078 625.382 190.785 625.238 191.553 625.238C192.77 625.238 193.724 625.544 194.414 626.156C195.104 626.762 195.462 627.598 195.488 628.666V633.529C195.488 634.499 195.612 635.271 195.859 635.844V636H193.965ZM190.967 634.623C191.533 634.623 192.07 634.477 192.578 634.184C193.086 633.891 193.454 633.51 193.682 633.041V630.873H192.266C190.052 630.873 188.945 631.521 188.945 632.816C188.945 633.383 189.134 633.826 189.512 634.145C189.889 634.464 190.374 634.623 190.967 634.623ZM200.283 636H198.477V621H200.283V636ZM209.707 636C209.603 635.792 209.518 635.421 209.453 634.887C208.613 635.759 207.611 636.195 206.445 636.195C205.404 636.195 204.548 635.902 203.877 635.316C203.213 634.724 202.881 633.975 202.881 633.07C202.881 631.97 203.298 631.117 204.131 630.512C204.971 629.9 206.149 629.594 207.666 629.594H209.424V628.764C209.424 628.132 209.235 627.631 208.857 627.26C208.48 626.882 207.923 626.693 207.188 626.693C206.543 626.693 206.003 626.856 205.566 627.182C205.13 627.507 204.912 627.901 204.912 628.363H203.096C203.096 627.836 203.281 627.328 203.652 626.84C204.03 626.345 204.538 625.954 205.176 625.668C205.82 625.382 206.527 625.238 207.295 625.238C208.512 625.238 209.466 625.544 210.156 626.156C210.846 626.762 211.204 627.598 211.23 628.666V633.529C211.23 634.499 211.354 635.271 211.602 635.844V636H209.707ZM206.709 634.623C207.275 634.623 207.812 634.477 208.32 634.184C208.828 633.891 209.196 633.51 209.424 633.041V630.873H208.008C205.794 630.873 204.688 631.521 204.688 632.816C204.688 633.383 204.876 633.826 205.254 634.145C205.632 634.464 206.117 634.623 206.709 634.623ZM215.762 625.434L215.811 626.605C216.585 625.694 217.63 625.238 218.945 625.238C220.423 625.238 221.429 625.805 221.963 626.938C222.314 626.43 222.77 626.02 223.33 625.707C223.896 625.395 224.564 625.238 225.332 625.238C227.65 625.238 228.828 626.465 228.867 628.92V636H227.061V629.027C227.061 628.272 226.888 627.709 226.543 627.338C226.198 626.96 225.618 626.771 224.805 626.771C224.134 626.771 223.577 626.973 223.135 627.377C222.692 627.774 222.435 628.311 222.363 628.988V636H220.547V629.076C220.547 627.54 219.795 626.771 218.291 626.771C217.106 626.771 216.296 627.276 215.859 628.285V636H214.053V625.434H215.762ZM238.125 636C238.021 635.792 237.936 635.421 237.871 634.887C237.031 635.759 236.029 636.195 234.863 636.195C233.822 636.195 232.965 635.902 232.295 635.316C231.631 634.724 231.299 633.975 231.299 633.07C231.299 631.97 231.715 631.117 232.549 630.512C233.389 629.9 234.567 629.594 236.084 629.594H237.842V628.764C237.842 628.132 237.653 627.631 237.275 627.26C236.898 626.882 236.341 626.693 235.605 626.693C234.961 626.693 234.421 626.856 233.984 627.182C233.548 627.507 233.33 627.901 233.33 628.363H231.514C231.514 627.836 231.699 627.328 232.07 626.84C232.448 626.345 232.956 625.954 233.594 625.668C234.238 625.382 234.945 625.238 235.713 625.238C236.93 625.238 237.884 625.544 238.574 626.156C239.264 626.762 239.622 627.598 239.648 628.666V633.529C239.648 634.499 239.772 635.271 240.02 635.844V636H238.125ZM235.127 634.623C235.693 634.623 236.23 634.477 236.738 634.184C237.246 633.891 237.614 633.51 237.842 633.041V630.873H236.426C234.212 630.873 233.105 631.521 233.105 632.816C233.105 633.383 233.294 633.826 233.672 634.145C234.049 634.464 234.535 634.623 235.127 634.623ZM244.189 625.434L244.248 626.762C245.055 625.746 246.11 625.238 247.412 625.238C249.645 625.238 250.771 626.498 250.791 629.018V636H248.984V629.008C248.978 628.246 248.802 627.683 248.457 627.318C248.118 626.954 247.588 626.771 246.865 626.771C246.279 626.771 245.765 626.928 245.322 627.24C244.88 627.553 244.535 627.963 244.287 628.471V636H242.48V625.434H244.189ZM268.77 621.781V631.449C268.763 632.79 268.34 633.887 267.5 634.74C266.667 635.593 265.534 636.072 264.102 636.176L263.604 636.195C262.048 636.195 260.807 635.775 259.883 634.936C258.958 634.096 258.49 632.94 258.477 631.469V621.781H260.332V631.41C260.332 632.439 260.615 633.24 261.182 633.812C261.748 634.379 262.555 634.662 263.604 634.662C264.665 634.662 265.475 634.379 266.035 633.812C266.602 633.246 266.885 632.449 266.885 631.42V621.781H268.77ZM273.896 622.875V625.434H275.869V626.83H273.896V633.383C273.896 633.806 273.984 634.125 274.16 634.34C274.336 634.548 274.635 634.652 275.059 634.652C275.267 634.652 275.553 634.613 275.918 634.535V636C275.443 636.13 274.98 636.195 274.531 636.195C273.724 636.195 273.115 635.951 272.705 635.463C272.295 634.975 272.09 634.281 272.09 633.383V626.83H270.166V625.434H272.09V622.875H273.896ZM284.512 636C284.408 635.792 284.323 635.421 284.258 634.887C283.418 635.759 282.415 636.195 281.25 636.195C280.208 636.195 279.352 635.902 278.682 635.316C278.018 634.724 277.686 633.975 277.686 633.07C277.686 631.97 278.102 631.117 278.936 630.512C279.775 629.9 280.954 629.594 282.471 629.594H284.229V628.764C284.229 628.132 284.04 627.631 283.662 627.26C283.285 626.882 282.728 626.693 281.992 626.693C281.348 626.693 280.807 626.856 280.371 627.182C279.935 627.507 279.717 627.901 279.717 628.363H277.9C277.9 627.836 278.086 627.328 278.457 626.84C278.835 626.345 279.342 625.954 279.98 625.668C280.625 625.382 281.331 625.238 282.1 625.238C283.317 625.238 284.271 625.544 284.961 626.156C285.651 626.762 286.009 627.598 286.035 628.666V633.529C286.035 634.499 286.159 635.271 286.406 635.844V636H284.512ZM281.514 634.623C282.08 634.623 282.617 634.477 283.125 634.184C283.633 633.891 284.001 633.51 284.229 633.041V630.873H282.812C280.599 630.873 279.492 631.521 279.492 632.816C279.492 633.383 279.681 633.826 280.059 634.145C280.436 634.464 280.921 634.623 281.514 634.623ZM290.566 625.434L290.615 626.605C291.39 625.694 292.435 625.238 293.75 625.238C295.228 625.238 296.234 625.805 296.768 626.938C297.119 626.43 297.575 626.02 298.135 625.707C298.701 625.395 299.368 625.238 300.137 625.238C302.454 625.238 303.633 626.465 303.672 628.92V636H301.865V629.027C301.865 628.272 301.693 627.709 301.348 627.338C301.003 626.96 300.423 626.771 299.609 626.771C298.939 626.771 298.382 626.973 297.939 627.377C297.497 627.774 297.24 628.311 297.168 628.988V636H295.352V629.076C295.352 627.54 294.6 626.771 293.096 626.771C291.911 626.771 291.1 627.276 290.664 628.285V636H288.857V625.434H290.566ZM312.93 636C312.826 635.792 312.741 635.421 312.676 634.887C311.836 635.759 310.833 636.195 309.668 636.195C308.626 636.195 307.77 635.902 307.1 635.316C306.436 634.724 306.104 633.975 306.104 633.07C306.104 631.97 306.52 631.117 307.354 630.512C308.193 629.9 309.372 629.594 310.889 629.594H312.646V628.764C312.646 628.132 312.458 627.631 312.08 627.26C311.702 626.882 311.146 626.693 310.41 626.693C309.766 626.693 309.225 626.856 308.789 627.182C308.353 627.507 308.135 627.901 308.135 628.363H306.318C306.318 627.836 306.504 627.328 306.875 626.84C307.253 626.345 307.76 625.954 308.398 625.668C309.043 625.382 309.749 625.238 310.518 625.238C311.735 625.238 312.689 625.544 313.379 626.156C314.069 626.762 314.427 627.598 314.453 628.666V633.529C314.453 634.499 314.577 635.271 314.824 635.844V636H312.93ZM309.932 634.623C310.498 634.623 311.035 634.477 311.543 634.184C312.051 633.891 312.419 633.51 312.646 633.041V630.873H311.23C309.017 630.873 307.91 631.521 307.91 632.816C307.91 633.383 308.099 633.826 308.477 634.145C308.854 634.464 309.339 634.623 309.932 634.623Z" fill="black"/>
<path d="M98.2715 697.467H105.01V699H96.3867V684.781H98.2715V697.467ZM108.828 699H107.021V688.434H108.828V699ZM106.875 685.631C106.875 685.338 106.963 685.09 107.139 684.889C107.321 684.687 107.588 684.586 107.939 684.586C108.291 684.586 108.558 684.687 108.74 684.889C108.923 685.09 109.014 685.338 109.014 685.631C109.014 685.924 108.923 686.168 108.74 686.363C108.558 686.559 108.291 686.656 107.939 686.656C107.588 686.656 107.321 686.559 107.139 686.363C106.963 686.168 106.875 685.924 106.875 685.631ZM113.535 689.713C114.336 688.73 115.378 688.238 116.66 688.238C118.893 688.238 120.02 689.498 120.039 692.018V699H118.232V692.008C118.226 691.246 118.05 690.683 117.705 690.318C117.367 689.954 116.836 689.771 116.113 689.771C115.527 689.771 115.013 689.928 114.57 690.24C114.128 690.553 113.783 690.963 113.535 691.471V699H111.729V684H113.535V689.713ZM129.268 699C129.163 698.792 129.079 698.421 129.014 697.887C128.174 698.759 127.171 699.195 126.006 699.195C124.964 699.195 124.108 698.902 123.438 698.316C122.773 697.724 122.441 696.975 122.441 696.07C122.441 694.97 122.858 694.117 123.691 693.512C124.531 692.9 125.71 692.594 127.227 692.594H128.984V691.764C128.984 691.132 128.796 690.631 128.418 690.26C128.04 689.882 127.484 689.693 126.748 689.693C126.104 689.693 125.563 689.856 125.127 690.182C124.691 690.507 124.473 690.901 124.473 691.363H122.656C122.656 690.836 122.842 690.328 123.213 689.84C123.59 689.345 124.098 688.954 124.736 688.668C125.381 688.382 126.087 688.238 126.855 688.238C128.073 688.238 129.027 688.544 129.717 689.156C130.407 689.762 130.765 690.598 130.791 691.666V696.529C130.791 697.499 130.915 698.271 131.162 698.844V699H129.268ZM126.27 697.623C126.836 697.623 127.373 697.477 127.881 697.184C128.389 696.891 128.757 696.51 128.984 696.041V693.873H127.568C125.355 693.873 124.248 694.521 124.248 695.816C124.248 696.383 124.437 696.826 124.814 697.145C125.192 697.464 125.677 697.623 126.27 697.623ZM136.074 685.875V688.434H138.047V689.83H136.074V696.383C136.074 696.806 136.162 697.125 136.338 697.34C136.514 697.548 136.813 697.652 137.236 697.652C137.445 697.652 137.731 697.613 138.096 697.535V699C137.62 699.13 137.158 699.195 136.709 699.195C135.902 699.195 135.293 698.951 134.883 698.463C134.473 697.975 134.268 697.281 134.268 696.383V689.83H132.344V688.434H134.268V685.875H136.074ZM145.41 699V684.781H149.424C150.661 684.781 151.755 685.055 152.705 685.602C153.656 686.148 154.388 686.926 154.902 687.936C155.423 688.945 155.687 690.104 155.693 691.412V692.32C155.693 693.661 155.433 694.837 154.912 695.846C154.398 696.855 153.659 697.63 152.695 698.17C151.738 698.71 150.622 698.987 149.346 699H145.41ZM147.285 686.324V697.467H149.258C150.703 697.467 151.826 697.018 152.627 696.119C153.434 695.221 153.838 693.941 153.838 692.281V691.451C153.838 689.837 153.457 688.583 152.695 687.691C151.94 686.793 150.866 686.337 149.473 686.324H147.285ZM164.775 699C164.671 698.792 164.587 698.421 164.521 697.887C163.682 698.759 162.679 699.195 161.514 699.195C160.472 699.195 159.616 698.902 158.945 698.316C158.281 697.724 157.949 696.975 157.949 696.07C157.949 694.97 158.366 694.117 159.199 693.512C160.039 692.9 161.217 692.594 162.734 692.594H164.492V691.764C164.492 691.132 164.303 690.631 163.926 690.26C163.548 689.882 162.992 689.693 162.256 689.693C161.611 689.693 161.071 689.856 160.635 690.182C160.199 690.507 159.98 690.901 159.98 691.363H158.164C158.164 690.836 158.35 690.328 158.721 689.84C159.098 689.345 159.606 688.954 160.244 688.668C160.889 688.382 161.595 688.238 162.363 688.238C163.581 688.238 164.535 688.544 165.225 689.156C165.915 689.762 166.273 690.598 166.299 691.666V696.529C166.299 697.499 166.423 698.271 166.67 698.844V699H164.775ZM161.777 697.623C162.344 697.623 162.881 697.477 163.389 697.184C163.896 696.891 164.264 696.51 164.492 696.041V693.873H163.076C160.863 693.873 159.756 694.521 159.756 695.816C159.756 696.383 159.945 696.826 160.322 697.145C160.7 697.464 161.185 697.623 161.777 697.623ZM170.02 699V689.83H168.35V688.434H170.02V687.35C170.02 686.217 170.322 685.341 170.928 684.723C171.533 684.104 172.389 683.795 173.496 683.795C173.913 683.795 174.326 683.85 174.736 683.961L174.639 685.426C174.333 685.367 174.007 685.338 173.662 685.338C173.076 685.338 172.624 685.51 172.305 685.855C171.986 686.194 171.826 686.682 171.826 687.32V688.434H174.082V689.83H171.826V699H170.02ZM178.535 685.875V688.434H180.508V689.83H178.535V696.383C178.535 696.806 178.623 697.125 178.799 697.34C178.975 697.548 179.274 697.652 179.697 697.652C179.906 697.652 180.192 697.613 180.557 697.535V699C180.081 699.13 179.619 699.195 179.17 699.195C178.363 699.195 177.754 698.951 177.344 698.463C176.934 697.975 176.729 697.281 176.729 696.383V689.83H174.805V688.434H176.729V685.875H178.535ZM189.15 699C189.046 698.792 188.962 698.421 188.896 697.887C188.057 698.759 187.054 699.195 185.889 699.195C184.847 699.195 183.991 698.902 183.32 698.316C182.656 697.724 182.324 696.975 182.324 696.07C182.324 694.97 182.741 694.117 183.574 693.512C184.414 692.9 185.592 692.594 187.109 692.594H188.867V691.764C188.867 691.132 188.678 690.631 188.301 690.26C187.923 689.882 187.367 689.693 186.631 689.693C185.986 689.693 185.446 689.856 185.01 690.182C184.574 690.507 184.355 690.901 184.355 691.363H182.539C182.539 690.836 182.725 690.328 183.096 689.84C183.473 689.345 183.981 688.954 184.619 688.668C185.264 688.382 185.97 688.238 186.738 688.238C187.956 688.238 188.91 688.544 189.6 689.156C190.29 689.762 190.648 690.598 190.674 691.666V696.529C190.674 697.499 190.798 698.271 191.045 698.844V699H189.15ZM186.152 697.623C186.719 697.623 187.256 697.477 187.764 697.184C188.271 696.891 188.639 696.51 188.867 696.041V693.873H187.451C185.238 693.873 184.131 694.521 184.131 695.816C184.131 696.383 184.32 696.826 184.697 697.145C185.075 697.464 185.56 697.623 186.152 697.623ZM198.613 690.055C198.34 690.009 198.044 689.986 197.725 689.986C196.54 689.986 195.736 690.491 195.312 691.5V699H193.506V688.434H195.264L195.293 689.654C195.885 688.71 196.725 688.238 197.812 688.238C198.164 688.238 198.431 688.284 198.613 688.375V690.055ZM210.742 693.248H207.402V699H205.518V684.781H210.225C211.826 684.781 213.057 685.146 213.916 685.875C214.782 686.604 215.215 687.665 215.215 689.059C215.215 689.944 214.974 690.715 214.492 691.373C214.017 692.031 213.353 692.522 212.5 692.848L215.84 698.883V699H213.828L210.742 693.248ZM207.402 691.715H210.283C211.214 691.715 211.953 691.474 212.5 690.992C213.053 690.51 213.33 689.866 213.33 689.059C213.33 688.18 213.066 687.506 212.539 687.037C212.018 686.568 211.263 686.331 210.273 686.324H207.402V691.715ZM221.953 699.195C220.521 699.195 219.355 698.727 218.457 697.789C217.559 696.845 217.109 695.585 217.109 694.01V693.678C217.109 692.63 217.308 691.695 217.705 690.875C218.109 690.048 218.669 689.404 219.385 688.941C220.107 688.473 220.889 688.238 221.729 688.238C223.102 688.238 224.17 688.691 224.932 689.596C225.693 690.501 226.074 691.796 226.074 693.482V694.234H218.916C218.942 695.276 219.245 696.119 219.824 696.764C220.41 697.402 221.152 697.721 222.051 697.721C222.689 697.721 223.229 697.59 223.672 697.33C224.115 697.07 224.502 696.725 224.834 696.295L225.938 697.154C225.052 698.515 223.724 699.195 221.953 699.195ZM221.729 689.723C220.999 689.723 220.387 689.99 219.893 690.523C219.398 691.051 219.092 691.793 218.975 692.75H224.268V692.613C224.215 691.695 223.968 690.986 223.525 690.484C223.083 689.977 222.484 689.723 221.729 689.723ZM234.326 696.197C234.326 695.709 234.141 695.331 233.77 695.064C233.405 694.791 232.764 694.557 231.846 694.361C230.934 694.166 230.208 693.932 229.668 693.658C229.134 693.385 228.737 693.059 228.477 692.682C228.223 692.304 228.096 691.855 228.096 691.334C228.096 690.468 228.46 689.736 229.189 689.137C229.925 688.538 230.863 688.238 232.002 688.238C233.2 688.238 234.17 688.548 234.912 689.166C235.661 689.785 236.035 690.576 236.035 691.539H234.219C234.219 691.044 234.007 690.618 233.584 690.26C233.167 689.902 232.64 689.723 232.002 689.723C231.344 689.723 230.83 689.866 230.459 690.152C230.088 690.439 229.902 690.813 229.902 691.275C229.902 691.712 230.075 692.04 230.42 692.262C230.765 692.483 231.387 692.695 232.285 692.896C233.19 693.098 233.923 693.339 234.482 693.619C235.042 693.899 235.456 694.238 235.723 694.635C235.996 695.025 236.133 695.504 236.133 696.07C236.133 697.014 235.755 697.773 235 698.346C234.245 698.912 233.265 699.195 232.061 699.195C231.214 699.195 230.465 699.046 229.814 698.746C229.163 698.447 228.652 698.03 228.281 697.496C227.917 696.956 227.734 696.373 227.734 695.748H229.541C229.574 696.354 229.814 696.835 230.264 697.193C230.719 697.545 231.318 697.721 232.061 697.721C232.744 697.721 233.291 697.584 233.701 697.311C234.118 697.031 234.326 696.66 234.326 696.197ZM242.871 699.195C241.439 699.195 240.273 698.727 239.375 697.789C238.477 696.845 238.027 695.585 238.027 694.01V693.678C238.027 692.63 238.226 691.695 238.623 690.875C239.027 690.048 239.587 689.404 240.303 688.941C241.025 688.473 241.807 688.238 242.646 688.238C244.02 688.238 245.088 688.691 245.85 689.596C246.611 690.501 246.992 691.796 246.992 693.482V694.234H239.834C239.86 695.276 240.163 696.119 240.742 696.764C241.328 697.402 242.07 697.721 242.969 697.721C243.607 697.721 244.147 697.59 244.59 697.33C245.033 697.07 245.42 696.725 245.752 696.295L246.855 697.154C245.97 698.515 244.642 699.195 242.871 699.195ZM242.646 689.723C241.917 689.723 241.305 689.99 240.811 690.523C240.316 691.051 240.01 691.793 239.893 692.75H245.186V692.613C245.133 691.695 244.886 690.986 244.443 690.484C244.001 689.977 243.402 689.723 242.646 689.723ZM254.199 690.055C253.926 690.009 253.63 689.986 253.311 689.986C252.126 689.986 251.322 690.491 250.898 691.5V699H249.092V688.434H250.85L250.879 689.654C251.471 688.71 252.311 688.238 253.398 688.238C253.75 688.238 254.017 688.284 254.199 688.375V690.055ZM259.531 696.549L262.148 688.434H263.994L260.205 699H258.828L255 688.434H256.846L259.531 696.549ZM272.1 699C271.995 698.792 271.911 698.421 271.846 697.887C271.006 698.759 270.003 699.195 268.838 699.195C267.796 699.195 266.94 698.902 266.27 698.316C265.605 697.724 265.273 696.975 265.273 696.07C265.273 694.97 265.69 694.117 266.523 693.512C267.363 692.9 268.542 692.594 270.059 692.594H271.816V691.764C271.816 691.132 271.628 690.631 271.25 690.26C270.872 689.882 270.316 689.693 269.58 689.693C268.936 689.693 268.395 689.856 267.959 690.182C267.523 690.507 267.305 690.901 267.305 691.363H265.488C265.488 690.836 265.674 690.328 266.045 689.84C266.423 689.345 266.93 688.954 267.568 688.668C268.213 688.382 268.919 688.238 269.688 688.238C270.905 688.238 271.859 688.544 272.549 689.156C273.239 689.762 273.597 690.598 273.623 691.666V696.529C273.623 697.499 273.747 698.271 273.994 698.844V699H272.1ZM269.102 697.623C269.668 697.623 270.205 697.477 270.713 697.184C271.221 696.891 271.589 696.51 271.816 696.041V693.873H270.4C268.187 693.873 267.08 694.521 267.08 695.816C267.08 696.383 267.269 696.826 267.646 697.145C268.024 697.464 268.509 697.623 269.102 697.623ZM282.607 696.197C282.607 695.709 282.422 695.331 282.051 695.064C281.686 694.791 281.045 694.557 280.127 694.361C279.215 694.166 278.49 693.932 277.949 693.658C277.415 693.385 277.018 693.059 276.758 692.682C276.504 692.304 276.377 691.855 276.377 691.334C276.377 690.468 276.742 689.736 277.471 689.137C278.206 688.538 279.144 688.238 280.283 688.238C281.481 688.238 282.451 688.548 283.193 689.166C283.942 689.785 284.316 690.576 284.316 691.539H282.5C282.5 691.044 282.288 690.618 281.865 690.26C281.449 689.902 280.921 689.723 280.283 689.723C279.626 689.723 279.111 689.866 278.74 690.152C278.369 690.439 278.184 690.813 278.184 691.275C278.184 691.712 278.356 692.04 278.701 692.262C279.046 692.483 279.668 692.695 280.566 692.896C281.471 693.098 282.204 693.339 282.764 693.619C283.324 693.899 283.737 694.238 284.004 694.635C284.277 695.025 284.414 695.504 284.414 696.07C284.414 697.014 284.036 697.773 283.281 698.346C282.526 698.912 281.546 699.195 280.342 699.195C279.495 699.195 278.747 699.046 278.096 698.746C277.445 698.447 276.934 698.03 276.562 697.496C276.198 696.956 276.016 696.373 276.016 695.748H277.822C277.855 696.354 278.096 696.835 278.545 697.193C279.001 697.545 279.6 697.721 280.342 697.721C281.025 697.721 281.572 697.584 281.982 697.311C282.399 697.031 282.607 696.66 282.607 696.197ZM288.73 699H286.924V688.434H288.73V699ZM286.777 685.631C286.777 685.338 286.865 685.09 287.041 684.889C287.223 684.687 287.49 684.586 287.842 684.586C288.193 684.586 288.46 684.687 288.643 684.889C288.825 685.09 288.916 685.338 288.916 685.631C288.916 685.924 288.825 686.168 288.643 686.363C288.46 686.559 288.193 686.656 287.842 686.656C287.49 686.656 287.223 686.559 287.041 686.363C286.865 686.168 286.777 685.924 286.777 685.631Z" fill="black"/>
</g>
<rect x="0.5" y="0.5" width="374" height="811" stroke="black"/>
<defs>
<clipPath id="clip0_27_440">
<rect width="375" height="812" fill="white"/>
</clipPath>
</defs>
</svg>
