<svg width="375" height="812" viewBox="0 0 375 812" fill="none" xmlns="http://www.w3.org/2000/svg">
<g clip-path="url(#clip0_27_393)">
<rect width="375" height="812" fill="white"/>
<rect x="-2" y="217" width="375" height="595" fill="white"/>
<rect x="0.5" y="0.5" width="374" height="216" fill="#E5E5E5" stroke="black"/>
<line x1="0.250427" y1="-0.432766" x2="375.25" y2="216.567" stroke="black"/>
<line x1="375.25" y1="0.432766" x2="0.250425" y2="217.433" stroke="black"/>
<path d="M22.2334 42.3398L27.7354 44.5635V46.2861L20.5459 42.9551V41.6719L27.7354 38.3496V40.0723L22.2334 42.3398ZM35.0215 48V35.2031H39.2051C40.5938 35.2031 41.6367 35.4902 42.334 36.0645C43.0371 36.6387 43.3887 37.4883 43.3887 38.6133C43.3887 39.2109 43.2188 39.7412 42.8789 40.2041C42.5391 40.6611 42.0762 41.0156 41.4902 41.2676C42.1816 41.4609 42.7266 41.8301 43.125 42.375C43.5293 42.9141 43.7314 43.5586 43.7314 44.3086C43.7314 45.457 43.3594 46.3594 42.6152 47.0156C41.8711 47.6719 40.8193 48 39.46 48H35.0215ZM36.709 42.0146V46.6201H39.4951C40.2803 46.6201 40.8984 46.418 41.3496 46.0137C41.8066 45.6035 42.0352 45.041 42.0352 44.3262C42.0352 42.7852 41.1973 42.0146 39.5215 42.0146H36.709ZM36.709 40.6611H39.2578C39.9961 40.6611 40.585 40.4766 41.0244 40.1074C41.4697 39.7383 41.6924 39.2373 41.6924 38.6045C41.6924 37.9014 41.4873 37.3916 41.0771 37.0752C40.667 36.7529 40.043 36.5918 39.2051 36.5918H36.709V40.6611ZM51.8525 48C51.7588 47.8125 51.6826 47.4785 51.624 46.998C50.8682 47.7832 49.9658 48.1758 48.917 48.1758C47.9795 48.1758 47.209 47.9121 46.6055 47.3848C46.0078 46.8516 45.709 46.1777 45.709 45.3633C45.709 44.373 46.084 43.6055 46.834 43.0605C47.5898 42.5098 48.6504 42.2344 50.0156 42.2344H51.5977V41.4873C51.5977 40.9189 51.4277 40.4678 51.0879 40.1338C50.748 39.7939 50.2471 39.624 49.585 39.624C49.0049 39.624 48.5186 39.7705 48.126 40.0635C47.7334 40.3564 47.5371 40.7109 47.5371 41.127H45.9023C45.9023 40.6523 46.0693 40.1953 46.4033 39.7559C46.7432 39.3105 47.2002 38.959 47.7744 38.7012C48.3545 38.4434 48.9902 38.3145 49.6816 38.3145C50.7773 38.3145 51.6357 38.5898 52.2568 39.1406C52.8779 39.6855 53.2002 40.4385 53.2236 41.3994V45.7764C53.2236 46.6494 53.335 47.3438 53.5576 47.8594V48H51.8525ZM49.1543 46.7607C49.6641 46.7607 50.1475 46.6289 50.6045 46.3652C51.0615 46.1016 51.3926 45.7588 51.5977 45.3369V43.3857H50.3232C48.3311 43.3857 47.335 43.9688 47.335 45.1348C47.335 45.6445 47.5049 46.043 47.8447 46.3301C48.1846 46.6172 48.6211 46.7607 49.1543 46.7607ZM59.5869 46.8486C60.167 46.8486 60.6738 46.6729 61.1074 46.3213C61.541 45.9697 61.7812 45.5303 61.8281 45.0029H63.3662C63.3369 45.5479 63.1494 46.0664 62.8037 46.5586C62.458 47.0508 61.9951 47.4434 61.415 47.7363C60.8408 48.0293 60.2314 48.1758 59.5869 48.1758C58.292 48.1758 57.2607 47.7451 56.4932 46.8838C55.7314 46.0166 55.3506 44.833 55.3506 43.333V43.0605C55.3506 42.1348 55.5205 41.3115 55.8604 40.5908C56.2002 39.8701 56.6865 39.3105 57.3193 38.9121C57.958 38.5137 58.7109 38.3145 59.5781 38.3145C60.6445 38.3145 61.5293 38.6338 62.2324 39.2725C62.9414 39.9111 63.3193 40.7402 63.3662 41.7598H61.8281C61.7812 41.1445 61.5469 40.6406 61.125 40.248C60.709 39.8496 60.1934 39.6504 59.5781 39.6504C58.752 39.6504 58.1104 39.9492 57.6533 40.5469C57.2021 41.1387 56.9766 41.9971 56.9766 43.1221V43.4297C56.9766 44.5254 57.2021 45.3691 57.6533 45.9609C58.1045 46.5527 58.749 46.8486 59.5869 46.8486ZM67.8486 43.5967L66.8291 44.6602V48H65.2031V34.5H66.8291V42.665L67.6992 41.6191L70.6611 38.4902H72.6387L68.9385 42.4629L73.0693 48H71.1621L67.8486 43.5967Z" fill="black"/>
<circle cx="165" cy="186" r="5.5" fill="#C4C4C4" stroke="black"/>
<circle cx="186" cy="186" r="5.5" fill="#C4C4C4" stroke="black"/>
<circle cx="207" cy="186" r="5.5" fill="#C4C4C4" stroke="black"/>
<path d="M98.4824 258.65V267H95.6699V245.672H103.536C105.87 245.672 107.696 246.268 109.015 247.459C110.343 248.65 111.007 250.228 111.007 252.19C111.007 254.261 110.357 255.857 109.059 256.98C107.77 258.094 105.919 258.65 103.507 258.65H98.4824ZM98.4824 256.351H103.536C105.04 256.351 106.192 255.999 106.993 255.296C107.794 254.583 108.194 253.558 108.194 252.22C108.194 250.95 107.794 249.935 106.993 249.173C106.192 248.411 105.094 248.016 103.697 247.986H98.4824V256.351ZM120.543 267.293C118.395 267.293 116.646 266.59 115.299 265.184C113.951 263.768 113.277 261.878 113.277 259.515V259.017C113.277 257.444 113.575 256.043 114.171 254.812C114.776 253.572 115.616 252.605 116.69 251.912C117.774 251.209 118.946 250.857 120.206 250.857C122.267 250.857 123.868 251.536 125.011 252.894C126.153 254.251 126.725 256.194 126.725 258.724V259.852H115.987C116.026 261.414 116.48 262.679 117.35 263.646C118.229 264.603 119.342 265.081 120.689 265.081C121.646 265.081 122.457 264.886 123.121 264.495C123.785 264.104 124.366 263.587 124.864 262.942L126.52 264.231C125.191 266.272 123.199 267.293 120.543 267.293ZM120.206 253.084C119.112 253.084 118.194 253.484 117.452 254.285C116.71 255.076 116.251 256.189 116.075 257.625H124.015V257.42C123.937 256.043 123.565 254.979 122.901 254.227C122.237 253.465 121.339 253.084 120.206 253.084ZM132.423 251.15L132.496 252.908C133.658 251.541 135.226 250.857 137.198 250.857C139.415 250.857 140.924 251.707 141.725 253.406C142.252 252.645 142.936 252.029 143.775 251.561C144.625 251.092 145.626 250.857 146.778 250.857C150.255 250.857 152.022 252.698 152.081 256.38V267H149.371V256.541C149.371 255.408 149.112 254.563 148.595 254.007C148.077 253.44 147.208 253.157 145.987 253.157C144.981 253.157 144.146 253.46 143.482 254.065C142.818 254.661 142.433 255.467 142.325 256.482V267H139.601V256.614C139.601 254.31 138.473 253.157 136.217 253.157C134.439 253.157 133.224 253.914 132.569 255.428V267H129.859V251.15H132.423ZM169.601 259.251C169.601 261.673 169.044 263.621 167.931 265.096C166.817 266.561 165.323 267.293 163.448 267.293C161.446 267.293 159.898 266.585 158.805 265.169L158.673 267H156.183V244.5H158.893V252.894C159.986 251.536 161.495 250.857 163.419 250.857C165.343 250.857 166.852 251.585 167.945 253.04C169.049 254.495 169.601 256.487 169.601 259.017V259.251ZM166.891 258.943C166.891 257.098 166.534 255.672 165.821 254.666C165.108 253.66 164.083 253.157 162.745 253.157C160.958 253.157 159.674 253.987 158.893 255.647V262.503C159.723 264.163 161.017 264.993 162.774 264.993C164.073 264.993 165.084 264.49 165.807 263.484C166.529 262.479 166.891 260.965 166.891 258.943ZM182.813 267C182.657 266.688 182.53 266.131 182.433 265.33C181.173 266.639 179.669 267.293 177.921 267.293C176.358 267.293 175.074 266.854 174.068 265.975C173.072 265.086 172.574 263.963 172.574 262.605C172.574 260.955 173.199 259.676 174.449 258.768C175.709 257.85 177.477 257.391 179.752 257.391H182.389V256.146C182.389 255.198 182.105 254.446 181.539 253.89C180.973 253.323 180.138 253.04 179.034 253.04C178.067 253.04 177.257 253.284 176.603 253.772C175.948 254.261 175.621 254.852 175.621 255.545H172.896C172.896 254.754 173.175 253.992 173.731 253.26C174.298 252.518 175.06 251.932 176.017 251.502C176.983 251.072 178.043 250.857 179.195 250.857C181.021 250.857 182.452 251.316 183.487 252.234C184.522 253.143 185.06 254.397 185.099 255.999V263.294C185.099 264.749 185.284 265.906 185.655 266.766V267H182.813ZM178.316 264.935C179.166 264.935 179.972 264.715 180.733 264.275C181.495 263.836 182.047 263.265 182.389 262.562V259.31H180.265C176.944 259.31 175.284 260.281 175.284 262.225C175.284 263.074 175.567 263.738 176.134 264.217C176.7 264.695 177.428 264.935 178.316 264.935ZM194.298 263.03L197.989 251.15H200.89L194.518 269.446C193.531 272.083 191.964 273.401 189.815 273.401L189.303 273.357L188.292 273.167V270.97L189.024 271.028C189.942 271.028 190.655 270.843 191.163 270.472C191.681 270.101 192.105 269.422 192.438 268.436L193.038 266.824L187.384 251.15H190.343L194.298 263.03ZM212.872 267C212.716 266.688 212.589 266.131 212.491 265.33C211.231 266.639 209.728 267.293 207.979 267.293C206.417 267.293 205.133 266.854 204.127 265.975C203.131 265.086 202.633 263.963 202.633 262.605C202.633 260.955 203.258 259.676 204.508 258.768C205.768 257.85 207.535 257.391 209.811 257.391H212.447V256.146C212.447 255.198 212.164 254.446 211.598 253.89C211.031 253.323 210.196 253.04 209.093 253.04C208.126 253.04 207.315 253.284 206.661 253.772C206.007 254.261 205.68 254.852 205.68 255.545H202.955C202.955 254.754 203.233 253.992 203.79 253.26C204.356 252.518 205.118 251.932 206.075 251.502C207.042 251.072 208.102 250.857 209.254 250.857C211.08 250.857 212.511 251.316 213.546 252.234C214.581 253.143 215.118 254.397 215.157 255.999V263.294C215.157 264.749 215.343 265.906 215.714 266.766V267H212.872ZM208.375 264.935C209.225 264.935 210.03 264.715 210.792 264.275C211.554 263.836 212.105 263.265 212.447 262.562V259.31H210.323C207.003 259.31 205.343 260.281 205.343 262.225C205.343 263.074 205.626 263.738 206.192 264.217C206.759 264.695 207.486 264.935 208.375 264.935ZM227.066 253.582C226.656 253.514 226.212 253.479 225.733 253.479C223.956 253.479 222.75 254.236 222.115 255.75V267H219.405V251.15H222.042L222.086 252.981C222.975 251.565 224.234 250.857 225.865 250.857C226.393 250.857 226.793 250.926 227.066 251.062V253.582ZM238.771 267C238.614 266.688 238.487 266.131 238.39 265.33C237.13 266.639 235.626 267.293 233.878 267.293C232.315 267.293 231.031 266.854 230.025 265.975C229.029 265.086 228.531 263.963 228.531 262.605C228.531 260.955 229.156 259.676 230.406 258.768C231.666 257.85 233.434 257.391 235.709 257.391H238.346V256.146C238.346 255.198 238.062 254.446 237.496 253.89C236.93 253.323 236.095 253.04 234.991 253.04C234.024 253.04 233.214 253.284 232.56 253.772C231.905 254.261 231.578 254.852 231.578 255.545H228.854C228.854 254.754 229.132 253.992 229.688 253.26C230.255 252.518 231.017 251.932 231.974 251.502C232.94 251.072 234 250.857 235.152 250.857C236.979 250.857 238.409 251.316 239.444 252.234C240.479 253.143 241.017 254.397 241.056 255.999V263.294C241.056 264.749 241.241 265.906 241.612 266.766V267H238.771ZM234.273 264.935C235.123 264.935 235.929 264.715 236.69 264.275C237.452 263.836 238.004 263.265 238.346 262.562V259.31H236.222C232.901 259.31 231.241 260.281 231.241 262.225C231.241 263.074 231.524 263.738 232.091 264.217C232.657 264.695 233.385 264.935 234.273 264.935ZM247.867 251.15L247.955 253.143C249.166 251.619 250.748 250.857 252.701 250.857C256.051 250.857 257.74 252.747 257.77 256.526V267H255.06V256.512C255.05 255.369 254.786 254.524 254.269 253.978C253.761 253.431 252.965 253.157 251.881 253.157C251.002 253.157 250.23 253.392 249.566 253.86C248.902 254.329 248.385 254.944 248.014 255.706V267H245.304V251.15H247.867Z" fill="black"/>
<path d="M118.406 324H116.145L107.555 310.852V324H105.293V306.938H107.555L116.168 320.145V306.938H118.406V324ZM129.891 324C129.766 323.75 129.664 323.305 129.586 322.664C128.578 323.711 127.375 324.234 125.977 324.234C124.727 324.234 123.699 323.883 122.895 323.18C122.098 322.469 121.699 321.57 121.699 320.484C121.699 319.164 122.199 318.141 123.199 317.414C124.207 316.68 125.621 316.312 127.441 316.312H129.551V315.316C129.551 314.559 129.324 313.957 128.871 313.512C128.418 313.059 127.75 312.832 126.867 312.832C126.094 312.832 125.445 313.027 124.922 313.418C124.398 313.809 124.137 314.281 124.137 314.836H121.957C121.957 314.203 122.18 313.594 122.625 313.008C123.078 312.414 123.688 311.945 124.453 311.602C125.227 311.258 126.074 311.086 126.996 311.086C128.457 311.086 129.602 311.453 130.43 312.188C131.258 312.914 131.688 313.918 131.719 315.199V321.035C131.719 322.199 131.867 323.125 132.164 323.812V324H129.891ZM126.293 322.348C126.973 322.348 127.617 322.172 128.227 321.82C128.836 321.469 129.277 321.012 129.551 320.449V317.848H127.852C125.195 317.848 123.867 318.625 123.867 320.18C123.867 320.859 124.094 321.391 124.547 321.773C125 322.156 125.582 322.348 126.293 322.348ZM137.156 311.32L137.215 312.727C138.145 311.633 139.398 311.086 140.977 311.086C142.75 311.086 143.957 311.766 144.598 313.125C145.02 312.516 145.566 312.023 146.238 311.648C146.918 311.273 147.719 311.086 148.641 311.086C151.422 311.086 152.836 312.559 152.883 315.504V324H150.715V315.633C150.715 314.727 150.508 314.051 150.094 313.605C149.68 313.152 148.984 312.926 148.008 312.926C147.203 312.926 146.535 313.168 146.004 313.652C145.473 314.129 145.164 314.773 145.078 315.586V324H142.898V315.691C142.898 313.848 141.996 312.926 140.191 312.926C138.77 312.926 137.797 313.531 137.273 314.742V324H135.105V311.32H137.156ZM163.992 324C163.867 323.75 163.766 323.305 163.688 322.664C162.68 323.711 161.477 324.234 160.078 324.234C158.828 324.234 157.801 323.883 156.996 323.18C156.199 322.469 155.801 321.57 155.801 320.484C155.801 319.164 156.301 318.141 157.301 317.414C158.309 316.68 159.723 316.312 161.543 316.312H163.652V315.316C163.652 314.559 163.426 313.957 162.973 313.512C162.52 313.059 161.852 312.832 160.969 312.832C160.195 312.832 159.547 313.027 159.023 313.418C158.5 313.809 158.238 314.281 158.238 314.836H156.059C156.059 314.203 156.281 313.594 156.727 313.008C157.18 312.414 157.789 311.945 158.555 311.602C159.328 311.258 160.176 311.086 161.098 311.086C162.559 311.086 163.703 311.453 164.531 312.188C165.359 312.914 165.789 313.918 165.82 315.199V321.035C165.82 322.199 165.969 323.125 166.266 323.812V324H163.992ZM160.395 322.348C161.074 322.348 161.719 322.172 162.328 321.82C162.938 321.469 163.379 321.012 163.652 320.449V317.848H161.953C159.297 317.848 157.969 318.625 157.969 320.18C157.969 320.859 158.195 321.391 158.648 321.773C159.102 322.156 159.684 322.348 160.395 322.348ZM181.77 317.098H177.762V324H175.5V306.938H181.148C183.07 306.938 184.547 307.375 185.578 308.25C186.617 309.125 187.137 310.398 187.137 312.07C187.137 313.133 186.848 314.059 186.27 314.848C185.699 315.637 184.902 316.227 183.879 316.617L187.887 323.859V324H185.473L181.77 317.098ZM177.762 315.258H181.219C182.336 315.258 183.223 314.969 183.879 314.391C184.543 313.812 184.875 313.039 184.875 312.07C184.875 311.016 184.559 310.207 183.926 309.645C183.301 309.082 182.395 308.797 181.207 308.789H177.762V315.258ZM195.223 324.234C193.504 324.234 192.105 323.672 191.027 322.547C189.949 321.414 189.41 319.902 189.41 318.012V317.613C189.41 316.355 189.648 315.234 190.125 314.25C190.609 313.258 191.281 312.484 192.141 311.93C193.008 311.367 193.945 311.086 194.953 311.086C196.602 311.086 197.883 311.629 198.797 312.715C199.711 313.801 200.168 315.355 200.168 317.379V318.281H191.578C191.609 319.531 191.973 320.543 192.668 321.316C193.371 322.082 194.262 322.465 195.34 322.465C196.105 322.465 196.754 322.309 197.285 321.996C197.816 321.684 198.281 321.27 198.68 320.754L200.004 321.785C198.941 323.418 197.348 324.234 195.223 324.234ZM194.953 312.867C194.078 312.867 193.344 313.188 192.75 313.828C192.156 314.461 191.789 315.352 191.648 316.5H198V316.336C197.938 315.234 197.641 314.383 197.109 313.781C196.578 313.172 195.859 312.867 194.953 312.867ZM210.07 320.637C210.07 320.051 209.848 319.598 209.402 319.277C208.965 318.949 208.195 318.668 207.094 318.434C206 318.199 205.129 317.918 204.48 317.59C203.84 317.262 203.363 316.871 203.051 316.418C202.746 315.965 202.594 315.426 202.594 314.801C202.594 313.762 203.031 312.883 203.906 312.164C204.789 311.445 205.914 311.086 207.281 311.086C208.719 311.086 209.883 311.457 210.773 312.199C211.672 312.941 212.121 313.891 212.121 315.047H209.941C209.941 314.453 209.688 313.941 209.18 313.512C208.68 313.082 208.047 312.867 207.281 312.867C206.492 312.867 205.875 313.039 205.43 313.383C204.984 313.727 204.762 314.176 204.762 314.73C204.762 315.254 204.969 315.648 205.383 315.914C205.797 316.18 206.543 316.434 207.621 316.676C208.707 316.918 209.586 317.207 210.258 317.543C210.93 317.879 211.426 318.285 211.746 318.762C212.074 319.23 212.238 319.805 212.238 320.484C212.238 321.617 211.785 322.527 210.879 323.215C209.973 323.895 208.797 324.234 207.352 324.234C206.336 324.234 205.438 324.055 204.656 323.695C203.875 323.336 203.262 322.836 202.816 322.195C202.379 321.547 202.16 320.848 202.16 320.098H204.328C204.367 320.824 204.656 321.402 205.195 321.832C205.742 322.254 206.461 322.465 207.352 322.465C208.172 322.465 208.828 322.301 209.32 321.973C209.82 321.637 210.07 321.191 210.07 320.637ZM218.004 308.25V311.32H220.371V312.996H218.004V320.859C218.004 321.367 218.109 321.75 218.32 322.008C218.531 322.258 218.891 322.383 219.398 322.383C219.648 322.383 219.992 322.336 220.43 322.242V324C219.859 324.156 219.305 324.234 218.766 324.234C217.797 324.234 217.066 323.941 216.574 323.355C216.082 322.77 215.836 321.938 215.836 320.859V312.996H213.527V311.32H215.836V308.25H218.004ZM222.105 317.543C222.105 316.301 222.348 315.184 222.832 314.191C223.324 313.199 224.004 312.434 224.871 311.895C225.746 311.355 226.742 311.086 227.859 311.086C229.586 311.086 230.98 311.684 232.043 312.879C233.113 314.074 233.648 315.664 233.648 317.648V317.801C233.648 319.035 233.41 320.145 232.934 321.129C232.465 322.105 231.789 322.867 230.906 323.414C230.031 323.961 229.023 324.234 227.883 324.234C226.164 324.234 224.77 323.637 223.699 322.441C222.637 321.246 222.105 319.664 222.105 317.695V317.543ZM224.285 317.801C224.285 319.207 224.609 320.336 225.258 321.188C225.914 322.039 226.789 322.465 227.883 322.465C228.984 322.465 229.859 322.035 230.508 321.176C231.156 320.309 231.48 319.098 231.48 317.543C231.48 316.152 231.148 315.027 230.484 314.168C229.828 313.301 228.953 312.867 227.859 312.867C226.789 312.867 225.926 313.293 225.27 314.145C224.613 314.996 224.285 316.215 224.285 317.801ZM242.496 313.266C242.168 313.211 241.812 313.184 241.43 313.184C240.008 313.184 239.043 313.789 238.535 315V324H236.367V311.32H238.477L238.512 312.785C239.223 311.652 240.23 311.086 241.535 311.086C241.957 311.086 242.277 311.141 242.496 311.25V313.266ZM251.859 324C251.734 323.75 251.633 323.305 251.555 322.664C250.547 323.711 249.344 324.234 247.945 324.234C246.695 324.234 245.668 323.883 244.863 323.18C244.066 322.469 243.668 321.57 243.668 320.484C243.668 319.164 244.168 318.141 245.168 317.414C246.176 316.68 247.59 316.312 249.41 316.312H251.52V315.316C251.52 314.559 251.293 313.957 250.84 313.512C250.387 313.059 249.719 312.832 248.836 312.832C248.062 312.832 247.414 313.027 246.891 313.418C246.367 313.809 246.105 314.281 246.105 314.836H243.926C243.926 314.203 244.148 313.594 244.594 313.008C245.047 312.414 245.656 311.945 246.422 311.602C247.195 311.258 248.043 311.086 248.965 311.086C250.426 311.086 251.57 311.453 252.398 312.188C253.227 312.914 253.656 313.918 253.688 315.199V321.035C253.688 322.199 253.836 323.125 254.133 323.812V324H251.859ZM248.262 322.348C248.941 322.348 249.586 322.172 250.195 321.82C250.805 321.469 251.246 321.012 251.52 320.449V317.848H249.82C247.164 317.848 245.836 318.625 245.836 320.18C245.836 320.859 246.062 321.391 246.516 321.773C246.969 322.156 247.551 322.348 248.262 322.348ZM259.137 311.32L259.207 312.914C260.176 311.695 261.441 311.086 263.004 311.086C265.684 311.086 267.035 312.598 267.059 315.621V324H264.891V315.609C264.883 314.695 264.672 314.02 264.258 313.582C263.852 313.145 263.215 312.926 262.348 312.926C261.645 312.926 261.027 313.113 260.496 313.488C259.965 313.863 259.551 314.355 259.254 314.965V324H257.086V311.32H259.137Z" fill="black"/>
<path d="M41.4854 382V369.203H45.6689C47.0576 369.203 48.1006 369.49 48.7979 370.064C49.501 370.639 49.8525 371.488 49.8525 372.613C49.8525 373.211 49.6826 373.741 49.3428 374.204C49.0029 374.661 48.54 375.016 47.9541 375.268C48.6455 375.461 49.1904 375.83 49.5889 376.375C49.9932 376.914 50.1953 377.559 50.1953 378.309C50.1953 379.457 49.8232 380.359 49.0791 381.016C48.335 381.672 47.2832 382 45.9238 382H41.4854ZM43.1729 376.015V380.62H45.959C46.7441 380.62 47.3623 380.418 47.8135 380.014C48.2705 379.604 48.499 379.041 48.499 378.326C48.499 376.785 47.6611 376.015 45.9854 376.015H43.1729ZM43.1729 374.661H45.7217C46.46 374.661 47.0488 374.477 47.4883 374.107C47.9336 373.738 48.1562 373.237 48.1562 372.604C48.1562 371.901 47.9512 371.392 47.541 371.075C47.1309 370.753 46.5068 370.592 45.6689 370.592H43.1729V374.661ZM52.0146 377.157C52.0146 376.226 52.1963 375.388 52.5596 374.644C52.9287 373.899 53.4385 373.325 54.0889 372.921C54.7451 372.517 55.4922 372.314 56.3301 372.314C57.625 372.314 58.6709 372.763 59.4678 373.659C60.2705 374.556 60.6719 375.748 60.6719 377.236V377.351C60.6719 378.276 60.4932 379.108 60.1357 379.847C59.7842 380.579 59.2773 381.15 58.6152 381.561C57.959 381.971 57.2031 382.176 56.3477 382.176C55.0586 382.176 54.0127 381.728 53.21 380.831C52.4131 379.935 52.0146 378.748 52.0146 377.271V377.157ZM53.6494 377.351C53.6494 378.405 53.8926 379.252 54.3789 379.891C54.8711 380.529 55.5273 380.849 56.3477 380.849C57.1738 380.849 57.8301 380.526 58.3164 379.882C58.8027 379.231 59.0459 378.323 59.0459 377.157C59.0459 376.114 58.7969 375.271 58.2988 374.626C57.8066 373.976 57.1504 373.65 56.3301 373.65C55.5273 373.65 54.8799 373.97 54.3877 374.608C53.8955 375.247 53.6494 376.161 53.6494 377.351ZM62.2803 377.157C62.2803 376.226 62.4619 375.388 62.8252 374.644C63.1943 373.899 63.7041 373.325 64.3545 372.921C65.0107 372.517 65.7578 372.314 66.5957 372.314C67.8906 372.314 68.9365 372.763 69.7334 373.659C70.5361 374.556 70.9375 375.748 70.9375 377.236V377.351C70.9375 378.276 70.7588 379.108 70.4014 379.847C70.0498 380.579 69.543 381.15 68.8809 381.561C68.2246 381.971 67.4688 382.176 66.6133 382.176C65.3242 382.176 64.2783 381.728 63.4756 380.831C62.6787 379.935 62.2803 378.748 62.2803 377.271V377.157ZM63.915 377.351C63.915 378.405 64.1582 379.252 64.6445 379.891C65.1367 380.529 65.793 380.849 66.6133 380.849C67.4395 380.849 68.0957 380.526 68.582 379.882C69.0684 379.231 69.3115 378.323 69.3115 377.157C69.3115 376.114 69.0625 375.271 68.5645 374.626C68.0723 373.976 67.416 373.65 66.5957 373.65C65.793 373.65 65.1455 373.97 64.6533 374.608C64.1611 375.247 63.915 376.161 63.915 377.351ZM75.6309 377.597L74.6113 378.66V382H72.9854V368.5H74.6113V376.665L75.4814 375.619L78.4434 372.49H80.4209L76.7207 376.463L80.8516 382H78.9443L75.6309 377.597ZM83.8662 382H82.2402V372.49H83.8662V382ZM82.1084 369.968C82.1084 369.704 82.1875 369.481 82.3457 369.3C82.5098 369.118 82.75 369.027 83.0664 369.027C83.3828 369.027 83.623 369.118 83.7871 369.3C83.9512 369.481 84.0332 369.704 84.0332 369.968C84.0332 370.231 83.9512 370.451 83.7871 370.627C83.623 370.803 83.3828 370.891 83.0664 370.891C82.75 370.891 82.5098 370.803 82.3457 370.627C82.1875 370.451 82.1084 370.231 82.1084 369.968ZM88.0146 372.49L88.0674 373.686C88.7939 372.771 89.7432 372.314 90.915 372.314C92.9248 372.314 93.9385 373.448 93.9561 375.716V382H92.3301V375.707C92.3242 375.021 92.166 374.515 91.8555 374.187C91.5508 373.858 91.0732 373.694 90.4229 373.694C89.8955 373.694 89.4326 373.835 89.0342 374.116C88.6357 374.397 88.3252 374.767 88.1025 375.224V382H86.4766V372.49H88.0146ZM96.0215 377.166C96.0215 375.684 96.3643 374.506 97.0498 373.633C97.7354 372.754 98.6436 372.314 99.7744 372.314C100.935 372.314 101.84 372.725 102.49 373.545L102.569 372.49H104.055V381.771C104.055 383.002 103.688 383.972 102.956 384.681C102.229 385.39 101.251 385.744 100.021 385.744C99.335 385.744 98.6641 385.598 98.0078 385.305C97.3516 385.012 96.8506 384.61 96.5049 384.101L97.3486 383.125C98.0459 383.986 98.8984 384.417 99.9062 384.417C100.697 384.417 101.312 384.194 101.752 383.749C102.197 383.304 102.42 382.677 102.42 381.868V381.051C101.77 381.801 100.882 382.176 99.7568 382.176C98.6436 382.176 97.7412 381.728 97.0498 380.831C96.3643 379.935 96.0215 378.713 96.0215 377.166ZM97.6562 377.351C97.6562 378.423 97.876 379.267 98.3154 379.882C98.7549 380.491 99.3701 380.796 100.161 380.796C101.187 380.796 101.939 380.33 102.42 379.398V375.057C101.922 374.148 101.175 373.694 100.179 373.694C99.3877 373.694 98.7695 374.002 98.3242 374.617C97.8789 375.232 97.6562 376.144 97.6562 377.351ZM121.07 382H119.374L112.932 372.139V382H111.235V369.203H112.932L119.392 379.108V369.203H121.07V382ZM123.382 377.157C123.382 376.226 123.563 375.388 123.927 374.644C124.296 373.899 124.806 373.325 125.456 372.921C126.112 372.517 126.859 372.314 127.697 372.314C128.992 372.314 130.038 372.763 130.835 373.659C131.638 374.556 132.039 375.748 132.039 377.236V377.351C132.039 378.276 131.86 379.108 131.503 379.847C131.151 380.579 130.645 381.15 129.982 381.561C129.326 381.971 128.57 382.176 127.715 382.176C126.426 382.176 125.38 381.728 124.577 380.831C123.78 379.935 123.382 378.748 123.382 377.271V377.157ZM125.017 377.351C125.017 378.405 125.26 379.252 125.746 379.891C126.238 380.529 126.895 380.849 127.715 380.849C128.541 380.849 129.197 380.526 129.684 379.882C130.17 379.231 130.413 378.323 130.413 377.157C130.413 376.114 130.164 375.271 129.666 374.626C129.174 373.976 128.518 373.65 127.697 373.65C126.895 373.65 126.247 373.97 125.755 374.608C125.263 375.247 125.017 376.161 125.017 377.351ZM134.113 381.147C134.113 380.866 134.195 380.632 134.359 380.444C134.529 380.257 134.781 380.163 135.115 380.163C135.449 380.163 135.701 380.257 135.871 380.444C136.047 380.632 136.135 380.866 136.135 381.147C136.135 381.417 136.047 381.643 135.871 381.824C135.701 382.006 135.449 382.097 135.115 382.097C134.781 382.097 134.529 382.006 134.359 381.824C134.195 381.643 134.113 381.417 134.113 381.147Z" fill="black"/>
<path d="M51.7188 590.773H47.2852V603H44.834V590.773H40.4395V588.781H51.7188V590.773ZM64.668 596.262C64.668 597.655 64.4271 598.879 63.9453 599.934C63.4635 600.982 62.7734 601.789 61.875 602.355C60.9831 602.915 59.9544 603.195 58.7891 603.195C57.6367 603.195 56.6081 602.915 55.7031 602.355C54.8047 601.789 54.1081 600.985 53.6133 599.943C53.125 598.902 52.8776 597.701 52.8711 596.34V595.539C52.8711 594.152 53.1152 592.928 53.6035 591.867C54.0983 590.806 54.7917 589.995 55.6836 589.436C56.582 588.869 57.6107 588.586 58.7695 588.586C59.9284 588.586 60.9538 588.866 61.8457 589.426C62.7441 589.979 63.4375 590.78 63.9258 591.828C64.4141 592.87 64.6615 594.084 64.668 595.471V596.262ZM62.1973 595.52C62.1973 593.944 61.8978 592.736 61.2988 591.896C60.7064 591.057 59.8633 590.637 58.7695 590.637C57.7018 590.637 56.8652 591.057 56.2598 591.896C55.6608 592.73 55.3548 593.911 55.3418 595.441V596.262C55.3418 597.824 55.6445 599.032 56.25 599.885C56.862 600.738 57.7083 601.164 58.7891 601.164C59.8828 601.164 60.7227 600.747 61.3086 599.914C61.901 599.081 62.1973 597.863 62.1973 596.262V595.52ZM76.5625 590.773H72.1289V603H69.6777V590.773H65.2832V588.781H76.5625V590.773ZM85.2246 599.689H79.7168L78.5645 603H75.9961L81.3672 588.781H83.584L88.9648 603H86.3867L85.2246 599.689ZM80.4102 597.697H84.5312L82.4707 591.799L80.4102 597.697ZM93.0566 601.027H99.5117V603H90.5859V588.781H93.0566V601.027Z" fill="black"/>
<path d="M43.1729 414.99V420H41.4854V407.203H46.2051C47.6055 407.203 48.7012 407.561 49.4922 408.275C50.2891 408.99 50.6875 409.937 50.6875 411.114C50.6875 412.356 50.2979 413.314 49.5186 413.988C48.7451 414.656 47.6348 414.99 46.1875 414.99H43.1729ZM43.1729 413.61H46.2051C47.1074 413.61 47.7988 413.399 48.2793 412.978C48.7598 412.55 49 411.935 49 411.132C49 410.37 48.7598 409.761 48.2793 409.304C47.7988 408.847 47.1396 408.609 46.3018 408.592H43.1729V413.61ZM56.4092 420.176C55.1201 420.176 54.0713 419.754 53.2627 418.91C52.4541 418.061 52.0498 416.927 52.0498 415.509V415.21C52.0498 414.267 52.2285 413.426 52.5859 412.688C52.9492 411.943 53.4531 411.363 54.0977 410.947C54.748 410.525 55.4512 410.314 56.207 410.314C57.4434 410.314 58.4043 410.722 59.0898 411.536C59.7754 412.351 60.1182 413.517 60.1182 415.034V415.711H53.6758C53.6992 416.648 53.9717 417.407 54.4932 417.987C55.0205 418.562 55.6885 418.849 56.4971 418.849C57.0713 418.849 57.5576 418.731 57.9561 418.497C58.3545 418.263 58.7031 417.952 59.002 417.565L59.9951 418.339C59.1982 419.563 58.0029 420.176 56.4092 420.176ZM56.207 411.65C55.5508 411.65 55 411.891 54.5547 412.371C54.1094 412.846 53.834 413.514 53.7285 414.375H58.4922V414.252C58.4453 413.426 58.2227 412.787 57.8242 412.336C57.4258 411.879 56.8867 411.65 56.207 411.65ZM67.5449 417.478C67.5449 417.038 67.3779 416.698 67.0439 416.458C66.7158 416.212 66.1387 416.001 65.3125 415.825C64.4922 415.649 63.8389 415.438 63.3525 415.192C62.8721 414.946 62.5146 414.653 62.2803 414.313C62.0518 413.974 61.9375 413.569 61.9375 413.101C61.9375 412.321 62.2656 411.662 62.9219 411.123C63.584 410.584 64.4277 410.314 65.4531 410.314C66.5312 410.314 67.4043 410.593 68.0723 411.149C68.7461 411.706 69.083 412.418 69.083 413.285H67.4482C67.4482 412.84 67.2578 412.456 66.877 412.134C66.502 411.812 66.0273 411.65 65.4531 411.65C64.8613 411.65 64.3984 411.779 64.0645 412.037C63.7305 412.295 63.5635 412.632 63.5635 413.048C63.5635 413.44 63.7188 413.736 64.0293 413.936C64.3398 414.135 64.8994 414.325 65.708 414.507C66.5225 414.688 67.1816 414.905 67.6855 415.157C68.1895 415.409 68.5615 415.714 68.8018 416.071C69.0479 416.423 69.1709 416.854 69.1709 417.363C69.1709 418.213 68.8311 418.896 68.1514 419.411C67.4717 419.921 66.5898 420.176 65.5059 420.176C64.7441 420.176 64.0703 420.041 63.4844 419.771C62.8984 419.502 62.4385 419.127 62.1045 418.646C61.7764 418.16 61.6123 417.636 61.6123 417.073H63.2383C63.2676 417.618 63.4844 418.052 63.8887 418.374C64.2988 418.69 64.8379 418.849 65.5059 418.849C66.1211 418.849 66.6133 418.726 66.9824 418.479C67.3574 418.228 67.5449 417.894 67.5449 417.478ZM77.1602 420C77.0664 419.812 76.9902 419.479 76.9316 418.998C76.1758 419.783 75.2734 420.176 74.2246 420.176C73.2871 420.176 72.5166 419.912 71.9131 419.385C71.3154 418.852 71.0166 418.178 71.0166 417.363C71.0166 416.373 71.3916 415.605 72.1416 415.061C72.8975 414.51 73.958 414.234 75.3232 414.234H76.9053V413.487C76.9053 412.919 76.7354 412.468 76.3955 412.134C76.0557 411.794 75.5547 411.624 74.8926 411.624C74.3125 411.624 73.8262 411.771 73.4336 412.063C73.041 412.356 72.8447 412.711 72.8447 413.127H71.21C71.21 412.652 71.377 412.195 71.7109 411.756C72.0508 411.311 72.5078 410.959 73.082 410.701C73.6621 410.443 74.2979 410.314 74.9893 410.314C76.085 410.314 76.9434 410.59 77.5645 411.141C78.1855 411.686 78.5078 412.438 78.5312 413.399V417.776C78.5312 418.649 78.6426 419.344 78.8652 419.859V420H77.1602ZM74.4619 418.761C74.9717 418.761 75.4551 418.629 75.9121 418.365C76.3691 418.102 76.7002 417.759 76.9053 417.337V415.386H75.6309C73.6387 415.386 72.6426 415.969 72.6426 417.135C72.6426 417.645 72.8125 418.043 73.1523 418.33C73.4922 418.617 73.9287 418.761 74.4619 418.761ZM82.6182 410.49L82.6709 411.686C83.3975 410.771 84.3467 410.314 85.5186 410.314C87.5283 410.314 88.542 411.448 88.5596 413.716V420H86.9336V413.707C86.9277 413.021 86.7695 412.515 86.459 412.187C86.1543 411.858 85.6768 411.694 85.0264 411.694C84.499 411.694 84.0361 411.835 83.6377 412.116C83.2393 412.397 82.9287 412.767 82.7061 413.224V420H81.0801V410.49H82.6182ZM96.8828 420C96.7891 419.812 96.7129 419.479 96.6543 418.998C95.8984 419.783 94.9961 420.176 93.9473 420.176C93.0098 420.176 92.2393 419.912 91.6357 419.385C91.0381 418.852 90.7393 418.178 90.7393 417.363C90.7393 416.373 91.1143 415.605 91.8643 415.061C92.6201 414.51 93.6807 414.234 95.0459 414.234H96.6279V413.487C96.6279 412.919 96.458 412.468 96.1182 412.134C95.7783 411.794 95.2773 411.624 94.6152 411.624C94.0352 411.624 93.5488 411.771 93.1562 412.063C92.7637 412.356 92.5674 412.711 92.5674 413.127H90.9326C90.9326 412.652 91.0996 412.195 91.4336 411.756C91.7734 411.311 92.2305 410.959 92.8047 410.701C93.3848 410.443 94.0205 410.314 94.7119 410.314C95.8076 410.314 96.666 410.59 97.2871 411.141C97.9082 411.686 98.2305 412.438 98.2539 413.399V417.776C98.2539 418.649 98.3652 419.344 98.5879 419.859V420H96.8828ZM94.1846 418.761C94.6943 418.761 95.1777 418.629 95.6348 418.365C96.0918 418.102 96.4229 417.759 96.6279 417.337V415.386H95.3535C93.3613 415.386 92.3652 415.969 92.3652 417.135C92.3652 417.645 92.5352 418.043 92.875 418.33C93.2148 418.617 93.6514 418.761 94.1846 418.761ZM102.341 410.49L102.394 411.686C103.12 410.771 104.069 410.314 105.241 410.314C107.251 410.314 108.265 411.448 108.282 413.716V420H106.656V413.707C106.65 413.021 106.492 412.515 106.182 412.187C105.877 411.858 105.399 411.694 104.749 411.694C104.222 411.694 103.759 411.835 103.36 412.116C102.962 412.397 102.651 412.767 102.429 413.224V420H100.803V410.49H102.341Z" fill="black"/>
<path d="M41.4854 554V541.203H45.6689C47.0576 541.203 48.1006 541.49 48.7979 542.064C49.501 542.639 49.8525 543.488 49.8525 544.613C49.8525 545.211 49.6826 545.741 49.3428 546.204C49.0029 546.661 48.54 547.016 47.9541 547.268C48.6455 547.461 49.1904 547.83 49.5889 548.375C49.9932 548.914 50.1953 549.559 50.1953 550.309C50.1953 551.457 49.8232 552.359 49.0791 553.016C48.335 553.672 47.2832 554 45.9238 554H41.4854ZM43.1729 548.015V552.62H45.959C46.7441 552.62 47.3623 552.418 47.8135 552.014C48.2705 551.604 48.499 551.041 48.499 550.326C48.499 548.785 47.6611 548.015 45.9854 548.015H43.1729ZM43.1729 546.661H45.7217C46.46 546.661 47.0488 546.477 47.4883 546.107C47.9336 545.738 48.1562 545.237 48.1562 544.604C48.1562 543.901 47.9512 543.392 47.541 543.075C47.1309 542.753 46.5068 542.592 45.6689 542.592H43.1729V546.661ZM54.2119 554H52.5859V544.49H54.2119V554ZM52.4541 541.968C52.4541 541.704 52.5332 541.481 52.6914 541.3C52.8555 541.118 53.0957 541.027 53.4121 541.027C53.7285 541.027 53.9688 541.118 54.1328 541.3C54.2969 541.481 54.3789 541.704 54.3789 541.968C54.3789 542.231 54.2969 542.451 54.1328 542.627C53.9688 542.803 53.7285 542.891 53.4121 542.891C53.0957 542.891 52.8555 542.803 52.6914 542.627C52.5332 542.451 52.4541 542.231 52.4541 541.968ZM62.6934 554C62.5996 553.812 62.5234 553.479 62.4648 552.998C61.709 553.783 60.8066 554.176 59.7578 554.176C58.8203 554.176 58.0498 553.912 57.4463 553.385C56.8486 552.852 56.5498 552.178 56.5498 551.363C56.5498 550.373 56.9248 549.605 57.6748 549.061C58.4307 548.51 59.4912 548.234 60.8564 548.234H62.4385V547.487C62.4385 546.919 62.2686 546.468 61.9287 546.134C61.5889 545.794 61.0879 545.624 60.4258 545.624C59.8457 545.624 59.3594 545.771 58.9668 546.063C58.5742 546.356 58.3779 546.711 58.3779 547.127H56.7432C56.7432 546.652 56.9102 546.195 57.2441 545.756C57.584 545.311 58.041 544.959 58.6152 544.701C59.1953 544.443 59.8311 544.314 60.5225 544.314C61.6182 544.314 62.4766 544.59 63.0977 545.141C63.7188 545.686 64.041 546.438 64.0645 547.399V551.776C64.0645 552.649 64.1758 553.344 64.3984 553.859V554H62.6934ZM59.9951 552.761C60.5049 552.761 60.9883 552.629 61.4453 552.365C61.9023 552.102 62.2334 551.759 62.4385 551.337V549.386H61.1641C59.1719 549.386 58.1758 549.969 58.1758 551.135C58.1758 551.645 58.3457 552.043 58.6855 552.33C59.0254 552.617 59.4619 552.761 59.9951 552.761ZM69.584 551.618L71.7988 544.49H73.5391L69.7158 555.468C69.124 557.05 68.1836 557.841 66.8945 557.841L66.5869 557.814L65.9805 557.7V556.382L66.4199 556.417C66.9707 556.417 67.3984 556.306 67.7031 556.083C68.0137 555.86 68.2686 555.453 68.4678 554.861L68.8281 553.895L65.4355 544.49H67.2109L69.584 551.618ZM80.7285 554C80.6348 553.812 80.5586 553.479 80.5 552.998C79.7441 553.783 78.8418 554.176 77.793 554.176C76.8555 554.176 76.085 553.912 75.4814 553.385C74.8838 552.852 74.585 552.178 74.585 551.363C74.585 550.373 74.96 549.605 75.71 549.061C76.4658 548.51 77.5264 548.234 78.8916 548.234H80.4736V547.487C80.4736 546.919 80.3037 546.468 79.9639 546.134C79.624 545.794 79.123 545.624 78.4609 545.624C77.8809 545.624 77.3945 545.771 77.002 546.063C76.6094 546.356 76.4131 546.711 76.4131 547.127H74.7783C74.7783 546.652 74.9453 546.195 75.2793 545.756C75.6191 545.311 76.0762 544.959 76.6504 544.701C77.2305 544.443 77.8662 544.314 78.5576 544.314C79.6533 544.314 80.5117 544.59 81.1328 545.141C81.7539 545.686 82.0762 546.438 82.0996 547.399V551.776C82.0996 552.649 82.2109 553.344 82.4336 553.859V554H80.7285ZM78.0303 552.761C78.54 552.761 79.0234 552.629 79.4805 552.365C79.9375 552.102 80.2686 551.759 80.4736 551.337V549.386H79.1992C77.207 549.386 76.2109 549.969 76.2109 551.135C76.2109 551.645 76.3809 552.043 76.7207 552.33C77.0605 552.617 77.4971 552.761 78.0303 552.761ZM94.0615 548.823H91.0557V554H89.3594V541.203H93.5957C95.0371 541.203 96.1445 541.531 96.918 542.188C97.6973 542.844 98.0869 543.799 98.0869 545.053C98.0869 545.85 97.8701 546.544 97.4365 547.136C97.0088 547.728 96.4111 548.17 95.6436 548.463L98.6494 553.895V554H96.8389L94.0615 548.823ZM91.0557 547.443H93.6484C94.4863 547.443 95.1514 547.227 95.6436 546.793C96.1416 546.359 96.3906 545.779 96.3906 545.053C96.3906 544.262 96.1533 543.655 95.6787 543.233C95.21 542.812 94.5303 542.598 93.6396 542.592H91.0557V547.443ZM104.151 554.176C102.862 554.176 101.813 553.754 101.005 552.91C100.196 552.061 99.792 550.927 99.792 549.509V549.21C99.792 548.267 99.9707 547.426 100.328 546.688C100.691 545.943 101.195 545.363 101.84 544.947C102.49 544.525 103.193 544.314 103.949 544.314C105.186 544.314 106.146 544.722 106.832 545.536C107.518 546.351 107.86 547.517 107.86 549.034V549.711H101.418C101.441 550.648 101.714 551.407 102.235 551.987C102.763 552.562 103.431 552.849 104.239 552.849C104.813 552.849 105.3 552.731 105.698 552.497C106.097 552.263 106.445 551.952 106.744 551.565L107.737 552.339C106.94 553.563 105.745 554.176 104.151 554.176ZM103.949 545.65C103.293 545.65 102.742 545.891 102.297 546.371C101.852 546.846 101.576 547.514 101.471 548.375H106.234V548.252C106.188 547.426 105.965 546.787 105.566 546.336C105.168 545.879 104.629 545.65 103.949 545.65ZM115.287 551.478C115.287 551.038 115.12 550.698 114.786 550.458C114.458 550.212 113.881 550.001 113.055 549.825C112.234 549.649 111.581 549.438 111.095 549.192C110.614 548.946 110.257 548.653 110.022 548.313C109.794 547.974 109.68 547.569 109.68 547.101C109.68 546.321 110.008 545.662 110.664 545.123C111.326 544.584 112.17 544.314 113.195 544.314C114.273 544.314 115.146 544.593 115.814 545.149C116.488 545.706 116.825 546.418 116.825 547.285H115.19C115.19 546.84 115 546.456 114.619 546.134C114.244 545.812 113.77 545.65 113.195 545.65C112.604 545.65 112.141 545.779 111.807 546.037C111.473 546.295 111.306 546.632 111.306 547.048C111.306 547.44 111.461 547.736 111.771 547.936C112.082 548.135 112.642 548.325 113.45 548.507C114.265 548.688 114.924 548.905 115.428 549.157C115.932 549.409 116.304 549.714 116.544 550.071C116.79 550.423 116.913 550.854 116.913 551.363C116.913 552.213 116.573 552.896 115.894 553.411C115.214 553.921 114.332 554.176 113.248 554.176C112.486 554.176 111.812 554.041 111.227 553.771C110.641 553.502 110.181 553.127 109.847 552.646C109.519 552.16 109.354 551.636 109.354 551.073H110.98C111.01 551.618 111.227 552.052 111.631 552.374C112.041 552.69 112.58 552.849 113.248 552.849C113.863 552.849 114.355 552.726 114.725 552.479C115.1 552.228 115.287 551.894 115.287 551.478ZM122.978 554.176C121.688 554.176 120.64 553.754 119.831 552.91C119.022 552.061 118.618 550.927 118.618 549.509V549.21C118.618 548.267 118.797 547.426 119.154 546.688C119.518 545.943 120.021 545.363 120.666 544.947C121.316 544.525 122.02 544.314 122.775 544.314C124.012 544.314 124.973 544.722 125.658 545.536C126.344 546.351 126.687 547.517 126.687 549.034V549.711H120.244C120.268 550.648 120.54 551.407 121.062 551.987C121.589 552.562 122.257 552.849 123.065 552.849C123.64 552.849 124.126 552.731 124.524 552.497C124.923 552.263 125.271 551.952 125.57 551.565L126.563 552.339C125.767 553.563 124.571 554.176 122.978 554.176ZM122.775 545.65C122.119 545.65 121.568 545.891 121.123 546.371C120.678 546.846 120.402 547.514 120.297 548.375H125.061V548.252C125.014 547.426 124.791 546.787 124.393 546.336C123.994 545.879 123.455 545.65 122.775 545.65ZM133.173 545.949C132.927 545.908 132.66 545.888 132.373 545.888C131.307 545.888 130.583 546.342 130.202 547.25V554H128.576V544.49H130.158L130.185 545.589C130.718 544.739 131.474 544.314 132.452 544.314C132.769 544.314 133.009 544.355 133.173 544.438V545.949ZM137.972 551.794L140.327 544.49H141.988L138.578 554H137.339L133.894 544.49H135.555L137.972 551.794ZM149.283 554C149.189 553.812 149.113 553.479 149.055 552.998C148.299 553.783 147.396 554.176 146.348 554.176C145.41 554.176 144.64 553.912 144.036 553.385C143.438 552.852 143.14 552.178 143.14 551.363C143.14 550.373 143.515 549.605 144.265 549.061C145.021 548.51 146.081 548.234 147.446 548.234H149.028V547.487C149.028 546.919 148.858 546.468 148.519 546.134C148.179 545.794 147.678 545.624 147.016 545.624C146.436 545.624 145.949 545.771 145.557 546.063C145.164 546.356 144.968 546.711 144.968 547.127H143.333C143.333 546.652 143.5 546.195 143.834 545.756C144.174 545.311 144.631 544.959 145.205 544.701C145.785 544.443 146.421 544.314 147.112 544.314C148.208 544.314 149.066 544.59 149.688 545.141C150.309 545.686 150.631 546.438 150.654 547.399V551.776C150.654 552.649 150.766 553.344 150.988 553.859V554H149.283ZM146.585 552.761C147.095 552.761 147.578 552.629 148.035 552.365C148.492 552.102 148.823 551.759 149.028 551.337V549.386H147.754C145.762 549.386 144.766 549.969 144.766 551.135C144.766 551.645 144.936 552.043 145.275 552.33C145.615 552.617 146.052 552.761 146.585 552.761ZM158.74 551.478C158.74 551.038 158.573 550.698 158.239 550.458C157.911 550.212 157.334 550.001 156.508 549.825C155.688 549.649 155.034 549.438 154.548 549.192C154.067 548.946 153.71 548.653 153.476 548.313C153.247 547.974 153.133 547.569 153.133 547.101C153.133 546.321 153.461 545.662 154.117 545.123C154.779 544.584 155.623 544.314 156.648 544.314C157.727 544.314 158.6 544.593 159.268 545.149C159.941 545.706 160.278 546.418 160.278 547.285H158.644C158.644 546.84 158.453 546.456 158.072 546.134C157.697 545.812 157.223 545.65 156.648 545.65C156.057 545.65 155.594 545.779 155.26 546.037C154.926 546.295 154.759 546.632 154.759 547.048C154.759 547.44 154.914 547.736 155.225 547.936C155.535 548.135 156.095 548.325 156.903 548.507C157.718 548.688 158.377 548.905 158.881 549.157C159.385 549.409 159.757 549.714 159.997 550.071C160.243 550.423 160.366 550.854 160.366 551.363C160.366 552.213 160.026 552.896 159.347 553.411C158.667 553.921 157.785 554.176 156.701 554.176C155.939 554.176 155.266 554.041 154.68 553.771C154.094 553.502 153.634 553.127 153.3 552.646C152.972 552.16 152.808 551.636 152.808 551.073H154.434C154.463 551.618 154.68 552.052 155.084 552.374C155.494 552.69 156.033 552.849 156.701 552.849C157.316 552.849 157.809 552.726 158.178 552.479C158.553 552.228 158.74 551.894 158.74 551.478ZM164.251 554H162.625V544.49H164.251V554ZM162.493 541.968C162.493 541.704 162.572 541.481 162.73 541.3C162.895 541.118 163.135 541.027 163.451 541.027C163.768 541.027 164.008 541.118 164.172 541.3C164.336 541.481 164.418 541.704 164.418 541.968C164.418 542.231 164.336 542.451 164.172 542.627C164.008 542.803 163.768 542.891 163.451 542.891C163.135 542.891 162.895 542.803 162.73 542.627C162.572 542.451 162.493 542.231 162.493 541.968Z" fill="black"/>
<path d="M39.5 428.5H332.5V522.5H39.5V428.5Z" fill="white" stroke="black"/>
<rect x="315.5" y="21.5" width="41" height="41" fill="white" stroke="black"/>
<line x1="315.349" y1="20.6422" x2="357.349" y2="61.6422" stroke="black"/>
<line x1="357.349" y1="21.3578" x2="315.349" y2="62.3578" stroke="black"/>
<line x1="82.5" y1="428" x2="82.5" y2="523" stroke="black"/>
<line x1="250.5" y1="428" x2="250.5" y2="523" stroke="black"/>
<line x1="40" y1="457.5" x2="334" y2="457.5" stroke="black"/>
<line x1="40" y1="490.5" x2="334" y2="490.5" stroke="black"/>
<line x1="145" y1="385" x2="334" y2="385" stroke="black" stroke-width="2"/>
<line x1="177" y1="553" x2="334" y2="553" stroke="black" stroke-width="2"/>
<path d="M191.179 538.823H188.173V544H186.477V531.203H190.713C192.154 531.203 193.262 531.531 194.035 532.188C194.814 532.844 195.204 533.799 195.204 535.053C195.204 535.85 194.987 536.544 194.554 537.136C194.126 537.728 193.528 538.17 192.761 538.463L195.767 543.895V544H193.956L191.179 538.823ZM188.173 537.443H190.766C191.604 537.443 192.269 537.227 192.761 536.793C193.259 536.359 193.508 535.779 193.508 535.053C193.508 534.262 193.271 533.655 192.796 533.233C192.327 532.812 191.647 532.598 190.757 532.592H188.173V537.443ZM205.355 539.351C205.355 540.798 205.024 541.964 204.362 542.849C203.7 543.733 202.804 544.176 201.673 544.176C200.519 544.176 199.61 543.81 198.948 543.077V547.656H197.322V534.49H198.808L198.887 535.545C199.549 534.725 200.469 534.314 201.646 534.314C202.789 534.314 203.691 534.745 204.354 535.606C205.021 536.468 205.355 537.666 205.355 539.201V539.351ZM203.729 539.166C203.729 538.094 203.501 537.247 203.044 536.626C202.587 536.005 201.96 535.694 201.163 535.694C200.179 535.694 199.44 536.131 198.948 537.004V541.548C199.435 542.415 200.179 542.849 201.181 542.849C201.96 542.849 202.578 542.541 203.035 541.926C203.498 541.305 203.729 540.385 203.729 539.166ZM207.465 543.147C207.465 542.866 207.547 542.632 207.711 542.444C207.881 542.257 208.133 542.163 208.467 542.163C208.801 542.163 209.053 542.257 209.223 542.444C209.398 542.632 209.486 542.866 209.486 543.147C209.486 543.417 209.398 543.643 209.223 543.824C209.053 544.006 208.801 544.097 208.467 544.097C208.133 544.097 207.881 544.006 207.711 543.824C207.547 543.643 207.465 543.417 207.465 543.147Z" fill="black"/>
<path d="M262.179 448.823H259.173V454H257.477V441.203H261.713C263.154 441.203 264.262 441.531 265.035 442.188C265.814 442.844 266.204 443.799 266.204 445.053C266.204 445.85 265.987 446.544 265.554 447.136C265.126 447.728 264.528 448.17 263.761 448.463L266.767 453.895V454H264.956L262.179 448.823ZM259.173 447.443H261.766C262.604 447.443 263.269 447.227 263.761 446.793C264.259 446.359 264.508 445.779 264.508 445.053C264.508 444.262 264.271 443.655 263.796 443.233C263.327 442.812 262.647 442.598 261.757 442.592H259.173V447.443ZM276.355 449.351C276.355 450.798 276.024 451.964 275.362 452.849C274.7 453.733 273.804 454.176 272.673 454.176C271.519 454.176 270.61 453.81 269.948 453.077V457.656H268.322V444.49H269.808L269.887 445.545C270.549 444.725 271.469 444.314 272.646 444.314C273.789 444.314 274.691 444.745 275.354 445.606C276.021 446.468 276.355 447.666 276.355 449.201V449.351ZM274.729 449.166C274.729 448.094 274.501 447.247 274.044 446.626C273.587 446.005 272.96 445.694 272.163 445.694C271.179 445.694 270.44 446.131 269.948 447.004V451.548C270.435 452.415 271.179 452.849 272.181 452.849C272.96 452.849 273.578 452.541 274.035 451.926C274.498 451.305 274.729 450.385 274.729 449.166ZM278.465 453.147C278.465 452.866 278.547 452.632 278.711 452.444C278.881 452.257 279.133 452.163 279.467 452.163C279.801 452.163 280.053 452.257 280.223 452.444C280.398 452.632 280.486 452.866 280.486 453.147C280.486 453.417 280.398 453.643 280.223 453.824C280.053 454.006 279.801 454.097 279.467 454.097C279.133 454.097 278.881 454.006 278.711 453.824C278.547 453.643 278.465 453.417 278.465 453.147Z" fill="black"/>
<path d="M262.179 477.823H259.173V483H257.477V470.203H261.713C263.154 470.203 264.262 470.531 265.035 471.188C265.814 471.844 266.204 472.799 266.204 474.053C266.204 474.85 265.987 475.544 265.554 476.136C265.126 476.728 264.528 477.17 263.761 477.463L266.767 482.895V483H264.956L262.179 477.823ZM259.173 476.443H261.766C262.604 476.443 263.269 476.227 263.761 475.793C264.259 475.359 264.508 474.779 264.508 474.053C264.508 473.262 264.271 472.655 263.796 472.233C263.327 471.812 262.647 471.598 261.757 471.592H259.173V476.443ZM276.355 478.351C276.355 479.798 276.024 480.964 275.362 481.849C274.7 482.733 273.804 483.176 272.673 483.176C271.519 483.176 270.61 482.81 269.948 482.077V486.656H268.322V473.49H269.808L269.887 474.545C270.549 473.725 271.469 473.314 272.646 473.314C273.789 473.314 274.691 473.745 275.354 474.606C276.021 475.468 276.355 476.666 276.355 478.201V478.351ZM274.729 478.166C274.729 477.094 274.501 476.247 274.044 475.626C273.587 475.005 272.96 474.694 272.163 474.694C271.179 474.694 270.44 475.131 269.948 476.004V480.548C270.435 481.415 271.179 481.849 272.181 481.849C272.96 481.849 273.578 481.541 274.035 480.926C274.498 480.305 274.729 479.385 274.729 478.166ZM278.465 482.147C278.465 481.866 278.547 481.632 278.711 481.444C278.881 481.257 279.133 481.163 279.467 481.163C279.801 481.163 280.053 481.257 280.223 481.444C280.398 481.632 280.486 481.866 280.486 482.147C280.486 482.417 280.398 482.643 280.223 482.824C280.053 483.006 279.801 483.097 279.467 483.097C279.133 483.097 278.881 483.006 278.711 482.824C278.547 482.643 278.465 482.417 278.465 482.147Z" fill="black"/>
<path d="M262.179 513.823H259.173V519H257.477V506.203H261.713C263.154 506.203 264.262 506.531 265.035 507.188C265.814 507.844 266.204 508.799 266.204 510.053C266.204 510.85 265.987 511.544 265.554 512.136C265.126 512.728 264.528 513.17 263.761 513.463L266.767 518.895V519H264.956L262.179 513.823ZM259.173 512.443H261.766C262.604 512.443 263.269 512.227 263.761 511.793C264.259 511.359 264.508 510.779 264.508 510.053C264.508 509.262 264.271 508.655 263.796 508.233C263.327 507.812 262.647 507.598 261.757 507.592H259.173V512.443ZM276.355 514.351C276.355 515.798 276.024 516.964 275.362 517.849C274.7 518.733 273.804 519.176 272.673 519.176C271.519 519.176 270.61 518.81 269.948 518.077V522.656H268.322V509.49H269.808L269.887 510.545C270.549 509.725 271.469 509.314 272.646 509.314C273.789 509.314 274.691 509.745 275.354 510.606C276.021 511.468 276.355 512.666 276.355 514.201V514.351ZM274.729 514.166C274.729 513.094 274.501 512.247 274.044 511.626C273.587 511.005 272.96 510.694 272.163 510.694C271.179 510.694 270.44 511.131 269.948 512.004V516.548C270.435 517.415 271.179 517.849 272.181 517.849C272.96 517.849 273.578 517.541 274.035 516.926C274.498 516.305 274.729 515.385 274.729 514.166ZM278.465 518.147C278.465 517.866 278.547 517.632 278.711 517.444C278.881 517.257 279.133 517.163 279.467 517.163C279.801 517.163 280.053 517.257 280.223 517.444C280.398 517.632 280.486 517.866 280.486 518.147C280.486 518.417 280.398 518.643 280.223 518.824C280.053 519.006 279.801 519.097 279.467 519.097C279.133 519.097 278.881 519.006 278.711 518.824C278.547 518.643 278.465 518.417 278.465 518.147Z" fill="black"/>
<rect x="126.5" y="575.5" width="207" height="41" fill="white" stroke="black"/>
<path d="M148.179 596.823H145.173V602H143.477V589.203H147.713C149.154 589.203 150.262 589.531 151.035 590.188C151.814 590.844 152.204 591.799 152.204 593.053C152.204 593.85 151.987 594.544 151.554 595.136C151.126 595.728 150.528 596.17 149.761 596.463L152.767 601.895V602H150.956L148.179 596.823ZM145.173 595.443H147.766C148.604 595.443 149.269 595.227 149.761 594.793C150.259 594.359 150.508 593.779 150.508 593.053C150.508 592.262 150.271 591.655 149.796 591.233C149.327 590.812 148.647 590.598 147.757 590.592H145.173V595.443ZM162.355 597.351C162.355 598.798 162.024 599.964 161.362 600.849C160.7 601.733 159.804 602.176 158.673 602.176C157.519 602.176 156.61 601.81 155.948 601.077V605.656H154.322V592.49H155.808L155.887 593.545C156.549 592.725 157.469 592.314 158.646 592.314C159.789 592.314 160.691 592.745 161.354 593.606C162.021 594.468 162.355 595.666 162.355 597.201V597.351ZM160.729 597.166C160.729 596.094 160.501 595.247 160.044 594.626C159.587 594.005 158.96 593.694 158.163 593.694C157.179 593.694 156.44 594.131 155.948 595.004V599.548C156.435 600.415 157.179 600.849 158.181 600.849C158.96 600.849 159.578 600.541 160.035 599.926C160.498 599.305 160.729 598.385 160.729 597.166ZM164.465 601.147C164.465 600.866 164.547 600.632 164.711 600.444C164.881 600.257 165.133 600.163 165.467 600.163C165.801 600.163 166.053 600.257 166.223 600.444C166.398 600.632 166.486 600.866 166.486 601.147C166.486 601.417 166.398 601.643 166.223 601.824C166.053 602.006 165.801 602.097 165.467 602.097C165.133 602.097 164.881 602.006 164.711 601.824C164.547 601.643 164.465 601.417 164.465 601.147Z" fill="black"/>
<rect x="31" y="639" width="311" height="41" fill="#8E8A8A"/>
<rect x="30" y="701" width="312" height="42" fill="#8E8A8A"/>
<path d="M70.7305 666V648.938H76.3086C78.1602 648.938 79.5508 649.32 80.4805 650.086C81.418 650.852 81.8867 651.984 81.8867 653.484C81.8867 654.281 81.6602 654.988 81.207 655.605C80.7539 656.215 80.1367 656.688 79.3555 657.023C80.2773 657.281 81.0039 657.773 81.5352 658.5C82.0742 659.219 82.3438 660.078 82.3438 661.078C82.3438 662.609 81.8477 663.812 80.8555 664.688C79.8633 665.562 78.4609 666 76.6484 666H70.7305ZM72.9805 658.02V664.16H76.6953C77.7422 664.16 78.5664 663.891 79.168 663.352C79.7773 662.805 80.082 662.055 80.082 661.102C80.082 659.047 78.9648 658.02 76.7305 658.02H72.9805ZM72.9805 656.215H76.3789C77.3633 656.215 78.1484 655.969 78.7344 655.477C79.3281 654.984 79.625 654.316 79.625 653.473C79.625 652.535 79.3516 651.855 78.8047 651.434C78.2578 651.004 77.4258 650.789 76.3086 650.789H72.9805V656.215ZM93.1719 666C93.0469 665.75 92.9453 665.305 92.8672 664.664C91.8594 665.711 90.6562 666.234 89.2578 666.234C88.0078 666.234 86.9805 665.883 86.1758 665.18C85.3789 664.469 84.9805 663.57 84.9805 662.484C84.9805 661.164 85.4805 660.141 86.4805 659.414C87.4883 658.68 88.9023 658.312 90.7227 658.312H92.832V657.316C92.832 656.559 92.6055 655.957 92.1523 655.512C91.6992 655.059 91.0312 654.832 90.1484 654.832C89.375 654.832 88.7266 655.027 88.2031 655.418C87.6797 655.809 87.418 656.281 87.418 656.836H85.2383C85.2383 656.203 85.4609 655.594 85.9062 655.008C86.3594 654.414 86.9688 653.945 87.7344 653.602C88.5078 653.258 89.3555 653.086 90.2773 653.086C91.7383 653.086 92.8828 653.453 93.7109 654.188C94.5391 654.914 94.9688 655.918 95 657.199V663.035C95 664.199 95.1484 665.125 95.4453 665.812V666H93.1719ZM89.5742 664.348C90.2539 664.348 90.8984 664.172 91.5078 663.82C92.1172 663.469 92.5586 663.012 92.832 662.449V659.848H91.1328C88.4766 659.848 87.1484 660.625 87.1484 662.18C87.1484 662.859 87.375 663.391 87.8281 663.773C88.2812 664.156 88.8633 664.348 89.5742 664.348ZM102.359 662.824L105.312 653.32H107.633L102.535 667.957C101.746 670.066 100.492 671.121 98.7734 671.121L98.3633 671.086L97.5547 670.934V669.176L98.1406 669.223C98.875 669.223 99.4453 669.074 99.8516 668.777C100.266 668.48 100.605 667.938 100.871 667.148L101.352 665.859L96.8281 653.32H99.1953L102.359 662.824ZM117.219 666C117.094 665.75 116.992 665.305 116.914 664.664C115.906 665.711 114.703 666.234 113.305 666.234C112.055 666.234 111.027 665.883 110.223 665.18C109.426 664.469 109.027 663.57 109.027 662.484C109.027 661.164 109.527 660.141 110.527 659.414C111.535 658.68 112.949 658.312 114.77 658.312H116.879V657.316C116.879 656.559 116.652 655.957 116.199 655.512C115.746 655.059 115.078 654.832 114.195 654.832C113.422 654.832 112.773 655.027 112.25 655.418C111.727 655.809 111.465 656.281 111.465 656.836H109.285C109.285 656.203 109.508 655.594 109.953 655.008C110.406 654.414 111.016 653.945 111.781 653.602C112.555 653.258 113.402 653.086 114.324 653.086C115.785 653.086 116.93 653.453 117.758 654.188C118.586 654.914 119.016 655.918 119.047 657.199V663.035C119.047 664.199 119.195 665.125 119.492 665.812V666H117.219ZM113.621 664.348C114.301 664.348 114.945 664.172 115.555 663.82C116.164 663.469 116.605 663.012 116.879 662.449V659.848H115.18C112.523 659.848 111.195 660.625 111.195 662.18C111.195 662.859 111.422 663.391 111.875 663.773C112.328 664.156 112.91 664.348 113.621 664.348ZM128.574 655.266C128.246 655.211 127.891 655.184 127.508 655.184C126.086 655.184 125.121 655.789 124.613 657V666H122.445V653.32H124.555L124.59 654.785C125.301 653.652 126.309 653.086 127.613 653.086C128.035 653.086 128.355 653.141 128.574 653.25V655.266ZM136.871 666V648.938H141.688C143.172 648.938 144.484 649.266 145.625 649.922C146.766 650.578 147.645 651.512 148.262 652.723C148.887 653.934 149.203 655.324 149.211 656.895V657.984C149.211 659.594 148.898 661.004 148.273 662.215C147.656 663.426 146.77 664.355 145.613 665.004C144.465 665.652 143.125 665.984 141.594 666H136.871ZM139.121 650.789V664.16H141.488C143.223 664.16 144.57 663.621 145.531 662.543C146.5 661.465 146.984 659.93 146.984 657.938V656.941C146.984 655.004 146.527 653.5 145.613 652.43C144.707 651.352 143.418 650.805 141.746 650.789H139.121ZM157.543 666.234C155.824 666.234 154.426 665.672 153.348 664.547C152.27 663.414 151.73 661.902 151.73 660.012V659.613C151.73 658.355 151.969 657.234 152.445 656.25C152.93 655.258 153.602 654.484 154.461 653.93C155.328 653.367 156.266 653.086 157.273 653.086C158.922 653.086 160.203 653.629 161.117 654.715C162.031 655.801 162.488 657.355 162.488 659.379V660.281H153.898C153.93 661.531 154.293 662.543 154.988 663.316C155.691 664.082 156.582 664.465 157.66 664.465C158.426 664.465 159.074 664.309 159.605 663.996C160.137 663.684 160.602 663.27 161 662.754L162.324 663.785C161.262 665.418 159.668 666.234 157.543 666.234ZM157.273 654.867C156.398 654.867 155.664 655.188 155.07 655.828C154.477 656.461 154.109 657.352 153.969 658.5H160.32V658.336C160.258 657.234 159.961 656.383 159.43 655.781C158.898 655.172 158.18 654.867 157.273 654.867ZM167.059 653.32L167.129 654.914C168.098 653.695 169.363 653.086 170.926 653.086C173.605 653.086 174.957 654.598 174.98 657.621V666H172.812V657.609C172.805 656.695 172.594 656.02 172.18 655.582C171.773 655.145 171.137 654.926 170.27 654.926C169.566 654.926 168.949 655.113 168.418 655.488C167.887 655.863 167.473 656.355 167.176 656.965V666H165.008V653.32H167.059ZM177.734 659.555C177.734 657.578 178.191 656.008 179.105 654.844C180.02 653.672 181.23 653.086 182.738 653.086C184.285 653.086 185.492 653.633 186.359 654.727L186.465 653.32H188.445V665.695C188.445 667.336 187.957 668.629 186.98 669.574C186.012 670.52 184.707 670.992 183.066 670.992C182.152 670.992 181.258 670.797 180.383 670.406C179.508 670.016 178.84 669.48 178.379 668.801L179.504 667.5C180.434 668.648 181.57 669.223 182.914 669.223C183.969 669.223 184.789 668.926 185.375 668.332C185.969 667.738 186.266 666.902 186.266 665.824V664.734C185.398 665.734 184.215 666.234 182.715 666.234C181.23 666.234 180.027 665.637 179.105 664.441C178.191 663.246 177.734 661.617 177.734 659.555ZM179.914 659.801C179.914 661.23 180.207 662.355 180.793 663.176C181.379 663.988 182.199 664.395 183.254 664.395C184.621 664.395 185.625 663.773 186.266 662.531V656.742C185.602 655.531 184.605 654.926 183.277 654.926C182.223 654.926 181.398 655.336 180.805 656.156C180.211 656.977 179.914 658.191 179.914 659.801ZM199.555 666C199.43 665.75 199.328 665.305 199.25 664.664C198.242 665.711 197.039 666.234 195.641 666.234C194.391 666.234 193.363 665.883 192.559 665.18C191.762 664.469 191.363 663.57 191.363 662.484C191.363 661.164 191.863 660.141 192.863 659.414C193.871 658.68 195.285 658.312 197.105 658.312H199.215V657.316C199.215 656.559 198.988 655.957 198.535 655.512C198.082 655.059 197.414 654.832 196.531 654.832C195.758 654.832 195.109 655.027 194.586 655.418C194.062 655.809 193.801 656.281 193.801 656.836H191.621C191.621 656.203 191.844 655.594 192.289 655.008C192.742 654.414 193.352 653.945 194.117 653.602C194.891 653.258 195.738 653.086 196.66 653.086C198.121 653.086 199.266 653.453 200.094 654.188C200.922 654.914 201.352 655.918 201.383 657.199V663.035C201.383 664.199 201.531 665.125 201.828 665.812V666H199.555ZM195.957 664.348C196.637 664.348 197.281 664.172 197.891 663.82C198.5 663.469 198.941 663.012 199.215 662.449V659.848H197.516C194.859 659.848 193.531 660.625 193.531 662.18C193.531 662.859 193.758 663.391 194.211 663.773C194.664 664.156 195.246 664.348 195.957 664.348ZM206.832 653.32L206.902 654.914C207.871 653.695 209.137 653.086 210.699 653.086C213.379 653.086 214.73 654.598 214.754 657.621V666H212.586V657.609C212.578 656.695 212.367 656.02 211.953 655.582C211.547 655.145 210.91 654.926 210.043 654.926C209.34 654.926 208.723 655.113 208.191 655.488C207.66 655.863 207.246 656.355 206.949 656.965V666H204.781V653.32H206.832ZM236.914 663.762C236.336 664.59 235.527 665.211 234.488 665.625C233.457 666.031 232.254 666.234 230.879 666.234C229.488 666.234 228.254 665.91 227.176 665.262C226.098 664.605 225.262 663.676 224.668 662.473C224.082 661.27 223.781 659.875 223.766 658.289V656.801C223.766 654.23 224.363 652.238 225.559 650.824C226.762 649.41 228.449 648.703 230.621 648.703C232.402 648.703 233.836 649.16 234.922 650.074C236.008 650.98 236.672 652.27 236.914 653.941H234.664C234.242 651.684 232.898 650.555 230.633 650.555C229.125 650.555 227.98 651.086 227.199 652.148C226.426 653.203 226.035 654.734 226.027 656.742V658.137C226.027 660.051 226.465 661.574 227.34 662.707C228.215 663.832 229.398 664.395 230.891 664.395C231.734 664.395 232.473 664.301 233.105 664.113C233.738 663.926 234.262 663.609 234.676 663.164V659.332H230.727V657.504H236.914V663.762ZM239.762 659.543C239.762 658.301 240.004 657.184 240.488 656.191C240.98 655.199 241.66 654.434 242.527 653.895C243.402 653.355 244.398 653.086 245.516 653.086C247.242 653.086 248.637 653.684 249.699 654.879C250.77 656.074 251.305 657.664 251.305 659.648V659.801C251.305 661.035 251.066 662.145 250.59 663.129C250.121 664.105 249.445 664.867 248.562 665.414C247.688 665.961 246.68 666.234 245.539 666.234C243.82 666.234 242.426 665.637 241.355 664.441C240.293 663.246 239.762 661.664 239.762 659.695V659.543ZM241.941 659.801C241.941 661.207 242.266 662.336 242.914 663.188C243.57 664.039 244.445 664.465 245.539 664.465C246.641 664.465 247.516 664.035 248.164 663.176C248.812 662.309 249.137 661.098 249.137 659.543C249.137 658.152 248.805 657.027 248.141 656.168C247.484 655.301 246.609 654.867 245.516 654.867C244.445 654.867 243.582 655.293 242.926 656.145C242.27 656.996 241.941 658.215 241.941 659.801ZM258.535 659.637H252.816V657.867H258.535V659.637ZM263.246 659.32V666H260.996V648.938H267.289C269.156 648.938 270.617 649.414 271.672 650.367C272.734 651.32 273.266 652.582 273.266 654.152C273.266 655.809 272.746 657.086 271.707 657.984C270.676 658.875 269.195 659.32 267.266 659.32H263.246ZM263.246 657.48H267.289C268.492 657.48 269.414 657.199 270.055 656.637C270.695 656.066 271.016 655.246 271.016 654.176C271.016 653.16 270.695 652.348 270.055 651.738C269.414 651.129 268.535 650.812 267.418 650.789H263.246V657.48ZM283.484 666C283.359 665.75 283.258 665.305 283.18 664.664C282.172 665.711 280.969 666.234 279.57 666.234C278.32 666.234 277.293 665.883 276.488 665.18C275.691 664.469 275.293 663.57 275.293 662.484C275.293 661.164 275.793 660.141 276.793 659.414C277.801 658.68 279.215 658.312 281.035 658.312H283.145V657.316C283.145 656.559 282.918 655.957 282.465 655.512C282.012 655.059 281.344 654.832 280.461 654.832C279.688 654.832 279.039 655.027 278.516 655.418C277.992 655.809 277.73 656.281 277.73 656.836H275.551C275.551 656.203 275.773 655.594 276.219 655.008C276.672 654.414 277.281 653.945 278.047 653.602C278.82 653.258 279.668 653.086 280.59 653.086C282.051 653.086 283.195 653.453 284.023 654.188C284.852 654.914 285.281 655.918 285.312 657.199V663.035C285.312 664.199 285.461 665.125 285.758 665.812V666H283.484ZM279.887 664.348C280.566 664.348 281.211 664.172 281.82 663.82C282.43 663.469 282.871 663.012 283.145 662.449V659.848H281.445C278.789 659.848 277.461 660.625 277.461 662.18C277.461 662.859 277.688 663.391 278.141 663.773C278.594 664.156 279.176 664.348 279.887 664.348ZM292.672 662.824L295.625 653.32H297.945L292.848 667.957C292.059 670.066 290.805 671.121 289.086 671.121L288.676 671.086L287.867 670.934V669.176L288.453 669.223C289.188 669.223 289.758 669.074 290.164 668.777C290.578 668.48 290.918 667.938 291.184 667.148L291.664 665.859L287.141 653.32H289.508L292.672 662.824Z" fill="black"/>
<path d="M84.7578 729V711.938H90.3359C92.1875 711.938 93.5781 712.32 94.5078 713.086C95.4453 713.852 95.9141 714.984 95.9141 716.484C95.9141 717.281 95.6875 717.988 95.2344 718.605C94.7812 719.215 94.1641 719.688 93.3828 720.023C94.3047 720.281 95.0312 720.773 95.5625 721.5C96.1016 722.219 96.3711 723.078 96.3711 724.078C96.3711 725.609 95.875 726.812 94.8828 727.688C93.8906 728.562 92.4883 729 90.6758 729H84.7578ZM87.0078 721.02V727.16H90.7227C91.7695 727.16 92.5938 726.891 93.1953 726.352C93.8047 725.805 94.1094 725.055 94.1094 724.102C94.1094 722.047 92.9922 721.02 90.7578 721.02H87.0078ZM87.0078 719.215H90.4062C91.3906 719.215 92.1758 718.969 92.7617 718.477C93.3555 717.984 93.6523 717.316 93.6523 716.473C93.6523 715.535 93.3789 714.855 92.832 714.434C92.2852 714.004 91.4531 713.789 90.3359 713.789H87.0078V719.215ZM107.199 729C107.074 728.75 106.973 728.305 106.895 727.664C105.887 728.711 104.684 729.234 103.285 729.234C102.035 729.234 101.008 728.883 100.203 728.18C99.4062 727.469 99.0078 726.57 99.0078 725.484C99.0078 724.164 99.5078 723.141 100.508 722.414C101.516 721.68 102.93 721.312 104.75 721.312H106.859V720.316C106.859 719.559 106.633 718.957 106.18 718.512C105.727 718.059 105.059 717.832 104.176 717.832C103.402 717.832 102.754 718.027 102.23 718.418C101.707 718.809 101.445 719.281 101.445 719.836H99.2656C99.2656 719.203 99.4883 718.594 99.9336 718.008C100.387 717.414 100.996 716.945 101.762 716.602C102.535 716.258 103.383 716.086 104.305 716.086C105.766 716.086 106.91 716.453 107.738 717.188C108.566 717.914 108.996 718.918 109.027 720.199V726.035C109.027 727.199 109.176 728.125 109.473 728.812V729H107.199ZM103.602 727.348C104.281 727.348 104.926 727.172 105.535 726.82C106.145 726.469 106.586 726.012 106.859 725.449V722.848H105.16C102.504 722.848 101.176 723.625 101.176 725.18C101.176 725.859 101.402 726.391 101.855 726.773C102.309 727.156 102.891 727.348 103.602 727.348ZM116.387 725.824L119.34 716.32H121.66L116.562 730.957C115.773 733.066 114.52 734.121 112.801 734.121L112.391 734.086L111.582 733.934V732.176L112.168 732.223C112.902 732.223 113.473 732.074 113.879 731.777C114.293 731.48 114.633 730.938 114.898 730.148L115.379 728.859L110.855 716.32H113.223L116.387 725.824ZM131.246 729C131.121 728.75 131.02 728.305 130.941 727.664C129.934 728.711 128.73 729.234 127.332 729.234C126.082 729.234 125.055 728.883 124.25 728.18C123.453 727.469 123.055 726.57 123.055 725.484C123.055 724.164 123.555 723.141 124.555 722.414C125.562 721.68 126.977 721.312 128.797 721.312H130.906V720.316C130.906 719.559 130.68 718.957 130.227 718.512C129.773 718.059 129.105 717.832 128.223 717.832C127.449 717.832 126.801 718.027 126.277 718.418C125.754 718.809 125.492 719.281 125.492 719.836H123.312C123.312 719.203 123.535 718.594 123.98 718.008C124.434 717.414 125.043 716.945 125.809 716.602C126.582 716.258 127.43 716.086 128.352 716.086C129.812 716.086 130.957 716.453 131.785 717.188C132.613 717.914 133.043 718.918 133.074 720.199V726.035C133.074 727.199 133.223 728.125 133.52 728.812V729H131.246ZM127.648 727.348C128.328 727.348 128.973 727.172 129.582 726.82C130.191 726.469 130.633 726.012 130.906 725.449V722.848H129.207C126.551 722.848 125.223 723.625 125.223 725.18C125.223 725.859 125.449 726.391 125.902 726.773C126.355 727.156 126.938 727.348 127.648 727.348ZM142.602 718.266C142.273 718.211 141.918 718.184 141.535 718.184C140.113 718.184 139.148 718.789 138.641 720V729H136.473V716.32H138.582L138.617 717.785C139.328 716.652 140.336 716.086 141.641 716.086C142.062 716.086 142.383 716.141 142.602 716.25V718.266ZM150.898 729V711.938H155.715C157.199 711.938 158.512 712.266 159.652 712.922C160.793 713.578 161.672 714.512 162.289 715.723C162.914 716.934 163.23 718.324 163.238 719.895V720.984C163.238 722.594 162.926 724.004 162.301 725.215C161.684 726.426 160.797 727.355 159.641 728.004C158.492 728.652 157.152 728.984 155.621 729H150.898ZM153.148 713.789V727.16H155.516C157.25 727.16 158.598 726.621 159.559 725.543C160.527 724.465 161.012 722.93 161.012 720.938V719.941C161.012 718.004 160.555 716.5 159.641 715.43C158.734 714.352 157.445 713.805 155.773 713.789H153.148ZM171.57 729.234C169.852 729.234 168.453 728.672 167.375 727.547C166.297 726.414 165.758 724.902 165.758 723.012V722.613C165.758 721.355 165.996 720.234 166.473 719.25C166.957 718.258 167.629 717.484 168.488 716.93C169.355 716.367 170.293 716.086 171.301 716.086C172.949 716.086 174.23 716.629 175.145 717.715C176.059 718.801 176.516 720.355 176.516 722.379V723.281H167.926C167.957 724.531 168.32 725.543 169.016 726.316C169.719 727.082 170.609 727.465 171.688 727.465C172.453 727.465 173.102 727.309 173.633 726.996C174.164 726.684 174.629 726.27 175.027 725.754L176.352 726.785C175.289 728.418 173.695 729.234 171.57 729.234ZM171.301 717.867C170.426 717.867 169.691 718.188 169.098 718.828C168.504 719.461 168.137 720.352 167.996 721.5H174.348V721.336C174.285 720.234 173.988 719.383 173.457 718.781C172.926 718.172 172.207 717.867 171.301 717.867ZM181.086 716.32L181.156 717.914C182.125 716.695 183.391 716.086 184.953 716.086C187.633 716.086 188.984 717.598 189.008 720.621V729H186.84V720.609C186.832 719.695 186.621 719.02 186.207 718.582C185.801 718.145 185.164 717.926 184.297 717.926C183.594 717.926 182.977 718.113 182.445 718.488C181.914 718.863 181.5 719.355 181.203 719.965V729H179.035V716.32H181.086ZM191.762 722.555C191.762 720.578 192.219 719.008 193.133 717.844C194.047 716.672 195.258 716.086 196.766 716.086C198.312 716.086 199.52 716.633 200.387 717.727L200.492 716.32H202.473V728.695C202.473 730.336 201.984 731.629 201.008 732.574C200.039 733.52 198.734 733.992 197.094 733.992C196.18 733.992 195.285 733.797 194.41 733.406C193.535 733.016 192.867 732.48 192.406 731.801L193.531 730.5C194.461 731.648 195.598 732.223 196.941 732.223C197.996 732.223 198.816 731.926 199.402 731.332C199.996 730.738 200.293 729.902 200.293 728.824V727.734C199.426 728.734 198.242 729.234 196.742 729.234C195.258 729.234 194.055 728.637 193.133 727.441C192.219 726.246 191.762 724.617 191.762 722.555ZM193.941 722.801C193.941 724.23 194.234 725.355 194.82 726.176C195.406 726.988 196.227 727.395 197.281 727.395C198.648 727.395 199.652 726.773 200.293 725.531V719.742C199.629 718.531 198.633 717.926 197.305 717.926C196.25 717.926 195.426 718.336 194.832 719.156C194.238 719.977 193.941 721.191 193.941 722.801ZM213.582 729C213.457 728.75 213.355 728.305 213.277 727.664C212.27 728.711 211.066 729.234 209.668 729.234C208.418 729.234 207.391 728.883 206.586 728.18C205.789 727.469 205.391 726.57 205.391 725.484C205.391 724.164 205.891 723.141 206.891 722.414C207.898 721.68 209.312 721.312 211.133 721.312H213.242V720.316C213.242 719.559 213.016 718.957 212.562 718.512C212.109 718.059 211.441 717.832 210.559 717.832C209.785 717.832 209.137 718.027 208.613 718.418C208.09 718.809 207.828 719.281 207.828 719.836H205.648C205.648 719.203 205.871 718.594 206.316 718.008C206.77 717.414 207.379 716.945 208.145 716.602C208.918 716.258 209.766 716.086 210.688 716.086C212.148 716.086 213.293 716.453 214.121 717.188C214.949 717.914 215.379 718.918 215.41 720.199V726.035C215.41 727.199 215.559 728.125 215.855 728.812V729H213.582ZM209.984 727.348C210.664 727.348 211.309 727.172 211.918 726.82C212.527 726.469 212.969 726.012 213.242 725.449V722.848H211.543C208.887 722.848 207.559 723.625 207.559 725.18C207.559 725.859 207.785 726.391 208.238 726.773C208.691 727.156 209.273 727.348 209.984 727.348ZM220.859 716.32L220.93 717.914C221.898 716.695 223.164 716.086 224.727 716.086C227.406 716.086 228.758 717.598 228.781 720.621V729H226.613V720.609C226.605 719.695 226.395 719.02 225.98 718.582C225.574 718.145 224.938 717.926 224.07 717.926C223.367 717.926 222.75 718.113 222.219 718.488C221.688 718.863 221.273 719.355 220.977 719.965V729H218.809V716.32H220.859ZM251.469 721.02C251.469 722.691 251.188 724.152 250.625 725.402C250.062 726.645 249.266 727.594 248.234 728.25C247.203 728.906 246 729.234 244.625 729.234C243.281 729.234 242.09 728.906 241.051 728.25C240.012 727.586 239.203 726.645 238.625 725.426C238.055 724.199 237.762 722.781 237.746 721.172V719.941C237.746 718.301 238.031 716.852 238.602 715.594C239.172 714.336 239.977 713.375 241.016 712.711C242.062 712.039 243.258 711.703 244.602 711.703C245.969 711.703 247.172 712.035 248.211 712.699C249.258 713.355 250.062 714.312 250.625 715.57C251.188 716.82 251.469 718.277 251.469 719.941V721.02ZM249.23 719.918C249.23 717.895 248.824 716.344 248.012 715.266C247.199 714.18 246.062 713.637 244.602 713.637C243.18 713.637 242.059 714.18 241.238 715.266C240.426 716.344 240.008 717.844 239.984 719.766V721.02C239.984 722.98 240.395 724.523 241.215 725.648C242.043 726.766 243.18 727.324 244.625 727.324C246.078 727.324 247.203 726.797 248 725.742C248.797 724.68 249.207 723.16 249.23 721.184V719.918ZM260.234 726.012L265.109 711.938H267.57L261.242 729H259.25L252.934 711.938H255.383L260.234 726.012ZM282.828 721.02C282.828 722.691 282.547 724.152 281.984 725.402C281.422 726.645 280.625 727.594 279.594 728.25C278.562 728.906 277.359 729.234 275.984 729.234C274.641 729.234 273.449 728.906 272.41 728.25C271.371 727.586 270.562 726.645 269.984 725.426C269.414 724.199 269.121 722.781 269.105 721.172V719.941C269.105 718.301 269.391 716.852 269.961 715.594C270.531 714.336 271.336 713.375 272.375 712.711C273.422 712.039 274.617 711.703 275.961 711.703C277.328 711.703 278.531 712.035 279.57 712.699C280.617 713.355 281.422 714.312 281.984 715.57C282.547 716.82 282.828 718.277 282.828 719.941V721.02ZM280.59 719.918C280.59 717.895 280.184 716.344 279.371 715.266C278.559 714.18 277.422 713.637 275.961 713.637C274.539 713.637 273.418 714.18 272.598 715.266C271.785 716.344 271.367 717.844 271.344 719.766V721.02C271.344 722.98 271.754 724.523 272.574 725.648C273.402 726.766 274.539 727.324 275.984 727.324C277.438 727.324 278.562 726.797 279.359 725.742C280.156 724.68 280.566 723.16 280.59 721.184V719.918Z" fill="black"/>
</g>
<rect x="0.5" y="0.5" width="374" height="811" stroke="black"/>
<defs>
<clipPath id="clip0_27_393">
<rect width="375" height="812" fill="white"/>
</clipPath>
</defs>
</svg>
