<svg width="375" height="812" viewBox="0 0 375 812" fill="none" xmlns="http://www.w3.org/2000/svg">
<g clip-path="url(#clip0_27_212)">
<rect width="375" height="812" fill="white"/>
<rect y="217" width="375" height="595" fill="white"/>
<rect x="0.5" y="0.5" width="374" height="216" fill="#E5E5E5" stroke="black"/>
<line x1="0.250427" y1="-0.432766" x2="375.25" y2="216.567" stroke="black"/>
<line x1="375.25" y1="0.432766" x2="0.250425" y2="217.433" stroke="black"/>
<path d="M22.2334 42.3398L27.7354 44.5635V46.2861L20.5459 42.9551V41.6719L27.7354 38.3496V40.0723L22.2334 42.3398ZM35.0215 48V35.2031H39.2051C40.5938 35.2031 41.6367 35.4902 42.334 36.0645C43.0371 36.6387 43.3887 37.4883 43.3887 38.6133C43.3887 39.2109 43.2188 39.7412 42.8789 40.2041C42.5391 40.6611 42.0762 41.0156 41.4902 41.2676C42.1816 41.4609 42.7266 41.8301 43.125 42.375C43.5293 42.9141 43.7314 43.5586 43.7314 44.3086C43.7314 45.457 43.3594 46.3594 42.6152 47.0156C41.8711 47.6719 40.8193 48 39.46 48H35.0215ZM36.709 42.0146V46.6201H39.4951C40.2803 46.6201 40.8984 46.418 41.3496 46.0137C41.8066 45.6035 42.0352 45.041 42.0352 44.3262C42.0352 42.7852 41.1973 42.0146 39.5215 42.0146H36.709ZM36.709 40.6611H39.2578C39.9961 40.6611 40.585 40.4766 41.0244 40.1074C41.4697 39.7383 41.6924 39.2373 41.6924 38.6045C41.6924 37.9014 41.4873 37.3916 41.0771 37.0752C40.667 36.7529 40.043 36.5918 39.2051 36.5918H36.709V40.6611ZM51.8525 48C51.7588 47.8125 51.6826 47.4785 51.624 46.998C50.8682 47.7832 49.9658 48.1758 48.917 48.1758C47.9795 48.1758 47.209 47.9121 46.6055 47.3848C46.0078 46.8516 45.709 46.1777 45.709 45.3633C45.709 44.373 46.084 43.6055 46.834 43.0605C47.5898 42.5098 48.6504 42.2344 50.0156 42.2344H51.5977V41.4873C51.5977 40.9189 51.4277 40.4678 51.0879 40.1338C50.748 39.7939 50.2471 39.624 49.585 39.624C49.0049 39.624 48.5186 39.7705 48.126 40.0635C47.7334 40.3564 47.5371 40.7109 47.5371 41.127H45.9023C45.9023 40.6523 46.0693 40.1953 46.4033 39.7559C46.7432 39.3105 47.2002 38.959 47.7744 38.7012C48.3545 38.4434 48.9902 38.3145 49.6816 38.3145C50.7773 38.3145 51.6357 38.5898 52.2568 39.1406C52.8779 39.6855 53.2002 40.4385 53.2236 41.3994V45.7764C53.2236 46.6494 53.335 47.3438 53.5576 47.8594V48H51.8525ZM49.1543 46.7607C49.6641 46.7607 50.1475 46.6289 50.6045 46.3652C51.0615 46.1016 51.3926 45.7588 51.5977 45.3369V43.3857H50.3232C48.3311 43.3857 47.335 43.9688 47.335 45.1348C47.335 45.6445 47.5049 46.043 47.8447 46.3301C48.1846 46.6172 48.6211 46.7607 49.1543 46.7607ZM59.5869 46.8486C60.167 46.8486 60.6738 46.6729 61.1074 46.3213C61.541 45.9697 61.7812 45.5303 61.8281 45.0029H63.3662C63.3369 45.5479 63.1494 46.0664 62.8037 46.5586C62.458 47.0508 61.9951 47.4434 61.415 47.7363C60.8408 48.0293 60.2314 48.1758 59.5869 48.1758C58.292 48.1758 57.2607 47.7451 56.4932 46.8838C55.7314 46.0166 55.3506 44.833 55.3506 43.333V43.0605C55.3506 42.1348 55.5205 41.3115 55.8604 40.5908C56.2002 39.8701 56.6865 39.3105 57.3193 38.9121C57.958 38.5137 58.7109 38.3145 59.5781 38.3145C60.6445 38.3145 61.5293 38.6338 62.2324 39.2725C62.9414 39.9111 63.3193 40.7402 63.3662 41.7598H61.8281C61.7812 41.1445 61.5469 40.6406 61.125 40.248C60.709 39.8496 60.1934 39.6504 59.5781 39.6504C58.752 39.6504 58.1104 39.9492 57.6533 40.5469C57.2021 41.1387 56.9766 41.9971 56.9766 43.1221V43.4297C56.9766 44.5254 57.2021 45.3691 57.6533 45.9609C58.1045 46.5527 58.749 46.8486 59.5869 46.8486ZM67.8486 43.5967L66.8291 44.6602V48H65.2031V34.5H66.8291V42.665L67.6992 41.6191L70.6611 38.4902H72.6387L68.9385 42.4629L73.0693 48H71.1621L67.8486 43.5967Z" fill="black"/>
<circle cx="165" cy="186" r="5.5" fill="#C4C4C4" stroke="black"/>
<circle cx="186" cy="186" r="5.5" fill="#C4C4C4" stroke="black"/>
<circle cx="207" cy="186" r="5.5" fill="#C4C4C4" stroke="black"/>
<path d="M81.7764 259V237.672H88.749C91.0635 237.672 92.8018 238.15 93.9639 239.107C95.1357 240.064 95.7217 241.48 95.7217 243.355C95.7217 244.352 95.4385 245.235 94.8721 246.007C94.3057 246.769 93.5342 247.359 92.5576 247.779C93.71 248.102 94.6182 248.717 95.2822 249.625C95.9561 250.523 96.293 251.598 96.293 252.848C96.293 254.762 95.6729 256.266 94.4326 257.359C93.1924 258.453 91.4395 259 89.1738 259H81.7764ZM84.5889 249.024V256.7H89.2324C90.541 256.7 91.5713 256.363 92.3232 255.689C93.085 255.006 93.4658 254.068 93.4658 252.877C93.4658 250.309 92.0693 249.024 89.2764 249.024H84.5889ZM84.5889 246.769H88.8369C90.0674 246.769 91.0488 246.461 91.7812 245.846C92.5234 245.23 92.8945 244.396 92.8945 243.341C92.8945 242.169 92.5527 241.319 91.8691 240.792C91.1855 240.255 90.1455 239.986 88.749 239.986H84.5889V246.769ZM109.828 257.433C108.773 258.673 107.226 259.293 105.185 259.293C103.495 259.293 102.206 258.805 101.317 257.828C100.438 256.842 99.9941 255.387 99.9844 253.463V243.15H102.694V253.39C102.694 255.792 103.671 256.993 105.624 256.993C107.694 256.993 109.071 256.222 109.755 254.679V243.15H112.465V259H109.887L109.828 257.433ZM126.381 259C126.225 258.688 126.098 258.131 126 257.33C124.74 258.639 123.236 259.293 121.488 259.293C119.926 259.293 118.642 258.854 117.636 257.975C116.64 257.086 116.142 255.963 116.142 254.605C116.142 252.955 116.767 251.676 118.017 250.768C119.276 249.85 121.044 249.391 123.319 249.391H125.956V248.146C125.956 247.198 125.673 246.446 125.106 245.89C124.54 245.323 123.705 245.04 122.602 245.04C121.635 245.04 120.824 245.284 120.17 245.772C119.516 246.261 119.188 246.852 119.188 247.545H116.464C116.464 246.754 116.742 245.992 117.299 245.26C117.865 244.518 118.627 243.932 119.584 243.502C120.551 243.072 121.61 242.857 122.763 242.857C124.589 242.857 126.02 243.316 127.055 244.234C128.09 245.143 128.627 246.397 128.666 247.999V255.294C128.666 256.749 128.852 257.906 129.223 258.766V259H126.381ZM121.884 256.935C122.733 256.935 123.539 256.715 124.301 256.275C125.062 255.836 125.614 255.265 125.956 254.562V251.31H123.832C120.512 251.31 118.852 252.281 118.852 254.225C118.852 255.074 119.135 255.738 119.701 256.217C120.268 256.695 120.995 256.935 121.884 256.935ZM136.591 239.312V243.15H139.55V245.245H136.591V255.074C136.591 255.709 136.723 256.188 136.986 256.51C137.25 256.822 137.699 256.979 138.334 256.979C138.646 256.979 139.076 256.92 139.623 256.803V259C138.91 259.195 138.217 259.293 137.543 259.293C136.332 259.293 135.419 258.927 134.804 258.194C134.188 257.462 133.881 256.422 133.881 255.074V245.245H130.995V243.15H133.881V239.312H136.591ZM158.417 250.372H153.407V259H150.58V237.672H157.641C160.043 237.672 161.889 238.219 163.178 239.312C164.477 240.406 165.126 241.998 165.126 244.088C165.126 245.416 164.765 246.573 164.042 247.56C163.329 248.546 162.333 249.283 161.054 249.771L166.063 258.824V259H163.046L158.417 250.372ZM153.407 248.072H157.729C159.125 248.072 160.233 247.711 161.054 246.988C161.884 246.266 162.299 245.299 162.299 244.088C162.299 242.77 161.903 241.759 161.112 241.056C160.331 240.353 159.198 239.996 157.714 239.986H153.407V248.072ZM175.233 259.293C173.085 259.293 171.337 258.59 169.989 257.184C168.642 255.768 167.968 253.878 167.968 251.515V251.017C167.968 249.444 168.266 248.043 168.861 246.812C169.467 245.572 170.307 244.605 171.381 243.912C172.465 243.209 173.637 242.857 174.896 242.857C176.957 242.857 178.559 243.536 179.701 244.894C180.844 246.251 181.415 248.194 181.415 250.724V251.852H170.678C170.717 253.414 171.171 254.679 172.04 255.646C172.919 256.603 174.032 257.081 175.38 257.081C176.337 257.081 177.147 256.886 177.812 256.495C178.476 256.104 179.057 255.587 179.555 254.942L181.21 256.231C179.882 258.272 177.89 259.293 175.233 259.293ZM174.896 245.084C173.803 245.084 172.885 245.484 172.143 246.285C171.4 247.076 170.941 248.189 170.766 249.625H178.705V249.42C178.627 248.043 178.256 246.979 177.592 246.227C176.928 245.465 176.029 245.084 174.896 245.084ZM193.793 254.796C193.793 254.063 193.515 253.497 192.958 253.097C192.411 252.687 191.449 252.335 190.072 252.042C188.705 251.749 187.616 251.397 186.806 250.987C186.005 250.577 185.409 250.089 185.019 249.522C184.638 248.956 184.447 248.282 184.447 247.501C184.447 246.202 184.994 245.104 186.088 244.205C187.191 243.307 188.598 242.857 190.307 242.857C192.104 242.857 193.559 243.321 194.672 244.249C195.795 245.177 196.356 246.363 196.356 247.809H193.632C193.632 247.066 193.314 246.427 192.68 245.89C192.055 245.353 191.264 245.084 190.307 245.084C189.32 245.084 188.549 245.299 187.992 245.729C187.436 246.158 187.157 246.72 187.157 247.413C187.157 248.067 187.416 248.561 187.934 248.893C188.451 249.225 189.384 249.542 190.731 249.845C192.089 250.147 193.188 250.509 194.027 250.929C194.867 251.349 195.487 251.856 195.888 252.452C196.298 253.038 196.503 253.756 196.503 254.605C196.503 256.021 195.937 257.159 194.804 258.019C193.671 258.868 192.201 259.293 190.395 259.293C189.125 259.293 188.002 259.068 187.025 258.619C186.049 258.17 185.282 257.545 184.726 256.744C184.179 255.934 183.905 255.06 183.905 254.122H186.615C186.664 255.03 187.025 255.753 187.699 256.29C188.383 256.817 189.281 257.081 190.395 257.081C191.42 257.081 192.24 256.876 192.855 256.466C193.48 256.046 193.793 255.489 193.793 254.796ZM206.61 259.293C204.462 259.293 202.714 258.59 201.366 257.184C200.019 255.768 199.345 253.878 199.345 251.515V251.017C199.345 249.444 199.643 248.043 200.238 246.812C200.844 245.572 201.684 244.605 202.758 243.912C203.842 243.209 205.014 242.857 206.273 242.857C208.334 242.857 209.936 243.536 211.078 244.894C212.221 246.251 212.792 248.194 212.792 250.724V251.852H202.055C202.094 253.414 202.548 254.679 203.417 255.646C204.296 256.603 205.409 257.081 206.757 257.081C207.714 257.081 208.524 256.886 209.188 256.495C209.853 256.104 210.434 255.587 210.932 254.942L212.587 256.231C211.259 258.272 209.267 259.293 206.61 259.293ZM206.273 245.084C205.18 245.084 204.262 245.484 203.52 246.285C202.777 247.076 202.318 248.189 202.143 249.625H210.082V249.42C210.004 248.043 209.633 246.979 208.969 246.227C208.305 245.465 207.406 245.084 206.273 245.084ZM223.603 245.582C223.192 245.514 222.748 245.479 222.27 245.479C220.492 245.479 219.286 246.236 218.651 247.75V259H215.941V243.15H218.578L218.622 244.981C219.511 243.565 220.771 242.857 222.401 242.857C222.929 242.857 223.329 242.926 223.603 243.062V245.582ZM231.601 255.323L235.526 243.15H238.295L232.611 259H230.546L224.804 243.15H227.572L231.601 255.323ZM250.453 259C250.297 258.688 250.17 258.131 250.072 257.33C248.812 258.639 247.309 259.293 245.561 259.293C243.998 259.293 242.714 258.854 241.708 257.975C240.712 257.086 240.214 255.963 240.214 254.605C240.214 252.955 240.839 251.676 242.089 250.768C243.349 249.85 245.116 249.391 247.392 249.391H250.028V248.146C250.028 247.198 249.745 246.446 249.179 245.89C248.612 245.323 247.777 245.04 246.674 245.04C245.707 245.04 244.896 245.284 244.242 245.772C243.588 246.261 243.261 246.852 243.261 247.545H240.536C240.536 246.754 240.814 245.992 241.371 245.26C241.938 244.518 242.699 243.932 243.656 243.502C244.623 243.072 245.683 242.857 246.835 242.857C248.661 242.857 250.092 243.316 251.127 244.234C252.162 245.143 252.699 246.397 252.738 247.999V255.294C252.738 256.749 252.924 257.906 253.295 258.766V259H250.453ZM245.956 256.935C246.806 256.935 247.611 256.715 248.373 256.275C249.135 255.836 249.687 255.265 250.028 254.562V251.31H247.904C244.584 251.31 242.924 252.281 242.924 254.225C242.924 255.074 243.207 255.738 243.773 256.217C244.34 256.695 245.067 256.935 245.956 256.935ZM266.215 254.796C266.215 254.063 265.937 253.497 265.38 253.097C264.833 252.687 263.871 252.335 262.494 252.042C261.127 251.749 260.038 251.397 259.228 250.987C258.427 250.577 257.831 250.089 257.44 249.522C257.06 248.956 256.869 248.282 256.869 247.501C256.869 246.202 257.416 245.104 258.51 244.205C259.613 243.307 261.02 242.857 262.729 242.857C264.525 242.857 265.98 243.321 267.094 244.249C268.217 245.177 268.778 246.363 268.778 247.809H266.054C266.054 247.066 265.736 246.427 265.102 245.89C264.477 245.353 263.686 245.084 262.729 245.084C261.742 245.084 260.971 245.299 260.414 245.729C259.857 246.158 259.579 246.72 259.579 247.413C259.579 248.067 259.838 248.561 260.355 248.893C260.873 249.225 261.806 249.542 263.153 249.845C264.511 250.147 265.609 250.509 266.449 250.929C267.289 251.349 267.909 251.856 268.31 252.452C268.72 253.038 268.925 253.756 268.925 254.605C268.925 256.021 268.358 257.159 267.226 258.019C266.093 258.868 264.623 259.293 262.816 259.293C261.547 259.293 260.424 259.068 259.447 258.619C258.471 258.17 257.704 257.545 257.147 256.744C256.601 255.934 256.327 255.06 256.327 254.122H259.037C259.086 255.03 259.447 255.753 260.121 256.29C260.805 256.817 261.703 257.081 262.816 257.081C263.842 257.081 264.662 256.876 265.277 256.466C265.902 256.046 266.215 255.489 266.215 254.796ZM275.399 259H272.689V243.15H275.399V259ZM272.47 238.946C272.47 238.507 272.602 238.136 272.865 237.833C273.139 237.53 273.539 237.379 274.066 237.379C274.594 237.379 274.994 237.53 275.268 237.833C275.541 238.136 275.678 238.507 275.678 238.946C275.678 239.386 275.541 239.752 275.268 240.045C274.994 240.338 274.594 240.484 274.066 240.484C273.539 240.484 273.139 240.338 272.865 240.045C272.602 239.752 272.47 239.386 272.47 238.946Z" fill="black"/>
<path d="M52.3203 307H50.624L44.1816 297.139V307H42.4854V294.203H44.1816L50.6416 304.108V294.203H52.3203V307ZM60.9336 307C60.8398 306.812 60.7637 306.479 60.7051 305.998C59.9492 306.783 59.0469 307.176 57.998 307.176C57.0605 307.176 56.29 306.912 55.6865 306.385C55.0889 305.852 54.79 305.178 54.79 304.363C54.79 303.373 55.165 302.605 55.915 302.061C56.6709 301.51 57.7314 301.234 59.0967 301.234H60.6787V300.487C60.6787 299.919 60.5088 299.468 60.1689 299.134C59.8291 298.794 59.3281 298.624 58.666 298.624C58.0859 298.624 57.5996 298.771 57.207 299.063C56.8145 299.356 56.6182 299.711 56.6182 300.127H54.9834C54.9834 299.652 55.1504 299.195 55.4844 298.756C55.8242 298.311 56.2812 297.959 56.8555 297.701C57.4355 297.443 58.0713 297.314 58.7627 297.314C59.8584 297.314 60.7168 297.59 61.3379 298.141C61.959 298.686 62.2812 299.438 62.3047 300.399V304.776C62.3047 305.649 62.416 306.344 62.6387 306.859V307H60.9336ZM58.2354 305.761C58.7451 305.761 59.2285 305.629 59.6855 305.365C60.1426 305.102 60.4736 304.759 60.6787 304.337V302.386H59.4043C57.4121 302.386 56.416 302.969 56.416 304.135C56.416 304.645 56.5859 305.043 56.9258 305.33C57.2656 305.617 57.7021 305.761 58.2354 305.761ZM66.3828 297.49L66.4268 298.545C67.124 297.725 68.0645 297.314 69.248 297.314C70.5781 297.314 71.4834 297.824 71.9639 298.844C72.2803 298.387 72.6904 298.018 73.1943 297.736C73.7041 297.455 74.3047 297.314 74.9961 297.314C77.082 297.314 78.1426 298.419 78.1777 300.628V307H76.5518V300.725C76.5518 300.045 76.3965 299.538 76.0859 299.204C75.7754 298.864 75.2539 298.694 74.5215 298.694C73.918 298.694 73.417 298.876 73.0186 299.239C72.6201 299.597 72.3887 300.08 72.3242 300.689V307H70.6895V300.769C70.6895 299.386 70.0127 298.694 68.6592 298.694C67.5928 298.694 66.8633 299.148 66.4707 300.057V307H64.8447V297.49H66.3828ZM86.5098 307C86.416 306.812 86.3398 306.479 86.2812 305.998C85.5254 306.783 84.623 307.176 83.5742 307.176C82.6367 307.176 81.8662 306.912 81.2627 306.385C80.665 305.852 80.3662 305.178 80.3662 304.363C80.3662 303.373 80.7412 302.605 81.4912 302.061C82.2471 301.51 83.3076 301.234 84.6729 301.234H86.2549V300.487C86.2549 299.919 86.085 299.468 85.7451 299.134C85.4053 298.794 84.9043 298.624 84.2422 298.624C83.6621 298.624 83.1758 298.771 82.7832 299.063C82.3906 299.356 82.1943 299.711 82.1943 300.127H80.5596C80.5596 299.652 80.7266 299.195 81.0605 298.756C81.4004 298.311 81.8574 297.959 82.4316 297.701C83.0117 297.443 83.6475 297.314 84.3389 297.314C85.4346 297.314 86.293 297.59 86.9141 298.141C87.5352 298.686 87.8574 299.438 87.8809 300.399V304.776C87.8809 305.649 87.9922 306.344 88.2148 306.859V307H86.5098ZM83.8115 305.761C84.3213 305.761 84.8047 305.629 85.2617 305.365C85.7188 305.102 86.0498 304.759 86.2549 304.337V302.386H84.9805C82.9883 302.386 81.9922 302.969 81.9922 304.135C81.9922 304.645 82.1621 305.043 82.502 305.33C82.8418 305.617 83.2783 305.761 83.8115 305.761Z" fill="black"/>
<path d="M53.3203 391H51.624L45.1816 381.139V391H43.4854V378.203H45.1816L51.6416 388.108V378.203H53.3203V391ZM55.6318 386.157C55.6318 385.226 55.8135 384.388 56.1768 383.644C56.5459 382.899 57.0557 382.325 57.7061 381.921C58.3623 381.517 59.1094 381.314 59.9473 381.314C61.2422 381.314 62.2881 381.763 63.085 382.659C63.8877 383.556 64.2891 384.748 64.2891 386.236V386.351C64.2891 387.276 64.1104 388.108 63.7529 388.847C63.4014 389.579 62.8945 390.15 62.2324 390.561C61.5762 390.971 60.8203 391.176 59.9648 391.176C58.6758 391.176 57.6299 390.728 56.8271 389.831C56.0303 388.935 55.6318 387.748 55.6318 386.271V386.157ZM57.2666 386.351C57.2666 387.405 57.5098 388.252 57.9961 388.891C58.4883 389.529 59.1445 389.849 59.9648 389.849C60.791 389.849 61.4473 389.526 61.9336 388.882C62.4199 388.231 62.6631 387.323 62.6631 386.157C62.6631 385.114 62.4141 384.271 61.916 383.626C61.4238 382.976 60.7676 382.65 59.9473 382.65C59.1445 382.65 58.4971 382.97 58.0049 383.608C57.5127 384.247 57.2666 385.161 57.2666 386.351ZM66.3633 390.147C66.3633 389.866 66.4453 389.632 66.6094 389.444C66.7793 389.257 67.0312 389.163 67.3652 389.163C67.6992 389.163 67.9512 389.257 68.1211 389.444C68.2969 389.632 68.3848 389.866 68.3848 390.147C68.3848 390.417 68.2969 390.643 68.1211 390.824C67.9512 391.006 67.6992 391.097 67.3652 391.097C67.0312 391.097 66.7793 391.006 66.6094 390.824C66.4453 390.643 66.3633 390.417 66.3633 390.147ZM84.2842 379.592H80.1709V391H78.4922V379.592H74.3877V378.203H84.2842V379.592ZM88.9951 391.176C87.7061 391.176 86.6572 390.754 85.8486 389.91C85.04 389.061 84.6357 387.927 84.6357 386.509V386.21C84.6357 385.267 84.8145 384.426 85.1719 383.688C85.5352 382.943 86.0391 382.363 86.6836 381.947C87.334 381.525 88.0371 381.314 88.793 381.314C90.0293 381.314 90.9902 381.722 91.6758 382.536C92.3613 383.351 92.7041 384.517 92.7041 386.034V386.711H86.2617C86.2852 387.648 86.5576 388.407 87.0791 388.987C87.6064 389.562 88.2744 389.849 89.083 389.849C89.6572 389.849 90.1436 389.731 90.542 389.497C90.9404 389.263 91.2891 388.952 91.5879 388.565L92.5811 389.339C91.7842 390.563 90.5889 391.176 88.9951 391.176ZM88.793 382.65C88.1367 382.65 87.5859 382.891 87.1406 383.371C86.6953 383.846 86.4199 384.514 86.3145 385.375H91.0781V385.252C91.0312 384.426 90.8086 383.787 90.4102 383.336C90.0117 382.879 89.4727 382.65 88.793 382.65ZM96.3604 391H94.7344V377.5H96.3604V391ZM102.917 391.176C101.628 391.176 100.579 390.754 99.7705 389.91C98.9619 389.061 98.5576 387.927 98.5576 386.509V386.21C98.5576 385.267 98.7363 384.426 99.0938 383.688C99.457 382.943 99.9609 382.363 100.605 381.947C101.256 381.525 101.959 381.314 102.715 381.314C103.951 381.314 104.912 381.722 105.598 382.536C106.283 383.351 106.626 384.517 106.626 386.034V386.711H100.184C100.207 387.648 100.479 388.407 101.001 388.987C101.528 389.562 102.196 389.849 103.005 389.849C103.579 389.849 104.065 389.731 104.464 389.497C104.862 389.263 105.211 388.952 105.51 388.565L106.503 389.339C105.706 390.563 104.511 391.176 102.917 391.176ZM102.715 382.65C102.059 382.65 101.508 382.891 101.062 383.371C100.617 383.846 100.342 384.514 100.236 385.375H105V385.252C104.953 384.426 104.73 383.787 104.332 383.336C103.934 382.879 103.395 382.65 102.715 382.65ZM116.549 386.351C116.549 387.798 116.218 388.964 115.556 389.849C114.894 390.733 113.997 391.176 112.866 391.176C111.712 391.176 110.804 390.81 110.142 390.077V394.656H108.516V381.49H110.001L110.08 382.545C110.742 381.725 111.662 381.314 112.84 381.314C113.982 381.314 114.885 381.745 115.547 382.606C116.215 383.468 116.549 384.666 116.549 386.201V386.351ZM114.923 386.166C114.923 385.094 114.694 384.247 114.237 383.626C113.78 383.005 113.153 382.694 112.356 382.694C111.372 382.694 110.634 383.131 110.142 384.004V388.548C110.628 389.415 111.372 389.849 112.374 389.849C113.153 389.849 113.771 389.541 114.229 388.926C114.691 388.305 114.923 387.385 114.923 386.166ZM118.192 386.157C118.192 385.226 118.374 384.388 118.737 383.644C119.106 382.899 119.616 382.325 120.267 381.921C120.923 381.517 121.67 381.314 122.508 381.314C123.803 381.314 124.849 381.763 125.646 382.659C126.448 383.556 126.85 384.748 126.85 386.236V386.351C126.85 387.276 126.671 388.108 126.313 388.847C125.962 389.579 125.455 390.15 124.793 390.561C124.137 390.971 123.381 391.176 122.525 391.176C121.236 391.176 120.19 390.728 119.388 389.831C118.591 388.935 118.192 387.748 118.192 386.271V386.157ZM119.827 386.351C119.827 387.405 120.07 388.252 120.557 388.891C121.049 389.529 121.705 389.849 122.525 389.849C123.352 389.849 124.008 389.526 124.494 388.882C124.98 388.231 125.224 387.323 125.224 386.157C125.224 385.114 124.975 384.271 124.477 383.626C123.984 382.976 123.328 382.65 122.508 382.65C121.705 382.65 121.058 382.97 120.565 383.608C120.073 384.247 119.827 385.161 119.827 386.351ZM130.427 381.49L130.479 382.686C131.206 381.771 132.155 381.314 133.327 381.314C135.337 381.314 136.351 382.448 136.368 384.716V391H134.742V384.707C134.736 384.021 134.578 383.515 134.268 383.187C133.963 382.858 133.485 382.694 132.835 382.694C132.308 382.694 131.845 382.835 131.446 383.116C131.048 383.397 130.737 383.767 130.515 384.224V391H128.889V381.49H130.427Z" fill="black"/>
<path d="M51.3271 547.592H47.2139V559H45.5352V547.592H41.4307V546.203H51.3271V547.592ZM57.8398 559C57.7461 558.812 57.6699 558.479 57.6113 557.998C56.8555 558.783 55.9531 559.176 54.9043 559.176C53.9668 559.176 53.1963 558.912 52.5928 558.385C51.9951 557.852 51.6963 557.178 51.6963 556.363C51.6963 555.373 52.0713 554.605 52.8213 554.061C53.5771 553.51 54.6377 553.234 56.0029 553.234H57.585V552.487C57.585 551.919 57.415 551.468 57.0752 551.134C56.7354 550.794 56.2344 550.624 55.5723 550.624C54.9922 550.624 54.5059 550.771 54.1133 551.063C53.7207 551.356 53.5244 551.711 53.5244 552.127H51.8896C51.8896 551.652 52.0566 551.195 52.3906 550.756C52.7305 550.311 53.1875 549.959 53.7617 549.701C54.3418 549.443 54.9775 549.314 55.6689 549.314C56.7646 549.314 57.623 549.59 58.2441 550.141C58.8652 550.686 59.1875 551.438 59.2109 552.399V556.776C59.2109 557.649 59.3223 558.344 59.5449 558.859V559H57.8398ZM55.1416 557.761C55.6514 557.761 56.1348 557.629 56.5918 557.365C57.0488 557.102 57.3799 556.759 57.585 556.337V554.386H56.3105C54.3184 554.386 53.3223 554.969 53.3223 556.135C53.3223 556.645 53.4922 557.043 53.832 557.33C54.1719 557.617 54.6084 557.761 55.1416 557.761ZM63.2979 549.49L63.3506 550.686C64.0771 549.771 65.0264 549.314 66.1982 549.314C68.208 549.314 69.2217 550.448 69.2393 552.716V559H67.6133V552.707C67.6074 552.021 67.4492 551.515 67.1387 551.187C66.834 550.858 66.3564 550.694 65.7061 550.694C65.1787 550.694 64.7158 550.835 64.3174 551.116C63.9189 551.397 63.6084 551.767 63.3857 552.224V559H61.7598V549.49H63.2979ZM71.3047 554.166C71.3047 552.684 71.6475 551.506 72.333 550.633C73.0186 549.754 73.9268 549.314 75.0576 549.314C76.2178 549.314 77.123 549.725 77.7734 550.545L77.8525 549.49H79.3379V558.771C79.3379 560.002 78.9717 560.972 78.2393 561.681C77.5127 562.39 76.5342 562.744 75.3037 562.744C74.6182 562.744 73.9473 562.598 73.291 562.305C72.6348 562.012 72.1338 561.61 71.7881 561.101L72.6318 560.125C73.3291 560.986 74.1816 561.417 75.1895 561.417C75.9805 561.417 76.5957 561.194 77.0352 560.749C77.4805 560.304 77.7031 559.677 77.7031 558.868V558.051C77.0527 558.801 76.165 559.176 75.04 559.176C73.9268 559.176 73.0244 558.728 72.333 557.831C71.6475 556.935 71.3047 555.713 71.3047 554.166ZM72.9395 554.351C72.9395 555.423 73.1592 556.267 73.5986 556.882C74.0381 557.491 74.6533 557.796 75.4443 557.796C76.4697 557.796 77.2227 557.33 77.7031 556.398V552.057C77.2051 551.148 76.458 550.694 75.4619 550.694C74.6709 550.694 74.0527 551.002 73.6074 551.617C73.1621 552.232 72.9395 553.144 72.9395 554.351ZM81.4121 554.166C81.4121 552.684 81.7549 551.506 82.4404 550.633C83.126 549.754 84.0342 549.314 85.165 549.314C86.3252 549.314 87.2305 549.725 87.8809 550.545L87.96 549.49H89.4453V558.771C89.4453 560.002 89.0791 560.972 88.3467 561.681C87.6201 562.39 86.6416 562.744 85.4111 562.744C84.7256 562.744 84.0547 562.598 83.3984 562.305C82.7422 562.012 82.2412 561.61 81.8955 561.101L82.7393 560.125C83.4365 560.986 84.2891 561.417 85.2969 561.417C86.0879 561.417 86.7031 561.194 87.1426 560.749C87.5879 560.304 87.8105 559.677 87.8105 558.868V558.051C87.1602 558.801 86.2725 559.176 85.1475 559.176C84.0342 559.176 83.1318 558.728 82.4404 557.831C81.7549 556.935 81.4121 555.713 81.4121 554.166ZM83.0469 554.351C83.0469 555.423 83.2666 556.267 83.7061 556.882C84.1455 557.491 84.7607 557.796 85.5518 557.796C86.5771 557.796 87.3301 557.33 87.8105 556.398V552.057C87.3125 551.148 86.5654 550.694 85.5693 550.694C84.7783 550.694 84.1602 551.002 83.7148 551.617C83.2695 552.232 83.0469 553.144 83.0469 554.351ZM97.7773 559C97.6836 558.812 97.6074 558.479 97.5488 557.998C96.793 558.783 95.8906 559.176 94.8418 559.176C93.9043 559.176 93.1338 558.912 92.5303 558.385C91.9326 557.852 91.6338 557.178 91.6338 556.363C91.6338 555.373 92.0088 554.605 92.7588 554.061C93.5146 553.51 94.5752 553.234 95.9404 553.234H97.5225V552.487C97.5225 551.919 97.3525 551.468 97.0127 551.134C96.6729 550.794 96.1719 550.624 95.5098 550.624C94.9297 550.624 94.4434 550.771 94.0508 551.063C93.6582 551.356 93.4619 551.711 93.4619 552.127H91.8271C91.8271 551.652 91.9941 551.195 92.3281 550.756C92.668 550.311 93.125 549.959 93.6992 549.701C94.2793 549.443 94.915 549.314 95.6064 549.314C96.7021 549.314 97.5605 549.59 98.1816 550.141C98.8027 550.686 99.125 551.438 99.1484 552.399V556.776C99.1484 557.649 99.2598 558.344 99.4824 558.859V559H97.7773ZM95.0791 557.761C95.5889 557.761 96.0723 557.629 96.5293 557.365C96.9863 557.102 97.3174 556.759 97.5225 556.337V554.386H96.248C94.2559 554.386 93.2598 554.969 93.2598 556.135C93.2598 556.645 93.4297 557.043 93.7695 557.33C94.1094 557.617 94.5459 557.761 95.0791 557.761ZM103.464 559H101.838V545.5H103.464V559Z" fill="black"/>
<path d="M45.1729 637.99V643H43.4854V630.203H48.2051C49.6055 630.203 50.7012 630.561 51.4922 631.275C52.2891 631.99 52.6875 632.937 52.6875 634.114C52.6875 635.356 52.2979 636.314 51.5186 636.988C50.7451 637.656 49.6348 637.99 48.1875 637.99H45.1729ZM45.1729 636.61H48.2051C49.1074 636.61 49.7988 636.399 50.2793 635.978C50.7598 635.55 51 634.935 51 634.132C51 633.37 50.7598 632.761 50.2793 632.304C49.7988 631.847 49.1396 631.609 48.3018 631.592H45.1729V636.61ZM58.4092 643.176C57.1201 643.176 56.0713 642.754 55.2627 641.91C54.4541 641.061 54.0498 639.927 54.0498 638.509V638.21C54.0498 637.267 54.2285 636.426 54.5859 635.688C54.9492 634.943 55.4531 634.363 56.0977 633.947C56.748 633.525 57.4512 633.314 58.207 633.314C59.4434 633.314 60.4043 633.722 61.0898 634.536C61.7754 635.351 62.1182 636.517 62.1182 638.034V638.711H55.6758C55.6992 639.648 55.9717 640.407 56.4932 640.987C57.0205 641.562 57.6885 641.849 58.4971 641.849C59.0713 641.849 59.5576 641.731 59.9561 641.497C60.3545 641.263 60.7031 640.952 61.002 640.565L61.9951 641.339C61.1982 642.563 60.0029 643.176 58.4092 643.176ZM58.207 634.65C57.5508 634.65 57 634.891 56.5547 635.371C56.1094 635.846 55.834 636.514 55.7285 637.375H60.4922V637.252C60.4453 636.426 60.2227 635.787 59.8242 635.336C59.4258 634.879 58.8867 634.65 58.207 634.65ZM69.5449 640.478C69.5449 640.038 69.3779 639.698 69.0439 639.458C68.7158 639.212 68.1387 639.001 67.3125 638.825C66.4922 638.649 65.8389 638.438 65.3525 638.192C64.8721 637.946 64.5146 637.653 64.2803 637.313C64.0518 636.974 63.9375 636.569 63.9375 636.101C63.9375 635.321 64.2656 634.662 64.9219 634.123C65.584 633.584 66.4277 633.314 67.4531 633.314C68.5312 633.314 69.4043 633.593 70.0723 634.149C70.7461 634.706 71.083 635.418 71.083 636.285H69.4482C69.4482 635.84 69.2578 635.456 68.877 635.134C68.502 634.812 68.0273 634.65 67.4531 634.65C66.8613 634.65 66.3984 634.779 66.0645 635.037C65.7305 635.295 65.5635 635.632 65.5635 636.048C65.5635 636.44 65.7188 636.736 66.0293 636.936C66.3398 637.135 66.8994 637.325 67.708 637.507C68.5225 637.688 69.1816 637.905 69.6855 638.157C70.1895 638.409 70.5615 638.714 70.8018 639.071C71.0479 639.423 71.1709 639.854 71.1709 640.363C71.1709 641.213 70.8311 641.896 70.1514 642.411C69.4717 642.921 68.5898 643.176 67.5059 643.176C66.7441 643.176 66.0703 643.041 65.4844 642.771C64.8984 642.502 64.4385 642.127 64.1045 641.646C63.7764 641.16 63.6123 640.636 63.6123 640.073H65.2383C65.2676 640.618 65.4844 641.052 65.8887 641.374C66.2988 641.69 66.8379 641.849 67.5059 641.849C68.1211 641.849 68.6133 641.726 68.9824 641.479C69.3574 641.228 69.5449 640.894 69.5449 640.478ZM79.1602 643C79.0664 642.812 78.9902 642.479 78.9316 641.998C78.1758 642.783 77.2734 643.176 76.2246 643.176C75.2871 643.176 74.5166 642.912 73.9131 642.385C73.3154 641.852 73.0166 641.178 73.0166 640.363C73.0166 639.373 73.3916 638.605 74.1416 638.061C74.8975 637.51 75.958 637.234 77.3232 637.234H78.9053V636.487C78.9053 635.919 78.7354 635.468 78.3955 635.134C78.0557 634.794 77.5547 634.624 76.8926 634.624C76.3125 634.624 75.8262 634.771 75.4336 635.063C75.041 635.356 74.8447 635.711 74.8447 636.127H73.21C73.21 635.652 73.377 635.195 73.7109 634.756C74.0508 634.311 74.5078 633.959 75.082 633.701C75.6621 633.443 76.2979 633.314 76.9893 633.314C78.085 633.314 78.9434 633.59 79.5645 634.141C80.1855 634.686 80.5078 635.438 80.5312 636.399V640.776C80.5312 641.649 80.6426 642.344 80.8652 642.859V643H79.1602ZM76.4619 641.761C76.9717 641.761 77.4551 641.629 77.9121 641.365C78.3691 641.102 78.7002 640.759 78.9053 640.337V638.386H77.6309C75.6387 638.386 74.6426 638.969 74.6426 640.135C74.6426 640.645 74.8125 641.043 75.1523 641.33C75.4922 641.617 75.9287 641.761 76.4619 641.761ZM84.6182 633.49L84.6709 634.686C85.3975 633.771 86.3467 633.314 87.5186 633.314C89.5283 633.314 90.542 634.448 90.5596 636.716V643H88.9336V636.707C88.9277 636.021 88.7695 635.515 88.459 635.187C88.1543 634.858 87.6768 634.694 87.0264 634.694C86.499 634.694 86.0361 634.835 85.6377 635.116C85.2393 635.397 84.9287 635.767 84.7061 636.224V643H83.0801V633.49H84.6182ZM98.8828 643C98.7891 642.812 98.7129 642.479 98.6543 641.998C97.8984 642.783 96.9961 643.176 95.9473 643.176C95.0098 643.176 94.2393 642.912 93.6357 642.385C93.0381 641.852 92.7393 641.178 92.7393 640.363C92.7393 639.373 93.1143 638.605 93.8643 638.061C94.6201 637.51 95.6807 637.234 97.0459 637.234H98.6279V636.487C98.6279 635.919 98.458 635.468 98.1182 635.134C97.7783 634.794 97.2773 634.624 96.6152 634.624C96.0352 634.624 95.5488 634.771 95.1562 635.063C94.7637 635.356 94.5674 635.711 94.5674 636.127H92.9326C92.9326 635.652 93.0996 635.195 93.4336 634.756C93.7734 634.311 94.2305 633.959 94.8047 633.701C95.3848 633.443 96.0205 633.314 96.7119 633.314C97.8076 633.314 98.666 633.59 99.2871 634.141C99.9082 634.686 100.23 635.438 100.254 636.399V640.776C100.254 641.649 100.365 642.344 100.588 642.859V643H98.8828ZM96.1846 641.761C96.6943 641.761 97.1777 641.629 97.6348 641.365C98.0918 641.102 98.4229 640.759 98.6279 640.337V638.386H97.3535C95.3613 638.386 94.3652 638.969 94.3652 640.135C94.3652 640.645 94.5352 641.043 94.875 641.33C95.2148 641.617 95.6514 641.761 96.1846 641.761ZM104.341 633.49L104.394 634.686C105.12 633.771 106.069 633.314 107.241 633.314C109.251 633.314 110.265 634.448 110.282 636.716V643H108.656V636.707C108.65 636.021 108.492 635.515 108.182 635.187C107.877 634.858 107.399 634.694 106.749 634.694C106.222 634.694 105.759 634.835 105.36 635.116C104.962 635.397 104.651 635.767 104.429 636.224V643H102.803V633.49H104.341Z" fill="black"/>
<path d="M258.245 554.966L258.491 556.653L258.852 555.133L261.383 546.203H262.807L265.276 555.133L265.628 556.68L265.9 554.957L267.887 546.203H269.583L266.48 559H264.942L262.306 549.675L262.104 548.699L261.901 549.675L259.168 559H257.63L254.536 546.203H256.224L258.245 554.966ZM276.781 559C276.688 558.812 276.611 558.479 276.553 557.998C275.797 558.783 274.895 559.176 273.846 559.176C272.908 559.176 272.138 558.912 271.534 558.385C270.937 557.852 270.638 557.178 270.638 556.363C270.638 555.373 271.013 554.605 271.763 554.061C272.519 553.51 273.579 553.234 274.944 553.234H276.526V552.487C276.526 551.919 276.356 551.468 276.017 551.134C275.677 550.794 275.176 550.624 274.514 550.624C273.934 550.624 273.447 550.771 273.055 551.063C272.662 551.356 272.466 551.711 272.466 552.127H270.831C270.831 551.652 270.998 551.195 271.332 550.756C271.672 550.311 272.129 549.959 272.703 549.701C273.283 549.443 273.919 549.314 274.61 549.314C275.706 549.314 276.564 549.59 277.186 550.141C277.807 550.686 278.129 551.438 278.152 552.399V556.776C278.152 557.649 278.264 558.344 278.486 558.859V559H276.781ZM274.083 557.761C274.593 557.761 275.076 557.629 275.533 557.365C275.99 557.102 276.321 556.759 276.526 556.337V554.386H275.252C273.26 554.386 272.264 554.969 272.264 556.135C272.264 556.645 272.434 557.043 272.773 557.33C273.113 557.617 273.55 557.761 274.083 557.761ZM283.355 554.597L282.336 555.66V559H280.71V545.5H282.336V553.665L283.206 552.619L286.168 549.49H288.146L284.445 553.463L288.576 559H286.669L283.355 554.597ZM292.03 547.188V549.49H293.806V550.747H292.03V556.645C292.03 557.025 292.109 557.312 292.268 557.506C292.426 557.693 292.695 557.787 293.076 557.787C293.264 557.787 293.521 557.752 293.85 557.682V559C293.422 559.117 293.006 559.176 292.602 559.176C291.875 559.176 291.327 558.956 290.958 558.517C290.589 558.077 290.404 557.453 290.404 556.645V550.747H288.673V549.49H290.404V547.188H292.03ZM301.584 558.06C300.951 558.804 300.022 559.176 298.798 559.176C297.784 559.176 297.011 558.883 296.478 558.297C295.95 557.705 295.684 556.832 295.678 555.678V549.49H297.304V555.634C297.304 557.075 297.89 557.796 299.062 557.796C300.304 557.796 301.13 557.333 301.54 556.407V549.49H303.166V559H301.619L301.584 558.06Z" fill="black"/>
<path d="M48.8467 461.203H50.543V470.265C50.543 471.489 50.1738 472.447 49.4355 473.139C48.7031 473.83 47.7246 474.176 46.5 474.176C45.2285 474.176 44.2383 473.851 43.5293 473.2C42.8203 472.55 42.4658 471.639 42.4658 470.467H44.1533C44.1533 471.199 44.3525 471.771 44.751 472.181C45.1553 472.591 45.7383 472.796 46.5 472.796C47.1973 472.796 47.7598 472.576 48.1875 472.137C48.6211 471.697 48.8408 471.082 48.8467 470.291V461.203ZM59.0332 473.06C58.4004 473.804 57.4717 474.176 56.2471 474.176C55.2334 474.176 54.46 473.883 53.9268 473.297C53.3994 472.705 53.1328 471.832 53.127 470.678V464.49H54.7529V470.634C54.7529 472.075 55.3389 472.796 56.5107 472.796C57.7529 472.796 58.5791 472.333 58.9893 471.407V464.49H60.6152V474H59.0684L59.0332 473.06ZM64.623 464.49L64.667 465.545C65.3643 464.725 66.3047 464.314 67.4883 464.314C68.8184 464.314 69.7236 464.824 70.2041 465.844C70.5205 465.387 70.9307 465.018 71.4346 464.736C71.9443 464.455 72.5449 464.314 73.2363 464.314C75.3223 464.314 76.3828 465.419 76.418 467.628V474H74.792V467.725C74.792 467.045 74.6367 466.538 74.3262 466.204C74.0156 465.864 73.4941 465.694 72.7617 465.694C72.1582 465.694 71.6572 465.876 71.2588 466.239C70.8604 466.597 70.6289 467.08 70.5645 467.689V474H68.9297V467.769C68.9297 466.386 68.2529 465.694 66.8994 465.694C65.833 465.694 65.1035 466.148 64.7109 467.057V474H63.085V464.49H64.623ZM80.6455 474H79.0195V460.5H80.6455V474ZM89.127 474C89.0332 473.812 88.957 473.479 88.8984 472.998C88.1426 473.783 87.2402 474.176 86.1914 474.176C85.2539 474.176 84.4834 473.912 83.8799 473.385C83.2822 472.852 82.9834 472.178 82.9834 471.363C82.9834 470.373 83.3584 469.605 84.1084 469.061C84.8643 468.51 85.9248 468.234 87.29 468.234H88.8721V467.487C88.8721 466.919 88.7021 466.468 88.3623 466.134C88.0225 465.794 87.5215 465.624 86.8594 465.624C86.2793 465.624 85.793 465.771 85.4004 466.063C85.0078 466.356 84.8115 466.711 84.8115 467.127H83.1768C83.1768 466.652 83.3438 466.195 83.6777 465.756C84.0176 465.311 84.4746 464.959 85.0488 464.701C85.6289 464.443 86.2646 464.314 86.9561 464.314C88.0518 464.314 88.9102 464.59 89.5312 465.141C90.1523 465.686 90.4746 466.438 90.498 467.399V471.776C90.498 472.649 90.6094 473.344 90.832 473.859V474H89.127ZM86.4287 472.761C86.9385 472.761 87.4219 472.629 87.8789 472.365C88.3359 472.102 88.667 471.759 88.8721 471.337V469.386H87.5977C85.6055 469.386 84.6094 469.969 84.6094 471.135C84.6094 471.645 84.7793 472.043 85.1191 472.33C85.459 472.617 85.8955 472.761 86.4287 472.761ZM94.6729 465.642C95.3936 464.757 96.3311 464.314 97.4854 464.314C99.4951 464.314 100.509 465.448 100.526 467.716V474H98.9004V467.707C98.8945 467.021 98.7363 466.515 98.4258 466.187C98.1211 465.858 97.6436 465.694 96.9932 465.694C96.4658 465.694 96.0029 465.835 95.6045 466.116C95.2061 466.397 94.8955 466.767 94.6729 467.224V474H93.0469V460.5H94.6729V465.642ZM116.171 462.592H112.058V474H110.379V462.592H106.274V461.203H116.171V462.592ZM122.684 474C122.59 473.812 122.514 473.479 122.455 472.998C121.699 473.783 120.797 474.176 119.748 474.176C118.811 474.176 118.04 473.912 117.437 473.385C116.839 472.852 116.54 472.178 116.54 471.363C116.54 470.373 116.915 469.605 117.665 469.061C118.421 468.51 119.481 468.234 120.847 468.234H122.429V467.487C122.429 466.919 122.259 466.468 121.919 466.134C121.579 465.794 121.078 465.624 120.416 465.624C119.836 465.624 119.35 465.771 118.957 466.063C118.564 466.356 118.368 466.711 118.368 467.127H116.733C116.733 466.652 116.9 466.195 117.234 465.756C117.574 465.311 118.031 464.959 118.605 464.701C119.186 464.443 119.821 464.314 120.513 464.314C121.608 464.314 122.467 464.59 123.088 465.141C123.709 465.686 124.031 466.438 124.055 467.399V471.776C124.055 472.649 124.166 473.344 124.389 473.859V474H122.684ZM119.985 472.761C120.495 472.761 120.979 472.629 121.436 472.365C121.893 472.102 122.224 471.759 122.429 471.337V469.386H121.154C119.162 469.386 118.166 469.969 118.166 471.135C118.166 471.645 118.336 472.043 118.676 472.33C119.016 472.617 119.452 472.761 119.985 472.761ZM128.133 464.49L128.177 465.545C128.874 464.725 129.814 464.314 130.998 464.314C132.328 464.314 133.233 464.824 133.714 465.844C134.03 465.387 134.44 465.018 134.944 464.736C135.454 464.455 136.055 464.314 136.746 464.314C138.832 464.314 139.893 465.419 139.928 467.628V474H138.302V467.725C138.302 467.045 138.146 466.538 137.836 466.204C137.525 465.864 137.004 465.694 136.271 465.694C135.668 465.694 135.167 465.876 134.769 466.239C134.37 466.597 134.139 467.08 134.074 467.689V474H132.439V467.769C132.439 466.386 131.763 465.694 130.409 465.694C129.343 465.694 128.613 466.148 128.221 467.057V474H126.595V464.49H128.133ZM148.26 473.06C147.627 473.804 146.698 474.176 145.474 474.176C144.46 474.176 143.687 473.883 143.153 473.297C142.626 472.705 142.359 471.832 142.354 470.678V464.49H143.979V470.634C143.979 472.075 144.565 472.796 145.737 472.796C146.979 472.796 147.806 472.333 148.216 471.407V464.49H149.842V474H148.295L148.26 473.06Z" fill="black"/>
<rect x="42.5" y="315.5" width="293" height="41" fill="#E5E5E5" stroke="black"/>
<rect x="42.5" y="399.5" width="293" height="41" fill="#E5E5E5" stroke="black"/>
<rect x="42.5" y="652.5" width="293" height="41" fill="#E5E5E5" stroke="black"/>
<rect x="41.5" y="567.5" width="169" height="41" fill="#E5E5E5" stroke="black"/>
<rect x="254.5" y="567.5" width="81" height="41" fill="#E5E5E5" stroke="black"/>
<circle cx="63" cy="504" r="20.5" fill="#8E8A8A" stroke="black"/>
<circle cx="116" cy="504" r="20.5" fill="#8E8A8A" stroke="black"/>
<circle cx="169" cy="504" r="20.5" fill="#8E8A8A" stroke="black"/>
<circle cx="222" cy="504" r="20.5" fill="#8E8A8A" stroke="black"/>
<circle cx="275" cy="504" r="20.5" fill="#8E8A8A" stroke="black"/>
<circle cx="328" cy="504" r="20.5" fill="#8E8A8A" stroke="black"/>
<circle cx="381" cy="504" r="20.5" fill="#8E8A8A" stroke="black"/>
<path d="M64.3535 510H62.7188V499.163L59.4404 500.367V498.891L64.0986 497.142H64.3535V510Z" fill="black"/>
<path d="M120.395 510H112.01V508.831L116.439 503.909C117.096 503.165 117.547 502.562 117.793 502.099C118.045 501.63 118.171 501.146 118.171 500.648C118.171 499.98 117.969 499.433 117.564 499.005C117.16 498.577 116.621 498.363 115.947 498.363C115.139 498.363 114.509 498.595 114.058 499.058C113.612 499.515 113.39 500.153 113.39 500.974H111.764C111.764 499.796 112.142 498.844 112.897 498.117C113.659 497.391 114.676 497.027 115.947 497.027C117.137 497.027 118.077 497.341 118.769 497.968C119.46 498.589 119.806 499.418 119.806 500.455C119.806 501.715 119.003 503.215 117.397 504.955L113.97 508.673H120.395V510Z" fill="black"/>
<path d="M167.374 502.811H168.596C169.363 502.799 169.967 502.597 170.406 502.204C170.846 501.812 171.065 501.281 171.065 500.613C171.065 499.113 170.318 498.363 168.824 498.363C168.121 498.363 167.559 498.565 167.137 498.97C166.721 499.368 166.513 499.898 166.513 500.561H164.887C164.887 499.547 165.256 498.706 165.994 498.038C166.738 497.364 167.682 497.027 168.824 497.027C170.031 497.027 170.978 497.347 171.663 497.985C172.349 498.624 172.691 499.512 172.691 500.648C172.691 501.205 172.51 501.744 172.146 502.266C171.789 502.787 171.3 503.177 170.679 503.435C171.382 503.657 171.924 504.026 172.305 504.542C172.691 505.058 172.885 505.688 172.885 506.432C172.885 507.58 172.51 508.491 171.76 509.165C171.01 509.839 170.034 510.176 168.833 510.176C167.632 510.176 166.653 509.851 165.897 509.2C165.147 508.55 164.772 507.691 164.772 506.625H166.407C166.407 507.299 166.627 507.838 167.066 508.242C167.506 508.646 168.095 508.849 168.833 508.849C169.618 508.849 170.219 508.644 170.635 508.233C171.051 507.823 171.259 507.234 171.259 506.467C171.259 505.723 171.03 505.151 170.573 504.753C170.116 504.354 169.457 504.149 168.596 504.138H167.374V502.811Z" fill="black"/>
<path d="M224.874 505.702H226.649V507.029H224.874V510H223.239V507.029H217.412V506.071L223.143 497.203H224.874V505.702ZM219.258 505.702H223.239V499.427L223.046 499.778L219.258 505.702Z" fill="black"/>
<path d="M271.757 503.584L272.407 497.203H278.964V498.706H273.787L273.4 502.195C274.027 501.826 274.739 501.642 275.536 501.642C276.702 501.642 277.628 502.028 278.313 502.802C278.999 503.569 279.342 504.609 279.342 505.922C279.342 507.24 278.984 508.28 278.27 509.042C277.561 509.798 276.567 510.176 275.29 510.176C274.159 510.176 273.236 509.862 272.521 509.235C271.807 508.608 271.399 507.741 271.3 506.634H272.838C272.938 507.366 273.198 507.92 273.62 508.295C274.042 508.664 274.599 508.849 275.29 508.849C276.046 508.849 276.638 508.591 277.065 508.075C277.499 507.56 277.716 506.848 277.716 505.939C277.716 505.084 277.481 504.398 277.013 503.883C276.55 503.361 275.932 503.101 275.158 503.101C274.449 503.101 273.893 503.256 273.488 503.566L273.058 503.918L271.757 503.584Z" fill="black"/>
<path d="M330.391 497.194V498.574H330.092C328.826 498.598 327.818 498.973 327.068 499.699C326.318 500.426 325.885 501.448 325.768 502.767C326.441 501.993 327.361 501.606 328.527 501.606C329.641 501.606 330.528 501.999 331.19 502.784C331.858 503.569 332.192 504.583 332.192 505.825C332.192 507.144 331.832 508.198 331.111 508.989C330.396 509.78 329.436 510.176 328.229 510.176C327.004 510.176 326.011 509.707 325.249 508.77C324.487 507.826 324.106 506.613 324.106 505.131V504.507C324.106 502.151 324.607 500.353 325.609 499.11C326.617 497.862 328.114 497.224 330.101 497.194H330.391ZM328.255 502.96C327.698 502.96 327.186 503.127 326.717 503.461C326.248 503.795 325.923 504.214 325.741 504.718V505.315C325.741 506.37 325.979 507.22 326.453 507.864C326.928 508.509 327.52 508.831 328.229 508.831C328.961 508.831 329.535 508.562 329.951 508.022C330.373 507.483 330.584 506.777 330.584 505.904C330.584 505.025 330.37 504.316 329.942 503.777C329.521 503.232 328.958 502.96 328.255 502.96Z" fill="black"/>
<path d="M198.509 591.794L200.864 584.49H202.525L199.115 594H197.876L194.431 584.49H196.092L198.509 591.794Z" fill="black"/>
<path d="M323.509 591.794L325.864 584.49H327.525L324.115 594H322.876L319.431 584.49H321.092L323.509 591.794Z" fill="black"/>
<path d="M323.509 676.794L325.864 669.49H327.525L324.115 679H322.876L319.431 669.49H321.092L323.509 676.794Z" fill="black"/>
<rect x="315.5" y="21.5" width="41" height="41" fill="white" stroke="black"/>
<line x1="315.349" y1="20.6422" x2="357.349" y2="61.6422" stroke="black"/>
<line x1="357.349" y1="21.3578" x2="315.349" y2="62.3578" stroke="black"/>
</g>
<rect x="0.5" y="0.5" width="374" height="811" stroke="black"/>
<defs>
<clipPath id="clip0_27_212">
<rect width="375" height="812" fill="white"/>
</clipPath>
</defs>
</svg>
