<svg width="375" height="812" viewBox="0 0 375 812" fill="none" xmlns="http://www.w3.org/2000/svg">
<rect x="0.5" y="0.5" width="374" height="811" fill="#E5E5E5"/>
<rect x="0.5" y="0.5" width="374" height="811" stroke="black"/>
<rect x="42.5" y="123.5" width="293" height="191" fill="white" stroke="black"/>
<path d="M80.2793 350.62H86.3438V352H78.583V339.203H80.2793V350.62ZM87.583 347.157C87.583 346.226 87.7646 345.388 88.1279 344.644C88.4971 343.899 89.0068 343.325 89.6572 342.921C90.3135 342.517 91.0605 342.314 91.8984 342.314C93.1934 342.314 94.2393 342.763 95.0361 343.659C95.8389 344.556 96.2402 345.748 96.2402 347.236V347.351C96.2402 348.276 96.0615 349.108 95.7041 349.847C95.3525 350.579 94.8457 351.15 94.1836 351.561C93.5273 351.971 92.7715 352.176 91.916 352.176C90.627 352.176 89.5811 351.728 88.7783 350.831C87.9814 349.935 87.583 348.748 87.583 347.271V347.157ZM89.2178 347.351C89.2178 348.405 89.4609 349.252 89.9473 349.891C90.4395 350.529 91.0957 350.849 91.916 350.849C92.7422 350.849 93.3984 350.526 93.8848 349.882C94.3711 349.231 94.6143 348.323 94.6143 347.157C94.6143 346.114 94.3652 345.271 93.8672 344.626C93.375 343.976 92.7188 343.65 91.8984 343.65C91.0957 343.65 90.4482 343.97 89.9561 344.608C89.4639 345.247 89.2178 346.161 89.2178 347.351ZM102.876 343.949C102.63 343.908 102.363 343.888 102.076 343.888C101.01 343.888 100.286 344.342 99.9053 345.25V352H98.2793V342.49H99.8613L99.8877 343.589C100.421 342.739 101.177 342.314 102.155 342.314C102.472 342.314 102.712 342.355 102.876 342.438V343.949ZM108.149 352.176C106.86 352.176 105.812 351.754 105.003 350.91C104.194 350.061 103.79 348.927 103.79 347.509V347.21C103.79 346.267 103.969 345.426 104.326 344.688C104.689 343.943 105.193 343.363 105.838 342.947C106.488 342.525 107.191 342.314 107.947 342.314C109.184 342.314 110.145 342.722 110.83 343.536C111.516 344.351 111.858 345.517 111.858 347.034V347.711H105.416C105.439 348.648 105.712 349.407 106.233 349.987C106.761 350.562 107.429 350.849 108.237 350.849C108.812 350.849 109.298 350.731 109.696 350.497C110.095 350.263 110.443 349.952 110.742 349.565L111.735 350.339C110.938 351.563 109.743 352.176 108.149 352.176ZM107.947 343.65C107.291 343.65 106.74 343.891 106.295 344.371C105.85 344.846 105.574 345.514 105.469 346.375H110.232V346.252C110.186 345.426 109.963 344.787 109.564 344.336C109.166 343.879 108.627 343.65 107.947 343.65ZM115.277 342.49L115.321 343.545C116.019 342.725 116.959 342.314 118.143 342.314C119.473 342.314 120.378 342.824 120.858 343.844C121.175 343.387 121.585 343.018 122.089 342.736C122.599 342.455 123.199 342.314 123.891 342.314C125.977 342.314 127.037 343.419 127.072 345.628V352H125.446V345.725C125.446 345.045 125.291 344.538 124.98 344.204C124.67 343.864 124.148 343.694 123.416 343.694C122.812 343.694 122.312 343.876 121.913 344.239C121.515 344.597 121.283 345.08 121.219 345.689V352H119.584V345.769C119.584 344.386 118.907 343.694 117.554 343.694C116.487 343.694 115.758 344.148 115.365 345.057V352H113.739V342.49H115.277ZM135.765 352H134.139V342.49H135.765V352ZM134.007 339.968C134.007 339.704 134.086 339.481 134.244 339.3C134.408 339.118 134.648 339.027 134.965 339.027C135.281 339.027 135.521 339.118 135.686 339.3C135.85 339.481 135.932 339.704 135.932 339.968C135.932 340.231 135.85 340.451 135.686 340.627C135.521 340.803 135.281 340.891 134.965 340.891C134.648 340.891 134.408 340.803 134.244 340.627C134.086 340.451 134.007 340.231 134.007 339.968ZM146.408 347.351C146.408 348.798 146.077 349.964 145.415 350.849C144.753 351.733 143.856 352.176 142.726 352.176C141.571 352.176 140.663 351.81 140.001 351.077V355.656H138.375V342.49H139.86L139.939 343.545C140.602 342.725 141.521 342.314 142.699 342.314C143.842 342.314 144.744 342.745 145.406 343.606C146.074 344.468 146.408 345.666 146.408 347.201V347.351ZM144.782 347.166C144.782 346.094 144.554 345.247 144.097 344.626C143.64 344.005 143.013 343.694 142.216 343.694C141.231 343.694 140.493 344.131 140.001 345.004V349.548C140.487 350.415 141.231 350.849 142.233 350.849C143.013 350.849 143.631 350.541 144.088 349.926C144.551 349.305 144.782 348.385 144.782 347.166ZM154.02 349.478C154.02 349.038 153.853 348.698 153.519 348.458C153.19 348.212 152.613 348.001 151.787 347.825C150.967 347.649 150.313 347.438 149.827 347.192C149.347 346.946 148.989 346.653 148.755 346.313C148.526 345.974 148.412 345.569 148.412 345.101C148.412 344.321 148.74 343.662 149.396 343.123C150.059 342.584 150.902 342.314 151.928 342.314C153.006 342.314 153.879 342.593 154.547 343.149C155.221 343.706 155.558 344.418 155.558 345.285H153.923C153.923 344.84 153.732 344.456 153.352 344.134C152.977 343.812 152.502 343.65 151.928 343.65C151.336 343.65 150.873 343.779 150.539 344.037C150.205 344.295 150.038 344.632 150.038 345.048C150.038 345.44 150.193 345.736 150.504 345.936C150.814 346.135 151.374 346.325 152.183 346.507C152.997 346.688 153.656 346.905 154.16 347.157C154.664 347.409 155.036 347.714 155.276 348.071C155.522 348.423 155.646 348.854 155.646 349.363C155.646 350.213 155.306 350.896 154.626 351.411C153.946 351.921 153.064 352.176 151.98 352.176C151.219 352.176 150.545 352.041 149.959 351.771C149.373 351.502 148.913 351.127 148.579 350.646C148.251 350.16 148.087 349.636 148.087 349.073H149.713C149.742 349.618 149.959 350.052 150.363 350.374C150.773 350.69 151.312 350.849 151.98 350.849C152.596 350.849 153.088 350.726 153.457 350.479C153.832 350.228 154.02 349.894 154.02 349.478ZM163.635 351.06C163.002 351.804 162.073 352.176 160.849 352.176C159.835 352.176 159.062 351.883 158.528 351.297C158.001 350.705 157.734 349.832 157.729 348.678V342.49H159.354V348.634C159.354 350.075 159.94 350.796 161.112 350.796C162.354 350.796 163.181 350.333 163.591 349.407V342.49H165.217V352H163.67L163.635 351.06ZM169.225 342.49L169.269 343.545C169.966 342.725 170.906 342.314 172.09 342.314C173.42 342.314 174.325 342.824 174.806 343.844C175.122 343.387 175.532 343.018 176.036 342.736C176.546 342.455 177.146 342.314 177.838 342.314C179.924 342.314 180.984 343.419 181.02 345.628V352H179.394V345.725C179.394 345.045 179.238 344.538 178.928 344.204C178.617 343.864 178.096 343.694 177.363 343.694C176.76 343.694 176.259 343.876 175.86 344.239C175.462 344.597 175.23 345.08 175.166 345.689V352H173.531V345.769C173.531 344.386 172.854 343.694 171.501 343.694C170.435 343.694 169.705 344.148 169.312 345.057V352H167.687V342.49H169.225ZM187.55 347.166C187.55 345.707 187.896 344.535 188.587 343.65C189.278 342.76 190.184 342.314 191.303 342.314C192.416 342.314 193.298 342.695 193.948 343.457V338.5H195.574V352H194.08L194.001 350.98C193.351 351.777 192.445 352.176 191.285 352.176C190.184 352.176 189.284 351.725 188.587 350.822C187.896 349.92 187.55 348.742 187.55 347.289V347.166ZM189.176 347.351C189.176 348.429 189.398 349.272 189.844 349.882C190.289 350.491 190.904 350.796 191.689 350.796C192.721 350.796 193.474 350.333 193.948 349.407V345.039C193.462 344.143 192.715 343.694 191.707 343.694C190.91 343.694 190.289 344.002 189.844 344.617C189.398 345.232 189.176 346.144 189.176 347.351ZM197.675 347.157C197.675 346.226 197.856 345.388 198.22 344.644C198.589 343.899 199.099 343.325 199.749 342.921C200.405 342.517 201.152 342.314 201.99 342.314C203.285 342.314 204.331 342.763 205.128 343.659C205.931 344.556 206.332 345.748 206.332 347.236V347.351C206.332 348.276 206.153 349.108 205.796 349.847C205.444 350.579 204.938 351.15 204.275 351.561C203.619 351.971 202.863 352.176 202.008 352.176C200.719 352.176 199.673 351.728 198.87 350.831C198.073 349.935 197.675 348.748 197.675 347.271V347.157ZM199.31 347.351C199.31 348.405 199.553 349.252 200.039 349.891C200.531 350.529 201.188 350.849 202.008 350.849C202.834 350.849 203.49 350.526 203.977 349.882C204.463 349.231 204.706 348.323 204.706 347.157C204.706 346.114 204.457 345.271 203.959 344.626C203.467 343.976 202.811 343.65 201.99 343.65C201.188 343.65 200.54 343.97 200.048 344.608C199.556 345.247 199.31 346.161 199.31 347.351ZM210.138 352H208.512V338.5H210.138V352ZM212.317 347.157C212.317 346.226 212.499 345.388 212.862 344.644C213.231 343.899 213.741 343.325 214.392 342.921C215.048 342.517 215.795 342.314 216.633 342.314C217.928 342.314 218.974 342.763 219.771 343.659C220.573 344.556 220.975 345.748 220.975 347.236V347.351C220.975 348.276 220.796 349.108 220.438 349.847C220.087 350.579 219.58 351.15 218.918 351.561C218.262 351.971 217.506 352.176 216.65 352.176C215.361 352.176 214.315 351.728 213.513 350.831C212.716 349.935 212.317 348.748 212.317 347.271V347.157ZM213.952 347.351C213.952 348.405 214.195 349.252 214.682 349.891C215.174 350.529 215.83 350.849 216.65 350.849C217.477 350.849 218.133 350.526 218.619 349.882C219.105 349.231 219.349 348.323 219.349 347.157C219.349 346.114 219.1 345.271 218.602 344.626C218.109 343.976 217.453 343.65 216.633 343.65C215.83 343.65 215.183 343.97 214.69 344.608C214.198 345.247 213.952 346.161 213.952 347.351ZM227.61 343.949C227.364 343.908 227.098 343.888 226.811 343.888C225.744 343.888 225.021 344.342 224.64 345.25V352H223.014V342.49H224.596L224.622 343.589C225.155 342.739 225.911 342.314 226.89 342.314C227.206 342.314 227.446 342.355 227.61 342.438V343.949ZM239.115 349.478C239.115 349.038 238.948 348.698 238.614 348.458C238.286 348.212 237.709 348.001 236.883 347.825C236.062 347.649 235.409 347.438 234.923 347.192C234.442 346.946 234.085 346.653 233.851 346.313C233.622 345.974 233.508 345.569 233.508 345.101C233.508 344.321 233.836 343.662 234.492 343.123C235.154 342.584 235.998 342.314 237.023 342.314C238.102 342.314 238.975 342.593 239.643 343.149C240.316 343.706 240.653 344.418 240.653 345.285H239.019C239.019 344.84 238.828 344.456 238.447 344.134C238.072 343.812 237.598 343.65 237.023 343.65C236.432 343.65 235.969 343.779 235.635 344.037C235.301 344.295 235.134 344.632 235.134 345.048C235.134 345.44 235.289 345.736 235.6 345.936C235.91 346.135 236.47 346.325 237.278 346.507C238.093 346.688 238.752 346.905 239.256 347.157C239.76 347.409 240.132 347.714 240.372 348.071C240.618 348.423 240.741 348.854 240.741 349.363C240.741 350.213 240.401 350.896 239.722 351.411C239.042 351.921 238.16 352.176 237.076 352.176C236.314 352.176 235.641 352.041 235.055 351.771C234.469 351.502 234.009 351.127 233.675 350.646C233.347 350.16 233.183 349.636 233.183 349.073H234.809C234.838 349.618 235.055 350.052 235.459 350.374C235.869 350.69 236.408 350.849 237.076 350.849C237.691 350.849 238.184 350.726 238.553 350.479C238.928 350.228 239.115 349.894 239.115 349.478ZM244.626 352H243V342.49H244.626V352ZM242.868 339.968C242.868 339.704 242.947 339.481 243.105 339.3C243.27 339.118 243.51 339.027 243.826 339.027C244.143 339.027 244.383 339.118 244.547 339.3C244.711 339.481 244.793 339.704 244.793 339.968C244.793 340.231 244.711 340.451 244.547 340.627C244.383 340.803 244.143 340.891 243.826 340.891C243.51 340.891 243.27 340.803 243.105 340.627C242.947 340.451 242.868 340.231 242.868 339.968ZM249.442 340.188V342.49H251.218V343.747H249.442V349.645C249.442 350.025 249.521 350.312 249.68 350.506C249.838 350.693 250.107 350.787 250.488 350.787C250.676 350.787 250.934 350.752 251.262 350.682V352C250.834 352.117 250.418 352.176 250.014 352.176C249.287 352.176 248.739 351.956 248.37 351.517C248.001 351.077 247.816 350.453 247.816 349.645V343.747H246.085V342.49H247.816V340.188H249.442ZM263.461 352C263.367 351.812 263.291 351.479 263.232 350.998C262.477 351.783 261.574 352.176 260.525 352.176C259.588 352.176 258.817 351.912 258.214 351.385C257.616 350.852 257.317 350.178 257.317 349.363C257.317 348.373 257.692 347.605 258.442 347.061C259.198 346.51 260.259 346.234 261.624 346.234H263.206V345.487C263.206 344.919 263.036 344.468 262.696 344.134C262.356 343.794 261.855 343.624 261.193 343.624C260.613 343.624 260.127 343.771 259.734 344.063C259.342 344.356 259.146 344.711 259.146 345.127H257.511C257.511 344.652 257.678 344.195 258.012 343.756C258.352 343.311 258.809 342.959 259.383 342.701C259.963 342.443 260.599 342.314 261.29 342.314C262.386 342.314 263.244 342.59 263.865 343.141C264.486 343.686 264.809 344.438 264.832 345.399V349.776C264.832 350.649 264.943 351.344 265.166 351.859V352H263.461ZM260.763 350.761C261.272 350.761 261.756 350.629 262.213 350.365C262.67 350.102 263.001 349.759 263.206 349.337V347.386H261.932C259.939 347.386 258.943 347.969 258.943 349.135C258.943 349.645 259.113 350.043 259.453 350.33C259.793 350.617 260.229 350.761 260.763 350.761ZM268.91 342.49L268.954 343.545C269.651 342.725 270.592 342.314 271.775 342.314C273.105 342.314 274.011 342.824 274.491 343.844C274.808 343.387 275.218 343.018 275.722 342.736C276.231 342.455 276.832 342.314 277.523 342.314C279.609 342.314 280.67 343.419 280.705 345.628V352H279.079V345.725C279.079 345.045 278.924 344.538 278.613 344.204C278.303 343.864 277.781 343.694 277.049 343.694C276.445 343.694 275.944 343.876 275.546 344.239C275.147 344.597 274.916 345.08 274.852 345.689V352H273.217V345.769C273.217 344.386 272.54 343.694 271.187 343.694C270.12 343.694 269.391 344.148 268.998 345.057V352H267.372V342.49H268.91ZM287.112 352.176C285.823 352.176 284.774 351.754 283.966 350.91C283.157 350.061 282.753 348.927 282.753 347.509V347.21C282.753 346.267 282.932 345.426 283.289 344.688C283.652 343.943 284.156 343.363 284.801 342.947C285.451 342.525 286.154 342.314 286.91 342.314C288.146 342.314 289.107 342.722 289.793 343.536C290.479 344.351 290.821 345.517 290.821 347.034V347.711H284.379C284.402 348.648 284.675 349.407 285.196 349.987C285.724 350.562 286.392 350.849 287.2 350.849C287.774 350.849 288.261 350.731 288.659 350.497C289.058 350.263 289.406 349.952 289.705 349.565L290.698 350.339C289.901 351.563 288.706 352.176 287.112 352.176ZM286.91 343.65C286.254 343.65 285.703 343.891 285.258 344.371C284.812 344.846 284.537 345.514 284.432 346.375H289.195V346.252C289.148 345.426 288.926 344.787 288.527 344.336C288.129 343.879 287.59 343.65 286.91 343.65ZM294.917 340.188V342.49H296.692V343.747H294.917V349.645C294.917 350.025 294.996 350.312 295.154 350.506C295.312 350.693 295.582 350.787 295.963 350.787C296.15 350.787 296.408 350.752 296.736 350.682V352C296.309 352.117 295.893 352.176 295.488 352.176C294.762 352.176 294.214 351.956 293.845 351.517C293.476 351.077 293.291 350.453 293.291 349.645V343.747H291.56V342.49H293.291V340.188H294.917ZM298.547 354.549L297.624 353.916C298.175 353.148 298.462 352.357 298.485 351.543V350.075H300.076V351.35C300.076 351.941 299.93 352.533 299.637 353.125C299.35 353.717 298.986 354.191 298.547 354.549ZM86.5371 371.849C87.1172 371.849 87.624 371.673 88.0576 371.321C88.4912 370.97 88.7314 370.53 88.7783 370.003H90.3164C90.2871 370.548 90.0996 371.066 89.7539 371.559C89.4082 372.051 88.9453 372.443 88.3652 372.736C87.791 373.029 87.1816 373.176 86.5371 373.176C85.2422 373.176 84.2109 372.745 83.4434 371.884C82.6816 371.017 82.3008 369.833 82.3008 368.333V368.061C82.3008 367.135 82.4707 366.312 82.8105 365.591C83.1504 364.87 83.6367 364.311 84.2695 363.912C84.9082 363.514 85.6611 363.314 86.5283 363.314C87.5947 363.314 88.4795 363.634 89.1826 364.272C89.8916 364.911 90.2695 365.74 90.3164 366.76H88.7783C88.7314 366.145 88.4971 365.641 88.0752 365.248C87.6592 364.85 87.1436 364.65 86.5283 364.65C85.7021 364.65 85.0605 364.949 84.6035 365.547C84.1523 366.139 83.9268 366.997 83.9268 368.122V368.43C83.9268 369.525 84.1523 370.369 84.6035 370.961C85.0547 371.553 85.6992 371.849 86.5371 371.849ZM91.7139 368.157C91.7139 367.226 91.8955 366.388 92.2588 365.644C92.6279 364.899 93.1377 364.325 93.7881 363.921C94.4443 363.517 95.1914 363.314 96.0293 363.314C97.3242 363.314 98.3701 363.763 99.167 364.659C99.9697 365.556 100.371 366.748 100.371 368.236V368.351C100.371 369.276 100.192 370.108 99.835 370.847C99.4834 371.579 98.9766 372.15 98.3145 372.561C97.6582 372.971 96.9023 373.176 96.0469 373.176C94.7578 373.176 93.7119 372.728 92.9092 371.831C92.1123 370.935 91.7139 369.748 91.7139 368.271V368.157ZM93.3486 368.351C93.3486 369.405 93.5918 370.252 94.0781 370.891C94.5703 371.529 95.2266 371.849 96.0469 371.849C96.873 371.849 97.5293 371.526 98.0156 370.882C98.502 370.231 98.7451 369.323 98.7451 368.157C98.7451 367.114 98.4961 366.271 97.998 365.626C97.5059 364.976 96.8496 364.65 96.0293 364.65C95.2266 364.65 94.5791 364.97 94.0869 365.608C93.5947 366.247 93.3486 367.161 93.3486 368.351ZM103.948 363.49L104.001 364.686C104.728 363.771 105.677 363.314 106.849 363.314C108.858 363.314 109.872 364.448 109.89 366.716V373H108.264V366.707C108.258 366.021 108.1 365.515 107.789 365.187C107.484 364.858 107.007 364.694 106.356 364.694C105.829 364.694 105.366 364.835 104.968 365.116C104.569 365.397 104.259 365.767 104.036 366.224V373H102.41V363.49H103.948ZM117.879 370.478C117.879 370.038 117.712 369.698 117.378 369.458C117.05 369.212 116.473 369.001 115.646 368.825C114.826 368.649 114.173 368.438 113.687 368.192C113.206 367.946 112.849 367.653 112.614 367.313C112.386 366.974 112.271 366.569 112.271 366.101C112.271 365.321 112.6 364.662 113.256 364.123C113.918 363.584 114.762 363.314 115.787 363.314C116.865 363.314 117.738 363.593 118.406 364.149C119.08 364.706 119.417 365.418 119.417 366.285H117.782C117.782 365.84 117.592 365.456 117.211 365.134C116.836 364.812 116.361 364.65 115.787 364.65C115.195 364.65 114.732 364.779 114.398 365.037C114.064 365.295 113.897 365.632 113.897 366.048C113.897 366.44 114.053 366.736 114.363 366.936C114.674 367.135 115.233 367.325 116.042 367.507C116.856 367.688 117.516 367.905 118.02 368.157C118.523 368.409 118.896 368.714 119.136 369.071C119.382 369.423 119.505 369.854 119.505 370.363C119.505 371.213 119.165 371.896 118.485 372.411C117.806 372.921 116.924 373.176 115.84 373.176C115.078 373.176 114.404 373.041 113.818 372.771C113.232 372.502 112.772 372.127 112.438 371.646C112.11 371.16 111.946 370.636 111.946 370.073H113.572C113.602 370.618 113.818 371.052 114.223 371.374C114.633 371.69 115.172 371.849 115.84 371.849C116.455 371.849 116.947 371.726 117.316 371.479C117.691 371.228 117.879 370.894 117.879 370.478ZM125.569 373.176C124.28 373.176 123.231 372.754 122.423 371.91C121.614 371.061 121.21 369.927 121.21 368.509V368.21C121.21 367.267 121.389 366.426 121.746 365.688C122.109 364.943 122.613 364.363 123.258 363.947C123.908 363.525 124.611 363.314 125.367 363.314C126.604 363.314 127.564 363.722 128.25 364.536C128.936 365.351 129.278 366.517 129.278 368.034V368.711H122.836C122.859 369.648 123.132 370.407 123.653 370.987C124.181 371.562 124.849 371.849 125.657 371.849C126.231 371.849 126.718 371.731 127.116 371.497C127.515 371.263 127.863 370.952 128.162 370.565L129.155 371.339C128.358 372.563 127.163 373.176 125.569 373.176ZM125.367 364.65C124.711 364.65 124.16 364.891 123.715 365.371C123.27 365.846 122.994 366.514 122.889 367.375H127.652V367.252C127.605 366.426 127.383 365.787 126.984 365.336C126.586 364.879 126.047 364.65 125.367 364.65ZM134.982 371.849C135.562 371.849 136.069 371.673 136.503 371.321C136.937 370.97 137.177 370.53 137.224 370.003H138.762C138.732 370.548 138.545 371.066 138.199 371.559C137.854 372.051 137.391 372.443 136.811 372.736C136.236 373.029 135.627 373.176 134.982 373.176C133.688 373.176 132.656 372.745 131.889 371.884C131.127 371.017 130.746 369.833 130.746 368.333V368.061C130.746 367.135 130.916 366.312 131.256 365.591C131.596 364.87 132.082 364.311 132.715 363.912C133.354 363.514 134.106 363.314 134.974 363.314C136.04 363.314 136.925 363.634 137.628 364.272C138.337 364.911 138.715 365.74 138.762 366.76H137.224C137.177 366.145 136.942 365.641 136.521 365.248C136.104 364.85 135.589 364.65 134.974 364.65C134.147 364.65 133.506 364.949 133.049 365.547C132.598 366.139 132.372 366.997 132.372 368.122V368.43C132.372 369.525 132.598 370.369 133.049 370.961C133.5 371.553 134.145 371.849 134.982 371.849ZM142.796 361.188V363.49H144.571V364.747H142.796V370.645C142.796 371.025 142.875 371.312 143.033 371.506C143.191 371.693 143.461 371.787 143.842 371.787C144.029 371.787 144.287 371.752 144.615 371.682V373C144.188 373.117 143.771 373.176 143.367 373.176C142.641 373.176 142.093 372.956 141.724 372.517C141.354 372.077 141.17 371.453 141.17 370.645V364.747H139.438V363.49H141.17V361.188H142.796ZM150.425 373.176C149.136 373.176 148.087 372.754 147.278 371.91C146.47 371.061 146.065 369.927 146.065 368.509V368.21C146.065 367.267 146.244 366.426 146.602 365.688C146.965 364.943 147.469 364.363 148.113 363.947C148.764 363.525 149.467 363.314 150.223 363.314C151.459 363.314 152.42 363.722 153.105 364.536C153.791 365.351 154.134 366.517 154.134 368.034V368.711H147.691C147.715 369.648 147.987 370.407 148.509 370.987C149.036 371.562 149.704 371.849 150.513 371.849C151.087 371.849 151.573 371.731 151.972 371.497C152.37 371.263 152.719 370.952 153.018 370.565L154.011 371.339C153.214 372.563 152.019 373.176 150.425 373.176ZM150.223 364.65C149.566 364.65 149.016 364.891 148.57 365.371C148.125 365.846 147.85 366.514 147.744 367.375H152.508V367.252C152.461 366.426 152.238 365.787 151.84 365.336C151.441 364.879 150.902 364.65 150.223 364.65ZM158.229 361.188V363.49H160.005V364.747H158.229V370.645C158.229 371.025 158.309 371.312 158.467 371.506C158.625 371.693 158.895 371.787 159.275 371.787C159.463 371.787 159.721 371.752 160.049 371.682V373C159.621 373.117 159.205 373.176 158.801 373.176C158.074 373.176 157.526 372.956 157.157 372.517C156.788 372.077 156.604 371.453 156.604 370.645V364.747H154.872V363.49H156.604V361.188H158.229ZM167.783 372.06C167.15 372.804 166.222 373.176 164.997 373.176C163.983 373.176 163.21 372.883 162.677 372.297C162.149 371.705 161.883 370.832 161.877 369.678V363.49H163.503V369.634C163.503 371.075 164.089 371.796 165.261 371.796C166.503 371.796 167.329 371.333 167.739 370.407V363.49H169.365V373H167.818L167.783 372.06ZM176.44 364.949C176.194 364.908 175.928 364.888 175.641 364.888C174.574 364.888 173.851 365.342 173.47 366.25V373H171.844V363.49H173.426L173.452 364.589C173.985 363.739 174.741 363.314 175.72 363.314C176.036 363.314 176.276 363.355 176.44 363.438V364.949ZM188.279 373C188.186 372.812 188.109 372.479 188.051 371.998C187.295 372.783 186.393 373.176 185.344 373.176C184.406 373.176 183.636 372.912 183.032 372.385C182.435 371.852 182.136 371.178 182.136 370.363C182.136 369.373 182.511 368.605 183.261 368.061C184.017 367.51 185.077 367.234 186.442 367.234H188.024V366.487C188.024 365.919 187.854 365.468 187.515 365.134C187.175 364.794 186.674 364.624 186.012 364.624C185.432 364.624 184.945 364.771 184.553 365.063C184.16 365.356 183.964 365.711 183.964 366.127H182.329C182.329 365.652 182.496 365.195 182.83 364.756C183.17 364.311 183.627 363.959 184.201 363.701C184.781 363.443 185.417 363.314 186.108 363.314C187.204 363.314 188.062 363.59 188.684 364.141C189.305 364.686 189.627 365.438 189.65 366.399V370.776C189.65 371.649 189.762 372.344 189.984 372.859V373H188.279ZM185.581 371.761C186.091 371.761 186.574 371.629 187.031 371.365C187.488 371.102 187.819 370.759 188.024 370.337V368.386H186.75C184.758 368.386 183.762 368.969 183.762 370.135C183.762 370.645 183.932 371.043 184.271 371.33C184.611 371.617 185.048 371.761 185.581 371.761ZM191.804 368.166C191.804 366.707 192.149 365.535 192.841 364.65C193.532 363.76 194.438 363.314 195.557 363.314C196.67 363.314 197.552 363.695 198.202 364.457V359.5H199.828V373H198.334L198.255 371.98C197.604 372.777 196.699 373.176 195.539 373.176C194.438 373.176 193.538 372.725 192.841 371.822C192.149 370.92 191.804 369.742 191.804 368.289V368.166ZM193.43 368.351C193.43 369.429 193.652 370.272 194.098 370.882C194.543 371.491 195.158 371.796 195.943 371.796C196.975 371.796 197.728 371.333 198.202 370.407V366.039C197.716 365.143 196.969 364.694 195.961 364.694C195.164 364.694 194.543 365.002 194.098 365.617C193.652 366.232 193.43 367.144 193.43 368.351ZM204.126 373H202.5V363.49H204.126V373ZM202.368 360.968C202.368 360.704 202.447 360.481 202.605 360.3C202.77 360.118 203.01 360.027 203.326 360.027C203.643 360.027 203.883 360.118 204.047 360.3C204.211 360.481 204.293 360.704 204.293 360.968C204.293 361.231 204.211 361.451 204.047 361.627C203.883 361.803 203.643 361.891 203.326 361.891C203.01 361.891 202.77 361.803 202.605 361.627C202.447 361.451 202.368 361.231 202.368 360.968ZM214.77 368.351C214.77 369.798 214.438 370.964 213.776 371.849C213.114 372.733 212.218 373.176 211.087 373.176C209.933 373.176 209.024 372.81 208.362 372.077V376.656H206.736V363.49H208.222L208.301 364.545C208.963 363.725 209.883 363.314 211.061 363.314C212.203 363.314 213.105 363.745 213.768 364.606C214.436 365.468 214.77 366.666 214.77 368.201V368.351ZM213.144 368.166C213.144 367.094 212.915 366.247 212.458 365.626C212.001 365.005 211.374 364.694 210.577 364.694C209.593 364.694 208.854 365.131 208.362 366.004V370.548C208.849 371.415 209.593 371.849 210.595 371.849C211.374 371.849 211.992 371.541 212.449 370.926C212.912 370.305 213.144 369.385 213.144 368.166ZM218.61 373H216.984V363.49H218.61V373ZM216.853 360.968C216.853 360.704 216.932 360.481 217.09 360.3C217.254 360.118 217.494 360.027 217.811 360.027C218.127 360.027 218.367 360.118 218.531 360.3C218.695 360.481 218.777 360.704 218.777 360.968C218.777 361.231 218.695 361.451 218.531 361.627C218.367 361.803 218.127 361.891 217.811 361.891C217.494 361.891 217.254 361.803 217.09 361.627C216.932 361.451 216.853 361.231 216.853 360.968ZM226.758 370.478C226.758 370.038 226.591 369.698 226.257 369.458C225.929 369.212 225.352 369.001 224.525 368.825C223.705 368.649 223.052 368.438 222.565 368.192C222.085 367.946 221.728 367.653 221.493 367.313C221.265 366.974 221.15 366.569 221.15 366.101C221.15 365.321 221.479 364.662 222.135 364.123C222.797 363.584 223.641 363.314 224.666 363.314C225.744 363.314 226.617 363.593 227.285 364.149C227.959 364.706 228.296 365.418 228.296 366.285H226.661C226.661 365.84 226.471 365.456 226.09 365.134C225.715 364.812 225.24 364.65 224.666 364.65C224.074 364.65 223.611 364.779 223.277 365.037C222.943 365.295 222.776 365.632 222.776 366.048C222.776 366.44 222.932 366.736 223.242 366.936C223.553 367.135 224.112 367.325 224.921 367.507C225.735 367.688 226.395 367.905 226.898 368.157C227.402 368.409 227.774 368.714 228.015 369.071C228.261 369.423 228.384 369.854 228.384 370.363C228.384 371.213 228.044 371.896 227.364 372.411C226.685 372.921 225.803 373.176 224.719 373.176C223.957 373.176 223.283 373.041 222.697 372.771C222.111 372.502 221.651 372.127 221.317 371.646C220.989 371.16 220.825 370.636 220.825 370.073H222.451C222.48 370.618 222.697 371.052 223.102 371.374C223.512 371.69 224.051 371.849 224.719 371.849C225.334 371.849 225.826 371.726 226.195 371.479C226.57 371.228 226.758 370.894 226.758 370.478ZM234.316 371.849C234.896 371.849 235.403 371.673 235.837 371.321C236.271 370.97 236.511 370.53 236.558 370.003H238.096C238.066 370.548 237.879 371.066 237.533 371.559C237.188 372.051 236.725 372.443 236.145 372.736C235.57 373.029 234.961 373.176 234.316 373.176C233.021 373.176 231.99 372.745 231.223 371.884C230.461 371.017 230.08 369.833 230.08 368.333V368.061C230.08 367.135 230.25 366.312 230.59 365.591C230.93 364.87 231.416 364.311 232.049 363.912C232.688 363.514 233.44 363.314 234.308 363.314C235.374 363.314 236.259 363.634 236.962 364.272C237.671 364.911 238.049 365.74 238.096 366.76H236.558C236.511 366.145 236.276 365.641 235.854 365.248C235.438 364.85 234.923 364.65 234.308 364.65C233.481 364.65 232.84 364.949 232.383 365.547C231.932 366.139 231.706 366.997 231.706 368.122V368.43C231.706 369.525 231.932 370.369 232.383 370.961C232.834 371.553 233.479 371.849 234.316 371.849ZM241.69 373H240.064V363.49H241.69V373ZM239.933 360.968C239.933 360.704 240.012 360.481 240.17 360.3C240.334 360.118 240.574 360.027 240.891 360.027C241.207 360.027 241.447 360.118 241.611 360.3C241.775 360.481 241.857 360.704 241.857 360.968C241.857 361.231 241.775 361.451 241.611 361.627C241.447 361.803 241.207 361.891 240.891 361.891C240.574 361.891 240.334 361.803 240.17 361.627C240.012 361.451 239.933 361.231 239.933 360.968ZM245.839 363.49L245.892 364.686C246.618 363.771 247.567 363.314 248.739 363.314C250.749 363.314 251.763 364.448 251.78 366.716V373H250.154V366.707C250.148 366.021 249.99 365.515 249.68 365.187C249.375 364.858 248.897 364.694 248.247 364.694C247.72 364.694 247.257 364.835 246.858 365.116C246.46 365.397 246.149 365.767 245.927 366.224V373H244.301V363.49H245.839ZM253.846 368.166C253.846 366.684 254.188 365.506 254.874 364.633C255.56 363.754 256.468 363.314 257.599 363.314C258.759 363.314 259.664 363.725 260.314 364.545L260.394 363.49H261.879V372.771C261.879 374.002 261.513 374.972 260.78 375.681C260.054 376.39 259.075 376.744 257.845 376.744C257.159 376.744 256.488 376.598 255.832 376.305C255.176 376.012 254.675 375.61 254.329 375.101L255.173 374.125C255.87 374.986 256.723 375.417 257.73 375.417C258.521 375.417 259.137 375.194 259.576 374.749C260.021 374.304 260.244 373.677 260.244 372.868V372.051C259.594 372.801 258.706 373.176 257.581 373.176C256.468 373.176 255.565 372.728 254.874 371.831C254.188 370.935 253.846 369.713 253.846 368.166ZM255.48 368.351C255.48 369.423 255.7 370.267 256.14 370.882C256.579 371.491 257.194 371.796 257.985 371.796C259.011 371.796 259.764 371.33 260.244 370.398V366.057C259.746 365.148 258.999 364.694 258.003 364.694C257.212 364.694 256.594 365.002 256.148 365.617C255.703 366.232 255.48 367.144 255.48 368.351ZM272.751 373.176C271.462 373.176 270.413 372.754 269.604 371.91C268.796 371.061 268.392 369.927 268.392 368.509V368.21C268.392 367.267 268.57 366.426 268.928 365.688C269.291 364.943 269.795 364.363 270.439 363.947C271.09 363.525 271.793 363.314 272.549 363.314C273.785 363.314 274.746 363.722 275.432 364.536C276.117 365.351 276.46 366.517 276.46 368.034V368.711H270.018C270.041 369.648 270.313 370.407 270.835 370.987C271.362 371.562 272.03 371.849 272.839 371.849C273.413 371.849 273.899 371.731 274.298 371.497C274.696 371.263 275.045 370.952 275.344 370.565L276.337 371.339C275.54 372.563 274.345 373.176 272.751 373.176ZM272.549 364.65C271.893 364.65 271.342 364.891 270.896 365.371C270.451 365.846 270.176 366.514 270.07 367.375H274.834V367.252C274.787 366.426 274.564 365.787 274.166 365.336C273.768 364.879 273.229 364.65 272.549 364.65ZM280.116 373H278.49V359.5H280.116V373ZM284.493 373H282.867V363.49H284.493V373ZM282.735 360.968C282.735 360.704 282.814 360.481 282.973 360.3C283.137 360.118 283.377 360.027 283.693 360.027C284.01 360.027 284.25 360.118 284.414 360.3C284.578 360.481 284.66 360.704 284.66 360.968C284.66 361.231 284.578 361.451 284.414 361.627C284.25 361.803 284.01 361.891 283.693 361.891C283.377 361.891 283.137 361.803 282.973 361.627C282.814 361.451 282.735 361.231 282.735 360.968ZM289.31 361.188V363.49H291.085V364.747H289.31V370.645C289.31 371.025 289.389 371.312 289.547 371.506C289.705 371.693 289.975 371.787 290.355 371.787C290.543 371.787 290.801 371.752 291.129 371.682V373C290.701 373.117 290.285 373.176 289.881 373.176C289.154 373.176 288.606 372.956 288.237 372.517C287.868 372.077 287.684 371.453 287.684 370.645V364.747H285.952V363.49H287.684V361.188H289.31ZM293.027 372.147C293.027 371.866 293.109 371.632 293.273 371.444C293.443 371.257 293.695 371.163 294.029 371.163C294.363 371.163 294.615 371.257 294.785 371.444C294.961 371.632 295.049 371.866 295.049 372.147C295.049 372.417 294.961 372.643 294.785 372.824C294.615 373.006 294.363 373.097 294.029 373.097C293.695 373.097 293.443 373.006 293.273 372.824C293.109 372.643 293.027 372.417 293.027 372.147Z" fill="black"/>
<path d="M107.477 240.48H131.734V246H100.691V194.812H107.477V240.48ZM176.488 222.059C176.488 227.074 175.645 231.457 173.957 235.207C172.27 238.934 169.879 241.781 166.785 243.75C163.691 245.719 160.082 246.703 155.957 246.703C151.926 246.703 148.352 245.719 145.234 243.75C142.117 241.758 139.691 238.934 137.957 235.277C136.246 231.598 135.367 227.344 135.32 222.516V218.824C135.32 213.902 136.176 209.555 137.887 205.781C139.598 202.008 142.012 199.125 145.129 197.133C148.27 195.117 151.855 194.109 155.887 194.109C159.988 194.109 163.598 195.105 166.715 197.098C169.855 199.066 172.27 201.938 173.957 205.711C175.645 209.461 176.488 213.832 176.488 218.824V222.059ZM169.773 218.754C169.773 212.684 168.555 208.031 166.117 204.797C163.68 201.539 160.27 199.91 155.887 199.91C151.621 199.91 148.258 201.539 145.797 204.797C143.359 208.031 142.105 212.531 142.035 218.297V222.059C142.035 227.941 143.266 232.57 145.727 235.945C148.211 239.297 151.621 240.973 155.957 240.973C160.316 240.973 163.691 239.391 166.082 236.227C168.473 233.039 169.703 228.48 169.773 222.551V218.754ZM224.406 239.285C222.672 241.77 220.246 243.633 217.129 244.875C214.035 246.094 210.426 246.703 206.301 246.703C202.129 246.703 198.426 245.73 195.191 243.785C191.957 241.816 189.449 239.027 187.668 235.418C185.91 231.809 185.008 227.625 184.961 222.867V218.402C184.961 210.691 186.754 204.715 190.34 200.473C193.949 196.23 199.012 194.109 205.527 194.109C210.871 194.109 215.172 195.48 218.43 198.223C221.688 200.941 223.68 204.809 224.406 209.824H217.656C216.391 203.051 212.359 199.664 205.562 199.664C201.039 199.664 197.605 201.258 195.262 204.445C192.941 207.609 191.77 212.203 191.746 218.227V222.41C191.746 228.152 193.059 232.723 195.684 236.121C198.309 239.496 201.859 241.184 206.336 241.184C208.867 241.184 211.082 240.902 212.98 240.34C214.879 239.777 216.449 238.828 217.691 237.492V225.996H205.844V220.512H224.406V239.285ZM275.066 222.059C275.066 227.074 274.223 231.457 272.535 235.207C270.848 238.934 268.457 241.781 265.363 243.75C262.27 245.719 258.66 246.703 254.535 246.703C250.504 246.703 246.93 245.719 243.812 243.75C240.695 241.758 238.27 238.934 236.535 235.277C234.824 231.598 233.945 227.344 233.898 222.516V218.824C233.898 213.902 234.754 209.555 236.465 205.781C238.176 202.008 240.59 199.125 243.707 197.133C246.848 195.117 250.434 194.109 254.465 194.109C258.566 194.109 262.176 195.105 265.293 197.098C268.434 199.066 270.848 201.938 272.535 205.711C274.223 209.461 275.066 213.832 275.066 218.824V222.059ZM268.352 218.754C268.352 212.684 267.133 208.031 264.695 204.797C262.258 201.539 258.848 199.91 254.465 199.91C250.199 199.91 246.836 201.539 244.375 204.797C241.938 208.031 240.684 212.531 240.613 218.297V222.059C240.613 227.941 241.844 232.57 244.305 235.945C246.789 239.297 250.199 240.973 254.535 240.973C258.895 240.973 262.27 239.391 264.66 236.227C267.051 233.039 268.281 228.48 268.352 222.551V218.754Z" fill="black"/>
<rect x="30.5" y="525.5" width="315" height="41" fill="white" stroke="black"/>
<rect x="30.5" y="464.5" width="315" height="41" fill="white" stroke="black"/>
<path d="M49.4287 475.359V485.994C49.4215 487.469 48.9561 488.676 48.0322 489.614C47.1156 490.552 45.8695 491.079 44.2939 491.193L43.7461 491.215C42.0345 491.215 40.6702 490.753 39.6533 489.829C38.6364 488.905 38.1208 487.634 38.1064 486.016V475.359H40.1475V485.951C40.1475 487.083 40.459 487.964 41.082 488.594C41.7051 489.217 42.5931 489.528 43.7461 489.528C44.9134 489.528 45.805 489.217 46.4209 488.594C47.0439 487.971 47.3555 487.093 47.3555 485.962V475.359H49.4287ZM59.1396 487.917C59.1396 487.38 58.9355 486.965 58.5273 486.671C58.1263 486.37 57.4209 486.112 56.4111 485.897C55.4085 485.683 54.61 485.425 54.0156 485.124C53.4284 484.823 52.9915 484.465 52.7051 484.05C52.4258 483.634 52.2861 483.14 52.2861 482.567C52.2861 481.615 52.6872 480.809 53.4893 480.15C54.2985 479.492 55.3298 479.162 56.583 479.162C57.9007 479.162 58.9678 479.502 59.7842 480.183C60.6077 480.863 61.0195 481.733 61.0195 482.793H59.0215C59.0215 482.249 58.7887 481.78 58.3232 481.386C57.8649 480.992 57.2848 480.795 56.583 480.795C55.8597 480.795 55.2939 480.952 54.8857 481.268C54.4775 481.583 54.2734 481.994 54.2734 482.503C54.2734 482.983 54.4632 483.344 54.8428 483.588C55.2223 483.831 55.9062 484.064 56.8945 484.286C57.89 484.508 58.6956 484.773 59.3115 485.081C59.9274 485.389 60.3822 485.761 60.6758 486.198C60.9766 486.628 61.127 487.154 61.127 487.777C61.127 488.816 60.7116 489.65 59.8809 490.28C59.0501 490.903 57.9723 491.215 56.6475 491.215C55.7165 491.215 54.8929 491.05 54.1768 490.721C53.4606 490.391 52.8984 489.933 52.4902 489.346C52.0892 488.751 51.8887 488.11 51.8887 487.423H53.876C53.9118 488.089 54.1768 488.619 54.6709 489.013C55.1722 489.399 55.8311 489.593 56.6475 489.593C57.3994 489.593 58.001 489.442 58.4521 489.142C58.9105 488.834 59.1396 488.425 59.1396 487.917ZM68.5391 491.215C66.9635 491.215 65.6816 490.699 64.6934 489.668C63.7051 488.63 63.2109 487.244 63.2109 485.511V485.146C63.2109 483.993 63.4294 482.965 63.8662 482.062C64.3102 481.153 64.9261 480.444 65.7139 479.936C66.5088 479.42 67.3682 479.162 68.292 479.162C69.8031 479.162 70.9775 479.66 71.8154 480.655C72.6533 481.651 73.0723 483.076 73.0723 484.931V485.758H65.1982C65.2269 486.904 65.5599 487.831 66.1973 488.54C66.8418 489.242 67.6582 489.593 68.6465 489.593C69.3483 489.593 69.9427 489.45 70.4297 489.163C70.9167 488.877 71.3428 488.497 71.708 488.024L72.9219 488.97C71.9479 490.466 70.487 491.215 68.5391 491.215ZM68.292 480.795C67.4899 480.795 66.8167 481.089 66.2725 481.676C65.7282 482.256 65.3916 483.072 65.2627 484.125H71.085V483.975C71.0277 482.965 70.7555 482.184 70.2686 481.633C69.7816 481.074 69.1227 480.795 68.292 480.795ZM81 481.16C80.6992 481.11 80.3734 481.085 80.0225 481.085C78.7191 481.085 77.8346 481.64 77.3691 482.75V491H75.3818V479.377H77.3154L77.3477 480.72C77.9993 479.681 78.9232 479.162 80.1191 479.162C80.5059 479.162 80.7995 479.212 81 479.312V481.16ZM84.7168 479.377L84.7812 480.838C85.6693 479.721 86.8294 479.162 88.2617 479.162C90.7181 479.162 91.957 480.548 91.9785 483.319V491H89.9912V483.309C89.984 482.471 89.7907 481.851 89.4111 481.45C89.0387 481.049 88.4551 480.849 87.6602 480.849C87.0156 480.849 86.4499 481.021 85.9629 481.364C85.4759 481.708 85.0964 482.159 84.8242 482.718V491H82.8369V479.377H84.7168ZM102.151 491C102.037 490.771 101.944 490.363 101.872 489.775C100.948 490.735 99.8454 491.215 98.5635 491.215C97.4176 491.215 96.4759 490.893 95.7383 490.248C95.0078 489.596 94.6426 488.773 94.6426 487.777C94.6426 486.567 95.1009 485.629 96.0176 484.963C96.9414 484.29 98.2376 483.953 99.9062 483.953H101.84V483.04C101.84 482.345 101.632 481.794 101.217 481.386C100.801 480.97 100.189 480.763 99.3799 480.763C98.6709 480.763 98.0765 480.942 97.5967 481.3C97.1169 481.658 96.877 482.091 96.877 482.6H94.8789C94.8789 482.02 95.083 481.461 95.4912 480.924C95.9066 480.38 96.4652 479.95 97.167 479.635C97.876 479.32 98.653 479.162 99.498 479.162C100.837 479.162 101.886 479.499 102.646 480.172C103.405 480.838 103.799 481.758 103.827 482.933V488.282C103.827 489.349 103.963 490.198 104.235 490.828V491H102.151ZM98.8535 489.485C99.4766 489.485 100.067 489.324 100.626 489.002C101.185 488.68 101.589 488.261 101.84 487.745V485.36H100.282C97.8473 485.36 96.6299 486.073 96.6299 487.498C96.6299 488.121 96.8376 488.608 97.2529 488.959C97.6683 489.31 98.2018 489.485 98.8535 489.485ZM108.812 479.377L108.865 480.666C109.717 479.663 110.867 479.162 112.313 479.162C113.939 479.162 115.046 479.785 115.633 481.031C116.02 480.473 116.521 480.021 117.137 479.678C117.76 479.334 118.494 479.162 119.339 479.162C121.888 479.162 123.185 480.512 123.228 483.212V491H121.24V483.33C121.24 482.499 121.05 481.88 120.671 481.472C120.291 481.056 119.654 480.849 118.759 480.849C118.021 480.849 117.409 481.071 116.922 481.515C116.435 481.951 116.152 482.542 116.073 483.287V491H114.075V483.384C114.075 481.694 113.248 480.849 111.594 480.849C110.29 480.849 109.399 481.404 108.919 482.514V491H106.932V479.377H108.812ZM131.059 491.215C129.483 491.215 128.201 490.699 127.213 489.668C126.225 488.63 125.73 487.244 125.73 485.511V485.146C125.73 483.993 125.949 482.965 126.386 482.062C126.83 481.153 127.446 480.444 128.233 479.936C129.028 479.42 129.888 479.162 130.812 479.162C132.323 479.162 133.497 479.66 134.335 480.655C135.173 481.651 135.592 483.076 135.592 484.931V485.758H127.718C127.746 486.904 128.079 487.831 128.717 488.54C129.361 489.242 130.178 489.593 131.166 489.593C131.868 489.593 132.462 489.45 132.949 489.163C133.436 488.877 133.862 488.497 134.228 488.024L135.441 488.97C134.467 490.466 133.007 491.215 131.059 491.215ZM130.812 480.795C130.009 480.795 129.336 481.089 128.792 481.676C128.248 482.256 127.911 483.072 127.782 484.125H133.604V483.975C133.547 482.965 133.275 482.184 132.788 481.633C132.301 481.074 131.642 480.795 130.812 480.795Z" fill="black"/>
<path d="M42.8018 547.877V554H40.7393V538.359H46.5078C48.2194 538.359 49.5586 538.796 50.5254 539.67C51.4993 540.544 51.9863 541.7 51.9863 543.14C51.9863 544.658 51.5101 545.829 50.5576 546.652C49.6123 547.469 48.2552 547.877 46.4863 547.877H42.8018ZM42.8018 546.19H46.5078C47.6107 546.19 48.4557 545.933 49.043 545.417C49.6302 544.894 49.9238 544.142 49.9238 543.161C49.9238 542.23 49.6302 541.485 49.043 540.927C48.4557 540.368 47.6501 540.078 46.626 540.057H42.8018V546.19ZM61.3535 554C61.2389 553.771 61.1458 553.363 61.0742 552.775C60.1504 553.735 59.0475 554.215 57.7656 554.215C56.6198 554.215 55.6781 553.893 54.9404 553.248C54.21 552.596 53.8447 551.773 53.8447 550.777C53.8447 549.567 54.3031 548.629 55.2197 547.963C56.1436 547.29 57.4398 546.953 59.1084 546.953H61.042V546.04C61.042 545.345 60.8343 544.794 60.4189 544.386C60.0036 543.97 59.3913 543.763 58.582 543.763C57.873 543.763 57.2786 543.942 56.7988 544.3C56.319 544.658 56.0791 545.091 56.0791 545.6H54.0811C54.0811 545.02 54.2852 544.461 54.6934 543.924C55.1087 543.38 55.6673 542.95 56.3691 542.635C57.0781 542.32 57.8551 542.162 58.7002 542.162C60.0394 542.162 61.0885 542.499 61.8477 543.172C62.6068 543.838 63.0007 544.758 63.0293 545.933V551.282C63.0293 552.349 63.1654 553.198 63.4375 553.828V554H61.3535ZM58.0557 552.485C58.6787 552.485 59.2695 552.324 59.8281 552.002C60.3867 551.68 60.7913 551.261 61.042 550.745V548.36H59.4844C57.0495 548.36 55.832 549.073 55.832 550.498C55.832 551.121 56.0397 551.608 56.4551 551.959C56.8704 552.31 57.404 552.485 58.0557 552.485ZM72.9121 550.917C72.9121 550.38 72.708 549.965 72.2998 549.671C71.8988 549.37 71.1934 549.112 70.1836 548.897C69.181 548.683 68.3825 548.425 67.7881 548.124C67.2008 547.823 66.764 547.465 66.4775 547.05C66.1982 546.634 66.0586 546.14 66.0586 545.567C66.0586 544.615 66.4596 543.809 67.2617 543.15C68.071 542.492 69.1022 542.162 70.3555 542.162C71.6732 542.162 72.7402 542.502 73.5566 543.183C74.3802 543.863 74.792 544.733 74.792 545.793H72.7939C72.7939 545.249 72.5612 544.78 72.0957 544.386C71.6374 543.992 71.0573 543.795 70.3555 543.795C69.6322 543.795 69.0664 543.952 68.6582 544.268C68.25 544.583 68.0459 544.994 68.0459 545.503C68.0459 545.983 68.2357 546.344 68.6152 546.588C68.9948 546.831 69.6787 547.064 70.667 547.286C71.6624 547.508 72.4681 547.773 73.084 548.081C73.6999 548.389 74.1546 548.761 74.4482 549.198C74.749 549.628 74.8994 550.154 74.8994 550.777C74.8994 551.816 74.484 552.65 73.6533 553.28C72.8226 553.903 71.7448 554.215 70.4199 554.215C69.4889 554.215 68.6654 554.05 67.9492 553.721C67.2331 553.391 66.6709 552.933 66.2627 552.346C65.8617 551.751 65.6611 551.11 65.6611 550.423H67.6484C67.6842 551.089 67.9492 551.619 68.4434 552.013C68.9447 552.399 69.6035 552.593 70.4199 552.593C71.1719 552.593 71.7734 552.442 72.2246 552.142C72.6829 551.834 72.9121 551.425 72.9121 550.917ZM84.2559 550.917C84.2559 550.38 84.0518 549.965 83.6436 549.671C83.2425 549.37 82.5371 549.112 81.5273 548.897C80.5247 548.683 79.7262 548.425 79.1318 548.124C78.5446 547.823 78.1077 547.465 77.8213 547.05C77.542 546.634 77.4023 546.14 77.4023 545.567C77.4023 544.615 77.8034 543.809 78.6055 543.15C79.4147 542.492 80.446 542.162 81.6992 542.162C83.0169 542.162 84.084 542.502 84.9004 543.183C85.724 543.863 86.1357 544.733 86.1357 545.793H84.1377C84.1377 545.249 83.9049 544.78 83.4395 544.386C82.9811 543.992 82.401 543.795 81.6992 543.795C80.9759 543.795 80.4102 543.952 80.002 544.268C79.5938 544.583 79.3896 544.994 79.3896 545.503C79.3896 545.983 79.5794 546.344 79.959 546.588C80.3385 546.831 81.0225 547.064 82.0107 547.286C83.0062 547.508 83.8118 547.773 84.4277 548.081C85.0436 548.389 85.4984 548.761 85.792 549.198C86.0928 549.628 86.2432 550.154 86.2432 550.777C86.2432 551.816 85.8278 552.65 84.9971 553.28C84.1663 553.903 83.0885 554.215 81.7637 554.215C80.8327 554.215 80.0091 554.05 79.293 553.721C78.5768 553.391 78.0146 552.933 77.6064 552.346C77.2054 551.751 77.0049 551.11 77.0049 550.423H78.9922C79.028 551.089 79.293 551.619 79.7871 552.013C80.2884 552.399 80.9473 552.593 81.7637 552.593C82.5156 552.593 83.1172 552.442 83.5684 552.142C84.0267 551.834 84.2559 551.425 84.2559 550.917ZM99.123 551.261L101.357 542.377H103.345L99.9609 554H98.3496L95.5244 545.191L92.7744 554H91.1631L87.79 542.377H89.7666L92.0547 551.078L94.7617 542.377H96.3623L99.123 551.261ZM104.849 548.081C104.849 546.942 105.071 545.918 105.515 545.009C105.966 544.099 106.589 543.397 107.384 542.903C108.186 542.409 109.099 542.162 110.123 542.162C111.706 542.162 112.984 542.71 113.958 543.806C114.939 544.901 115.43 546.359 115.43 548.178V548.317C115.43 549.449 115.211 550.466 114.774 551.368C114.345 552.263 113.725 552.962 112.916 553.463C112.114 553.964 111.19 554.215 110.145 554.215C108.569 554.215 107.291 553.667 106.31 552.571C105.336 551.476 104.849 550.025 104.849 548.221V548.081ZM106.847 548.317C106.847 549.606 107.144 550.641 107.738 551.422C108.34 552.202 109.142 552.593 110.145 552.593C111.154 552.593 111.956 552.199 112.551 551.411C113.145 550.616 113.442 549.506 113.442 548.081C113.442 546.806 113.138 545.775 112.529 544.987C111.928 544.192 111.126 543.795 110.123 543.795C109.142 543.795 108.351 544.185 107.749 544.966C107.147 545.746 106.847 546.864 106.847 548.317ZM123.54 544.16C123.239 544.11 122.913 544.085 122.562 544.085C121.259 544.085 120.375 544.64 119.909 545.75V554H117.922V542.377H119.855L119.888 543.72C120.539 542.681 121.463 542.162 122.659 542.162C123.046 542.162 123.34 542.212 123.54 542.312V544.16ZM124.679 548.092C124.679 546.309 125.101 544.876 125.946 543.795C126.791 542.706 127.898 542.162 129.266 542.162C130.626 542.162 131.704 542.628 132.499 543.559V537.5H134.486V554H132.66L132.563 552.754C131.769 553.728 130.662 554.215 129.244 554.215C127.898 554.215 126.799 553.663 125.946 552.561C125.101 551.458 124.679 550.018 124.679 548.242V548.092ZM126.666 548.317C126.666 549.635 126.938 550.666 127.482 551.411C128.027 552.156 128.779 552.528 129.738 552.528C130.999 552.528 131.919 551.963 132.499 550.831V545.492C131.905 544.396 130.992 543.849 129.76 543.849C128.786 543.849 128.027 544.225 127.482 544.977C126.938 545.729 126.666 546.842 126.666 548.317Z" fill="black"/>
<path d="M37.3301 421.406L45.6973 442.289L54.0645 421.406H58.4414V447H55.0664V437.033L55.3828 426.275L46.9805 447H44.3965L36.0117 426.328L36.3457 437.033V447H32.9707V421.406H37.3301ZM75.6328 447C75.4453 446.625 75.293 445.957 75.1758 444.996C73.6641 446.566 71.8594 447.352 69.7617 447.352C67.8867 447.352 66.3457 446.824 65.1387 445.77C63.9434 444.703 63.3457 443.355 63.3457 441.727C63.3457 439.746 64.0957 438.211 65.5957 437.121C67.1074 436.02 69.2285 435.469 71.959 435.469H75.123V433.975C75.123 432.838 74.7832 431.936 74.1035 431.268C73.4238 430.588 72.4219 430.248 71.0977 430.248C69.9375 430.248 68.9648 430.541 68.1797 431.127C67.3945 431.713 67.002 432.422 67.002 433.254H63.7324C63.7324 432.305 64.0664 431.391 64.7344 430.512C65.4141 429.621 66.3281 428.918 67.4766 428.402C68.6367 427.887 69.9082 427.629 71.291 427.629C73.4824 427.629 75.1992 428.18 76.4414 429.281C77.6836 430.371 78.3281 431.877 78.375 433.799V442.553C78.375 444.299 78.5977 445.688 79.043 446.719V447H75.6328ZM70.2363 444.521C71.2559 444.521 72.2227 444.258 73.1367 443.73C74.0508 443.203 74.7129 442.518 75.123 441.674V437.771H72.5742C68.5898 437.771 66.5977 438.938 66.5977 441.27C66.5977 442.289 66.9375 443.086 67.6172 443.66C68.2969 444.234 69.1699 444.521 70.2363 444.521ZM94.5469 441.955C94.5469 441.076 94.2129 440.396 93.5449 439.916C92.8887 439.424 91.7344 439.002 90.082 438.65C88.4414 438.299 87.1348 437.877 86.1621 437.385C85.2012 436.893 84.4863 436.307 84.0176 435.627C83.5605 434.947 83.332 434.139 83.332 433.201C83.332 431.643 83.9883 430.324 85.3008 429.246C86.625 428.168 88.3125 427.629 90.3633 427.629C92.5195 427.629 94.2656 428.186 95.6016 429.299C96.9492 430.412 97.623 431.836 97.623 433.57H94.3535C94.3535 432.68 93.9727 431.912 93.2109 431.268C92.4609 430.623 91.5117 430.301 90.3633 430.301C89.1797 430.301 88.2539 430.559 87.5859 431.074C86.918 431.59 86.584 432.264 86.584 433.096C86.584 433.881 86.8945 434.473 87.5156 434.871C88.1367 435.27 89.2559 435.65 90.873 436.014C92.502 436.377 93.8203 436.811 94.8281 437.314C95.8359 437.818 96.5801 438.428 97.0605 439.143C97.5527 439.846 97.7988 440.707 97.7988 441.727C97.7988 443.426 97.1191 444.791 95.7598 445.822C94.4004 446.842 92.6367 447.352 90.4688 447.352C88.9453 447.352 87.5977 447.082 86.4258 446.543C85.2539 446.004 84.334 445.254 83.666 444.293C83.0098 443.32 82.6816 442.271 82.6816 441.146H85.9336C85.9922 442.236 86.4258 443.104 87.2344 443.748C88.0547 444.381 89.1328 444.697 90.4688 444.697C91.6992 444.697 92.6836 444.451 93.4219 443.959C94.1719 443.455 94.5469 442.787 94.5469 441.955ZM113.777 445.119C112.512 446.607 110.654 447.352 108.205 447.352C106.178 447.352 104.631 446.766 103.564 445.594C102.51 444.41 101.977 442.664 101.965 440.355V427.98H105.217V440.268C105.217 443.15 106.389 444.592 108.732 444.592C111.217 444.592 112.869 443.666 113.689 441.814V427.98H116.941V447H113.848L113.777 445.119ZM127.207 438.193L125.168 440.32V447H121.916V420H125.168V436.33L126.908 434.238L132.832 427.98H136.787L129.387 435.926L137.648 447H133.834L127.207 438.193Z" fill="black"/>
<rect x="30.5" y="588.5" width="316" height="41" fill="#8E8A8A" stroke="black"/>
<path d="M138.24 596.672L145.213 614.074L152.186 596.672H155.833V618H153.021V609.694L153.284 600.729L146.282 618H144.129L137.142 600.773L137.42 609.694V618H134.607V596.672H138.24ZM170.159 618C170.003 617.688 169.876 617.131 169.778 616.33C168.519 617.639 167.015 618.293 165.267 618.293C163.704 618.293 162.42 617.854 161.414 616.975C160.418 616.086 159.92 614.963 159.92 613.605C159.92 611.955 160.545 610.676 161.795 609.768C163.055 608.85 164.822 608.391 167.098 608.391H169.734V607.146C169.734 606.198 169.451 605.446 168.885 604.89C168.318 604.323 167.483 604.04 166.38 604.04C165.413 604.04 164.603 604.284 163.948 604.772C163.294 605.261 162.967 605.852 162.967 606.545H160.242C160.242 605.754 160.521 604.992 161.077 604.26C161.644 603.518 162.405 602.932 163.362 602.502C164.329 602.072 165.389 601.857 166.541 601.857C168.367 601.857 169.798 602.316 170.833 603.234C171.868 604.143 172.405 605.397 172.444 606.999V614.294C172.444 615.749 172.63 616.906 173.001 617.766V618H170.159ZM165.662 615.935C166.512 615.935 167.317 615.715 168.079 615.275C168.841 614.836 169.393 614.265 169.734 613.562V610.31H167.61C164.29 610.31 162.63 611.281 162.63 613.225C162.63 614.074 162.913 614.738 163.479 615.217C164.046 615.695 164.773 615.935 165.662 615.935ZM185.921 613.796C185.921 613.063 185.643 612.497 185.086 612.097C184.539 611.687 183.577 611.335 182.2 611.042C180.833 610.749 179.744 610.397 178.934 609.987C178.133 609.577 177.537 609.089 177.146 608.522C176.766 607.956 176.575 607.282 176.575 606.501C176.575 605.202 177.122 604.104 178.216 603.205C179.319 602.307 180.726 601.857 182.435 601.857C184.231 601.857 185.687 602.321 186.8 603.249C187.923 604.177 188.484 605.363 188.484 606.809H185.76C185.76 606.066 185.442 605.427 184.808 604.89C184.183 604.353 183.392 604.084 182.435 604.084C181.448 604.084 180.677 604.299 180.12 604.729C179.563 605.158 179.285 605.72 179.285 606.413C179.285 607.067 179.544 607.561 180.062 607.893C180.579 608.225 181.512 608.542 182.859 608.845C184.217 609.147 185.315 609.509 186.155 609.929C186.995 610.349 187.615 610.856 188.016 611.452C188.426 612.038 188.631 612.756 188.631 613.605C188.631 615.021 188.064 616.159 186.932 617.019C185.799 617.868 184.329 618.293 182.522 618.293C181.253 618.293 180.13 618.068 179.153 617.619C178.177 617.17 177.41 616.545 176.854 615.744C176.307 614.934 176.033 614.06 176.033 613.122H178.743C178.792 614.03 179.153 614.753 179.827 615.29C180.511 615.817 181.409 616.081 182.522 616.081C183.548 616.081 184.368 615.876 184.983 615.466C185.608 615.046 185.921 614.489 185.921 613.796ZM201.946 616.433C200.892 617.673 199.344 618.293 197.303 618.293C195.613 618.293 194.324 617.805 193.436 616.828C192.557 615.842 192.112 614.387 192.103 612.463V602.15H194.812V612.39C194.812 614.792 195.789 615.993 197.742 615.993C199.812 615.993 201.189 615.222 201.873 613.679V602.15H204.583V618H202.005L201.946 616.433ZM213.138 610.661L211.438 612.434V618H208.729V595.5H211.438V609.108L212.889 607.365L217.825 602.15H221.121L214.954 608.771L221.839 618H218.66L213.138 610.661Z" fill="black"/>
<path d="M111.091 672.411H117.934V675H107.868V659.359H111.091V672.411ZM126.398 673.818C125.632 674.749 124.572 675.215 123.219 675.215C121.973 675.215 121.02 674.857 120.361 674.141C119.71 673.424 119.377 672.375 119.362 670.993V663.377H122.467V670.886C122.467 672.096 123.018 672.701 124.121 672.701C125.174 672.701 125.897 672.336 126.291 671.605V663.377H129.406V675H126.484L126.398 673.818ZM142.211 669.296C142.211 671.086 141.803 672.522 140.986 673.604C140.177 674.678 139.081 675.215 137.699 675.215C136.525 675.215 135.576 674.807 134.853 673.99V679.469H131.748V663.377H134.627L134.734 664.516C135.486 663.613 136.467 663.162 137.678 663.162C139.11 663.162 140.224 663.692 141.019 664.752C141.813 665.812 142.211 667.273 142.211 669.135V669.296ZM139.106 669.07C139.106 667.989 138.913 667.155 138.526 666.567C138.147 665.98 137.592 665.687 136.861 665.687C135.887 665.687 135.218 666.059 134.853 666.804V671.562C135.232 672.329 135.909 672.712 136.883 672.712C138.365 672.712 139.106 671.498 139.106 669.07ZM150.88 675C150.737 674.721 150.633 674.373 150.568 673.958C149.816 674.796 148.839 675.215 147.636 675.215C146.497 675.215 145.552 674.885 144.8 674.227C144.055 673.568 143.683 672.737 143.683 671.734C143.683 670.503 144.137 669.557 145.047 668.898C145.964 668.24 147.285 667.907 149.011 667.899H150.439V667.233C150.439 666.696 150.3 666.267 150.021 665.944C149.748 665.622 149.315 665.461 148.721 665.461C148.198 665.461 147.786 665.586 147.485 665.837C147.192 666.088 147.045 666.431 147.045 666.868H143.94C143.94 666.195 144.148 665.572 144.563 664.999C144.979 664.426 145.566 663.979 146.325 663.656C147.084 663.327 147.937 663.162 148.882 663.162C150.314 663.162 151.449 663.524 152.287 664.247C153.132 664.963 153.555 665.973 153.555 667.276V672.314C153.562 673.417 153.716 674.252 154.017 674.817V675H150.88ZM148.312 672.841C148.771 672.841 149.193 672.741 149.58 672.54C149.967 672.332 150.253 672.057 150.439 671.713V669.715H149.279C147.725 669.715 146.898 670.252 146.798 671.326L146.787 671.509C146.787 671.896 146.923 672.214 147.195 672.465C147.467 672.715 147.84 672.841 148.312 672.841ZM164.845 669.489V675H161.622V659.359H167.724C168.898 659.359 169.929 659.574 170.817 660.004C171.713 660.434 172.4 661.046 172.88 661.841C173.36 662.629 173.6 663.527 173.6 664.537C173.6 666.07 173.073 667.28 172.021 668.168C170.975 669.049 169.525 669.489 167.67 669.489H164.845ZM164.845 666.879H167.724C168.576 666.879 169.224 666.678 169.668 666.277C170.119 665.876 170.345 665.303 170.345 664.559C170.345 663.792 170.119 663.173 169.668 662.7C169.217 662.228 168.594 661.984 167.799 661.97H164.845V666.879ZM182.226 675C182.082 674.721 181.979 674.373 181.914 673.958C181.162 674.796 180.185 675.215 178.981 675.215C177.843 675.215 176.897 674.885 176.146 674.227C175.401 673.568 175.028 672.737 175.028 671.734C175.028 670.503 175.483 669.557 176.393 668.898C177.309 668.24 178.631 667.907 180.356 667.899H181.785V667.233C181.785 666.696 181.646 666.267 181.366 665.944C181.094 665.622 180.661 665.461 180.066 665.461C179.544 665.461 179.132 665.586 178.831 665.837C178.537 666.088 178.391 666.431 178.391 666.868H175.286C175.286 666.195 175.494 665.572 175.909 664.999C176.325 664.426 176.912 663.979 177.671 663.656C178.43 663.327 179.282 663.162 180.228 663.162C181.66 663.162 182.795 663.524 183.633 664.247C184.478 664.963 184.9 665.973 184.9 667.276V672.314C184.908 673.417 185.062 674.252 185.362 674.817V675H182.226ZM179.658 672.841C180.117 672.841 180.539 672.741 180.926 672.54C181.312 672.332 181.599 672.057 181.785 671.713V669.715H180.625C179.071 669.715 178.244 670.252 178.144 671.326L178.133 671.509C178.133 671.896 178.269 672.214 178.541 672.465C178.813 672.715 179.186 672.841 179.658 672.841ZM193.58 671.788C193.58 671.409 193.39 671.111 193.011 670.896C192.638 670.674 192.037 670.478 191.206 670.306C188.442 669.726 187.06 668.551 187.06 666.782C187.06 665.751 187.486 664.892 188.338 664.204C189.197 663.509 190.318 663.162 191.7 663.162C193.175 663.162 194.354 663.509 195.234 664.204C196.122 664.899 196.566 665.801 196.566 666.911H193.462C193.462 666.467 193.319 666.102 193.032 665.815C192.746 665.522 192.298 665.375 191.689 665.375C191.167 665.375 190.762 665.493 190.476 665.729C190.189 665.966 190.046 666.267 190.046 666.632C190.046 666.976 190.207 667.255 190.529 667.47C190.859 667.677 191.41 667.86 192.184 668.018C192.957 668.168 193.609 668.34 194.139 668.533C195.779 669.135 196.599 670.177 196.599 671.659C196.599 672.719 196.144 673.578 195.234 674.237C194.325 674.889 193.15 675.215 191.711 675.215C190.737 675.215 189.87 675.043 189.111 674.699C188.359 674.348 187.769 673.872 187.339 673.271C186.909 672.662 186.694 672.007 186.694 671.305H189.638C189.666 671.856 189.87 672.279 190.25 672.572C190.63 672.866 191.138 673.013 191.775 673.013C192.37 673.013 192.817 672.902 193.118 672.68C193.426 672.451 193.58 672.153 193.58 671.788ZM204.902 671.788C204.902 671.409 204.713 671.111 204.333 670.896C203.961 670.674 203.359 670.478 202.528 670.306C199.764 669.726 198.382 668.551 198.382 666.782C198.382 665.751 198.808 664.892 199.66 664.204C200.52 663.509 201.64 663.162 203.022 663.162C204.498 663.162 205.676 663.509 206.557 664.204C207.445 664.899 207.889 665.801 207.889 666.911H204.784C204.784 666.467 204.641 666.102 204.354 665.815C204.068 665.522 203.62 665.375 203.012 665.375C202.489 665.375 202.084 665.493 201.798 665.729C201.511 665.966 201.368 666.267 201.368 666.632C201.368 666.976 201.529 667.255 201.852 667.47C202.181 667.677 202.732 667.86 203.506 668.018C204.279 668.168 204.931 668.34 205.461 668.533C207.101 669.135 207.921 670.177 207.921 671.659C207.921 672.719 207.466 673.578 206.557 674.237C205.647 674.889 204.473 675.215 203.033 675.215C202.059 675.215 201.193 675.043 200.434 674.699C199.682 674.348 199.091 673.872 198.661 673.271C198.231 672.662 198.017 672.007 198.017 671.305H200.96C200.989 671.856 201.193 672.279 201.572 672.572C201.952 672.866 202.46 673.013 203.098 673.013C203.692 673.013 204.14 672.902 204.44 672.68C204.748 672.451 204.902 672.153 204.902 671.788ZM220.038 670.778L221.563 663.377H224.561L221.596 675H218.996L216.794 667.685L214.592 675H212.003L209.038 663.377H212.035L213.55 670.768L215.677 663.377H217.922L220.038 670.778ZM225.624 669.081C225.624 667.928 225.846 666.9 226.29 665.998C226.734 665.096 227.371 664.397 228.202 663.903C229.04 663.409 230.01 663.162 231.113 663.162C232.682 663.162 233.96 663.642 234.948 664.602C235.944 665.561 236.499 666.865 236.613 668.512L236.635 669.307C236.635 671.09 236.137 672.522 235.142 673.604C234.146 674.678 232.811 675.215 231.135 675.215C229.459 675.215 228.12 674.678 227.117 673.604C226.122 672.529 225.624 671.068 225.624 669.221V669.081ZM228.729 669.307C228.729 670.41 228.936 671.255 229.352 671.842C229.767 672.422 230.361 672.712 231.135 672.712C231.887 672.712 232.474 672.425 232.896 671.853C233.319 671.272 233.53 670.349 233.53 669.081C233.53 668 233.319 667.162 232.896 666.567C232.474 665.973 231.88 665.676 231.113 665.676C230.354 665.676 229.767 665.973 229.352 666.567C228.936 667.155 228.729 668.068 228.729 669.307ZM245.078 666.288C244.656 666.231 244.283 666.202 243.961 666.202C242.786 666.202 242.017 666.6 241.651 667.395V675H238.547V663.377H241.479L241.565 664.763C242.188 663.696 243.051 663.162 244.154 663.162C244.498 663.162 244.82 663.209 245.121 663.302L245.078 666.288ZM245.884 669.103C245.884 667.291 246.288 665.848 247.098 664.773C247.914 663.699 249.028 663.162 250.438 663.162C251.57 663.162 252.505 663.585 253.242 664.43V658.5H256.357V675H253.554L253.403 673.765C252.63 674.731 251.634 675.215 250.417 675.215C249.049 675.215 247.95 674.678 247.119 673.604C246.296 672.522 245.884 671.022 245.884 669.103ZM248.988 669.328C248.988 670.417 249.178 671.251 249.558 671.831C249.937 672.411 250.489 672.701 251.212 672.701C252.172 672.701 252.848 672.297 253.242 671.487V666.9C252.855 666.091 252.186 665.687 251.233 665.687C249.737 665.687 248.988 666.9 248.988 669.328ZM261.299 670.198C261.299 669.196 261.421 668.397 261.664 667.803C261.908 667.208 262.352 666.625 262.996 666.052C263.648 665.472 264.081 665.003 264.296 664.645C264.511 664.279 264.618 663.896 264.618 663.495C264.618 662.285 264.06 661.68 262.942 661.68C262.412 661.68 261.986 661.844 261.664 662.174C261.349 662.496 261.184 662.944 261.17 663.517H258.055C258.069 662.149 258.509 661.078 259.376 660.305C260.25 659.531 261.438 659.145 262.942 659.145C264.461 659.145 265.639 659.513 266.477 660.251C267.314 660.981 267.733 662.016 267.733 663.355C267.733 663.964 267.597 664.541 267.325 665.085C267.053 665.622 266.577 666.22 265.896 666.879L265.026 667.706C264.482 668.229 264.171 668.841 264.092 669.543L264.049 670.198H261.299ZM260.987 673.496C260.987 673.016 261.148 672.622 261.471 672.314C261.8 671.999 262.219 671.842 262.728 671.842C263.236 671.842 263.651 671.999 263.974 672.314C264.303 672.622 264.468 673.016 264.468 673.496C264.468 673.969 264.307 674.359 263.984 674.667C263.669 674.975 263.25 675.129 262.728 675.129C262.205 675.129 261.782 674.975 261.46 674.667C261.145 674.359 260.987 673.969 260.987 673.496Z" fill="black"/>
<path d="M40.1455 714V698.359H45.2588C46.9561 698.359 48.2308 698.71 49.083 699.412C49.9424 700.114 50.3721 701.152 50.3721 702.527C50.3721 703.258 50.1644 703.906 49.749 704.472C49.3337 705.03 48.7679 705.464 48.0518 705.771C48.8968 706.008 49.5628 706.459 50.0498 707.125C50.5439 707.784 50.791 708.572 50.791 709.488C50.791 710.892 50.3363 711.995 49.4268 712.797C48.5173 713.599 47.2318 714 45.5703 714H40.1455ZM42.208 706.685V712.313H45.6133C46.5729 712.313 47.3285 712.066 47.8799 711.572C48.4385 711.071 48.7178 710.383 48.7178 709.51C48.7178 707.626 47.6937 706.685 45.6455 706.685H42.208ZM42.208 705.03H45.3232C46.2256 705.03 46.9453 704.805 47.4824 704.354C48.0267 703.902 48.2988 703.29 48.2988 702.517C48.2988 701.657 48.0482 701.034 47.5469 700.647C47.0456 700.254 46.2829 700.057 45.2588 700.057H42.208V705.03ZM58.3643 714.215C56.7887 714.215 55.5068 713.699 54.5186 712.668C53.5303 711.63 53.0361 710.244 53.0361 708.511V708.146C53.0361 706.993 53.2546 705.965 53.6914 705.062C54.1354 704.153 54.7513 703.444 55.5391 702.936C56.334 702.42 57.1934 702.162 58.1172 702.162C59.6283 702.162 60.8027 702.66 61.6406 703.655C62.4785 704.651 62.8975 706.076 62.8975 707.931V708.758H55.0234C55.0521 709.904 55.3851 710.831 56.0225 711.54C56.667 712.242 57.4834 712.593 58.4717 712.593C59.1735 712.593 59.7679 712.45 60.2549 712.163C60.7419 711.877 61.168 711.497 61.5332 711.024L62.7471 711.97C61.7731 713.466 60.3122 714.215 58.3643 714.215ZM58.1172 703.795C57.3151 703.795 56.6419 704.089 56.0977 704.676C55.5534 705.256 55.2168 706.072 55.0879 707.125H60.9102V706.975C60.8529 705.965 60.5807 705.184 60.0938 704.633C59.6068 704.074 58.9479 703.795 58.1172 703.795ZM67.3662 714H65.3789V697.5H67.3662V714ZM77.7324 712.851C76.959 713.76 75.8239 714.215 74.3271 714.215C73.0882 714.215 72.1429 713.857 71.4912 713.141C70.8467 712.417 70.5208 711.35 70.5137 709.939V702.377H72.501V709.886C72.501 711.647 73.2171 712.528 74.6494 712.528C76.1676 712.528 77.1774 711.963 77.6787 710.831V702.377H79.666V714H77.7754L77.7324 712.851ZM84.5645 702.377L84.6182 703.666C85.4704 702.663 86.6198 702.162 88.0664 702.162C89.6921 702.162 90.7985 702.785 91.3857 704.031C91.7725 703.473 92.2738 703.021 92.8896 702.678C93.5127 702.334 94.2467 702.162 95.0918 702.162C97.6413 702.162 98.9375 703.512 98.9805 706.212V714H96.9932V706.33C96.9932 705.499 96.8034 704.88 96.4238 704.472C96.0443 704.056 95.4069 703.849 94.5117 703.849C93.7741 703.849 93.1618 704.071 92.6748 704.515C92.1878 704.951 91.9049 705.542 91.8262 706.287V714H89.8281V706.384C89.8281 704.694 89.001 703.849 87.3467 703.849C86.0433 703.849 85.1517 704.404 84.6719 705.514V714H82.6846V702.377H84.5645ZM109.819 707.877V714H107.757V698.359H113.525C115.237 698.359 116.576 698.796 117.543 699.67C118.517 700.544 119.004 701.7 119.004 703.14C119.004 704.658 118.528 705.829 117.575 706.652C116.63 707.469 115.273 707.877 113.504 707.877H109.819ZM109.819 706.19H113.525C114.628 706.19 115.473 705.933 116.061 705.417C116.648 704.894 116.941 704.142 116.941 703.161C116.941 702.23 116.648 701.485 116.061 700.927C115.473 700.368 114.668 700.078 113.644 700.057H109.819V706.19ZM128.5 712.851C127.727 713.76 126.591 714.215 125.095 714.215C123.856 714.215 122.91 713.857 122.259 713.141C121.614 712.417 121.288 711.35 121.281 709.939V702.377H123.269V709.886C123.269 711.647 123.985 712.528 125.417 712.528C126.935 712.528 127.945 711.963 128.446 710.831V702.377H130.434V714H128.543L128.5 712.851ZM135.343 702.377L135.407 703.838C136.295 702.721 137.455 702.162 138.888 702.162C141.344 702.162 142.583 703.548 142.604 706.319V714H140.617V706.309C140.61 705.471 140.417 704.851 140.037 704.45C139.665 704.049 139.081 703.849 138.286 703.849C137.642 703.849 137.076 704.021 136.589 704.364C136.102 704.708 135.722 705.159 135.45 705.718V714H133.463V702.377H135.343ZM149.404 711.089L152.111 702.377H154.238L149.565 715.794C148.842 717.728 147.693 718.694 146.117 718.694L145.741 718.662L145 718.522V716.911L145.537 716.954C146.21 716.954 146.733 716.818 147.105 716.546C147.485 716.274 147.797 715.776 148.04 715.053L148.48 713.871L144.334 702.377H146.504L149.404 711.089ZM163.025 714C162.911 713.771 162.818 713.363 162.746 712.775C161.822 713.735 160.719 714.215 159.438 714.215C158.292 714.215 157.35 713.893 156.612 713.248C155.882 712.596 155.517 711.773 155.517 710.777C155.517 709.567 155.975 708.629 156.892 707.963C157.815 707.29 159.112 706.953 160.78 706.953H162.714V706.04C162.714 705.345 162.506 704.794 162.091 704.386C161.675 703.97 161.063 703.763 160.254 703.763C159.545 703.763 158.951 703.942 158.471 704.3C157.991 704.658 157.751 705.091 157.751 705.6H155.753C155.753 705.02 155.957 704.461 156.365 703.924C156.781 703.38 157.339 702.95 158.041 702.635C158.75 702.32 159.527 702.162 160.372 702.162C161.711 702.162 162.76 702.499 163.52 703.172C164.279 703.838 164.673 704.758 164.701 705.933V711.282C164.701 712.349 164.837 713.198 165.109 713.828V714H163.025ZM159.728 712.485C160.351 712.485 160.941 712.324 161.5 712.002C162.059 711.68 162.463 711.261 162.714 710.745V708.36H161.156C158.721 708.36 157.504 709.073 157.504 710.498C157.504 711.121 157.712 711.608 158.127 711.959C158.542 712.31 159.076 712.485 159.728 712.485ZM182.222 709.918H175.669L174.197 714H172.07L178.043 698.359H179.848L185.831 714H183.715L182.222 709.918ZM176.292 708.221H181.609L178.945 700.905L176.292 708.221ZM190.869 708.618L189.623 709.918V714H187.636V697.5H189.623V707.479L190.687 706.201L194.307 702.377H196.724L192.201 707.232L197.25 714H194.919L190.869 708.618ZM205.951 712.851C205.178 713.76 204.043 714.215 202.546 714.215C201.307 714.215 200.362 713.857 199.71 713.141C199.065 712.417 198.74 711.35 198.732 709.939V702.377H200.72V709.886C200.72 711.647 201.436 712.528 202.868 712.528C204.386 712.528 205.396 711.963 205.897 710.831V702.377H207.885V714H205.994L205.951 712.851ZM212.794 702.377L212.858 703.838C213.746 702.721 214.907 702.162 216.339 702.162C218.795 702.162 220.034 703.548 220.056 706.319V714H218.068V706.309C218.061 705.471 217.868 704.851 217.488 704.45C217.116 704.049 216.532 703.849 215.737 703.849C215.093 703.849 214.527 704.021 214.04 704.364C213.553 704.708 213.174 705.159 212.901 705.718V714H210.914V702.377H212.794ZM225.384 709.596C225.398 708.743 225.495 708.07 225.674 707.576C225.853 707.082 226.218 706.534 226.77 705.933L228.177 704.482C228.778 703.802 229.079 703.072 229.079 702.291C229.079 701.539 228.882 700.952 228.488 700.529C228.094 700.1 227.521 699.885 226.77 699.885C226.039 699.885 225.452 700.078 225.008 700.465C224.564 700.852 224.342 701.371 224.342 702.022H222.354C222.369 700.862 222.781 699.928 223.59 699.219C224.406 698.503 225.466 698.145 226.77 698.145C228.123 698.145 229.176 698.51 229.928 699.24C230.687 699.964 231.066 700.959 231.066 702.227C231.066 703.48 230.486 704.715 229.326 705.933L228.155 707.093C227.632 707.673 227.371 708.507 227.371 709.596H225.384ZM225.298 713.001C225.298 712.679 225.395 712.41 225.588 712.195C225.788 711.973 226.082 711.862 226.469 711.862C226.855 711.862 227.149 711.973 227.35 712.195C227.55 712.41 227.65 712.679 227.65 713.001C227.65 713.323 227.55 713.592 227.35 713.807C227.149 714.014 226.855 714.118 226.469 714.118C226.082 714.118 225.788 714.014 225.588 713.807C225.395 713.592 225.298 713.323 225.298 713.001ZM238.801 714V698.359H244.279C246.177 698.359 247.617 698.725 248.598 699.455C249.579 700.178 250.069 701.242 250.069 702.646C250.069 703.412 249.872 704.089 249.479 704.676C249.085 705.256 248.537 705.682 247.835 705.954C248.637 706.155 249.267 706.559 249.726 707.168C250.191 707.777 250.424 708.521 250.424 709.402C250.424 710.906 249.944 712.045 248.984 712.818C248.025 713.592 246.657 713.986 244.881 714H238.801ZM242.023 707.189V711.411H244.784C245.543 711.411 246.134 711.232 246.557 710.874C246.986 710.509 247.201 710.007 247.201 709.37C247.201 707.938 246.46 707.211 244.978 707.189H242.023ZM242.023 704.912H244.408C246.034 704.883 246.847 704.235 246.847 702.968C246.847 702.259 246.639 701.75 246.224 701.442C245.815 701.127 245.167 700.97 244.279 700.97H242.023V704.912ZM259.608 712.818C258.842 713.749 257.782 714.215 256.429 714.215C255.183 714.215 254.23 713.857 253.571 713.141C252.92 712.424 252.587 711.375 252.572 709.993V702.377H255.677V709.886C255.677 711.096 256.228 711.701 257.331 711.701C258.384 711.701 259.107 711.336 259.501 710.605V702.377H262.616V714H259.694L259.608 712.818ZM271.693 714C271.55 713.721 271.446 713.373 271.382 712.958C270.63 713.796 269.652 714.215 268.449 714.215C267.311 714.215 266.365 713.885 265.613 713.227C264.868 712.568 264.496 711.737 264.496 710.734C264.496 709.503 264.951 708.557 265.86 707.898C266.777 707.24 268.098 706.907 269.824 706.899H271.253V706.233C271.253 705.696 271.113 705.267 270.834 704.944C270.562 704.622 270.129 704.461 269.534 704.461C269.011 704.461 268.6 704.586 268.299 704.837C268.005 705.088 267.858 705.431 267.858 705.868H264.754C264.754 705.195 264.962 704.572 265.377 703.999C265.792 703.426 266.38 702.979 267.139 702.656C267.898 702.327 268.75 702.162 269.695 702.162C271.128 702.162 272.263 702.524 273.101 703.247C273.946 703.963 274.368 704.973 274.368 706.276V711.314C274.375 712.417 274.529 713.252 274.83 713.817V714H271.693ZM269.126 711.841C269.584 711.841 270.007 711.741 270.394 711.54C270.78 711.332 271.067 711.057 271.253 710.713V708.715H270.093C268.539 708.715 267.712 709.252 267.611 710.326L267.601 710.509C267.601 710.896 267.737 711.214 268.009 711.465C268.281 711.715 268.653 711.841 269.126 711.841ZM280.47 699.52V702.377H282.457V704.654H280.47V710.455C280.47 710.885 280.552 711.193 280.717 711.379C280.882 711.565 281.197 711.658 281.662 711.658C282.006 711.658 282.31 711.633 282.575 711.583V713.936C281.966 714.122 281.34 714.215 280.695 714.215C278.518 714.215 277.408 713.116 277.365 710.917V704.654H275.668V702.377H277.365V699.52H280.47ZM298.699 710.777H293.049L291.975 714H288.548L294.37 698.359H297.356L303.211 714H299.784L298.699 710.777ZM293.919 708.167H297.829L295.863 702.312L293.919 708.167ZM308.689 709.338L307.572 710.455V714H304.468V697.5H307.572V706.642L308.174 705.868L311.149 702.377H314.877L310.677 707.222L315.242 714H311.676L308.689 709.338ZM323.181 712.818C322.414 713.749 321.354 714.215 320.001 714.215C318.755 714.215 317.802 713.857 317.144 713.141C316.492 712.424 316.159 711.375 316.145 709.993V702.377H319.249V709.886C319.249 711.096 319.8 711.701 320.903 711.701C321.956 711.701 322.679 711.336 323.073 710.605V702.377H326.188V714H323.267L323.181 712.818ZM331.388 702.377L331.484 703.72C332.315 702.681 333.429 702.162 334.825 702.162C336.057 702.162 336.974 702.524 337.575 703.247C338.177 703.97 338.485 705.052 338.499 706.491V714H335.395V706.566C335.395 705.908 335.251 705.431 334.965 705.138C334.678 704.837 334.202 704.687 333.536 704.687C332.662 704.687 332.007 705.059 331.57 705.804V714H328.466V702.377H331.388Z" fill="black"/>
<circle cx="166" cy="393" r="5.5" fill="#C4C4C4" stroke="black"/>
<circle cx="187" cy="393" r="5.5" fill="#C4C4C4" stroke="black"/>
<circle cx="208" cy="393" r="5.5" fill="#C4C4C4" stroke="black"/>
</svg>
