<svg width="465" height="465" viewBox="0 0 465 465" fill="none" xmlns="http://www.w3.org/2000/svg">
<path fill-rule="evenodd" clip-rule="evenodd" d="M184.189 91.6363C182.943 84.2461 182.005 76.9397 181.399 69.6326C180.485 58.6719 181.05 47.6274 180.726 36.6667C180.585 32.0167 180.028 19.8936 180.253 18.1499C182.287 2.95431 194.551 0.62903 198.138 0.213852C199.874 -0.0352553 217.693 -2.02722 221.538 17.7353C226.254 41.8987 227.766 66.2278 226.097 90.0591C229.991 110.32 236.651 130.497 245.444 148.765C280.435 221.421 347.113 228.479 419.354 227.815C430.464 227.649 439.69 236.368 440.271 247.411C440.852 258.538 432.582 268.17 421.521 269.167C381.141 273.069 309.497 305.454 284.728 339.166C279.546 346.224 276.532 363.247 272.547 379.937C266.983 403.104 260.366 426.022 252.95 435.654C251.838 437.148 238.311 452.427 234.276 454.669C224.577 459.983 216.813 456.911 212.404 454.087C207.995 451.264 203.004 445.701 201.012 436.484C198.927 426.852 200.688 407.089 200.364 402.854C199.185 387.492 196.113 357.351 189.843 331.443C186.464 317.493 182.86 304.623 176.898 298.229C154.827 274.564 119.537 278.052 89.8185 281.954C86.4057 282.37 82.993 282.868 79.5885 283.283C67.4902 286.854 54.6443 289.511 41.068 291.088C20.5664 293.496 17.1954 274.647 17.0127 273.402C16.6308 270.661 15.2107 256.546 30.6637 250.899C32.3493 250.318 44.7882 247.578 49.5793 246.498C56.2554 245.003 63.0061 243.841 69.7818 242.762C139.773 221.007 177.786 159.892 184.189 91.6363ZM208.211 167.116C234.633 221.754 274.731 248.159 322.26 260.116H322.252C292.575 275.644 265.58 295.075 251.273 314.588C245.842 321.978 240.86 336.841 236.368 353.531C233.935 338.004 230.647 321.479 226.304 307.363C221.364 291.254 214.712 277.886 207.289 269.915C192.957 254.553 174.971 246 155.632 241.765C178.783 221.256 196.337 195.681 208.211 167.116Z" fill="#EB5E45"/>
</svg>
