<svg width="314" height="372" viewBox="0 0 314 372" fill="none" xmlns="http://www.w3.org/2000/svg">
<g clip-path="url(#clip0_577_659)">
<path d="M20.5078 189.376V51.7017H47.9919V78.6768L44.6836 75.114C48.0767 66.4617 53.5057 59.93 60.9705 55.5189C68.4353 50.9383 77.0877 48.6479 86.9277 48.6479C97.1069 48.6479 106.099 50.8534 113.903 55.2645C121.707 59.6755 127.814 65.783 132.225 73.5872C136.636 81.3913 138.842 90.383 138.842 100.562V189.376H110.34V108.197C110.34 101.241 109.068 95.3878 106.523 90.6374C103.978 85.7175 100.33 81.9851 95.58 79.4402C90.9994 76.7258 85.7401 75.3685 79.8022 75.3685C73.8642 75.3685 68.5201 76.7258 63.7698 79.4402C59.1891 81.9851 55.6264 85.7175 53.0815 90.6374C50.5367 95.5574 49.2643 101.411 49.2643 108.197V189.376H20.5078ZM223.569 192.43C214.238 192.43 206.009 190.819 198.884 187.595C191.928 184.202 186.499 179.621 182.597 173.853C178.695 167.915 176.744 160.959 176.744 152.986C176.744 145.521 178.356 138.819 181.579 132.881C184.972 126.944 190.147 121.939 197.102 117.867C204.058 113.795 212.796 110.911 223.314 109.215L271.157 101.326V123.975L228.913 131.355C221.278 132.712 215.68 135.172 212.117 138.735C208.554 142.128 206.773 146.539 206.773 151.968C206.773 157.227 208.724 161.553 212.626 164.946C216.698 168.17 221.872 169.781 228.149 169.781C235.953 169.781 242.74 168.085 248.508 164.692C254.446 161.299 259.026 156.803 262.25 151.204C265.473 145.436 267.085 139.074 267.085 132.118V96.745C267.085 89.9588 264.54 84.4451 259.451 80.2037C254.531 75.7927 247.914 73.5872 239.601 73.5872C231.966 73.5872 225.265 75.623 219.497 79.6947C213.898 83.5968 209.742 88.6864 207.027 94.9636L183.106 83.003C185.651 76.2168 189.807 70.2789 195.576 65.1892C201.344 59.9299 208.045 55.8582 215.68 52.9741C223.484 50.09 231.712 48.6479 240.364 48.6479C251.222 48.6479 260.808 50.6838 269.121 54.7555C277.604 58.8272 284.135 64.5106 288.716 71.8058C293.466 78.9313 295.841 87.2444 295.841 96.745V189.376H268.357V164.437L274.211 165.201C270.987 170.799 266.831 175.634 261.741 179.706C256.821 183.778 251.137 186.916 244.691 189.122C238.413 191.327 231.373 192.43 223.569 192.43Z" fill="#0C55D2"/>
<g clip-path="url(#clip1_577_659)">
<path fill-rule="evenodd" clip-rule="evenodd" d="M241.546 257.997C241.218 256.05 240.971 254.126 240.811 252.201C240.57 249.313 240.719 246.404 240.634 243.516C240.597 242.292 240.45 239.098 240.509 238.639C241.045 234.636 244.276 234.023 245.221 233.914C245.678 233.848 250.372 233.323 251.385 238.529C252.628 244.895 253.026 251.304 252.586 257.582C253.612 262.919 255.366 268.235 257.683 273.047C266.901 292.187 284.466 294.046 303.496 293.871C306.423 293.828 308.854 296.124 309.007 299.034C309.16 301.965 306.981 304.502 304.067 304.765C293.43 305.793 274.557 314.324 268.031 323.205C266.667 325.064 265.873 329.549 264.823 333.945C263.357 340.048 261.614 346.086 259.66 348.623C259.367 349.017 255.804 353.042 254.741 353.632C252.186 355.032 250.141 354.223 248.979 353.479C247.817 352.735 246.503 351.27 245.978 348.842C245.429 346.304 245.892 341.098 245.807 339.982C245.497 335.936 244.687 327.995 243.036 321.171C242.145 317.496 241.196 314.105 239.626 312.421C233.811 306.187 224.515 307.105 216.686 308.133C215.787 308.243 214.888 308.374 213.991 308.484C210.804 309.424 207.42 310.124 203.843 310.54C198.443 311.174 197.554 306.208 197.506 305.88C197.406 305.159 197.032 301.44 201.102 299.952C201.547 299.799 204.823 299.077 206.085 298.793C207.844 298.399 209.623 298.093 211.407 297.809C229.845 292.078 239.86 275.978 241.546 257.997ZM247.874 277.881C254.835 292.275 265.398 299.231 277.919 302.381H277.917C270.099 306.471 262.987 311.59 259.218 316.73C257.788 318.677 256.475 322.592 255.292 326.989C254.651 322.899 253.785 318.546 252.641 314.827C251.339 310.583 249.587 307.062 247.631 304.962C243.856 300.915 239.118 298.662 234.023 297.546C240.122 292.143 244.746 285.406 247.874 277.881Z" fill="#EB5E45"/>
</g>
<path d="M11.7308 298.447C11.7308 312.528 14.6997 325.082 20.6376 336.11C26.5755 346.968 34.719 355.535 45.0679 361.813C55.4168 367.92 67.2078 370.974 80.4409 370.974H204.374V340.945H81.7133C73.4002 340.945 66.0203 339.164 59.5734 335.601C53.1265 331.869 48.1217 326.864 44.5589 320.587C40.9962 314.14 39.2148 306.76 39.2148 298.447C39.2148 289.964 40.9962 282.584 44.5589 276.307C48.1217 269.86 53.1265 264.855 59.5734 261.292C66.0203 257.56 73.4002 255.694 81.7133 255.694H204.374V225.919H80.4409C67.2078 225.919 55.4168 228.973 45.0679 235.081C34.719 241.188 26.5755 249.756 20.6376 260.783C14.6997 271.641 11.7308 284.196 11.7308 298.447Z" fill="#347362"/>
</g>
<defs>
<clipPath id="clip0_577_659">
<rect width="314" height="371.202" fill="white"/>
</clipPath>
<clipPath id="clip1_577_659">
<rect width="122.497" height="122.497" fill="white" transform="translate(193.025 233.857)"/>
</clipPath>
</defs>
</svg>
