<svg width="914" height="102" viewBox="0 0 914 102" fill="none" xmlns="http://www.w3.org/2000/svg">
<g clip-path="url(#clip0_111_31)">
<path d="M38.298 21.208V48.792C38.298 50.6693 38.6393 51.9493 39.322 52.632C40.0473 53.3147 41.242 53.656 42.906 53.656V55C42.0527 54.9573 40.794 54.9147 39.13 54.872C37.5087 54.7867 35.8233 54.744 34.074 54.744C31.898 54.744 29.786 54.7867 27.738 54.872C25.7327 54.9147 24.1753 54.9573 23.066 55V53.656C24.986 53.656 26.458 53.3147 27.482 52.632C28.5487 51.9067 29.082 50.4987 29.082 48.408V32.792C29.082 30.744 28.9113 29.2293 28.57 28.248C28.2287 27.2667 27.5887 26.6267 26.65 26.328C25.7113 26.0293 24.4313 25.88 22.81 25.88V24.472C26.4793 24.3867 29.5087 24.1093 31.898 23.64C34.33 23.1707 36.4633 22.36 38.298 21.208Z" fill="#47CEB6"/>
<path d="M63.892 41V25.644H73.726V27.844H66.378V32.112H73.044V34.312H66.378V38.8H73.726V41H63.892ZM80.387 41.264C79.3017 41.264 78.3923 41.0733 77.659 40.692C76.9257 40.3107 76.2877 39.7827 75.745 39.108L77.285 37.7C77.7103 38.2133 78.1797 38.6167 78.693 38.91C79.221 39.1887 79.8297 39.328 80.519 39.328C81.223 39.328 81.7437 39.196 82.081 38.932C82.433 38.6533 82.609 38.272 82.609 37.788C82.609 37.4213 82.4843 37.1133 82.235 36.864C82.0003 36.6 81.5823 36.4313 80.981 36.358L79.925 36.226C78.7517 36.0793 77.8277 35.742 77.153 35.214C76.493 34.6713 76.163 33.872 76.163 32.816C76.163 32.2587 76.2657 31.7673 76.471 31.342C76.6763 30.902 76.9623 30.5353 77.329 30.242C77.7103 29.934 78.1577 29.6993 78.671 29.538C79.199 29.3767 79.7783 29.296 80.409 29.296C81.4357 29.296 82.2717 29.4573 82.917 29.78C83.577 30.1027 84.1637 30.55 84.677 31.122L83.203 32.53C82.9097 32.178 82.521 31.8773 82.037 31.628C81.5677 31.364 81.025 31.232 80.409 31.232C79.749 31.232 79.2577 31.364 78.935 31.628C78.627 31.892 78.473 32.2367 78.473 32.662C78.473 33.102 78.6123 33.432 78.891 33.652C79.1697 33.872 79.617 34.0333 80.233 34.136L81.289 34.268C82.5503 34.4587 83.467 34.8327 84.039 35.39C84.6257 35.9327 84.919 36.666 84.919 37.59C84.919 38.1473 84.809 38.6533 84.589 39.108C84.3837 39.548 84.083 39.9293 83.687 40.252C83.291 40.5747 82.8143 40.824 82.257 41C81.6997 41.176 81.0763 41.264 80.387 41.264ZM90.6457 41C89.8097 41 89.1791 40.7873 88.7537 40.362C88.3284 39.922 88.1157 39.306 88.1157 38.514V31.518H86.3337V29.56H87.3017C87.6977 29.56 87.9691 29.472 88.1157 29.296C88.2771 29.12 88.3577 28.834 88.3577 28.438V26.436H90.5137V29.56H92.9117V31.518H90.5137V39.042H92.7357V41H90.6457ZM103.895 41C103.264 41 102.78 40.824 102.443 40.472C102.106 40.1053 101.9 39.6433 101.827 39.086H101.717C101.497 39.8047 101.094 40.3473 100.507 40.714C99.9202 41.0807 99.2089 41.264 98.3729 41.264C97.1849 41.264 96.2682 40.956 95.6229 40.34C94.9922 39.724 94.6769 38.8953 94.6769 37.854C94.6769 36.71 95.0875 35.852 95.9089 35.28C96.7449 34.708 97.9622 34.422 99.5609 34.422H101.629V33.454C101.629 32.75 101.438 32.2073 101.057 31.826C100.676 31.4447 100.082 31.254 99.2749 31.254C98.6002 31.254 98.0502 31.4007 97.6249 31.694C97.1995 31.9873 96.8402 32.3613 96.5469 32.816L95.1169 31.518C95.4982 30.8727 96.0335 30.3447 96.7229 29.934C97.4122 29.5087 98.3142 29.296 99.4289 29.296C100.91 29.296 102.047 29.6407 102.839 30.33C103.631 31.0193 104.027 32.0093 104.027 33.3V39.042H105.237V41H103.895ZM99.0549 39.438C99.8029 39.438 100.419 39.2767 100.903 38.954C101.387 38.6167 101.629 38.1693 101.629 37.612V35.962H99.6049C97.9475 35.962 97.1189 36.4753 97.1189 37.502V37.898C97.1189 38.4113 97.2875 38.8 97.6249 39.064C97.9769 39.3133 98.4535 39.438 99.0549 39.438ZM107.587 24.72H109.985V31.452H110.095C110.344 30.7627 110.748 30.2347 111.305 29.868C111.877 29.4867 112.544 29.296 113.307 29.296C114.759 29.296 115.881 29.824 116.673 30.88C117.465 31.9213 117.861 33.388 117.861 35.28C117.861 37.172 117.465 38.646 116.673 39.702C115.881 40.7433 114.759 41.264 113.307 41.264C112.544 41.264 111.877 41.0733 111.305 40.692C110.748 40.3107 110.344 39.7827 110.095 39.108H109.985V41H107.587V24.72ZM112.581 39.196C113.417 39.196 114.084 38.932 114.583 38.404C115.082 37.8613 115.331 37.15 115.331 36.27V34.29C115.331 33.41 115.082 32.706 114.583 32.178C114.084 31.6353 113.417 31.364 112.581 31.364C111.848 31.364 111.232 31.5473 110.733 31.914C110.234 32.266 109.985 32.7353 109.985 33.322V37.238C109.985 37.8247 110.234 38.3013 110.733 38.668C111.232 39.02 111.848 39.196 112.581 39.196ZM123.049 41C122.227 41 121.611 40.7947 121.201 40.384C120.805 39.9587 120.607 39.372 120.607 38.624V24.72H123.005V39.042H124.589V41H123.049ZM128.09 27.514C127.591 27.514 127.225 27.3967 126.99 27.162C126.77 26.9273 126.66 26.6267 126.66 26.26V25.886C126.66 25.5193 126.77 25.2187 126.99 24.984C127.225 24.7493 127.591 24.632 128.09 24.632C128.589 24.632 128.948 24.7493 129.168 24.984C129.388 25.2187 129.498 25.5193 129.498 25.886V26.26C129.498 26.6267 129.388 26.9273 129.168 27.162C128.948 27.3967 128.589 27.514 128.09 27.514ZM126.88 29.56H129.278V41H126.88V29.56ZM136.332 41.264C135.247 41.264 134.338 41.0733 133.604 40.692C132.871 40.3107 132.233 39.7827 131.69 39.108L133.23 37.7C133.656 38.2133 134.125 38.6167 134.638 38.91C135.166 39.1887 135.775 39.328 136.464 39.328C137.168 39.328 137.689 39.196 138.026 38.932C138.378 38.6533 138.554 38.272 138.554 37.788C138.554 37.4213 138.43 37.1133 138.18 36.864C137.946 36.6 137.528 36.4313 136.926 36.358L135.87 36.226C134.697 36.0793 133.773 35.742 133.098 35.214C132.438 34.6713 132.108 33.872 132.108 32.816C132.108 32.2587 132.211 31.7673 132.416 31.342C132.622 30.902 132.908 30.5353 133.274 30.242C133.656 29.934 134.103 29.6993 134.616 29.538C135.144 29.3767 135.724 29.296 136.354 29.296C137.381 29.296 138.217 29.4573 138.862 29.78C139.522 30.1027 140.109 30.55 140.622 31.122L139.148 32.53C138.855 32.178 138.466 31.8773 137.982 31.628C137.513 31.364 136.97 31.232 136.354 31.232C135.694 31.232 135.203 31.364 134.88 31.628C134.572 31.892 134.418 32.2367 134.418 32.662C134.418 33.102 134.558 33.432 134.836 33.652C135.115 33.872 135.562 34.0333 136.178 34.136L137.234 34.268C138.496 34.4587 139.412 34.8327 139.984 35.39C140.571 35.9327 140.864 36.666 140.864 37.59C140.864 38.1473 140.754 38.6533 140.534 39.108C140.329 39.548 140.028 39.9293 139.632 40.252C139.236 40.5747 138.76 40.824 138.202 41C137.645 41.176 137.022 41.264 136.332 41.264ZM143.573 24.72H145.971V31.452H146.081C146.331 30.836 146.705 30.3227 147.203 29.912C147.717 29.5013 148.413 29.296 149.293 29.296C150.467 29.296 151.376 29.6847 152.021 30.462C152.681 31.2247 153.011 32.3173 153.011 33.74V41H150.613V34.026C150.613 32.2513 149.895 31.364 148.457 31.364C148.149 31.364 147.841 31.408 147.533 31.496C147.24 31.5693 146.976 31.6867 146.741 31.848C146.507 32.0093 146.316 32.2147 146.169 32.464C146.037 32.7133 145.971 32.9993 145.971 33.322V41H143.573V24.72ZM157.545 27.514C157.046 27.514 156.68 27.3967 156.445 27.162C156.225 26.9273 156.115 26.6267 156.115 26.26V25.886C156.115 25.5193 156.225 25.2187 156.445 24.984C156.68 24.7493 157.046 24.632 157.545 24.632C158.044 24.632 158.403 24.7493 158.623 24.984C158.843 25.2187 158.953 25.5193 158.953 25.886V26.26C158.953 26.6267 158.843 26.9273 158.623 27.162C158.403 27.3967 158.044 27.514 157.545 27.514ZM156.335 29.56H158.733V41H156.335V29.56ZM162.157 41V29.56H164.555V31.452H164.665C164.915 30.836 165.289 30.3227 165.787 29.912C166.301 29.5013 166.997 29.296 167.877 29.296C169.051 29.296 169.96 29.6847 170.605 30.462C171.265 31.2247 171.595 32.3173 171.595 33.74V41H169.197V34.048C169.197 32.2587 168.479 31.364 167.041 31.364C166.733 31.364 166.425 31.408 166.117 31.496C165.824 31.5693 165.56 31.6867 165.325 31.848C165.091 32.0093 164.9 32.2147 164.753 32.464C164.621 32.7133 164.555 33.0067 164.555 33.344V41H162.157ZM184.951 42.078C184.951 43.266 184.496 44.1607 183.587 44.762C182.678 45.3633 181.196 45.664 179.143 45.664C178.204 45.664 177.405 45.598 176.745 45.466C176.1 45.3487 175.564 45.1727 175.139 44.938C174.728 44.7033 174.428 44.4173 174.237 44.08C174.046 43.7427 173.951 43.354 173.951 42.914C173.951 42.2833 174.12 41.792 174.457 41.44C174.809 41.088 175.293 40.846 175.909 40.714V40.472C175.044 40.1933 174.611 39.6067 174.611 38.712C174.611 38.1253 174.809 37.678 175.205 37.37C175.601 37.0473 176.078 36.82 176.635 36.688V36.6C175.96 36.2773 175.44 35.83 175.073 35.258C174.721 34.6713 174.545 33.9893 174.545 33.212C174.545 32.0387 174.934 31.0927 175.711 30.374C176.503 29.6553 177.632 29.296 179.099 29.296C179.906 29.296 180.595 29.4133 181.167 29.648V29.34C181.167 28.8267 181.284 28.4307 181.519 28.152C181.768 27.8587 182.15 27.712 182.663 27.712H184.423V29.648H182.091V30.11C182.604 30.4473 183 30.8873 183.279 31.43C183.558 31.958 183.697 32.552 183.697 33.212C183.697 34.3707 183.301 35.3093 182.509 36.028C181.717 36.732 180.588 37.084 179.121 37.084C178.564 37.084 178.065 37.0253 177.625 36.908C177.332 37.0107 177.075 37.1573 176.855 37.348C176.635 37.524 176.525 37.7587 176.525 38.052C176.525 38.36 176.664 38.58 176.943 38.712C177.222 38.844 177.618 38.91 178.131 38.91H180.947C182.355 38.91 183.374 39.196 184.005 39.768C184.636 40.3253 184.951 41.0953 184.951 42.078ZM182.707 42.342C182.707 41.946 182.553 41.6307 182.245 41.396C181.952 41.1613 181.409 41.044 180.617 41.044H176.745C176.217 41.352 175.953 41.792 175.953 42.364C175.953 42.8333 176.136 43.2073 176.503 43.486C176.884 43.7793 177.522 43.926 178.417 43.926H179.913C181.776 43.926 182.707 43.398 182.707 42.342ZM179.121 35.346C179.825 35.346 180.368 35.192 180.749 34.884C181.145 34.5613 181.343 34.07 181.343 33.41V32.97C181.343 32.31 181.145 31.826 180.749 31.518C180.368 31.1953 179.825 31.034 179.121 31.034C178.417 31.034 177.867 31.1953 177.471 31.518C177.09 31.826 176.899 32.31 176.899 32.97V33.41C176.899 34.07 177.09 34.5613 177.471 34.884C177.867 35.192 178.417 35.346 179.121 35.346ZM66.378 66H63.892V50.644H70.514C71.8927 50.644 72.978 51.062 73.77 51.898C74.562 52.7193 74.958 53.8413 74.958 55.264C74.958 56.364 74.7013 57.2807 74.188 58.014C73.6893 58.7327 72.9487 59.2387 71.966 59.532L75.288 66H72.516L69.436 59.796H66.378V66ZM70.338 57.706C70.9687 57.706 71.46 57.5447 71.812 57.222C72.164 56.8847 72.34 56.408 72.34 55.792V54.736C72.34 54.12 72.164 53.6507 71.812 53.328C71.46 52.9907 70.9687 52.822 70.338 52.822H66.378V57.706H70.338ZM82.2978 66.264C81.4764 66.264 80.7431 66.1247 80.0978 65.846C79.4524 65.5673 78.9024 65.1713 78.4478 64.658C77.9931 64.13 77.6411 63.4993 77.3918 62.766C77.1571 62.018 77.0398 61.1893 77.0398 60.28C77.0398 59.3707 77.1571 58.5493 77.3918 57.816C77.6411 57.068 77.9931 56.4373 78.4478 55.924C78.9024 55.396 79.4524 54.9927 80.0978 54.714C80.7431 54.4353 81.4764 54.296 82.2978 54.296C83.1338 54.296 83.8671 54.4427 84.4978 54.736C85.1431 55.0293 85.6784 55.44 86.1038 55.968C86.5291 56.4813 86.8444 57.0827 87.0498 57.772C87.2698 58.4613 87.3798 59.202 87.3798 59.994V60.896H79.5258V61.27C79.5258 62.15 79.7824 62.876 80.2958 63.448C80.8238 64.0053 81.5718 64.284 82.5398 64.284C83.2438 64.284 83.8378 64.13 84.3218 63.822C84.8058 63.514 85.2164 63.096 85.5538 62.568L86.9618 63.954C86.5364 64.658 85.9204 65.2227 85.1138 65.648C84.3071 66.0587 83.3684 66.264 82.2978 66.264ZM82.2978 56.166C81.8871 56.166 81.5058 56.2393 81.1538 56.386C80.8164 56.5327 80.5231 56.738 80.2738 57.002C80.0391 57.266 79.8558 57.5813 79.7238 57.948C79.5918 58.3147 79.5258 58.718 79.5258 59.158V59.312H84.8498V59.092C84.8498 58.212 84.6224 57.508 84.1678 56.98C83.7131 56.4373 83.0898 56.166 82.2978 56.166ZM97.2284 64.108H97.1184C96.869 64.7827 96.4584 65.3107 95.8864 65.692C95.329 66.0733 94.669 66.264 93.9064 66.264C92.4544 66.264 91.3324 65.7433 90.5404 64.702C89.7484 63.646 89.3524 62.172 89.3524 60.28C89.3524 58.388 89.7484 56.9213 90.5404 55.88C91.3324 54.824 92.4544 54.296 93.9064 54.296C94.669 54.296 95.329 54.4867 95.8864 54.868C96.4584 55.2347 96.869 55.7627 97.1184 56.452H97.2284V54.56H99.6264V70.4H97.2284V64.108ZM94.6324 64.196C95.3657 64.196 95.9817 64.02 96.4804 63.668C96.979 63.3013 97.2284 62.8247 97.2284 62.238V58.322C97.2284 57.7353 96.979 57.266 96.4804 56.914C95.9817 56.5473 95.3657 56.364 94.6324 56.364C93.7964 56.364 93.129 56.6353 92.6304 57.178C92.1317 57.706 91.8824 58.41 91.8824 59.29V61.27C91.8824 62.15 92.1317 62.8613 92.6304 63.404C93.129 63.932 93.7964 64.196 94.6324 64.196ZM109.984 64.108H109.896C109.793 64.3867 109.654 64.658 109.478 64.922C109.317 65.186 109.104 65.4207 108.84 65.626C108.591 65.8167 108.283 65.9707 107.916 66.088C107.564 66.2053 107.153 66.264 106.684 66.264C105.496 66.264 104.572 65.8827 103.912 65.12C103.267 64.3573 102.944 63.2647 102.944 61.842V54.56H105.342V61.534C105.342 63.3087 106.075 64.196 107.542 64.196C107.85 64.196 108.151 64.1593 108.444 64.086C108.737 63.998 108.994 63.8733 109.214 63.712C109.449 63.5507 109.632 63.3453 109.764 63.096C109.911 62.8467 109.984 62.5533 109.984 62.216V54.56H112.382V66H109.984V64.108ZM117.026 52.514C116.527 52.514 116.16 52.3967 115.926 52.162C115.706 51.9273 115.596 51.6267 115.596 51.26V50.886C115.596 50.5193 115.706 50.2187 115.926 49.984C116.16 49.7493 116.527 49.632 117.026 49.632C117.524 49.632 117.884 49.7493 118.104 49.984C118.324 50.2187 118.434 50.5193 118.434 50.886V51.26C118.434 51.6267 118.324 51.9273 118.104 52.162C117.884 52.3967 117.524 52.514 117.026 52.514ZM115.816 54.56H118.214V66H115.816V54.56ZM121.638 66V54.56H124.036V56.76H124.146C124.307 56.1733 124.645 55.66 125.158 55.22C125.671 54.78 126.383 54.56 127.292 54.56H127.93V56.87H126.984C126.031 56.87 125.297 57.024 124.784 57.332C124.285 57.64 124.036 58.0947 124.036 58.696V66H121.638ZM134.44 66.264C133.619 66.264 132.886 66.1247 132.24 65.846C131.595 65.5673 131.045 65.1713 130.59 64.658C130.136 64.13 129.784 63.4993 129.534 62.766C129.3 62.018 129.182 61.1893 129.182 60.28C129.182 59.3707 129.3 58.5493 129.534 57.816C129.784 57.068 130.136 56.4373 130.59 55.924C131.045 55.396 131.595 54.9927 132.24 54.714C132.886 54.4353 133.619 54.296 134.44 54.296C135.276 54.296 136.01 54.4427 136.64 54.736C137.286 55.0293 137.821 55.44 138.246 55.968C138.672 56.4813 138.987 57.0827 139.192 57.772C139.412 58.4613 139.522 59.202 139.522 59.994V60.896H131.668V61.27C131.668 62.15 131.925 62.876 132.438 63.448C132.966 64.0053 133.714 64.284 134.682 64.284C135.386 64.284 135.98 64.13 136.464 63.822C136.948 63.514 137.359 63.096 137.696 62.568L139.104 63.954C138.679 64.658 138.063 65.2227 137.256 65.648C136.45 66.0587 135.511 66.264 134.44 66.264ZM134.44 56.166C134.03 56.166 133.648 56.2393 133.296 56.386C132.959 56.5327 132.666 56.738 132.416 57.002C132.182 57.266 131.998 57.5813 131.866 57.948C131.734 58.3147 131.668 58.718 131.668 59.158V59.312H136.992V59.092C136.992 58.212 136.765 57.508 136.31 56.98C135.856 56.4373 135.232 56.166 134.44 56.166ZM142.177 66V54.56H144.575V56.452H144.685C144.802 56.1587 144.942 55.88 145.103 55.616C145.279 55.352 145.484 55.1247 145.719 54.934C145.968 54.7287 146.254 54.5747 146.577 54.472C146.914 54.3547 147.303 54.296 147.743 54.296C148.52 54.296 149.21 54.4867 149.811 54.868C150.412 55.2493 150.852 55.836 151.131 56.628H151.197C151.402 55.9827 151.798 55.4327 152.385 54.978C152.972 54.5233 153.727 54.296 154.651 54.296C155.795 54.296 156.682 54.6847 157.313 55.462C157.944 56.2247 158.259 57.3173 158.259 58.74V66H155.861V59.026C155.861 58.146 155.692 57.486 155.355 57.046C155.018 56.5913 154.482 56.364 153.749 56.364C153.441 56.364 153.148 56.408 152.869 56.496C152.59 56.5693 152.341 56.6867 152.121 56.848C151.916 57.0093 151.747 57.2147 151.615 57.464C151.483 57.7133 151.417 57.9993 151.417 58.322V66H149.019V59.026C149.019 57.2513 148.322 56.364 146.929 56.364C146.636 56.364 146.342 56.408 146.049 56.496C145.77 56.5693 145.521 56.6867 145.301 56.848C145.081 57.0093 144.905 57.2147 144.773 57.464C144.641 57.7133 144.575 57.9993 144.575 58.322V66H142.177ZM166.065 66.264C165.244 66.264 164.511 66.1247 163.865 65.846C163.22 65.5673 162.67 65.1713 162.215 64.658C161.761 64.13 161.409 63.4993 161.159 62.766C160.925 62.018 160.807 61.1893 160.807 60.28C160.807 59.3707 160.925 58.5493 161.159 57.816C161.409 57.068 161.761 56.4373 162.215 55.924C162.67 55.396 163.22 54.9927 163.865 54.714C164.511 54.4353 165.244 54.296 166.065 54.296C166.901 54.296 167.635 54.4427 168.265 54.736C168.911 55.0293 169.446 55.44 169.871 55.968C170.297 56.4813 170.612 57.0827 170.817 57.772C171.037 58.4613 171.147 59.202 171.147 59.994V60.896H163.293V61.27C163.293 62.15 163.55 62.876 164.063 63.448C164.591 64.0053 165.339 64.284 166.307 64.284C167.011 64.284 167.605 64.13 168.089 63.822C168.573 63.514 168.984 63.096 169.321 62.568L170.729 63.954C170.304 64.658 169.688 65.2227 168.881 65.648C168.075 66.0587 167.136 66.264 166.065 66.264ZM166.065 56.166C165.655 56.166 165.273 56.2393 164.921 56.386C164.584 56.5327 164.291 56.738 164.041 57.002C163.807 57.266 163.623 57.5813 163.491 57.948C163.359 58.3147 163.293 58.718 163.293 59.158V59.312H168.617V59.092C168.617 58.212 168.39 57.508 167.935 56.98C167.481 56.4373 166.857 56.166 166.065 56.166ZM173.802 66V54.56H176.2V56.452H176.31C176.559 55.836 176.933 55.3227 177.432 54.912C177.945 54.5013 178.642 54.296 179.522 54.296C180.695 54.296 181.605 54.6847 182.25 55.462C182.91 56.2247 183.24 57.3173 183.24 58.74V66H180.842V59.048C180.842 57.2587 180.123 56.364 178.686 56.364C178.378 56.364 178.07 56.408 177.762 56.496C177.469 56.5693 177.205 56.6867 176.97 56.848C176.735 57.0093 176.545 57.2147 176.398 57.464C176.266 57.7133 176.2 58.0067 176.2 58.344V66H173.802ZM189.732 66C188.896 66 188.265 65.7873 187.84 65.362C187.414 64.922 187.202 64.306 187.202 63.514V56.518H185.42V54.56H186.388C186.784 54.56 187.055 54.472 187.202 54.296C187.363 54.12 187.444 53.834 187.444 53.438V51.436H189.6V54.56H191.998V56.518H189.6V64.042H191.822V66H189.732ZM198.229 66.264C197.143 66.264 196.234 66.0733 195.501 65.692C194.767 65.3107 194.129 64.7827 193.587 64.108L195.127 62.7C195.552 63.2133 196.021 63.6167 196.535 63.91C197.063 64.1887 197.671 64.328 198.361 64.328C199.065 64.328 199.585 64.196 199.923 63.932C200.275 63.6533 200.451 63.272 200.451 62.788C200.451 62.4213 200.326 62.1133 200.077 61.864C199.842 61.6 199.424 61.4313 198.823 61.358L197.767 61.226C196.593 61.0793 195.669 60.742 194.995 60.214C194.335 59.6713 194.005 58.872 194.005 57.816C194.005 57.2587 194.107 56.7673 194.313 56.342C194.518 55.902 194.804 55.5353 195.171 55.242C195.552 54.934 195.999 54.6993 196.513 54.538C197.041 54.3767 197.62 54.296 198.251 54.296C199.277 54.296 200.113 54.4573 200.759 54.78C201.419 55.1027 202.005 55.55 202.519 56.122L201.045 57.53C200.751 57.178 200.363 56.8773 199.879 56.628C199.409 56.364 198.867 56.232 198.251 56.232C197.591 56.232 197.099 56.364 196.777 56.628C196.469 56.892 196.315 57.2367 196.315 57.662C196.315 58.102 196.454 58.432 196.733 58.652C197.011 58.872 197.459 59.0333 198.075 59.136L199.131 59.268C200.392 59.4587 201.309 59.8327 201.881 60.39C202.467 60.9327 202.761 61.666 202.761 62.59C202.761 63.1473 202.651 63.6533 202.431 64.108C202.225 64.548 201.925 64.9293 201.529 65.252C201.133 65.5747 200.656 65.824 200.099 66C199.541 66.176 198.918 66.264 198.229 66.264Z" fill="#6A62B7"/>
<path d="M283.85 21.016C287.135 21.016 289.738 21.72 291.658 23.128C293.578 24.536 294.538 26.5413 294.538 29.144C294.538 30.808 294.111 32.3227 293.258 33.688C292.447 35.0533 291.359 36.3547 289.994 37.592C288.629 38.7867 287.157 39.9173 285.578 40.984C284.042 42.0507 282.549 43.1173 281.098 44.184C279.647 45.208 278.41 46.2747 277.386 47.384H291.21C292.959 47.384 294.069 47.1707 294.538 46.744C295.007 46.3173 295.327 45.5707 295.498 44.504H296.842C296.842 47.3627 296.863 49.5813 296.906 51.16C296.949 52.7387 297.013 54.1253 297.098 55.32C296.714 55.2347 296.01 55.1707 294.986 55.128C293.962 55.0853 292.789 55.0427 291.466 55C290.143 55 288.842 55 287.562 55H268.938V53.784C270.133 52.504 271.605 51.096 273.354 49.56C275.103 48.024 276.81 46.3173 278.474 44.44C280.181 42.5627 281.61 40.536 282.762 38.36C283.914 36.1413 284.49 33.7733 284.49 31.256C284.49 28.952 283.978 27.288 282.954 26.264C281.93 25.24 280.458 24.728 278.538 24.728C276.703 24.728 275.082 25.1547 273.674 26.008C272.309 26.8187 271.071 28.0347 269.962 29.656L268.874 29.016C269.727 27.5653 270.794 26.2427 272.074 25.048C273.397 23.8107 275.018 22.8293 276.938 22.104C278.858 21.3787 281.162 21.016 283.85 21.016Z" fill="#47CEB6"/>
<path d="M314.892 25.644H320.326C321.309 25.644 322.196 25.8053 322.988 26.128C323.795 26.4507 324.477 26.9347 325.034 27.58C325.606 28.2107 326.046 29.01 326.354 29.978C326.662 30.9313 326.816 32.046 326.816 33.322C326.816 34.598 326.662 35.72 326.354 36.688C326.046 37.6413 325.606 38.4407 325.034 39.086C324.477 39.7167 323.795 40.1933 322.988 40.516C322.196 40.8387 321.309 41 320.326 41H314.892V25.644ZM320.326 38.8C321.47 38.8 322.394 38.4407 323.098 37.722C323.802 37.0033 324.154 35.9473 324.154 34.554V32.09C324.154 30.6967 323.802 29.6407 323.098 28.922C322.394 28.2033 321.47 27.844 320.326 27.844H317.378V38.8H320.326ZM334.222 41.264C333.4 41.264 332.667 41.1247 332.022 40.846C331.376 40.5673 330.826 40.1713 330.372 39.658C329.917 39.13 329.565 38.4993 329.316 37.766C329.081 37.018 328.964 36.1893 328.964 35.28C328.964 34.3707 329.081 33.5493 329.316 32.816C329.565 32.068 329.917 31.4373 330.372 30.924C330.826 30.396 331.376 29.9927 332.022 29.714C332.667 29.4353 333.4 29.296 334.222 29.296C335.058 29.296 335.791 29.4427 336.422 29.736C337.067 30.0293 337.602 30.44 338.028 30.968C338.453 31.4813 338.768 32.0827 338.974 32.772C339.194 33.4613 339.304 34.202 339.304 34.994V35.896H331.45V36.27C331.45 37.15 331.706 37.876 332.22 38.448C332.748 39.0053 333.496 39.284 334.464 39.284C335.168 39.284 335.762 39.13 336.246 38.822C336.73 38.514 337.14 38.096 337.478 37.568L338.886 38.954C338.46 39.658 337.844 40.2227 337.038 40.648C336.231 41.0587 335.292 41.264 334.222 41.264ZM334.222 31.166C333.811 31.166 333.43 31.2393 333.078 31.386C332.74 31.5327 332.447 31.738 332.198 32.002C331.963 32.266 331.78 32.5813 331.648 32.948C331.516 33.3147 331.45 33.718 331.45 34.158V34.312H336.774V34.092C336.774 33.212 336.546 32.508 336.092 31.98C335.637 31.4373 335.014 31.166 334.222 31.166ZM345.588 41.264C344.503 41.264 343.594 41.0733 342.86 40.692C342.127 40.3107 341.489 39.7827 340.946 39.108L342.486 37.7C342.912 38.2133 343.381 38.6167 343.894 38.91C344.422 39.1887 345.031 39.328 345.72 39.328C346.424 39.328 346.945 39.196 347.282 38.932C347.634 38.6533 347.81 38.272 347.81 37.788C347.81 37.4213 347.686 37.1133 347.436 36.864C347.202 36.6 346.784 36.4313 346.182 36.358L345.126 36.226C343.953 36.0793 343.029 35.742 342.354 35.214C341.694 34.6713 341.364 33.872 341.364 32.816C341.364 32.2587 341.467 31.7673 341.672 31.342C341.878 30.902 342.164 30.5353 342.53 30.242C342.912 29.934 343.359 29.6993 343.872 29.538C344.4 29.3767 344.98 29.296 345.61 29.296C346.637 29.296 347.473 29.4573 348.118 29.78C348.778 30.1027 349.365 30.55 349.878 31.122L348.404 32.53C348.111 32.178 347.722 31.8773 347.238 31.628C346.769 31.364 346.226 31.232 345.61 31.232C344.95 31.232 344.459 31.364 344.136 31.628C343.828 31.892 343.674 32.2367 343.674 32.662C343.674 33.102 343.814 33.432 344.092 33.652C344.371 33.872 344.818 34.0333 345.434 34.136L346.49 34.268C347.752 34.4587 348.668 34.8327 349.24 35.39C349.827 35.9327 350.12 36.666 350.12 37.59C350.12 38.1473 350.01 38.6533 349.79 39.108C349.585 39.548 349.284 39.9293 348.888 40.252C348.492 40.5747 348.016 40.824 347.458 41C346.901 41.176 346.278 41.264 345.588 41.264ZM354.039 27.514C353.541 27.514 353.174 27.3967 352.939 27.162C352.719 26.9273 352.609 26.6267 352.609 26.26V25.886C352.609 25.5193 352.719 25.2187 352.939 24.984C353.174 24.7493 353.541 24.632 354.039 24.632C354.538 24.632 354.897 24.7493 355.117 24.984C355.337 25.2187 355.447 25.5193 355.447 25.886V26.26C355.447 26.6267 355.337 26.9273 355.117 27.162C354.897 27.3967 354.538 27.514 354.039 27.514ZM352.829 29.56H355.227V41H352.829V29.56ZM368.684 42.078C368.684 43.266 368.229 44.1607 367.32 44.762C366.41 45.3633 364.929 45.664 362.876 45.664C361.937 45.664 361.138 45.598 360.478 45.466C359.832 45.3487 359.297 45.1727 358.872 44.938C358.461 44.7033 358.16 44.4173 357.97 44.08C357.779 43.7427 357.684 43.354 357.684 42.914C357.684 42.2833 357.852 41.792 358.19 41.44C358.542 41.088 359.026 40.846 359.642 40.714V40.472C358.776 40.1933 358.344 39.6067 358.344 38.712C358.344 38.1253 358.542 37.678 358.938 37.37C359.334 37.0473 359.81 36.82 360.368 36.688V36.6C359.693 36.2773 359.172 35.83 358.806 35.258C358.454 34.6713 358.278 33.9893 358.278 33.212C358.278 32.0387 358.666 31.0927 359.444 30.374C360.236 29.6553 361.365 29.296 362.832 29.296C363.638 29.296 364.328 29.4133 364.9 29.648V29.34C364.9 28.8267 365.017 28.4307 365.252 28.152C365.501 27.8587 365.882 27.712 366.396 27.712H368.156V29.648H365.824V30.11C366.337 30.4473 366.733 30.8873 367.012 31.43C367.29 31.958 367.43 32.552 367.43 33.212C367.43 34.3707 367.034 35.3093 366.242 36.028C365.45 36.732 364.32 37.084 362.854 37.084C362.296 37.084 361.798 37.0253 361.358 36.908C361.064 37.0107 360.808 37.1573 360.588 37.348C360.368 37.524 360.258 37.7587 360.258 38.052C360.258 38.36 360.397 38.58 360.676 38.712C360.954 38.844 361.35 38.91 361.864 38.91H364.68C366.088 38.91 367.107 39.196 367.738 39.768C368.368 40.3253 368.684 41.0953 368.684 42.078ZM366.44 42.342C366.44 41.946 366.286 41.6307 365.978 41.396C365.684 41.1613 365.142 41.044 364.35 41.044H360.478C359.95 41.352 359.686 41.792 359.686 42.364C359.686 42.8333 359.869 43.2073 360.236 43.486C360.617 43.7793 361.255 43.926 362.15 43.926H363.646C365.508 43.926 366.44 43.398 366.44 42.342ZM362.854 35.346C363.558 35.346 364.1 35.192 364.482 34.884C364.878 34.5613 365.076 34.07 365.076 33.41V32.97C365.076 32.31 364.878 31.826 364.482 31.518C364.1 31.1953 363.558 31.034 362.854 31.034C362.15 31.034 361.6 31.1953 361.204 31.518C360.822 31.826 360.632 32.31 360.632 32.97V33.41C360.632 34.07 360.822 34.5613 361.204 34.884C361.6 35.192 362.15 35.346 362.854 35.346ZM370.468 41V29.56H372.866V31.452H372.976C373.225 30.836 373.599 30.3227 374.098 29.912C374.611 29.5013 375.308 29.296 376.188 29.296C377.361 29.296 378.271 29.6847 378.916 30.462C379.576 31.2247 379.906 32.3173 379.906 33.74V41H377.508V34.048C377.508 32.2587 376.789 31.364 375.352 31.364C375.044 31.364 374.736 31.408 374.428 31.496C374.135 31.5693 373.871 31.6867 373.636 31.848C373.401 32.0093 373.211 32.2147 373.064 32.464C372.932 32.7133 372.866 33.0067 372.866 33.344V41H370.468ZM384.44 27.514C383.941 27.514 383.574 27.3967 383.34 27.162C383.12 26.9273 383.01 26.6267 383.01 26.26V25.886C383.01 25.5193 383.12 25.2187 383.34 24.984C383.574 24.7493 383.941 24.632 384.44 24.632C384.938 24.632 385.298 24.7493 385.518 24.984C385.738 25.2187 385.848 25.5193 385.848 25.886V26.26C385.848 26.6267 385.738 26.9273 385.518 27.162C385.298 27.3967 384.938 27.514 384.44 27.514ZM383.23 29.56H385.628V41H383.23V29.56ZM389.052 41V29.56H391.45V31.452H391.56C391.809 30.836 392.183 30.3227 392.682 29.912C393.195 29.5013 393.892 29.296 394.772 29.296C395.945 29.296 396.855 29.6847 397.5 30.462C398.16 31.2247 398.49 32.3173 398.49 33.74V41H396.092V34.048C396.092 32.2587 395.373 31.364 393.936 31.364C393.628 31.364 393.32 31.408 393.012 31.496C392.719 31.5693 392.455 31.6867 392.22 31.848C391.985 32.0093 391.795 32.2147 391.648 32.464C391.516 32.7133 391.45 33.0067 391.45 33.344V41H389.052ZM411.846 42.078C411.846 43.266 411.391 44.1607 410.482 44.762C409.572 45.3633 408.091 45.664 406.038 45.664C405.099 45.664 404.3 45.598 403.64 45.466C402.994 45.3487 402.459 45.1727 402.034 44.938C401.623 44.7033 401.322 44.4173 401.132 44.08C400.941 43.7427 400.846 43.354 400.846 42.914C400.846 42.2833 401.014 41.792 401.352 41.44C401.704 41.088 402.188 40.846 402.804 40.714V40.472C401.938 40.1933 401.506 39.6067 401.506 38.712C401.506 38.1253 401.704 37.678 402.1 37.37C402.496 37.0473 402.972 36.82 403.53 36.688V36.6C402.855 36.2773 402.334 35.83 401.968 35.258C401.616 34.6713 401.44 33.9893 401.44 33.212C401.44 32.0387 401.828 31.0927 402.606 30.374C403.398 29.6553 404.527 29.296 405.994 29.296C406.8 29.296 407.49 29.4133 408.062 29.648V29.34C408.062 28.8267 408.179 28.4307 408.414 28.152C408.663 27.8587 409.044 27.712 409.558 27.712H411.318V29.648H408.986V30.11C409.499 30.4473 409.895 30.8873 410.174 31.43C410.452 31.958 410.592 32.552 410.592 33.212C410.592 34.3707 410.196 35.3093 409.404 36.028C408.612 36.732 407.482 37.084 406.016 37.084C405.458 37.084 404.96 37.0253 404.52 36.908C404.226 37.0107 403.97 37.1573 403.75 37.348C403.53 37.524 403.42 37.7587 403.42 38.052C403.42 38.36 403.559 38.58 403.838 38.712C404.116 38.844 404.512 38.91 405.026 38.91H407.842C409.25 38.91 410.269 39.196 410.9 39.768C411.53 40.3253 411.846 41.0953 411.846 42.078ZM409.602 42.342C409.602 41.946 409.448 41.6307 409.14 41.396C408.846 41.1613 408.304 41.044 407.512 41.044H403.64C403.112 41.352 402.848 41.792 402.848 42.364C402.848 42.8333 403.031 43.2073 403.398 43.486C403.779 43.7793 404.417 43.926 405.312 43.926H406.808C408.67 43.926 409.602 43.398 409.602 42.342ZM406.016 35.346C406.72 35.346 407.262 35.192 407.644 34.884C408.04 34.5613 408.238 34.07 408.238 33.41V32.97C408.238 32.31 408.04 31.826 407.644 31.518C407.262 31.1953 406.72 31.034 406.016 31.034C405.312 31.034 404.762 31.1953 404.366 31.518C403.984 31.826 403.794 32.31 403.794 32.97V33.41C403.794 34.07 403.984 34.5613 404.366 34.884C404.762 35.192 405.312 35.346 406.016 35.346Z" fill="#6A62B7"/>
<path d="M513.119 21.016C515.21 21.016 517.087 21.3147 518.751 21.912C520.415 22.4667 521.716 23.2987 522.655 24.408C523.594 25.4747 524.063 26.7973 524.063 28.376C524.063 29.9973 523.53 31.512 522.463 32.92C521.439 34.328 519.946 35.5653 517.983 36.632C516.063 37.656 513.759 38.424 511.071 38.936C513.972 38.808 516.575 39.1067 518.879 39.832C521.183 40.5573 522.996 41.6667 524.319 43.16C525.684 44.6107 526.367 46.4453 526.367 48.664C526.367 50.6267 525.834 52.44 524.767 54.104C523.743 55.768 522.314 57.24 520.479 58.52C518.644 59.8427 516.554 60.952 514.207 61.848C511.903 62.7867 509.471 63.4907 506.911 63.96C504.351 64.4293 501.791 64.664 499.231 64.664V63.384C501.236 63.3413 503.263 62.9787 505.311 62.296C507.402 61.656 509.3 60.7173 511.007 59.48C512.756 58.2853 514.164 56.792 515.231 55C516.298 53.1653 516.831 51.0747 516.831 48.728C516.831 46.2107 516.234 44.1413 515.039 42.52C513.844 40.8987 512.202 40.0027 510.111 39.832C509.471 40.1307 508.895 40.3867 508.383 40.6C507.871 40.7707 507.359 40.856 506.847 40.856C506.463 40.856 506.164 40.792 505.951 40.664C505.738 40.536 505.631 40.3013 505.631 39.96C505.631 39.448 505.844 39.0853 506.271 38.872C506.698 38.6587 507.167 38.552 507.679 38.552C508.02 38.552 508.362 38.5947 508.703 38.68C509.087 38.7227 509.492 38.7653 509.919 38.808C511.754 37.528 513.034 36.1627 513.759 34.712C514.484 33.2187 514.847 31.7253 514.847 30.232C514.847 28.312 514.335 26.904 513.311 26.008C512.33 25.0693 510.943 24.6 509.151 24.6C507.487 24.6 505.93 25.0267 504.479 25.88C503.028 26.6907 501.812 27.928 500.831 29.592L499.679 29.016C500.447 27.608 501.407 26.3067 502.559 25.112C503.711 23.8747 505.14 22.8933 506.847 22.168C508.554 21.4 510.644 21.016 513.119 21.016Z" fill="#47CEB6"/>
<path d="M544.892 41V25.644H551.492C552.915 25.644 554.015 26.062 554.792 26.898C555.569 27.734 555.958 28.856 555.958 30.264C555.958 31.672 555.569 32.794 554.792 33.63C554.015 34.466 552.915 34.884 551.492 34.884H547.378V41H544.892ZM547.378 32.706H551.338C551.969 32.706 552.46 32.5447 552.812 32.222C553.164 31.8847 553.34 31.408 553.34 30.792V29.736C553.34 29.12 553.164 28.6507 552.812 28.328C552.46 27.9907 551.969 27.822 551.338 27.822H547.378V32.706ZM558.294 41V29.56H560.692V31.76H560.802C560.963 31.1733 561.301 30.66 561.814 30.22C562.327 29.78 563.039 29.56 563.948 29.56H564.586V31.87H563.64C562.687 31.87 561.953 32.024 561.44 32.332C560.941 32.64 560.692 33.0947 560.692 33.696V41H558.294ZM571.097 41.264C570.305 41.264 569.579 41.1247 568.919 40.846C568.273 40.5673 567.723 40.1713 567.269 39.658C566.814 39.13 566.462 38.4993 566.213 37.766C565.963 37.018 565.839 36.1893 565.839 35.28C565.839 34.3707 565.963 33.5493 566.213 32.816C566.462 32.068 566.814 31.4373 567.269 30.924C567.723 30.396 568.273 29.9927 568.919 29.714C569.579 29.4353 570.305 29.296 571.097 29.296C571.889 29.296 572.607 29.4353 573.253 29.714C573.913 29.9927 574.47 30.396 574.925 30.924C575.379 31.4373 575.731 32.068 575.981 32.816C576.23 33.5493 576.355 34.3707 576.355 35.28C576.355 36.1893 576.23 37.018 575.981 37.766C575.731 38.4993 575.379 39.13 574.925 39.658C574.47 40.1713 573.913 40.5673 573.253 40.846C572.607 41.1247 571.889 41.264 571.097 41.264ZM571.097 39.284C571.918 39.284 572.578 39.0347 573.077 38.536C573.575 38.0227 573.825 37.26 573.825 36.248V34.312C573.825 33.3 573.575 32.5447 573.077 32.046C572.578 31.5327 571.918 31.276 571.097 31.276C570.275 31.276 569.615 31.5327 569.117 32.046C568.618 32.5447 568.369 33.3 568.369 34.312V36.248C568.369 37.26 568.618 38.0227 569.117 38.536C569.615 39.0347 570.275 39.284 571.097 39.284ZM582.13 41C581.294 41 580.663 40.7873 580.238 40.362C579.813 39.922 579.6 39.306 579.6 38.514V31.518H577.818V29.56H578.786C579.182 29.56 579.453 29.472 579.6 29.296C579.761 29.12 579.842 28.834 579.842 28.438V26.436H581.998V29.56H584.396V31.518H581.998V39.042H584.22V41H582.13ZM591.399 41.264C590.607 41.264 589.881 41.1247 589.221 40.846C588.576 40.5673 588.026 40.1713 587.571 39.658C587.117 39.13 586.765 38.4993 586.515 37.766C586.266 37.018 586.141 36.1893 586.141 35.28C586.141 34.3707 586.266 33.5493 586.515 32.816C586.765 32.068 587.117 31.4373 587.571 30.924C588.026 30.396 588.576 29.9927 589.221 29.714C589.881 29.4353 590.607 29.296 591.399 29.296C592.191 29.296 592.91 29.4353 593.555 29.714C594.215 29.9927 594.773 30.396 595.227 30.924C595.682 31.4373 596.034 32.068 596.283 32.816C596.533 33.5493 596.657 34.3707 596.657 35.28C596.657 36.1893 596.533 37.018 596.283 37.766C596.034 38.4993 595.682 39.13 595.227 39.658C594.773 40.1713 594.215 40.5673 593.555 40.846C592.91 41.1247 592.191 41.264 591.399 41.264ZM591.399 39.284C592.221 39.284 592.881 39.0347 593.379 38.536C593.878 38.0227 594.127 37.26 594.127 36.248V34.312C594.127 33.3 593.878 32.5447 593.379 32.046C592.881 31.5327 592.221 31.276 591.399 31.276C590.578 31.276 589.918 31.5327 589.419 32.046C588.921 32.5447 588.671 33.3 588.671 34.312V36.248C588.671 37.26 588.921 38.0227 589.419 38.536C589.918 39.0347 590.578 39.284 591.399 39.284ZM602.433 41C601.597 41 600.966 40.7873 600.541 40.362C600.115 39.922 599.903 39.306 599.903 38.514V31.518H598.121V29.56H599.089C599.485 29.56 599.756 29.472 599.903 29.296C600.064 29.12 600.145 28.834 600.145 28.438V26.436H602.301V29.56H604.699V31.518H602.301V39.042H604.523V41H602.433ZM614.318 29.56H616.628L611.81 43.266C611.678 43.6473 611.524 43.97 611.348 44.234C611.187 44.5127 610.989 44.7327 610.754 44.894C610.534 45.07 610.263 45.1947 609.94 45.268C609.617 45.356 609.236 45.4 608.796 45.4H607.41V43.442H609.346L610.006 41.506L605.848 29.56H608.246L610.534 36.292L611.194 38.778H611.304L612.03 36.292L614.318 29.56ZM618.601 29.56H620.999V31.452H621.109C621.358 30.7627 621.761 30.2347 622.319 29.868C622.891 29.4867 623.558 29.296 624.321 29.296C625.773 29.296 626.895 29.824 627.687 30.88C628.479 31.9213 628.875 33.388 628.875 35.28C628.875 37.172 628.479 38.646 627.687 39.702C626.895 40.7433 625.773 41.264 624.321 41.264C623.558 41.264 622.891 41.0733 622.319 40.692C621.761 40.3107 621.358 39.7827 621.109 39.108H620.999V45.4H618.601V29.56ZM623.595 39.196C624.431 39.196 625.098 38.932 625.597 38.404C626.095 37.8613 626.345 37.15 626.345 36.27V34.29C626.345 33.41 626.095 32.706 625.597 32.178C625.098 31.6353 624.431 31.364 623.595 31.364C622.861 31.364 622.245 31.5473 621.747 31.914C621.248 32.266 620.999 32.7353 620.999 33.322V37.238C620.999 37.8247 621.248 38.3013 621.747 38.668C622.245 39.02 622.861 39.196 623.595 39.196ZM632.83 27.514C632.332 27.514 631.965 27.3967 631.73 27.162C631.51 26.9273 631.4 26.6267 631.4 26.26V25.886C631.4 25.5193 631.51 25.2187 631.73 24.984C631.965 24.7493 632.332 24.632 632.83 24.632C633.329 24.632 633.688 24.7493 633.908 24.984C634.128 25.2187 634.238 25.5193 634.238 25.886V26.26C634.238 26.6267 634.128 26.9273 633.908 27.162C633.688 27.3967 633.329 27.514 632.83 27.514ZM631.62 29.56H634.018V41H631.62V29.56ZM637.443 41V29.56H639.841V31.452H639.951C640.2 30.836 640.574 30.3227 641.073 29.912C641.586 29.5013 642.283 29.296 643.163 29.296C644.336 29.296 645.245 29.6847 645.891 30.462C646.551 31.2247 646.881 32.3173 646.881 33.74V41H644.483V34.048C644.483 32.2587 643.764 31.364 642.327 31.364C642.019 31.364 641.711 31.408 641.403 31.496C641.109 31.5693 640.845 31.6867 640.611 31.848C640.376 32.0093 640.185 32.2147 640.039 32.464C639.907 32.7133 639.841 33.0067 639.841 33.344V41H637.443ZM660.236 42.078C660.236 43.266 659.782 44.1607 658.872 44.762C657.963 45.3633 656.482 45.664 654.428 45.664C653.49 45.664 652.69 45.598 652.03 45.466C651.385 45.3487 650.85 45.1727 650.424 44.938C650.014 44.7033 649.713 44.4173 649.522 44.08C649.332 43.7427 649.236 43.354 649.236 42.914C649.236 42.2833 649.405 41.792 649.742 41.44C650.094 41.088 650.578 40.846 651.194 40.714V40.472C650.329 40.1933 649.896 39.6067 649.896 38.712C649.896 38.1253 650.094 37.678 650.49 37.37C650.886 37.0473 651.363 36.82 651.92 36.688V36.6C651.246 36.2773 650.725 35.83 650.358 35.258C650.006 34.6713 649.83 33.9893 649.83 33.212C649.83 32.0387 650.219 31.0927 650.996 30.374C651.788 29.6553 652.918 29.296 654.384 29.296C655.191 29.296 655.88 29.4133 656.452 29.648V29.34C656.452 28.8267 656.57 28.4307 656.804 28.152C657.054 27.8587 657.435 27.712 657.948 27.712H659.708V29.648H657.376V30.11C657.89 30.4473 658.286 30.8873 658.564 31.43C658.843 31.958 658.982 32.552 658.982 33.212C658.982 34.3707 658.586 35.3093 657.794 36.028C657.002 36.732 655.873 37.084 654.406 37.084C653.849 37.084 653.35 37.0253 652.91 36.908C652.617 37.0107 652.36 37.1573 652.14 37.348C651.92 37.524 651.81 37.7587 651.81 38.052C651.81 38.36 651.95 38.58 652.228 38.712C652.507 38.844 652.903 38.91 653.416 38.91H656.232C657.64 38.91 658.66 39.196 659.29 39.768C659.921 40.3253 660.236 41.0953 660.236 42.078ZM657.992 42.342C657.992 41.946 657.838 41.6307 657.53 41.396C657.237 41.1613 656.694 41.044 655.902 41.044H652.03C651.502 41.352 651.238 41.792 651.238 42.364C651.238 42.8333 651.422 43.2073 651.788 43.486C652.17 43.7793 652.808 43.926 653.702 43.926H655.198C657.061 43.926 657.992 43.398 657.992 42.342ZM654.406 35.346C655.11 35.346 655.653 35.192 656.034 34.884C656.43 34.5613 656.628 34.07 656.628 33.41V32.97C656.628 32.31 656.43 31.826 656.034 31.518C655.653 31.1953 655.11 31.034 654.406 31.034C653.702 31.034 653.152 31.1953 652.756 31.518C652.375 31.826 652.184 32.31 652.184 32.97V33.41C652.184 34.07 652.375 34.5613 652.756 34.884C653.152 35.192 653.702 35.346 654.406 35.346Z" fill="#6A62B7"/>
<path d="M760.478 21.016L760.734 22.68L740.766 48.28L741.662 46.104H762.014C763.763 46.104 764.872 45.8907 765.342 45.464C765.811 45.0373 766.131 44.2907 766.302 43.224H767.646C767.646 45.784 767.667 47.7893 767.71 49.24C767.752 50.648 767.816 51.9067 767.902 53.016C767.603 52.9307 767.048 52.888 766.238 52.888C765.427 52.8453 764.467 52.8027 763.358 52.76C762.248 52.7173 761.118 52.696 759.966 52.696C758.856 52.696 757.811 52.696 756.83 52.696H736.606V51.352L760.478 21.016ZM761.502 21.016V64.024H754.078V30.04L760.478 21.016H761.502Z" fill="#47CEB6"/>
<path d="M784.892 41V25.644H794.726V27.844H787.378V32.112H794.044V34.312H787.378V38.8H794.726V41H784.892ZM800.243 41L796.349 29.56H798.725L800.463 34.774L801.629 38.778H801.761L802.927 34.774L804.709 29.56H806.997L803.059 41H800.243ZM817.203 41C816.573 41 816.089 40.824 815.751 40.472C815.414 40.1053 815.209 39.6433 815.135 39.086H815.025C814.805 39.8047 814.402 40.3473 813.815 40.714C813.229 41.0807 812.517 41.264 811.681 41.264C810.493 41.264 809.577 40.956 808.931 40.34C808.301 39.724 807.985 38.8953 807.985 37.854C807.985 36.71 808.396 35.852 809.217 35.28C810.053 34.708 811.271 34.422 812.869 34.422H814.937V33.454C814.937 32.75 814.747 32.2073 814.365 31.826C813.984 31.4447 813.39 31.254 812.583 31.254C811.909 31.254 811.359 31.4007 810.933 31.694C810.508 31.9873 810.149 32.3613 809.855 32.816L808.425 31.518C808.807 30.8727 809.342 30.3447 810.031 29.934C810.721 29.5087 811.623 29.296 812.737 29.296C814.219 29.296 815.355 29.6407 816.147 30.33C816.939 31.0193 817.335 32.0093 817.335 33.3V39.042H818.545V41H817.203ZM812.363 39.438C813.111 39.438 813.727 39.2767 814.211 38.954C814.695 38.6167 814.937 38.1693 814.937 37.612V35.962H812.913C811.256 35.962 810.427 36.4753 810.427 37.502V37.898C810.427 38.4113 810.596 38.8 810.933 39.064C811.285 39.3133 811.762 39.438 812.363 39.438ZM823.338 41C822.516 41 821.9 40.7947 821.49 40.384C821.094 39.9587 820.896 39.372 820.896 38.624V24.72H823.294V39.042H824.878V41H823.338ZM834.099 39.108H834.011C833.908 39.3867 833.769 39.658 833.593 39.922C833.432 40.186 833.219 40.4207 832.955 40.626C832.706 40.8167 832.398 40.9707 832.031 41.088C831.679 41.2053 831.268 41.264 830.799 41.264C829.611 41.264 828.687 40.8827 828.027 40.12C827.382 39.3573 827.059 38.2647 827.059 36.842V29.56H829.457V36.534C829.457 38.3087 830.19 39.196 831.657 39.196C831.965 39.196 832.266 39.1593 832.559 39.086C832.852 38.998 833.109 38.8733 833.329 38.712C833.564 38.5507 833.747 38.3453 833.879 38.096C834.026 37.8467 834.099 37.5533 834.099 37.216V29.56H836.497V41H834.099V39.108ZM848.313 41C847.682 41 847.198 40.824 846.861 40.472C846.524 40.1053 846.318 39.6433 846.245 39.086H846.135C845.915 39.8047 845.512 40.3473 844.925 40.714C844.338 41.0807 843.627 41.264 842.791 41.264C841.603 41.264 840.686 40.956 840.041 40.34C839.41 39.724 839.095 38.8953 839.095 37.854C839.095 36.71 839.506 35.852 840.327 35.28C841.163 34.708 842.38 34.422 843.979 34.422H846.047V33.454C846.047 32.75 845.856 32.2073 845.475 31.826C845.094 31.4447 844.5 31.254 843.693 31.254C843.018 31.254 842.468 31.4007 842.043 31.694C841.618 31.9873 841.258 32.3613 840.965 32.816L839.535 31.518C839.916 30.8727 840.452 30.3447 841.141 29.934C841.83 29.5087 842.732 29.296 843.847 29.296C845.328 29.296 846.465 29.6407 847.257 30.33C848.049 31.0193 848.445 32.0093 848.445 33.3V39.042H849.655V41H848.313ZM843.473 39.438C844.221 39.438 844.837 39.2767 845.321 38.954C845.805 38.6167 846.047 38.1693 846.047 37.612V35.962H844.023C842.366 35.962 841.537 36.4753 841.537 37.502V37.898C841.537 38.4113 841.706 38.8 842.043 39.064C842.395 39.3133 842.872 39.438 843.473 39.438ZM855.109 41C854.273 41 853.642 40.7873 853.217 40.362C852.791 39.922 852.579 39.306 852.579 38.514V31.518H850.797V29.56H851.765C852.161 29.56 852.432 29.472 852.579 29.296C852.74 29.12 852.821 28.834 852.821 28.438V26.436H854.977V29.56H857.375V31.518H854.977V39.042H857.199V41H855.109ZM861.186 27.514C860.687 27.514 860.32 27.3967 860.086 27.162C859.866 26.9273 859.756 26.6267 859.756 26.26V25.886C859.756 25.5193 859.866 25.2187 860.086 24.984C860.32 24.7493 860.687 24.632 861.186 24.632C861.684 24.632 862.044 24.7493 862.264 24.984C862.484 25.2187 862.594 25.5193 862.594 25.886V26.26C862.594 26.6267 862.484 26.9273 862.264 27.162C862.044 27.3967 861.684 27.514 861.186 27.514ZM859.976 29.56H862.374V41H859.976V29.56ZM865.798 41V29.56H868.196V31.452H868.306C868.555 30.836 868.929 30.3227 869.428 29.912C869.941 29.5013 870.638 29.296 871.518 29.296C872.691 29.296 873.601 29.6847 874.246 30.462C874.906 31.2247 875.236 32.3173 875.236 33.74V41H872.838V34.048C872.838 32.2587 872.119 31.364 870.682 31.364C870.374 31.364 870.066 31.408 869.758 31.496C869.465 31.5693 869.201 31.6867 868.966 31.848C868.731 32.0093 868.541 32.2147 868.394 32.464C868.262 32.7133 868.196 33.0067 868.196 33.344V41H865.798ZM888.592 42.078C888.592 43.266 888.137 44.1607 887.228 44.762C886.318 45.3633 884.837 45.664 882.784 45.664C881.845 45.664 881.046 45.598 880.386 45.466C879.74 45.3487 879.205 45.1727 878.78 44.938C878.369 44.7033 878.068 44.4173 877.878 44.08C877.687 43.7427 877.592 43.354 877.592 42.914C877.592 42.2833 877.76 41.792 878.098 41.44C878.45 41.088 878.934 40.846 879.55 40.714V40.472C878.684 40.1933 878.252 39.6067 878.252 38.712C878.252 38.1253 878.45 37.678 878.846 37.37C879.242 37.0473 879.718 36.82 880.276 36.688V36.6C879.601 36.2773 879.08 35.83 878.714 35.258C878.362 34.6713 878.186 33.9893 878.186 33.212C878.186 32.0387 878.574 31.0927 879.352 30.374C880.144 29.6553 881.273 29.296 882.74 29.296C883.546 29.296 884.236 29.4133 884.808 29.648V29.34C884.808 28.8267 884.925 28.4307 885.16 28.152C885.409 27.8587 885.79 27.712 886.304 27.712H888.064V29.648H885.732V30.11C886.245 30.4473 886.641 30.8873 886.92 31.43C887.198 31.958 887.338 32.552 887.338 33.212C887.338 34.3707 886.942 35.3093 886.15 36.028C885.358 36.732 884.228 37.084 882.762 37.084C882.204 37.084 881.706 37.0253 881.266 36.908C880.972 37.0107 880.716 37.1573 880.496 37.348C880.276 37.524 880.166 37.7587 880.166 38.052C880.166 38.36 880.305 38.58 880.584 38.712C880.862 38.844 881.258 38.91 881.772 38.91H884.588C885.996 38.91 887.015 39.196 887.646 39.768C888.276 40.3253 888.592 41.0953 888.592 42.078ZM886.348 42.342C886.348 41.946 886.194 41.6307 885.886 41.396C885.592 41.1613 885.05 41.044 884.258 41.044H880.386C879.858 41.352 879.594 41.792 879.594 42.364C879.594 42.8333 879.777 43.2073 880.144 43.486C880.525 43.7793 881.163 43.926 882.058 43.926H883.554C885.416 43.926 886.348 43.398 886.348 42.342ZM882.762 35.346C883.466 35.346 884.008 35.192 884.39 34.884C884.786 34.5613 884.984 34.07 884.984 33.41V32.97C884.984 32.31 884.786 31.826 884.39 31.518C884.008 31.1953 883.466 31.034 882.762 31.034C882.058 31.034 881.508 31.1953 881.112 31.518C880.73 31.826 880.54 32.31 880.54 32.97V33.41C880.54 34.07 880.73 34.5613 881.112 34.884C881.508 35.192 882.058 35.346 882.762 35.346Z" fill="#6A62B7"/>
</g>
<defs>
<clipPath id="clip0_111_31">
<rect width="914" height="102" fill="white"/>
</clipPath>
</defs>
</svg>
