<svg width="390" height="844" viewBox="0 0 390 844" fill="none" xmlns="http://www.w3.org/2000/svg">
<g clip-path="url(#clip0_2_5101)">
<rect width="390" height="844" rx="30" fill="#6A62B7"/>
<g filter="url(#filter0_b_2_5101)">
<rect x="119" y="831" width="146" height="5" rx="2.5" fill="white"/>
</g>
<g filter="url(#filter1_b_2_5101)">
<g filter="url(#filter2_b_2_5101)">
<path d="M32.5537 31H34.4834V28.8359H36.0069V27.1719H34.4834V19.7266H31.6397C30.1084 22.0547 28.5069 24.6484 27.0459 27.1875V28.8359H32.5537V31ZM28.9131 27.1016C30.0147 25.1875 31.3194 23.1016 32.4756 21.3359H32.585V27.2188H28.9131V27.1016ZM39.2259 23.7031C39.9681 23.7031 40.4759 23.1875 40.4759 22.4922C40.4759 21.7969 39.9681 21.2812 39.2259 21.2812C38.4916 21.2812 37.9759 21.7969 37.9759 22.4922C37.9759 23.1875 38.4916 23.7031 39.2259 23.7031ZM39.2259 29.4375C39.9681 29.4375 40.4759 28.9141 40.4759 28.2266C40.4759 27.5312 39.9681 27.0156 39.2259 27.0156C38.4916 27.0156 37.9759 27.5312 37.9759 28.2266C37.9759 28.9141 38.4916 29.4375 39.2259 29.4375ZM42.6716 23.0625H44.5622C44.5622 21.875 45.3434 21.0625 46.57 21.0625C47.7497 21.0625 48.4528 21.8516 48.4528 22.875C48.4528 23.7344 48.1091 24.2734 46.6872 25.7109L42.7809 29.6406V31H50.6091V29.3281H45.5153V29.1953L47.9372 26.8125C49.8747 24.9141 50.445 24 50.445 22.6875C50.445 20.8125 48.9216 19.4453 46.6794 19.4453C44.3278 19.4453 42.6716 20.9297 42.6716 23.0625ZM56.6797 31.2812C59.375 31.2812 60.9766 29.1016 60.9766 25.3672C60.9766 21.625 59.3516 19.4453 56.6797 19.4453C54 19.4453 52.375 21.625 52.375 25.3516C52.375 29.0938 53.9766 31.2812 56.6797 31.2812ZM56.6797 29.6484C55.25 29.6484 54.4141 28.1641 54.4141 25.3516C54.4141 22.5625 55.2656 21.0859 56.6797 21.0859C58.0938 21.0859 58.9375 22.5547 58.9375 25.3516C58.9375 28.1719 58.1094 29.6484 56.6797 29.6484Z" fill="white"/>
<path d="M67.2412 25.7129L71.0171 25.7236C71.103 25.7236 71.1353 25.7559 71.1353 25.8418L71.146 29.6177C71.146 30.3213 71.3555 30.9014 71.9624 30.9014C72.4727 30.9014 72.7627 30.4341 73.0098 29.9023L77.0488 21.126C77.1724 20.8628 77.2422 20.6211 77.2422 20.4116C77.2422 19.9604 76.8931 19.6167 76.4473 19.6167C76.2378 19.6167 75.9961 19.6865 75.7275 19.8101L66.9565 23.8438C66.4409 24.0801 65.9521 24.3755 65.9521 24.8911C65.9521 25.4927 66.5161 25.7129 67.2412 25.7129Z" fill="white"/>
</g>
<g filter="url(#filter3_b_2_5101)">
<g clip-path="url(#clip1_2_5101)">
<rect opacity="0.2" x="317.5" y="20" width="3.5" height="11.5" rx="1" fill="white"/>
<path d="M312.5 23.5C312.5 22.9477 312.948 22.5 313.5 22.5H315C315.552 22.5 316 22.9477 316 23.5V30.5C316 31.0523 315.552 31.5 315 31.5H313.5C312.948 31.5 312.5 31.0523 312.5 30.5V23.5Z" fill="white"/>
<path d="M307.5 26C307.5 25.4477 307.948 25 308.5 25H310C310.552 25 311 25.4477 311 26V30.5C311 31.0523 310.552 31.5 310 31.5H308.5C307.948 31.5 307.5 31.0523 307.5 30.5V26Z" fill="white"/>
<path d="M302.5 28C302.5 27.4477 302.948 27 303.5 27H305C305.552 27 306 27.4477 306 28V30.5C306 31.0523 305.552 31.5 305 31.5H303.5C302.948 31.5 302.5 31.0523 302.5 30.5V28Z" fill="white"/>
<path d="M336.325 29.2891C336.39 29.2255 336.426 29.138 336.424 29.0473C336.422 28.9566 336.383 28.8707 336.316 28.8098C334.979 27.6784 333.022 27.6784 331.686 28.8098C331.618 28.8706 331.579 28.9565 331.577 29.0472C331.575 29.138 331.611 29.2254 331.676 29.2891L333.768 31.4029C333.83 31.465 333.913 31.5 334.001 31.5C334.088 31.5 334.171 31.465 334.233 31.4029L336.325 29.2891Z" fill="white"/>
<path d="M334 26.369C335.276 26.369 336.506 26.8435 337.451 27.7006C337.579 27.8222 337.781 27.8195 337.905 27.6946L339.115 26.4711C339.179 26.4069 339.214 26.3199 339.213 26.2294C339.212 26.1389 339.175 26.0526 339.11 25.9898C336.231 23.3088 331.772 23.3088 328.893 25.9898C328.828 26.0526 328.791 26.139 328.79 26.2295C328.789 26.32 328.825 26.407 328.889 26.4711L330.098 27.6946C330.222 27.8195 330.424 27.8222 330.552 27.7006C331.497 26.8441 332.726 26.3696 334 26.369Z" fill="white"/>
<path opacity="0.2" d="M334 22.3883C336.322 22.3884 338.555 23.2813 340.237 24.8825C340.364 25.0061 340.566 25.0045 340.691 24.879L341.902 23.6555C341.965 23.5918 342.001 23.5055 342 23.4158C341.999 23.326 341.963 23.2402 341.899 23.1772C337.483 18.9409 330.517 18.9409 326.101 23.1772C326.037 23.2401 326.001 23.326 326 23.4157C325.999 23.5055 326.035 23.5917 326.098 23.6555L327.309 24.879C327.434 25.0047 327.637 25.0063 327.763 24.8825C329.446 23.2812 331.679 22.3883 334 22.3883Z" fill="white"/>
<g clip-path="url(#clip2_2_5101)">
<path d="M348 22.75C348 22.0596 348.56 21.5 349.25 21.5H350V30H349.25C348.56 30 348 29.4404 348 28.75V22.75Z" fill="white"/>
<path d="M350 21.5H352V30H350V21.5Z" fill="white"/>
<path d="M352 21.5H354V30H352V21.5Z" fill="white"/>
<path d="M354 21.5H356V30H354V21.5Z" fill="white"/>
<path d="M356 21.5H358V30H356V21.5Z" fill="white"/>
<path d="M358 21.5H360V30H358V21.5Z" fill="white"/>
<path d="M360 21.5H362V30H360V21.5Z" fill="white"/>
<path d="M364 22.75C364 22.0596 363.44 21.5 362.75 21.5H362V30H362.75C363.44 30 364 29.4404 364 28.75V22.75Z" fill="white"/>
</g>
<g opacity="0.5">
<path fill-rule="evenodd" clip-rule="evenodd" d="M346 22.5C346 20.8431 347.343 19.5 349 19.5H367C368.657 19.5 370 20.8431 370 22.5V29C370 30.6569 368.657 32 367 32H349C347.343 32 346 30.6569 346 29V22.5ZM349 20.5C347.895 20.5 347 21.3954 347 22.5V29C347 30.1046 347.895 31 349 31H367C368.105 31 369 30.1046 369 29V22.5C369 21.3954 368.105 20.5 367 20.5H349Z" fill="white"/>
<path d="M371 28.042C371.883 27.6562 372.5 26.7751 372.5 25.75C372.5 24.7248 371.883 23.8438 371 23.458V28.042Z" fill="white"/>
</g>
</g>
</g>
</g>
<ellipse cx="207.551" cy="562.101" rx="2.70339" ry="2.64073" fill="white"/>
<ellipse cx="194.686" cy="557.73" rx="1.77119" ry="1.73013" fill="white"/>
<ellipse cx="217.712" cy="574.94" rx="4.28814" ry="4.18874" fill="white"/>
<ellipse cx="213.424" cy="592.606" rx="5.9661" ry="5.82781" fill="white"/>
<ellipse cx="194.687" cy="603.624" rx="7.55085" ry="7.37583" fill="white"/>
<ellipse cx="174.458" cy="591.149" rx="7.45763" ry="7.28477" fill="white"/>
<path d="M148.506 418.725L148.507 418.724C157.974 408.23 169.632 394.318 178.926 379.302C188.212 364.296 195.173 348.132 195.173 333.144C195.173 318.188 190.095 304.377 180.57 294.301C171.04 284.22 157.085 277.907 139.393 277.907C108.62 277.907 82.5459 303.174 82.5459 333.144C82.5459 348.835 90.1009 364.658 100.131 379.319C109.335 392.772 120.661 405.301 130.246 415.903C131.111 416.86 131.961 417.8 132.794 418.724C132.902 418.845 133.755 419.74 135.078 420.622C136.44 421.529 138.347 422.454 140.482 422.454H140.838C142.973 422.454 144.875 421.529 146.231 420.621C147.593 419.71 148.45 418.787 148.506 418.725ZM137.933 409.395L137.932 409.394C128.372 398.818 117.073 386.317 108.161 373.159C99.244 359.992 92.7641 346.233 92.7641 333.144C92.7641 308.577 114.111 287.79 139.393 287.79C155.168 287.79 166.543 293.494 173.98 301.988C181.426 310.493 184.955 321.832 184.955 333.144C184.955 343.079 181.279 354.689 173.923 367.893C166.571 381.091 155.561 395.851 140.933 412.082C140.856 412.155 140.756 412.236 140.647 412.319C140.54 412.238 140.437 412.154 140.352 412.078L137.933 409.395Z" fill="white" stroke="white" stroke-width="0.908286"/>
<path d="M269.459 340.604L269.46 340.603C277.235 331.984 286.812 320.556 294.447 308.22C302.075 295.894 307.801 282.606 307.801 270.275C307.801 257.977 303.625 246.615 295.787 238.324C287.945 230.029 276.464 224.837 261.916 224.837C236.605 224.837 215.155 245.619 215.155 270.275C215.155 283.185 221.37 296.195 229.609 308.238C237.17 319.289 246.474 329.581 254.345 338.287C255.055 339.072 255.753 339.844 256.437 340.603C256.534 340.711 257.239 341.449 258.328 342.174C259.452 342.924 261.035 343.693 262.81 343.693H263.103C264.878 343.693 266.456 342.924 267.577 342.174C268.702 341.421 269.41 340.658 269.459 340.604ZM260.777 332.834L260.777 332.833C252.926 324.148 243.652 313.887 236.338 303.088C229.018 292.28 223.708 280.999 223.708 270.275C223.708 250.149 241.199 233.115 261.916 233.115C274.848 233.115 284.166 237.79 290.256 244.746C296.354 251.712 299.248 261.003 299.248 270.275C299.248 278.414 296.235 287.934 290.199 298.77C284.166 309.599 275.13 321.714 263.123 335.038C263.074 335.084 263.013 335.134 262.946 335.187C262.879 335.135 262.816 335.082 262.761 335.033L260.777 332.834Z" fill="white" stroke="white" stroke-width="0.908286"/>
<path d="M176.588 193.775C164.165 193.775 154.001 203.939 154.001 216.362C154.001 231.608 173.765 248.831 174.612 249.678C175.176 249.96 176.023 250.242 176.588 250.242C177.153 250.242 178 249.96 178.564 249.678C179.411 248.831 199.175 231.608 199.175 216.362C199.175 203.939 189.011 193.775 176.588 193.775ZM176.588 243.749C170.659 238.102 159.648 225.961 159.648 216.362C159.648 207.045 167.271 199.421 176.588 199.421C185.905 199.421 193.528 207.045 193.528 216.362C193.528 225.679 182.517 238.102 176.588 243.749Z" fill="white"/>
<path d="M188.361 392.135L194.235 387.838" stroke="white" stroke-width="7.92446" stroke-linecap="round"/>
<path d="M205.552 379.56L211.425 375.264" stroke="white" stroke-width="7.92446" stroke-linecap="round"/>
<path d="M222.743 366.986L228.616 362.69" stroke="white" stroke-width="7.92446" stroke-linecap="round"/>
<path d="M239.934 354.412L245.807 350.116" stroke="white" stroke-width="7.92446" stroke-linecap="round"/>
<path d="M204.486 277.545L199.233 272.51" stroke="white" stroke-width="7.92446" stroke-linecap="round"/>
<path d="M190.832 264.458L185.578 259.422" stroke="white" stroke-width="7.92446" stroke-linecap="round"/>
<path d="M145.446 332.348L155.519 321.892" stroke="white" stroke-width="6.33145" stroke-linecap="round"/>
<path d="M144.746 344.482L155.202 354.555" stroke="white" stroke-width="6.33145" stroke-linecap="round"/>
<path d="M123.087 323.617L133.543 333.69" stroke="white" stroke-width="6.33145" stroke-linecap="round"/>
<path d="M123.483 355.147L133.556 344.691" stroke="white" stroke-width="6.33145" stroke-linecap="round"/>
<path d="M266.209 270.395L273.32 262.874" stroke="white" stroke-width="4.97459" stroke-linecap="round"/>
<path d="M265.791 279.05L273.312 286.16" stroke="white" stroke-width="4.97459" stroke-linecap="round"/>
<path d="M250.212 264.321L257.733 271.431" stroke="white" stroke-width="4.97459" stroke-linecap="round"/>
<path d="M250.705 286.794L257.815 279.273" stroke="white" stroke-width="4.97459" stroke-linecap="round"/>
<path d="M223.587 183.383V173" stroke="white" stroke-width="4.52826" stroke-linecap="round"/>
<path d="M229.247 189.981H239.631" stroke="white" stroke-width="4.52826" stroke-linecap="round"/>
<path d="M207.738 189.981H218.121" stroke="white" stroke-width="4.52826" stroke-linecap="round"/>
<path d="M223.587 206.025V195.641" stroke="white" stroke-width="4.52826" stroke-linecap="round"/>
<path d="M104.959 469.2C104.439 468.88 104.359 468 104.959 468H117.199C122.119 468 127.959 469.96 127.959 475.68C127.959 480.28 122.039 483.4 119.119 483.4H117.839C122.559 483.4 124.639 484.92 126.879 489.08C128.799 492.68 129.639 494.24 131.199 494.68C132.039 494.92 131.919 496 131.119 496H121.919C121.319 496 121.319 495.16 121.879 494.8C122.759 494.24 121.479 491.24 120.919 490.04C119.319 486.72 118.399 483.76 114.639 483.76H113.359C113.399 488.68 113.559 493.8 115.119 494.8C115.719 495.16 115.719 496 115.119 496H104.959C104.359 496 104.439 495.12 104.959 494.8C106.639 493.8 106.559 487.4 106.559 482C106.559 476.6 106.799 470.28 104.959 469.2ZM117.199 469.2C112.639 469.2 113.359 476.6 113.359 482C113.359 482.2 113.359 482.36 113.359 482.56C118.919 482.44 121.159 480.44 121.159 475.92C121.159 471.92 119.719 469.2 117.199 469.2ZM143.014 496.8C137.094 496.8 132.214 491.88 132.214 486C132.214 480.08 137.094 475.24 143.014 475.24C148.894 475.24 153.774 480.08 153.774 486C153.774 491.88 148.934 496.8 143.014 496.8ZM138.854 477.36C136.374 478.56 137.294 483.24 139.374 487.72C141.254 491.6 143.814 494.88 146.134 494.88C146.494 494.88 146.854 494.8 147.174 494.64C149.654 493.44 148.694 488.72 146.574 484.28C144.734 480.4 142.174 477.12 139.894 477.12C139.534 477.12 139.174 477.2 138.854 477.36ZM154.685 477.2C154.165 476.88 154.085 476.04 154.685 476L162.085 475.36C162.765 475.28 163.205 475.72 163.205 476.4C163.205 478.88 163.165 481.76 163.165 484.76C163.165 487.24 162.285 494.8 166.125 494.8C170.525 494.8 170.245 489.64 170.245 489.64H170.285V482.56C170.285 481.04 170.485 478.4 168.605 477.28C168.085 476.96 168.005 476.12 168.605 476.08L175.925 475.44C176.605 475.36 177.085 475.8 177.085 476.48V485.24C177.085 488.64 176.805 493.84 178.765 494.84C179.365 495.16 179.365 496 178.565 496C174.245 496 171.765 495 170.805 492.8C170.085 494.4 168.685 496 165.805 496C161.525 496 156.365 493.92 156.365 486.04C156.365 482.64 156.565 478.32 154.685 477.2ZM179.875 477.2C179.515 477.2 179.275 476.96 179.275 476.6C179.275 476.24 179.515 476 179.875 476H180.795C183.675 476 186.395 474.12 186.395 470.16C186.395 469.8 186.715 469.6 186.995 469.6C187.315 469.6 187.595 469.8 187.595 470.16V476H191.035C191.395 476 191.635 476.24 191.635 476.6C191.635 477 191.395 477.2 191.035 477.2H187.595V485.16C187.595 488.56 187.395 493.68 189.275 494.8C189.795 495.12 189.875 496 188.075 496C184.035 496 180.795 494.12 180.795 490.44V477.2H179.875ZM202.742 496.8C197.222 496.8 191.902 492.4 191.902 486.08C191.902 479.64 196.862 475.24 202.142 475.24C208.902 475.24 211.342 480.84 212.102 483.56C212.422 484.32 211.902 485 210.942 485H197.782C198.982 489.04 201.542 493.52 205.422 493.52C208.542 493.52 210.302 491.36 210.862 490.52C211.102 490.16 211.382 490 211.662 490C212.102 490 212.382 490.44 212.062 491.16C210.982 493.44 207.502 496.8 202.742 496.8ZM197.462 483.8H206.702C205.862 481.52 203.742 476.84 200.422 476.84C198.342 476.84 197.022 478.28 197.022 480.48C197.022 481.36 197.182 482.52 197.462 483.8ZM241.017 496H240.577V495.96V496C239.977 496 239.817 495.84 239.537 494.92C238.977 493.16 236.057 485.08 234.897 482C234.457 480.8 234.017 479.52 233.537 478.28C231.497 483.88 228.497 492.24 227.497 495.12C227.337 495.64 226.857 496 226.337 496H225.897V495.96V496C225.297 496 225.137 495.84 224.857 494.92C224.297 493.16 221.377 485.08 220.217 482C218.257 476.6 215.857 470.2 213.857 469.2C213.217 468.88 213.257 468 213.857 468H223.577C224.177 468 224.177 468.88 223.577 469.2C222.177 469.96 225.057 476.6 227.017 482C227.497 483.28 228.177 485.08 228.617 486.4C230.017 482.52 231.537 478.24 232.457 475.64C231.137 472.44 229.777 469.8 228.537 469.2C227.897 468.88 227.937 468 228.537 468H238.257C238.857 468 238.857 468.88 238.257 469.2C236.857 469.96 239.737 476.6 241.697 482C242.177 483.28 242.857 485.08 243.297 486.4C244.017 484.36 244.657 482.6 244.897 482C246.857 476.6 248.297 470.72 245.537 469.2C244.937 468.88 244.937 468 245.537 468H253.257C253.857 468 253.897 468.88 253.257 469.2C251.257 470.2 248.857 476.6 246.897 482C245.897 484.72 243.177 492.2 242.177 495.12C242.017 495.64 241.537 496 241.017 496ZM254.299 496C253.699 496 253.779 495.12 254.299 494.8C255.939 493.8 255.979 491.8 255.979 489.76V481.48C255.979 479.64 255.859 478.16 254.299 477.2C253.779 476.88 253.699 476.04 254.299 476L261.619 475.36C262.299 475.28 262.779 475.72 262.779 476.4V489.8C262.779 491.8 262.579 493.68 264.459 494.8C264.979 495.12 265.059 496 264.459 496H254.299ZM259.379 474.24C257.419 474.24 255.859 472.68 255.859 470.72C255.859 468.76 257.419 467.2 259.379 467.2C261.339 467.2 262.899 468.76 262.899 470.72C262.899 472.68 261.339 474.24 259.379 474.24ZM272.506 480.4C272.106 482.36 270.826 483.2 269.666 483.2C268.226 483.2 266.906 481.88 267.506 479.64C268.386 476.4 271.946 476 276.666 476H283.586C284.266 476 284.546 476.4 284.186 477L273.786 494.8C277.266 494.8 278.706 494.6 279.346 491.6C279.746 489.64 281.026 488.8 282.186 488.8C283.626 488.8 284.946 490.12 284.346 492.36C283.466 495.6 279.906 496 275.186 496H267.466C266.786 496 266.506 495.6 266.866 495L277.266 477.2C274.346 477.24 273.106 477.68 272.506 480.4Z" fill="white"/>
</g>
<defs>
<filter id="filter0_b_2_5101" x="-45" y="780" width="474" height="94" filterUnits="userSpaceOnUse" color-interpolation-filters="sRGB">
<feFlood flood-opacity="0" result="BackgroundImageFix"/>
<feGaussianBlur in="BackgroundImageFix" stdDeviation="15"/>
<feComposite in2="SourceAlpha" operator="in" result="effect1_backgroundBlur_2_5101"/>
<feBlend mode="normal" in="SourceGraphic" in2="effect1_backgroundBlur_2_5101" result="shape"/>
</filter>
<filter id="filter1_b_2_5101" x="-30" y="-29" width="450" height="104" filterUnits="userSpaceOnUse" color-interpolation-filters="sRGB">
<feFlood flood-opacity="0" result="BackgroundImageFix"/>
<feGaussianBlur in="BackgroundImageFix" stdDeviation="15"/>
<feComposite in2="SourceAlpha" operator="in" result="effect1_backgroundBlur_2_5101"/>
<feBlend mode="normal" in="SourceGraphic" in2="effect1_backgroundBlur_2_5101" result="shape"/>
</filter>
<filter id="filter2_b_2_5101" x="-56" y="-55" width="208" height="156" filterUnits="userSpaceOnUse" color-interpolation-filters="sRGB">
<feFlood flood-opacity="0" result="BackgroundImageFix"/>
<feGaussianBlur in="BackgroundImageFix" stdDeviation="28"/>
<feComposite in2="SourceAlpha" operator="in" result="effect1_backgroundBlur_2_5101"/>
<feBlend mode="normal" in="SourceGraphic" in2="effect1_backgroundBlur_2_5101" result="shape"/>
</filter>
<filter id="filter3_b_2_5101" x="238" y="-55" width="208" height="156" filterUnits="userSpaceOnUse" color-interpolation-filters="sRGB">
<feFlood flood-opacity="0" result="BackgroundImageFix"/>
<feGaussianBlur in="BackgroundImageFix" stdDeviation="28"/>
<feComposite in2="SourceAlpha" operator="in" result="effect1_backgroundBlur_2_5101"/>
<feBlend mode="normal" in="SourceGraphic" in2="effect1_backgroundBlur_2_5101" result="shape"/>
</filter>
<clipPath id="clip0_2_5101">
<rect width="390" height="844" rx="30" fill="white"/>
</clipPath>
<clipPath id="clip1_2_5101">
<rect width="72" height="16" fill="white" transform="translate(302 17)"/>
</clipPath>
<clipPath id="clip2_2_5101">
<rect width="16" height="8.5" fill="white" transform="translate(348 21.5)"/>
</clipPath>
</defs>
</svg>
