<svg width="390" height="844" viewBox="0 0 390 844" fill="none" xmlns="http://www.w3.org/2000/svg">
<g clip-path="url(#clip0_2_4970)">
<rect width="390" height="844" rx="30" fill="#6A62B7"/>
<g filter="url(#filter0_b_2_4970)">
<rect x="119" y="831" width="146" height="5" rx="2.5" fill="white"/>
</g>
<g filter="url(#filter1_b_2_4970)">
<g filter="url(#filter2_b_2_4970)">
<path d="M32.5537 31H34.4834V28.8359H36.0069V27.1719H34.4834V19.7266H31.6397C30.1084 22.0547 28.5069 24.6484 27.0459 27.1875V28.8359H32.5537V31ZM28.9131 27.1016C30.0147 25.1875 31.3194 23.1016 32.4756 21.3359H32.585V27.2188H28.9131V27.1016ZM39.2259 23.7031C39.9681 23.7031 40.4759 23.1875 40.4759 22.4922C40.4759 21.7969 39.9681 21.2812 39.2259 21.2812C38.4916 21.2812 37.9759 21.7969 37.9759 22.4922C37.9759 23.1875 38.4916 23.7031 39.2259 23.7031ZM39.2259 29.4375C39.9681 29.4375 40.4759 28.9141 40.4759 28.2266C40.4759 27.5312 39.9681 27.0156 39.2259 27.0156C38.4916 27.0156 37.9759 27.5312 37.9759 28.2266C37.9759 28.9141 38.4916 29.4375 39.2259 29.4375ZM42.6716 23.0625H44.5622C44.5622 21.875 45.3434 21.0625 46.57 21.0625C47.7497 21.0625 48.4528 21.8516 48.4528 22.875C48.4528 23.7344 48.1091 24.2734 46.6872 25.7109L42.7809 29.6406V31H50.6091V29.3281H45.5153V29.1953L47.9372 26.8125C49.8747 24.9141 50.445 24 50.445 22.6875C50.445 20.8125 48.9216 19.4453 46.6794 19.4453C44.3278 19.4453 42.6716 20.9297 42.6716 23.0625ZM56.6797 31.2812C59.375 31.2812 60.9766 29.1016 60.9766 25.3672C60.9766 21.625 59.3516 19.4453 56.6797 19.4453C54 19.4453 52.375 21.625 52.375 25.3516C52.375 29.0938 53.9766 31.2812 56.6797 31.2812ZM56.6797 29.6484C55.25 29.6484 54.4141 28.1641 54.4141 25.3516C54.4141 22.5625 55.2656 21.0859 56.6797 21.0859C58.0938 21.0859 58.9375 22.5547 58.9375 25.3516C58.9375 28.1719 58.1094 29.6484 56.6797 29.6484Z" fill="white"/>
<path d="M67.2412 25.7129L71.0171 25.7236C71.103 25.7236 71.1353 25.7559 71.1353 25.8418L71.146 29.6177C71.146 30.3213 71.3555 30.9014 71.9624 30.9014C72.4727 30.9014 72.7627 30.4341 73.0098 29.9023L77.0488 21.126C77.1724 20.8628 77.2422 20.6211 77.2422 20.4116C77.2422 19.9604 76.8931 19.6167 76.4473 19.6167C76.2378 19.6167 75.9961 19.6865 75.7275 19.8101L66.9565 23.8438C66.4409 24.0801 65.9521 24.3755 65.9521 24.8911C65.9521 25.4927 66.5161 25.7129 67.2412 25.7129Z" fill="white"/>
</g>
<g filter="url(#filter3_b_2_4970)">
<g clip-path="url(#clip1_2_4970)">
<rect opacity="0.2" x="317.5" y="20" width="3.5" height="11.5" rx="1" fill="white"/>
<path d="M312.5 23.5C312.5 22.9477 312.948 22.5 313.5 22.5H315C315.552 22.5 316 22.9477 316 23.5V30.5C316 31.0523 315.552 31.5 315 31.5H313.5C312.948 31.5 312.5 31.0523 312.5 30.5V23.5Z" fill="white"/>
<path d="M307.5 26C307.5 25.4477 307.948 25 308.5 25H310C310.552 25 311 25.4477 311 26V30.5C311 31.0523 310.552 31.5 310 31.5H308.5C307.948 31.5 307.5 31.0523 307.5 30.5V26Z" fill="white"/>
<path d="M302.5 28C302.5 27.4477 302.948 27 303.5 27H305C305.552 27 306 27.4477 306 28V30.5C306 31.0523 305.552 31.5 305 31.5H303.5C302.948 31.5 302.5 31.0523 302.5 30.5V28Z" fill="white"/>
<path d="M336.325 29.2891C336.39 29.2255 336.426 29.138 336.424 29.0473C336.422 28.9566 336.383 28.8707 336.316 28.8098C334.979 27.6784 333.022 27.6784 331.686 28.8098C331.618 28.8706 331.579 28.9565 331.577 29.0472C331.575 29.138 331.611 29.2254 331.676 29.2891L333.768 31.4029C333.83 31.465 333.913 31.5 334.001 31.5C334.088 31.5 334.171 31.465 334.233 31.4029L336.325 29.2891Z" fill="white"/>
<path d="M334 26.369C335.276 26.369 336.506 26.8435 337.451 27.7006C337.579 27.8222 337.781 27.8195 337.905 27.6946L339.115 26.4711C339.179 26.4069 339.214 26.3199 339.213 26.2294C339.212 26.1389 339.175 26.0526 339.11 25.9898C336.231 23.3088 331.772 23.3088 328.893 25.9898C328.828 26.0526 328.791 26.139 328.79 26.2295C328.789 26.32 328.825 26.407 328.889 26.4711L330.098 27.6946C330.222 27.8195 330.424 27.8222 330.552 27.7006C331.497 26.8441 332.726 26.3696 334 26.369Z" fill="white"/>
<path opacity="0.2" d="M334 22.3883C336.322 22.3884 338.555 23.2813 340.237 24.8825C340.364 25.0061 340.566 25.0045 340.691 24.879L341.902 23.6555C341.965 23.5918 342.001 23.5055 342 23.4158C341.999 23.326 341.963 23.2402 341.899 23.1772C337.483 18.9409 330.517 18.9409 326.101 23.1772C326.037 23.2401 326.001 23.326 326 23.4157C325.999 23.5055 326.035 23.5917 326.098 23.6555L327.309 24.879C327.434 25.0047 327.637 25.0063 327.763 24.8825C329.446 23.2812 331.679 22.3883 334 22.3883Z" fill="white"/>
<g clip-path="url(#clip2_2_4970)">
<path d="M348 22.75C348 22.0596 348.56 21.5 349.25 21.5H350V30H349.25C348.56 30 348 29.4404 348 28.75V22.75Z" fill="white"/>
<path d="M350 21.5H352V30H350V21.5Z" fill="white"/>
<path d="M352 21.5H354V30H352V21.5Z" fill="white"/>
<path d="M354 21.5H356V30H354V21.5Z" fill="white"/>
<path d="M356 21.5H358V30H356V21.5Z" fill="white"/>
<path d="M358 21.5H360V30H358V21.5Z" fill="white"/>
<path d="M360 21.5H362V30H360V21.5Z" fill="white"/>
<path d="M364 22.75C364 22.0596 363.44 21.5 362.75 21.5H362V30H362.75C363.44 30 364 29.4404 364 28.75V22.75Z" fill="white"/>
</g>
<g opacity="0.5">
<path fill-rule="evenodd" clip-rule="evenodd" d="M346 22.5C346 20.8431 347.343 19.5 349 19.5H367C368.657 19.5 370 20.8431 370 22.5V29C370 30.6569 368.657 32 367 32H349C347.343 32 346 30.6569 346 29V22.5ZM349 20.5C347.895 20.5 347 21.3954 347 22.5V29C347 30.1046 347.895 31 349 31H367C368.105 31 369 30.1046 369 29V22.5C369 21.3954 368.105 20.5 367 20.5H349Z" fill="white"/>
<path d="M371 28.042C371.883 27.6562 372.5 26.7751 372.5 25.75C372.5 24.7248 371.883 23.8438 371 23.458V28.042Z" fill="white"/>
</g>
</g>
</g>
</g>
<path d="M163.382 264.485L163.382 264.484C169.797 257.374 177.695 247.948 183.992 237.774C190.284 227.608 195 216.656 195 206.501C195 196.369 191.56 187.011 185.106 180.184C178.649 173.354 169.194 169.077 157.207 169.077C136.358 169.077 118.692 186.196 118.692 206.501C118.692 217.132 123.811 227.853 130.606 237.786C136.842 246.901 144.516 255.389 151.011 262.573C151.596 263.221 152.172 263.858 152.737 264.484C152.81 264.566 153.388 265.172 154.284 265.769C155.207 266.384 156.499 267.011 157.945 267.011H158.187C159.633 267.011 160.922 266.384 161.841 265.769C162.763 265.152 163.344 264.527 163.382 264.485ZM156.218 258.163L156.218 258.163C149.741 250.997 142.085 242.527 136.047 233.612C130.006 224.691 125.615 215.37 125.615 206.501C125.615 189.856 140.078 175.773 157.207 175.773C167.895 175.773 175.602 179.637 180.641 185.392C185.686 191.154 188.077 198.837 188.077 206.501C188.077 213.232 185.586 221.098 180.602 230.045C175.621 238.986 168.161 248.987 158.251 259.984C158.199 260.033 158.131 260.088 158.057 260.144C157.984 260.089 157.915 260.033 157.857 259.981L156.218 258.163Z" fill="white" stroke="white" stroke-width="0.615385"/>
<path d="M245.331 211.556L245.331 211.555C250.599 205.716 257.087 197.973 262.26 189.615C267.429 181.264 271.308 172.26 271.308 163.906C271.308 155.574 268.478 147.876 263.168 142.258C257.855 136.638 250.076 133.121 240.22 133.121C223.071 133.121 208.538 147.201 208.538 163.906C208.538 172.653 212.749 181.467 218.331 189.627C223.454 197.115 229.758 204.087 235.09 209.986C235.571 210.518 236.044 211.041 236.508 211.555C236.573 211.628 237.051 212.128 237.789 212.62C238.551 213.127 239.623 213.648 240.826 213.648H241.024C242.227 213.648 243.296 213.127 244.055 212.619C244.817 212.109 245.297 211.592 245.331 211.556ZM239.448 206.291L239.448 206.291C234.129 200.406 227.845 193.454 222.89 186.137C217.931 178.815 214.333 171.172 214.333 163.906C214.333 150.271 226.183 138.73 240.22 138.73C248.982 138.73 255.294 141.897 259.421 146.609C263.553 151.329 265.513 157.624 265.513 163.906C265.513 169.421 263.472 175.87 259.382 183.212C255.295 190.549 249.173 198.757 241.037 207.784C241.004 207.816 240.963 207.85 240.917 207.885C240.872 207.85 240.829 207.814 240.792 207.781L239.448 206.291Z" fill="white" stroke="white" stroke-width="0.615385"/>
<path d="M182.408 112.075C173.991 112.075 167.105 118.962 167.105 127.379C167.105 137.708 180.495 149.377 181.069 149.951C181.452 150.142 182.025 150.334 182.408 150.334C182.791 150.334 183.364 150.142 183.747 149.951C184.321 149.377 197.711 137.708 197.711 127.379C197.711 118.962 190.825 112.075 182.408 112.075ZM182.408 145.934C178.391 142.108 170.931 133.882 170.931 127.379C170.931 121.066 176.095 115.901 182.408 115.901C188.721 115.901 193.886 121.066 193.886 127.379C193.886 133.691 186.425 142.108 182.408 145.934Z" fill="white"/>
<path d="M190.385 246.469L194.364 243.558" stroke="white" stroke-width="5.36901" stroke-linecap="round"/>
<path d="M202.032 237.949L206.011 235.039" stroke="white" stroke-width="5.36901" stroke-linecap="round"/>
<path d="M213.679 229.43L217.659 226.519" stroke="white" stroke-width="5.36901" stroke-linecap="round"/>
<path d="M225.326 220.911L229.306 218" stroke="white" stroke-width="5.36901" stroke-linecap="round"/>
<path d="M201.31 168.832L197.75 165.42" stroke="white" stroke-width="5.36901" stroke-linecap="round"/>
<path d="M192.059 159.965L188.499 156.553" stroke="white" stroke-width="5.36901" stroke-linecap="round"/>
<path d="M161.309 205.962L168.133 198.878" stroke="white" stroke-width="4.2897" stroke-linecap="round"/>
<path d="M160.834 214.183L167.918 221.008" stroke="white" stroke-width="4.2897" stroke-linecap="round"/>
<path d="M146.16 200.047L153.244 206.871" stroke="white" stroke-width="4.2897" stroke-linecap="round"/>
<path d="M146.428 221.409L153.252 214.325" stroke="white" stroke-width="4.2897" stroke-linecap="round"/>
<path d="M243.129 163.987L247.946 158.892" stroke="white" stroke-width="3.3704" stroke-linecap="round"/>
<path d="M242.845 169.851L247.941 174.669" stroke="white" stroke-width="3.3704" stroke-linecap="round"/>
<path d="M232.29 159.872L237.385 164.689" stroke="white" stroke-width="3.3704" stroke-linecap="round"/>
<path d="M232.624 175.098L237.441 170.003" stroke="white" stroke-width="3.3704" stroke-linecap="round"/>
<path d="M214.251 105.035V98" stroke="white" stroke-width="3.068" stroke-linecap="round"/>
<path d="M218.086 109.505H225.121" stroke="white" stroke-width="3.068" stroke-linecap="round"/>
<path d="M203.513 109.505H210.548" stroke="white" stroke-width="3.068" stroke-linecap="round"/>
<path d="M214.251 120.375V113.34" stroke="white" stroke-width="3.068" stroke-linecap="round"/>
<rect x="35" y="383" width="319" height="372" rx="12" fill="white"/>
<path d="M80.0778 578.192C80.0778 578.757 79.9445 579.291 79.6778 579.792C79.4111 580.293 78.9845 580.704 78.3978 581.024C77.8111 581.333 77.0591 581.488 76.1418 581.488H74.1258V586H72.3018V574.88H76.1418C76.9951 574.88 77.7151 575.029 78.3018 575.328C78.8991 575.616 79.3418 576.011 79.6298 576.512C79.9285 577.013 80.0778 577.573 80.0778 578.192ZM76.1418 580C76.8351 580 77.3525 579.845 77.6938 579.536C78.0351 579.216 78.2058 578.768 78.2058 578.192C78.2058 576.976 77.5178 576.368 76.1418 576.368H74.1258V580H76.1418ZM81.2094 581.552C81.2094 580.667 81.3908 579.883 81.7534 579.2C82.1268 578.517 82.6281 577.989 83.2574 577.616C83.8974 577.232 84.6014 577.04 85.3694 577.04C86.0628 577.04 86.6654 577.179 87.1774 577.456C87.7001 577.723 88.1161 578.059 88.4254 578.464V577.184H90.2654V586H88.4254V584.688C88.1161 585.104 87.6948 585.451 87.1614 585.728C86.6281 586.005 86.0201 586.144 85.3374 586.144C84.5801 586.144 83.8868 585.952 83.2574 585.568C82.6281 585.173 82.1268 584.629 81.7534 583.936C81.3908 583.232 81.2094 582.437 81.2094 581.552ZM88.4254 581.584C88.4254 580.976 88.2974 580.448 88.0414 580C87.7961 579.552 87.4708 579.211 87.0654 578.976C86.6601 578.741 86.2228 578.624 85.7534 578.624C85.2841 578.624 84.8468 578.741 84.4414 578.976C84.0361 579.2 83.7054 579.536 83.4494 579.984C83.2041 580.421 83.0814 580.944 83.0814 581.552C83.0814 582.16 83.2041 582.693 83.4494 583.152C83.7054 583.611 84.0361 583.963 84.4414 584.208C84.8574 584.443 85.2948 584.56 85.7534 584.56C86.2228 584.56 86.6601 584.443 87.0654 584.208C87.4708 583.973 87.7961 583.632 88.0414 583.184C88.2974 582.725 88.4254 582.192 88.4254 581.584ZM95.8612 586.144C95.1678 586.144 94.5438 586.021 93.9892 585.776C93.4452 585.52 93.0132 585.179 92.6932 584.752C92.3732 584.315 92.2025 583.829 92.1812 583.296H94.0692C94.1012 583.669 94.2772 583.984 94.5972 584.24C94.9278 584.485 95.3385 584.608 95.8292 584.608C96.3412 584.608 96.7358 584.512 97.0132 584.32C97.3012 584.117 97.4452 583.861 97.4452 583.552C97.4452 583.221 97.2852 582.976 96.9652 582.816C96.6558 582.656 96.1598 582.48 95.4772 582.288C94.8158 582.107 94.2772 581.931 93.8612 581.76C93.4452 581.589 93.0825 581.328 92.7732 580.976C92.4745 580.624 92.3252 580.16 92.3252 579.584C92.3252 579.115 92.4638 578.688 92.7412 578.304C93.0185 577.909 93.4132 577.6 93.9252 577.376C94.4478 577.152 95.0452 577.04 95.7172 577.04C96.7198 577.04 97.5252 577.296 98.1332 577.808C98.7518 578.309 99.0825 578.997 99.1252 579.872H97.3012C97.2692 579.477 97.1092 579.163 96.8212 578.928C96.5332 578.693 96.1438 578.576 95.6532 578.576C95.1732 578.576 94.8052 578.667 94.5492 578.848C94.2932 579.029 94.1652 579.269 94.1652 579.568C94.1652 579.803 94.2505 580 94.4212 580.16C94.5918 580.32 94.7998 580.448 95.0452 580.544C95.2905 580.629 95.6532 580.741 96.1332 580.88C96.7732 581.051 97.2958 581.227 97.7012 581.408C98.1172 581.579 98.4745 581.835 98.7732 582.176C99.0718 582.517 99.2265 582.971 99.2372 583.536C99.2372 584.037 99.0985 584.485 98.8212 584.88C98.5438 585.275 98.1492 585.584 97.6372 585.808C97.1358 586.032 96.5438 586.144 95.8612 586.144ZM104.408 586.144C103.715 586.144 103.091 586.021 102.536 585.776C101.992 585.52 101.56 585.179 101.24 584.752C100.92 584.315 100.749 583.829 100.728 583.296H102.616C102.648 583.669 102.824 583.984 103.144 584.24C103.475 584.485 103.885 584.608 104.376 584.608C104.888 584.608 105.283 584.512 105.56 584.32C105.848 584.117 105.992 583.861 105.992 583.552C105.992 583.221 105.832 582.976 105.512 582.816C105.203 582.656 104.707 582.48 104.024 582.288C103.363 582.107 102.824 581.931 102.408 581.76C101.992 581.589 101.629 581.328 101.32 580.976C101.021 580.624 100.872 580.16 100.872 579.584C100.872 579.115 101.011 578.688 101.288 578.304C101.565 577.909 101.96 577.6 102.472 577.376C102.995 577.152 103.592 577.04 104.264 577.04C105.267 577.04 106.072 577.296 106.68 577.808C107.299 578.309 107.629 578.997 107.672 579.872H105.848C105.816 579.477 105.656 579.163 105.368 578.928C105.08 578.693 104.691 578.576 104.2 578.576C103.72 578.576 103.352 578.667 103.096 578.848C102.84 579.029 102.712 579.269 102.712 579.568C102.712 579.803 102.797 580 102.968 580.16C103.139 580.32 103.347 580.448 103.592 580.544C103.837 580.629 104.2 580.741 104.68 580.88C105.32 581.051 105.843 581.227 106.248 581.408C106.664 581.579 107.021 581.835 107.32 582.176C107.619 582.517 107.773 582.971 107.784 583.536C107.784 584.037 107.645 584.485 107.368 584.88C107.091 585.275 106.696 585.584 106.184 585.808C105.683 586.032 105.091 586.144 104.408 586.144ZM121.595 577.184L118.859 586H116.939L115.163 579.488L113.387 586H111.467L108.715 577.184H110.571L112.411 584.272L114.283 577.184H116.187L117.979 584.24L119.803 577.184H121.595ZM126.782 586.144C125.95 586.144 125.198 585.957 124.526 585.584C123.854 585.2 123.326 584.667 122.942 583.984C122.558 583.291 122.366 582.491 122.366 581.584C122.366 580.688 122.563 579.893 122.958 579.2C123.353 578.507 123.891 577.973 124.574 577.6C125.257 577.227 126.019 577.04 126.862 577.04C127.705 577.04 128.467 577.227 129.15 577.6C129.833 577.973 130.371 578.507 130.766 579.2C131.161 579.893 131.358 580.688 131.358 581.584C131.358 582.48 131.155 583.275 130.75 583.968C130.345 584.661 129.79 585.2 129.086 585.584C128.393 585.957 127.625 586.144 126.782 586.144ZM126.782 584.56C127.251 584.56 127.689 584.448 128.094 584.224C128.51 584 128.846 583.664 129.102 583.216C129.358 582.768 129.486 582.224 129.486 581.584C129.486 580.944 129.363 580.405 129.118 579.968C128.873 579.52 128.547 579.184 128.142 578.96C127.737 578.736 127.299 578.624 126.83 578.624C126.361 578.624 125.923 578.736 125.518 578.96C125.123 579.184 124.809 579.52 124.574 579.968C124.339 580.405 124.222 580.944 124.222 581.584C124.222 582.533 124.462 583.269 124.942 583.792C125.433 584.304 126.046 584.56 126.782 584.56ZM134.985 578.464C135.252 578.016 135.604 577.669 136.041 577.424C136.489 577.168 137.017 577.04 137.625 577.04V578.928H137.161C136.447 578.928 135.903 579.109 135.529 579.472C135.167 579.835 134.985 580.464 134.985 581.36V586H133.161V577.184H134.985V578.464ZM138.694 581.552C138.694 580.667 138.875 579.883 139.238 579.2C139.611 578.517 140.112 577.989 140.742 577.616C141.382 577.232 142.091 577.04 142.87 577.04C143.446 577.04 144.011 577.168 144.566 577.424C145.131 577.669 145.579 578 145.91 578.416V574.16H147.75V586H145.91V584.672C145.611 585.099 145.195 585.451 144.662 585.728C144.139 586.005 143.536 586.144 142.854 586.144C142.086 586.144 141.382 585.952 140.742 585.568C140.112 585.173 139.611 584.629 139.238 583.936C138.875 583.232 138.694 582.437 138.694 581.552ZM145.91 581.584C145.91 580.976 145.782 580.448 145.526 580C145.28 579.552 144.955 579.211 144.55 578.976C144.144 578.741 143.707 578.624 143.238 578.624C142.768 578.624 142.331 578.741 141.926 578.976C141.52 579.2 141.19 579.536 140.934 579.984C140.688 580.421 140.566 580.944 140.566 581.552C140.566 582.16 140.688 582.693 140.934 583.152C141.19 583.611 141.52 583.963 141.926 584.208C142.342 584.443 142.779 584.56 143.238 584.56C143.707 584.56 144.144 584.443 144.55 584.208C144.955 583.973 145.28 583.632 145.526 583.184C145.782 582.725 145.91 582.192 145.91 581.584Z" fill="black"/>
<rect x="70.75" y="597.926" width="247.5" height="43.7722" rx="5.9" fill="#F4F4F4" stroke="#6A62B7" stroke-width="1.5"/>
<path d="M89.8948 622.063C87.6948 622.063 85.9348 620.303 85.9348 618.103C85.9348 615.903 87.6948 614.143 89.8948 614.143C92.0948 614.143 93.8548 615.903 93.8548 618.103C93.8548 620.303 92.0948 622.063 89.8948 622.063ZM98.8304 622.063C96.6304 622.063 94.8704 620.303 94.8704 618.103C94.8704 615.903 96.6304 614.143 98.8304 614.143C101.03 614.143 102.79 615.903 102.79 618.103C102.79 620.303 101.03 622.063 98.8304 622.063ZM107.766 622.063C105.566 622.063 103.806 620.303 103.806 618.103C103.806 615.903 105.566 614.143 107.766 614.143C109.966 614.143 111.726 615.903 111.726 618.103C111.726 620.303 109.966 622.063 107.766 622.063ZM116.701 622.063C114.501 622.063 112.741 620.303 112.741 618.103C112.741 615.903 114.501 614.143 116.701 614.143C118.901 614.143 120.661 615.903 120.661 618.103C120.661 620.303 118.901 622.063 116.701 622.063ZM125.637 622.063C123.437 622.063 121.677 620.303 121.677 618.103C121.677 615.903 123.437 614.143 125.637 614.143C127.837 614.143 129.597 615.903 129.597 618.103C129.597 620.303 127.837 622.063 125.637 622.063ZM134.573 622.063C132.373 622.063 130.613 620.303 130.613 618.103C130.613 615.903 132.373 614.143 134.573 614.143C136.773 614.143 138.533 615.903 138.533 618.103C138.533 620.303 136.773 622.063 134.573 622.063ZM143.508 622.063C141.308 622.063 139.548 620.303 139.548 618.103C139.548 615.903 141.308 614.143 143.508 614.143C145.708 614.143 147.468 615.903 147.468 618.103C147.468 620.303 145.708 622.063 143.508 622.063ZM152.444 622.063C150.244 622.063 148.484 620.303 148.484 618.103C148.484 615.903 150.244 614.143 152.444 614.143C154.644 614.143 156.404 615.903 156.404 618.103C156.404 620.303 154.644 622.063 152.444 622.063Z" fill="#8D91A0"/>
<path d="M74.1008 402.88V409.968C74.1008 410.811 74.3194 411.445 74.7568 411.872C75.2048 412.299 75.8234 412.512 76.6128 412.512C77.4128 412.512 78.0314 412.299 78.4688 411.872C78.9168 411.445 79.1408 410.811 79.1408 409.968V402.88H80.9648V409.936C80.9648 410.843 80.7674 411.611 80.3728 412.24C79.9781 412.869 79.4501 413.339 78.7888 413.648C78.1274 413.957 77.3968 414.112 76.5968 414.112C75.7968 414.112 75.0661 413.957 74.4048 413.648C73.7541 413.339 73.2368 412.869 72.8528 412.24C72.4688 411.611 72.2768 410.843 72.2768 409.936V402.88H74.1008ZM86.5396 414.144C85.8463 414.144 85.2223 414.021 84.6676 413.776C84.1236 413.52 83.6916 413.179 83.3716 412.752C83.0516 412.315 82.881 411.829 82.8596 411.296H84.7476C84.7796 411.669 84.9556 411.984 85.2756 412.24C85.6063 412.485 86.017 412.608 86.5076 412.608C87.0196 412.608 87.4143 412.512 87.6916 412.32C87.9796 412.117 88.1236 411.861 88.1236 411.552C88.1236 411.221 87.9636 410.976 87.6436 410.816C87.3343 410.656 86.8383 410.48 86.1556 410.288C85.4943 410.107 84.9556 409.931 84.5396 409.76C84.1236 409.589 83.761 409.328 83.4516 408.976C83.153 408.624 83.0036 408.16 83.0036 407.584C83.0036 407.115 83.1423 406.688 83.4196 406.304C83.697 405.909 84.0916 405.6 84.6036 405.376C85.1263 405.152 85.7236 405.04 86.3956 405.04C87.3983 405.04 88.2036 405.296 88.8116 405.808C89.4303 406.309 89.761 406.997 89.8036 407.872H87.9796C87.9476 407.477 87.7876 407.163 87.4996 406.928C87.2116 406.693 86.8223 406.576 86.3316 406.576C85.8516 406.576 85.4836 406.667 85.2276 406.848C84.9716 407.029 84.8436 407.269 84.8436 407.568C84.8436 407.803 84.929 408 85.0996 408.16C85.2703 408.32 85.4783 408.448 85.7236 408.544C85.969 408.629 86.3316 408.741 86.8116 408.88C87.4516 409.051 87.9743 409.227 88.3796 409.408C88.7956 409.579 89.153 409.835 89.4516 410.176C89.7503 410.517 89.905 410.971 89.9156 411.536C89.9156 412.037 89.777 412.485 89.4996 412.88C89.2223 413.275 88.8276 413.584 88.3156 413.808C87.8143 414.032 87.2223 414.144 86.5396 414.144ZM99.9665 409.376C99.9665 409.707 99.9452 410.005 99.9025 410.272H93.1665C93.2199 410.976 93.4812 411.541 93.9505 411.968C94.4199 412.395 94.9959 412.608 95.6785 412.608C96.6599 412.608 97.3532 412.197 97.7585 411.376H99.7265C99.4599 412.187 98.9745 412.853 98.2705 413.376C97.5772 413.888 96.7132 414.144 95.6785 414.144C94.8359 414.144 94.0785 413.957 93.4065 413.584C92.7452 413.2 92.2225 412.667 91.8385 411.984C91.4652 411.291 91.2785 410.491 91.2785 409.584C91.2785 408.677 91.4599 407.883 91.8225 407.2C92.1959 406.507 92.7132 405.973 93.3745 405.6C94.0465 405.227 94.8145 405.04 95.6785 405.04C96.5105 405.04 97.2519 405.221 97.9025 405.584C98.5532 405.947 99.0599 406.459 99.4225 407.12C99.7852 407.771 99.9665 408.523 99.9665 409.376ZM98.0625 408.8C98.0519 408.128 97.8119 407.589 97.3425 407.184C96.8732 406.779 96.2919 406.576 95.5985 406.576C94.9692 406.576 94.4305 406.779 93.9825 407.184C93.5345 407.579 93.2679 408.117 93.1825 408.8H98.0625ZM103.586 406.464C103.852 406.016 104.204 405.669 104.642 405.424C105.09 405.168 105.618 405.04 106.226 405.04V406.928H105.762C105.047 406.928 104.503 407.109 104.13 407.472C103.767 407.835 103.586 408.464 103.586 409.36V414H101.762V405.184H103.586V406.464ZM112.35 405.04C113.043 405.04 113.662 405.184 114.206 405.472C114.761 405.76 115.193 406.187 115.502 406.752C115.811 407.317 115.966 408 115.966 408.8V414H114.158V409.072C114.158 408.283 113.961 407.68 113.566 407.264C113.171 406.837 112.633 406.624 111.95 406.624C111.267 406.624 110.723 406.837 110.318 407.264C109.923 407.68 109.726 408.283 109.726 409.072V414H107.902V405.184H109.726V406.192C110.025 405.829 110.403 405.547 110.862 405.344C111.331 405.141 111.827 405.04 112.35 405.04ZM117.685 409.552C117.685 408.667 117.866 407.883 118.229 407.2C118.602 406.517 119.103 405.989 119.733 405.616C120.373 405.232 121.077 405.04 121.845 405.04C122.538 405.04 123.141 405.179 123.653 405.456C124.175 405.723 124.591 406.059 124.901 406.464V405.184H126.741V414H124.901V412.688C124.591 413.104 124.17 413.451 123.637 413.728C123.103 414.005 122.495 414.144 121.813 414.144C121.055 414.144 120.362 413.952 119.733 413.568C119.103 413.173 118.602 412.629 118.229 411.936C117.866 411.232 117.685 410.437 117.685 409.552ZM124.901 409.584C124.901 408.976 124.773 408.448 124.517 408C124.271 407.552 123.946 407.211 123.541 406.976C123.135 406.741 122.698 406.624 122.229 406.624C121.759 406.624 121.322 406.741 120.917 406.976C120.511 407.2 120.181 407.536 119.925 407.984C119.679 408.421 119.557 408.944 119.557 409.552C119.557 410.16 119.679 410.693 119.925 411.152C120.181 411.611 120.511 411.963 120.917 412.208C121.333 412.443 121.77 412.56 122.229 412.56C122.698 412.56 123.135 412.443 123.541 412.208C123.946 411.973 124.271 411.632 124.517 411.184C124.773 410.725 124.901 410.192 124.901 409.584ZM139.809 405.04C140.502 405.04 141.121 405.184 141.665 405.472C142.219 405.76 142.651 406.187 142.961 406.752C143.281 407.317 143.441 408 143.441 408.8V414H141.633V409.072C141.633 408.283 141.435 407.68 141.041 407.264C140.646 406.837 140.107 406.624 139.425 406.624C138.742 406.624 138.198 406.837 137.793 407.264C137.398 407.68 137.201 408.283 137.201 409.072V414H135.393V409.072C135.393 408.283 135.195 407.68 134.801 407.264C134.406 406.837 133.867 406.624 133.185 406.624C132.502 406.624 131.958 406.837 131.553 407.264C131.158 407.68 130.961 408.283 130.961 409.072V414H129.137V405.184H130.961V406.192C131.259 405.829 131.638 405.547 132.097 405.344C132.555 405.141 133.046 405.04 133.569 405.04C134.273 405.04 134.902 405.189 135.457 405.488C136.011 405.787 136.438 406.219 136.737 406.784C137.003 406.251 137.419 405.829 137.985 405.52C138.55 405.2 139.158 405.04 139.809 405.04ZM153.842 409.376C153.842 409.707 153.82 410.005 153.778 410.272H147.042C147.095 410.976 147.356 411.541 147.826 411.968C148.295 412.395 148.871 412.608 149.554 412.608C150.535 412.608 151.228 412.197 151.634 411.376H153.602C153.335 412.187 152.85 412.853 152.146 413.376C151.452 413.888 150.588 414.144 149.554 414.144C148.711 414.144 147.954 413.957 147.282 413.584C146.62 413.2 146.098 412.667 145.714 411.984C145.34 411.291 145.154 410.491 145.154 409.584C145.154 408.677 145.335 407.883 145.698 407.2C146.071 406.507 146.588 405.973 147.25 405.6C147.922 405.227 148.69 405.04 149.554 405.04C150.386 405.04 151.127 405.221 151.778 405.584C152.428 405.947 152.935 406.459 153.298 407.12C153.66 407.771 153.842 408.523 153.842 409.376ZM151.938 408.8C151.927 408.128 151.687 407.589 151.218 407.184C150.748 406.779 150.167 406.576 149.474 406.576C148.844 406.576 148.306 406.779 147.858 407.184C147.41 407.579 147.143 408.117 147.058 408.8H151.938Z" fill="black"/>
<rect x="71.75" y="425.935" width="245.5" height="43.7722" rx="5.9" fill="#F4F4F4" stroke="#6A62B7" stroke-width="1.5"/>
<path d="M84.518 449.121C84.518 448.346 84.6767 447.66 84.994 447.063C85.3207 446.466 85.7593 446.004 86.31 445.677C86.87 445.341 87.486 445.173 88.158 445.173C88.7647 445.173 89.292 445.294 89.74 445.537C90.1973 445.77 90.5613 446.064 90.832 446.419V445.299H92.442V453.013H90.832V451.865C90.5613 452.229 90.1927 452.532 89.726 452.775C89.2593 453.018 88.7273 453.139 88.13 453.139C87.4673 453.139 86.8607 452.971 86.31 452.635C85.7593 452.29 85.3207 451.814 84.994 451.207C84.6767 450.591 84.518 449.896 84.518 449.121ZM90.832 449.149C90.832 448.617 90.72 448.155 90.496 447.763C90.2813 447.371 89.9967 447.072 89.642 446.867C89.2873 446.662 88.9047 446.559 88.494 446.559C88.0833 446.559 87.7007 446.662 87.346 446.867C86.9913 447.063 86.702 447.357 86.478 447.749C86.2633 448.132 86.156 448.589 86.156 449.121C86.156 449.653 86.2633 450.12 86.478 450.521C86.702 450.922 86.9913 451.23 87.346 451.445C87.71 451.65 88.0927 451.753 88.494 451.753C88.9047 451.753 89.2873 451.65 89.642 451.445C89.9967 451.24 90.2813 450.941 90.496 450.549C90.72 450.148 90.832 449.681 90.832 449.149ZM104.898 445.299L102.504 453.013H100.824L99.2703 447.315L97.7163 453.013H96.0363L93.6283 445.299H95.2523L96.8623 451.501L98.5003 445.299H100.166L101.734 451.473L103.33 445.299H104.898ZM109.199 445.173C109.796 445.173 110.324 445.294 110.781 445.537C111.248 445.77 111.612 446.064 111.873 446.419V445.299H113.483V453.139C113.483 453.848 113.334 454.478 113.035 455.029C112.736 455.589 112.302 456.028 111.733 456.345C111.173 456.662 110.501 456.821 109.717 456.821C108.672 456.821 107.804 456.574 107.113 456.079C106.422 455.594 106.03 454.931 105.937 454.091H107.519C107.64 454.492 107.897 454.814 108.289 455.057C108.69 455.309 109.166 455.435 109.717 455.435C110.361 455.435 110.879 455.239 111.271 454.847C111.672 454.455 111.873 453.886 111.873 453.139V451.851C111.602 452.215 111.234 452.523 110.767 452.775C110.31 453.018 109.787 453.139 109.199 453.139C108.527 453.139 107.911 452.971 107.351 452.635C106.8 452.29 106.362 451.814 106.035 451.207C105.718 450.591 105.559 449.896 105.559 449.121C105.559 448.346 105.718 447.66 106.035 447.063C106.362 446.466 106.8 446.004 107.351 445.677C107.911 445.341 108.527 445.173 109.199 445.173ZM111.873 449.149C111.873 448.617 111.761 448.155 111.537 447.763C111.322 447.371 111.038 447.072 110.683 446.867C110.328 446.662 109.946 446.559 109.535 446.559C109.124 446.559 108.742 446.662 108.387 446.867C108.032 447.063 107.743 447.357 107.519 447.749C107.304 448.132 107.197 448.589 107.197 449.121C107.197 449.653 107.304 450.12 107.519 450.521C107.743 450.922 108.032 451.23 108.387 451.445C108.751 451.65 109.134 451.753 109.535 451.753C109.946 451.753 110.328 451.65 110.683 451.445C111.038 451.24 111.322 450.941 111.537 450.549C111.761 450.148 111.873 449.681 111.873 449.149ZM116.391 444.277C116.102 444.277 115.859 444.179 115.663 443.983C115.467 443.787 115.369 443.544 115.369 443.255C115.369 442.966 115.467 442.723 115.663 442.527C115.859 442.331 116.102 442.233 116.391 442.233C116.671 442.233 116.909 442.331 117.105 442.527C117.301 442.723 117.399 442.966 117.399 443.255C117.399 443.544 117.301 443.787 117.105 443.983C116.909 444.179 116.671 444.277 116.391 444.277ZM117.175 445.299V453.013H115.579V445.299H117.175ZM123.163 445.173C123.769 445.173 124.311 445.299 124.787 445.551C125.272 445.803 125.65 446.176 125.921 446.671C126.191 447.166 126.327 447.763 126.327 448.463V453.013H124.745V448.701C124.745 448.01 124.572 447.483 124.227 447.119C123.881 446.746 123.41 446.559 122.813 446.559C122.215 446.559 121.739 446.746 121.385 447.119C121.039 447.483 120.867 448.01 120.867 448.701V453.013H119.271V445.299H120.867V446.181C121.128 445.864 121.459 445.616 121.861 445.439C122.271 445.262 122.705 445.173 123.163 445.173ZM127.831 449.121C127.831 448.346 127.989 447.66 128.307 447.063C128.633 446.466 129.072 446.004 129.623 445.677C130.183 445.341 130.799 445.173 131.471 445.173C132.077 445.173 132.605 445.294 133.053 445.537C133.51 445.77 133.874 446.064 134.145 446.419V445.299H135.755V453.013H134.145V451.865C133.874 452.229 133.505 452.532 133.039 452.775C132.572 453.018 132.04 453.139 131.443 453.139C130.78 453.139 130.173 452.971 129.623 452.635C129.072 452.29 128.633 451.814 128.307 451.207C127.989 450.591 127.831 449.896 127.831 449.121ZM134.145 449.149C134.145 448.617 134.033 448.155 133.809 447.763C133.594 447.371 133.309 447.072 132.955 446.867C132.6 446.662 132.217 446.559 131.807 446.559C131.396 446.559 131.013 446.662 130.659 446.867C130.304 447.063 130.015 447.357 129.791 447.749C129.576 448.132 129.469 448.589 129.469 449.121C129.469 449.653 129.576 450.12 129.791 450.521C130.015 450.922 130.304 451.23 130.659 451.445C131.023 451.65 131.405 451.753 131.807 451.753C132.217 451.753 132.6 451.65 132.955 451.445C133.309 451.24 133.594 450.941 133.809 450.549C134.033 450.148 134.145 449.681 134.145 449.149Z" fill="#8D91A0"/>
<path d="M74.1168 490.352V493.616H77.9568V495.104H74.1168V498.512H78.4368V500H72.2928V488.864H78.4368V490.352H74.1168ZM91.3554 491.04C92.0487 491.04 92.6674 491.184 93.2114 491.472C93.7661 491.76 94.1981 492.187 94.5074 492.752C94.8274 493.317 94.9874 494 94.9874 494.8V500H93.1794V495.072C93.1794 494.283 92.9821 493.68 92.5874 493.264C92.1927 492.837 91.6541 492.624 90.9714 492.624C90.2887 492.624 89.7447 492.837 89.3394 493.264C88.9447 493.68 88.7474 494.283 88.7474 495.072V500H86.9394V495.072C86.9394 494.283 86.7421 493.68 86.3474 493.264C85.9527 492.837 85.4141 492.624 84.7314 492.624C84.0487 492.624 83.5047 492.837 83.0994 493.264C82.7047 493.68 82.5074 494.283 82.5074 495.072V500H80.6834V491.184H82.5074V492.192C82.8061 491.829 83.1847 491.547 83.6434 491.344C84.1021 491.141 84.5927 491.04 85.1154 491.04C85.8194 491.04 86.4487 491.189 87.0034 491.488C87.5581 491.787 87.9847 492.219 88.2834 492.784C88.5501 492.251 88.9661 491.829 89.5314 491.52C90.0967 491.2 90.7047 491.04 91.3554 491.04ZM96.7004 495.552C96.7004 494.667 96.8817 493.883 97.2444 493.2C97.6177 492.517 98.1191 491.989 98.7484 491.616C99.3884 491.232 100.092 491.04 100.86 491.04C101.554 491.04 102.156 491.179 102.668 491.456C103.191 491.723 103.607 492.059 103.916 492.464V491.184H105.756V500H103.916V498.688C103.607 499.104 103.186 499.451 102.652 499.728C102.119 500.005 101.511 500.144 100.828 500.144C100.071 500.144 99.3777 499.952 98.7484 499.568C98.1191 499.173 97.6177 498.629 97.2444 497.936C96.8817 497.232 96.7004 496.437 96.7004 495.552ZM103.916 495.584C103.916 494.976 103.788 494.448 103.532 494C103.287 493.552 102.962 493.211 102.556 492.976C102.151 492.741 101.714 492.624 101.244 492.624C100.775 492.624 100.338 492.741 99.9324 492.976C99.5271 493.2 99.1964 493.536 98.9404 493.984C98.6951 494.421 98.5724 494.944 98.5724 495.552C98.5724 496.16 98.6951 496.693 98.9404 497.152C99.1964 497.611 99.5271 497.963 99.9324 498.208C100.348 498.443 100.786 498.56 101.244 498.56C101.714 498.56 102.151 498.443 102.556 498.208C102.962 497.973 103.287 497.632 103.532 497.184C103.788 496.725 103.916 496.192 103.916 495.584ZM109.08 490.016C108.749 490.016 108.472 489.904 108.248 489.68C108.024 489.456 107.912 489.179 107.912 488.848C107.912 488.517 108.024 488.24 108.248 488.016C108.472 487.792 108.749 487.68 109.08 487.68C109.4 487.68 109.672 487.792 109.896 488.016C110.12 488.24 110.232 488.517 110.232 488.848C110.232 489.179 110.12 489.456 109.896 489.68C109.672 489.904 109.4 490.016 109.08 490.016ZM109.976 491.184V500H108.152V491.184H109.976ZM114.195 488.16V500H112.371V488.16H114.195ZM127.45 497.728H122.794L121.994 500H120.09L124.074 488.864H126.186L130.17 500H128.25L127.45 497.728ZM126.938 496.24L125.13 491.072L123.306 496.24H126.938ZM131.294 495.552C131.294 494.667 131.475 493.883 131.838 493.2C132.211 492.517 132.713 491.989 133.342 491.616C133.982 491.232 134.691 491.04 135.47 491.04C136.046 491.04 136.611 491.168 137.166 491.424C137.731 491.669 138.179 492 138.51 492.416V488.16H140.35V500H138.51V498.672C138.211 499.099 137.795 499.451 137.262 499.728C136.739 500.005 136.137 500.144 135.454 500.144C134.686 500.144 133.982 499.952 133.342 499.568C132.713 499.173 132.211 498.629 131.838 497.936C131.475 497.232 131.294 496.437 131.294 495.552ZM138.51 495.584C138.51 494.976 138.382 494.448 138.126 494C137.881 493.552 137.555 493.211 137.15 492.976C136.745 492.741 136.307 492.624 135.838 492.624C135.369 492.624 134.931 492.741 134.526 492.976C134.121 493.2 133.79 493.536 133.534 493.984C133.289 494.421 133.166 494.944 133.166 495.552C133.166 496.16 133.289 496.693 133.534 497.152C133.79 497.611 134.121 497.963 134.526 498.208C134.942 498.443 135.379 498.56 135.838 498.56C136.307 498.56 136.745 498.443 137.15 498.208C137.555 497.973 137.881 497.632 138.126 497.184C138.382 496.725 138.51 496.192 138.51 495.584ZM144.57 492.464C144.837 492.016 145.189 491.669 145.626 491.424C146.074 491.168 146.602 491.04 147.21 491.04V492.928H146.746C146.031 492.928 145.487 493.109 145.114 493.472C144.751 493.835 144.57 494.464 144.57 495.36V500H142.746V491.184H144.57V492.464ZM156.967 495.376C156.967 495.707 156.945 496.005 156.903 496.272H150.167C150.22 496.976 150.481 497.541 150.951 497.968C151.42 498.395 151.996 498.608 152.679 498.608C153.66 498.608 154.353 498.197 154.759 497.376H156.727C156.46 498.187 155.975 498.853 155.271 499.376C154.577 499.888 153.713 500.144 152.679 500.144C151.836 500.144 151.079 499.957 150.407 499.584C149.745 499.2 149.223 498.667 148.839 497.984C148.465 497.291 148.279 496.491 148.279 495.584C148.279 494.677 148.46 493.883 148.823 493.2C149.196 492.507 149.713 491.973 150.375 491.6C151.047 491.227 151.815 491.04 152.679 491.04C153.511 491.04 154.252 491.221 154.903 491.584C155.553 491.947 156.06 492.459 156.423 493.12C156.785 493.771 156.967 494.523 156.967 495.376ZM155.063 494.8C155.052 494.128 154.812 493.589 154.343 493.184C153.873 492.779 153.292 492.576 152.599 492.576C151.969 492.576 151.431 492.779 150.983 493.184C150.535 493.579 150.268 494.117 150.183 494.8H155.063ZM161.962 500.144C161.268 500.144 160.644 500.021 160.09 499.776C159.546 499.52 159.114 499.179 158.794 498.752C158.474 498.315 158.303 497.829 158.282 497.296H160.17C160.202 497.669 160.378 497.984 160.698 498.24C161.028 498.485 161.439 498.608 161.93 498.608C162.442 498.608 162.836 498.512 163.114 498.32C163.402 498.117 163.546 497.861 163.546 497.552C163.546 497.221 163.386 496.976 163.066 496.816C162.756 496.656 162.26 496.48 161.578 496.288C160.916 496.107 160.378 495.931 159.962 495.76C159.546 495.589 159.183 495.328 158.874 494.976C158.575 494.624 158.426 494.16 158.426 493.584C158.426 493.115 158.564 492.688 158.842 492.304C159.119 491.909 159.514 491.6 160.026 491.376C160.548 491.152 161.146 491.04 161.818 491.04C162.82 491.04 163.626 491.296 164.234 491.808C164.852 492.309 165.183 492.997 165.226 493.872H163.402C163.37 493.477 163.21 493.163 162.922 492.928C162.634 492.693 162.244 492.576 161.754 492.576C161.274 492.576 160.906 492.667 160.65 492.848C160.394 493.029 160.266 493.269 160.266 493.568C160.266 493.803 160.351 494 160.522 494.16C160.692 494.32 160.9 494.448 161.146 494.544C161.391 494.629 161.754 494.741 162.234 494.88C162.874 495.051 163.396 495.227 163.802 495.408C164.218 495.579 164.575 495.835 164.874 496.176C165.172 496.517 165.327 496.971 165.338 497.536C165.338 498.037 165.199 498.485 164.922 498.88C164.644 499.275 164.25 499.584 163.738 499.808C163.236 500.032 162.644 500.144 161.962 500.144ZM170.508 500.144C169.815 500.144 169.191 500.021 168.636 499.776C168.092 499.52 167.66 499.179 167.34 498.752C167.02 498.315 166.85 497.829 166.828 497.296H168.716C168.748 497.669 168.924 497.984 169.244 498.24C169.575 498.485 169.986 498.608 170.476 498.608C170.988 498.608 171.383 498.512 171.66 498.32C171.948 498.117 172.092 497.861 172.092 497.552C172.092 497.221 171.932 496.976 171.612 496.816C171.303 496.656 170.807 496.48 170.124 496.288C169.463 496.107 168.924 495.931 168.508 495.76C168.092 495.589 167.73 495.328 167.42 494.976C167.122 494.624 166.972 494.16 166.972 493.584C166.972 493.115 167.111 492.688 167.388 492.304C167.666 491.909 168.06 491.6 168.572 491.376C169.095 491.152 169.692 491.04 170.364 491.04C171.367 491.04 172.172 491.296 172.78 491.808C173.399 492.309 173.73 492.997 173.772 493.872H171.948C171.916 493.477 171.756 493.163 171.468 492.928C171.18 492.693 170.791 492.576 170.3 492.576C169.82 492.576 169.452 492.667 169.196 492.848C168.94 493.029 168.812 493.269 168.812 493.568C168.812 493.803 168.898 494 169.068 494.16C169.239 494.32 169.447 494.448 169.692 494.544C169.938 494.629 170.3 494.741 170.78 494.88C171.42 495.051 171.943 495.227 172.348 495.408C172.764 495.579 173.122 495.835 173.42 496.176C173.719 496.517 173.874 496.971 173.884 497.536C173.884 498.037 173.746 498.485 173.468 498.88C173.191 499.275 172.796 499.584 172.284 499.808C171.783 500.032 171.191 500.144 170.508 500.144Z" fill="black"/>
<rect x="70.75" y="511.926" width="245.5" height="43.7722" rx="5.9" fill="#F4F4F4" stroke="#6A62B7" stroke-width="1.5"/>
<path d="M85.8188 535.831C85.8188 535.056 85.9774 534.37 86.2948 533.773C86.6214 533.175 87.0601 532.713 87.6108 532.387C88.1708 532.051 88.7868 531.883 89.4588 531.883C90.0654 531.883 90.5928 532.004 91.0408 532.247C91.4981 532.48 91.8621 532.774 92.1328 533.129V532.009H93.7428V539.723H92.1328V538.575C91.8621 538.939 91.4934 539.242 91.0268 539.485C90.5601 539.727 90.0281 539.849 89.4308 539.849C88.7681 539.849 88.1614 539.681 87.6108 539.345C87.0601 538.999 86.6214 538.523 86.2948 537.917C85.9774 537.301 85.8188 536.605 85.8188 535.831ZM92.1328 535.859C92.1328 535.327 92.0208 534.865 91.7968 534.473C91.5821 534.081 91.2974 533.782 90.9428 533.577C90.5881 533.371 90.2054 533.269 89.7948 533.269C89.3841 533.269 89.0014 533.371 88.6468 533.577C88.2921 533.773 88.0028 534.067 87.7788 534.459C87.5641 534.841 87.4568 535.299 87.4568 535.831C87.4568 536.363 87.5641 536.829 87.7788 537.231C88.0028 537.632 88.2921 537.94 88.6468 538.155C89.0108 538.36 89.3934 538.463 89.7948 538.463C90.2054 538.463 90.5881 538.36 90.9428 538.155C91.2974 537.949 91.5821 537.651 91.7968 537.259C92.0208 536.857 92.1328 536.391 92.1328 535.859ZM106.199 532.009L103.805 539.723H102.125L100.571 534.025L99.0171 539.723H97.3371L94.9291 532.009H96.5531L98.1631 538.211L99.8011 532.009H101.467L103.035 538.183L104.631 532.009H106.199ZM110.5 531.883C111.097 531.883 111.624 532.004 112.082 532.247C112.548 532.48 112.912 532.774 113.174 533.129V532.009H114.784V539.849C114.784 540.558 114.634 541.188 114.336 541.739C114.037 542.299 113.603 542.737 113.034 543.055C112.474 543.372 111.802 543.531 111.018 543.531C109.972 543.531 109.104 543.283 108.414 542.789C107.723 542.303 107.331 541.641 107.238 540.801H108.82C108.941 541.202 109.198 541.524 109.59 541.767C109.991 542.019 110.467 542.145 111.018 542.145C111.662 542.145 112.18 541.949 112.572 541.557C112.973 541.165 113.174 540.595 113.174 539.849V538.561C112.903 538.925 112.534 539.233 112.068 539.485C111.61 539.727 111.088 539.849 110.5 539.849C109.828 539.849 109.212 539.681 108.652 539.345C108.101 538.999 107.662 538.523 107.336 537.917C107.018 537.301 106.86 536.605 106.86 535.831C106.86 535.056 107.018 534.37 107.336 533.773C107.662 533.175 108.101 532.713 108.652 532.387C109.212 532.051 109.828 531.883 110.5 531.883ZM113.174 535.859C113.174 535.327 113.062 534.865 112.838 534.473C112.623 534.081 112.338 533.782 111.984 533.577C111.629 533.371 111.246 533.269 110.836 533.269C110.425 533.269 110.042 533.371 109.688 533.577C109.333 533.773 109.044 534.067 108.82 534.459C108.605 534.841 108.498 535.299 108.498 535.831C108.498 536.363 108.605 536.829 108.82 537.231C109.044 537.632 109.333 537.94 109.688 538.155C110.052 538.36 110.434 538.463 110.836 538.463C111.246 538.463 111.629 538.36 111.984 538.155C112.338 537.949 112.623 537.651 112.838 537.259C113.062 536.857 113.174 536.391 113.174 535.859ZM117.692 530.987C117.403 530.987 117.16 530.889 116.964 530.693C116.768 530.497 116.67 530.254 116.67 529.965C116.67 529.675 116.768 529.433 116.964 529.237C117.16 529.041 117.403 528.943 117.692 528.943C117.972 528.943 118.21 529.041 118.406 529.237C118.602 529.433 118.7 529.675 118.7 529.965C118.7 530.254 118.602 530.497 118.406 530.693C118.21 530.889 117.972 530.987 117.692 530.987ZM118.476 532.009V539.723H116.88V532.009H118.476ZM124.463 531.883C125.07 531.883 125.611 532.009 126.087 532.261C126.573 532.513 126.951 532.886 127.221 533.381C127.492 533.875 127.627 534.473 127.627 535.173V539.723H126.045V535.411C126.045 534.72 125.873 534.193 125.527 533.829C125.182 533.455 124.711 533.269 124.113 533.269C123.516 533.269 123.04 533.455 122.685 533.829C122.34 534.193 122.167 534.72 122.167 535.411V539.723H120.571V532.009H122.167V532.891C122.429 532.573 122.76 532.326 123.161 532.149C123.572 531.971 124.006 531.883 124.463 531.883ZM129.131 535.831C129.131 535.056 129.29 534.37 129.607 533.773C129.934 533.175 130.373 532.713 130.923 532.387C131.483 532.051 132.099 531.883 132.771 531.883C133.378 531.883 133.905 532.004 134.353 532.247C134.811 532.48 135.175 532.774 135.445 533.129V532.009H137.055V539.723H135.445V538.575C135.175 538.939 134.806 539.242 134.339 539.485C133.873 539.727 133.341 539.849 132.743 539.849C132.081 539.849 131.474 539.681 130.923 539.345C130.373 538.999 129.934 538.523 129.607 537.917C129.29 537.301 129.131 536.605 129.131 535.831ZM135.445 535.859C135.445 535.327 135.333 534.865 135.109 534.473C134.895 534.081 134.61 533.782 134.255 533.577C133.901 533.371 133.518 533.269 133.107 533.269C132.697 533.269 132.314 533.371 131.959 533.577C131.605 533.773 131.315 534.067 131.091 534.459C130.877 534.841 130.769 535.299 130.769 535.831C130.769 536.363 130.877 536.829 131.091 537.231C131.315 537.632 131.605 537.94 131.959 538.155C132.323 538.36 132.706 538.463 133.107 538.463C133.518 538.463 133.901 538.36 134.255 538.155C134.61 537.949 134.895 537.651 135.109 537.259C135.333 536.857 135.445 536.391 135.445 535.859ZM146.334 530.679C147.398 530.679 148.317 530.875 149.092 531.267C149.866 531.659 150.454 532.209 150.856 532.919C151.266 533.619 151.472 534.435 151.472 535.369C151.472 536.115 151.341 536.829 151.08 537.511C150.828 538.192 150.459 538.747 149.974 539.177C149.498 539.606 148.933 539.821 148.28 539.821C147.804 539.821 147.43 539.718 147.16 539.513C146.889 539.298 146.721 538.999 146.656 538.617C146.366 538.99 146.002 539.284 145.564 539.499C145.125 539.713 144.668 539.821 144.192 539.821C143.473 539.821 142.908 539.606 142.498 539.177C142.096 538.738 141.896 538.145 141.896 537.399C141.896 536.689 142.04 536.027 142.33 535.411C142.628 534.795 143.044 534.305 143.576 533.941C144.108 533.567 144.705 533.381 145.368 533.381C146.18 533.381 146.749 533.656 147.076 534.207L147.202 533.507H148.588L147.888 537.511C147.86 537.707 147.846 537.879 147.846 538.029C147.846 538.271 147.892 538.453 147.986 538.575C148.088 538.696 148.266 538.757 148.518 538.757C148.872 538.757 149.176 538.584 149.428 538.239C149.68 537.884 149.866 537.45 149.988 536.937C150.118 536.423 150.184 535.924 150.184 535.439C150.184 534.253 149.838 533.348 149.148 532.723C148.457 532.097 147.454 531.785 146.138 531.785C145.036 531.785 144.047 532.046 143.17 532.569C142.302 533.091 141.62 533.81 141.126 534.725C140.631 535.639 140.384 536.657 140.384 537.777C140.384 538.971 140.738 539.881 141.448 540.507C142.157 541.132 143.17 541.445 144.486 541.445C145.372 541.445 146.147 541.281 146.81 540.955L147.02 542.019C146.17 542.383 145.218 542.565 144.164 542.565C143.146 542.565 142.255 542.373 141.49 541.991C140.724 541.608 140.132 541.062 139.712 540.353C139.292 539.653 139.082 538.836 139.082 537.903C139.082 536.568 139.39 535.35 140.006 534.249C140.631 533.147 141.494 532.279 142.596 531.645C143.697 531.001 144.943 530.679 146.334 530.679ZM144.682 538.589C145.074 538.589 145.428 538.477 145.746 538.253C146.072 538.019 146.329 537.716 146.516 537.343C146.702 536.96 146.796 536.554 146.796 536.125C146.796 535.677 146.67 535.313 146.418 535.033C146.175 534.743 145.83 534.599 145.382 534.599C144.98 534.599 144.626 534.725 144.318 534.977C144.019 535.219 143.786 535.537 143.618 535.929C143.459 536.321 143.38 536.731 143.38 537.161C143.38 537.599 143.487 537.949 143.702 538.211C143.916 538.463 144.243 538.589 144.682 538.589ZM156.615 531.883C157.212 531.883 157.74 532.004 158.197 532.247C158.664 532.48 159.028 532.774 159.289 533.129V532.009H160.899V539.849C160.899 540.558 160.75 541.188 160.451 541.739C160.152 542.299 159.718 542.737 159.149 543.055C158.589 543.372 157.917 543.531 157.133 543.531C156.088 543.531 155.22 543.283 154.529 542.789C153.838 542.303 153.446 541.641 153.353 540.801H154.935C155.056 541.202 155.313 541.524 155.705 541.767C156.106 542.019 156.582 542.145 157.133 542.145C157.777 542.145 158.295 541.949 158.687 541.557C159.088 541.165 159.289 540.595 159.289 539.849V538.561C159.018 538.925 158.65 539.233 158.183 539.485C157.726 539.727 157.203 539.849 156.615 539.849C155.943 539.849 155.327 539.681 154.767 539.345C154.216 538.999 153.778 538.523 153.451 537.917C153.134 537.301 152.975 536.605 152.975 535.831C152.975 535.056 153.134 534.37 153.451 533.773C153.778 533.175 154.216 532.713 154.767 532.387C155.327 532.051 155.943 531.883 156.615 531.883ZM159.289 535.859C159.289 535.327 159.177 534.865 158.953 534.473C158.738 534.081 158.454 533.782 158.099 533.577C157.744 533.371 157.362 533.269 156.951 533.269C156.54 533.269 156.158 533.371 155.803 533.577C155.448 533.773 155.159 534.067 154.935 534.459C154.72 534.841 154.613 535.299 154.613 535.831C154.613 536.363 154.72 536.829 154.935 537.231C155.159 537.632 155.448 537.94 155.803 538.155C156.167 538.36 156.55 538.463 156.951 538.463C157.362 538.463 157.744 538.36 158.099 538.155C158.454 537.949 158.738 537.651 158.953 537.259C159.177 536.857 159.289 536.391 159.289 535.859ZM172.333 531.883C172.94 531.883 173.481 532.009 173.957 532.261C174.443 532.513 174.821 532.886 175.091 533.381C175.371 533.875 175.511 534.473 175.511 535.173V539.723H173.929V535.411C173.929 534.72 173.757 534.193 173.411 533.829C173.066 533.455 172.595 533.269 171.997 533.269C171.4 533.269 170.924 533.455 170.569 533.829C170.224 534.193 170.051 534.72 170.051 535.411V539.723H168.469V535.411C168.469 534.72 168.297 534.193 167.951 533.829C167.606 533.455 167.135 533.269 166.537 533.269C165.94 533.269 165.464 533.455 165.109 533.829C164.764 534.193 164.591 534.72 164.591 535.411V539.723H162.995V532.009H164.591V532.891C164.853 532.573 165.184 532.326 165.585 532.149C165.987 531.971 166.416 531.883 166.873 531.883C167.489 531.883 168.04 532.013 168.525 532.275C169.011 532.536 169.384 532.914 169.645 533.409C169.879 532.942 170.243 532.573 170.737 532.303C171.232 532.023 171.764 531.883 172.333 531.883ZM177.01 535.831C177.01 535.056 177.169 534.37 177.486 533.773C177.813 533.175 178.252 532.713 178.802 532.387C179.362 532.051 179.978 531.883 180.65 531.883C181.257 531.883 181.784 532.004 182.232 532.247C182.69 532.48 183.054 532.774 183.324 533.129V532.009H184.934V539.723H183.324V538.575C183.054 538.939 182.685 539.242 182.218 539.485C181.752 539.727 181.22 539.849 180.622 539.849C179.96 539.849 179.353 539.681 178.802 539.345C178.252 538.999 177.813 538.523 177.486 537.917C177.169 537.301 177.01 536.605 177.01 535.831ZM183.324 535.859C183.324 535.327 183.212 534.865 182.988 534.473C182.774 534.081 182.489 533.782 182.134 533.577C181.78 533.371 181.397 533.269 180.986 533.269C180.576 533.269 180.193 533.371 179.838 533.577C179.484 533.773 179.194 534.067 178.97 534.459C178.756 534.841 178.648 535.299 178.648 535.831C178.648 536.363 178.756 536.829 178.97 537.231C179.194 537.632 179.484 537.94 179.838 538.155C180.202 538.36 180.585 538.463 180.986 538.463C181.397 538.463 181.78 538.36 182.134 538.155C182.489 537.949 182.774 537.651 182.988 537.259C183.212 536.857 183.324 536.391 183.324 535.859ZM187.842 530.987C187.553 530.987 187.31 530.889 187.114 530.693C186.918 530.497 186.82 530.254 186.82 529.965C186.82 529.675 186.918 529.433 187.114 529.237C187.31 529.041 187.553 528.943 187.842 528.943C188.122 528.943 188.36 529.041 188.556 529.237C188.752 529.433 188.85 529.675 188.85 529.965C188.85 530.254 188.752 530.497 188.556 530.693C188.36 530.889 188.122 530.987 187.842 530.987ZM188.626 532.009V539.723H187.03V532.009H188.626ZM192.318 529.363V539.723H190.722V529.363H192.318ZM195.057 539.821C194.768 539.821 194.525 539.723 194.329 539.527C194.133 539.331 194.035 539.088 194.035 538.799C194.035 538.509 194.133 538.267 194.329 538.071C194.525 537.875 194.768 537.777 195.057 537.777C195.337 537.777 195.575 537.875 195.771 538.071C195.967 538.267 196.065 538.509 196.065 538.799C196.065 539.088 195.967 539.331 195.771 539.527C195.575 539.723 195.337 539.821 195.057 539.821ZM197.258 535.859C197.258 535.065 197.417 534.37 197.734 533.773C198.061 533.166 198.509 532.699 199.078 532.373C199.648 532.046 200.301 531.883 201.038 531.883C201.972 531.883 202.742 532.107 203.348 532.555C203.964 532.993 204.38 533.623 204.594 534.445H202.872C202.732 534.062 202.508 533.763 202.2 533.549C201.892 533.334 201.505 533.227 201.038 533.227C200.385 533.227 199.862 533.46 199.47 533.927C199.088 534.384 198.896 535.028 198.896 535.859C198.896 536.689 199.088 537.338 199.47 537.805C199.862 538.271 200.385 538.505 201.038 538.505C201.962 538.505 202.574 538.099 202.872 537.287H204.594C204.37 538.071 203.95 538.696 203.334 539.163C202.718 539.62 201.953 539.849 201.038 539.849C200.301 539.849 199.648 539.685 199.078 539.359C198.509 539.023 198.061 538.556 197.734 537.959C197.417 537.352 197.258 536.652 197.258 535.859ZM209.531 539.849C208.803 539.849 208.145 539.685 207.557 539.359C206.969 539.023 206.507 538.556 206.171 537.959C205.835 537.352 205.667 536.652 205.667 535.859C205.667 535.075 205.839 534.379 206.185 533.773C206.53 533.166 207.001 532.699 207.599 532.373C208.196 532.046 208.863 531.883 209.601 531.883C210.338 531.883 211.005 532.046 211.603 532.373C212.2 532.699 212.671 533.166 213.017 533.773C213.362 534.379 213.535 535.075 213.535 535.859C213.535 536.643 213.357 537.338 213.003 537.945C212.648 538.551 212.163 539.023 211.547 539.359C210.94 539.685 210.268 539.849 209.531 539.849ZM209.531 538.463C209.941 538.463 210.324 538.365 210.679 538.169C211.043 537.973 211.337 537.679 211.561 537.287C211.785 536.895 211.897 536.419 211.897 535.859C211.897 535.299 211.789 534.827 211.575 534.445C211.36 534.053 211.075 533.759 210.721 533.563C210.366 533.367 209.983 533.269 209.573 533.269C209.162 533.269 208.779 533.367 208.425 533.563C208.079 533.759 207.804 534.053 207.599 534.445C207.393 534.827 207.291 535.299 207.291 535.859C207.291 536.689 207.501 537.333 207.921 537.791C208.35 538.239 208.887 538.463 209.531 538.463ZM224.451 531.883C225.057 531.883 225.599 532.009 226.075 532.261C226.56 532.513 226.938 532.886 227.209 533.381C227.489 533.875 227.629 534.473 227.629 535.173V539.723H226.047V535.411C226.047 534.72 225.874 534.193 225.529 533.829C225.183 533.455 224.712 533.269 224.115 533.269C223.517 533.269 223.041 533.455 222.687 533.829C222.341 534.193 222.169 534.72 222.169 535.411V539.723H220.587V535.411C220.587 534.72 220.414 534.193 220.069 533.829C219.723 533.455 219.252 533.269 218.655 533.269C218.057 533.269 217.581 533.455 217.227 533.829C216.881 534.193 216.709 534.72 216.709 535.411V539.723H215.113V532.009H216.709V532.891C216.97 532.573 217.301 532.326 217.703 532.149C218.104 531.971 218.533 531.883 218.991 531.883C219.607 531.883 220.157 532.013 220.643 532.275C221.128 532.536 221.501 532.914 221.763 533.409C221.996 532.942 222.36 532.573 222.855 532.303C223.349 532.023 223.881 531.883 224.451 531.883Z" fill="#8D91A0"/>
<rect x="70" y="658" width="249" height="43.7647" rx="8" fill="#6A62B7"/>
<path d="M157.602 686.882V673.791H162.511C163.517 673.791 164.361 673.966 165.043 674.316C165.729 674.665 166.247 675.155 166.596 675.786C166.95 676.412 167.127 677.143 167.127 677.978C167.127 678.818 166.948 679.546 166.59 680.164C166.236 680.778 165.714 681.253 165.024 681.59C164.333 681.922 163.485 682.088 162.479 682.088H158.983V680.12H162.16C162.748 680.12 163.229 680.039 163.604 679.877C163.979 679.71 164.256 679.47 164.435 679.154C164.619 678.835 164.71 678.443 164.71 677.978C164.71 677.514 164.619 677.117 164.435 676.789C164.252 676.457 163.973 676.206 163.598 676.035C163.223 675.86 162.739 675.773 162.147 675.773H159.974V686.882H157.602ZM164.365 680.951L167.606 686.882H164.96L161.776 680.951H164.365ZM173.953 687.074C172.969 687.074 172.119 686.87 171.403 686.46C170.691 686.047 170.143 685.463 169.76 684.709C169.376 683.951 169.185 683.058 169.185 682.031C169.185 681.021 169.376 680.134 169.76 679.372C170.148 678.605 170.689 678.008 171.383 677.582C172.078 677.152 172.894 676.936 173.832 676.936C174.437 676.936 175.008 677.034 175.545 677.23C176.086 677.422 176.563 677.72 176.977 678.125C177.394 678.53 177.722 679.046 177.961 679.672C178.2 680.294 178.319 681.036 178.319 681.897V682.606H170.271V681.046H176.101C176.097 680.603 176.001 680.209 175.813 679.864C175.626 679.514 175.364 679.24 175.027 679.039C174.695 678.839 174.307 678.739 173.864 678.739C173.391 678.739 172.975 678.854 172.617 679.084C172.259 679.31 171.98 679.608 171.78 679.979C171.584 680.345 171.484 680.748 171.479 681.187V682.549C171.479 683.12 171.584 683.61 171.793 684.019C172.001 684.424 172.293 684.735 172.668 684.952C173.043 685.165 173.482 685.272 173.985 685.272C174.322 685.272 174.626 685.225 174.899 685.131C175.172 685.033 175.408 684.89 175.609 684.703C175.809 684.515 175.96 684.283 176.062 684.006L178.223 684.249C178.087 684.82 177.827 685.318 177.443 685.745C177.064 686.166 176.578 686.495 175.986 686.729C175.393 686.959 174.716 687.074 173.953 687.074ZM185.086 690.769C184.255 690.769 183.542 690.656 182.945 690.43C182.348 690.208 181.869 689.91 181.507 689.535C181.145 689.16 180.893 688.745 180.753 688.289L182.836 687.784C182.93 687.975 183.066 688.165 183.245 688.353C183.424 688.544 183.665 688.702 183.968 688.826C184.275 688.953 184.66 689.017 185.125 689.017C185.781 689.017 186.324 688.857 186.755 688.538C187.185 688.223 187.4 687.703 187.4 686.978V685.118H187.285C187.166 685.357 186.991 685.602 186.761 685.853C186.535 686.105 186.235 686.316 185.86 686.486C185.489 686.657 185.022 686.742 184.46 686.742C183.706 686.742 183.022 686.565 182.408 686.211C181.799 685.853 181.313 685.321 180.951 684.613C180.593 683.902 180.414 683.011 180.414 681.941C180.414 680.863 180.593 679.953 180.951 679.212C181.313 678.466 181.801 677.902 182.414 677.518C183.028 677.13 183.712 676.936 184.466 676.936C185.042 676.936 185.515 677.034 185.885 677.23C186.26 677.422 186.559 677.654 186.78 677.927C187.002 678.196 187.17 678.449 187.285 678.688H187.413V677.064H189.695V687.042C189.695 687.882 189.495 688.576 189.094 689.126C188.694 689.676 188.146 690.087 187.451 690.36C186.757 690.632 185.968 690.769 185.086 690.769ZM185.105 684.926C185.596 684.926 186.013 684.807 186.358 684.568C186.703 684.33 186.966 683.987 187.145 683.539C187.324 683.092 187.413 682.555 187.413 681.929C187.413 681.311 187.324 680.769 187.145 680.305C186.97 679.84 186.71 679.48 186.365 679.225C186.024 678.965 185.604 678.835 185.105 678.835C184.59 678.835 184.159 678.969 183.814 679.237C183.469 679.506 183.209 679.875 183.034 680.343C182.86 680.808 182.772 681.336 182.772 681.929C182.772 682.529 182.86 683.056 183.034 683.507C183.213 683.955 183.476 684.304 183.821 684.556C184.17 684.803 184.598 684.926 185.105 684.926ZM192.606 686.882V677.064H194.92V686.882H192.606ZM193.77 675.671C193.403 675.671 193.088 675.549 192.824 675.306C192.56 675.059 192.427 674.763 192.427 674.418C192.427 674.068 192.56 673.772 192.824 673.529C193.088 673.282 193.403 673.159 193.77 673.159C194.141 673.159 194.456 673.282 194.716 673.529C194.98 673.772 195.112 674.068 195.112 674.418C195.112 674.763 194.98 675.059 194.716 675.306C194.456 675.549 194.141 675.671 193.77 675.671ZM205.6 679.659L203.49 679.889C203.431 679.676 203.326 679.476 203.177 679.289C203.032 679.101 202.836 678.95 202.589 678.835C202.342 678.72 202.039 678.662 201.681 678.662C201.2 678.662 200.795 678.767 200.467 678.975C200.143 679.184 199.983 679.455 199.988 679.787C199.983 680.073 200.088 680.305 200.301 680.484C200.518 680.663 200.876 680.81 201.375 680.925L203.049 681.283C203.978 681.483 204.669 681.801 205.12 682.235C205.576 682.67 205.806 683.239 205.811 683.942C205.806 684.56 205.625 685.105 205.267 685.578C204.914 686.047 204.421 686.414 203.791 686.678C203.16 686.942 202.436 687.074 201.617 687.074C200.416 687.074 199.448 686.823 198.715 686.32C197.983 685.813 197.546 685.107 197.405 684.204L199.662 683.987C199.764 684.43 199.981 684.764 200.314 684.99C200.646 685.216 201.078 685.329 201.611 685.329C202.161 685.329 202.602 685.216 202.934 684.99C203.271 684.764 203.439 684.485 203.439 684.153C203.439 683.872 203.331 683.639 203.113 683.456C202.9 683.273 202.568 683.132 202.116 683.034L200.441 682.683C199.5 682.487 198.803 682.157 198.351 681.692C197.899 681.223 197.676 680.631 197.68 679.915C197.676 679.31 197.84 678.786 198.172 678.343C198.509 677.895 198.975 677.55 199.572 677.307C200.173 677.06 200.865 676.936 201.649 676.936C202.8 676.936 203.706 677.181 204.366 677.671C205.031 678.161 205.442 678.824 205.6 679.659ZM213.161 677.064V678.854H207.517V677.064H213.161ZM208.911 674.712H211.225V683.929C211.225 684.24 211.271 684.479 211.365 684.645C211.463 684.807 211.591 684.918 211.749 684.978C211.906 685.037 212.081 685.067 212.273 685.067C212.418 685.067 212.55 685.056 212.669 685.035C212.793 685.014 212.887 684.995 212.95 684.978L213.34 686.786C213.217 686.829 213.04 686.876 212.81 686.927C212.584 686.978 212.307 687.008 211.979 687.017C211.399 687.034 210.877 686.946 210.413 686.755C209.948 686.558 209.58 686.256 209.307 685.847C209.039 685.438 208.906 684.926 208.911 684.313V674.712ZM219.878 687.074C218.893 687.074 218.043 686.87 217.327 686.46C216.616 686.047 216.068 685.463 215.685 684.709C215.301 683.951 215.109 683.058 215.109 682.031C215.109 681.021 215.301 680.134 215.685 679.372C216.072 678.605 216.613 678.008 217.308 677.582C218.003 677.152 218.819 676.936 219.756 676.936C220.361 676.936 220.932 677.034 221.469 677.23C222.011 677.422 222.488 677.72 222.901 678.125C223.319 678.53 223.647 679.046 223.886 679.672C224.124 680.294 224.243 681.036 224.243 681.897V682.606H216.196V681.046H222.025C222.021 680.603 221.925 680.209 221.738 679.864C221.55 679.514 221.288 679.24 220.952 679.039C220.619 678.839 220.231 678.739 219.788 678.739C219.315 678.739 218.9 678.854 218.542 679.084C218.184 679.31 217.905 679.608 217.704 679.979C217.508 680.345 217.408 680.748 217.404 681.187V682.549C217.404 683.12 217.508 683.61 217.717 684.019C217.926 684.424 218.218 684.735 218.593 684.952C218.968 685.165 219.407 685.272 219.91 685.272C220.246 685.272 220.551 685.225 220.824 685.131C221.096 685.033 221.333 684.89 221.533 684.703C221.734 684.515 221.885 684.283 221.987 684.006L224.148 684.249C224.011 684.82 223.751 685.318 223.368 685.745C222.988 686.166 222.503 686.495 221.91 686.729C221.318 686.959 220.64 687.074 219.878 687.074ZM226.741 686.882V677.064H228.985V678.701H229.087C229.266 678.134 229.573 677.697 230.007 677.39C230.446 677.079 230.947 676.924 231.509 676.924C231.637 676.924 231.78 676.93 231.938 676.943C232.1 676.951 232.234 676.966 232.34 676.987V679.116C232.242 679.082 232.087 679.052 231.874 679.027C231.665 678.997 231.463 678.982 231.267 678.982C230.845 678.982 230.465 679.073 230.129 679.257C229.796 679.436 229.534 679.685 229.343 680.005C229.151 680.324 229.055 680.693 229.055 681.11V686.882H226.741Z" fill="white"/>
<path d="M71.2491 725.83H66.9931L66.2091 728H64.8651L68.3931 718.298H69.8631L73.3771 728H72.0331L71.2491 725.83ZM70.8851 724.794L69.1211 719.866L67.3571 724.794H70.8851ZM76.6087 717.64V728H75.3347V717.64H76.6087ZM80.474 721.574C80.698 721.135 81.0154 720.795 81.426 720.552C81.846 720.309 82.3547 720.188 82.952 720.188V721.504H82.616C81.188 721.504 80.474 722.279 80.474 723.828V728H79.2V720.328H80.474V721.574ZM91.8427 723.87C91.8427 724.113 91.8287 724.369 91.8007 724.64H85.6687C85.7154 725.396 85.972 725.989 86.4387 726.418C86.9147 726.838 87.4887 727.048 88.1607 727.048C88.7114 727.048 89.1687 726.922 89.5327 726.67C89.906 726.409 90.1674 726.063 90.3167 725.634H91.6887C91.4834 726.371 91.0727 726.973 90.4567 727.44C89.8407 727.897 89.0754 728.126 88.1607 728.126C87.4327 728.126 86.7794 727.963 86.2007 727.636C85.6314 727.309 85.1834 726.847 84.8567 726.25C84.53 725.643 84.3667 724.943 84.3667 724.15C84.3667 723.357 84.5254 722.661 84.8427 722.064C85.16 721.467 85.6034 721.009 86.1727 720.692C86.7514 720.365 87.414 720.202 88.1607 720.202C88.8887 720.202 89.5327 720.361 90.0927 720.678C90.6527 720.995 91.082 721.434 91.3807 721.994C91.6887 722.545 91.8427 723.17 91.8427 723.87ZM90.5267 723.604C90.5267 723.119 90.4194 722.703 90.2047 722.358C89.99 722.003 89.696 721.737 89.3227 721.56C88.9587 721.373 88.5527 721.28 88.1047 721.28C87.4607 721.28 86.91 721.485 86.4527 721.896C86.0047 722.307 85.748 722.876 85.6827 723.604H90.5267ZM93.4683 724.136C93.4683 723.352 93.627 722.666 93.9443 722.078C94.2617 721.481 94.6957 721.019 95.2463 720.692C95.8063 720.365 96.427 720.202 97.1083 720.202C97.7803 720.202 98.3637 720.347 98.8583 720.636C99.353 720.925 99.7217 721.289 99.9643 721.728V720.328H101.252V728H99.9643V726.572C99.7123 727.02 99.3343 727.393 98.8303 727.692C98.3357 727.981 97.757 728.126 97.0943 728.126C96.413 728.126 95.797 727.958 95.2463 727.622C94.6957 727.286 94.2617 726.815 93.9443 726.208C93.627 725.601 93.4683 724.911 93.4683 724.136ZM99.9643 724.15C99.9643 723.571 99.8477 723.067 99.6143 722.638C99.381 722.209 99.0637 721.882 98.6623 721.658C98.2703 721.425 97.8363 721.308 97.3603 721.308C96.8843 721.308 96.4503 721.42 96.0583 721.644C95.6663 721.868 95.3537 722.195 95.1203 722.624C94.887 723.053 94.7703 723.557 94.7703 724.136C94.7703 724.724 94.887 725.237 95.1203 725.676C95.3537 726.105 95.6663 726.437 96.0583 726.67C96.4503 726.894 96.8843 727.006 97.3603 727.006C97.8363 727.006 98.2703 726.894 98.6623 726.67C99.0637 726.437 99.381 726.105 99.6143 725.676C99.8477 725.237 99.9643 724.729 99.9643 724.15ZM103.349 724.136C103.349 723.352 103.508 722.666 103.825 722.078C104.143 721.481 104.577 721.019 105.127 720.692C105.687 720.365 106.313 720.202 107.003 720.202C107.601 720.202 108.156 720.342 108.669 720.622C109.183 720.893 109.575 721.252 109.845 721.7V717.64H111.133V728H109.845V726.558C109.593 727.015 109.22 727.393 108.725 727.692C108.231 727.981 107.652 728.126 106.989 728.126C106.308 728.126 105.687 727.958 105.127 727.622C104.577 727.286 104.143 726.815 103.825 726.208C103.508 725.601 103.349 724.911 103.349 724.136ZM109.845 724.15C109.845 723.571 109.729 723.067 109.495 722.638C109.262 722.209 108.945 721.882 108.543 721.658C108.151 721.425 107.717 721.308 107.241 721.308C106.765 721.308 106.331 721.42 105.939 721.644C105.547 721.868 105.235 722.195 105.001 722.624C104.768 723.053 104.651 723.557 104.651 724.136C104.651 724.724 104.768 725.237 105.001 725.676C105.235 726.105 105.547 726.437 105.939 726.67C106.331 726.894 106.765 727.006 107.241 727.006C107.717 727.006 108.151 726.894 108.543 726.67C108.945 726.437 109.262 726.105 109.495 725.676C109.729 725.237 109.845 724.729 109.845 724.15ZM120.314 720.328L115.694 731.612H114.378L115.89 727.916L112.796 720.328H114.21L116.618 726.544L118.998 720.328H120.314ZM129.975 720.188C130.554 720.188 131.077 720.314 131.543 720.566C132.01 720.809 132.374 721.177 132.635 721.672C132.906 722.167 133.041 722.769 133.041 723.478V728H131.781V723.66C131.781 722.895 131.59 722.311 131.207 721.91C130.825 721.499 130.302 721.294 129.639 721.294C128.967 721.294 128.431 721.504 128.029 721.924C127.637 722.344 127.441 722.955 127.441 723.758V728H126.167V717.64H127.441V721.42C127.693 721.028 128.039 720.725 128.477 720.51C128.925 720.295 129.425 720.188 129.975 720.188ZM135.066 724.136C135.066 723.352 135.225 722.666 135.542 722.078C135.86 721.481 136.294 721.019 136.844 720.692C137.404 720.365 138.025 720.202 138.706 720.202C139.378 720.202 139.962 720.347 140.456 720.636C140.951 720.925 141.32 721.289 141.562 721.728V720.328H142.85V728H141.562V726.572C141.31 727.02 140.932 727.393 140.428 727.692C139.934 727.981 139.355 728.126 138.692 728.126C138.011 728.126 137.395 727.958 136.844 727.622C136.294 727.286 135.86 726.815 135.542 726.208C135.225 725.601 135.066 724.911 135.066 724.136ZM141.562 724.15C141.562 723.571 141.446 723.067 141.212 722.638C140.979 722.209 140.662 721.882 140.26 721.658C139.868 721.425 139.434 721.308 138.958 721.308C138.482 721.308 138.048 721.42 137.656 721.644C137.264 721.868 136.952 722.195 136.718 722.624C136.485 723.053 136.368 723.557 136.368 724.136C136.368 724.724 136.485 725.237 136.718 725.676C136.952 726.105 137.264 726.437 137.656 726.67C138.048 726.894 138.482 727.006 138.958 727.006C139.434 727.006 139.868 726.894 140.26 726.67C140.662 726.437 140.979 726.105 141.212 725.676C141.446 725.237 141.562 724.729 141.562 724.15ZM148.279 726.824L150.659 720.328H152.017L149.007 728H147.523L144.513 720.328H145.885L148.279 726.824ZM160.691 723.87C160.691 724.113 160.677 724.369 160.649 724.64H154.517C154.564 725.396 154.82 725.989 155.287 726.418C155.763 726.838 156.337 727.048 157.009 727.048C157.56 727.048 158.017 726.922 158.381 726.67C158.754 726.409 159.016 726.063 159.165 725.634H160.537C160.332 726.371 159.921 726.973 159.305 727.44C158.689 727.897 157.924 728.126 157.009 728.126C156.281 728.126 155.628 727.963 155.049 727.636C154.48 727.309 154.032 726.847 153.705 726.25C153.378 725.643 153.215 724.943 153.215 724.15C153.215 723.357 153.374 722.661 153.691 722.064C154.008 721.467 154.452 721.009 155.021 720.692C155.6 720.365 156.262 720.202 157.009 720.202C157.737 720.202 158.381 720.361 158.941 720.678C159.501 720.995 159.93 721.434 160.229 721.994C160.537 722.545 160.691 723.17 160.691 723.87ZM159.375 723.604C159.375 723.119 159.268 722.703 159.053 722.358C158.838 722.003 158.544 721.737 158.171 721.56C157.807 721.373 157.401 721.28 156.953 721.28C156.309 721.28 155.758 721.485 155.301 721.896C154.853 722.307 154.596 722.876 154.531 723.604H159.375ZM166.469 724.136C166.469 723.352 166.628 722.666 166.945 722.078C167.262 721.481 167.696 721.019 168.247 720.692C168.807 720.365 169.428 720.202 170.109 720.202C170.781 720.202 171.364 720.347 171.859 720.636C172.354 720.925 172.722 721.289 172.965 721.728V720.328H174.253V728H172.965V726.572C172.713 727.02 172.335 727.393 171.831 727.692C171.336 727.981 170.758 728.126 170.095 728.126C169.414 728.126 168.798 727.958 168.247 727.622C167.696 727.286 167.262 726.815 166.945 726.208C166.628 725.601 166.469 724.911 166.469 724.136ZM172.965 724.15C172.965 723.571 172.848 723.067 172.615 722.638C172.382 722.209 172.064 721.882 171.663 721.658C171.271 721.425 170.837 721.308 170.361 721.308C169.885 721.308 169.451 721.42 169.059 721.644C168.667 721.868 168.354 722.195 168.121 722.624C167.888 723.053 167.771 723.557 167.771 724.136C167.771 724.724 167.888 725.237 168.121 725.676C168.354 726.105 168.667 726.437 169.059 726.67C169.451 726.894 169.885 727.006 170.361 727.006C170.837 727.006 171.271 726.894 171.663 726.67C172.064 726.437 172.382 726.105 172.615 725.676C172.848 725.237 172.965 724.729 172.965 724.15ZM180.564 720.188C181.497 720.188 182.253 720.473 182.832 721.042C183.411 721.602 183.7 722.414 183.7 723.478V728H182.44V723.66C182.44 722.895 182.249 722.311 181.866 721.91C181.483 721.499 180.961 721.294 180.298 721.294C179.626 721.294 179.089 721.504 178.688 721.924C178.296 722.344 178.1 722.955 178.1 723.758V728H176.826V720.328H178.1V721.42C178.352 721.028 178.693 720.725 179.122 720.51C179.561 720.295 180.041 720.188 180.564 720.188ZM189.877 724.136C189.877 723.352 190.036 722.666 190.353 722.078C190.671 721.481 191.105 721.019 191.655 720.692C192.215 720.365 192.836 720.202 193.517 720.202C194.189 720.202 194.773 720.347 195.267 720.636C195.762 720.925 196.131 721.289 196.373 721.728V720.328H197.661V728H196.373V726.572C196.121 727.02 195.743 727.393 195.239 727.692C194.745 727.981 194.166 728.126 193.503 728.126C192.822 728.126 192.206 727.958 191.655 727.622C191.105 727.286 190.671 726.815 190.353 726.208C190.036 725.601 189.877 724.911 189.877 724.136ZM196.373 724.15C196.373 723.571 196.257 723.067 196.023 722.638C195.79 722.209 195.473 721.882 195.071 721.658C194.679 721.425 194.245 721.308 193.769 721.308C193.293 721.308 192.859 721.42 192.467 721.644C192.075 721.868 191.763 722.195 191.529 722.624C191.296 723.053 191.179 723.557 191.179 724.136C191.179 724.724 191.296 725.237 191.529 725.676C191.763 726.105 192.075 726.437 192.467 726.67C192.859 726.894 193.293 727.006 193.769 727.006C194.245 727.006 194.679 726.894 195.071 726.67C195.473 726.437 195.79 726.105 196.023 725.676C196.257 725.237 196.373 724.729 196.373 724.15ZM199.758 724.15C199.758 723.357 199.917 722.666 200.234 722.078C200.552 721.481 200.99 721.019 201.55 720.692C202.12 720.365 202.768 720.202 203.496 720.202C204.439 720.202 205.214 720.431 205.82 720.888C206.436 721.345 206.842 721.98 207.038 722.792H205.666C205.536 722.325 205.279 721.957 204.896 721.686C204.523 721.415 204.056 721.28 203.496 721.28C202.768 721.28 202.18 721.532 201.732 722.036C201.284 722.531 201.06 723.235 201.06 724.15C201.06 725.074 201.284 725.788 201.732 726.292C202.18 726.796 202.768 727.048 203.496 727.048C204.056 727.048 204.523 726.917 204.896 726.656C205.27 726.395 205.526 726.021 205.666 725.536H207.038C206.833 726.32 206.422 726.95 205.806 727.426C205.19 727.893 204.42 728.126 203.496 728.126C202.768 728.126 202.12 727.963 201.55 727.636C200.99 727.309 200.552 726.847 200.234 726.25C199.917 725.653 199.758 724.953 199.758 724.15ZM208.682 724.15C208.682 723.357 208.841 722.666 209.158 722.078C209.476 721.481 209.914 721.019 210.474 720.692C211.044 720.365 211.692 720.202 212.42 720.202C213.363 720.202 214.138 720.431 214.744 720.888C215.36 721.345 215.766 721.98 215.962 722.792H214.59C214.46 722.325 214.203 721.957 213.82 721.686C213.447 721.415 212.98 721.28 212.42 721.28C211.692 721.28 211.104 721.532 210.656 722.036C210.208 722.531 209.984 723.235 209.984 724.15C209.984 725.074 210.208 725.788 210.656 726.292C211.104 726.796 211.692 727.048 212.42 727.048C212.98 727.048 213.447 726.917 213.82 726.656C214.194 726.395 214.45 726.021 214.59 725.536H215.962C215.757 726.32 215.346 726.95 214.73 727.426C214.114 727.893 213.344 728.126 212.42 728.126C211.692 728.126 211.044 727.963 210.474 727.636C209.914 727.309 209.476 726.847 209.158 726.25C208.841 725.653 208.682 724.953 208.682 724.15ZM221.428 728.126C220.71 728.126 220.056 727.963 219.468 727.636C218.89 727.309 218.432 726.847 218.096 726.25C217.77 725.643 217.606 724.943 217.606 724.15C217.606 723.366 217.774 722.675 218.11 722.078C218.456 721.471 218.922 721.009 219.51 720.692C220.098 720.365 220.756 720.202 221.484 720.202C222.212 720.202 222.87 720.365 223.458 720.692C224.046 721.009 224.508 721.467 224.844 722.064C225.19 722.661 225.362 723.357 225.362 724.15C225.362 724.943 225.185 725.643 224.83 726.25C224.485 726.847 224.014 727.309 223.416 727.636C222.819 727.963 222.156 728.126 221.428 728.126ZM221.428 727.006C221.886 727.006 222.315 726.899 222.716 726.684C223.118 726.469 223.44 726.147 223.682 725.718C223.934 725.289 224.06 724.766 224.06 724.15C224.06 723.534 223.939 723.011 223.696 722.582C223.454 722.153 223.136 721.835 222.744 721.63C222.352 721.415 221.928 721.308 221.47 721.308C221.004 721.308 220.574 721.415 220.182 721.63C219.8 721.835 219.492 722.153 219.258 722.582C219.025 723.011 218.908 723.534 218.908 724.15C218.908 724.775 219.02 725.303 219.244 725.732C219.478 726.161 219.786 726.483 220.168 726.698C220.551 726.903 220.971 727.006 221.428 727.006ZM234.261 720.328V728H232.987V726.866C232.745 727.258 232.404 727.566 231.965 727.79C231.536 728.005 231.06 728.112 230.537 728.112C229.94 728.112 229.403 727.991 228.927 727.748C228.451 727.496 228.073 727.123 227.793 726.628C227.523 726.133 227.387 725.531 227.387 724.822V720.328H228.647V724.654C228.647 725.41 228.839 725.993 229.221 726.404C229.604 726.805 230.127 727.006 230.789 727.006C231.471 727.006 232.007 726.796 232.399 726.376C232.791 725.956 232.987 725.345 232.987 724.542V720.328H234.261ZM240.57 720.188C241.504 720.188 242.26 720.473 242.838 721.042C243.417 721.602 243.706 722.414 243.706 723.478V728H242.446V723.66C242.446 722.895 242.255 722.311 241.872 721.91C241.49 721.499 240.967 721.294 240.304 721.294C239.632 721.294 239.096 721.504 238.694 721.924C238.302 722.344 238.106 722.955 238.106 723.758V728H236.832V720.328H238.106V721.42C238.358 721.028 238.699 720.725 239.128 720.51C239.567 720.295 240.048 720.188 240.57 720.188ZM247.761 721.378V725.9C247.761 726.273 247.841 726.539 247.999 726.698C248.158 726.847 248.433 726.922 248.825 726.922H249.763V728H248.615C247.906 728 247.374 727.837 247.019 727.51C246.665 727.183 246.487 726.647 246.487 725.9V721.378H245.493V720.328H246.487V718.396H247.761V720.328H249.763V721.378H247.761ZM254.219 718.116C255.143 718.116 255.89 718.377 256.459 718.9C257.028 719.423 257.313 720.123 257.313 721C257.313 721.98 257.01 722.708 256.403 723.184C255.796 723.651 254.975 723.884 253.939 723.884L253.897 725.214H252.791L252.735 723.002H253.141C254.065 723.002 254.788 722.862 255.311 722.582C255.834 722.302 256.095 721.775 256.095 721C256.095 720.44 255.927 719.997 255.591 719.67C255.255 719.343 254.802 719.18 254.233 719.18C253.654 719.18 253.197 719.339 252.861 719.656C252.534 719.964 252.371 720.389 252.371 720.93H251.167C251.167 720.37 251.293 719.88 251.545 719.46C251.797 719.031 252.152 718.699 252.609 718.466C253.076 718.233 253.612 718.116 254.219 718.116ZM253.337 728.084C253.094 728.084 252.889 728 252.721 727.832C252.553 727.664 252.469 727.459 252.469 727.216C252.469 726.973 252.553 726.768 252.721 726.6C252.889 726.432 253.094 726.348 253.337 726.348C253.57 726.348 253.766 726.432 253.925 726.6C254.093 726.768 254.177 726.973 254.177 727.216C254.177 727.459 254.093 727.664 253.925 727.832C253.766 728 253.57 728.084 253.337 728.084ZM265.093 726.446H268.313V728H263.133V718.228H265.093V726.446ZM273.423 728.126C272.676 728.126 272.004 727.963 271.407 727.636C270.809 727.3 270.338 726.829 269.993 726.222C269.657 725.615 269.489 724.915 269.489 724.122C269.489 723.329 269.661 722.629 270.007 722.022C270.361 721.415 270.842 720.949 271.449 720.622C272.055 720.286 272.732 720.118 273.479 720.118C274.225 720.118 274.902 720.286 275.509 720.622C276.115 720.949 276.591 721.415 276.937 722.022C277.291 722.629 277.469 723.329 277.469 724.122C277.469 724.915 277.287 725.615 276.923 726.222C276.568 726.829 276.083 727.3 275.467 727.636C274.86 727.963 274.179 728.126 273.423 728.126ZM273.423 726.418C273.777 726.418 274.109 726.334 274.417 726.166C274.734 725.989 274.986 725.727 275.173 725.382C275.359 725.037 275.453 724.617 275.453 724.122C275.453 723.385 275.257 722.82 274.865 722.428C274.482 722.027 274.011 721.826 273.451 721.826C272.891 721.826 272.419 722.027 272.037 722.428C271.663 722.82 271.477 723.385 271.477 724.122C271.477 724.859 271.659 725.429 272.023 725.83C272.396 726.222 272.863 726.418 273.423 726.418ZM282.364 720.118C282.943 720.118 283.452 720.235 283.89 720.468C284.329 720.692 284.674 720.986 284.926 721.35V720.244H286.9V728.056C286.9 728.775 286.756 729.414 286.466 729.974C286.177 730.543 285.743 730.991 285.164 731.318C284.586 731.654 283.886 731.822 283.064 731.822C281.963 731.822 281.058 731.565 280.348 731.052C279.648 730.539 279.252 729.839 279.158 728.952H281.104C281.207 729.307 281.426 729.587 281.762 729.792C282.108 730.007 282.523 730.114 283.008 730.114C283.578 730.114 284.04 729.941 284.394 729.596C284.749 729.26 284.926 728.747 284.926 728.056V726.852C284.674 727.216 284.324 727.519 283.876 727.762C283.438 728.005 282.934 728.126 282.364 728.126C281.711 728.126 281.114 727.958 280.572 727.622C280.031 727.286 279.602 726.815 279.284 726.208C278.976 725.592 278.822 724.887 278.822 724.094C278.822 723.31 278.976 722.615 279.284 722.008C279.602 721.401 280.026 720.935 280.558 720.608C281.1 720.281 281.702 720.118 282.364 720.118ZM284.926 724.122C284.926 723.646 284.833 723.24 284.646 722.904C284.46 722.559 284.208 722.297 283.89 722.12C283.573 721.933 283.232 721.84 282.868 721.84C282.504 721.84 282.168 721.929 281.86 722.106C281.552 722.283 281.3 722.545 281.104 722.89C280.918 723.226 280.824 723.627 280.824 724.094C280.824 724.561 280.918 724.971 281.104 725.326C281.3 725.671 281.552 725.937 281.86 726.124C282.178 726.311 282.514 726.404 282.868 726.404C283.232 726.404 283.573 726.315 283.89 726.138C284.208 725.951 284.46 725.69 284.646 725.354C284.833 725.009 284.926 724.598 284.926 724.122ZM294.951 718.228V728H292.991V718.228H294.951ZM301.605 720.132C302.529 720.132 303.276 720.426 303.845 721.014C304.414 721.593 304.699 722.405 304.699 723.45V728H302.739V723.716C302.739 723.1 302.585 722.629 302.277 722.302C301.969 721.966 301.549 721.798 301.017 721.798C300.476 721.798 300.046 721.966 299.729 722.302C299.421 722.629 299.267 723.1 299.267 723.716V728H297.307V720.244H299.267V721.21C299.528 720.874 299.86 720.613 300.261 720.426C300.672 720.23 301.12 720.132 301.605 720.132Z" fill="black"/>
<path d="M40.84 353.6C40.84 351.952 41.208 350.48 41.944 349.184C42.696 347.872 43.712 346.856 44.992 346.136C46.288 345.4 47.736 345.032 49.336 345.032C51.208 345.032 52.848 345.512 54.256 346.472C55.664 347.432 56.648 348.76 57.208 350.456H53.344C52.96 349.656 52.416 349.056 51.712 348.656C51.024 348.256 50.224 348.056 49.312 348.056C48.336 348.056 47.464 348.288 46.696 348.752C45.944 349.2 45.352 349.84 44.92 350.672C44.504 351.504 44.296 352.48 44.296 353.6C44.296 354.704 44.504 355.68 44.92 356.528C45.352 357.36 45.944 358.008 46.696 358.472C47.464 358.92 48.336 359.144 49.312 359.144C50.224 359.144 51.024 358.944 51.712 358.544C52.416 358.128 52.96 357.52 53.344 356.72H57.208C56.648 358.432 55.664 359.768 54.256 360.728C52.864 361.672 51.224 362.144 49.336 362.144C47.736 362.144 46.288 361.784 44.992 361.064C43.712 360.328 42.696 359.312 41.944 358.016C41.208 356.72 40.84 355.248 40.84 353.6ZM63.4379 350.768C63.8699 350.064 64.4299 349.512 65.1179 349.112C65.8219 348.712 66.6219 348.512 67.5179 348.512V352.04H66.6299C65.5739 352.04 64.7739 352.288 64.2299 352.784C63.7019 353.28 63.4379 354.144 63.4379 355.376V362H60.0779V348.704H63.4379V350.768ZM82.141 355.064C82.141 355.544 82.109 355.976 82.045 356.36H72.325C72.405 357.32 72.741 358.072 73.333 358.616C73.925 359.16 74.653 359.432 75.517 359.432C76.765 359.432 77.653 358.896 78.181 357.824H81.805C81.421 359.104 80.685 360.16 79.597 360.992C78.509 361.808 77.173 362.216 75.589 362.216C74.309 362.216 73.157 361.936 72.133 361.376C71.125 360.8 70.333 359.992 69.757 358.952C69.197 357.912 68.917 356.712 68.917 355.352C68.917 353.976 69.197 352.768 69.757 351.728C70.317 350.688 71.101 349.888 72.109 349.328C73.117 348.768 74.277 348.488 75.589 348.488C76.853 348.488 77.981 348.76 78.973 349.304C79.981 349.848 80.757 350.624 81.301 351.632C81.861 352.624 82.141 353.768 82.141 355.064ZM78.661 354.104C78.645 353.24 78.333 352.552 77.725 352.04C77.117 351.512 76.373 351.248 75.493 351.248C74.661 351.248 73.957 351.504 73.381 352.016C72.821 352.512 72.477 353.208 72.349 354.104H78.661ZM83.7295 355.304C83.7295 353.96 83.9935 352.768 84.5215 351.728C85.0655 350.688 85.7935 349.888 86.7055 349.328C87.6335 348.768 88.6655 348.488 89.8015 348.488C90.7935 348.488 91.6575 348.688 92.3935 349.088C93.1455 349.488 93.7455 349.992 94.1935 350.6V348.704H97.5775V362H94.1935V360.056C93.7615 360.68 93.1615 361.2 92.3935 361.616C91.6415 362.016 90.7695 362.216 89.7775 362.216C88.6575 362.216 87.6335 361.928 86.7055 361.352C85.7935 360.776 85.0655 359.968 84.5215 358.928C83.9935 357.872 83.7295 356.664 83.7295 355.304ZM94.1935 355.352C94.1935 354.536 94.0335 353.84 93.7135 353.264C93.3935 352.672 92.9615 352.224 92.4175 351.92C91.8735 351.6 91.2895 351.44 90.6655 351.44C90.0415 351.44 89.4655 351.592 88.9375 351.896C88.4095 352.2 87.9775 352.648 87.6415 353.24C87.3215 353.816 87.1615 354.504 87.1615 355.304C87.1615 356.104 87.3215 356.808 87.6415 357.416C87.9775 358.008 88.4095 358.464 88.9375 358.784C89.4815 359.104 90.0575 359.264 90.6655 359.264C91.2895 359.264 91.8735 359.112 92.4175 358.808C92.9615 358.488 93.3935 358.04 93.7135 357.464C94.0335 356.872 94.1935 356.168 94.1935 355.352ZM104.771 351.464V357.896C104.771 358.344 104.875 358.672 105.083 358.88C105.307 359.072 105.675 359.168 106.187 359.168H107.747V362H105.635C102.803 362 101.387 360.624 101.387 357.872V351.464H99.8031V348.704H101.387V345.416H104.771V348.704H107.747V351.464H104.771ZM122.524 355.064C122.524 355.544 122.492 355.976 122.428 356.36H112.708C112.788 357.32 113.124 358.072 113.716 358.616C114.308 359.16 115.036 359.432 115.9 359.432C117.148 359.432 118.036 358.896 118.564 357.824H122.188C121.804 359.104 121.068 360.16 119.98 360.992C118.892 361.808 117.556 362.216 115.972 362.216C114.692 362.216 113.54 361.936 112.516 361.376C111.508 360.8 110.716 359.992 110.14 358.952C109.58 357.912 109.3 356.712 109.3 355.352C109.3 353.976 109.58 352.768 110.14 351.728C110.7 350.688 111.484 349.888 112.492 349.328C113.5 348.768 114.66 348.488 115.972 348.488C117.236 348.488 118.364 348.76 119.356 349.304C120.364 349.848 121.14 350.624 121.684 351.632C122.244 352.624 122.524 353.768 122.524 355.064ZM119.044 354.104C119.028 353.24 118.716 352.552 118.108 352.04C117.5 351.512 116.756 351.248 115.876 351.248C115.044 351.248 114.34 351.504 113.764 352.016C113.204 352.512 112.86 353.208 112.732 354.104H119.044ZM142.911 350.432C142.911 351.328 142.695 352.168 142.263 352.952C141.847 353.736 141.183 354.368 140.271 354.848C139.375 355.328 138.239 355.568 136.863 355.568H134.055V362H130.695V345.248H136.863C138.159 345.248 139.263 345.472 140.175 345.92C141.087 346.368 141.767 346.984 142.215 347.768C142.679 348.552 142.911 349.44 142.911 350.432ZM136.719 352.856C137.647 352.856 138.335 352.648 138.783 352.232C139.231 351.8 139.455 351.2 139.455 350.432C139.455 348.8 138.543 347.984 136.719 347.984H134.055V352.856H136.719ZM148.657 350.768C149.089 350.064 149.649 349.512 150.337 349.112C151.041 348.712 151.841 348.512 152.737 348.512V352.04H151.849C150.793 352.04 149.993 352.288 149.449 352.784C148.921 353.28 148.657 354.144 148.657 355.376V362H145.297V348.704H148.657V350.768ZM160.904 362.216C159.624 362.216 158.472 361.936 157.448 361.376C156.424 360.8 155.616 359.992 155.024 358.952C154.448 357.912 154.16 356.712 154.16 355.352C154.16 353.992 154.456 352.792 155.048 351.752C155.656 350.712 156.48 349.912 157.52 349.352C158.56 348.776 159.72 348.488 161 348.488C162.28 348.488 163.44 348.776 164.48 349.352C165.52 349.912 166.336 350.712 166.928 351.752C167.536 352.792 167.84 353.992 167.84 355.352C167.84 356.712 167.528 357.912 166.904 358.952C166.296 359.992 165.464 360.8 164.408 361.376C163.368 361.936 162.2 362.216 160.904 362.216ZM160.904 359.288C161.512 359.288 162.08 359.144 162.608 358.856C163.152 358.552 163.584 358.104 163.904 357.512C164.224 356.92 164.384 356.2 164.384 355.352C164.384 354.088 164.048 353.12 163.376 352.448C162.72 351.76 161.912 351.416 160.952 351.416C159.992 351.416 159.184 351.76 158.528 352.448C157.888 353.12 157.568 354.088 157.568 355.352C157.568 356.616 157.88 357.592 158.504 358.28C159.144 358.952 159.944 359.288 160.904 359.288ZM176.4 351.464H174.072V362H170.664V351.464H169.152V348.704H170.664V348.032C170.664 346.4 171.128 345.2 172.056 344.432C172.984 343.664 174.384 343.304 176.256 343.352V346.184C175.44 346.168 174.872 346.304 174.552 346.592C174.232 346.88 174.072 347.4 174.072 348.152V348.704H176.4V351.464ZM180.282 347.12C179.69 347.12 179.194 346.936 178.794 346.568C178.41 346.184 178.218 345.712 178.218 345.152C178.218 344.592 178.41 344.128 178.794 343.76C179.194 343.376 179.69 343.184 180.282 343.184C180.874 343.184 181.362 343.376 181.746 343.76C182.146 344.128 182.346 344.592 182.346 345.152C182.346 345.712 182.146 346.184 181.746 346.568C181.362 346.936 180.874 347.12 180.282 347.12ZM181.938 348.704V362H178.578V348.704H181.938ZM188.618 344.24V362H185.258V344.24H188.618ZM204.297 355.064C204.297 355.544 204.265 355.976 204.201 356.36H194.481C194.561 357.32 194.897 358.072 195.489 358.616C196.081 359.16 196.809 359.432 197.673 359.432C198.921 359.432 199.809 358.896 200.337 357.824H203.961C203.577 359.104 202.841 360.16 201.753 360.992C200.665 361.808 199.329 362.216 197.745 362.216C196.465 362.216 195.313 361.936 194.289 361.376C193.281 360.8 192.489 359.992 191.913 358.952C191.353 357.912 191.073 356.712 191.073 355.352C191.073 353.976 191.353 352.768 191.913 351.728C192.473 350.688 193.257 349.888 194.265 349.328C195.273 348.768 196.433 348.488 197.745 348.488C199.009 348.488 200.137 348.76 201.129 349.304C202.137 349.848 202.913 350.624 203.457 351.632C204.017 352.624 204.297 353.768 204.297 355.064ZM200.817 354.104C200.801 353.24 200.489 352.552 199.881 352.04C199.273 351.512 198.529 351.248 197.649 351.248C196.817 351.248 196.113 351.504 195.537 352.016C194.977 352.512 194.633 353.208 194.505 354.104H200.817Z" fill="white"/>
</g>
<defs>
<filter id="filter0_b_2_4970" x="-45" y="780" width="474" height="94" filterUnits="userSpaceOnUse" color-interpolation-filters="sRGB">
<feFlood flood-opacity="0" result="BackgroundImageFix"/>
<feGaussianBlur in="BackgroundImageFix" stdDeviation="15"/>
<feComposite in2="SourceAlpha" operator="in" result="effect1_backgroundBlur_2_4970"/>
<feBlend mode="normal" in="SourceGraphic" in2="effect1_backgroundBlur_2_4970" result="shape"/>
</filter>
<filter id="filter1_b_2_4970" x="-30" y="-29" width="450" height="104" filterUnits="userSpaceOnUse" color-interpolation-filters="sRGB">
<feFlood flood-opacity="0" result="BackgroundImageFix"/>
<feGaussianBlur in="BackgroundImageFix" stdDeviation="15"/>
<feComposite in2="SourceAlpha" operator="in" result="effect1_backgroundBlur_2_4970"/>
<feBlend mode="normal" in="SourceGraphic" in2="effect1_backgroundBlur_2_4970" result="shape"/>
</filter>
<filter id="filter2_b_2_4970" x="-56" y="-55" width="208" height="156" filterUnits="userSpaceOnUse" color-interpolation-filters="sRGB">
<feFlood flood-opacity="0" result="BackgroundImageFix"/>
<feGaussianBlur in="BackgroundImageFix" stdDeviation="28"/>
<feComposite in2="SourceAlpha" operator="in" result="effect1_backgroundBlur_2_4970"/>
<feBlend mode="normal" in="SourceGraphic" in2="effect1_backgroundBlur_2_4970" result="shape"/>
</filter>
<filter id="filter3_b_2_4970" x="238" y="-55" width="208" height="156" filterUnits="userSpaceOnUse" color-interpolation-filters="sRGB">
<feFlood flood-opacity="0" result="BackgroundImageFix"/>
<feGaussianBlur in="BackgroundImageFix" stdDeviation="28"/>
<feComposite in2="SourceAlpha" operator="in" result="effect1_backgroundBlur_2_4970"/>
<feBlend mode="normal" in="SourceGraphic" in2="effect1_backgroundBlur_2_4970" result="shape"/>
</filter>
<clipPath id="clip0_2_4970">
<rect width="390" height="844" rx="30" fill="white"/>
</clipPath>
<clipPath id="clip1_2_4970">
<rect width="72" height="16" fill="white" transform="translate(302 17)"/>
</clipPath>
<clipPath id="clip2_2_4970">
<rect width="16" height="8.5" fill="white" transform="translate(348 21.5)"/>
</clipPath>
</defs>
</svg>
