<svg width="390" height="844" viewBox="0 0 390 844" fill="none" xmlns="http://www.w3.org/2000/svg">
<g clip-path="url(#clip0_2_4841)">
<rect width="390" height="844" rx="30" fill="#6A62B7"/>
<g filter="url(#filter0_b_2_4841)">
<rect x="119" y="831" width="146" height="5" rx="2.5" fill="white"/>
</g>
<g filter="url(#filter1_b_2_4841)">
<g filter="url(#filter2_b_2_4841)">
<path d="M32.5537 31H34.4834V28.8359H36.0069V27.1719H34.4834V19.7266H31.6397C30.1084 22.0547 28.5069 24.6484 27.0459 27.1875V28.8359H32.5537V31ZM28.9131 27.1016C30.0147 25.1875 31.3194 23.1016 32.4756 21.3359H32.585V27.2188H28.9131V27.1016ZM39.2259 23.7031C39.9681 23.7031 40.4759 23.1875 40.4759 22.4922C40.4759 21.7969 39.9681 21.2812 39.2259 21.2812C38.4916 21.2812 37.9759 21.7969 37.9759 22.4922C37.9759 23.1875 38.4916 23.7031 39.2259 23.7031ZM39.2259 29.4375C39.9681 29.4375 40.4759 28.9141 40.4759 28.2266C40.4759 27.5312 39.9681 27.0156 39.2259 27.0156C38.4916 27.0156 37.9759 27.5312 37.9759 28.2266C37.9759 28.9141 38.4916 29.4375 39.2259 29.4375ZM42.6716 23.0625H44.5622C44.5622 21.875 45.3434 21.0625 46.57 21.0625C47.7497 21.0625 48.4528 21.8516 48.4528 22.875C48.4528 23.7344 48.1091 24.2734 46.6872 25.7109L42.7809 29.6406V31H50.6091V29.3281H45.5153V29.1953L47.9372 26.8125C49.8747 24.9141 50.445 24 50.445 22.6875C50.445 20.8125 48.9216 19.4453 46.6794 19.4453C44.3278 19.4453 42.6716 20.9297 42.6716 23.0625ZM56.6797 31.2812C59.375 31.2812 60.9766 29.1016 60.9766 25.3672C60.9766 21.625 59.3516 19.4453 56.6797 19.4453C54 19.4453 52.375 21.625 52.375 25.3516C52.375 29.0938 53.9766 31.2812 56.6797 31.2812ZM56.6797 29.6484C55.25 29.6484 54.4141 28.1641 54.4141 25.3516C54.4141 22.5625 55.2656 21.0859 56.6797 21.0859C58.0938 21.0859 58.9375 22.5547 58.9375 25.3516C58.9375 28.1719 58.1094 29.6484 56.6797 29.6484Z" fill="white"/>
<path d="M67.2412 25.7129L71.0171 25.7236C71.103 25.7236 71.1353 25.7559 71.1353 25.8418L71.146 29.6177C71.146 30.3213 71.3555 30.9014 71.9624 30.9014C72.4727 30.9014 72.7627 30.4341 73.0098 29.9023L77.0488 21.126C77.1724 20.8628 77.2422 20.6211 77.2422 20.4116C77.2422 19.9604 76.8931 19.6167 76.4473 19.6167C76.2378 19.6167 75.9961 19.6865 75.7275 19.8101L66.9565 23.8438C66.4409 24.0801 65.9521 24.3755 65.9521 24.8911C65.9521 25.4927 66.5161 25.7129 67.2412 25.7129Z" fill="white"/>
</g>
<g filter="url(#filter3_b_2_4841)">
<g clip-path="url(#clip1_2_4841)">
<rect opacity="0.2" x="317.5" y="20" width="3.5" height="11.5" rx="1" fill="white"/>
<path d="M312.5 23.5C312.5 22.9477 312.948 22.5 313.5 22.5H315C315.552 22.5 316 22.9477 316 23.5V30.5C316 31.0523 315.552 31.5 315 31.5H313.5C312.948 31.5 312.5 31.0523 312.5 30.5V23.5Z" fill="white"/>
<path d="M307.5 26C307.5 25.4477 307.948 25 308.5 25H310C310.552 25 311 25.4477 311 26V30.5C311 31.0523 310.552 31.5 310 31.5H308.5C307.948 31.5 307.5 31.0523 307.5 30.5V26Z" fill="white"/>
<path d="M302.5 28C302.5 27.4477 302.948 27 303.5 27H305C305.552 27 306 27.4477 306 28V30.5C306 31.0523 305.552 31.5 305 31.5H303.5C302.948 31.5 302.5 31.0523 302.5 30.5V28Z" fill="white"/>
<path d="M336.325 29.2891C336.39 29.2255 336.426 29.138 336.424 29.0473C336.422 28.9566 336.383 28.8707 336.316 28.8098C334.979 27.6784 333.022 27.6784 331.686 28.8098C331.618 28.8706 331.579 28.9565 331.577 29.0472C331.575 29.138 331.611 29.2254 331.676 29.2891L333.768 31.4029C333.83 31.465 333.913 31.5 334.001 31.5C334.088 31.5 334.171 31.465 334.233 31.4029L336.325 29.2891Z" fill="white"/>
<path d="M334 26.369C335.276 26.369 336.506 26.8435 337.451 27.7006C337.579 27.8222 337.781 27.8195 337.905 27.6946L339.115 26.4711C339.179 26.4069 339.214 26.3199 339.213 26.2294C339.212 26.1389 339.175 26.0526 339.11 25.9898C336.231 23.3088 331.772 23.3088 328.893 25.9898C328.828 26.0526 328.791 26.139 328.79 26.2295C328.789 26.32 328.825 26.407 328.889 26.4711L330.098 27.6946C330.222 27.8195 330.424 27.8222 330.552 27.7006C331.497 26.8441 332.726 26.3696 334 26.369Z" fill="white"/>
<path opacity="0.2" d="M334 22.3883C336.322 22.3884 338.555 23.2813 340.237 24.8825C340.364 25.0061 340.566 25.0045 340.691 24.879L341.902 23.6555C341.965 23.5918 342.001 23.5055 342 23.4158C341.999 23.326 341.963 23.2402 341.899 23.1772C337.483 18.9409 330.517 18.9409 326.101 23.1772C326.037 23.2401 326.001 23.326 326 23.4157C325.999 23.5055 326.035 23.5917 326.098 23.6555L327.309 24.879C327.434 25.0047 327.637 25.0063 327.763 24.8825C329.446 23.2812 331.679 22.3883 334 22.3883Z" fill="white"/>
<g clip-path="url(#clip2_2_4841)">
<path d="M348 22.75C348 22.0596 348.56 21.5 349.25 21.5H350V30H349.25C348.56 30 348 29.4404 348 28.75V22.75Z" fill="white"/>
<path d="M350 21.5H352V30H350V21.5Z" fill="white"/>
<path d="M352 21.5H354V30H352V21.5Z" fill="white"/>
<path d="M354 21.5H356V30H354V21.5Z" fill="white"/>
<path d="M356 21.5H358V30H356V21.5Z" fill="white"/>
<path d="M358 21.5H360V30H358V21.5Z" fill="white"/>
<path d="M360 21.5H362V30H360V21.5Z" fill="white"/>
<path d="M364 22.75C364 22.0596 363.44 21.5 362.75 21.5H362V30H362.75C363.44 30 364 29.4404 364 28.75V22.75Z" fill="white"/>
</g>
<g opacity="0.5">
<path fill-rule="evenodd" clip-rule="evenodd" d="M346 22.5C346 20.8431 347.343 19.5 349 19.5H367C368.657 19.5 370 20.8431 370 22.5V29C370 30.6569 368.657 32 367 32H349C347.343 32 346 30.6569 346 29V22.5ZM349 20.5C347.895 20.5 347 21.3954 347 22.5V29C347 30.1046 347.895 31 349 31H367C368.105 31 369 30.1046 369 29V22.5C369 21.3954 368.105 20.5 367 20.5H349Z" fill="white"/>
<path d="M371 28.042C371.883 27.6562 372.5 26.7751 372.5 25.75C372.5 24.7248 371.883 23.8438 371 23.458V28.042Z" fill="white"/>
</g>
</g>
</g>
</g>
<path d="M163.382 264.485L163.382 264.484C169.797 257.374 177.695 247.948 183.992 237.774C190.284 227.608 195 216.656 195 206.501C195 196.369 191.56 187.011 185.106 180.184C178.649 173.354 169.194 169.077 157.207 169.077C136.358 169.077 118.692 186.196 118.692 206.501C118.692 217.132 123.811 227.853 130.606 237.786C136.842 246.901 144.516 255.389 151.01 262.573C151.596 263.221 152.172 263.858 152.737 264.484C152.81 264.565 153.388 265.172 154.284 265.769C155.207 266.384 156.499 267.011 157.945 267.011H158.187C159.633 267.011 160.922 266.384 161.841 265.769C162.763 265.152 163.344 264.527 163.382 264.485ZM156.218 258.163L156.218 258.163C149.741 250.997 142.085 242.527 136.047 233.612C130.006 224.691 125.615 215.37 125.615 206.501C125.615 189.856 140.078 175.773 157.207 175.773C167.895 175.773 175.602 179.637 180.641 185.392C185.686 191.154 188.077 198.837 188.077 206.501C188.077 213.232 185.586 221.098 180.602 230.045C175.621 238.986 168.161 248.987 158.251 259.984C158.199 260.033 158.131 260.088 158.057 260.144C157.984 260.089 157.915 260.033 157.857 259.981L156.218 258.163Z" fill="white" stroke="white" stroke-width="0.615385"/>
<path d="M245.331 211.556L245.331 211.555C250.599 205.716 257.087 197.973 262.26 189.615C267.429 181.264 271.308 172.26 271.308 163.906C271.308 155.574 268.478 147.876 263.168 142.258C257.855 136.638 250.076 133.121 240.22 133.121C223.071 133.121 208.538 147.201 208.538 163.906C208.538 172.653 212.749 181.467 218.331 189.627C223.454 197.115 229.758 204.087 235.09 209.986C235.571 210.518 236.044 211.041 236.508 211.555C236.573 211.628 237.051 212.128 237.789 212.62C238.551 213.127 239.623 213.648 240.826 213.648H241.024C242.227 213.648 243.296 213.127 244.055 212.619C244.817 212.109 245.297 211.592 245.331 211.556ZM239.448 206.291L239.448 206.291C234.129 200.406 227.845 193.454 222.89 186.137C217.931 178.815 214.333 171.172 214.333 163.906C214.333 150.271 226.183 138.73 240.22 138.73C248.982 138.73 255.294 141.897 259.421 146.609C263.553 151.329 265.513 157.624 265.513 163.906C265.513 169.421 263.472 175.87 259.382 183.212C255.295 190.549 249.173 198.757 241.037 207.784C241.004 207.816 240.963 207.85 240.917 207.885C240.872 207.85 240.829 207.814 240.793 207.781L239.448 206.291Z" fill="white" stroke="white" stroke-width="0.615385"/>
<path d="M182.408 112.075C173.991 112.075 167.105 118.962 167.105 127.379C167.105 137.708 180.495 149.377 181.069 149.951C181.452 150.142 182.025 150.334 182.408 150.334C182.791 150.334 183.364 150.142 183.747 149.951C184.321 149.377 197.711 137.708 197.711 127.379C197.711 118.962 190.825 112.075 182.408 112.075ZM182.408 145.934C178.391 142.108 170.931 133.882 170.931 127.379C170.931 121.066 176.095 115.901 182.408 115.901C188.721 115.901 193.886 121.066 193.886 127.379C193.886 133.691 186.425 142.108 182.408 145.934Z" fill="white"/>
<path d="M190.385 246.469L194.364 243.558" stroke="white" stroke-width="5.36901" stroke-linecap="round"/>
<path d="M202.032 237.949L206.011 235.039" stroke="white" stroke-width="5.36901" stroke-linecap="round"/>
<path d="M213.679 229.43L217.658 226.519" stroke="white" stroke-width="5.36901" stroke-linecap="round"/>
<path d="M225.326 220.911L229.306 218" stroke="white" stroke-width="5.36901" stroke-linecap="round"/>
<path d="M201.31 168.832L197.75 165.42" stroke="white" stroke-width="5.36901" stroke-linecap="round"/>
<path d="M192.059 159.965L188.499 156.553" stroke="white" stroke-width="5.36901" stroke-linecap="round"/>
<path d="M161.309 205.962L168.133 198.878" stroke="white" stroke-width="4.2897" stroke-linecap="round"/>
<path d="M160.834 214.183L167.918 221.008" stroke="white" stroke-width="4.2897" stroke-linecap="round"/>
<path d="M146.16 200.047L153.244 206.871" stroke="white" stroke-width="4.2897" stroke-linecap="round"/>
<path d="M146.428 221.409L153.252 214.325" stroke="white" stroke-width="4.2897" stroke-linecap="round"/>
<path d="M243.129 163.987L247.946 158.892" stroke="white" stroke-width="3.3704" stroke-linecap="round"/>
<path d="M242.845 169.851L247.941 174.669" stroke="white" stroke-width="3.3704" stroke-linecap="round"/>
<path d="M232.29 159.872L237.385 164.689" stroke="white" stroke-width="3.3704" stroke-linecap="round"/>
<path d="M232.624 175.098L237.441 170.003" stroke="white" stroke-width="3.3704" stroke-linecap="round"/>
<path d="M214.251 105.035V98" stroke="white" stroke-width="3.068" stroke-linecap="round"/>
<path d="M218.086 109.505H225.121" stroke="white" stroke-width="3.068" stroke-linecap="round"/>
<path d="M203.513 109.505H210.548" stroke="white" stroke-width="3.068" stroke-linecap="round"/>
<path d="M214.251 120.375V113.34" stroke="white" stroke-width="3.068" stroke-linecap="round"/>
<path d="M51.016 365.336H56.536V368H47.656V351.248H51.016V365.336ZM64.5756 368.216C63.2956 368.216 62.1436 367.936 61.1196 367.376C60.0956 366.8 59.2876 365.992 58.6956 364.952C58.1196 363.912 57.8316 362.712 57.8316 361.352C57.8316 359.992 58.1276 358.792 58.7196 357.752C59.3276 356.712 60.1516 355.912 61.1916 355.352C62.2316 354.776 63.3916 354.488 64.6716 354.488C65.9516 354.488 67.1116 354.776 68.1516 355.352C69.1916 355.912 70.0076 356.712 70.5996 357.752C71.2076 358.792 71.5116 359.992 71.5116 361.352C71.5116 362.712 71.1996 363.912 70.5756 364.952C69.9676 365.992 69.1356 366.8 68.0796 367.376C67.0396 367.936 65.8716 368.216 64.5756 368.216ZM64.5756 365.288C65.1836 365.288 65.7516 365.144 66.2796 364.856C66.8236 364.552 67.2556 364.104 67.5756 363.512C67.8956 362.92 68.0556 362.2 68.0556 361.352C68.0556 360.088 67.7196 359.12 67.0476 358.448C66.3916 357.76 65.5836 357.416 64.6236 357.416C63.6636 357.416 62.8556 357.76 62.1996 358.448C61.5596 359.12 61.2396 360.088 61.2396 361.352C61.2396 362.616 61.5516 363.592 62.1756 364.28C62.8156 364.952 63.6156 365.288 64.5756 365.288ZM79.1843 354.488C80.1763 354.488 81.0483 354.688 81.8003 355.088C82.5523 355.472 83.1443 355.976 83.5763 356.6V354.704H86.9603V368.096C86.9603 369.328 86.7123 370.424 86.2163 371.384C85.7203 372.36 84.9763 373.128 83.9843 373.688C82.9923 374.264 81.7923 374.552 80.3843 374.552C78.4963 374.552 76.9443 374.112 75.7283 373.232C74.5283 372.352 73.8483 371.152 73.6883 369.632H77.0243C77.2003 370.24 77.5763 370.72 78.1523 371.072C78.7443 371.44 79.4563 371.624 80.2883 371.624C81.2643 371.624 82.0563 371.328 82.6643 370.736C83.2723 370.16 83.5763 369.28 83.5763 368.096V366.032C83.1443 366.656 82.5443 367.176 81.7763 367.592C81.0243 368.008 80.1603 368.216 79.1843 368.216C78.0643 368.216 77.0403 367.928 76.1123 367.352C75.1843 366.776 74.4483 365.968 73.9043 364.928C73.3763 363.872 73.1123 362.664 73.1123 361.304C73.1123 359.96 73.3763 358.768 73.9043 357.728C74.4483 356.688 75.1763 355.888 76.0883 355.328C77.0163 354.768 78.0483 354.488 79.1843 354.488ZM83.5763 361.352C83.5763 360.536 83.4163 359.84 83.0963 359.264C82.7763 358.672 82.3443 358.224 81.8003 357.92C81.2563 357.6 80.6723 357.44 80.0483 357.44C79.4243 357.44 78.8483 357.592 78.3203 357.896C77.7923 358.2 77.3603 358.648 77.0243 359.24C76.7043 359.816 76.5443 360.504 76.5443 361.304C76.5443 362.104 76.7043 362.808 77.0243 363.416C77.3603 364.008 77.7923 364.464 78.3203 364.784C78.8643 365.104 79.4403 365.264 80.0483 365.264C80.6723 365.264 81.2563 365.112 81.8003 364.808C82.3443 364.488 82.7763 364.04 83.0963 363.464C83.4163 362.872 83.5763 362.168 83.5763 361.352ZM99.3207 351.248V368H95.9607V351.248H99.3207ZM110.008 354.512C111.592 354.512 112.872 355.016 113.848 356.024C114.824 357.016 115.312 358.408 115.312 360.2V368H111.952V360.656C111.952 359.6 111.688 358.792 111.16 358.232C110.632 357.656 109.912 357.368 109 357.368C108.072 357.368 107.336 357.656 106.792 358.232C106.264 358.792 106 359.6 106 360.656V368H102.64V354.704H106V356.36C106.448 355.784 107.016 355.336 107.704 355.016C108.408 354.68 109.176 354.512 110.008 354.512Z" fill="white"/>
<rect x="41" y="391" width="308" height="337" rx="12" fill="white"/>
<path d="M136.569 662.27V663.572H132.439V666.442H135.659V667.744H132.439V672H130.843V662.27H136.569ZM141.394 672.126C140.666 672.126 140.008 671.963 139.42 671.636C138.832 671.3 138.37 670.833 138.034 670.236C137.698 669.629 137.53 668.929 137.53 668.136C137.53 667.352 137.703 666.657 138.048 666.05C138.393 665.443 138.865 664.977 139.462 664.65C140.059 664.323 140.727 664.16 141.464 664.16C142.201 664.16 142.869 664.323 143.466 664.65C144.063 664.977 144.535 665.443 144.88 666.05C145.225 666.657 145.398 667.352 145.398 668.136C145.398 668.92 145.221 669.615 144.866 670.222C144.511 670.829 144.026 671.3 143.41 671.636C142.803 671.963 142.131 672.126 141.394 672.126ZM141.394 670.74C141.805 670.74 142.187 670.642 142.542 670.446C142.906 670.25 143.2 669.956 143.424 669.564C143.648 669.172 143.76 668.696 143.76 668.136C143.76 667.576 143.653 667.105 143.438 666.722C143.223 666.33 142.939 666.036 142.584 665.84C142.229 665.644 141.847 665.546 141.436 665.546C141.025 665.546 140.643 665.644 140.288 665.84C139.943 666.036 139.667 666.33 139.462 666.722C139.257 667.105 139.154 667.576 139.154 668.136C139.154 668.967 139.364 669.611 139.784 670.068C140.213 670.516 140.75 670.74 141.394 670.74ZM148.572 665.406C148.805 665.014 149.113 664.711 149.496 664.496C149.888 664.272 150.35 664.16 150.882 664.16V665.812H150.476C149.85 665.812 149.374 665.971 149.048 666.288C148.73 666.605 148.572 667.156 148.572 667.94V672H146.976V664.286H148.572V665.406ZM155.457 664.16C156.054 664.16 156.581 664.281 157.039 664.524C157.505 664.757 157.869 665.051 158.131 665.406V664.286H159.741V672.126C159.741 672.835 159.591 673.465 159.293 674.016C158.994 674.576 158.56 675.015 157.991 675.332C157.431 675.649 156.759 675.808 155.975 675.808C154.929 675.808 154.061 675.561 153.371 675.066C152.68 674.581 152.288 673.918 152.195 673.078H153.777C153.898 673.479 154.155 673.801 154.547 674.044C154.948 674.296 155.424 674.422 155.975 674.422C156.619 674.422 157.137 674.226 157.529 673.834C157.93 673.442 158.131 672.873 158.131 672.126V670.838C157.86 671.202 157.491 671.51 157.025 671.762C156.567 672.005 156.045 672.126 155.457 672.126C154.785 672.126 154.169 671.958 153.609 671.622C153.058 671.277 152.619 670.801 152.293 670.194C151.975 669.578 151.817 668.883 151.817 668.108C151.817 667.333 151.975 666.647 152.293 666.05C152.619 665.453 153.058 664.991 153.609 664.664C154.169 664.328 154.785 664.16 155.457 664.16ZM158.131 668.136C158.131 667.604 158.019 667.142 157.795 666.75C157.58 666.358 157.295 666.059 156.941 665.854C156.586 665.649 156.203 665.546 155.793 665.546C155.382 665.546 154.999 665.649 154.645 665.854C154.29 666.05 154.001 666.344 153.777 666.736C153.562 667.119 153.455 667.576 153.455 668.108C153.455 668.64 153.562 669.107 153.777 669.508C154.001 669.909 154.29 670.217 154.645 670.432C155.009 670.637 155.391 670.74 155.793 670.74C156.203 670.74 156.586 670.637 156.941 670.432C157.295 670.227 157.58 669.928 157.795 669.536C158.019 669.135 158.131 668.668 158.131 668.136ZM165.183 672.126C164.455 672.126 163.797 671.963 163.209 671.636C162.621 671.3 162.159 670.833 161.823 670.236C161.487 669.629 161.319 668.929 161.319 668.136C161.319 667.352 161.492 666.657 161.837 666.05C162.182 665.443 162.654 664.977 163.251 664.65C163.848 664.323 164.516 664.16 165.253 664.16C165.99 664.16 166.658 664.323 167.255 664.65C167.852 664.977 168.324 665.443 168.669 666.05C169.014 666.657 169.187 667.352 169.187 668.136C169.187 668.92 169.01 669.615 168.655 670.222C168.3 670.829 167.815 671.3 167.199 671.636C166.592 671.963 165.92 672.126 165.183 672.126ZM165.183 670.74C165.594 670.74 165.976 670.642 166.331 670.446C166.695 670.25 166.989 669.956 167.213 669.564C167.437 669.172 167.549 668.696 167.549 668.136C167.549 667.576 167.442 667.105 167.227 666.722C167.012 666.33 166.728 666.036 166.373 665.84C166.018 665.644 165.636 665.546 165.225 665.546C164.814 665.546 164.432 665.644 164.077 665.84C163.732 666.036 163.456 666.33 163.251 666.722C163.046 667.105 162.943 667.576 162.943 668.136C162.943 668.967 163.153 669.611 163.573 670.068C164.002 670.516 164.539 670.74 165.183 670.74ZM172.627 665.588V669.858C172.627 670.147 172.692 670.357 172.823 670.488C172.963 670.609 173.196 670.67 173.523 670.67H174.503V672H173.243C172.524 672 171.974 671.832 171.591 671.496C171.208 671.16 171.017 670.614 171.017 669.858V665.588H170.107V664.286H171.017V662.368H172.627V664.286H174.503V665.588H172.627ZM186.415 665.168C186.415 665.663 186.298 666.129 186.065 666.568C185.831 667.007 185.458 667.366 184.945 667.646C184.431 667.917 183.773 668.052 182.971 668.052H181.207V672H179.611V662.27H182.971C183.717 662.27 184.347 662.401 184.861 662.662C185.383 662.914 185.771 663.259 186.023 663.698C186.284 664.137 186.415 664.627 186.415 665.168ZM182.971 666.75C183.577 666.75 184.03 666.615 184.329 666.344C184.627 666.064 184.777 665.672 184.777 665.168C184.777 664.104 184.175 663.572 182.971 663.572H181.207V666.75H182.971ZM187.405 668.108C187.405 667.333 187.563 666.647 187.881 666.05C188.207 665.453 188.646 664.991 189.197 664.664C189.757 664.328 190.373 664.16 191.045 664.16C191.651 664.16 192.179 664.281 192.627 664.524C193.084 664.757 193.448 665.051 193.719 665.406V664.286H195.329V672H193.719V670.852C193.448 671.216 193.079 671.519 192.613 671.762C192.146 672.005 191.614 672.126 191.017 672.126C190.354 672.126 189.747 671.958 189.197 671.622C188.646 671.277 188.207 670.801 187.881 670.194C187.563 669.578 187.405 668.883 187.405 668.108ZM193.719 668.136C193.719 667.604 193.607 667.142 193.383 666.75C193.168 666.358 192.883 666.059 192.529 665.854C192.174 665.649 191.791 665.546 191.381 665.546C190.97 665.546 190.587 665.649 190.233 665.854C189.878 666.05 189.589 666.344 189.365 666.736C189.15 667.119 189.043 667.576 189.043 668.108C189.043 668.64 189.15 669.107 189.365 669.508C189.589 669.909 189.878 670.217 190.233 670.432C190.597 670.637 190.979 670.74 191.381 670.74C191.791 670.74 192.174 670.637 192.529 670.432C192.883 670.227 193.168 669.928 193.383 669.536C193.607 669.135 193.719 668.668 193.719 668.136ZM200.225 672.126C199.618 672.126 199.072 672.019 198.587 671.804C198.111 671.58 197.733 671.281 197.453 670.908C197.173 670.525 197.024 670.101 197.005 669.634H198.657C198.685 669.961 198.839 670.236 199.119 670.46C199.408 670.675 199.768 670.782 200.197 670.782C200.645 670.782 200.99 670.698 201.233 670.53C201.485 670.353 201.611 670.129 201.611 669.858C201.611 669.569 201.471 669.354 201.191 669.214C200.92 669.074 200.486 668.92 199.889 668.752C199.31 668.593 198.839 668.439 198.475 668.29C198.111 668.141 197.794 667.912 197.523 667.604C197.262 667.296 197.131 666.89 197.131 666.386C197.131 665.975 197.252 665.602 197.495 665.266C197.738 664.921 198.083 664.65 198.531 664.454C198.988 664.258 199.511 664.16 200.099 664.16C200.976 664.16 201.681 664.384 202.213 664.832C202.754 665.271 203.044 665.873 203.081 666.638H201.485C201.457 666.293 201.317 666.017 201.065 665.812C200.813 665.607 200.472 665.504 200.043 665.504C199.623 665.504 199.301 665.583 199.077 665.742C198.853 665.901 198.741 666.111 198.741 666.372C198.741 666.577 198.816 666.75 198.965 666.89C199.114 667.03 199.296 667.142 199.511 667.226C199.726 667.301 200.043 667.399 200.463 667.52C201.023 667.669 201.48 667.823 201.835 667.982C202.199 668.131 202.512 668.355 202.773 668.654C203.034 668.953 203.17 669.349 203.179 669.844C203.179 670.283 203.058 670.675 202.815 671.02C202.572 671.365 202.227 671.636 201.779 671.832C201.34 672.028 200.822 672.126 200.225 672.126ZM207.704 672.126C207.097 672.126 206.551 672.019 206.066 671.804C205.59 671.58 205.212 671.281 204.932 670.908C204.652 670.525 204.502 670.101 204.484 669.634H206.136C206.164 669.961 206.318 670.236 206.598 670.46C206.887 670.675 207.246 670.782 207.676 670.782C208.124 670.782 208.469 670.698 208.712 670.53C208.964 670.353 209.09 670.129 209.09 669.858C209.09 669.569 208.95 669.354 208.67 669.214C208.399 669.074 207.965 668.92 207.368 668.752C206.789 668.593 206.318 668.439 205.954 668.29C205.59 668.141 205.272 667.912 205.002 667.604C204.74 667.296 204.61 666.89 204.61 666.386C204.61 665.975 204.731 665.602 204.974 665.266C205.216 664.921 205.562 664.65 206.01 664.454C206.467 664.258 206.99 664.16 207.578 664.16C208.455 664.16 209.16 664.384 209.692 664.832C210.233 665.271 210.522 665.873 210.56 666.638H208.964C208.936 666.293 208.796 666.017 208.544 665.812C208.292 665.607 207.951 665.504 207.522 665.504C207.102 665.504 206.78 665.583 206.556 665.742C206.332 665.901 206.22 666.111 206.22 666.372C206.22 666.577 206.294 666.75 206.444 666.89C206.593 667.03 206.775 667.142 206.99 667.226C207.204 667.301 207.522 667.399 207.942 667.52C208.502 667.669 208.959 667.823 209.314 667.982C209.678 668.131 209.99 668.355 210.252 668.654C210.513 668.953 210.648 669.349 210.658 669.844C210.658 670.283 210.536 670.675 210.294 671.02C210.051 671.365 209.706 671.636 209.258 671.832C208.819 672.028 208.301 672.126 207.704 672.126ZM222.742 664.286L220.348 672H218.668L217.114 666.302L215.56 672H213.88L211.472 664.286H213.096L214.706 670.488L216.344 664.286H218.01L219.578 670.46L221.174 664.286H222.742ZM227.281 672.126C226.553 672.126 225.895 671.963 225.307 671.636C224.719 671.3 224.257 670.833 223.921 670.236C223.585 669.629 223.417 668.929 223.417 668.136C223.417 667.352 223.589 666.657 223.935 666.05C224.28 665.443 224.751 664.977 225.349 664.65C225.946 664.323 226.613 664.16 227.351 664.16C228.088 664.16 228.755 664.323 229.353 664.65C229.95 664.977 230.421 665.443 230.767 666.05C231.112 666.657 231.285 667.352 231.285 668.136C231.285 668.92 231.107 669.615 230.753 670.222C230.398 670.829 229.913 671.3 229.297 671.636C228.69 671.963 228.018 672.126 227.281 672.126ZM227.281 670.74C227.691 670.74 228.074 670.642 228.429 670.446C228.793 670.25 229.087 669.956 229.311 669.564C229.535 669.172 229.647 668.696 229.647 668.136C229.647 667.576 229.539 667.105 229.325 666.722C229.11 666.33 228.825 666.036 228.471 665.84C228.116 665.644 227.733 665.546 227.323 665.546C226.912 665.546 226.529 665.644 226.175 665.84C225.829 666.036 225.554 666.33 225.349 666.722C225.143 667.105 225.041 667.576 225.041 668.136C225.041 668.967 225.251 669.611 225.671 670.068C226.1 670.516 226.637 670.74 227.281 670.74ZM234.459 665.406C234.692 665.014 235 664.711 235.383 664.496C235.775 664.272 236.237 664.16 236.769 664.16V665.812H236.363C235.737 665.812 235.261 665.971 234.935 666.288C234.617 666.605 234.459 667.156 234.459 667.94V672H232.863V664.286H234.459V665.406ZM237.704 668.108C237.704 667.333 237.862 666.647 238.18 666.05C238.506 665.453 238.945 664.991 239.496 664.664C240.056 664.328 240.676 664.16 241.358 664.16C241.862 664.16 242.356 664.272 242.842 664.496C243.336 664.711 243.728 665 244.018 665.364V661.64H245.628V672H244.018V670.838C243.756 671.211 243.392 671.519 242.926 671.762C242.468 672.005 241.941 672.126 241.344 672.126C240.672 672.126 240.056 671.958 239.496 671.622C238.945 671.277 238.506 670.801 238.18 670.194C237.862 669.578 237.704 668.883 237.704 668.108ZM244.018 668.136C244.018 667.604 243.906 667.142 243.682 666.75C243.467 666.358 243.182 666.059 242.828 665.854C242.473 665.649 242.09 665.546 241.68 665.546C241.269 665.546 240.886 665.649 240.532 665.854C240.177 666.05 239.888 666.344 239.664 666.736C239.449 667.119 239.342 667.576 239.342 668.108C239.342 668.64 239.449 669.107 239.664 669.508C239.888 669.909 240.177 670.217 240.532 670.432C240.896 670.637 241.278 670.74 241.68 670.74C242.09 670.74 242.473 670.637 242.828 670.432C243.182 670.227 243.467 669.928 243.682 669.536C243.906 669.135 244.018 668.668 244.018 668.136ZM250.342 662.13C251.294 662.13 252.054 662.391 252.624 662.914C253.202 663.437 253.492 664.151 253.492 665.056C253.492 665.999 253.193 666.708 252.596 667.184C251.998 667.66 251.205 667.898 250.216 667.898L250.16 669.004H248.774L248.704 666.806H249.166C250.071 666.806 250.762 666.685 251.238 666.442C251.723 666.199 251.966 665.737 251.966 665.056C251.966 664.561 251.821 664.174 251.532 663.894C251.252 663.614 250.86 663.474 250.356 663.474C249.852 663.474 249.455 663.609 249.166 663.88C248.876 664.151 248.732 664.529 248.732 665.014H247.234C247.234 664.454 247.36 663.955 247.612 663.516C247.864 663.077 248.223 662.737 248.69 662.494C249.166 662.251 249.716 662.13 250.342 662.13ZM249.446 672.098C249.156 672.098 248.914 672 248.718 671.804C248.522 671.608 248.424 671.365 248.424 671.076C248.424 670.787 248.522 670.544 248.718 670.348C248.914 670.152 249.156 670.054 249.446 670.054C249.726 670.054 249.964 670.152 250.16 670.348C250.356 670.544 250.454 670.787 250.454 671.076C250.454 671.365 250.356 671.608 250.16 671.804C249.964 672 249.726 672.098 249.446 672.098Z" fill="black"/>
<path d="M84.3894 686.242C85.4534 686.242 86.3728 686.443 87.1474 686.844C87.9314 687.236 88.5288 687.801 88.9394 688.538C89.3594 689.275 89.5694 690.143 89.5694 691.142C89.5694 692.141 89.3594 693.009 88.9394 693.746C88.5288 694.474 87.9314 695.034 87.1474 695.426C86.3728 695.809 85.4534 696 84.3894 696H81.3514V686.242H84.3894ZM84.3894 694.95C85.6494 694.95 86.6108 694.619 87.2734 693.956C87.9361 693.284 88.2674 692.346 88.2674 691.142C88.2674 689.929 87.9314 688.981 87.2594 688.3C86.5968 687.619 85.6401 687.278 84.3894 687.278H82.6254V694.95H84.3894ZM94.5959 696.126C93.8772 696.126 93.2239 695.963 92.6359 695.636C92.0572 695.309 91.5999 694.847 91.2639 694.25C90.9372 693.643 90.7739 692.943 90.7739 692.15C90.7739 691.366 90.9419 690.675 91.2779 690.078C91.6232 689.471 92.0899 689.009 92.6779 688.692C93.2659 688.365 93.9239 688.202 94.6519 688.202C95.3799 688.202 96.0379 688.365 96.6259 688.692C97.2139 689.009 97.6759 689.467 98.0119 690.064C98.3572 690.661 98.5299 691.357 98.5299 692.15C98.5299 692.943 98.3525 693.643 97.9979 694.25C97.6525 694.847 97.1812 695.309 96.5839 695.636C95.9865 695.963 95.3239 696.126 94.5959 696.126ZM94.5959 695.006C95.0532 695.006 95.4825 694.899 95.8839 694.684C96.2852 694.469 96.6072 694.147 96.8499 693.718C97.1019 693.289 97.2279 692.766 97.2279 692.15C97.2279 691.534 97.1065 691.011 96.8639 690.582C96.6212 690.153 96.3039 689.835 95.9119 689.63C95.5199 689.415 95.0952 689.308 94.6379 689.308C94.1712 689.308 93.7419 689.415 93.3499 689.63C92.9672 689.835 92.6592 690.153 92.4259 690.582C92.1925 691.011 92.0759 691.534 92.0759 692.15C92.0759 692.775 92.1879 693.303 92.4119 693.732C92.6452 694.161 92.9532 694.483 93.3359 694.698C93.7185 694.903 94.1385 695.006 94.5959 695.006ZM103.943 688.188C104.876 688.188 105.632 688.473 106.211 689.042C106.79 689.602 107.079 690.414 107.079 691.478V696H105.819V691.66C105.819 690.895 105.628 690.311 105.245 689.91C104.862 689.499 104.34 689.294 103.677 689.294C103.005 689.294 102.468 689.504 102.067 689.924C101.675 690.344 101.479 690.955 101.479 691.758V696H100.205V688.328H101.479V689.42C101.731 689.028 102.072 688.725 102.501 688.51C102.94 688.295 103.42 688.188 103.943 688.188ZM109.356 686.242H110.77L109.426 689.42H108.53L109.356 686.242ZM113.777 689.378V693.9C113.777 694.273 113.856 694.539 114.015 694.698C114.173 694.847 114.449 694.922 114.841 694.922H115.779V696H114.631C113.921 696 113.389 695.837 113.035 695.51C112.68 695.183 112.503 694.647 112.503 693.9V689.378H111.509V688.328H112.503V686.396H113.777V688.328H115.779V689.378H113.777ZM124.863 688.188C125.441 688.188 125.964 688.314 126.431 688.566C126.897 688.809 127.261 689.177 127.523 689.672C127.793 690.167 127.929 690.769 127.929 691.478V696H126.669V691.66C126.669 690.895 126.477 690.311 126.095 689.91C125.712 689.499 125.189 689.294 124.527 689.294C123.855 689.294 123.318 689.504 122.917 689.924C122.525 690.344 122.329 690.955 122.329 691.758V696H121.055V685.64H122.329V689.42C122.581 689.028 122.926 688.725 123.365 688.51C123.813 688.295 124.312 688.188 124.863 688.188ZM129.534 692.136C129.534 691.352 129.692 690.666 130.01 690.078C130.327 689.481 130.761 689.019 131.312 688.692C131.872 688.365 132.492 688.202 133.174 688.202C133.846 688.202 134.429 688.347 134.924 688.636C135.418 688.925 135.787 689.289 136.03 689.728V688.328H137.318V696H136.03V694.572C135.778 695.02 135.4 695.393 134.896 695.692C134.401 695.981 133.822 696.126 133.16 696.126C132.478 696.126 131.862 695.958 131.312 695.622C130.761 695.286 130.327 694.815 130.01 694.208C129.692 693.601 129.534 692.911 129.534 692.136ZM136.03 692.15C136.03 691.571 135.913 691.067 135.68 690.638C135.446 690.209 135.129 689.882 134.728 689.658C134.336 689.425 133.902 689.308 133.426 689.308C132.95 689.308 132.516 689.42 132.124 689.644C131.732 689.868 131.419 690.195 131.186 690.624C130.952 691.053 130.836 691.557 130.836 692.136C130.836 692.724 130.952 693.237 131.186 693.676C131.419 694.105 131.732 694.437 132.124 694.67C132.516 694.894 132.95 695.006 133.426 695.006C133.902 695.006 134.336 694.894 134.728 694.67C135.129 694.437 135.446 694.105 135.68 693.676C135.913 693.237 136.03 692.729 136.03 692.15ZM142.327 694.824L144.707 688.328H146.065L143.055 696H141.571L138.561 688.328H139.933L142.327 694.824ZM154.318 691.87C154.318 692.113 154.304 692.369 154.276 692.64H148.144C148.191 693.396 148.448 693.989 148.914 694.418C149.39 694.838 149.964 695.048 150.636 695.048C151.187 695.048 151.644 694.922 152.008 694.67C152.382 694.409 152.643 694.063 152.792 693.634H154.164C153.959 694.371 153.548 694.973 152.932 695.44C152.316 695.897 151.551 696.126 150.636 696.126C149.908 696.126 149.255 695.963 148.676 695.636C148.107 695.309 147.659 694.847 147.332 694.25C147.006 693.643 146.842 692.943 146.842 692.15C146.842 691.357 147.001 690.661 147.318 690.064C147.636 689.467 148.079 689.009 148.648 688.692C149.227 688.365 149.89 688.202 150.636 688.202C151.364 688.202 152.008 688.361 152.568 688.678C153.128 688.995 153.558 689.434 153.856 689.994C154.164 690.545 154.318 691.17 154.318 691.87ZM153.002 691.604C153.002 691.119 152.895 690.703 152.68 690.358C152.466 690.003 152.172 689.737 151.798 689.56C151.434 689.373 151.028 689.28 150.58 689.28C149.936 689.28 149.386 689.485 148.928 689.896C148.48 690.307 148.224 690.876 148.158 691.604H153.002ZM159.256 692.136C159.256 691.352 159.415 690.666 159.732 690.078C160.05 689.481 160.484 689.019 161.034 688.692C161.594 688.365 162.215 688.202 162.896 688.202C163.568 688.202 164.152 688.347 164.646 688.636C165.141 688.925 165.51 689.289 165.752 689.728V688.328H167.04V696H165.752V694.572C165.5 695.02 165.122 695.393 164.618 695.692C164.124 695.981 163.545 696.126 162.882 696.126C162.201 696.126 161.585 695.958 161.034 695.622C160.484 695.286 160.05 694.815 159.732 694.208C159.415 693.601 159.256 692.911 159.256 692.136ZM165.752 692.15C165.752 691.571 165.636 691.067 165.402 690.638C165.169 690.209 164.852 689.882 164.45 689.658C164.058 689.425 163.624 689.308 163.148 689.308C162.672 689.308 162.238 689.42 161.846 689.644C161.454 689.868 161.142 690.195 160.908 690.624C160.675 691.053 160.558 691.557 160.558 692.136C160.558 692.724 160.675 693.237 160.908 693.676C161.142 694.105 161.454 694.437 161.846 694.67C162.238 694.894 162.672 695.006 163.148 695.006C163.624 695.006 164.058 694.894 164.45 694.67C164.852 694.437 165.169 694.105 165.402 693.676C165.636 693.237 165.752 692.729 165.752 692.15ZM172.931 688.188C173.865 688.188 174.621 688.473 175.199 689.042C175.778 689.602 176.067 690.414 176.067 691.478V696H174.807V691.66C174.807 690.895 174.616 690.311 174.233 689.91C173.851 689.499 173.328 689.294 172.665 689.294C171.993 689.294 171.457 689.504 171.055 689.924C170.663 690.344 170.467 690.955 170.467 691.758V696H169.193V688.328H170.467V689.42C170.719 689.028 171.06 688.725 171.489 688.51C171.928 688.295 172.409 688.188 172.931 688.188ZM181.405 692.136C181.405 691.352 181.563 690.666 181.881 690.078C182.198 689.481 182.632 689.019 183.183 688.692C183.743 688.365 184.363 688.202 185.045 688.202C185.717 688.202 186.3 688.347 186.795 688.636C187.289 688.925 187.658 689.289 187.901 689.728V688.328H189.189V696H187.901V694.572C187.649 695.02 187.271 695.393 186.767 695.692C186.272 695.981 185.693 696.126 185.031 696.126C184.349 696.126 183.733 695.958 183.183 695.622C182.632 695.286 182.198 694.815 181.881 694.208C181.563 693.601 181.405 692.911 181.405 692.136ZM187.901 692.15C187.901 691.571 187.784 691.067 187.551 690.638C187.317 690.209 187 689.882 186.599 689.658C186.207 689.425 185.773 689.308 185.297 689.308C184.821 689.308 184.387 689.42 183.995 689.644C183.603 689.868 183.29 690.195 183.057 690.624C182.823 691.053 182.707 691.557 182.707 692.136C182.707 692.724 182.823 693.237 183.057 693.676C183.29 694.105 183.603 694.437 183.995 694.67C184.387 694.894 184.821 695.006 185.297 695.006C185.773 695.006 186.207 694.894 186.599 694.67C187 694.437 187.317 694.105 187.551 693.676C187.784 693.237 187.901 692.729 187.901 692.15ZM190.866 692.15C190.866 691.357 191.024 690.666 191.342 690.078C191.659 689.481 192.098 689.019 192.658 688.692C193.227 688.365 193.876 688.202 194.604 688.202C195.546 688.202 196.321 688.431 196.928 688.888C197.544 689.345 197.95 689.98 198.146 690.792H196.774C196.643 690.325 196.386 689.957 196.004 689.686C195.63 689.415 195.164 689.28 194.604 689.28C193.876 689.28 193.288 689.532 192.84 690.036C192.392 690.531 192.168 691.235 192.168 692.15C192.168 693.074 192.392 693.788 192.84 694.292C193.288 694.796 193.876 695.048 194.604 695.048C195.164 695.048 195.63 694.917 196.004 694.656C196.377 694.395 196.634 694.021 196.774 693.536H198.146C197.94 694.32 197.53 694.95 196.914 695.426C196.298 695.893 195.528 696.126 194.604 696.126C193.876 696.126 193.227 695.963 192.658 695.636C192.098 695.309 191.659 694.847 191.342 694.25C191.024 693.653 190.866 692.953 190.866 692.15ZM199.37 692.15C199.37 691.357 199.528 690.666 199.846 690.078C200.163 689.481 200.602 689.019 201.162 688.692C201.731 688.365 202.38 688.202 203.108 688.202C204.05 688.202 204.825 688.431 205.432 688.888C206.048 689.345 206.454 689.98 206.65 690.792H205.278C205.147 690.325 204.89 689.957 204.508 689.686C204.134 689.415 203.668 689.28 203.108 689.28C202.38 689.28 201.792 689.532 201.344 690.036C200.896 690.531 200.672 691.235 200.672 692.15C200.672 693.074 200.896 693.788 201.344 694.292C201.792 694.796 202.38 695.048 203.108 695.048C203.668 695.048 204.134 694.917 204.508 694.656C204.881 694.395 205.138 694.021 205.278 693.536H206.65C206.444 694.32 206.034 694.95 205.418 695.426C204.802 695.893 204.032 696.126 203.108 696.126C202.38 696.126 201.731 695.963 201.162 695.636C200.602 695.309 200.163 694.847 199.846 694.25C199.528 693.653 199.37 692.953 199.37 692.15ZM211.695 696.126C210.977 696.126 210.323 695.963 209.735 695.636C209.157 695.309 208.699 694.847 208.363 694.25C208.037 693.643 207.873 692.943 207.873 692.15C207.873 691.366 208.041 690.675 208.377 690.078C208.723 689.471 209.189 689.009 209.777 688.692C210.365 688.365 211.023 688.202 211.751 688.202C212.479 688.202 213.137 688.365 213.725 688.692C214.313 689.009 214.775 689.467 215.111 690.064C215.457 690.661 215.629 691.357 215.629 692.15C215.629 692.943 215.452 693.643 215.097 694.25C214.752 694.847 214.281 695.309 213.683 695.636C213.086 695.963 212.423 696.126 211.695 696.126ZM211.695 695.006C212.153 695.006 212.582 694.899 212.983 694.684C213.385 694.469 213.707 694.147 213.949 693.718C214.201 693.289 214.327 692.766 214.327 692.15C214.327 691.534 214.206 691.011 213.963 690.582C213.721 690.153 213.403 689.835 213.011 689.63C212.619 689.415 212.195 689.308 211.737 689.308C211.271 689.308 210.841 689.415 210.449 689.63C210.067 689.835 209.759 690.153 209.525 690.582C209.292 691.011 209.175 691.534 209.175 692.15C209.175 692.775 209.287 693.303 209.511 693.732C209.745 694.161 210.053 694.483 210.435 694.698C210.818 694.903 211.238 695.006 211.695 695.006ZM224.109 688.328V696H222.835V694.866C222.592 695.258 222.251 695.566 221.813 695.79C221.383 696.005 220.907 696.112 220.385 696.112C219.787 696.112 219.251 695.991 218.775 695.748C218.299 695.496 217.921 695.123 217.641 694.628C217.37 694.133 217.235 693.531 217.235 692.822V688.328H218.495V692.654C218.495 693.41 218.686 693.993 219.069 694.404C219.451 694.805 219.974 695.006 220.637 695.006C221.318 695.006 221.855 694.796 222.247 694.376C222.639 693.956 222.835 693.345 222.835 692.542V688.328H224.109ZM229.998 688.188C230.931 688.188 231.687 688.473 232.266 689.042C232.844 689.602 233.134 690.414 233.134 691.478V696H231.874V691.66C231.874 690.895 231.682 690.311 231.3 689.91C230.917 689.499 230.394 689.294 229.732 689.294C229.06 689.294 228.523 689.504 228.122 689.924C227.73 690.344 227.534 690.955 227.534 691.758V696H226.26V688.328H227.534V689.42C227.786 689.028 228.126 688.725 228.556 688.51C228.994 688.295 229.475 688.188 229.998 688.188ZM236.769 689.378V693.9C236.769 694.273 236.848 694.539 237.007 694.698C237.165 694.847 237.441 694.922 237.833 694.922H238.771V696H237.623C236.913 696 236.381 695.837 236.027 695.51C235.672 695.183 235.495 694.647 235.495 693.9V689.378H234.501V688.328H235.495V686.396H236.769V688.328H238.771V689.378H236.769ZM242.806 686.116C243.73 686.116 244.477 686.377 245.046 686.9C245.616 687.423 245.9 688.123 245.9 689C245.9 689.98 245.597 690.708 244.99 691.184C244.384 691.651 243.562 691.884 242.526 691.884L242.484 693.214H241.378L241.322 691.002H241.728C242.652 691.002 243.376 690.862 243.898 690.582C244.421 690.302 244.682 689.775 244.682 689C244.682 688.44 244.514 687.997 244.178 687.67C243.842 687.343 243.39 687.18 242.82 687.18C242.242 687.18 241.784 687.339 241.448 687.656C241.122 687.964 240.958 688.389 240.958 688.93H239.754C239.754 688.37 239.88 687.88 240.132 687.46C240.384 687.031 240.739 686.699 241.196 686.466C241.663 686.233 242.2 686.116 242.806 686.116ZM241.924 696.084C241.682 696.084 241.476 696 241.308 695.832C241.14 695.664 241.056 695.459 241.056 695.216C241.056 694.973 241.14 694.768 241.308 694.6C241.476 694.432 241.682 694.348 241.924 694.348C242.158 694.348 242.354 694.432 242.512 694.6C242.68 694.768 242.764 694.973 242.764 695.216C242.764 695.459 242.68 695.664 242.512 695.832C242.354 696 242.158 696.084 241.924 696.084ZM254.471 696.098C253.818 696.098 253.23 695.986 252.707 695.762C252.184 695.529 251.774 695.202 251.475 694.782C251.176 694.362 251.027 693.872 251.027 693.312H252.735C252.772 693.732 252.936 694.077 253.225 694.348C253.524 694.619 253.939 694.754 254.471 694.754C255.022 694.754 255.451 694.623 255.759 694.362C256.067 694.091 256.221 693.746 256.221 693.326C256.221 692.999 256.123 692.733 255.927 692.528C255.74 692.323 255.502 692.164 255.213 692.052C254.933 691.94 254.541 691.819 254.037 691.688C253.402 691.52 252.884 691.352 252.483 691.184C252.091 691.007 251.755 690.736 251.475 690.372C251.195 690.008 251.055 689.523 251.055 688.916C251.055 688.356 251.195 687.866 251.475 687.446C251.755 687.026 252.147 686.704 252.651 686.48C253.155 686.256 253.738 686.144 254.401 686.144C255.344 686.144 256.114 686.382 256.711 686.858C257.318 687.325 257.654 687.969 257.719 688.79H255.955C255.927 688.435 255.759 688.132 255.451 687.88C255.143 687.628 254.737 687.502 254.233 687.502C253.776 687.502 253.402 687.619 253.113 687.852C252.824 688.085 252.679 688.421 252.679 688.86C252.679 689.159 252.768 689.406 252.945 689.602C253.132 689.789 253.365 689.938 253.645 690.05C253.925 690.162 254.308 690.283 254.793 690.414C255.437 690.591 255.96 690.769 256.361 690.946C256.772 691.123 257.117 691.399 257.397 691.772C257.686 692.136 257.831 692.626 257.831 693.242C257.831 693.737 257.696 694.203 257.425 694.642C257.164 695.081 256.776 695.435 256.263 695.706C255.759 695.967 255.162 696.098 254.471 696.098ZM260.526 687.264C260.237 687.264 259.994 687.166 259.798 686.97C259.602 686.774 259.504 686.531 259.504 686.242C259.504 685.953 259.602 685.71 259.798 685.514C259.994 685.318 260.237 685.22 260.526 685.22C260.806 685.22 261.044 685.318 261.24 685.514C261.436 685.71 261.534 685.953 261.534 686.242C261.534 686.531 261.436 686.774 261.24 686.97C261.044 687.166 260.806 687.264 260.526 687.264ZM261.31 688.286V696H259.714V688.286H261.31ZM266.513 688.16C267.111 688.16 267.638 688.281 268.095 688.524C268.562 688.757 268.926 689.051 269.187 689.406V688.286H270.797V696.126C270.797 696.835 270.648 697.465 270.349 698.016C270.051 698.576 269.617 699.015 269.047 699.332C268.487 699.649 267.815 699.808 267.031 699.808C265.986 699.808 265.118 699.561 264.427 699.066C263.737 698.581 263.345 697.918 263.251 697.078H264.833C264.955 697.479 265.211 697.801 265.603 698.044C266.005 698.296 266.481 698.422 267.031 698.422C267.675 698.422 268.193 698.226 268.585 697.834C268.987 697.442 269.187 696.873 269.187 696.126V694.838C268.917 695.202 268.548 695.51 268.081 695.762C267.624 696.005 267.101 696.126 266.513 696.126C265.841 696.126 265.225 695.958 264.665 695.622C264.115 695.277 263.676 694.801 263.349 694.194C263.032 693.578 262.873 692.883 262.873 692.108C262.873 691.333 263.032 690.647 263.349 690.05C263.676 689.453 264.115 688.991 264.665 688.664C265.225 688.328 265.841 688.16 266.513 688.16ZM269.187 692.136C269.187 691.604 269.075 691.142 268.851 690.75C268.637 690.358 268.352 690.059 267.997 689.854C267.643 689.649 267.26 689.546 266.849 689.546C266.439 689.546 266.056 689.649 265.701 689.854C265.347 690.05 265.057 690.344 264.833 690.736C264.619 691.119 264.511 691.576 264.511 692.108C264.511 692.64 264.619 693.107 264.833 693.508C265.057 693.909 265.347 694.217 265.701 694.432C266.065 694.637 266.448 694.74 266.849 694.74C267.26 694.74 267.643 694.637 267.997 694.432C268.352 694.227 268.637 693.928 268.851 693.536C269.075 693.135 269.187 692.668 269.187 692.136ZM276.786 688.16C277.392 688.16 277.934 688.286 278.41 688.538C278.895 688.79 279.273 689.163 279.544 689.658C279.814 690.153 279.95 690.75 279.95 691.45V696H278.368V691.688C278.368 690.997 278.195 690.47 277.85 690.106C277.504 689.733 277.033 689.546 276.436 689.546C275.838 689.546 275.362 689.733 275.008 690.106C274.662 690.47 274.49 690.997 274.49 691.688V696H272.894V688.286H274.49V689.168C274.751 688.851 275.082 688.603 275.484 688.426C275.894 688.249 276.328 688.16 276.786 688.16ZM287.204 686.27V692.472C287.204 693.209 287.396 693.765 287.778 694.138C288.17 694.511 288.712 694.698 289.402 694.698C290.102 694.698 290.644 694.511 291.026 694.138C291.418 693.765 291.614 693.209 291.614 692.472V686.27H293.21V692.444C293.21 693.237 293.038 693.909 292.692 694.46C292.347 695.011 291.885 695.421 291.306 695.692C290.728 695.963 290.088 696.098 289.388 696.098C288.688 696.098 288.049 695.963 287.47 695.692C286.901 695.421 286.448 695.011 286.112 694.46C285.776 693.909 285.608 693.237 285.608 692.444V686.27H287.204ZM296.884 689.42C297.155 689.065 297.524 688.767 297.99 688.524C298.457 688.281 298.984 688.16 299.572 688.16C300.244 688.16 300.856 688.328 301.406 688.664C301.966 688.991 302.405 689.453 302.722 690.05C303.04 690.647 303.198 691.333 303.198 692.108C303.198 692.883 303.04 693.578 302.722 694.194C302.405 694.801 301.966 695.277 301.406 695.622C300.856 695.958 300.244 696.126 299.572 696.126C298.984 696.126 298.462 696.009 298.004 695.776C297.547 695.533 297.174 695.235 296.884 694.88V699.668H295.288V688.286H296.884V689.42ZM301.574 692.108C301.574 691.576 301.462 691.119 301.238 690.736C301.024 690.344 300.734 690.05 300.37 689.854C300.016 689.649 299.633 689.546 299.222 689.546C298.821 689.546 298.438 689.649 298.074 689.854C297.72 690.059 297.43 690.358 297.206 690.75C296.992 691.142 296.884 691.604 296.884 692.136C296.884 692.668 296.992 693.135 297.206 693.536C297.43 693.928 297.72 694.227 298.074 694.432C298.438 694.637 298.821 694.74 299.222 694.74C299.633 694.74 300.016 694.637 300.37 694.432C300.734 694.217 301.024 693.909 301.238 693.508C301.462 693.107 301.574 692.64 301.574 692.108Z" fill="black"/>
<path d="M74.101 420.88V427.968C74.101 428.811 74.3197 429.445 74.757 429.872C75.205 430.299 75.8237 430.512 76.613 430.512C77.413 430.512 78.0317 430.299 78.469 429.872C78.917 429.445 79.141 428.811 79.141 427.968V420.88H80.965V427.936C80.965 428.843 80.7677 429.611 80.373 430.24C79.9784 430.869 79.4504 431.339 78.789 431.648C78.1277 431.957 77.397 432.112 76.597 432.112C75.797 432.112 75.0664 431.957 74.405 431.648C73.7544 431.339 73.237 430.869 72.853 430.24C72.469 429.611 72.277 428.843 72.277 427.936V420.88H74.101ZM86.5399 432.144C85.8466 432.144 85.2226 432.021 84.6679 431.776C84.1239 431.52 83.6919 431.179 83.3719 430.752C83.0519 430.315 82.8812 429.829 82.8599 429.296H84.7479C84.7799 429.669 84.9559 429.984 85.2759 430.24C85.6066 430.485 86.0172 430.608 86.5079 430.608C87.0199 430.608 87.4146 430.512 87.6919 430.32C87.9799 430.117 88.1239 429.861 88.1239 429.552C88.1239 429.221 87.9639 428.976 87.6439 428.816C87.3346 428.656 86.8386 428.48 86.1559 428.288C85.4946 428.107 84.9559 427.931 84.5399 427.76C84.1239 427.589 83.7612 427.328 83.4519 426.976C83.1532 426.624 83.0039 426.16 83.0039 425.584C83.0039 425.115 83.1426 424.688 83.4199 424.304C83.6972 423.909 84.0919 423.6 84.6039 423.376C85.1266 423.152 85.7239 423.04 86.3959 423.04C87.3986 423.04 88.2039 423.296 88.8119 423.808C89.4306 424.309 89.7612 424.997 89.8039 425.872H87.9799C87.9479 425.477 87.7879 425.163 87.4999 424.928C87.2119 424.693 86.8226 424.576 86.3319 424.576C85.8519 424.576 85.4839 424.667 85.2279 424.848C84.9719 425.029 84.8439 425.269 84.8439 425.568C84.8439 425.803 84.9292 426 85.0999 426.16C85.2706 426.32 85.4786 426.448 85.7239 426.544C85.9692 426.629 86.3319 426.741 86.8119 426.88C87.4519 427.051 87.9746 427.227 88.3799 427.408C88.7959 427.579 89.1532 427.835 89.4519 428.176C89.7506 428.517 89.9052 428.971 89.9159 429.536C89.9159 430.037 89.7772 430.485 89.4999 430.88C89.2226 431.275 88.8279 431.584 88.3159 431.808C87.8146 432.032 87.2226 432.144 86.5399 432.144ZM99.9668 427.376C99.9668 427.707 99.9454 428.005 99.9028 428.272H93.1668C93.2201 428.976 93.4814 429.541 93.9508 429.968C94.4201 430.395 94.9961 430.608 95.6788 430.608C96.6601 430.608 97.3534 430.197 97.7588 429.376H99.7268C99.4601 430.187 98.9748 430.853 98.2708 431.376C97.5774 431.888 96.7134 432.144 95.6788 432.144C94.8361 432.144 94.0788 431.957 93.4068 431.584C92.7454 431.2 92.2228 430.667 91.8388 429.984C91.4654 429.291 91.2788 428.491 91.2788 427.584C91.2788 426.677 91.4601 425.883 91.8228 425.2C92.1961 424.507 92.7134 423.973 93.3748 423.6C94.0468 423.227 94.8148 423.04 95.6788 423.04C96.5108 423.04 97.2521 423.221 97.9028 423.584C98.5534 423.947 99.0601 424.459 99.4228 425.12C99.7854 425.771 99.9668 426.523 99.9668 427.376ZM98.0628 426.8C98.0521 426.128 97.8121 425.589 97.3428 425.184C96.8734 424.779 96.2921 424.576 95.5988 424.576C94.9694 424.576 94.4308 424.779 93.9828 425.184C93.5348 425.579 93.2681 426.117 93.1828 426.8H98.0628ZM103.586 424.464C103.852 424.016 104.204 423.669 104.642 423.424C105.09 423.168 105.618 423.04 106.226 423.04V424.928H105.762C105.047 424.928 104.503 425.109 104.13 425.472C103.767 425.835 103.586 426.464 103.586 427.36V432H101.762V423.184H103.586V424.464ZM112.35 423.04C113.044 423.04 113.662 423.184 114.206 423.472C114.761 423.76 115.193 424.187 115.502 424.752C115.812 425.317 115.966 426 115.966 426.8V432H114.158V427.072C114.158 426.283 113.961 425.68 113.566 425.264C113.172 424.837 112.633 424.624 111.95 424.624C111.268 424.624 110.724 424.837 110.318 425.264C109.924 425.68 109.726 426.283 109.726 427.072V432H107.902V423.184H109.726V424.192C110.025 423.829 110.404 423.547 110.862 423.344C111.332 423.141 111.828 423.04 112.35 423.04ZM117.685 427.552C117.685 426.667 117.866 425.883 118.229 425.2C118.602 424.517 119.104 423.989 119.733 423.616C120.373 423.232 121.077 423.04 121.845 423.04C122.538 423.04 123.141 423.179 123.653 423.456C124.176 423.723 124.592 424.059 124.901 424.464V423.184H126.741V432H124.901V430.688C124.592 431.104 124.17 431.451 123.637 431.728C123.104 432.005 122.496 432.144 121.813 432.144C121.056 432.144 120.362 431.952 119.733 431.568C119.104 431.173 118.602 430.629 118.229 429.936C117.866 429.232 117.685 428.437 117.685 427.552ZM124.901 427.584C124.901 426.976 124.773 426.448 124.517 426C124.272 425.552 123.946 425.211 123.541 424.976C123.136 424.741 122.698 424.624 122.229 424.624C121.76 424.624 121.322 424.741 120.917 424.976C120.512 425.2 120.181 425.536 119.925 425.984C119.68 426.421 119.557 426.944 119.557 427.552C119.557 428.16 119.68 428.693 119.925 429.152C120.181 429.611 120.512 429.963 120.917 430.208C121.333 430.443 121.77 430.56 122.229 430.56C122.698 430.56 123.136 430.443 123.541 430.208C123.946 429.973 124.272 429.632 124.517 429.184C124.773 428.725 124.901 428.192 124.901 427.584ZM139.809 423.04C140.502 423.04 141.121 423.184 141.665 423.472C142.219 423.76 142.651 424.187 142.961 424.752C143.281 425.317 143.441 426 143.441 426.8V432H141.633V427.072C141.633 426.283 141.435 425.68 141.041 425.264C140.646 424.837 140.107 424.624 139.425 424.624C138.742 424.624 138.198 424.837 137.793 425.264C137.398 425.68 137.201 426.283 137.201 427.072V432H135.393V427.072C135.393 426.283 135.195 425.68 134.801 425.264C134.406 424.837 133.867 424.624 133.185 424.624C132.502 424.624 131.958 424.837 131.553 425.264C131.158 425.68 130.961 426.283 130.961 427.072V432H129.137V423.184H130.961V424.192C131.259 423.829 131.638 423.547 132.097 423.344C132.555 423.141 133.046 423.04 133.569 423.04C134.273 423.04 134.902 423.189 135.457 423.488C136.011 423.787 136.438 424.219 136.737 424.784C137.003 424.251 137.419 423.829 137.985 423.52C138.55 423.2 139.158 423.04 139.809 423.04ZM153.842 427.376C153.842 427.707 153.82 428.005 153.778 428.272H147.042C147.095 428.976 147.356 429.541 147.826 429.968C148.295 430.395 148.871 430.608 149.554 430.608C150.535 430.608 151.228 430.197 151.634 429.376H153.602C153.335 430.187 152.85 430.853 152.146 431.376C151.452 431.888 150.588 432.144 149.554 432.144C148.711 432.144 147.954 431.957 147.282 431.584C146.62 431.2 146.098 430.667 145.714 429.984C145.34 429.291 145.154 428.491 145.154 427.584C145.154 426.677 145.335 425.883 145.698 425.2C146.071 424.507 146.588 423.973 147.25 423.6C147.922 423.227 148.69 423.04 149.554 423.04C150.386 423.04 151.127 423.221 151.778 423.584C152.428 423.947 152.935 424.459 153.298 425.12C153.66 425.771 153.842 426.523 153.842 427.376ZM151.938 426.8C151.927 426.128 151.687 425.589 151.218 425.184C150.748 424.779 150.167 424.576 149.474 424.576C148.844 424.576 148.306 424.779 147.858 425.184C147.41 425.579 147.143 426.117 147.058 426.8H151.938Z" fill="black"/>
<rect x="70.75" y="442.75" width="245.5" height="41.9468" rx="5.9" fill="#F4F4F4" stroke="#6A62B7" stroke-width="1.5"/>
<path d="M85.8188 466.108C85.8188 465.333 85.9774 464.647 86.2948 464.05C86.6214 463.453 87.0601 462.991 87.6108 462.664C88.1708 462.328 88.7868 462.16 89.4588 462.16C90.0654 462.16 90.5928 462.281 91.0408 462.524C91.4981 462.757 91.8621 463.051 92.1328 463.406V462.286H93.7428V470H92.1328V468.852C91.8621 469.216 91.4934 469.519 91.0268 469.762C90.5601 470.005 90.0281 470.126 89.4308 470.126C88.7681 470.126 88.1614 469.958 87.6108 469.622C87.0601 469.277 86.6214 468.801 86.2948 468.194C85.9774 467.578 85.8188 466.883 85.8188 466.108ZM92.1328 466.136C92.1328 465.604 92.0208 465.142 91.7968 464.75C91.5821 464.358 91.2974 464.059 90.9428 463.854C90.5881 463.649 90.2054 463.546 89.7948 463.546C89.3841 463.546 89.0014 463.649 88.6468 463.854C88.2921 464.05 88.0028 464.344 87.7788 464.736C87.5641 465.119 87.4568 465.576 87.4568 466.108C87.4568 466.64 87.5641 467.107 87.7788 467.508C88.0028 467.909 88.2921 468.217 88.6468 468.432C89.0108 468.637 89.3934 468.74 89.7948 468.74C90.2054 468.74 90.5881 468.637 90.9428 468.432C91.2974 468.227 91.5821 467.928 91.7968 467.536C92.0208 467.135 92.1328 466.668 92.1328 466.136ZM106.199 462.286L103.805 470H102.125L100.571 464.302L99.0171 470H97.3371L94.9291 462.286H96.5531L98.1631 468.488L99.8011 462.286H101.467L103.035 468.46L104.631 462.286H106.199ZM110.5 462.16C111.097 462.16 111.624 462.281 112.082 462.524C112.548 462.757 112.912 463.051 113.174 463.406V462.286H114.784V470.126C114.784 470.835 114.634 471.465 114.336 472.016C114.037 472.576 113.603 473.015 113.034 473.332C112.474 473.649 111.802 473.808 111.018 473.808C109.972 473.808 109.104 473.561 108.414 473.066C107.723 472.581 107.331 471.918 107.238 471.078H108.82C108.941 471.479 109.198 471.801 109.59 472.044C109.991 472.296 110.467 472.422 111.018 472.422C111.662 472.422 112.18 472.226 112.572 471.834C112.973 471.442 113.174 470.873 113.174 470.126V468.838C112.903 469.202 112.534 469.51 112.068 469.762C111.61 470.005 111.088 470.126 110.5 470.126C109.828 470.126 109.212 469.958 108.652 469.622C108.101 469.277 107.662 468.801 107.336 468.194C107.018 467.578 106.86 466.883 106.86 466.108C106.86 465.333 107.018 464.647 107.336 464.05C107.662 463.453 108.101 462.991 108.652 462.664C109.212 462.328 109.828 462.16 110.5 462.16ZM113.174 466.136C113.174 465.604 113.062 465.142 112.838 464.75C112.623 464.358 112.338 464.059 111.984 463.854C111.629 463.649 111.246 463.546 110.836 463.546C110.425 463.546 110.042 463.649 109.688 463.854C109.333 464.05 109.044 464.344 108.82 464.736C108.605 465.119 108.498 465.576 108.498 466.108C108.498 466.64 108.605 467.107 108.82 467.508C109.044 467.909 109.333 468.217 109.688 468.432C110.052 468.637 110.434 468.74 110.836 468.74C111.246 468.74 111.629 468.637 111.984 468.432C112.338 468.227 112.623 467.928 112.838 467.536C113.062 467.135 113.174 466.668 113.174 466.136ZM117.692 461.264C117.403 461.264 117.16 461.166 116.964 460.97C116.768 460.774 116.67 460.531 116.67 460.242C116.67 459.953 116.768 459.71 116.964 459.514C117.16 459.318 117.403 459.22 117.692 459.22C117.972 459.22 118.21 459.318 118.406 459.514C118.602 459.71 118.7 459.953 118.7 460.242C118.7 460.531 118.602 460.774 118.406 460.97C118.21 461.166 117.972 461.264 117.692 461.264ZM118.476 462.286V470H116.88V462.286H118.476ZM124.463 462.16C125.07 462.16 125.611 462.286 126.087 462.538C126.573 462.79 126.951 463.163 127.221 463.658C127.492 464.153 127.627 464.75 127.627 465.45V470H126.045V465.688C126.045 464.997 125.873 464.47 125.527 464.106C125.182 463.733 124.711 463.546 124.113 463.546C123.516 463.546 123.04 463.733 122.685 464.106C122.34 464.47 122.167 464.997 122.167 465.688V470H120.571V462.286H122.167V463.168C122.429 462.851 122.76 462.603 123.161 462.426C123.572 462.249 124.006 462.16 124.463 462.16ZM129.131 466.108C129.131 465.333 129.29 464.647 129.607 464.05C129.934 463.453 130.373 462.991 130.923 462.664C131.483 462.328 132.099 462.16 132.771 462.16C133.378 462.16 133.905 462.281 134.353 462.524C134.811 462.757 135.175 463.051 135.445 463.406V462.286H137.055V470H135.445V468.852C135.175 469.216 134.806 469.519 134.339 469.762C133.873 470.005 133.341 470.126 132.743 470.126C132.081 470.126 131.474 469.958 130.923 469.622C130.373 469.277 129.934 468.801 129.607 468.194C129.29 467.578 129.131 466.883 129.131 466.108ZM135.445 466.136C135.445 465.604 135.333 465.142 135.109 464.75C134.895 464.358 134.61 464.059 134.255 463.854C133.901 463.649 133.518 463.546 133.107 463.546C132.697 463.546 132.314 463.649 131.959 463.854C131.605 464.05 131.315 464.344 131.091 464.736C130.877 465.119 130.769 465.576 130.769 466.108C130.769 466.64 130.877 467.107 131.091 467.508C131.315 467.909 131.605 468.217 131.959 468.432C132.323 468.637 132.706 468.74 133.107 468.74C133.518 468.74 133.901 468.637 134.255 468.432C134.61 468.227 134.895 467.928 135.109 467.536C135.333 467.135 135.445 466.668 135.445 466.136Z" fill="#8D91A0"/>
<path d="M80.0778 513.639C80.0778 514.204 79.9445 514.737 79.6778 515.239C79.4111 515.74 78.9845 516.151 78.3978 516.471C77.8111 516.78 77.0591 516.935 76.1418 516.935H74.1258V521.447H72.3018V510.327H76.1418C76.9951 510.327 77.7151 510.476 78.3018 510.775C78.8991 511.063 79.3418 511.457 79.6298 511.959C79.9285 512.46 80.0778 513.02 80.0778 513.639ZM76.1418 515.447C76.8351 515.447 77.3525 515.292 77.6938 514.983C78.0351 514.663 78.2058 514.215 78.2058 513.639C78.2058 512.423 77.5178 511.815 76.1418 511.815H74.1258V515.447H76.1418ZM81.2094 516.999C81.2094 516.113 81.3908 515.329 81.7534 514.647C82.1268 513.964 82.6281 513.436 83.2574 513.063C83.8974 512.679 84.6014 512.487 85.3694 512.487C86.0628 512.487 86.6654 512.625 87.1774 512.903C87.7001 513.169 88.1161 513.505 88.4254 513.911V512.631H90.2654V521.447H88.4254V520.135C88.1161 520.551 87.6948 520.897 87.1614 521.175C86.6281 521.452 86.0201 521.591 85.3374 521.591C84.5801 521.591 83.8868 521.399 83.2574 521.015C82.6281 520.62 82.1268 520.076 81.7534 519.383C81.3908 518.679 81.2094 517.884 81.2094 516.999ZM88.4254 517.031C88.4254 516.423 88.2974 515.895 88.0414 515.447C87.7961 514.999 87.4708 514.657 87.0654 514.423C86.6601 514.188 86.2228 514.071 85.7534 514.071C85.2841 514.071 84.8468 514.188 84.4414 514.423C84.0361 514.647 83.7054 514.983 83.4494 515.431C83.2041 515.868 83.0814 516.391 83.0814 516.999C83.0814 517.607 83.2041 518.14 83.4494 518.599C83.7054 519.057 84.0361 519.409 84.4414 519.655C84.8574 519.889 85.2948 520.007 85.7534 520.007C86.2228 520.007 86.6601 519.889 87.0654 519.655C87.4708 519.42 87.7961 519.079 88.0414 518.631C88.2974 518.172 88.4254 517.639 88.4254 517.031ZM95.8612 521.591C95.1678 521.591 94.5438 521.468 93.9892 521.223C93.4452 520.967 93.0132 520.625 92.6932 520.199C92.3732 519.761 92.2025 519.276 92.1812 518.743H94.0692C94.1012 519.116 94.2772 519.431 94.5972 519.687C94.9278 519.932 95.3385 520.055 95.8292 520.055C96.3412 520.055 96.7358 519.959 97.0132 519.767C97.3012 519.564 97.4452 519.308 97.4452 518.999C97.4452 518.668 97.2852 518.423 96.9652 518.263C96.6558 518.103 96.1598 517.927 95.4772 517.735C94.8158 517.553 94.2772 517.377 93.8612 517.207C93.4452 517.036 93.0825 516.775 92.7732 516.423C92.4745 516.071 92.3252 515.607 92.3252 515.031C92.3252 514.561 92.4638 514.135 92.7412 513.751C93.0185 513.356 93.4132 513.047 93.9252 512.823C94.4478 512.599 95.0452 512.487 95.7172 512.487C96.7198 512.487 97.5252 512.743 98.1332 513.255C98.7518 513.756 99.0825 514.444 99.1252 515.319H97.3012C97.2692 514.924 97.1092 514.609 96.8212 514.375C96.5332 514.14 96.1438 514.023 95.6532 514.023C95.1732 514.023 94.8052 514.113 94.5492 514.295C94.2932 514.476 94.1652 514.716 94.1652 515.015C94.1652 515.249 94.2505 515.447 94.4212 515.607C94.5918 515.767 94.7998 515.895 95.0452 515.991C95.2905 516.076 95.6532 516.188 96.1332 516.327C96.7732 516.497 97.2958 516.673 97.7012 516.855C98.1172 517.025 98.4745 517.281 98.7732 517.623C99.0718 517.964 99.2265 518.417 99.2372 518.983C99.2372 519.484 99.0985 519.932 98.8212 520.327C98.5438 520.721 98.1492 521.031 97.6372 521.255C97.1358 521.479 96.5438 521.591 95.8612 521.591ZM104.408 521.591C103.715 521.591 103.091 521.468 102.536 521.223C101.992 520.967 101.56 520.625 101.24 520.199C100.92 519.761 100.749 519.276 100.728 518.743H102.616C102.648 519.116 102.824 519.431 103.144 519.687C103.475 519.932 103.885 520.055 104.376 520.055C104.888 520.055 105.283 519.959 105.56 519.767C105.848 519.564 105.992 519.308 105.992 518.999C105.992 518.668 105.832 518.423 105.512 518.263C105.203 518.103 104.707 517.927 104.024 517.735C103.363 517.553 102.824 517.377 102.408 517.207C101.992 517.036 101.629 516.775 101.32 516.423C101.021 516.071 100.872 515.607 100.872 515.031C100.872 514.561 101.011 514.135 101.288 513.751C101.565 513.356 101.96 513.047 102.472 512.823C102.995 512.599 103.592 512.487 104.264 512.487C105.267 512.487 106.072 512.743 106.68 513.255C107.299 513.756 107.629 514.444 107.672 515.319H105.848C105.816 514.924 105.656 514.609 105.368 514.375C105.08 514.14 104.691 514.023 104.2 514.023C103.72 514.023 103.352 514.113 103.096 514.295C102.84 514.476 102.712 514.716 102.712 515.015C102.712 515.249 102.797 515.447 102.968 515.607C103.139 515.767 103.347 515.895 103.592 515.991C103.837 516.076 104.2 516.188 104.68 516.327C105.32 516.497 105.843 516.673 106.248 516.855C106.664 517.025 107.021 517.281 107.32 517.623C107.619 517.964 107.773 518.417 107.784 518.983C107.784 519.484 107.645 519.932 107.368 520.327C107.091 520.721 106.696 521.031 106.184 521.255C105.683 521.479 105.091 521.591 104.408 521.591ZM121.595 512.631L118.859 521.447H116.939L115.163 514.935L113.387 521.447H111.467L108.715 512.631H110.571L112.411 519.719L114.283 512.631H116.187L117.979 519.687L119.803 512.631H121.595ZM126.782 521.591C125.95 521.591 125.198 521.404 124.526 521.031C123.854 520.647 123.326 520.113 122.942 519.431C122.558 518.737 122.366 517.937 122.366 517.031C122.366 516.135 122.563 515.34 122.958 514.647C123.353 513.953 123.891 513.42 124.574 513.047C125.257 512.673 126.019 512.487 126.862 512.487C127.705 512.487 128.467 512.673 129.15 513.047C129.833 513.42 130.371 513.953 130.766 514.647C131.161 515.34 131.358 516.135 131.358 517.031C131.358 517.927 131.155 518.721 130.75 519.415C130.345 520.108 129.79 520.647 129.086 521.031C128.393 521.404 127.625 521.591 126.782 521.591ZM126.782 520.007C127.251 520.007 127.689 519.895 128.094 519.671C128.51 519.447 128.846 519.111 129.102 518.663C129.358 518.215 129.486 517.671 129.486 517.031C129.486 516.391 129.363 515.852 129.118 515.415C128.873 514.967 128.547 514.631 128.142 514.407C127.737 514.183 127.299 514.071 126.83 514.071C126.361 514.071 125.923 514.183 125.518 514.407C125.123 514.631 124.809 514.967 124.574 515.415C124.339 515.852 124.222 516.391 124.222 517.031C124.222 517.98 124.462 518.716 124.942 519.239C125.433 519.751 126.046 520.007 126.782 520.007ZM134.985 513.911C135.252 513.463 135.604 513.116 136.041 512.871C136.489 512.615 137.017 512.487 137.625 512.487V514.375H137.161C136.447 514.375 135.903 514.556 135.529 514.919C135.167 515.281 134.985 515.911 134.985 516.807V521.447H133.161V512.631H134.985V513.911ZM138.694 516.999C138.694 516.113 138.875 515.329 139.238 514.647C139.611 513.964 140.112 513.436 140.742 513.063C141.382 512.679 142.091 512.487 142.87 512.487C143.446 512.487 144.011 512.615 144.566 512.871C145.131 513.116 145.579 513.447 145.91 513.863V509.607H147.75V521.447H145.91V520.119C145.611 520.545 145.195 520.897 144.662 521.175C144.139 521.452 143.536 521.591 142.854 521.591C142.086 521.591 141.382 521.399 140.742 521.015C140.112 520.62 139.611 520.076 139.238 519.383C138.875 518.679 138.694 517.884 138.694 516.999ZM145.91 517.031C145.91 516.423 145.782 515.895 145.526 515.447C145.28 514.999 144.955 514.657 144.55 514.423C144.144 514.188 143.707 514.071 143.238 514.071C142.768 514.071 142.331 514.188 141.926 514.423C141.52 514.647 141.19 514.983 140.934 515.431C140.688 515.868 140.566 516.391 140.566 516.999C140.566 517.607 140.688 518.14 140.934 518.599C141.19 519.057 141.52 519.409 141.926 519.655C142.342 519.889 142.779 520.007 143.238 520.007C143.707 520.007 144.144 519.889 144.55 519.655C144.955 519.42 145.28 519.079 145.526 518.631C145.782 518.172 145.91 517.639 145.91 517.031Z" fill="black"/>
<rect x="70.75" y="532.197" width="247.5" height="41.9468" rx="5.9" fill="#F4F4F4" stroke="#6A62B7" stroke-width="1.5"/>
<path d="M89.8948 555.787C87.6948 555.787 85.9348 554.027 85.9348 551.827C85.9348 549.627 87.6948 547.867 89.8948 547.867C92.0948 547.867 93.8548 549.627 93.8548 551.827C93.8548 554.027 92.0948 555.787 89.8948 555.787ZM98.8304 555.787C96.6304 555.787 94.8704 554.027 94.8704 551.827C94.8704 549.627 96.6304 547.867 98.8304 547.867C101.03 547.867 102.79 549.627 102.79 551.827C102.79 554.027 101.03 555.787 98.8304 555.787ZM107.766 555.787C105.566 555.787 103.806 554.027 103.806 551.827C103.806 549.627 105.566 547.867 107.766 547.867C109.966 547.867 111.726 549.627 111.726 551.827C111.726 554.027 109.966 555.787 107.766 555.787ZM116.701 555.787C114.501 555.787 112.741 554.027 112.741 551.827C112.741 549.627 114.501 547.867 116.701 547.867C118.901 547.867 120.661 549.627 120.661 551.827C120.661 554.027 118.901 555.787 116.701 555.787ZM125.637 555.787C123.437 555.787 121.677 554.027 121.677 551.827C121.677 549.627 123.437 547.867 125.637 547.867C127.837 547.867 129.597 549.627 129.597 551.827C129.597 554.027 127.837 555.787 125.637 555.787ZM134.573 555.787C132.373 555.787 130.613 554.027 130.613 551.827C130.613 549.627 132.373 547.867 134.573 547.867C136.773 547.867 138.533 549.627 138.533 551.827C138.533 554.027 136.773 555.787 134.573 555.787ZM143.508 555.787C141.308 555.787 139.548 554.027 139.548 551.827C139.548 549.627 141.308 547.867 143.508 547.867C145.708 547.867 147.468 549.627 147.468 551.827C147.468 554.027 145.708 555.787 143.508 555.787ZM152.444 555.787C150.244 555.787 148.484 554.027 148.484 551.827C148.484 549.627 150.244 547.867 152.444 547.867C154.644 547.867 156.404 549.627 156.404 551.827C156.404 554.027 154.644 555.787 152.444 555.787Z" fill="#8D91A0"/>
<rect x="70" y="592.894" width="249" height="42" rx="8" fill="#6A62B7"/>
<path d="M168.056 620.894V607.803H170.428V618.906H176.194V620.894H168.056ZM182.972 621.085C182.013 621.085 181.182 620.874 180.479 620.452C179.776 620.031 179.231 619.44 178.843 618.682C178.459 617.923 178.268 617.037 178.268 616.023C178.268 615.009 178.459 614.12 178.843 613.357C179.231 612.595 179.776 612.002 180.479 611.58C181.182 611.158 182.013 610.947 182.972 610.947C183.931 610.947 184.762 611.158 185.465 611.58C186.168 612.002 186.711 612.595 187.095 613.357C187.483 614.12 187.677 615.009 187.677 616.023C187.677 617.037 187.483 617.923 187.095 618.682C186.711 619.44 186.168 620.031 185.465 620.452C184.762 620.874 183.931 621.085 182.972 621.085ZM182.985 619.232C183.505 619.232 183.939 619.089 184.289 618.803C184.638 618.514 184.898 618.126 185.069 617.64C185.243 617.154 185.331 616.613 185.331 616.016C185.331 615.416 185.243 614.872 185.069 614.386C184.898 613.896 184.638 613.506 184.289 613.217C183.939 612.927 183.505 612.782 182.985 612.782C182.452 612.782 182.009 612.927 181.655 613.217C181.306 613.506 181.044 613.896 180.869 614.386C180.699 614.872 180.613 615.416 180.613 616.016C180.613 616.613 180.699 617.154 180.869 617.64C181.044 618.126 181.306 618.514 181.655 618.803C182.009 619.089 182.452 619.232 182.985 619.232ZM194.451 624.78C193.62 624.78 192.906 624.667 192.309 624.441C191.713 624.22 191.233 623.921 190.871 623.546C190.509 623.171 190.257 622.756 190.117 622.3L192.201 621.795C192.294 621.987 192.431 622.176 192.61 622.364C192.789 622.555 193.029 622.713 193.332 622.837C193.639 622.965 194.024 623.028 194.489 623.028C195.145 623.028 195.688 622.869 196.119 622.549C196.549 622.234 196.764 621.714 196.764 620.989V619.129H196.649C196.53 619.368 196.355 619.613 196.125 619.864C195.899 620.116 195.599 620.327 195.224 620.497C194.853 620.668 194.387 620.753 193.824 620.753C193.07 620.753 192.386 620.576 191.772 620.222C191.163 619.864 190.677 619.332 190.315 618.624C189.957 617.913 189.778 617.022 189.778 615.952C189.778 614.874 189.957 613.965 190.315 613.223C190.677 612.477 191.165 611.913 191.779 611.529C192.392 611.141 193.076 610.947 193.83 610.947C194.406 610.947 194.879 611.045 195.25 611.242C195.625 611.433 195.923 611.666 196.144 611.938C196.366 612.207 196.534 612.46 196.649 612.699H196.777V611.075H199.059V621.053C199.059 621.893 198.859 622.587 198.458 623.137C198.058 623.687 197.51 624.098 196.816 624.371C196.121 624.644 195.333 624.78 194.451 624.78ZM194.47 618.938C194.96 618.938 195.377 618.818 195.723 618.58C196.068 618.341 196.33 617.998 196.509 617.55C196.688 617.103 196.777 616.566 196.777 615.94C196.777 615.322 196.688 614.781 196.509 614.316C196.334 613.852 196.074 613.492 195.729 613.236C195.388 612.976 194.968 612.846 194.47 612.846C193.954 612.846 193.524 612.98 193.179 613.249C192.833 613.517 192.573 613.886 192.399 614.354C192.224 614.819 192.137 615.347 192.137 615.94C192.137 616.541 192.224 617.067 192.399 617.519C192.578 617.966 192.84 618.315 193.185 618.567C193.534 618.814 193.963 618.938 194.47 618.938ZM209.449 607.803V620.894H207.078V607.803H209.449ZM214.769 615.141V620.894H212.455V611.075H214.667V612.744H214.782C215.007 612.194 215.368 611.757 215.862 611.433C216.36 611.109 216.976 610.947 217.709 610.947C218.387 610.947 218.977 611.092 219.48 611.382C219.987 611.672 220.379 612.092 220.656 612.641C220.937 613.191 221.076 613.858 221.071 614.642V620.894H218.757V615C218.757 614.344 218.587 613.83 218.246 613.46C217.909 613.089 217.443 612.903 216.846 612.903C216.441 612.903 216.081 612.993 215.766 613.172C215.455 613.347 215.21 613.6 215.031 613.933C214.856 614.265 214.769 614.668 214.769 615.141Z" fill="white"/>
</g>
<defs>
<filter id="filter0_b_2_4841" x="-45" y="780" width="474" height="94" filterUnits="userSpaceOnUse" color-interpolation-filters="sRGB">
<feFlood flood-opacity="0" result="BackgroundImageFix"/>
<feGaussianBlur in="BackgroundImageFix" stdDeviation="15"/>
<feComposite in2="SourceAlpha" operator="in" result="effect1_backgroundBlur_2_4841"/>
<feBlend mode="normal" in="SourceGraphic" in2="effect1_backgroundBlur_2_4841" result="shape"/>
</filter>
<filter id="filter1_b_2_4841" x="-30" y="-29" width="450" height="104" filterUnits="userSpaceOnUse" color-interpolation-filters="sRGB">
<feFlood flood-opacity="0" result="BackgroundImageFix"/>
<feGaussianBlur in="BackgroundImageFix" stdDeviation="15"/>
<feComposite in2="SourceAlpha" operator="in" result="effect1_backgroundBlur_2_4841"/>
<feBlend mode="normal" in="SourceGraphic" in2="effect1_backgroundBlur_2_4841" result="shape"/>
</filter>
<filter id="filter2_b_2_4841" x="-56" y="-55" width="208" height="156" filterUnits="userSpaceOnUse" color-interpolation-filters="sRGB">
<feFlood flood-opacity="0" result="BackgroundImageFix"/>
<feGaussianBlur in="BackgroundImageFix" stdDeviation="28"/>
<feComposite in2="SourceAlpha" operator="in" result="effect1_backgroundBlur_2_4841"/>
<feBlend mode="normal" in="SourceGraphic" in2="effect1_backgroundBlur_2_4841" result="shape"/>
</filter>
<filter id="filter3_b_2_4841" x="238" y="-55" width="208" height="156" filterUnits="userSpaceOnUse" color-interpolation-filters="sRGB">
<feFlood flood-opacity="0" result="BackgroundImageFix"/>
<feGaussianBlur in="BackgroundImageFix" stdDeviation="28"/>
<feComposite in2="SourceAlpha" operator="in" result="effect1_backgroundBlur_2_4841"/>
<feBlend mode="normal" in="SourceGraphic" in2="effect1_backgroundBlur_2_4841" result="shape"/>
</filter>
<clipPath id="clip0_2_4841">
<rect width="390" height="844" rx="30" fill="white"/>
</clipPath>
<clipPath id="clip1_2_4841">
<rect width="72" height="16" fill="white" transform="translate(302 17)"/>
</clipPath>
<clipPath id="clip2_2_4841">
<rect width="16" height="8.5" fill="white" transform="translate(348 21.5)"/>
</clipPath>
</defs>
</svg>
