<svg width="390" height="844" viewBox="0 0 390 844" fill="none" xmlns="http://www.w3.org/2000/svg">
<g clip-path="url(#clip0_12_158)">
<rect width="390" height="844" fill="white"/>
<path d="M59.3641 118.848V120.032H54.5161V123.792H58.4521V124.976H54.5161V130H53.0601V118.848H59.3641ZM64.9466 130.144C64.1253 130.144 63.3786 129.957 62.7066 129.584C62.0453 129.211 61.5226 128.683 61.1386 128C60.7653 127.307 60.5786 126.507 60.5786 125.6C60.5786 124.704 60.7706 123.915 61.1546 123.232C61.5493 122.539 62.0826 122.011 62.7546 121.648C63.4266 121.275 64.1786 121.088 65.0106 121.088C65.8426 121.088 66.5946 121.275 67.2666 121.648C67.9386 122.011 68.4666 122.533 68.8506 123.216C69.2453 123.899 69.4426 124.693 69.4426 125.6C69.4426 126.507 69.24 127.307 68.8346 128C68.44 128.683 67.9013 129.211 67.2186 129.584C66.536 129.957 65.7786 130.144 64.9466 130.144ZM64.9466 128.864C65.4693 128.864 65.96 128.741 66.4186 128.496C66.8773 128.251 67.2453 127.883 67.5226 127.392C67.8106 126.901 67.9546 126.304 67.9546 125.6C67.9546 124.896 67.816 124.299 67.5386 123.808C67.2613 123.317 66.8986 122.955 66.4506 122.72C66.0026 122.475 65.5173 122.352 64.9946 122.352C64.4613 122.352 63.9706 122.475 63.5226 122.72C63.0853 122.955 62.7333 123.317 62.4666 123.808C62.2 124.299 62.0666 124.896 62.0666 125.6C62.0666 126.315 62.1946 126.917 62.4506 127.408C62.7173 127.899 63.0693 128.267 63.5066 128.512C63.944 128.747 64.424 128.864 64.9466 128.864ZM72.813 122.656C73.069 122.155 73.4317 121.765 73.901 121.488C74.381 121.211 74.9623 121.072 75.645 121.072V122.576H75.261C73.629 122.576 72.813 123.461 72.813 125.232V130H71.357V121.232H72.813V122.656ZM89.3994 118.848L85.7674 125.792V130H84.3114V125.792L80.6634 118.848H82.2794L85.0314 124.496L87.7834 118.848H89.3994ZM94.7591 130.144C93.9378 130.144 93.1911 129.957 92.5191 129.584C91.8578 129.211 91.3351 128.683 90.9511 128C90.5778 127.307 90.3911 126.507 90.3911 125.6C90.3911 124.704 90.5831 123.915 90.9671 123.232C91.3618 122.539 91.8951 122.011 92.5671 121.648C93.2391 121.275 93.9911 121.088 94.8231 121.088C95.6551 121.088 96.4071 121.275 97.0791 121.648C97.7511 122.011 98.2791 122.533 98.6631 123.216C99.0578 123.899 99.2551 124.693 99.2551 125.6C99.2551 126.507 99.0525 127.307 98.6471 128C98.2525 128.683 97.7138 129.211 97.0311 129.584C96.3485 129.957 95.5911 130.144 94.7591 130.144ZM94.7591 128.864C95.2818 128.864 95.7725 128.741 96.2311 128.496C96.6898 128.251 97.0578 127.883 97.3351 127.392C97.6231 126.901 97.7671 126.304 97.7671 125.6C97.7671 124.896 97.6285 124.299 97.3511 123.808C97.0738 123.317 96.7111 122.955 96.2631 122.72C95.8151 122.475 95.3298 122.352 94.8071 122.352C94.2738 122.352 93.7831 122.475 93.3351 122.72C92.8978 122.955 92.5458 123.317 92.2791 123.808C92.0125 124.299 91.8791 124.896 91.8791 125.6C91.8791 126.315 92.0071 126.917 92.2631 127.408C92.5298 127.899 92.8818 128.267 93.3191 128.512C93.7565 128.747 94.2365 128.864 94.7591 128.864ZM108.946 121.232V130H107.49V128.704C107.212 129.152 106.823 129.504 106.322 129.76C105.831 130.005 105.287 130.128 104.69 130.128C104.007 130.128 103.394 129.989 102.85 129.712C102.306 129.424 101.874 128.997 101.554 128.432C101.244 127.867 101.09 127.179 101.09 126.368V121.232H102.53V126.176C102.53 127.04 102.748 127.707 103.186 128.176C103.623 128.635 104.22 128.864 104.978 128.864C105.756 128.864 106.37 128.624 106.818 128.144C107.266 127.664 107.49 126.965 107.49 126.048V121.232H108.946Z" fill="#636363"/>
<path d="M167.586 118.832V120.64H162.93V123.504H166.498V125.28H162.93V130H160.69V118.832H167.586ZM168.598 125.536C168.598 124.64 168.774 123.845 169.126 123.152C169.489 122.459 169.974 121.925 170.582 121.552C171.201 121.179 171.889 120.992 172.646 120.992C173.308 120.992 173.884 121.125 174.374 121.392C174.876 121.659 175.276 121.995 175.574 122.4V121.136H177.83V130H175.574V128.704C175.286 129.12 174.886 129.467 174.374 129.744C173.873 130.011 173.292 130.144 172.63 130.144C171.884 130.144 171.201 129.952 170.582 129.568C169.974 129.184 169.489 128.645 169.126 127.952C168.774 127.248 168.598 126.443 168.598 125.536ZM175.574 125.568C175.574 125.024 175.468 124.56 175.254 124.176C175.041 123.781 174.753 123.483 174.39 123.28C174.028 123.067 173.638 122.96 173.222 122.96C172.806 122.96 172.422 123.061 172.07 123.264C171.718 123.467 171.43 123.765 171.206 124.16C170.993 124.544 170.886 125.003 170.886 125.536C170.886 126.069 170.993 126.539 171.206 126.944C171.43 127.339 171.718 127.643 172.07 127.856C172.433 128.069 172.817 128.176 173.222 128.176C173.638 128.176 174.028 128.075 174.39 127.872C174.753 127.659 175.041 127.36 175.254 126.976C175.468 126.581 175.574 126.112 175.574 125.568ZM183.714 127.936L185.954 121.136H188.338L185.058 130H182.338L179.074 121.136H181.474L183.714 127.936ZM193.532 130.144C192.679 130.144 191.911 129.957 191.228 129.584C190.546 129.2 190.007 128.661 189.612 127.968C189.228 127.275 189.036 126.475 189.036 125.568C189.036 124.661 189.234 123.861 189.628 123.168C190.034 122.475 190.583 121.941 191.276 121.568C191.97 121.184 192.743 120.992 193.596 120.992C194.45 120.992 195.223 121.184 195.916 121.568C196.61 121.941 197.154 122.475 197.548 123.168C197.954 123.861 198.156 124.661 198.156 125.568C198.156 126.475 197.948 127.275 197.532 127.968C197.127 128.661 196.572 129.2 195.868 129.584C195.175 129.957 194.396 130.144 193.532 130.144ZM193.532 128.192C193.938 128.192 194.316 128.096 194.668 127.904C195.031 127.701 195.319 127.403 195.532 127.008C195.746 126.613 195.852 126.133 195.852 125.568C195.852 124.725 195.628 124.08 195.18 123.632C194.743 123.173 194.204 122.944 193.564 122.944C192.924 122.944 192.386 123.173 191.948 123.632C191.522 124.08 191.308 124.725 191.308 125.568C191.308 126.411 191.516 127.061 191.932 127.52C192.359 127.968 192.892 128.192 193.532 128.192ZM202.039 122.512C202.327 122.043 202.701 121.675 203.159 121.408C203.629 121.141 204.162 121.008 204.759 121.008V123.36H204.167C203.463 123.36 202.93 123.525 202.567 123.856C202.215 124.187 202.039 124.763 202.039 125.584V130H199.799V121.136H202.039V122.512ZM207.404 120.08C207.009 120.08 206.679 119.957 206.412 119.712C206.156 119.456 206.028 119.141 206.028 118.768C206.028 118.395 206.156 118.085 206.412 117.84C206.679 117.584 207.009 117.456 207.404 117.456C207.799 117.456 208.124 117.584 208.38 117.84C208.647 118.085 208.78 118.395 208.78 118.768C208.78 119.141 208.647 119.456 208.38 119.712C208.124 119.957 207.799 120.08 207.404 120.08ZM208.508 121.136V130H206.268V121.136H208.508ZM213.329 122.976V127.264C213.329 127.563 213.399 127.781 213.537 127.92C213.687 128.048 213.932 128.112 214.273 128.112H215.313V130H213.905C212.017 130 211.073 129.083 211.073 127.248V122.976H210.017V121.136H211.073V118.944H213.329V121.136H215.313V122.976H213.329ZM225.164 125.376C225.164 125.696 225.143 125.984 225.1 126.24H218.62C218.674 126.88 218.898 127.381 219.292 127.744C219.687 128.107 220.172 128.288 220.748 128.288C221.58 128.288 222.172 127.931 222.524 127.216H224.94C224.684 128.069 224.194 128.773 223.468 129.328C222.743 129.872 221.852 130.144 220.796 130.144C219.943 130.144 219.175 129.957 218.492 129.584C217.82 129.2 217.292 128.661 216.908 127.968C216.535 127.275 216.348 126.475 216.348 125.568C216.348 124.651 216.535 123.845 216.908 123.152C217.282 122.459 217.804 121.925 218.476 121.552C219.148 121.179 219.922 120.992 220.796 120.992C221.639 120.992 222.391 121.173 223.052 121.536C223.724 121.899 224.242 122.416 224.604 123.088C224.978 123.749 225.164 124.512 225.164 125.376ZM222.844 124.736C222.834 124.16 222.626 123.701 222.22 123.36C221.815 123.008 221.319 122.832 220.732 122.832C220.178 122.832 219.708 123.003 219.324 123.344C218.951 123.675 218.722 124.139 218.636 124.736H222.844ZM230.191 130.144C229.466 130.144 228.815 130.016 228.239 129.76C227.663 129.493 227.205 129.136 226.863 128.688C226.533 128.24 226.351 127.744 226.319 127.2H228.575C228.618 127.541 228.783 127.824 229.071 128.048C229.37 128.272 229.738 128.384 230.175 128.384C230.602 128.384 230.933 128.299 231.167 128.128C231.413 127.957 231.535 127.739 231.535 127.472C231.535 127.184 231.386 126.971 231.087 126.832C230.799 126.683 230.335 126.523 229.695 126.352C229.034 126.192 228.49 126.027 228.063 125.856C227.647 125.685 227.285 125.424 226.975 125.072C226.677 124.72 226.527 124.245 226.527 123.648C226.527 123.157 226.666 122.709 226.943 122.304C227.231 121.899 227.637 121.579 228.159 121.344C228.693 121.109 229.317 120.992 230.031 120.992C231.087 120.992 231.93 121.259 232.559 121.792C233.189 122.315 233.535 123.024 233.599 123.92H231.455C231.423 123.568 231.274 123.291 231.007 123.088C230.751 122.875 230.405 122.768 229.967 122.768C229.562 122.768 229.247 122.843 229.023 122.992C228.81 123.141 228.703 123.349 228.703 123.616C228.703 123.915 228.853 124.144 229.151 124.304C229.45 124.453 229.914 124.608 230.543 124.768C231.183 124.928 231.711 125.093 232.127 125.264C232.543 125.435 232.901 125.701 233.199 126.064C233.509 126.416 233.669 126.885 233.679 127.472C233.679 127.984 233.535 128.443 233.247 128.848C232.97 129.253 232.565 129.573 232.031 129.808C231.509 130.032 230.895 130.144 230.191 130.144Z" fill="black"/>
<path d="M294.143 118.848L289.935 130H288.255L284.047 118.848H285.599L289.103 128.464L292.607 118.848H294.143ZM296.492 119.808C296.214 119.808 295.98 119.712 295.788 119.52C295.596 119.328 295.5 119.093 295.5 118.816C295.5 118.539 295.596 118.304 295.788 118.112C295.98 117.92 296.214 117.824 296.492 117.824C296.758 117.824 296.982 117.92 297.164 118.112C297.356 118.304 297.452 118.539 297.452 118.816C297.452 119.093 297.356 119.328 297.164 119.52C296.982 119.712 296.758 119.808 296.492 119.808ZM297.196 121.232V130H295.74V121.232H297.196ZM302.781 130.144C302.109 130.144 301.507 130.032 300.973 129.808C300.44 129.573 300.019 129.253 299.709 128.848C299.4 128.432 299.229 127.957 299.197 127.424H300.701C300.744 127.861 300.947 128.219 301.309 128.496C301.683 128.773 302.168 128.912 302.765 128.912C303.32 128.912 303.757 128.789 304.077 128.544C304.397 128.299 304.557 127.989 304.557 127.616C304.557 127.232 304.387 126.949 304.045 126.768C303.704 126.576 303.176 126.389 302.461 126.208C301.811 126.037 301.277 125.867 300.861 125.696C300.456 125.515 300.104 125.253 299.805 124.912C299.517 124.56 299.373 124.101 299.373 123.536C299.373 123.088 299.507 122.677 299.773 122.304C300.04 121.931 300.419 121.637 300.909 121.424C301.4 121.2 301.96 121.088 302.589 121.088C303.56 121.088 304.344 121.333 304.941 121.824C305.539 122.315 305.859 122.987 305.901 123.84H304.445C304.413 123.381 304.227 123.013 303.885 122.736C303.555 122.459 303.107 122.32 302.541 122.32C302.019 122.32 301.603 122.432 301.293 122.656C300.984 122.88 300.829 123.173 300.829 123.536C300.829 123.824 300.92 124.064 301.101 124.256C301.293 124.437 301.528 124.587 301.805 124.704C302.093 124.811 302.488 124.933 302.989 125.072C303.619 125.243 304.131 125.413 304.525 125.584C304.92 125.744 305.256 125.989 305.533 126.32C305.821 126.651 305.971 127.083 305.981 127.616C305.981 128.096 305.848 128.528 305.581 128.912C305.315 129.296 304.936 129.6 304.445 129.824C303.965 130.037 303.411 130.144 302.781 130.144ZM308.789 119.808C308.511 119.808 308.277 119.712 308.085 119.52C307.893 119.328 307.797 119.093 307.797 118.816C307.797 118.539 307.893 118.304 308.085 118.112C308.277 117.92 308.511 117.824 308.789 117.824C309.055 117.824 309.279 117.92 309.461 118.112C309.653 118.304 309.749 118.539 309.749 118.816C309.749 119.093 309.653 119.328 309.461 119.52C309.279 119.712 309.055 119.808 308.789 119.808ZM309.493 121.232V130H308.037V121.232H309.493ZM313.75 122.432V127.6C313.75 128.027 313.841 128.331 314.022 128.512C314.204 128.683 314.518 128.768 314.966 128.768H316.038V130H314.726C313.916 130 313.308 129.813 312.902 129.44C312.497 129.067 312.294 128.453 312.294 127.6V122.432H311.158V121.232H312.294V119.024H313.75V121.232H316.038V122.432H313.75ZM325.802 125.28C325.802 125.557 325.786 125.851 325.754 126.16H318.746C318.8 127.024 319.093 127.701 319.626 128.192C320.17 128.672 320.826 128.912 321.594 128.912C322.224 128.912 322.746 128.768 323.162 128.48C323.589 128.181 323.888 127.787 324.058 127.296H325.626C325.392 128.139 324.922 128.827 324.218 129.36C323.514 129.883 322.64 130.144 321.594 130.144C320.762 130.144 320.016 129.957 319.354 129.584C318.704 129.211 318.192 128.683 317.818 128C317.445 127.307 317.258 126.507 317.258 125.6C317.258 124.693 317.44 123.899 317.802 123.216C318.165 122.533 318.672 122.011 319.322 121.648C319.984 121.275 320.741 121.088 321.594 121.088C322.426 121.088 323.162 121.269 323.802 121.632C324.442 121.995 324.933 122.496 325.274 123.136C325.626 123.765 325.802 124.48 325.802 125.28ZM324.298 124.976C324.298 124.421 324.176 123.947 323.93 123.552C323.685 123.147 323.349 122.843 322.922 122.64C322.506 122.427 322.042 122.32 321.53 122.32C320.794 122.32 320.165 122.555 319.642 123.024C319.13 123.493 318.837 124.144 318.762 124.976H324.298ZM327.18 125.584C327.18 124.688 327.362 123.904 327.724 123.232C328.087 122.549 328.583 122.021 329.212 121.648C329.852 121.275 330.567 121.088 331.356 121.088C332.039 121.088 332.674 121.248 333.26 121.568C333.847 121.877 334.295 122.288 334.604 122.8V118.16H336.076V130H334.604V128.352C334.316 128.875 333.89 129.307 333.324 129.648C332.759 129.979 332.098 130.144 331.34 130.144C330.562 130.144 329.852 129.952 329.212 129.568C328.583 129.184 328.087 128.645 327.724 127.952C327.362 127.259 327.18 126.469 327.18 125.584ZM334.604 125.6C334.604 124.939 334.471 124.363 334.204 123.872C333.938 123.381 333.575 123.008 333.116 122.752C332.668 122.485 332.172 122.352 331.628 122.352C331.084 122.352 330.588 122.48 330.14 122.736C329.692 122.992 329.335 123.365 329.068 123.856C328.802 124.347 328.668 124.923 328.668 125.584C328.668 126.256 328.802 126.843 329.068 127.344C329.335 127.835 329.692 128.213 330.14 128.48C330.588 128.736 331.084 128.864 331.628 128.864C332.172 128.864 332.668 128.736 333.116 128.48C333.575 128.213 333.938 127.835 334.204 127.344C334.471 126.843 334.604 126.261 334.604 125.6Z" fill="#636363"/>
<rect x="28.4429" y="200.443" width="154.114" height="97.2963" fill="#F1F1F1" stroke="black" stroke-width="0.885714"/>
<line y1="-0.442857" x2="181.352" y2="-0.442857" transform="matrix(0.84978 0.527138 -0.532531 0.84641 28 200.816)" stroke="black" stroke-width="0.885714"/>
<line y1="-0.442857" x2="182.046" y2="-0.442857" transform="matrix(-0.848243 0.529607 -0.535006 -0.844848 182.419 200)" stroke="black" stroke-width="0.885714"/>
<rect x="28.4429" y="297.064" width="154.114" height="57.4928" fill="white" stroke="black" stroke-width="0.885714"/>
<rect width="126.51" height="5.9156" transform="matrix(1 0 0 -1 34.9108 315.354)" fill="#C4C4C4"/>
<rect width="66.425" height="5.9156" transform="matrix(1 0 0 -1 34.9108 328.171)" fill="#C4C4C4"/>
<rect x="208.443" y="200.443" width="154.114" height="97.2963" fill="#F1F1F1" stroke="black" stroke-width="0.885714"/>
<line y1="-0.442857" x2="181.352" y2="-0.442857" transform="matrix(0.84978 0.527138 -0.532531 0.84641 208 200.816)" stroke="black" stroke-width="0.885714"/>
<line y1="-0.442857" x2="182.046" y2="-0.442857" transform="matrix(-0.848243 0.529607 -0.535006 -0.844848 362.419 200)" stroke="black" stroke-width="0.885714"/>
<rect x="208.443" y="297.064" width="154.114" height="57.4928" fill="white" stroke="black" stroke-width="0.885714"/>
<rect width="126.51" height="5.9156" transform="matrix(1 0 0 -1 214.911 315.354)" fill="#C4C4C4"/>
<rect width="66.425" height="5.9156" transform="matrix(1 0 0 -1 214.911 328.171)" fill="#C4C4C4"/>
<rect x="28.4429" y="379.443" width="154.114" height="97.2963" fill="#F1F1F1" stroke="black" stroke-width="0.885714"/>
<line y1="-0.442857" x2="181.352" y2="-0.442857" transform="matrix(0.84978 0.527138 -0.532531 0.84641 28 379.816)" stroke="black" stroke-width="0.885714"/>
<line y1="-0.442857" x2="182.046" y2="-0.442857" transform="matrix(-0.848243 0.529607 -0.535006 -0.844848 182.419 379)" stroke="black" stroke-width="0.885714"/>
<rect x="28.4429" y="476.064" width="154.114" height="57.4928" fill="white" stroke="black" stroke-width="0.885714"/>
<rect width="126.51" height="5.9156" transform="matrix(1 0 0 -1 34.9108 494.354)" fill="#C4C4C4"/>
<rect width="66.425" height="5.9156" transform="matrix(1 0 0 -1 34.9108 507.171)" fill="#C4C4C4"/>
<rect x="208.443" y="379.443" width="154.114" height="97.2963" fill="#F1F1F1" stroke="black" stroke-width="0.885714"/>
<line y1="-0.442857" x2="181.352" y2="-0.442857" transform="matrix(0.84978 0.527138 -0.532531 0.84641 208 379.816)" stroke="black" stroke-width="0.885714"/>
<line y1="-0.442857" x2="182.046" y2="-0.442857" transform="matrix(-0.848243 0.529607 -0.535006 -0.844848 362.419 379)" stroke="black" stroke-width="0.885714"/>
<rect x="208.443" y="476.064" width="154.114" height="57.4928" fill="white" stroke="black" stroke-width="0.885714"/>
<rect width="126.51" height="5.9156" transform="matrix(1 0 0 -1 214.911 494.354)" fill="#C4C4C4"/>
<rect width="66.425" height="5.9156" transform="matrix(1 0 0 -1 214.911 507.171)" fill="#C4C4C4"/>
<rect x="28.4429" y="558.443" width="154.114" height="97.2963" fill="#F1F1F1" stroke="black" stroke-width="0.885714"/>
<line y1="-0.442857" x2="181.352" y2="-0.442857" transform="matrix(0.84978 0.527138 -0.532531 0.84641 28 558.816)" stroke="black" stroke-width="0.885714"/>
<line y1="-0.442857" x2="182.046" y2="-0.442857" transform="matrix(-0.848243 0.529607 -0.535006 -0.844848 182.419 558)" stroke="black" stroke-width="0.885714"/>
<rect x="28.4429" y="655.064" width="154.114" height="57.4928" fill="white" stroke="black" stroke-width="0.885714"/>
<rect width="126.51" height="5.9156" transform="matrix(1 0 0 -1 34.9108 673.354)" fill="#C4C4C4"/>
<rect width="66.425" height="5.9156" transform="matrix(1 0 0 -1 34.9108 686.171)" fill="#C4C4C4"/>
<rect x="208.443" y="558.443" width="154.114" height="97.2963" fill="#F1F1F1" stroke="black" stroke-width="0.885714"/>
<line y1="-0.442857" x2="181.352" y2="-0.442857" transform="matrix(0.84978 0.527138 -0.532531 0.84641 208 558.816)" stroke="black" stroke-width="0.885714"/>
<line y1="-0.442857" x2="182.046" y2="-0.442857" transform="matrix(-0.848243 0.529607 -0.535006 -0.844848 362.419 558)" stroke="black" stroke-width="0.885714"/>
<rect x="208.443" y="655.064" width="154.114" height="57.4928" fill="white" stroke="black" stroke-width="0.885714"/>
<rect width="126.51" height="5.9156" transform="matrix(1 0 0 -1 214.911 673.354)" fill="#C4C4C4"/>
<rect width="66.425" height="5.9156" transform="matrix(1 0 0 -1 214.911 686.171)" fill="#C4C4C4"/>
<rect x="28.4429" y="737.443" width="154.114" height="97.2963" fill="#F1F1F1" stroke="black" stroke-width="0.885714"/>
<line y1="-0.442857" x2="181.352" y2="-0.442857" transform="matrix(0.84978 0.527138 -0.532531 0.84641 28 737.816)" stroke="black" stroke-width="0.885714"/>
<line y1="-0.442857" x2="182.046" y2="-0.442857" transform="matrix(-0.848243 0.529607 -0.535006 -0.844848 182.419 737)" stroke="black" stroke-width="0.885714"/>
<rect x="28.4429" y="834.064" width="154.114" height="57.4928" fill="white" stroke="black" stroke-width="0.885714"/>
<rect x="208.443" y="737.443" width="154.114" height="97.2963" fill="#F1F1F1" stroke="black" stroke-width="0.885714"/>
<line y1="-0.442857" x2="181.352" y2="-0.442857" transform="matrix(0.84978 0.527138 -0.532531 0.84641 208 737.816)" stroke="black" stroke-width="0.885714"/>
<line y1="-0.442857" x2="182.046" y2="-0.442857" transform="matrix(-0.848243 0.529607 -0.535006 -0.844848 362.419 737)" stroke="black" stroke-width="0.885714"/>
<rect x="208.443" y="834.064" width="154.114" height="57.4928" fill="white" stroke="black" stroke-width="0.885714"/>
<circle cx="344" cy="60" r="15" fill="#C4C4C4"/>
<circle cx="344" cy="60" r="19" stroke="#D9D9D9" stroke-width="2"/>
<path d="M31 70H51" stroke="black" stroke-width="3" stroke-linecap="round" stroke-linejoin="round"/>
<path d="M31 60H61" stroke="black" stroke-width="3" stroke-linecap="round" stroke-linejoin="round"/>
<path d="M31 50H61" stroke="black" stroke-width="3" stroke-linecap="round" stroke-linejoin="round"/>
<rect x="155.27" y="43.2703" width="79.4595" height="32.973" fill="white" stroke="black" stroke-width="0.540541"/>
<path d="M178.074 64.3558H182.195V65.6054H176.538V53.8355H178.074V64.3558ZM187.863 65.7574C186.996 65.7574 186.208 65.5604 185.498 65.1664C184.8 64.7723 184.249 64.2151 183.844 63.4946C183.45 62.7628 183.253 61.9185 183.253 60.9616C183.253 60.016 183.455 59.1829 183.86 58.4624C184.277 57.7307 184.84 57.1734 185.549 56.7907C186.258 56.3966 187.052 56.1996 187.93 56.1996C188.808 56.1996 189.602 56.3966 190.311 56.7907C191.02 57.1734 191.578 57.725 191.983 58.4455C192.399 59.166 192.608 60.0047 192.608 60.9616C192.608 61.9185 192.394 62.7628 191.966 63.4946C191.549 64.2151 190.981 64.7723 190.26 65.1664C189.54 65.5604 188.741 65.7574 187.863 65.7574ZM187.863 64.4065C188.414 64.4065 188.932 64.277 189.416 64.0181C189.9 63.7592 190.289 63.3708 190.581 62.8529C190.885 62.3351 191.037 61.7046 191.037 60.9616C191.037 60.2186 190.891 59.5882 190.598 59.0703C190.305 58.5525 189.923 58.1697 189.45 57.9221C188.977 57.6631 188.465 57.5337 187.913 57.5337C187.35 57.5337 186.832 57.6631 186.36 57.9221C185.898 58.1697 185.527 58.5525 185.245 59.0703C184.964 59.5882 184.823 60.2186 184.823 60.9616C184.823 61.7159 184.958 62.3519 185.228 62.8698C185.51 63.3876 185.881 63.776 186.343 64.035C186.804 64.2826 187.311 64.4065 187.863 64.4065ZM198.444 56.1996C199.244 56.1996 199.942 56.3741 200.538 56.7231C201.146 57.0721 201.597 57.5112 201.889 58.0403V56.3516H203.443V65.808C203.443 66.6524 203.263 67.401 202.902 68.0539C202.542 68.7182 202.024 69.236 201.349 69.6075C200.685 69.979 199.908 70.1648 199.019 70.1648C197.803 70.1648 196.79 69.8777 195.979 69.3035C195.168 68.7294 194.69 67.947 194.544 66.9563H196.063C196.232 67.5192 196.581 67.9695 197.11 68.3072C197.64 68.6562 198.276 68.8307 199.019 68.8307C199.863 68.8307 200.55 68.5662 201.079 68.0371C201.619 67.508 201.889 66.7649 201.889 65.808V63.8661C201.585 64.4065 201.135 64.8568 200.538 65.217C199.942 65.5773 199.244 65.7574 198.444 65.7574C197.623 65.7574 196.874 65.5547 196.199 65.1495C195.534 64.7442 195.011 64.1757 194.628 63.4439C194.245 62.7122 194.054 61.8791 194.054 60.9447C194.054 59.9991 194.245 59.1717 194.628 58.4624C195.011 57.7419 195.534 57.1847 196.199 56.7907C196.874 56.3966 197.623 56.1996 198.444 56.1996ZM201.889 60.9616C201.889 60.2636 201.749 59.6557 201.467 59.1379C201.186 58.62 200.803 58.226 200.319 57.9558C199.846 57.6744 199.323 57.5337 198.748 57.5337C198.174 57.5337 197.651 57.6688 197.178 57.9389C196.705 58.2091 196.328 58.6031 196.047 59.121C195.765 59.6388 195.624 60.2468 195.624 60.9447C195.624 61.654 195.765 62.2731 196.047 62.8023C196.328 63.3201 196.705 63.7198 197.178 64.0012C197.651 64.2714 198.174 64.4065 198.748 64.4065C199.323 64.4065 199.846 64.2714 200.319 64.0012C200.803 63.7198 201.186 63.3201 201.467 62.8023C201.749 62.2731 201.889 61.6596 201.889 60.9616ZM210.076 65.7574C209.209 65.7574 208.421 65.5604 207.711 65.1664C207.013 64.7723 206.462 64.2151 206.057 63.4946C205.663 62.7628 205.466 61.9185 205.466 60.9616C205.466 60.016 205.668 59.1829 206.073 58.4624C206.49 57.7307 207.053 57.1734 207.762 56.7907C208.471 56.3966 209.265 56.1996 210.143 56.1996C211.021 56.1996 211.815 56.3966 212.524 56.7907C213.233 57.1734 213.791 57.725 214.196 58.4455C214.612 59.166 214.821 60.0047 214.821 60.9616C214.821 61.9185 214.607 62.7628 214.179 63.4946C213.762 64.2151 213.194 64.7723 212.473 65.1664C211.753 65.5604 210.954 65.7574 210.076 65.7574ZM210.076 64.4065C210.627 64.4065 211.145 64.277 211.629 64.0181C212.113 63.7592 212.502 63.3708 212.794 62.8529C213.098 62.3351 213.25 61.7046 213.25 60.9616C213.25 60.2186 213.104 59.5882 212.811 59.0703C212.518 58.5525 212.136 58.1697 211.663 57.9221C211.19 57.6631 210.678 57.5337 210.126 57.5337C209.563 57.5337 209.045 57.6631 208.573 57.9221C208.111 58.1697 207.74 58.5525 207.458 59.0703C207.177 59.5882 207.036 60.2186 207.036 60.9616C207.036 61.7159 207.171 62.3519 207.441 62.8698C207.723 63.3876 208.094 63.776 208.556 64.035C209.017 64.2826 209.524 64.4065 210.076 64.4065Z" fill="black"/>
<rect y="781" width="390" height="63" fill="#C4C4C4"/>
<path d="M64.594 165.742V166.778H60.352V170.068H63.796V171.104H60.352V175.5H59.078V165.742H64.594ZM66.7907 166.582C66.548 166.582 66.3427 166.498 66.1747 166.33C66.0067 166.162 65.9227 165.957 65.9227 165.714C65.9227 165.471 66.0067 165.266 66.1747 165.098C66.3427 164.93 66.548 164.846 66.7907 164.846C67.024 164.846 67.22 164.93 67.3787 165.098C67.5467 165.266 67.6307 165.471 67.6307 165.714C67.6307 165.957 67.5467 166.162 67.3787 166.33C67.22 166.498 67.024 166.582 66.7907 166.582ZM67.4067 167.828V175.5H66.1327V167.828H67.4067ZM70.852 165.14V175.5H69.578V165.14H70.852ZM74.5773 168.878V173.4C74.5773 173.773 74.6566 174.039 74.8153 174.198C74.974 174.347 75.2493 174.422 75.6413 174.422H76.5793V175.5H75.4313C74.722 175.5 74.19 175.337 73.8353 175.01C73.4806 174.683 73.3033 174.147 73.3033 173.4V168.878H72.3093V167.828H73.3033V165.896H74.5773V167.828H76.5793V168.878H74.5773ZM85.1229 171.37C85.1229 171.613 85.1089 171.869 85.0809 172.14H78.9489C78.9956 172.896 79.2523 173.489 79.7189 173.918C80.1949 174.338 80.7689 174.548 81.4409 174.548C81.9916 174.548 82.4489 174.422 82.8129 174.17C83.1863 173.909 83.4476 173.563 83.5969 173.134H84.9689C84.7636 173.871 84.3529 174.473 83.7369 174.94C83.1209 175.397 82.3556 175.626 81.4409 175.626C80.7129 175.626 80.0596 175.463 79.4809 175.136C78.9116 174.809 78.4636 174.347 78.1369 173.75C77.8103 173.143 77.6469 172.443 77.6469 171.65C77.6469 170.857 77.8056 170.161 78.1229 169.564C78.4403 168.967 78.8836 168.509 79.4529 168.192C80.0316 167.865 80.6943 167.702 81.4409 167.702C82.1689 167.702 82.8129 167.861 83.3729 168.178C83.9329 168.495 84.3623 168.934 84.6609 169.494C84.9689 170.045 85.1229 170.67 85.1229 171.37ZM83.8069 171.104C83.8069 170.619 83.6996 170.203 83.4849 169.858C83.2703 169.503 82.9763 169.237 82.6029 169.06C82.2389 168.873 81.8329 168.78 81.3849 168.78C80.7409 168.78 80.1903 168.985 79.7329 169.396C79.2849 169.807 79.0283 170.376 78.9629 171.104H83.8069ZM88.0786 169.074C88.3026 168.635 88.6199 168.295 89.0306 168.052C89.4506 167.809 89.9592 167.688 90.5566 167.688V169.004H90.2206C88.7926 169.004 88.0786 169.779 88.0786 171.328V175.5H86.8046V167.828H88.0786V169.074Z" fill="#636363"/>
<path d="M37.375 162.708C37.0987 162.708 36.8338 162.818 36.6384 163.013C36.4431 163.209 36.3333 163.474 36.3333 163.75C36.3333 164.026 36.4431 164.291 36.6384 164.487C36.8338 164.682 37.0987 164.792 37.375 164.792C37.6513 164.792 37.9162 164.682 38.1116 164.487C38.3069 164.291 38.4167 164.026 38.4167 163.75C38.4167 163.474 38.3069 163.209 38.1116 163.013C37.9162 162.818 37.6513 162.708 37.375 162.708ZM34.4271 162.708C34.6423 162.098 35.0414 161.57 35.5694 161.197C36.0973 160.823 36.7282 160.622 37.375 160.622C38.0218 160.622 38.6526 160.823 39.1806 161.197C39.7086 161.57 40.1077 162.098 40.3229 162.708H47.7917C48.0679 162.708 48.3329 162.818 48.5282 163.013C48.7236 163.209 48.8333 163.474 48.8333 163.75C48.8333 164.026 48.7236 164.291 48.5282 164.487C48.3329 164.682 48.0679 164.792 47.7917 164.792H40.3229C40.1077 165.402 39.7086 165.93 39.1806 166.303C38.6526 166.677 38.0218 166.878 37.375 166.878C36.7282 166.878 36.0973 166.677 35.5694 166.303C35.0414 165.93 34.6423 165.402 34.4271 164.792H33.2083C32.9321 164.792 32.6671 164.682 32.4718 164.487C32.2764 164.291 32.1667 164.026 32.1667 163.75C32.1667 163.474 32.2764 163.209 32.4718 163.013C32.6671 162.818 32.9321 162.708 33.2083 162.708H34.4271ZM43.625 168.958C43.3487 168.958 43.0838 169.068 42.8884 169.263C42.6931 169.459 42.5833 169.724 42.5833 170C42.5833 170.276 42.6931 170.541 42.8884 170.737C43.0838 170.932 43.3487 171.042 43.625 171.042C43.9013 171.042 44.1662 170.932 44.3616 170.737C44.5569 170.541 44.6667 170.276 44.6667 170C44.6667 169.724 44.5569 169.459 44.3616 169.263C44.1662 169.068 43.9013 168.958 43.625 168.958ZM40.6771 168.958C40.8923 168.348 41.2914 167.82 41.8194 167.447C42.3473 167.073 42.9782 166.872 43.625 166.872C44.2718 166.872 44.9026 167.073 45.4306 167.447C45.9586 167.82 46.3577 168.348 46.5729 168.958H47.7917C48.0679 168.958 48.3329 169.068 48.5282 169.263C48.7236 169.459 48.8333 169.724 48.8333 170C48.8333 170.276 48.7236 170.541 48.5282 170.737C48.3329 170.932 48.0679 171.042 47.7917 171.042H46.5729C46.3577 171.652 45.9586 172.18 45.4306 172.553C44.9026 172.927 44.2718 173.128 43.625 173.128C42.9782 173.128 42.3473 172.927 41.8194 172.553C41.2914 172.18 40.8923 171.652 40.6771 171.042H33.2083C32.9321 171.042 32.6671 170.932 32.4718 170.737C32.2764 170.541 32.1667 170.276 32.1667 170C32.1667 169.724 32.2764 169.459 32.4718 169.263C32.6671 169.068 32.9321 168.958 33.2083 168.958H40.6771ZM37.375 175.208C37.0987 175.208 36.8338 175.318 36.6384 175.513C36.4431 175.709 36.3333 175.974 36.3333 176.25C36.3333 176.526 36.4431 176.791 36.6384 176.987C36.8338 177.182 37.0987 177.292 37.375 177.292C37.6513 177.292 37.9162 177.182 38.1116 176.987C38.3069 176.791 38.4167 176.526 38.4167 176.25C38.4167 175.974 38.3069 175.709 38.1116 175.513C37.9162 175.318 37.6513 175.208 37.375 175.208ZM34.4271 175.208C34.6423 174.598 35.0414 174.07 35.5694 173.697C36.0973 173.323 36.7282 173.122 37.375 173.122C38.0218 173.122 38.6526 173.323 39.1806 173.697C39.7086 174.07 40.1077 174.598 40.3229 175.208H47.7917C48.0679 175.208 48.3329 175.318 48.5282 175.513C48.7236 175.709 48.8333 175.974 48.8333 176.25C48.8333 176.526 48.7236 176.791 48.5282 176.987C48.3329 177.182 48.0679 177.292 47.7917 177.292H40.3229C40.1077 177.902 39.7086 178.43 39.1806 178.803C38.6526 179.177 38.0218 179.378 37.375 179.378C36.7282 179.378 36.0973 179.177 35.5694 178.803C35.0414 178.43 34.6423 177.902 34.4271 177.292H33.2083C32.9321 177.292 32.6671 177.182 32.4718 176.987C32.2764 176.791 32.1667 176.526 32.1667 176.25C32.1667 175.974 32.2764 175.709 32.4718 175.513C32.6671 175.318 32.9321 175.208 33.2083 175.208H34.4271Z" fill="#636363"/>
<path d="M322.824 173.83H318.568L317.784 176H316.44L319.968 166.298H321.438L324.952 176H323.608L322.824 173.83ZM322.46 172.794L320.696 167.866L318.932 172.794H322.46ZM331.776 169.378V173.9C331.776 174.273 331.855 174.539 332.014 174.698C332.172 174.847 332.448 174.922 332.84 174.922H333.778V176H332.63C331.92 176 331.388 175.837 331.034 175.51C330.679 175.183 330.502 174.647 330.502 173.9V169.378H329.508V168.328H330.502V166.396H331.776V168.328H333.778V169.378H331.776ZM338.667 176.126C337.948 176.126 337.295 175.963 336.707 175.636C336.128 175.309 335.671 174.847 335.335 174.25C335.008 173.643 334.845 172.943 334.845 172.15C334.845 171.366 335.013 170.675 335.349 170.078C335.694 169.471 336.161 169.009 336.749 168.692C337.337 168.365 337.995 168.202 338.723 168.202C339.451 168.202 340.109 168.365 340.697 168.692C341.285 169.009 341.747 169.467 342.083 170.064C342.428 170.661 342.601 171.357 342.601 172.15C342.601 172.943 342.424 173.643 342.069 174.25C341.724 174.847 341.252 175.309 340.655 175.636C340.058 175.963 339.395 176.126 338.667 176.126ZM338.667 175.006C339.124 175.006 339.554 174.899 339.955 174.684C340.356 174.469 340.678 174.147 340.921 173.718C341.173 173.289 341.299 172.766 341.299 172.15C341.299 171.534 341.178 171.011 340.935 170.582C340.692 170.153 340.375 169.835 339.983 169.63C339.591 169.415 339.166 169.308 338.709 169.308C338.242 169.308 337.813 169.415 337.421 169.63C337.038 169.835 336.73 170.153 336.497 170.582C336.264 171.011 336.147 171.534 336.147 172.15C336.147 172.775 336.259 173.303 336.483 173.732C336.716 174.161 337.024 174.483 337.407 174.698C337.79 174.903 338.21 175.006 338.667 175.006ZM349.087 174.894H353.847V176H347.575V174.992L352.307 167.348H347.631V166.242H353.819V167.25L349.087 174.894Z" fill="#636363"/>
<path d="M308.09 164.844C308.195 164.99 308.338 165.072 308.487 165.072C308.636 165.072 308.779 164.99 308.884 164.844L309.423 164.094V174.708C309.423 174.916 309.482 175.114 309.588 175.261C309.693 175.407 309.836 175.49 309.985 175.49C310.134 175.49 310.277 175.407 310.382 175.261C310.488 175.114 310.547 174.916 310.547 174.708V164.094L311.086 164.844C311.138 164.921 311.2 164.982 311.269 165.025C311.337 165.067 311.412 165.09 311.487 165.092C311.563 165.094 311.638 165.075 311.708 165.036C311.778 164.996 311.841 164.938 311.894 164.864C311.948 164.789 311.99 164.701 312.018 164.604C312.046 164.506 312.06 164.402 312.059 164.297C312.058 164.192 312.041 164.089 312.01 163.993C311.98 163.897 311.935 163.811 311.88 163.74L310.382 161.656C310.277 161.51 310.134 161.428 309.985 161.428C309.836 161.428 309.693 161.51 309.588 161.656L308.09 163.74C307.985 163.886 307.926 164.085 307.926 164.292C307.926 164.499 307.985 164.697 308.09 164.844ZM304.554 174.906L305.094 174.156C305.145 174.079 305.207 174.018 305.276 173.975C305.345 173.933 305.419 173.91 305.495 173.908C305.57 173.906 305.645 173.925 305.715 173.964C305.785 174.004 305.849 174.062 305.902 174.136C305.955 174.211 305.997 174.299 306.026 174.396C306.054 174.494 306.068 174.598 306.066 174.703C306.065 174.808 306.049 174.911 306.018 175.007C305.987 175.103 305.943 175.189 305.888 175.26L304.39 177.344C304.284 177.49 304.141 177.572 303.993 177.572C303.844 177.572 303.701 177.49 303.596 177.344L302.097 175.26C302.042 175.189 301.998 175.103 301.967 175.007C301.937 174.911 301.92 174.808 301.919 174.703C301.917 174.598 301.931 174.494 301.959 174.396C301.988 174.299 302.03 174.211 302.083 174.136C302.136 174.062 302.2 174.004 302.27 173.964C302.34 173.925 302.415 173.906 302.49 173.908C302.566 173.91 302.64 173.933 302.709 173.975C302.778 174.018 302.84 174.079 302.891 174.156L303.431 174.906V164.292C303.431 164.084 303.49 163.886 303.595 163.739C303.701 163.593 303.844 163.51 303.993 163.51C304.142 163.51 304.284 163.593 304.39 163.739C304.495 163.886 304.554 164.084 304.554 164.292V174.906Z" fill="#636363"/>
</g>
<defs>
<clipPath id="clip0_12_158">
<rect width="390" height="844" fill="white"/>
</clipPath>
</defs>
</svg>
