<svg width="390" height="844" viewBox="0 0 390 844" fill="none" xmlns="http://www.w3.org/2000/svg">
<g clip-path="url(#clip0_54_504)">
<rect width="390" height="844" fill="white"/>
<path d="M0 0H390V318C390 334.569 376.569 348 360 348H30C13.4315 348 0 334.569 0 318V0Z" fill="#C4C4C4"/>
<circle cx="344" cy="60" r="15" fill="white"/>
<circle cx="344" cy="60" r="19" stroke="#D9D9D9" stroke-width="2"/>
<path d="M31 70H51" stroke="black" stroke-width="3" stroke-linecap="round" stroke-linejoin="round"/>
<path d="M31 60H61" stroke="black" stroke-width="3" stroke-linecap="round" stroke-linejoin="round"/>
<path d="M31 50H61" stroke="black" stroke-width="3" stroke-linecap="round" stroke-linejoin="round"/>
<rect x="155.27" y="43.2703" width="79.4595" height="32.973" fill="white" stroke="black" stroke-width="0.540541"/>
<path d="M178.074 64.3558H182.195V65.6054H176.538V53.8355H178.074V64.3558ZM187.863 65.7574C186.996 65.7574 186.208 65.5604 185.498 65.1664C184.8 64.7723 184.249 64.2151 183.844 63.4946C183.45 62.7628 183.253 61.9185 183.253 60.9616C183.253 60.016 183.455 59.1829 183.86 58.4624C184.277 57.7307 184.84 57.1734 185.549 56.7907C186.258 56.3966 187.052 56.1996 187.93 56.1996C188.808 56.1996 189.602 56.3966 190.311 56.7907C191.02 57.1734 191.578 57.725 191.983 58.4455C192.399 59.166 192.608 60.0047 192.608 60.9616C192.608 61.9185 192.394 62.7628 191.966 63.4946C191.549 64.2151 190.981 64.7723 190.26 65.1664C189.54 65.5604 188.741 65.7574 187.863 65.7574ZM187.863 64.4065C188.414 64.4065 188.932 64.277 189.416 64.0181C189.9 63.7592 190.289 63.3708 190.581 62.8529C190.885 62.3351 191.037 61.7046 191.037 60.9616C191.037 60.2186 190.891 59.5882 190.598 59.0703C190.305 58.5525 189.923 58.1697 189.45 57.9221C188.977 57.6631 188.465 57.5337 187.913 57.5337C187.35 57.5337 186.832 57.6631 186.36 57.9221C185.898 58.1697 185.527 58.5525 185.245 59.0703C184.964 59.5882 184.823 60.2186 184.823 60.9616C184.823 61.7159 184.958 62.3519 185.228 62.8698C185.51 63.3876 185.881 63.776 186.343 64.035C186.804 64.2826 187.311 64.4065 187.863 64.4065ZM198.444 56.1996C199.244 56.1996 199.942 56.3741 200.538 56.7231C201.146 57.0721 201.597 57.5112 201.889 58.0403V56.3516H203.443V65.808C203.443 66.6524 203.263 67.401 202.902 68.0539C202.542 68.7182 202.024 69.236 201.349 69.6075C200.685 69.979 199.908 70.1648 199.019 70.1648C197.803 70.1648 196.79 69.8777 195.979 69.3035C195.168 68.7294 194.69 67.947 194.544 66.9563H196.063C196.232 67.5192 196.581 67.9695 197.11 68.3072C197.64 68.6562 198.276 68.8307 199.019 68.8307C199.863 68.8307 200.55 68.5662 201.079 68.0371C201.619 67.508 201.889 66.7649 201.889 65.808V63.8661C201.585 64.4065 201.135 64.8568 200.538 65.217C199.942 65.5773 199.244 65.7574 198.444 65.7574C197.623 65.7574 196.874 65.5547 196.199 65.1495C195.534 64.7442 195.011 64.1757 194.628 63.4439C194.245 62.7122 194.054 61.8791 194.054 60.9447C194.054 59.9991 194.245 59.1717 194.628 58.4624C195.011 57.7419 195.534 57.1847 196.199 56.7907C196.874 56.3966 197.623 56.1996 198.444 56.1996ZM201.889 60.9616C201.889 60.2636 201.749 59.6557 201.467 59.1379C201.186 58.62 200.803 58.226 200.319 57.9558C199.846 57.6744 199.323 57.5337 198.748 57.5337C198.174 57.5337 197.651 57.6688 197.178 57.9389C196.705 58.2091 196.328 58.6031 196.047 59.121C195.765 59.6388 195.624 60.2468 195.624 60.9447C195.624 61.654 195.765 62.2731 196.047 62.8023C196.328 63.3201 196.705 63.7198 197.178 64.0012C197.651 64.2714 198.174 64.4065 198.748 64.4065C199.323 64.4065 199.846 64.2714 200.319 64.0012C200.803 63.7198 201.186 63.3201 201.467 62.8023C201.749 62.2731 201.889 61.6596 201.889 60.9616ZM210.076 65.7574C209.209 65.7574 208.421 65.5604 207.711 65.1664C207.013 64.7723 206.462 64.2151 206.057 63.4946C205.663 62.7628 205.466 61.9185 205.466 60.9616C205.466 60.016 205.668 59.1829 206.073 58.4624C206.49 57.7307 207.053 57.1734 207.762 56.7907C208.471 56.3966 209.265 56.1996 210.143 56.1996C211.021 56.1996 211.815 56.3966 212.524 56.7907C213.233 57.1734 213.791 57.725 214.196 58.4455C214.612 59.166 214.821 60.0047 214.821 60.9616C214.821 61.9185 214.607 62.7628 214.179 63.4946C213.762 64.2151 213.194 64.7723 212.473 65.1664C211.753 65.5604 210.954 65.7574 210.076 65.7574ZM210.076 64.4065C210.627 64.4065 211.145 64.277 211.629 64.0181C212.113 63.7592 212.502 63.3708 212.794 62.8529C213.098 62.3351 213.25 61.7046 213.25 60.9616C213.25 60.2186 213.104 59.5882 212.811 59.0703C212.518 58.5525 212.136 58.1697 211.663 57.9221C211.19 57.6631 210.678 57.5337 210.126 57.5337C209.563 57.5337 209.045 57.6631 208.573 57.9221C208.111 58.1697 207.74 58.5525 207.458 59.0703C207.177 59.5882 207.036 60.2186 207.036 60.9616C207.036 61.7159 207.171 62.3519 207.441 62.8698C207.723 63.3876 208.094 63.776 208.556 64.035C209.017 64.2826 209.524 64.4065 210.076 64.4065Z" fill="black"/>
<path d="M55.048 129.248L50.368 146H46.408L43.264 134.072L39.976 146L36.04 146.024L31.528 129.248H35.128L38.08 142.256L41.488 129.248H45.232L48.448 142.184L51.424 129.248H55.048ZM69.6019 139.064C69.6019 139.544 69.5699 139.976 69.5059 140.36H59.7859C59.8659 141.32 60.2019 142.072 60.7939 142.616C61.3859 143.16 62.1139 143.432 62.9779 143.432C64.2259 143.432 65.1139 142.896 65.6419 141.824H69.2659C68.8819 143.104 68.1459 144.16 67.0579 144.992C65.9699 145.808 64.6339 146.216 63.0499 146.216C61.7699 146.216 60.6179 145.936 59.5939 145.376C58.5859 144.8 57.7939 143.992 57.2179 142.952C56.6579 141.912 56.3779 140.712 56.3779 139.352C56.3779 137.976 56.6579 136.768 57.2179 135.728C57.7779 134.688 58.5619 133.888 59.5699 133.328C60.5779 132.768 61.7379 132.488 63.0499 132.488C64.3139 132.488 65.4419 132.76 66.4339 133.304C67.4419 133.848 68.2179 134.624 68.7619 135.632C69.3219 136.624 69.6019 137.768 69.6019 139.064ZM66.1219 138.104C66.1059 137.24 65.7939 136.552 65.1859 136.04C64.5779 135.512 63.8339 135.248 62.9539 135.248C62.1219 135.248 61.4179 135.504 60.8419 136.016C60.2819 136.512 59.9379 137.208 59.8099 138.104H66.1219ZM75.4144 128.24V146H72.0544V128.24H75.4144ZM77.8701 139.352C77.8701 137.976 78.1501 136.776 78.7101 135.752C79.2701 134.712 80.0461 133.912 81.0381 133.352C82.0301 132.776 83.1661 132.488 84.4461 132.488C86.0941 132.488 87.4541 132.904 88.5261 133.736C89.6141 134.552 90.3421 135.704 90.7101 137.192H87.0861C86.8941 136.616 86.5661 136.168 86.1021 135.848C85.6541 135.512 85.0941 135.344 84.4221 135.344C83.4621 135.344 82.7021 135.696 82.1421 136.4C81.5821 137.088 81.3021 138.072 81.3021 139.352C81.3021 140.616 81.5821 141.6 82.1421 142.304C82.7021 142.992 83.4621 143.336 84.4221 143.336C85.7821 143.336 86.6701 142.728 87.0861 141.512H90.7101C90.3421 142.952 89.6141 144.096 88.5261 144.944C87.4381 145.792 86.0781 146.216 84.4461 146.216C83.1661 146.216 82.0301 145.936 81.0381 145.376C80.0461 144.8 79.2701 144 78.7101 142.976C78.1501 141.936 77.8701 140.728 77.8701 139.352ZM99.0756 146.216C97.7956 146.216 96.6436 145.936 95.6196 145.376C94.5956 144.8 93.7876 143.992 93.1956 142.952C92.6196 141.912 92.3316 140.712 92.3316 139.352C92.3316 137.992 92.6276 136.792 93.2196 135.752C93.8276 134.712 94.6516 133.912 95.6916 133.352C96.7316 132.776 97.8916 132.488 99.1716 132.488C100.452 132.488 101.612 132.776 102.652 133.352C103.692 133.912 104.508 134.712 105.1 135.752C105.708 136.792 106.012 137.992 106.012 139.352C106.012 140.712 105.7 141.912 105.076 142.952C104.468 143.992 103.636 144.8 102.58 145.376C101.54 145.936 100.372 146.216 99.0756 146.216ZM99.0756 143.288C99.6836 143.288 100.252 143.144 100.78 142.856C101.324 142.552 101.756 142.104 102.076 141.512C102.396 140.92 102.556 140.2 102.556 139.352C102.556 138.088 102.22 137.12 101.548 136.448C100.892 135.76 100.084 135.416 99.1236 135.416C98.1636 135.416 97.3556 135.76 96.6996 136.448C96.0596 137.12 95.7396 138.088 95.7396 139.352C95.7396 140.616 96.0516 141.592 96.6756 142.28C97.3156 142.952 98.1156 143.288 99.0756 143.288ZM124.988 132.512C126.62 132.512 127.932 133.016 128.924 134.024C129.932 135.016 130.436 136.408 130.436 138.2V146H127.076V138.656C127.076 137.616 126.812 136.824 126.284 136.28C125.756 135.72 125.036 135.44 124.124 135.44C123.212 135.44 122.484 135.72 121.94 136.28C121.412 136.824 121.148 137.616 121.148 138.656V146H117.788V138.656C117.788 137.616 117.524 136.824 116.996 136.28C116.468 135.72 115.748 135.44 114.836 135.44C113.908 135.44 113.172 135.72 112.628 136.28C112.1 136.824 111.836 137.616 111.836 138.656V146H108.476V132.704H111.836V134.312C112.268 133.752 112.82 133.312 113.492 132.992C114.18 132.672 114.932 132.512 115.748 132.512C116.788 132.512 117.716 132.736 118.532 133.184C119.348 133.616 119.98 134.24 120.428 135.056C120.86 134.288 121.484 133.672 122.3 133.208C123.132 132.744 124.028 132.512 124.988 132.512ZM145.985 139.064C145.985 139.544 145.953 139.976 145.889 140.36H136.169C136.249 141.32 136.585 142.072 137.177 142.616C137.769 143.16 138.497 143.432 139.361 143.432C140.609 143.432 141.497 142.896 142.025 141.824H145.649C145.265 143.104 144.529 144.16 143.441 144.992C142.353 145.808 141.017 146.216 139.433 146.216C138.153 146.216 137.001 145.936 135.977 145.376C134.969 144.8 134.177 143.992 133.601 142.952C133.041 141.912 132.761 140.712 132.761 139.352C132.761 137.976 133.041 136.768 133.601 135.728C134.161 134.688 134.945 133.888 135.953 133.328C136.961 132.768 138.121 132.488 139.433 132.488C140.697 132.488 141.825 132.76 142.817 133.304C143.825 133.848 144.601 134.624 145.145 135.632C145.705 136.624 145.985 137.768 145.985 139.064ZM142.505 138.104C142.489 137.24 142.177 136.552 141.569 136.04C140.961 135.512 140.217 135.248 139.337 135.248C138.505 135.248 137.801 135.504 137.225 136.016C136.665 136.512 136.321 137.208 136.193 138.104H142.505ZM152.109 142.472L149.301 149.216H147.141L148.701 142.472H152.109ZM163.562 129.248V139.616C163.562 140.752 163.858 141.624 164.45 142.232C165.042 142.824 165.874 143.12 166.946 143.12C168.034 143.12 168.874 142.824 169.466 142.232C170.058 141.624 170.354 140.752 170.354 139.616V129.248H173.738V139.592C173.738 141.016 173.426 142.224 172.802 143.216C172.194 144.192 171.37 144.928 170.33 145.424C169.306 145.92 168.162 146.168 166.898 146.168C165.65 146.168 164.514 145.92 163.49 145.424C162.482 144.928 161.682 144.192 161.09 143.216C160.498 142.224 160.202 141.016 160.202 139.592V129.248H163.562ZM182.072 146.216C180.984 146.216 180.008 146.024 179.144 145.64C178.28 145.24 177.592 144.704 177.08 144.032C176.584 143.36 176.312 142.616 176.264 141.8H179.648C179.712 142.312 179.96 142.736 180.392 143.072C180.84 143.408 181.392 143.576 182.048 143.576C182.688 143.576 183.184 143.448 183.536 143.192C183.904 142.936 184.088 142.608 184.088 142.208C184.088 141.776 183.864 141.456 183.416 141.248C182.984 141.024 182.288 140.784 181.328 140.528C180.336 140.288 179.52 140.04 178.88 139.784C178.256 139.528 177.712 139.136 177.248 138.608C176.8 138.08 176.576 137.368 176.576 136.472C176.576 135.736 176.784 135.064 177.2 134.456C177.632 133.848 178.24 133.368 179.024 133.016C179.824 132.664 180.76 132.488 181.832 132.488C183.416 132.488 184.68 132.888 185.624 133.688C186.568 134.472 187.088 135.536 187.184 136.88H183.968C183.92 136.352 183.696 135.936 183.296 135.632C182.912 135.312 182.392 135.152 181.736 135.152C181.128 135.152 180.656 135.264 180.32 135.488C180 135.712 179.84 136.024 179.84 136.424C179.84 136.872 180.064 137.216 180.512 137.456C180.96 137.68 181.656 137.912 182.6 138.152C183.56 138.392 184.352 138.64 184.976 138.896C185.6 139.152 186.136 139.552 186.584 140.096C187.048 140.624 187.288 141.328 187.304 142.208C187.304 142.976 187.088 143.664 186.656 144.272C186.24 144.88 185.632 145.36 184.832 145.712C184.048 146.048 183.128 146.216 182.072 146.216ZM202.422 139.064C202.422 139.544 202.39 139.976 202.326 140.36H192.606C192.686 141.32 193.022 142.072 193.614 142.616C194.206 143.16 194.934 143.432 195.798 143.432C197.046 143.432 197.934 142.896 198.462 141.824H202.086C201.702 143.104 200.966 144.16 199.878 144.992C198.79 145.808 197.454 146.216 195.87 146.216C194.59 146.216 193.438 145.936 192.414 145.376C191.406 144.8 190.614 143.992 190.038 142.952C189.478 141.912 189.198 140.712 189.198 139.352C189.198 137.976 189.478 136.768 190.038 135.728C190.598 134.688 191.382 133.888 192.39 133.328C193.398 132.768 194.558 132.488 195.87 132.488C197.134 132.488 198.262 132.76 199.254 133.304C200.262 133.848 201.038 134.624 201.582 135.632C202.142 136.624 202.422 137.768 202.422 139.064ZM198.942 138.104C198.926 137.24 198.614 136.552 198.006 136.04C197.398 135.512 196.654 135.248 195.774 135.248C194.942 135.248 194.238 135.504 193.662 136.016C193.102 136.512 192.758 137.208 192.63 138.104H198.942ZM208.235 134.768C208.667 134.064 209.227 133.512 209.915 133.112C210.619 132.712 211.419 132.512 212.315 132.512V136.04H211.427C210.371 136.04 209.571 136.288 209.027 136.784C208.499 137.28 208.235 138.144 208.235 139.376V146H204.875V132.704H208.235V134.768Z" fill="black"/>
<path d="M53.872 168.272L49.024 185H46.576L42.688 171.536L38.656 185L36.232 185.024L31.552 168.272H33.88L37.528 182.456L41.56 168.272H44.008L47.848 182.408L51.52 168.272H53.872ZM62.7901 171.608C63.7821 171.608 64.6781 171.824 65.4781 172.256C66.2781 172.672 66.9021 173.304 67.3501 174.152C67.8141 175 68.0461 176.032 68.0461 177.248V185H65.8861V177.56C65.8861 176.248 65.5581 175.248 64.9021 174.56C64.2461 173.856 63.3501 173.504 62.2141 173.504C61.0621 173.504 60.1421 173.864 59.4541 174.584C58.7821 175.304 58.4461 176.352 58.4461 177.728V185H56.2621V167.24H58.4461V173.72C58.8781 173.048 59.4701 172.528 60.2221 172.16C60.9901 171.792 61.8461 171.608 62.7901 171.608ZM83.6136 177.92C83.6136 178.336 83.5896 178.776 83.5416 179.24H73.0296C73.1096 180.536 73.5496 181.552 74.3496 182.288C75.1656 183.008 76.1496 183.368 77.3016 183.368C78.2456 183.368 79.0296 183.152 79.6536 182.72C80.2936 182.272 80.7416 181.68 80.9976 180.944H83.3496C82.9976 182.208 82.2936 183.24 81.2376 184.04C80.1816 184.824 78.8696 185.216 77.3016 185.216C76.0536 185.216 74.9336 184.936 73.9416 184.376C72.9656 183.816 72.1976 183.024 71.6376 182C71.0776 180.96 70.7976 179.76 70.7976 178.4C70.7976 177.04 71.0696 175.848 71.6136 174.824C72.1576 173.8 72.9176 173.016 73.8936 172.472C74.8856 171.912 76.0216 171.632 77.3016 171.632C78.5496 171.632 79.6536 171.904 80.6136 172.448C81.5736 172.992 82.3096 173.744 82.8216 174.704C83.3496 175.648 83.6136 176.72 83.6136 177.92ZM81.3576 177.464C81.3576 176.632 81.1736 175.92 80.8056 175.328C80.4376 174.72 79.9336 174.264 79.2936 173.96C78.6696 173.64 77.9736 173.48 77.2056 173.48C76.1016 173.48 75.1576 173.832 74.3736 174.536C73.6056 175.24 73.1656 176.216 73.0536 177.464H81.3576ZM88.6804 173.984C89.0644 173.232 89.6084 172.648 90.3124 172.232C91.0324 171.816 91.9044 171.608 92.9284 171.608V173.864H92.3524C89.9044 173.864 88.6804 175.192 88.6804 177.848V185H86.4964V171.848H88.6804V173.984ZM107.45 177.92C107.45 178.336 107.426 178.776 107.378 179.24H96.8656C96.9456 180.536 97.3856 181.552 98.1856 182.288C99.0016 183.008 99.9856 183.368 101.138 183.368C102.082 183.368 102.866 183.152 103.49 182.72C104.13 182.272 104.578 181.68 104.834 180.944H107.186C106.834 182.208 106.13 183.24 105.074 184.04C104.018 184.824 102.706 185.216 101.138 185.216C99.8896 185.216 98.7696 184.936 97.7776 184.376C96.8016 183.816 96.0336 183.024 95.4736 182C94.9136 180.96 94.6336 179.76 94.6336 178.4C94.6336 177.04 94.9056 175.848 95.4496 174.824C95.9936 173.8 96.7536 173.016 97.7296 172.472C98.7216 171.912 99.8576 171.632 101.138 171.632C102.386 171.632 103.49 171.904 104.45 172.448C105.41 172.992 106.146 173.744 106.658 174.704C107.186 175.648 107.45 176.72 107.45 177.92ZM105.194 177.464C105.194 176.632 105.01 175.92 104.642 175.328C104.274 174.72 103.77 174.264 103.13 173.96C102.506 173.64 101.81 173.48 101.042 173.48C99.9376 173.48 98.9936 173.832 98.2096 174.536C97.4416 175.24 97.0016 176.216 96.8896 177.464H105.194ZM115.915 178.376C115.915 177.032 116.187 175.856 116.731 174.848C117.275 173.824 118.019 173.032 118.963 172.472C119.923 171.912 120.995 171.632 122.179 171.632C123.203 171.632 124.155 171.872 125.035 172.352C125.915 172.816 126.587 173.432 127.051 174.2V167.24H129.259V185H127.051V182.528C126.619 183.312 125.979 183.96 125.131 184.472C124.283 184.968 123.291 185.216 122.155 185.216C120.987 185.216 119.923 184.928 118.963 184.352C118.019 183.776 117.275 182.968 116.731 181.928C116.187 180.888 115.915 179.704 115.915 178.376ZM127.051 178.4C127.051 177.408 126.851 176.544 126.451 175.808C126.051 175.072 125.507 174.512 124.819 174.128C124.147 173.728 123.403 173.528 122.587 173.528C121.771 173.528 121.027 173.72 120.355 174.104C119.683 174.488 119.147 175.048 118.747 175.784C118.347 176.52 118.147 177.384 118.147 178.376C118.147 179.384 118.347 180.264 118.747 181.016C119.147 181.752 119.683 182.32 120.355 182.72C121.027 183.104 121.771 183.296 122.587 183.296C123.403 183.296 124.147 183.104 124.819 182.72C125.507 182.32 126.051 181.752 126.451 181.016C126.851 180.264 127.051 179.392 127.051 178.4ZM138.686 185.216C137.454 185.216 136.334 184.936 135.326 184.376C134.334 183.816 133.55 183.024 132.974 182C132.414 180.96 132.134 179.76 132.134 178.4C132.134 177.056 132.422 175.872 132.998 174.848C133.59 173.808 134.39 173.016 135.398 172.472C136.406 171.912 137.534 171.632 138.782 171.632C140.03 171.632 141.158 171.912 142.166 172.472C143.174 173.016 143.966 173.8 144.542 174.824C145.134 175.848 145.43 177.04 145.43 178.4C145.43 179.76 145.126 180.96 144.518 182C143.926 183.024 143.118 183.816 142.094 184.376C141.07 184.936 139.934 185.216 138.686 185.216ZM138.686 183.296C139.47 183.296 140.206 183.112 140.894 182.744C141.582 182.376 142.134 181.824 142.55 181.088C142.982 180.352 143.198 179.456 143.198 178.4C143.198 177.344 142.99 176.448 142.574 175.712C142.158 174.976 141.614 174.432 140.942 174.08C140.27 173.712 139.542 173.528 138.758 173.528C137.958 173.528 137.222 173.712 136.55 174.08C135.894 174.432 135.366 174.976 134.966 175.712C134.566 176.448 134.366 177.344 134.366 178.4C134.366 179.472 134.558 180.376 134.942 181.112C135.342 181.848 135.87 182.4 136.526 182.768C137.182 183.12 137.902 183.296 138.686 183.296ZM166.028 171.848L158.108 191.192H155.852L158.444 184.856L153.14 171.848H155.564L159.692 182.504L163.772 171.848H166.028ZM173.959 185.216C172.727 185.216 171.607 184.936 170.599 184.376C169.607 183.816 168.823 183.024 168.247 182C167.687 180.96 167.407 179.76 167.407 178.4C167.407 177.056 167.695 175.872 168.271 174.848C168.863 173.808 169.663 173.016 170.671 172.472C171.679 171.912 172.807 171.632 174.055 171.632C175.303 171.632 176.431 171.912 177.439 172.472C178.447 173.016 179.239 173.8 179.815 174.824C180.407 175.848 180.703 177.04 180.703 178.4C180.703 179.76 180.399 180.96 179.791 182C179.199 183.024 178.391 183.816 177.367 184.376C176.343 184.936 175.207 185.216 173.959 185.216ZM173.959 183.296C174.743 183.296 175.479 183.112 176.167 182.744C176.855 182.376 177.407 181.824 177.823 181.088C178.255 180.352 178.471 179.456 178.471 178.4C178.471 177.344 178.263 176.448 177.847 175.712C177.431 174.976 176.887 174.432 176.215 174.08C175.543 173.712 174.815 173.528 174.031 173.528C173.231 173.528 172.495 173.712 171.823 174.08C171.167 174.432 170.639 174.976 170.239 175.712C169.839 176.448 169.639 177.344 169.639 178.4C169.639 179.472 169.831 180.376 170.215 181.112C170.615 181.848 171.143 182.4 171.799 182.768C172.455 183.12 173.175 183.296 173.959 183.296ZM195.239 171.848V185H193.055V183.056C192.639 183.728 192.055 184.256 191.303 184.64C190.567 185.008 189.751 185.192 188.855 185.192C187.831 185.192 186.911 184.984 186.095 184.568C185.279 184.136 184.631 183.496 184.151 182.648C183.687 181.8 183.455 180.768 183.455 179.552V171.848H185.615V179.264C185.615 180.56 185.943 181.56 186.599 182.264C187.255 182.952 188.151 183.296 189.287 183.296C190.455 183.296 191.375 182.936 192.047 182.216C192.719 181.496 193.055 180.448 193.055 179.072V171.848H195.239ZM222.845 171.848L218.741 185H216.485L213.317 174.56L210.149 185H207.893L203.765 171.848H205.997L209.021 182.888L212.285 171.848H214.517L217.709 182.912L220.685 171.848H222.845ZM224.196 178.376C224.196 177.032 224.468 175.856 225.012 174.848C225.556 173.824 226.3 173.032 227.244 172.472C228.204 171.912 229.268 171.632 230.436 171.632C231.588 171.632 232.588 171.88 233.436 172.376C234.284 172.872 234.916 173.496 235.332 174.248V171.848H237.54V185H235.332V182.552C234.9 183.32 234.252 183.96 233.388 184.472C232.54 184.968 231.548 185.216 230.412 185.216C229.244 185.216 228.188 184.928 227.244 184.352C226.3 183.776 225.556 182.968 225.012 181.928C224.468 180.888 224.196 179.704 224.196 178.376ZM235.332 178.4C235.332 177.408 235.132 176.544 234.732 175.808C234.332 175.072 233.788 174.512 233.1 174.128C232.428 173.728 231.684 173.528 230.868 173.528C230.052 173.528 229.308 173.72 228.636 174.104C227.964 174.488 227.428 175.048 227.028 175.784C226.628 176.52 226.428 177.384 226.428 178.376C226.428 179.384 226.628 180.264 227.028 181.016C227.428 181.752 227.964 182.32 228.636 182.72C229.308 183.104 230.052 183.296 230.868 183.296C231.684 183.296 232.428 183.104 233.1 182.72C233.788 182.32 234.332 181.752 234.732 181.016C235.132 180.264 235.332 179.392 235.332 178.4ZM247.639 171.608C249.239 171.608 250.535 172.096 251.527 173.072C252.519 174.032 253.015 175.424 253.015 177.248V185H250.855V177.56C250.855 176.248 250.527 175.248 249.871 174.56C249.215 173.856 248.319 173.504 247.183 173.504C246.031 173.504 245.111 173.864 244.423 174.584C243.751 175.304 243.415 176.352 243.415 177.728V185H241.231V171.848H243.415V173.72C243.847 173.048 244.431 172.528 245.167 172.16C245.919 171.792 246.743 171.608 247.639 171.608ZM259.246 173.648V181.4C259.246 182.04 259.382 182.496 259.654 182.768C259.926 183.024 260.398 183.152 261.07 183.152H262.678V185H260.71C259.494 185 258.582 184.72 257.974 184.16C257.366 183.6 257.062 182.68 257.062 181.4V173.648H255.358V171.848H257.062V168.536H259.246V171.848H262.678V173.648H259.246ZM274.387 173.648V181.4C274.387 182.04 274.523 182.496 274.795 182.768C275.067 183.024 275.539 183.152 276.211 183.152H277.819V185H275.851C274.635 185 273.723 184.72 273.115 184.16C272.507 183.6 272.203 182.68 272.203 181.4V173.648H270.499V171.848H272.203V168.536H274.387V171.848H277.819V173.648H274.387ZM286.201 185.216C284.969 185.216 283.849 184.936 282.841 184.376C281.849 183.816 281.065 183.024 280.489 182C279.929 180.96 279.649 179.76 279.649 178.4C279.649 177.056 279.937 175.872 280.513 174.848C281.105 173.808 281.905 173.016 282.913 172.472C283.921 171.912 285.049 171.632 286.297 171.632C287.545 171.632 288.673 171.912 289.681 172.472C290.689 173.016 291.481 173.8 292.057 174.824C292.649 175.848 292.945 177.04 292.945 178.4C292.945 179.76 292.641 180.96 292.033 182C291.441 183.024 290.633 183.816 289.609 184.376C288.585 184.936 287.449 185.216 286.201 185.216ZM286.201 183.296C286.985 183.296 287.721 183.112 288.409 182.744C289.097 182.376 289.649 181.824 290.065 181.088C290.497 180.352 290.713 179.456 290.713 178.4C290.713 177.344 290.505 176.448 290.089 175.712C289.673 174.976 289.129 174.432 288.457 174.08C287.785 173.712 287.057 173.528 286.273 173.528C285.473 173.528 284.737 173.712 284.065 174.08C283.409 174.432 282.881 174.976 282.481 175.712C282.081 176.448 281.881 177.344 281.881 178.4C281.881 179.472 282.073 180.376 282.457 181.112C282.857 181.848 283.385 182.4 284.041 182.768C284.697 183.12 285.417 183.296 286.201 183.296ZM307.639 171.632C308.775 171.632 309.767 171.88 310.615 172.376C311.479 172.872 312.119 173.496 312.535 174.248V171.848H314.743V185.288C314.743 186.488 314.487 187.552 313.975 188.48C313.463 189.424 312.727 190.16 311.767 190.688C310.823 191.216 309.719 191.48 308.455 191.48C306.727 191.48 305.287 191.072 304.135 190.256C302.983 189.44 302.303 188.328 302.095 186.92H304.255C304.495 187.72 304.991 188.36 305.743 188.84C306.495 189.336 307.399 189.584 308.455 189.584C309.655 189.584 310.631 189.208 311.383 188.456C312.151 187.704 312.535 186.648 312.535 185.288V182.528C312.103 183.296 311.463 183.936 310.615 184.448C309.767 184.96 308.775 185.216 307.639 185.216C306.471 185.216 305.407 184.928 304.447 184.352C303.503 183.776 302.759 182.968 302.215 181.928C301.671 180.888 301.399 179.704 301.399 178.376C301.399 177.032 301.671 175.856 302.215 174.848C302.759 173.824 303.503 173.032 304.447 172.472C305.407 171.912 306.471 171.632 307.639 171.632ZM312.535 178.4C312.535 177.408 312.335 176.544 311.935 175.808C311.535 175.072 310.991 174.512 310.303 174.128C309.631 173.728 308.887 173.528 308.071 173.528C307.255 173.528 306.511 173.72 305.839 174.104C305.167 174.488 304.631 175.048 304.231 175.784C303.831 176.52 303.631 177.384 303.631 178.376C303.631 179.384 303.831 180.264 304.231 181.016C304.631 181.752 305.167 182.32 305.839 182.72C306.511 183.104 307.255 183.296 308.071 183.296C308.887 183.296 309.631 183.104 310.303 182.72C310.991 182.32 311.535 181.752 311.935 181.016C312.335 180.264 312.535 179.392 312.535 178.4ZM324.17 185.216C322.938 185.216 321.818 184.936 320.81 184.376C319.818 183.816 319.034 183.024 318.458 182C317.898 180.96 317.618 179.76 317.618 178.4C317.618 177.056 317.906 175.872 318.482 174.848C319.074 173.808 319.874 173.016 320.882 172.472C321.89 171.912 323.018 171.632 324.266 171.632C325.514 171.632 326.642 171.912 327.65 172.472C328.658 173.016 329.45 173.8 330.026 174.824C330.618 175.848 330.914 177.04 330.914 178.4C330.914 179.76 330.61 180.96 330.002 182C329.41 183.024 328.602 183.816 327.578 184.376C326.554 184.936 325.418 185.216 324.17 185.216ZM324.17 183.296C324.954 183.296 325.69 183.112 326.378 182.744C327.066 182.376 327.618 181.824 328.034 181.088C328.466 180.352 328.682 179.456 328.682 178.4C328.682 177.344 328.474 176.448 328.058 175.712C327.642 174.976 327.098 174.432 326.426 174.08C325.754 173.712 325.026 173.528 324.242 173.528C323.442 173.528 322.706 173.712 322.034 174.08C321.378 174.432 320.85 174.976 320.45 175.712C320.05 176.448 319.85 177.344 319.85 178.4C319.85 179.472 320.042 180.376 320.426 181.112C320.826 181.848 321.354 182.4 322.01 182.768C322.666 183.12 323.386 183.296 324.17 183.296ZM35.512 209.648V217.4C35.512 218.04 35.648 218.496 35.92 218.768C36.192 219.024 36.664 219.152 37.336 219.152H38.944V221H36.976C35.76 221 34.848 220.72 34.24 220.16C33.632 219.6 33.328 218.68 33.328 217.4V209.648H31.624V207.848H33.328V204.536H35.512V207.848H38.944V209.648H35.512ZM47.3262 221.216C46.0942 221.216 44.9742 220.936 43.9662 220.376C42.9742 219.816 42.1902 219.024 41.6142 218C41.0542 216.96 40.7742 215.76 40.7742 214.4C40.7742 213.056 41.0622 211.872 41.6382 210.848C42.2302 209.808 43.0302 209.016 44.0382 208.472C45.0462 207.912 46.1742 207.632 47.4222 207.632C48.6702 207.632 49.7982 207.912 50.8062 208.472C51.8142 209.016 52.6062 209.8 53.1822 210.824C53.7742 211.848 54.0702 213.04 54.0702 214.4C54.0702 215.76 53.7662 216.96 53.1582 218C52.5662 219.024 51.7582 219.816 50.7342 220.376C49.7102 220.936 48.5742 221.216 47.3262 221.216ZM47.3262 219.296C48.1102 219.296 48.8462 219.112 49.5342 218.744C50.2222 218.376 50.7742 217.824 51.1902 217.088C51.6222 216.352 51.8382 215.456 51.8382 214.4C51.8382 213.344 51.6302 212.448 51.2142 211.712C50.7982 210.976 50.2542 210.432 49.5822 210.08C48.9102 209.712 48.1822 209.528 47.3982 209.528C46.5982 209.528 45.8622 209.712 45.1902 210.08C44.5342 210.432 44.0062 210.976 43.6062 211.712C43.2062 212.448 43.0062 213.344 43.0062 214.4C43.0062 215.472 43.1982 216.376 43.5822 217.112C43.9822 217.848 44.5102 218.4 45.1662 218.768C45.8222 219.12 46.5422 219.296 47.3262 219.296ZM56.1258 214.376C56.1258 213.032 56.3978 211.856 56.9418 210.848C57.4858 209.824 58.2298 209.032 59.1738 208.472C60.1338 207.912 61.2058 207.632 62.3898 207.632C63.4138 207.632 64.3658 207.872 65.2458 208.352C66.1258 208.816 66.7978 209.432 67.2618 210.2V203.24H69.4698V221H67.2618V218.528C66.8298 219.312 66.1898 219.96 65.3418 220.472C64.4938 220.968 63.5018 221.216 62.3658 221.216C61.1978 221.216 60.1338 220.928 59.1738 220.352C58.2298 219.776 57.4858 218.968 56.9418 217.928C56.3978 216.888 56.1258 215.704 56.1258 214.376ZM67.2618 214.4C67.2618 213.408 67.0618 212.544 66.6618 211.808C66.2618 211.072 65.7178 210.512 65.0298 210.128C64.3578 209.728 63.6138 209.528 62.7978 209.528C61.9818 209.528 61.2378 209.72 60.5658 210.104C59.8938 210.488 59.3578 211.048 58.9578 211.784C58.5578 212.52 58.3578 213.384 58.3578 214.376C58.3578 215.384 58.5578 216.264 58.9578 217.016C59.3578 217.752 59.8938 218.32 60.5658 218.72C61.2378 219.104 61.9818 219.296 62.7978 219.296C63.6138 219.296 64.3578 219.104 65.0298 218.72C65.7178 218.32 66.2618 217.752 66.6618 217.016C67.0618 216.264 67.2618 215.392 67.2618 214.4ZM72.3445 214.376C72.3445 213.032 72.6165 211.856 73.1605 210.848C73.7045 209.824 74.4485 209.032 75.3925 208.472C76.3525 207.912 77.4165 207.632 78.5845 207.632C79.7365 207.632 80.7365 207.88 81.5845 208.376C82.4325 208.872 83.0645 209.496 83.4805 210.248V207.848H85.6885V221H83.4805V218.552C83.0485 219.32 82.4005 219.96 81.5365 220.472C80.6885 220.968 79.6965 221.216 78.5605 221.216C77.3925 221.216 76.3365 220.928 75.3925 220.352C74.4485 219.776 73.7045 218.968 73.1605 217.928C72.6165 216.888 72.3445 215.704 72.3445 214.376ZM83.4805 214.4C83.4805 213.408 83.2805 212.544 82.8805 211.808C82.4805 211.072 81.9365 210.512 81.2485 210.128C80.5765 209.728 79.8325 209.528 79.0165 209.528C78.2005 209.528 77.4565 209.72 76.7845 210.104C76.1125 210.488 75.5765 211.048 75.1765 211.784C74.7765 212.52 74.5765 213.384 74.5765 214.376C74.5765 215.384 74.7765 216.264 75.1765 217.016C75.5765 217.752 76.1125 218.32 76.7845 218.72C77.4565 219.104 78.2005 219.296 79.0165 219.296C79.8325 219.296 80.5765 219.104 81.2485 218.72C81.9365 218.32 82.4805 217.752 82.8805 217.016C83.2805 216.264 83.4805 215.392 83.4805 214.4ZM100.707 207.848L92.7873 227.192H90.5312L93.1233 220.856L87.8193 207.848H90.2433L94.3713 218.504L98.4513 207.848H100.707ZM107.175 204.056C108.759 204.056 110.039 204.504 111.015 205.4C111.991 206.296 112.479 207.496 112.479 209C112.479 210.68 111.959 211.928 110.919 212.744C109.879 213.544 108.471 213.944 106.695 213.944L106.623 216.224H104.727L104.631 212.432H105.327C106.911 212.432 108.151 212.192 109.047 211.712C109.943 211.232 110.391 210.328 110.391 209C110.391 208.04 110.103 207.28 109.527 206.72C108.951 206.16 108.175 205.88 107.199 205.88C106.207 205.88 105.423 206.152 104.847 206.696C104.287 207.224 104.007 207.952 104.007 208.88H101.943C101.943 207.92 102.159 207.08 102.591 206.36C103.023 205.624 103.631 205.056 104.415 204.656C105.215 204.256 106.135 204.056 107.175 204.056ZM105.663 221.144C105.247 221.144 104.895 221 104.607 220.712C104.319 220.424 104.175 220.072 104.175 219.656C104.175 219.24 104.319 218.888 104.607 218.6C104.895 218.312 105.247 218.168 105.663 218.168C106.063 218.168 106.399 218.312 106.671 218.6C106.959 218.888 107.103 219.24 107.103 219.656C107.103 220.072 106.959 220.424 106.671 220.712C106.399 221 106.063 221.144 105.663 221.144Z" fill="black"/>
<rect x="26" y="258" width="338" height="45" rx="10" fill="white"/>
<path d="M60.5197 279.522C60.5197 283.676 56.661 287.044 51.9011 287.044C47.1412 287.044 43.2826 283.676 43.2826 279.522C43.2826 275.368 47.1412 272 51.9011 272C56.661 272 60.5197 275.368 60.5197 279.522ZM44.883 279.522C44.883 282.905 48.0251 285.647 51.9011 285.647C55.7771 285.647 58.9193 282.905 58.9193 279.522C58.9193 276.139 55.7771 273.397 51.9011 273.397C48.0251 273.397 44.883 276.139 44.883 279.522Z" fill="#636363"/>
<line y1="-0.752212" x2="8.34999" y2="-0.752212" transform="matrix(0.822023 0.569454 -0.672806 0.739819 57.448 284.245)" stroke="#636363" stroke-width="1.50442"/>
<path d="M82.7549 277.273C82.6867 276.697 82.4102 276.25 81.9254 275.932C81.4405 275.614 80.8458 275.455 80.1413 275.455C79.6261 275.455 79.1754 275.538 78.789 275.705C78.4064 275.871 78.1072 276.1 77.8913 276.392C77.6791 276.684 77.5731 277.015 77.5731 277.386C77.5731 277.697 77.647 277.964 77.7947 278.188C77.9462 278.407 78.1394 278.591 78.3742 278.739C78.6091 278.883 78.8553 279.002 79.1129 279.097C79.3704 279.187 79.6072 279.261 79.8231 279.318L81.0049 279.636C81.3079 279.716 81.6451 279.826 82.0163 279.966C82.3913 280.106 82.7492 280.297 83.0901 280.54C83.4348 280.778 83.7189 281.085 83.9424 281.46C84.1659 281.835 84.2776 282.295 84.2776 282.841C84.2776 283.47 84.1129 284.038 83.7833 284.545C83.4576 285.053 82.9803 285.456 82.3515 285.756C81.7265 286.055 80.967 286.205 80.0731 286.205C79.2398 286.205 78.5182 286.07 77.9083 285.801C77.3023 285.532 76.825 285.157 76.4765 284.676C76.1318 284.195 75.9367 283.636 75.8913 283H77.3458C77.3837 283.439 77.5314 283.803 77.789 284.091C78.0504 284.375 78.3799 284.587 78.7776 284.727C79.1791 284.864 79.611 284.932 80.0731 284.932C80.611 284.932 81.0939 284.845 81.522 284.67C81.95 284.492 82.289 284.246 82.539 283.932C82.789 283.614 82.914 283.242 82.914 282.818C82.914 282.432 82.806 282.117 82.5901 281.875C82.3742 281.633 82.0901 281.436 81.7379 281.284C81.3856 281.133 81.0049 281 80.5958 280.886L79.164 280.477C78.2549 280.216 77.5352 279.843 77.0049 279.358C76.4746 278.873 76.2095 278.239 76.2095 277.455C76.2095 276.803 76.3856 276.235 76.7379 275.75C77.0939 275.261 77.5712 274.883 78.1697 274.614C78.772 274.341 79.4443 274.205 80.1867 274.205C80.9367 274.205 81.6034 274.339 82.1867 274.608C82.7701 274.873 83.2322 275.237 83.5731 275.699C83.9178 276.161 84.0996 276.686 84.1185 277.273H82.7549ZM90.0717 286.182C89.2308 286.182 88.5054 285.996 87.8955 285.625C87.2895 285.25 86.8217 284.727 86.4921 284.057C86.1664 283.383 86.0035 282.598 86.0035 281.705C86.0035 280.811 86.1664 280.023 86.4921 279.341C86.8217 278.655 87.28 278.121 87.8671 277.739C88.458 277.352 89.1474 277.159 89.9353 277.159C90.3898 277.159 90.8387 277.235 91.2819 277.386C91.7251 277.538 92.1285 277.784 92.4921 278.125C92.8558 278.462 93.1455 278.909 93.3614 279.466C93.5773 280.023 93.6853 280.708 93.6853 281.523V282.091H86.958V280.932H92.3217C92.3217 280.439 92.2232 280 92.0262 279.614C91.833 279.227 91.5565 278.922 91.1967 278.699C90.8406 278.475 90.4202 278.364 89.9353 278.364C89.4012 278.364 88.9391 278.496 88.5489 278.761C88.1626 279.023 87.8652 279.364 87.6569 279.784C87.4486 280.205 87.3444 280.655 87.3444 281.136V281.909C87.3444 282.568 87.458 283.127 87.6853 283.585C87.9164 284.04 88.2364 284.386 88.6455 284.625C89.0546 284.86 89.53 284.977 90.0717 284.977C90.4239 284.977 90.7421 284.928 91.0262 284.83C91.3141 284.727 91.5622 284.576 91.7705 284.375C91.9789 284.17 92.1398 283.917 92.2535 283.614L93.5489 283.977C93.4126 284.417 93.1834 284.803 92.8614 285.136C92.5395 285.466 92.1417 285.723 91.6683 285.909C91.1948 286.091 90.6626 286.182 90.0717 286.182ZM98.2933 286.205C97.7402 286.205 97.2383 286.1 96.7876 285.892C96.3368 285.68 95.9789 285.375 95.7137 284.977C95.4486 284.576 95.316 284.091 95.316 283.523C95.316 283.023 95.4145 282.617 95.6114 282.307C95.8084 281.992 96.0717 281.746 96.4012 281.568C96.7308 281.39 97.0944 281.258 97.4921 281.17C97.8936 281.08 98.297 281.008 98.7023 280.955C99.2327 280.886 99.6626 280.835 99.9921 280.801C100.325 280.763 100.568 280.701 100.719 280.614C100.875 280.527 100.952 280.375 100.952 280.159V280.114C100.952 279.553 100.799 279.117 100.492 278.807C100.189 278.496 99.7289 278.341 99.1114 278.341C98.4713 278.341 97.9694 278.481 97.6058 278.761C97.2421 279.042 96.9864 279.341 96.8387 279.659L95.566 279.205C95.7933 278.674 96.0963 278.261 96.4751 277.966C96.8577 277.667 97.2743 277.458 97.7251 277.341C98.1796 277.22 98.6266 277.159 99.066 277.159C99.3463 277.159 99.6683 277.193 100.032 277.261C100.399 277.326 100.753 277.46 101.094 277.665C101.439 277.869 101.725 278.178 101.952 278.591C102.18 279.004 102.293 279.557 102.293 280.25V286H100.952V284.818H100.884C100.793 285.008 100.642 285.21 100.43 285.426C100.217 285.642 99.9353 285.826 99.583 285.977C99.2308 286.129 98.8008 286.205 98.2933 286.205ZM98.4978 285C99.0281 285 99.4751 284.896 99.8387 284.688C100.206 284.479 100.483 284.21 100.668 283.881C100.858 283.551 100.952 283.205 100.952 282.841V281.614C100.896 281.682 100.771 281.744 100.577 281.801C100.388 281.854 100.168 281.902 99.9183 281.943C99.672 281.981 99.4315 282.015 99.1967 282.045C98.9656 282.072 98.7781 282.095 98.6342 282.114C98.2857 282.159 97.9599 282.233 97.6569 282.335C97.3577 282.434 97.1152 282.583 96.9296 282.784C96.7478 282.981 96.6569 283.25 96.6569 283.591C96.6569 284.057 96.8292 284.409 97.1739 284.648C97.5224 284.883 97.9637 285 98.4978 285ZM104.741 286V277.273H106.036V278.591H106.127C106.286 278.159 106.574 277.809 106.991 277.54C107.407 277.271 107.877 277.136 108.4 277.136C108.498 277.136 108.621 277.138 108.769 277.142C108.917 277.146 109.029 277.152 109.104 277.159V278.523C109.059 278.511 108.955 278.494 108.792 278.472C108.633 278.445 108.464 278.432 108.286 278.432C107.862 278.432 107.483 278.521 107.15 278.699C106.82 278.873 106.559 279.116 106.366 279.426C106.176 279.733 106.082 280.083 106.082 280.477V286H104.741ZM113.974 286.182C113.155 286.182 112.451 285.989 111.86 285.602C111.269 285.216 110.815 284.684 110.496 284.006C110.178 283.328 110.019 282.553 110.019 281.682C110.019 280.795 110.182 280.013 110.508 279.335C110.837 278.653 111.296 278.121 111.883 277.739C112.474 277.352 113.163 277.159 113.951 277.159C114.565 277.159 115.118 277.273 115.61 277.5C116.102 277.727 116.506 278.045 116.82 278.455C117.135 278.864 117.33 279.341 117.405 279.886H116.065C115.962 279.489 115.735 279.136 115.383 278.83C115.034 278.519 114.565 278.364 113.974 278.364C113.451 278.364 112.993 278.5 112.599 278.773C112.209 279.042 111.904 279.422 111.684 279.915C111.468 280.403 111.36 280.977 111.36 281.636C111.36 282.311 111.466 282.898 111.678 283.398C111.894 283.898 112.197 284.286 112.587 284.562C112.981 284.839 113.443 284.977 113.974 284.977C114.322 284.977 114.638 284.917 114.923 284.795C115.207 284.674 115.447 284.5 115.644 284.273C115.841 284.045 115.981 283.773 116.065 283.455H117.405C117.33 283.97 117.142 284.434 116.843 284.847C116.548 285.256 116.155 285.581 115.667 285.824C115.182 286.062 114.618 286.182 113.974 286.182ZM120.707 280.75V286H119.366V274.364H120.707V278.636H120.82C121.025 278.186 121.332 277.828 121.741 277.562C122.154 277.294 122.703 277.159 123.388 277.159C123.983 277.159 124.504 277.278 124.951 277.517C125.398 277.752 125.744 278.114 125.991 278.602C126.241 279.087 126.366 279.705 126.366 280.455V286H125.025V280.545C125.025 279.852 124.845 279.316 124.485 278.938C124.129 278.555 123.635 278.364 123.002 278.364C122.563 278.364 122.169 278.456 121.82 278.642C121.476 278.828 121.203 279.098 121.002 279.455C120.805 279.811 120.707 280.242 120.707 280.75Z" fill="#AFAFAF"/>
<rect x="26.4429" y="422.443" width="154.114" height="97.2963" fill="#F1F1F1" stroke="black" stroke-width="0.885714"/>
<line y1="-0.442857" x2="181.352" y2="-0.442857" transform="matrix(0.84978 0.527138 -0.532531 0.84641 26 422.816)" stroke="black" stroke-width="0.885714"/>
<line y1="-0.442857" x2="182.046" y2="-0.442857" transform="matrix(-0.848243 0.529607 -0.535006 -0.844848 180.419 422)" stroke="black" stroke-width="0.885714"/>
<rect x="26.4429" y="519.064" width="154.114" height="57.4928" fill="white" stroke="black" stroke-width="0.885714"/>
<rect width="126.51" height="5.9156" transform="matrix(1 0 0 -1 32.9108 537.354)" fill="#C4C4C4"/>
<rect width="66.425" height="5.9156" transform="matrix(1 0 0 -1 32.9108 550.171)" fill="#C4C4C4"/>
<rect x="206.443" y="422.443" width="154.114" height="97.2963" fill="#F1F1F1" stroke="black" stroke-width="0.885714"/>
<line y1="-0.442857" x2="181.352" y2="-0.442857" transform="matrix(0.84978 0.527138 -0.532531 0.84641 206 422.816)" stroke="black" stroke-width="0.885714"/>
<line y1="-0.442857" x2="182.046" y2="-0.442857" transform="matrix(-0.848243 0.529607 -0.535006 -0.844848 360.419 422)" stroke="black" stroke-width="0.885714"/>
<rect x="206.443" y="519.064" width="154.114" height="57.4928" fill="white" stroke="black" stroke-width="0.885714"/>
<rect width="126.51" height="5.9156" transform="matrix(1 0 0 -1 212.911 537.354)" fill="#C4C4C4"/>
<rect width="66.425" height="5.9156" transform="matrix(1 0 0 -1 212.911 550.171)" fill="#C4C4C4"/>
<rect x="386.443" y="422.443" width="154.114" height="97.2963" fill="#F1F1F1" stroke="black" stroke-width="0.885714"/>
<line y1="-0.442857" x2="181.352" y2="-0.442857" transform="matrix(0.84978 0.527138 -0.532531 0.84641 386 422.816)" stroke="black" stroke-width="0.885714"/>
<line y1="-0.442857" x2="182.046" y2="-0.442857" transform="matrix(-0.848243 0.529607 -0.535006 -0.844848 540.419 422)" stroke="black" stroke-width="0.885714"/>
<rect x="386.443" y="519.064" width="154.114" height="57.4928" fill="white" stroke="black" stroke-width="0.885714"/>
<rect x="26.4429" y="650.443" width="332.114" height="97.2963" fill="#F1F1F1" stroke="black" stroke-width="0.885714"/>
<line y1="-0.442857" x2="344.611" y2="-0.442857" transform="matrix(0.960753 0.277407 -0.803913 0.594747 26.0001 650.816)" stroke="black" stroke-width="0.885714"/>
<line y1="-0.442857" x2="345.479" y2="-0.442857" transform="matrix(-0.96027 0.279071 -0.805751 -0.592254 357.753 650)" stroke="black" stroke-width="0.885714"/>
<rect x="26.4429" y="747.064" width="332.114" height="57.4928" fill="white" stroke="black" stroke-width="0.885714"/>
<rect width="271.793" height="5.9156" transform="matrix(1 0 0 -1 40.8471 765.354)" fill="#C4C4C4"/>
<rect width="142.707" height="5.9156" transform="matrix(1 0 0 -1 40.8471 778.171)" fill="#C4C4C4"/>
<path d="M32.72 396L29.52 390.44H27.78V396H25.5V382.1H30.3C31.3667 382.1 32.2667 382.287 33 382.66C33.7467 383.033 34.3 383.533 34.66 384.16C35.0333 384.787 35.22 385.487 35.22 386.26C35.22 387.167 34.9533 387.993 34.42 388.74C33.9 389.473 33.0933 389.973 32 390.24L35.44 396H32.72ZM27.78 388.62H30.3C31.1533 388.62 31.7933 388.407 32.22 387.98C32.66 387.553 32.88 386.98 32.88 386.26C32.88 385.54 32.6667 384.98 32.24 384.58C31.8133 384.167 31.1667 383.96 30.3 383.96H27.78V388.62ZM48.2367 390.22C48.2367 390.633 48.2101 391.007 48.1567 391.34H39.7367C39.8034 392.22 40.1301 392.927 40.7167 393.46C41.3034 393.993 42.0234 394.26 42.8767 394.26C44.1034 394.26 44.9701 393.747 45.4767 392.72H47.9367C47.6034 393.733 46.9967 394.567 46.1167 395.22C45.2501 395.86 44.1701 396.18 42.8767 396.18C41.8234 396.18 40.8767 395.947 40.0367 395.48C39.2101 395 38.5567 394.333 38.0767 393.48C37.6101 392.613 37.3767 391.613 37.3767 390.48C37.3767 389.347 37.6034 388.353 38.0567 387.5C38.5234 386.633 39.1701 385.967 39.9967 385.5C40.8367 385.033 41.7967 384.8 42.8767 384.8C43.9167 384.8 44.8434 385.027 45.6567 385.48C46.4701 385.933 47.1034 386.573 47.5567 387.4C48.0101 388.213 48.2367 389.153 48.2367 390.22ZM45.8567 389.5C45.8434 388.66 45.5434 387.987 44.9567 387.48C44.3701 386.973 43.6434 386.72 42.7767 386.72C41.9901 386.72 41.3167 386.973 40.7567 387.48C40.1967 387.973 39.8634 388.647 39.7567 389.5H45.8567ZM49.7205 390.48C49.7205 389.347 49.9471 388.353 50.4005 387.5C50.8671 386.633 51.5071 385.967 52.3205 385.5C53.1338 385.033 54.0671 384.8 55.1205 384.8C56.4538 384.8 57.5538 385.12 58.4205 385.76C59.3005 386.387 59.8938 387.287 60.2005 388.46H57.7405C57.5405 387.913 57.2205 387.487 56.7805 387.18C56.3405 386.873 55.7871 386.72 55.1205 386.72C54.1871 386.72 53.4405 387.053 52.8805 387.72C52.3338 388.373 52.0605 389.293 52.0605 390.48C52.0605 391.667 52.3338 392.593 52.8805 393.26C53.4405 393.927 54.1871 394.26 55.1205 394.26C56.4405 394.26 57.3138 393.68 57.7405 392.52H60.2005C59.8805 393.64 59.2805 394.533 58.4005 395.2C57.5205 395.853 56.4271 396.18 55.1205 396.18C54.0671 396.18 53.1338 395.947 52.3205 395.48C51.5071 395 50.8671 394.333 50.4005 393.48C49.9471 392.613 49.7205 391.613 49.7205 390.48ZM67.2527 396.18C66.2127 396.18 65.2727 395.947 64.4327 395.48C63.5927 395 62.9327 394.333 62.4527 393.48C61.9727 392.613 61.7327 391.613 61.7327 390.48C61.7327 389.36 61.9793 388.367 62.4727 387.5C62.966 386.633 63.6393 385.967 64.4927 385.5C65.346 385.033 66.2993 384.8 67.3527 384.8C68.406 384.8 69.3593 385.033 70.2127 385.5C71.066 385.967 71.7393 386.633 72.2327 387.5C72.726 388.367 72.9727 389.36 72.9727 390.48C72.9727 391.6 72.7193 392.593 72.2127 393.46C71.706 394.327 71.0127 395 70.1327 395.48C69.266 395.947 68.306 396.18 67.2527 396.18ZM67.2527 394.2C67.8393 394.2 68.386 394.06 68.8927 393.78C69.4127 393.5 69.8327 393.08 70.1527 392.52C70.4727 391.96 70.6327 391.28 70.6327 390.48C70.6327 389.68 70.4793 389.007 70.1727 388.46C69.866 387.9 69.4593 387.48 68.9527 387.2C68.446 386.92 67.8993 386.78 67.3127 386.78C66.726 386.78 66.1793 386.92 65.6727 387.2C65.1793 387.48 64.786 387.9 64.4927 388.46C64.1993 389.007 64.0527 389.68 64.0527 390.48C64.0527 391.667 64.3527 392.587 64.9527 393.24C65.566 393.88 66.3327 394.2 67.2527 394.2ZM88.5666 384.8C89.4332 384.8 90.2066 384.98 90.8866 385.34C91.5799 385.7 92.1199 386.233 92.5066 386.94C92.9066 387.647 93.1066 388.5 93.1066 389.5V396H90.8466V389.84C90.8466 388.853 90.5999 388.1 90.1066 387.58C89.6132 387.047 88.9399 386.78 88.0866 386.78C87.2332 386.78 86.5532 387.047 86.0466 387.58C85.5532 388.1 85.3066 388.853 85.3066 389.84V396H83.0466V389.84C83.0466 388.853 82.7999 388.1 82.3066 387.58C81.8132 387.047 81.1399 386.78 80.2866 386.78C79.4332 386.78 78.7532 387.047 78.2466 387.58C77.7532 388.1 77.5066 388.853 77.5066 389.84V396H75.2266V384.98H77.5066V386.24C77.8799 385.787 78.3532 385.433 78.9266 385.18C79.4999 384.927 80.1132 384.8 80.7666 384.8C81.6466 384.8 82.4332 384.987 83.1266 385.36C83.8199 385.733 84.3532 386.273 84.7266 386.98C85.0599 386.313 85.5799 385.787 86.2866 385.4C86.9932 385 87.7532 384.8 88.5666 384.8ZM109.348 384.8C110.214 384.8 110.988 384.98 111.668 385.34C112.361 385.7 112.901 386.233 113.288 386.94C113.688 387.647 113.888 388.5 113.888 389.5V396H111.628V389.84C111.628 388.853 111.381 388.1 110.888 387.58C110.394 387.047 109.721 386.78 108.868 386.78C108.014 386.78 107.334 387.047 106.828 387.58C106.334 388.1 106.088 388.853 106.088 389.84V396H103.828V389.84C103.828 388.853 103.581 388.1 103.088 387.58C102.594 387.047 101.921 386.78 101.068 386.78C100.214 386.78 99.5345 387.047 99.0278 387.58C98.5345 388.1 98.2878 388.853 98.2878 389.84V396H96.0078V384.98H98.2878V386.24C98.6611 385.787 99.1345 385.433 99.7078 385.18C100.281 384.927 100.894 384.8 101.548 384.8C102.428 384.8 103.214 384.987 103.908 385.36C104.601 385.733 105.134 386.273 105.508 386.98C105.841 386.313 106.361 385.787 107.068 385.4C107.774 385 108.534 384.8 109.348 384.8ZM126.889 390.22C126.889 390.633 126.862 391.007 126.809 391.34H118.389C118.456 392.22 118.782 392.927 119.369 393.46C119.956 393.993 120.676 394.26 121.529 394.26C122.756 394.26 123.622 393.747 124.129 392.72H126.589C126.256 393.733 125.649 394.567 124.769 395.22C123.902 395.86 122.822 396.18 121.529 396.18C120.476 396.18 119.529 395.947 118.689 395.48C117.862 395 117.209 394.333 116.729 393.48C116.262 392.613 116.029 391.613 116.029 390.48C116.029 389.347 116.256 388.353 116.709 387.5C117.176 386.633 117.822 385.967 118.649 385.5C119.489 385.033 120.449 384.8 121.529 384.8C122.569 384.8 123.496 385.027 124.309 385.48C125.122 385.933 125.756 386.573 126.209 387.4C126.662 388.213 126.889 389.153 126.889 390.22ZM124.509 389.5C124.496 388.66 124.196 387.987 123.609 387.48C123.022 386.973 122.296 386.72 121.429 386.72C120.642 386.72 119.969 386.973 119.409 387.48C118.849 387.973 118.516 388.647 118.409 389.5H124.509ZM134.693 384.8C135.559 384.8 136.333 384.98 137.013 385.34C137.706 385.7 138.246 386.233 138.633 386.94C139.019 387.647 139.213 388.5 139.213 389.5V396H136.953V389.84C136.953 388.853 136.706 388.1 136.213 387.58C135.719 387.047 135.046 386.78 134.193 386.78C133.339 386.78 132.659 387.047 132.153 387.58C131.659 388.1 131.413 388.853 131.413 389.84V396H129.133V384.98H131.413V386.24C131.786 385.787 132.259 385.433 132.833 385.18C133.419 384.927 134.039 384.8 134.693 384.8ZM141.361 390.44C141.361 389.333 141.588 388.353 142.041 387.5C142.508 386.647 143.134 385.987 143.921 385.52C144.721 385.04 145.608 384.8 146.581 384.8C147.301 384.8 148.008 384.96 148.701 385.28C149.408 385.587 149.968 386 150.381 386.52V381.2H152.681V396H150.381V394.34C150.008 394.873 149.488 395.313 148.821 395.66C148.168 396.007 147.414 396.18 146.561 396.18C145.601 396.18 144.721 395.94 143.921 395.46C143.134 394.967 142.508 394.287 142.041 393.42C141.588 392.54 141.361 391.547 141.361 390.44ZM150.381 390.48C150.381 389.72 150.221 389.06 149.901 388.5C149.594 387.94 149.188 387.513 148.681 387.22C148.174 386.927 147.628 386.78 147.041 386.78C146.454 386.78 145.908 386.927 145.401 387.22C144.894 387.5 144.481 387.92 144.161 388.48C143.854 389.027 143.701 389.68 143.701 390.44C143.701 391.2 143.854 391.867 144.161 392.44C144.481 393.013 144.894 393.453 145.401 393.76C145.921 394.053 146.468 394.2 147.041 394.2C147.628 394.2 148.174 394.053 148.681 393.76C149.188 393.467 149.594 393.04 149.901 392.48C150.221 391.907 150.381 391.24 150.381 390.48ZM154.916 390.44C154.916 389.333 155.142 388.353 155.596 387.5C156.062 386.647 156.689 385.987 157.476 385.52C158.276 385.04 159.156 384.8 160.116 384.8C160.982 384.8 161.736 384.973 162.376 385.32C163.029 385.653 163.549 386.073 163.936 386.58V384.98H166.236V396H163.936V394.36C163.549 394.88 163.022 395.313 162.356 395.66C161.689 396.007 160.929 396.18 160.076 396.18C159.129 396.18 158.262 395.94 157.476 395.46C156.689 394.967 156.062 394.287 155.596 393.42C155.142 392.54 154.916 391.547 154.916 390.44ZM163.936 390.48C163.936 389.72 163.776 389.06 163.456 388.5C163.149 387.94 162.742 387.513 162.236 387.22C161.729 386.927 161.182 386.78 160.596 386.78C160.009 386.78 159.462 386.927 158.956 387.22C158.449 387.5 158.036 387.92 157.716 388.48C157.409 389.027 157.256 389.68 157.256 390.44C157.256 391.2 157.409 391.867 157.716 392.44C158.036 393.013 158.449 393.453 158.956 393.76C159.476 394.053 160.022 394.2 160.596 394.2C161.182 394.2 161.729 394.053 162.236 393.76C162.742 393.467 163.149 393.04 163.456 392.48C163.776 391.907 163.936 391.24 163.936 390.48ZM171.89 386.84V392.94C171.89 393.353 171.984 393.653 172.17 393.84C172.37 394.013 172.704 394.1 173.17 394.1H174.57V396H172.77C171.744 396 170.957 395.76 170.41 395.28C169.864 394.8 169.59 394.02 169.59 392.94V386.84H168.29V384.98H169.59V382.24H171.89V384.98H174.57V386.84H171.89ZM177.832 383.52C177.419 383.52 177.072 383.38 176.792 383.1C176.512 382.82 176.372 382.473 176.372 382.06C176.372 381.647 176.512 381.3 176.792 381.02C177.072 380.74 177.419 380.6 177.832 380.6C178.232 380.6 178.572 380.74 178.852 381.02C179.132 381.3 179.272 381.647 179.272 382.06C179.272 382.473 179.132 382.82 178.852 383.1C178.572 383.38 178.232 383.52 177.832 383.52ZM178.952 384.98V396H176.672V384.98H178.952ZM186.725 396.18C185.685 396.18 184.745 395.947 183.905 395.48C183.065 395 182.405 394.333 181.925 393.48C181.445 392.613 181.205 391.613 181.205 390.48C181.205 389.36 181.452 388.367 181.945 387.5C182.439 386.633 183.112 385.967 183.965 385.5C184.819 385.033 185.772 384.8 186.825 384.8C187.879 384.8 188.832 385.033 189.685 385.5C190.539 385.967 191.212 386.633 191.705 387.5C192.199 388.367 192.445 389.36 192.445 390.48C192.445 391.6 192.192 392.593 191.685 393.46C191.179 394.327 190.485 395 189.605 395.48C188.739 395.947 187.779 396.18 186.725 396.18ZM186.725 394.2C187.312 394.2 187.859 394.06 188.365 393.78C188.885 393.5 189.305 393.08 189.625 392.52C189.945 391.96 190.105 391.28 190.105 390.48C190.105 389.68 189.952 389.007 189.645 388.46C189.339 387.9 188.932 387.48 188.425 387.2C187.919 386.92 187.372 386.78 186.785 386.78C186.199 386.78 185.652 386.92 185.145 387.2C184.652 387.48 184.259 387.9 183.965 388.46C183.672 389.007 183.525 389.68 183.525 390.48C183.525 391.667 183.825 392.587 184.425 393.24C185.039 393.88 185.805 394.2 186.725 394.2ZM200.259 384.8C201.126 384.8 201.899 384.98 202.579 385.34C203.273 385.7 203.813 386.233 204.199 386.94C204.586 387.647 204.779 388.5 204.779 389.5V396H202.519V389.84C202.519 388.853 202.273 388.1 201.779 387.58C201.286 387.047 200.613 386.78 199.759 386.78C198.906 386.78 198.226 387.047 197.719 387.58C197.226 388.1 196.979 388.853 196.979 389.84V396H194.699V384.98H196.979V386.24C197.353 385.787 197.826 385.433 198.399 385.18C198.986 384.927 199.606 384.8 200.259 384.8ZM211.688 396.18C210.821 396.18 210.041 396.027 209.348 395.72C208.668 395.4 208.128 394.973 207.728 394.44C207.328 393.893 207.114 393.287 207.088 392.62H209.448C209.488 393.087 209.708 393.48 210.108 393.8C210.521 394.107 211.034 394.26 211.648 394.26C212.288 394.26 212.781 394.14 213.128 393.9C213.488 393.647 213.668 393.327 213.668 392.94C213.668 392.527 213.468 392.22 213.068 392.02C212.681 391.82 212.061 391.6 211.208 391.36C210.381 391.133 209.708 390.913 209.188 390.7C208.668 390.487 208.214 390.16 207.828 389.72C207.454 389.28 207.268 388.7 207.268 387.98C207.268 387.393 207.441 386.86 207.788 386.38C208.134 385.887 208.628 385.5 209.268 385.22C209.921 384.94 210.668 384.8 211.508 384.8C212.761 384.8 213.768 385.12 214.528 385.76C215.301 386.387 215.714 387.247 215.768 388.34H213.488C213.448 387.847 213.248 387.453 212.888 387.16C212.528 386.867 212.041 386.72 211.428 386.72C210.828 386.72 210.368 386.833 210.048 387.06C209.728 387.287 209.568 387.587 209.568 387.96C209.568 388.253 209.674 388.5 209.888 388.7C210.101 388.9 210.361 389.06 210.668 389.18C210.974 389.287 211.428 389.427 212.028 389.6C212.828 389.813 213.481 390.033 213.988 390.26C214.508 390.473 214.954 390.793 215.328 391.22C215.701 391.647 215.894 392.213 215.908 392.92C215.908 393.547 215.734 394.107 215.388 394.6C215.041 395.093 214.548 395.48 213.908 395.76C213.281 396.04 212.541 396.18 211.688 396.18Z" fill="black"/>
<path d="M40.14 610.1V624H37.86V614.48L33.62 624H32.04L27.78 614.48V624H25.5V610.1H27.96L32.84 621L37.7 610.1H40.14ZM42.3767 618.44C42.3767 617.333 42.6034 616.353 43.0567 615.5C43.5234 614.647 44.1501 613.987 44.9367 613.52C45.7367 613.04 46.6167 612.8 47.5767 612.8C48.4434 612.8 49.1967 612.973 49.8367 613.32C50.4901 613.653 51.0101 614.073 51.3967 614.58V612.98H53.6967V624H51.3967V622.36C51.0101 622.88 50.4834 623.313 49.8167 623.66C49.1501 624.007 48.3901 624.18 47.5367 624.18C46.5901 624.18 45.7234 623.94 44.9367 623.46C44.1501 622.967 43.5234 622.287 43.0567 621.42C42.6034 620.54 42.3767 619.547 42.3767 618.44ZM51.3967 618.48C51.3967 617.72 51.2367 617.06 50.9167 616.5C50.6101 615.94 50.2034 615.513 49.6967 615.22C49.1901 614.927 48.6434 614.78 48.0567 614.78C47.4701 614.78 46.9234 614.927 46.4167 615.22C45.9101 615.5 45.4967 615.92 45.1767 616.48C44.8701 617.027 44.7167 617.68 44.7167 618.44C44.7167 619.2 44.8701 619.867 45.1767 620.44C45.4967 621.013 45.9101 621.453 46.4167 621.76C46.9367 622.053 47.4834 622.2 48.0567 622.2C48.6434 622.2 49.1901 622.053 49.6967 621.76C50.2034 621.467 50.6101 621.04 50.9167 620.48C51.2367 619.907 51.3967 619.24 51.3967 618.48ZM58.9714 614.6C59.3581 614.093 59.8847 613.667 60.5514 613.32C61.2181 612.973 61.9714 612.8 62.8114 612.8C63.7714 612.8 64.6447 613.04 65.4314 613.52C66.2314 613.987 66.8581 614.647 67.3114 615.5C67.7647 616.353 67.9914 617.333 67.9914 618.44C67.9914 619.547 67.7647 620.54 67.3114 621.42C66.8581 622.287 66.2314 622.967 65.4314 623.46C64.6447 623.94 63.7714 624.18 62.8114 624.18C61.9714 624.18 61.2247 624.013 60.5714 623.68C59.9181 623.333 59.3847 622.907 58.9714 622.4V629.24H56.6914V612.98H58.9714V614.6ZM65.6714 618.44C65.6714 617.68 65.5114 617.027 65.1914 616.48C64.8847 615.92 64.4714 615.5 63.9514 615.22C63.4447 614.927 62.8981 614.78 62.3114 614.78C61.7381 614.78 61.1914 614.927 60.6714 615.22C60.1647 615.513 59.7514 615.94 59.4314 616.5C59.1247 617.06 58.9714 617.72 58.9714 618.48C58.9714 619.24 59.1247 619.907 59.4314 620.48C59.7514 621.04 60.1647 621.467 60.6714 621.76C61.1914 622.053 61.7381 622.2 62.3114 622.2C62.8981 622.2 63.4447 622.053 63.9514 621.76C64.4714 621.453 64.8847 621.013 65.1914 620.44C65.5114 619.867 65.6714 619.2 65.6714 618.44ZM74.2461 624.18C73.3794 624.18 72.5994 624.027 71.9061 623.72C71.2261 623.4 70.6861 622.973 70.2861 622.44C69.8861 621.893 69.6728 621.287 69.6461 620.62H72.0061C72.0461 621.087 72.2661 621.48 72.6661 621.8C73.0794 622.107 73.5928 622.26 74.2061 622.26C74.8461 622.26 75.3394 622.14 75.6861 621.9C76.0461 621.647 76.2261 621.327 76.2261 620.94C76.2261 620.527 76.0261 620.22 75.6261 620.02C75.2394 619.82 74.6194 619.6 73.7661 619.36C72.9394 619.133 72.2661 618.913 71.7461 618.7C71.2261 618.487 70.7728 618.16 70.3861 617.72C70.0128 617.28 69.8261 616.7 69.8261 615.98C69.8261 615.393 69.9994 614.86 70.3461 614.38C70.6928 613.887 71.1861 613.5 71.8261 613.22C72.4794 612.94 73.2261 612.8 74.0661 612.8C75.3194 612.8 76.3261 613.12 77.0861 613.76C77.8594 614.387 78.2728 615.247 78.3261 616.34H76.0461C76.0061 615.847 75.8061 615.453 75.4461 615.16C75.0861 614.867 74.5994 614.72 73.9861 614.72C73.3861 614.72 72.9261 614.833 72.6061 615.06C72.2861 615.287 72.1261 615.587 72.1261 615.96C72.1261 616.253 72.2328 616.5 72.4461 616.7C72.6594 616.9 72.9194 617.06 73.2261 617.18C73.5328 617.287 73.9861 617.427 74.5861 617.6C75.3861 617.813 76.0394 618.033 76.5461 618.26C77.0661 618.473 77.5128 618.793 77.8861 619.22C78.2594 619.647 78.4528 620.213 78.4661 620.92C78.4661 621.547 78.2928 622.107 77.9461 622.6C77.5994 623.093 77.1061 623.48 76.4661 623.76C75.8394 624.04 75.0994 624.18 74.2461 624.18Z" fill="black"/>
<rect y="781" width="390" height="63" fill="#C4C4C4"/>
</g>
<defs>
<clipPath id="clip0_54_504">
<rect width="390" height="844" fill="white"/>
</clipPath>
</defs>
</svg>
