<svg width="390" height="844" viewBox="0 0 390 844" fill="none" xmlns="http://www.w3.org/2000/svg">
<g clip-path="url(#clip0_12_265)">
<rect width="390" height="844" fill="white"/>
<path d="M59.3641 118.848V120.032H54.5161V123.792H58.4521V124.976H54.5161V130H53.0601V118.848H59.3641ZM64.9466 130.144C64.1253 130.144 63.3786 129.957 62.7066 129.584C62.0453 129.211 61.5226 128.683 61.1386 128C60.7653 127.307 60.5786 126.507 60.5786 125.6C60.5786 124.704 60.7706 123.915 61.1546 123.232C61.5493 122.539 62.0826 122.011 62.7546 121.648C63.4266 121.275 64.1786 121.088 65.0106 121.088C65.8426 121.088 66.5946 121.275 67.2666 121.648C67.9386 122.011 68.4666 122.533 68.8506 123.216C69.2453 123.899 69.4426 124.693 69.4426 125.6C69.4426 126.507 69.24 127.307 68.8346 128C68.44 128.683 67.9013 129.211 67.2186 129.584C66.536 129.957 65.7786 130.144 64.9466 130.144ZM64.9466 128.864C65.4693 128.864 65.96 128.741 66.4186 128.496C66.8773 128.251 67.2453 127.883 67.5226 127.392C67.8106 126.901 67.9546 126.304 67.9546 125.6C67.9546 124.896 67.816 124.299 67.5386 123.808C67.2613 123.317 66.8986 122.955 66.4506 122.72C66.0026 122.475 65.5173 122.352 64.9946 122.352C64.4613 122.352 63.9706 122.475 63.5226 122.72C63.0853 122.955 62.7333 123.317 62.4666 123.808C62.2 124.299 62.0666 124.896 62.0666 125.6C62.0666 126.315 62.1946 126.917 62.4506 127.408C62.7173 127.899 63.0693 128.267 63.5066 128.512C63.944 128.747 64.424 128.864 64.9466 128.864ZM72.813 122.656C73.069 122.155 73.4317 121.765 73.901 121.488C74.381 121.211 74.9623 121.072 75.645 121.072V122.576H75.261C73.629 122.576 72.813 123.461 72.813 125.232V130H71.357V121.232H72.813V122.656ZM89.3994 118.848L85.7674 125.792V130H84.3114V125.792L80.6634 118.848H82.2794L85.0314 124.496L87.7834 118.848H89.3994ZM94.7591 130.144C93.9378 130.144 93.1911 129.957 92.5191 129.584C91.8578 129.211 91.3351 128.683 90.9511 128C90.5778 127.307 90.3911 126.507 90.3911 125.6C90.3911 124.704 90.5831 123.915 90.9671 123.232C91.3618 122.539 91.8951 122.011 92.5671 121.648C93.2391 121.275 93.9911 121.088 94.8231 121.088C95.6551 121.088 96.4071 121.275 97.0791 121.648C97.7511 122.011 98.2791 122.533 98.6631 123.216C99.0578 123.899 99.2551 124.693 99.2551 125.6C99.2551 126.507 99.0525 127.307 98.6471 128C98.2525 128.683 97.7138 129.211 97.0311 129.584C96.3485 129.957 95.5911 130.144 94.7591 130.144ZM94.7591 128.864C95.2818 128.864 95.7725 128.741 96.2311 128.496C96.6898 128.251 97.0578 127.883 97.3351 127.392C97.6231 126.901 97.7671 126.304 97.7671 125.6C97.7671 124.896 97.6285 124.299 97.3511 123.808C97.0738 123.317 96.7111 122.955 96.2631 122.72C95.8151 122.475 95.3298 122.352 94.8071 122.352C94.2738 122.352 93.7831 122.475 93.3351 122.72C92.8978 122.955 92.5458 123.317 92.2791 123.808C92.0125 124.299 91.8791 124.896 91.8791 125.6C91.8791 126.315 92.0071 126.917 92.2631 127.408C92.5298 127.899 92.8818 128.267 93.3191 128.512C93.7565 128.747 94.2365 128.864 94.7591 128.864ZM108.946 121.232V130H107.49V128.704C107.212 129.152 106.823 129.504 106.322 129.76C105.831 130.005 105.287 130.128 104.69 130.128C104.007 130.128 103.394 129.989 102.85 129.712C102.306 129.424 101.874 128.997 101.554 128.432C101.244 127.867 101.09 127.179 101.09 126.368V121.232H102.53V126.176C102.53 127.04 102.748 127.707 103.186 128.176C103.623 128.635 104.22 128.864 104.978 128.864C105.756 128.864 106.37 128.624 106.818 128.144C107.266 127.664 107.49 126.965 107.49 126.048V121.232H108.946Z" fill="#636363"/>
<path d="M168.489 118.848V120.032H163.641V123.792H167.577V124.976H163.641V130H162.185V118.848H168.489ZM169.704 125.584C169.704 124.688 169.885 123.904 170.248 123.232C170.61 122.549 171.106 122.021 171.736 121.648C172.376 121.275 173.085 121.088 173.864 121.088C174.632 121.088 175.298 121.253 175.864 121.584C176.429 121.915 176.85 122.331 177.128 122.832V121.232H178.6V130H177.128V128.368C176.84 128.88 176.408 129.307 175.832 129.648C175.266 129.979 174.605 130.144 173.848 130.144C173.069 130.144 172.365 129.952 171.736 129.568C171.106 129.184 170.61 128.645 170.248 127.952C169.885 127.259 169.704 126.469 169.704 125.584ZM177.128 125.6C177.128 124.939 176.994 124.363 176.728 123.872C176.461 123.381 176.098 123.008 175.64 122.752C175.192 122.485 174.696 122.352 174.152 122.352C173.608 122.352 173.112 122.48 172.664 122.736C172.216 122.992 171.858 123.365 171.592 123.856C171.325 124.347 171.192 124.923 171.192 125.584C171.192 126.256 171.325 126.843 171.592 127.344C171.858 127.835 172.216 128.213 172.664 128.48C173.112 128.736 173.608 128.864 174.152 128.864C174.696 128.864 175.192 128.736 175.64 128.48C176.098 128.213 176.461 127.835 176.728 127.344C176.994 126.843 177.128 126.261 177.128 125.6ZM184.324 128.656L187.044 121.232H188.596L185.156 130H183.46L180.02 121.232H181.588L184.324 128.656ZM193.853 130.144C193.032 130.144 192.285 129.957 191.613 129.584C190.952 129.211 190.429 128.683 190.045 128C189.672 127.307 189.485 126.507 189.485 125.6C189.485 124.704 189.677 123.915 190.061 123.232C190.456 122.539 190.989 122.011 191.661 121.648C192.333 121.275 193.085 121.088 193.917 121.088C194.749 121.088 195.501 121.275 196.173 121.648C196.845 122.011 197.373 122.533 197.757 123.216C198.152 123.899 198.349 124.693 198.349 125.6C198.349 126.507 198.146 127.307 197.741 128C197.346 128.683 196.808 129.211 196.125 129.584C195.442 129.957 194.685 130.144 193.853 130.144ZM193.853 128.864C194.376 128.864 194.866 128.741 195.325 128.496C195.784 128.251 196.152 127.883 196.429 127.392C196.717 126.901 196.861 126.304 196.861 125.6C196.861 124.896 196.722 124.299 196.445 123.808C196.168 123.317 195.805 122.955 195.357 122.72C194.909 122.475 194.424 122.352 193.901 122.352C193.368 122.352 192.877 122.475 192.429 122.72C191.992 122.955 191.64 123.317 191.373 123.808C191.106 124.299 190.973 124.896 190.973 125.6C190.973 126.315 191.101 126.917 191.357 127.408C191.624 127.899 191.976 128.267 192.413 128.512C192.85 128.747 193.33 128.864 193.853 128.864ZM201.719 122.656C201.975 122.155 202.338 121.765 202.807 121.488C203.287 121.211 203.869 121.072 204.551 121.072V122.576H204.167C202.535 122.576 201.719 123.461 201.719 125.232V130H200.263V121.232H201.719V122.656ZM206.984 119.808C206.707 119.808 206.472 119.712 206.28 119.52C206.088 119.328 205.992 119.093 205.992 118.816C205.992 118.539 206.088 118.304 206.28 118.112C206.472 117.92 206.707 117.824 206.984 117.824C207.251 117.824 207.475 117.92 207.656 118.112C207.848 118.304 207.944 118.539 207.944 118.816C207.944 119.093 207.848 119.328 207.656 119.52C207.475 119.712 207.251 119.808 206.984 119.808ZM207.688 121.232V130H206.232V121.232H207.688ZM211.946 122.432V127.6C211.946 128.027 212.036 128.331 212.218 128.512C212.399 128.683 212.714 128.768 213.161 128.768H214.234V130H212.922C212.111 130 211.503 129.813 211.098 129.44C210.692 129.067 210.49 128.453 210.49 127.6V122.432H209.354V121.232H210.49V119.024H211.946V121.232H214.234V122.432H211.946ZM223.998 125.28C223.998 125.557 223.982 125.851 223.95 126.16H216.942C216.995 127.024 217.288 127.701 217.822 128.192C218.366 128.672 219.022 128.912 219.79 128.912C220.419 128.912 220.942 128.768 221.358 128.48C221.784 128.181 222.083 127.787 222.254 127.296H223.822C223.587 128.139 223.118 128.827 222.414 129.36C221.71 129.883 220.835 130.144 219.79 130.144C218.958 130.144 218.211 129.957 217.55 129.584C216.899 129.211 216.387 128.683 216.014 128C215.64 127.307 215.454 126.507 215.454 125.6C215.454 124.693 215.635 123.899 215.998 123.216C216.36 122.533 216.867 122.011 217.518 121.648C218.179 121.275 218.936 121.088 219.79 121.088C220.622 121.088 221.358 121.269 221.998 121.632C222.638 121.995 223.128 122.496 223.47 123.136C223.822 123.765 223.998 124.48 223.998 125.28ZM222.494 124.976C222.494 124.421 222.371 123.947 222.126 123.552C221.88 123.147 221.544 122.843 221.118 122.64C220.702 122.427 220.238 122.32 219.726 122.32C218.99 122.32 218.36 122.555 217.838 123.024C217.326 123.493 217.032 124.144 216.958 124.976H222.494ZM229.024 130.144C228.352 130.144 227.749 130.032 227.216 129.808C226.682 129.573 226.261 129.253 225.952 128.848C225.642 128.432 225.472 127.957 225.44 127.424H226.944C226.986 127.861 227.189 128.219 227.552 128.496C227.925 128.773 228.41 128.912 229.008 128.912C229.562 128.912 230 128.789 230.32 128.544C230.64 128.299 230.8 127.989 230.8 127.616C230.8 127.232 230.629 126.949 230.288 126.768C229.946 126.576 229.418 126.389 228.704 126.208C228.053 126.037 227.52 125.867 227.104 125.696C226.698 125.515 226.346 125.253 226.048 124.912C225.76 124.56 225.616 124.101 225.616 123.536C225.616 123.088 225.749 122.677 226.016 122.304C226.282 121.931 226.661 121.637 227.152 121.424C227.642 121.2 228.202 121.088 228.832 121.088C229.802 121.088 230.586 121.333 231.184 121.824C231.781 122.315 232.101 122.987 232.144 123.84H230.688C230.656 123.381 230.469 123.013 230.128 122.736C229.797 122.459 229.349 122.32 228.784 122.32C228.261 122.32 227.845 122.432 227.536 122.656C227.226 122.88 227.072 123.173 227.072 123.536C227.072 123.824 227.162 124.064 227.344 124.256C227.536 124.437 227.77 124.587 228.048 124.704C228.336 124.811 228.73 124.933 229.232 125.072C229.861 125.243 230.373 125.413 230.768 125.584C231.162 125.744 231.498 125.989 231.776 126.32C232.064 126.651 232.213 127.083 232.224 127.616C232.224 128.096 232.09 128.528 231.824 128.912C231.557 129.296 231.178 129.6 230.688 129.824C230.208 130.037 229.653 130.144 229.024 130.144Z" fill="#636363"/>
<path d="M293.675 118.832L289.579 130H286.859L282.763 118.832H285.163L288.235 127.712L291.291 118.832H293.675ZM296.154 120.08C295.759 120.08 295.429 119.957 295.162 119.712C294.906 119.456 294.778 119.141 294.778 118.768C294.778 118.395 294.906 118.085 295.162 117.84C295.429 117.584 295.759 117.456 296.154 117.456C296.549 117.456 296.874 117.584 297.13 117.84C297.397 118.085 297.53 118.395 297.53 118.768C297.53 119.141 297.397 119.456 297.13 119.712C296.874 119.957 296.549 120.08 296.154 120.08ZM297.258 121.136V130H295.018V121.136H297.258ZM302.863 130.144C302.138 130.144 301.487 130.016 300.911 129.76C300.335 129.493 299.877 129.136 299.535 128.688C299.205 128.24 299.023 127.744 298.991 127.2H301.247C301.29 127.541 301.455 127.824 301.743 128.048C302.042 128.272 302.41 128.384 302.847 128.384C303.274 128.384 303.605 128.299 303.839 128.128C304.085 127.957 304.207 127.739 304.207 127.472C304.207 127.184 304.058 126.971 303.759 126.832C303.471 126.683 303.007 126.523 302.367 126.352C301.706 126.192 301.162 126.027 300.735 125.856C300.319 125.685 299.957 125.424 299.647 125.072C299.349 124.72 299.199 124.245 299.199 123.648C299.199 123.157 299.338 122.709 299.615 122.304C299.903 121.899 300.309 121.579 300.831 121.344C301.365 121.109 301.989 120.992 302.703 120.992C303.759 120.992 304.602 121.259 305.231 121.792C305.861 122.315 306.207 123.024 306.271 123.92H304.127C304.095 123.568 303.946 123.291 303.679 123.088C303.423 122.875 303.077 122.768 302.639 122.768C302.234 122.768 301.919 122.843 301.695 122.992C301.482 123.141 301.375 123.349 301.375 123.616C301.375 123.915 301.525 124.144 301.823 124.304C302.122 124.453 302.586 124.608 303.215 124.768C303.855 124.928 304.383 125.093 304.799 125.264C305.215 125.435 305.573 125.701 305.871 126.064C306.181 126.416 306.341 126.885 306.351 127.472C306.351 127.984 306.207 128.443 305.919 128.848C305.642 129.253 305.237 129.573 304.703 129.808C304.181 130.032 303.567 130.144 302.863 130.144ZM309.326 120.08C308.931 120.08 308.601 119.957 308.334 119.712C308.078 119.456 307.95 119.141 307.95 118.768C307.95 118.395 308.078 118.085 308.334 117.84C308.601 117.584 308.931 117.456 309.326 117.456C309.721 117.456 310.046 117.584 310.302 117.84C310.569 118.085 310.702 118.395 310.702 118.768C310.702 119.141 310.569 119.456 310.302 119.712C310.046 119.957 309.721 120.08 309.326 120.08ZM310.43 121.136V130H308.19V121.136H310.43ZM315.251 122.976V127.264C315.251 127.563 315.32 127.781 315.459 127.92C315.608 128.048 315.854 128.112 316.195 128.112H317.235V130H315.827C313.939 130 312.995 129.083 312.995 127.248V122.976H311.939V121.136H312.995V118.944H315.251V121.136H317.235V122.976H315.251ZM327.086 125.376C327.086 125.696 327.065 125.984 327.022 126.24H320.542C320.596 126.88 320.82 127.381 321.214 127.744C321.609 128.107 322.094 128.288 322.67 128.288C323.502 128.288 324.094 127.931 324.446 127.216H326.862C326.606 128.069 326.116 128.773 325.39 129.328C324.665 129.872 323.774 130.144 322.718 130.144C321.865 130.144 321.097 129.957 320.414 129.584C319.742 129.2 319.214 128.661 318.83 127.968C318.457 127.275 318.27 126.475 318.27 125.568C318.27 124.651 318.457 123.845 318.83 123.152C319.204 122.459 319.726 121.925 320.398 121.552C321.07 121.179 321.844 120.992 322.718 120.992C323.561 120.992 324.313 121.173 324.974 121.536C325.646 121.899 326.164 122.416 326.526 123.088C326.9 123.749 327.086 124.512 327.086 125.376ZM324.766 124.736C324.756 124.16 324.548 123.701 324.142 123.36C323.737 123.008 323.241 122.832 322.654 122.832C322.1 122.832 321.63 123.003 321.246 123.344C320.873 123.675 320.644 124.139 320.558 124.736H324.766ZM328.145 125.536C328.145 124.64 328.321 123.845 328.673 123.152C329.036 122.459 329.527 121.925 330.145 121.552C330.764 121.179 331.452 120.992 332.209 120.992C332.785 120.992 333.335 121.12 333.857 121.376C334.38 121.621 334.796 121.952 335.105 122.368V118.16H337.377V130H335.105V128.688C334.828 129.125 334.439 129.477 333.937 129.744C333.436 130.011 332.855 130.144 332.193 130.144C331.447 130.144 330.764 129.952 330.145 129.568C329.527 129.184 329.036 128.645 328.673 127.952C328.321 127.248 328.145 126.443 328.145 125.536ZM335.121 125.568C335.121 125.024 335.015 124.56 334.801 124.176C334.588 123.781 334.3 123.483 333.937 123.28C333.575 123.067 333.185 122.96 332.769 122.96C332.353 122.96 331.969 123.061 331.617 123.264C331.265 123.467 330.977 123.765 330.753 124.16C330.54 124.544 330.433 125.003 330.433 125.536C330.433 126.069 330.54 126.539 330.753 126.944C330.977 127.339 331.265 127.643 331.617 127.856C331.98 128.069 332.364 128.176 332.769 128.176C333.185 128.176 333.575 128.075 333.937 127.872C334.3 127.659 334.588 127.36 334.801 126.976C335.015 126.581 335.121 126.112 335.121 125.568Z" fill="black"/>
<circle cx="344" cy="60" r="15" fill="#C4C4C4"/>
<circle cx="344" cy="60" r="19" stroke="#D9D9D9" stroke-width="2"/>
<path d="M31 70H51" stroke="black" stroke-width="3" stroke-linecap="round" stroke-linejoin="round"/>
<path d="M31 60H61" stroke="black" stroke-width="3" stroke-linecap="round" stroke-linejoin="round"/>
<path d="M31 50H61" stroke="black" stroke-width="3" stroke-linecap="round" stroke-linejoin="round"/>
<rect x="155.27" y="43.2703" width="79.4595" height="32.973" fill="white" stroke="black" stroke-width="0.540541"/>
<path d="M178.074 64.3558H182.195V65.6054H176.538V53.8355H178.074V64.3558ZM187.863 65.7574C186.996 65.7574 186.208 65.5604 185.498 65.1664C184.8 64.7723 184.249 64.2151 183.844 63.4946C183.45 62.7628 183.253 61.9185 183.253 60.9616C183.253 60.016 183.455 59.1829 183.86 58.4624C184.277 57.7307 184.84 57.1734 185.549 56.7907C186.258 56.3966 187.052 56.1996 187.93 56.1996C188.808 56.1996 189.602 56.3966 190.311 56.7907C191.02 57.1734 191.578 57.725 191.983 58.4455C192.399 59.166 192.608 60.0047 192.608 60.9616C192.608 61.9185 192.394 62.7628 191.966 63.4946C191.549 64.2151 190.981 64.7723 190.26 65.1664C189.54 65.5604 188.741 65.7574 187.863 65.7574ZM187.863 64.4065C188.414 64.4065 188.932 64.277 189.416 64.0181C189.9 63.7592 190.289 63.3708 190.581 62.8529C190.885 62.3351 191.037 61.7046 191.037 60.9616C191.037 60.2186 190.891 59.5882 190.598 59.0703C190.305 58.5525 189.923 58.1697 189.45 57.9221C188.977 57.6631 188.465 57.5337 187.913 57.5337C187.35 57.5337 186.832 57.6631 186.36 57.9221C185.898 58.1697 185.527 58.5525 185.245 59.0703C184.964 59.5882 184.823 60.2186 184.823 60.9616C184.823 61.7159 184.958 62.3519 185.228 62.8698C185.51 63.3876 185.881 63.776 186.343 64.035C186.804 64.2826 187.311 64.4065 187.863 64.4065ZM198.444 56.1996C199.244 56.1996 199.942 56.3741 200.538 56.7231C201.146 57.0721 201.597 57.5112 201.889 58.0403V56.3516H203.443V65.808C203.443 66.6524 203.263 67.401 202.902 68.0539C202.542 68.7182 202.024 69.236 201.349 69.6075C200.685 69.979 199.908 70.1648 199.019 70.1648C197.803 70.1648 196.79 69.8777 195.979 69.3035C195.168 68.7294 194.69 67.947 194.544 66.9563H196.063C196.232 67.5192 196.581 67.9695 197.11 68.3072C197.64 68.6562 198.276 68.8307 199.019 68.8307C199.863 68.8307 200.55 68.5662 201.079 68.0371C201.619 67.508 201.889 66.7649 201.889 65.808V63.8661C201.585 64.4065 201.135 64.8568 200.538 65.217C199.942 65.5773 199.244 65.7574 198.444 65.7574C197.623 65.7574 196.874 65.5547 196.199 65.1495C195.534 64.7442 195.011 64.1757 194.628 63.4439C194.245 62.7122 194.054 61.8791 194.054 60.9447C194.054 59.9991 194.245 59.1717 194.628 58.4624C195.011 57.7419 195.534 57.1847 196.199 56.7907C196.874 56.3966 197.623 56.1996 198.444 56.1996ZM201.889 60.9616C201.889 60.2636 201.749 59.6557 201.467 59.1379C201.186 58.62 200.803 58.226 200.319 57.9558C199.846 57.6744 199.323 57.5337 198.748 57.5337C198.174 57.5337 197.651 57.6688 197.178 57.9389C196.705 58.2091 196.328 58.6031 196.047 59.121C195.765 59.6388 195.624 60.2468 195.624 60.9447C195.624 61.654 195.765 62.2731 196.047 62.8023C196.328 63.3201 196.705 63.7198 197.178 64.0012C197.651 64.2714 198.174 64.4065 198.748 64.4065C199.323 64.4065 199.846 64.2714 200.319 64.0012C200.803 63.7198 201.186 63.3201 201.467 62.8023C201.749 62.2731 201.889 61.6596 201.889 60.9616ZM210.076 65.7574C209.209 65.7574 208.421 65.5604 207.711 65.1664C207.013 64.7723 206.462 64.2151 206.057 63.4946C205.663 62.7628 205.466 61.9185 205.466 60.9616C205.466 60.016 205.668 59.1829 206.073 58.4624C206.49 57.7307 207.053 57.1734 207.762 56.7907C208.471 56.3966 209.265 56.1996 210.143 56.1996C211.021 56.1996 211.815 56.3966 212.524 56.7907C213.233 57.1734 213.791 57.725 214.196 58.4455C214.612 59.166 214.821 60.0047 214.821 60.9616C214.821 61.9185 214.607 62.7628 214.179 63.4946C213.762 64.2151 213.194 64.7723 212.473 65.1664C211.753 65.5604 210.954 65.7574 210.076 65.7574ZM210.076 64.4065C210.627 64.4065 211.145 64.277 211.629 64.0181C212.113 63.7592 212.502 63.3708 212.794 62.8529C213.098 62.3351 213.25 61.7046 213.25 60.9616C213.25 60.2186 213.104 59.5882 212.811 59.0703C212.518 58.5525 212.136 58.1697 211.663 57.9221C211.19 57.6631 210.678 57.5337 210.126 57.5337C209.563 57.5337 209.045 57.6631 208.573 57.9221C208.111 58.1697 207.74 58.5525 207.458 59.0703C207.177 59.5882 207.036 60.2186 207.036 60.9616C207.036 61.7159 207.171 62.3519 207.441 62.8698C207.723 63.3876 208.094 63.776 208.556 64.035C209.017 64.2826 209.524 64.4065 210.076 64.4065Z" fill="black"/>
<rect x="28.4429" y="200.443" width="154.114" height="97.2963" fill="#F1F1F1" stroke="black" stroke-width="0.885714"/>
<line y1="-0.442857" x2="181.352" y2="-0.442857" transform="matrix(0.84978 0.527138 -0.532531 0.84641 28 200.816)" stroke="black" stroke-width="0.885714"/>
<line y1="-0.442857" x2="182.046" y2="-0.442857" transform="matrix(-0.848243 0.529607 -0.535006 -0.844848 182.419 200)" stroke="black" stroke-width="0.885714"/>
<rect x="28.4429" y="297.064" width="154.114" height="57.4928" fill="white" stroke="black" stroke-width="0.885714"/>
<rect width="126.51" height="5.9156" transform="matrix(1 0 0 -1 34.9108 315.354)" fill="#C4C4C4"/>
<rect width="66.425" height="5.9156" transform="matrix(1 0 0 -1 34.9108 328.171)" fill="#C4C4C4"/>
<rect x="208.443" y="200.443" width="154.114" height="97.2963" fill="#F1F1F1" stroke="black" stroke-width="0.885714"/>
<line y1="-0.442857" x2="181.352" y2="-0.442857" transform="matrix(0.84978 0.527138 -0.532531 0.84641 208 200.816)" stroke="black" stroke-width="0.885714"/>
<line y1="-0.442857" x2="182.046" y2="-0.442857" transform="matrix(-0.848243 0.529607 -0.535006 -0.844848 362.419 200)" stroke="black" stroke-width="0.885714"/>
<rect x="208.443" y="297.064" width="154.114" height="57.4928" fill="white" stroke="black" stroke-width="0.885714"/>
<rect width="126.51" height="5.9156" transform="matrix(1 0 0 -1 214.911 315.354)" fill="#C4C4C4"/>
<rect width="66.425" height="5.9156" transform="matrix(1 0 0 -1 214.911 328.171)" fill="#C4C4C4"/>
<rect x="28.4429" y="379.443" width="154.114" height="97.2963" fill="#F1F1F1" stroke="black" stroke-width="0.885714"/>
<line y1="-0.442857" x2="181.352" y2="-0.442857" transform="matrix(0.84978 0.527138 -0.532531 0.84641 28 379.816)" stroke="black" stroke-width="0.885714"/>
<line y1="-0.442857" x2="182.046" y2="-0.442857" transform="matrix(-0.848243 0.529607 -0.535006 -0.844848 182.419 379)" stroke="black" stroke-width="0.885714"/>
<rect x="28.4429" y="476.064" width="154.114" height="57.4928" fill="white" stroke="black" stroke-width="0.885714"/>
<rect width="126.51" height="5.9156" transform="matrix(1 0 0 -1 34.9108 494.354)" fill="#C4C4C4"/>
<rect width="66.425" height="5.9156" transform="matrix(1 0 0 -1 34.9108 507.171)" fill="#C4C4C4"/>
<rect x="208.443" y="379.443" width="154.114" height="97.2963" fill="#F1F1F1" stroke="black" stroke-width="0.885714"/>
<line y1="-0.442857" x2="181.352" y2="-0.442857" transform="matrix(0.84978 0.527138 -0.532531 0.84641 208 379.816)" stroke="black" stroke-width="0.885714"/>
<line y1="-0.442857" x2="182.046" y2="-0.442857" transform="matrix(-0.848243 0.529607 -0.535006 -0.844848 362.419 379)" stroke="black" stroke-width="0.885714"/>
<rect x="208.443" y="476.064" width="154.114" height="57.4928" fill="white" stroke="black" stroke-width="0.885714"/>
<rect width="126.51" height="5.9156" transform="matrix(1 0 0 -1 214.911 494.354)" fill="#C4C4C4"/>
<rect width="66.425" height="5.9156" transform="matrix(1 0 0 -1 214.911 507.171)" fill="#C4C4C4"/>
<rect x="28.4429" y="558.443" width="154.114" height="97.2963" fill="#F1F1F1" stroke="black" stroke-width="0.885714"/>
<line y1="-0.442857" x2="181.352" y2="-0.442857" transform="matrix(0.84978 0.527138 -0.532531 0.84641 28 558.816)" stroke="black" stroke-width="0.885714"/>
<line y1="-0.442857" x2="182.046" y2="-0.442857" transform="matrix(-0.848243 0.529607 -0.535006 -0.844848 182.419 558)" stroke="black" stroke-width="0.885714"/>
<rect x="28.4429" y="655.064" width="154.114" height="57.4928" fill="white" stroke="black" stroke-width="0.885714"/>
<rect width="126.51" height="5.9156" transform="matrix(1 0 0 -1 34.9108 673.354)" fill="#C4C4C4"/>
<rect width="66.425" height="5.9156" transform="matrix(1 0 0 -1 34.9108 686.171)" fill="#C4C4C4"/>
<rect x="208.443" y="558.443" width="154.114" height="97.2963" fill="#F1F1F1" stroke="black" stroke-width="0.885714"/>
<line y1="-0.442857" x2="181.352" y2="-0.442857" transform="matrix(0.84978 0.527138 -0.532531 0.84641 208 558.816)" stroke="black" stroke-width="0.885714"/>
<line y1="-0.442857" x2="182.046" y2="-0.442857" transform="matrix(-0.848243 0.529607 -0.535006 -0.844848 362.419 558)" stroke="black" stroke-width="0.885714"/>
<rect x="208.443" y="655.064" width="154.114" height="57.4928" fill="white" stroke="black" stroke-width="0.885714"/>
<rect width="126.51" height="5.9156" transform="matrix(1 0 0 -1 214.911 673.354)" fill="#C4C4C4"/>
<rect width="66.425" height="5.9156" transform="matrix(1 0 0 -1 214.911 686.171)" fill="#C4C4C4"/>
<rect x="28.4429" y="737.443" width="154.114" height="97.2963" fill="#F1F1F1" stroke="black" stroke-width="0.885714"/>
<line y1="-0.442857" x2="181.352" y2="-0.442857" transform="matrix(0.84978 0.527138 -0.532531 0.84641 28 737.816)" stroke="black" stroke-width="0.885714"/>
<line y1="-0.442857" x2="182.046" y2="-0.442857" transform="matrix(-0.848243 0.529607 -0.535006 -0.844848 182.419 737)" stroke="black" stroke-width="0.885714"/>
<rect x="28.4429" y="834.064" width="154.114" height="57.4928" fill="white" stroke="black" stroke-width="0.885714"/>
<rect x="208.443" y="737.443" width="154.114" height="97.2963" fill="#F1F1F1" stroke="black" stroke-width="0.885714"/>
<line y1="-0.442857" x2="181.352" y2="-0.442857" transform="matrix(0.84978 0.527138 -0.532531 0.84641 208 737.816)" stroke="black" stroke-width="0.885714"/>
<line y1="-0.442857" x2="182.046" y2="-0.442857" transform="matrix(-0.848243 0.529607 -0.535006 -0.844848 362.419 737)" stroke="black" stroke-width="0.885714"/>
<rect x="208.443" y="834.064" width="154.114" height="57.4928" fill="white" stroke="black" stroke-width="0.885714"/>
<rect y="781" width="390" height="63" fill="#C4C4C4"/>
<path d="M64.594 165.742V166.778H60.352V170.068H63.796V171.104H60.352V175.5H59.078V165.742H64.594ZM66.7907 166.582C66.548 166.582 66.3427 166.498 66.1747 166.33C66.0067 166.162 65.9227 165.957 65.9227 165.714C65.9227 165.471 66.0067 165.266 66.1747 165.098C66.3427 164.93 66.548 164.846 66.7907 164.846C67.024 164.846 67.22 164.93 67.3787 165.098C67.5467 165.266 67.6307 165.471 67.6307 165.714C67.6307 165.957 67.5467 166.162 67.3787 166.33C67.22 166.498 67.024 166.582 66.7907 166.582ZM67.4067 167.828V175.5H66.1327V167.828H67.4067ZM70.852 165.14V175.5H69.578V165.14H70.852ZM74.5773 168.878V173.4C74.5773 173.773 74.6566 174.039 74.8153 174.198C74.974 174.347 75.2493 174.422 75.6413 174.422H76.5793V175.5H75.4313C74.722 175.5 74.19 175.337 73.8353 175.01C73.4806 174.683 73.3033 174.147 73.3033 173.4V168.878H72.3093V167.828H73.3033V165.896H74.5773V167.828H76.5793V168.878H74.5773ZM85.1229 171.37C85.1229 171.613 85.1089 171.869 85.0809 172.14H78.9489C78.9956 172.896 79.2523 173.489 79.7189 173.918C80.1949 174.338 80.7689 174.548 81.4409 174.548C81.9916 174.548 82.4489 174.422 82.8129 174.17C83.1863 173.909 83.4476 173.563 83.5969 173.134H84.9689C84.7636 173.871 84.3529 174.473 83.7369 174.94C83.1209 175.397 82.3556 175.626 81.4409 175.626C80.7129 175.626 80.0596 175.463 79.4809 175.136C78.9116 174.809 78.4636 174.347 78.1369 173.75C77.8103 173.143 77.6469 172.443 77.6469 171.65C77.6469 170.857 77.8056 170.161 78.1229 169.564C78.4403 168.967 78.8836 168.509 79.4529 168.192C80.0316 167.865 80.6943 167.702 81.4409 167.702C82.1689 167.702 82.8129 167.861 83.3729 168.178C83.9329 168.495 84.3623 168.934 84.6609 169.494C84.9689 170.045 85.1229 170.67 85.1229 171.37ZM83.8069 171.104C83.8069 170.619 83.6996 170.203 83.4849 169.858C83.2703 169.503 82.9763 169.237 82.6029 169.06C82.2389 168.873 81.8329 168.78 81.3849 168.78C80.7409 168.78 80.1903 168.985 79.7329 169.396C79.2849 169.807 79.0283 170.376 78.9629 171.104H83.8069ZM88.0786 169.074C88.3026 168.635 88.6199 168.295 89.0306 168.052C89.4506 167.809 89.9592 167.688 90.5566 167.688V169.004H90.2206C88.7926 169.004 88.0786 169.779 88.0786 171.328V175.5H86.8046V167.828H88.0786V169.074Z" fill="#636363"/>
<path d="M37.375 162.708C37.0988 162.708 36.8338 162.818 36.6385 163.013C36.4431 163.209 36.3334 163.474 36.3334 163.75C36.3334 164.026 36.4431 164.291 36.6385 164.487C36.8338 164.682 37.0988 164.792 37.375 164.792C37.6513 164.792 37.9162 164.682 38.1116 164.487C38.3069 164.291 38.4167 164.026 38.4167 163.75C38.4167 163.474 38.3069 163.209 38.1116 163.013C37.9162 162.818 37.6513 162.708 37.375 162.708ZM34.4271 162.708C34.6423 162.098 35.0414 161.57 35.5694 161.197C36.0974 160.823 36.7282 160.622 37.375 160.622C38.0218 160.622 38.6527 160.823 39.1806 161.197C39.7086 161.57 40.1077 162.098 40.3229 162.708H47.7917C48.068 162.708 48.3329 162.818 48.5283 163.013C48.7236 163.209 48.8334 163.474 48.8334 163.75C48.8334 164.026 48.7236 164.291 48.5283 164.487C48.3329 164.682 48.068 164.792 47.7917 164.792H40.3229C40.1077 165.402 39.7086 165.93 39.1806 166.303C38.6527 166.677 38.0218 166.878 37.375 166.878C36.7282 166.878 36.0974 166.677 35.5694 166.303C35.0414 165.93 34.6423 165.402 34.4271 164.792H33.2084C32.9321 164.792 32.6671 164.682 32.4718 164.487C32.2764 164.291 32.1667 164.026 32.1667 163.75C32.1667 163.474 32.2764 163.209 32.4718 163.013C32.6671 162.818 32.9321 162.708 33.2084 162.708H34.4271ZM43.625 168.958C43.3488 168.958 43.0838 169.068 42.8884 169.263C42.6931 169.459 42.5834 169.724 42.5834 170C42.5834 170.276 42.6931 170.541 42.8884 170.737C43.0838 170.932 43.3488 171.042 43.625 171.042C43.9013 171.042 44.1662 170.932 44.3616 170.737C44.5569 170.541 44.6667 170.276 44.6667 170C44.6667 169.724 44.5569 169.459 44.3616 169.263C44.1662 169.068 43.9013 168.958 43.625 168.958ZM40.6771 168.958C40.8923 168.348 41.2914 167.82 41.8194 167.447C42.3474 167.073 42.9782 166.872 43.625 166.872C44.2718 166.872 44.9027 167.073 45.4306 167.447C45.9586 167.82 46.3577 168.348 46.5729 168.958H47.7917C48.068 168.958 48.3329 169.068 48.5283 169.263C48.7236 169.459 48.8334 169.724 48.8334 170C48.8334 170.276 48.7236 170.541 48.5283 170.737C48.3329 170.932 48.068 171.042 47.7917 171.042H46.5729C46.3577 171.652 45.9586 172.18 45.4306 172.553C44.9027 172.927 44.2718 173.128 43.625 173.128C42.9782 173.128 42.3474 172.927 41.8194 172.553C41.2914 172.18 40.8923 171.652 40.6771 171.042H33.2084C32.9321 171.042 32.6671 170.932 32.4718 170.737C32.2764 170.541 32.1667 170.276 32.1667 170C32.1667 169.724 32.2764 169.459 32.4718 169.263C32.6671 169.068 32.9321 168.958 33.2084 168.958H40.6771ZM37.375 175.208C37.0988 175.208 36.8338 175.318 36.6385 175.513C36.4431 175.709 36.3334 175.974 36.3334 176.25C36.3334 176.526 36.4431 176.791 36.6385 176.987C36.8338 177.182 37.0988 177.292 37.375 177.292C37.6513 177.292 37.9162 177.182 38.1116 176.987C38.3069 176.791 38.4167 176.526 38.4167 176.25C38.4167 175.974 38.3069 175.709 38.1116 175.513C37.9162 175.318 37.6513 175.208 37.375 175.208ZM34.4271 175.208C34.6423 174.598 35.0414 174.07 35.5694 173.697C36.0974 173.323 36.7282 173.122 37.375 173.122C38.0218 173.122 38.6527 173.323 39.1806 173.697C39.7086 174.07 40.1077 174.598 40.3229 175.208H47.7917C48.068 175.208 48.3329 175.318 48.5283 175.513C48.7236 175.709 48.8334 175.974 48.8334 176.25C48.8334 176.526 48.7236 176.791 48.5283 176.987C48.3329 177.182 48.068 177.292 47.7917 177.292H40.3229C40.1077 177.902 39.7086 178.43 39.1806 178.803C38.6527 179.177 38.0218 179.378 37.375 179.378C36.7282 179.378 36.0974 179.177 35.5694 178.803C35.0414 178.43 34.6423 177.902 34.4271 177.292H33.2084C32.9321 177.292 32.6671 177.182 32.4718 176.987C32.2764 176.791 32.1667 176.526 32.1667 176.25C32.1667 175.974 32.2764 175.709 32.4718 175.513C32.6671 175.318 32.9321 175.208 33.2084 175.208H34.4271Z" fill="#636363"/>
<path d="M322.824 173.83H318.568L317.784 176H316.44L319.968 166.298H321.438L324.952 176H323.608L322.824 173.83ZM322.46 172.794L320.696 167.866L318.932 172.794H322.46ZM331.776 169.378V173.9C331.776 174.273 331.855 174.539 332.014 174.698C332.172 174.847 332.448 174.922 332.84 174.922H333.778V176H332.63C331.92 176 331.388 175.837 331.034 175.51C330.679 175.183 330.502 174.647 330.502 173.9V169.378H329.508V168.328H330.502V166.396H331.776V168.328H333.778V169.378H331.776ZM338.667 176.126C337.948 176.126 337.295 175.963 336.707 175.636C336.128 175.309 335.671 174.847 335.335 174.25C335.008 173.643 334.845 172.943 334.845 172.15C334.845 171.366 335.013 170.675 335.349 170.078C335.694 169.471 336.161 169.009 336.749 168.692C337.337 168.365 337.995 168.202 338.723 168.202C339.451 168.202 340.109 168.365 340.697 168.692C341.285 169.009 341.747 169.467 342.083 170.064C342.428 170.661 342.601 171.357 342.601 172.15C342.601 172.943 342.424 173.643 342.069 174.25C341.724 174.847 341.252 175.309 340.655 175.636C340.058 175.963 339.395 176.126 338.667 176.126ZM338.667 175.006C339.124 175.006 339.554 174.899 339.955 174.684C340.356 174.469 340.678 174.147 340.921 173.718C341.173 173.289 341.299 172.766 341.299 172.15C341.299 171.534 341.178 171.011 340.935 170.582C340.692 170.153 340.375 169.835 339.983 169.63C339.591 169.415 339.166 169.308 338.709 169.308C338.242 169.308 337.813 169.415 337.421 169.63C337.038 169.835 336.73 170.153 336.497 170.582C336.264 171.011 336.147 171.534 336.147 172.15C336.147 172.775 336.259 173.303 336.483 173.732C336.716 174.161 337.024 174.483 337.407 174.698C337.79 174.903 338.21 175.006 338.667 175.006ZM349.087 174.894H353.847V176H347.575V174.992L352.307 167.348H347.631V166.242H353.819V167.25L349.087 174.894Z" fill="#636363"/>
<path d="M308.09 164.844C308.195 164.99 308.338 165.072 308.487 165.072C308.636 165.072 308.779 164.99 308.884 164.844L309.423 164.094V174.708C309.423 174.916 309.482 175.114 309.588 175.261C309.693 175.407 309.836 175.49 309.985 175.49C310.134 175.49 310.277 175.407 310.382 175.261C310.488 175.114 310.547 174.916 310.547 174.708V164.094L311.086 164.844C311.138 164.921 311.2 164.982 311.269 165.025C311.337 165.067 311.412 165.09 311.487 165.092C311.563 165.094 311.638 165.075 311.708 165.036C311.778 164.996 311.841 164.938 311.894 164.864C311.948 164.789 311.99 164.701 312.018 164.604C312.046 164.506 312.06 164.402 312.059 164.297C312.058 164.192 312.041 164.089 312.01 163.993C311.98 163.897 311.935 163.811 311.88 163.74L310.382 161.656C310.277 161.51 310.134 161.428 309.985 161.428C309.836 161.428 309.693 161.51 309.588 161.656L308.09 163.74C307.985 163.886 307.926 164.085 307.926 164.292C307.926 164.499 307.985 164.697 308.09 164.844ZM304.554 174.906L305.094 174.156C305.145 174.079 305.207 174.018 305.276 173.975C305.345 173.933 305.419 173.91 305.495 173.908C305.57 173.906 305.645 173.925 305.715 173.964C305.785 174.004 305.849 174.062 305.902 174.136C305.955 174.211 305.997 174.299 306.026 174.396C306.054 174.494 306.068 174.598 306.066 174.703C306.065 174.808 306.049 174.911 306.018 175.007C305.987 175.103 305.943 175.189 305.888 175.26L304.39 177.344C304.284 177.49 304.141 177.572 303.993 177.572C303.844 177.572 303.701 177.49 303.596 177.344L302.097 175.26C302.042 175.189 301.998 175.103 301.967 175.007C301.937 174.911 301.92 174.808 301.919 174.703C301.917 174.598 301.931 174.494 301.959 174.396C301.988 174.299 302.03 174.211 302.083 174.136C302.136 174.062 302.2 174.004 302.27 173.964C302.34 173.925 302.415 173.906 302.49 173.908C302.566 173.91 302.64 173.933 302.709 173.975C302.778 174.018 302.84 174.079 302.891 174.156L303.431 174.906V164.292C303.431 164.084 303.49 163.886 303.595 163.739C303.701 163.593 303.844 163.51 303.993 163.51C304.142 163.51 304.284 163.593 304.39 163.739C304.495 163.886 304.554 164.084 304.554 164.292V174.906Z" fill="#636363"/>
</g>
<defs>
<clipPath id="clip0_12_265">
<rect width="390" height="844" fill="white"/>
</clipPath>
</defs>
</svg>
