<svg width="390" height="844" viewBox="0 0 390 844" fill="none" xmlns="http://www.w3.org/2000/svg">
<g clip-path="url(#clip0_12_4)">
<rect width="390" height="844" fill="white"/>
<path d="M58.0391 118.832V120.64H53.3831V123.504H56.9511V125.28H53.3831V130H51.1431V118.832H58.0391ZM63.5634 130.144C62.7101 130.144 61.9421 129.957 61.2594 129.584C60.5768 129.2 60.0381 128.661 59.6434 127.968C59.2594 127.275 59.0674 126.475 59.0674 125.568C59.0674 124.661 59.2648 123.861 59.6594 123.168C60.0648 122.475 60.6141 121.941 61.3074 121.568C62.0008 121.184 62.7741 120.992 63.6274 120.992C64.4808 120.992 65.2541 121.184 65.9474 121.568C66.6408 121.941 67.1848 122.475 67.5794 123.168C67.9848 123.861 68.1874 124.661 68.1874 125.568C68.1874 126.475 67.9794 127.275 67.5634 127.968C67.1581 128.661 66.6034 129.2 65.8994 129.584C65.2061 129.957 64.4274 130.144 63.5634 130.144ZM63.5634 128.192C63.9688 128.192 64.3474 128.096 64.6994 127.904C65.0621 127.701 65.3501 127.403 65.5634 127.008C65.7768 126.613 65.8834 126.133 65.8834 125.568C65.8834 124.725 65.6594 124.08 65.2114 123.632C64.7741 123.173 64.2354 122.944 63.5954 122.944C62.9554 122.944 62.4168 123.173 61.9794 123.632C61.5528 124.08 61.3394 124.725 61.3394 125.568C61.3394 126.411 61.5474 127.061 61.9634 127.52C62.3901 127.968 62.9234 128.192 63.5634 128.192ZM72.0706 122.512C72.3586 122.043 72.7319 121.675 73.1906 121.408C73.6599 121.141 74.1932 121.008 74.7906 121.008V123.36H74.1986C73.4946 123.36 72.9612 123.525 72.5986 123.856C72.2466 124.187 72.0706 124.763 72.0706 125.584V130H69.8306V121.136H72.0706V122.512ZM88.9918 118.832L85.2158 126.112V130H82.9758V126.112L79.1838 118.832H81.7118L84.1118 123.936L86.4958 118.832H88.9918ZM94.2197 130.144C93.3664 130.144 92.5984 129.957 91.9157 129.584C91.233 129.2 90.6944 128.661 90.2997 127.968C89.9157 127.275 89.7237 126.475 89.7237 125.568C89.7237 124.661 89.921 123.861 90.3157 123.168C90.721 122.475 91.2704 121.941 91.9637 121.568C92.657 121.184 93.4304 120.992 94.2837 120.992C95.137 120.992 95.9104 121.184 96.6037 121.568C97.297 121.941 97.841 122.475 98.2357 123.168C98.641 123.861 98.8437 124.661 98.8437 125.568C98.8437 126.475 98.6357 127.275 98.2197 127.968C97.8144 128.661 97.2597 129.2 96.5557 129.584C95.8624 129.957 95.0837 130.144 94.2197 130.144ZM94.2197 128.192C94.625 128.192 95.0037 128.096 95.3557 127.904C95.7184 127.701 96.0064 127.403 96.2197 127.008C96.433 126.613 96.5397 126.133 96.5397 125.568C96.5397 124.725 96.3157 124.08 95.8677 123.632C95.4304 123.173 94.8917 122.944 94.2517 122.944C93.6117 122.944 93.073 123.173 92.6357 123.632C92.209 124.08 91.9957 124.725 91.9957 125.568C91.9957 126.411 92.2037 127.061 92.6197 127.52C93.0464 127.968 93.5797 128.192 94.2197 128.192ZM108.855 121.136V130H106.599V128.88C106.311 129.264 105.932 129.568 105.463 129.792C105.004 130.005 104.503 130.112 103.959 130.112C103.265 130.112 102.652 129.968 102.119 129.68C101.585 129.381 101.164 128.949 100.855 128.384C100.556 127.808 100.407 127.125 100.407 126.336V121.136H102.647V126.016C102.647 126.72 102.823 127.264 103.175 127.648C103.527 128.021 104.007 128.208 104.615 128.208C105.233 128.208 105.719 128.021 106.071 127.648C106.423 127.264 106.599 126.72 106.599 126.016V121.136H108.855Z" fill="black"/>
<path d="M167.489 118.848V120.032H162.641V123.792H166.577V124.976H162.641V130H161.185V118.848H167.489ZM168.704 125.584C168.704 124.688 168.885 123.904 169.248 123.232C169.61 122.549 170.106 122.021 170.736 121.648C171.376 121.275 172.085 121.088 172.864 121.088C173.632 121.088 174.298 121.253 174.864 121.584C175.429 121.915 175.85 122.331 176.128 122.832V121.232H177.6V130H176.128V128.368C175.84 128.88 175.408 129.307 174.832 129.648C174.266 129.979 173.605 130.144 172.848 130.144C172.069 130.144 171.365 129.952 170.736 129.568C170.106 129.184 169.61 128.645 169.248 127.952C168.885 127.259 168.704 126.469 168.704 125.584ZM176.128 125.6C176.128 124.939 175.994 124.363 175.728 123.872C175.461 123.381 175.098 123.008 174.64 122.752C174.192 122.485 173.696 122.352 173.152 122.352C172.608 122.352 172.112 122.48 171.664 122.736C171.216 122.992 170.858 123.365 170.592 123.856C170.325 124.347 170.192 124.923 170.192 125.584C170.192 126.256 170.325 126.843 170.592 127.344C170.858 127.835 171.216 128.213 171.664 128.48C172.112 128.736 172.608 128.864 173.152 128.864C173.696 128.864 174.192 128.736 174.64 128.48C175.098 128.213 175.461 127.835 175.728 127.344C175.994 126.843 176.128 126.261 176.128 125.6ZM183.324 128.656L186.044 121.232H187.596L184.156 130H182.46L179.02 121.232H180.588L183.324 128.656ZM192.853 130.144C192.032 130.144 191.285 129.957 190.613 129.584C189.952 129.211 189.429 128.683 189.045 128C188.672 127.307 188.485 126.507 188.485 125.6C188.485 124.704 188.677 123.915 189.061 123.232C189.456 122.539 189.989 122.011 190.661 121.648C191.333 121.275 192.085 121.088 192.917 121.088C193.749 121.088 194.501 121.275 195.173 121.648C195.845 122.011 196.373 122.533 196.757 123.216C197.152 123.899 197.349 124.693 197.349 125.6C197.349 126.507 197.146 127.307 196.741 128C196.346 128.683 195.808 129.211 195.125 129.584C194.442 129.957 193.685 130.144 192.853 130.144ZM192.853 128.864C193.376 128.864 193.866 128.741 194.325 128.496C194.784 128.251 195.152 127.883 195.429 127.392C195.717 126.901 195.861 126.304 195.861 125.6C195.861 124.896 195.722 124.299 195.445 123.808C195.168 123.317 194.805 122.955 194.357 122.72C193.909 122.475 193.424 122.352 192.901 122.352C192.368 122.352 191.877 122.475 191.429 122.72C190.992 122.955 190.64 123.317 190.373 123.808C190.106 124.299 189.973 124.896 189.973 125.6C189.973 126.315 190.101 126.917 190.357 127.408C190.624 127.899 190.976 128.267 191.413 128.512C191.85 128.747 192.33 128.864 192.853 128.864ZM200.719 122.656C200.975 122.155 201.338 121.765 201.807 121.488C202.287 121.211 202.869 121.072 203.551 121.072V122.576H203.167C201.535 122.576 200.719 123.461 200.719 125.232V130H199.263V121.232H200.719V122.656ZM205.984 119.808C205.707 119.808 205.472 119.712 205.28 119.52C205.088 119.328 204.992 119.093 204.992 118.816C204.992 118.539 205.088 118.304 205.28 118.112C205.472 117.92 205.707 117.824 205.984 117.824C206.251 117.824 206.475 117.92 206.656 118.112C206.848 118.304 206.944 118.539 206.944 118.816C206.944 119.093 206.848 119.328 206.656 119.52C206.475 119.712 206.251 119.808 205.984 119.808ZM206.688 121.232V130H205.232V121.232H206.688ZM210.946 122.432V127.6C210.946 128.027 211.036 128.331 211.218 128.512C211.399 128.683 211.714 128.768 212.161 128.768H213.234V130H211.922C211.111 130 210.503 129.813 210.098 129.44C209.692 129.067 209.49 128.453 209.49 127.6V122.432H208.354V121.232H209.49V119.024H210.946V121.232H213.234V122.432H210.946ZM222.998 125.28C222.998 125.557 222.982 125.851 222.95 126.16H215.942C215.995 127.024 216.288 127.701 216.822 128.192C217.366 128.672 218.022 128.912 218.79 128.912C219.419 128.912 219.942 128.768 220.358 128.48C220.784 128.181 221.083 127.787 221.254 127.296H222.822C222.587 128.139 222.118 128.827 221.414 129.36C220.71 129.883 219.835 130.144 218.79 130.144C217.958 130.144 217.211 129.957 216.55 129.584C215.899 129.211 215.387 128.683 215.014 128C214.64 127.307 214.454 126.507 214.454 125.6C214.454 124.693 214.635 123.899 214.998 123.216C215.36 122.533 215.867 122.011 216.518 121.648C217.179 121.275 217.936 121.088 218.79 121.088C219.622 121.088 220.358 121.269 220.998 121.632C221.638 121.995 222.128 122.496 222.47 123.136C222.822 123.765 222.998 124.48 222.998 125.28ZM221.494 124.976C221.494 124.421 221.371 123.947 221.126 123.552C220.88 123.147 220.544 122.843 220.118 122.64C219.702 122.427 219.238 122.32 218.726 122.32C217.99 122.32 217.36 122.555 216.838 123.024C216.326 123.493 216.032 124.144 215.958 124.976H221.494ZM228.024 130.144C227.352 130.144 226.749 130.032 226.216 129.808C225.682 129.573 225.261 129.253 224.952 128.848C224.642 128.432 224.472 127.957 224.44 127.424H225.944C225.986 127.861 226.189 128.219 226.552 128.496C226.925 128.773 227.41 128.912 228.008 128.912C228.562 128.912 229 128.789 229.32 128.544C229.64 128.299 229.8 127.989 229.8 127.616C229.8 127.232 229.629 126.949 229.288 126.768C228.946 126.576 228.418 126.389 227.704 126.208C227.053 126.037 226.52 125.867 226.104 125.696C225.698 125.515 225.346 125.253 225.048 124.912C224.76 124.56 224.616 124.101 224.616 123.536C224.616 123.088 224.749 122.677 225.016 122.304C225.282 121.931 225.661 121.637 226.152 121.424C226.642 121.2 227.202 121.088 227.832 121.088C228.802 121.088 229.586 121.333 230.184 121.824C230.781 122.315 231.101 122.987 231.144 123.84H229.688C229.656 123.381 229.469 123.013 229.128 122.736C228.797 122.459 228.349 122.32 227.784 122.32C227.261 122.32 226.845 122.432 226.536 122.656C226.226 122.88 226.072 123.173 226.072 123.536C226.072 123.824 226.162 124.064 226.344 124.256C226.536 124.437 226.77 124.587 227.048 124.704C227.336 124.811 227.73 124.933 228.232 125.072C228.861 125.243 229.373 125.413 229.768 125.584C230.162 125.744 230.498 125.989 230.776 126.32C231.064 126.651 231.213 127.083 231.224 127.616C231.224 128.096 231.09 128.528 230.824 128.912C230.557 129.296 230.178 129.6 229.688 129.824C229.208 130.037 228.653 130.144 228.024 130.144Z" fill="#636363"/>
<path d="M293.143 118.848L288.935 130H287.255L283.047 118.848H284.599L288.103 128.464L291.607 118.848H293.143ZM295.492 119.808C295.214 119.808 294.98 119.712 294.788 119.52C294.596 119.328 294.5 119.093 294.5 118.816C294.5 118.539 294.596 118.304 294.788 118.112C294.98 117.92 295.214 117.824 295.492 117.824C295.758 117.824 295.982 117.92 296.164 118.112C296.356 118.304 296.452 118.539 296.452 118.816C296.452 119.093 296.356 119.328 296.164 119.52C295.982 119.712 295.758 119.808 295.492 119.808ZM296.196 121.232V130H294.74V121.232H296.196ZM301.781 130.144C301.109 130.144 300.507 130.032 299.973 129.808C299.44 129.573 299.019 129.253 298.709 128.848C298.4 128.432 298.229 127.957 298.197 127.424H299.701C299.744 127.861 299.947 128.219 300.309 128.496C300.683 128.773 301.168 128.912 301.765 128.912C302.32 128.912 302.757 128.789 303.077 128.544C303.397 128.299 303.557 127.989 303.557 127.616C303.557 127.232 303.387 126.949 303.045 126.768C302.704 126.576 302.176 126.389 301.461 126.208C300.811 126.037 300.277 125.867 299.861 125.696C299.456 125.515 299.104 125.253 298.805 124.912C298.517 124.56 298.373 124.101 298.373 123.536C298.373 123.088 298.507 122.677 298.773 122.304C299.04 121.931 299.419 121.637 299.909 121.424C300.4 121.2 300.96 121.088 301.589 121.088C302.56 121.088 303.344 121.333 303.941 121.824C304.539 122.315 304.859 122.987 304.901 123.84H303.445C303.413 123.381 303.227 123.013 302.885 122.736C302.555 122.459 302.107 122.32 301.541 122.32C301.019 122.32 300.603 122.432 300.293 122.656C299.984 122.88 299.829 123.173 299.829 123.536C299.829 123.824 299.92 124.064 300.101 124.256C300.293 124.437 300.528 124.587 300.805 124.704C301.093 124.811 301.488 124.933 301.989 125.072C302.619 125.243 303.131 125.413 303.525 125.584C303.92 125.744 304.256 125.989 304.533 126.32C304.821 126.651 304.971 127.083 304.981 127.616C304.981 128.096 304.848 128.528 304.581 128.912C304.315 129.296 303.936 129.6 303.445 129.824C302.965 130.037 302.411 130.144 301.781 130.144ZM307.789 119.808C307.511 119.808 307.277 119.712 307.085 119.52C306.893 119.328 306.797 119.093 306.797 118.816C306.797 118.539 306.893 118.304 307.085 118.112C307.277 117.92 307.511 117.824 307.789 117.824C308.055 117.824 308.279 117.92 308.461 118.112C308.653 118.304 308.749 118.539 308.749 118.816C308.749 119.093 308.653 119.328 308.461 119.52C308.279 119.712 308.055 119.808 307.789 119.808ZM308.493 121.232V130H307.037V121.232H308.493ZM312.75 122.432V127.6C312.75 128.027 312.841 128.331 313.022 128.512C313.204 128.683 313.518 128.768 313.966 128.768H315.038V130H313.726C312.916 130 312.308 129.813 311.902 129.44C311.497 129.067 311.294 128.453 311.294 127.6V122.432H310.158V121.232H311.294V119.024H312.75V121.232H315.038V122.432H312.75ZM324.802 125.28C324.802 125.557 324.786 125.851 324.754 126.16H317.746C317.8 127.024 318.093 127.701 318.626 128.192C319.17 128.672 319.826 128.912 320.594 128.912C321.224 128.912 321.746 128.768 322.162 128.48C322.589 128.181 322.888 127.787 323.058 127.296H324.626C324.392 128.139 323.922 128.827 323.218 129.36C322.514 129.883 321.64 130.144 320.594 130.144C319.762 130.144 319.016 129.957 318.354 129.584C317.704 129.211 317.192 128.683 316.818 128C316.445 127.307 316.258 126.507 316.258 125.6C316.258 124.693 316.44 123.899 316.802 123.216C317.165 122.533 317.672 122.011 318.322 121.648C318.984 121.275 319.741 121.088 320.594 121.088C321.426 121.088 322.162 121.269 322.802 121.632C323.442 121.995 323.933 122.496 324.274 123.136C324.626 123.765 324.802 124.48 324.802 125.28ZM323.298 124.976C323.298 124.421 323.176 123.947 322.93 123.552C322.685 123.147 322.349 122.843 321.922 122.64C321.506 122.427 321.042 122.32 320.53 122.32C319.794 122.32 319.165 122.555 318.642 123.024C318.13 123.493 317.837 124.144 317.762 124.976H323.298ZM326.18 125.584C326.18 124.688 326.362 123.904 326.724 123.232C327.087 122.549 327.583 122.021 328.212 121.648C328.852 121.275 329.567 121.088 330.356 121.088C331.039 121.088 331.674 121.248 332.26 121.568C332.847 121.877 333.295 122.288 333.604 122.8V118.16H335.076V130H333.604V128.352C333.316 128.875 332.89 129.307 332.324 129.648C331.759 129.979 331.098 130.144 330.34 130.144C329.562 130.144 328.852 129.952 328.212 129.568C327.583 129.184 327.087 128.645 326.724 127.952C326.362 127.259 326.18 126.469 326.18 125.584ZM333.604 125.6C333.604 124.939 333.471 124.363 333.204 123.872C332.938 123.381 332.575 123.008 332.116 122.752C331.668 122.485 331.172 122.352 330.628 122.352C330.084 122.352 329.588 122.48 329.14 122.736C328.692 122.992 328.335 123.365 328.068 123.856C327.802 124.347 327.668 124.923 327.668 125.584C327.668 126.256 327.802 126.843 328.068 127.344C328.335 127.835 328.692 128.213 329.14 128.48C329.588 128.736 330.084 128.864 330.628 128.864C331.172 128.864 331.668 128.736 332.116 128.48C332.575 128.213 332.938 127.835 333.204 127.344C333.471 126.843 333.604 126.261 333.604 125.6Z" fill="#636363"/>
<rect x="163" y="437" width="23" height="6" rx="3" fill="#636363"/>
<circle cx="193" cy="440" r="3" fill="#C4C4C4"/>
<circle cx="203" cy="440" r="3" fill="#C4C4C4"/>
<circle cx="213" cy="440" r="3" fill="#C4C4C4"/>
<circle cx="223" cy="440" r="3" fill="#C4C4C4"/>
<circle cx="344" cy="60" r="15" fill="#C4C4C4"/>
<circle cx="344" cy="60" r="19" stroke="#D9D9D9" stroke-width="2"/>
<path d="M31 70H51" stroke="black" stroke-width="3" stroke-linecap="round" stroke-linejoin="round"/>
<path d="M31 60H61" stroke="black" stroke-width="3" stroke-linecap="round" stroke-linejoin="round"/>
<path d="M31 50H61" stroke="black" stroke-width="3" stroke-linecap="round" stroke-linejoin="round"/>
<rect x="155.27" y="43.2703" width="79.4595" height="32.973" fill="white" stroke="black" stroke-width="0.540541"/>
<path d="M178.074 64.3558H182.195V65.6054H176.538V53.8355H178.074V64.3558ZM187.863 65.7574C186.996 65.7574 186.208 65.5604 185.498 65.1664C184.8 64.7723 184.249 64.2151 183.844 63.4946C183.45 62.7628 183.253 61.9185 183.253 60.9616C183.253 60.016 183.455 59.1829 183.86 58.4624C184.277 57.7307 184.84 57.1734 185.549 56.7907C186.258 56.3966 187.052 56.1996 187.93 56.1996C188.808 56.1996 189.602 56.3966 190.311 56.7907C191.02 57.1734 191.578 57.725 191.983 58.4455C192.399 59.166 192.608 60.0047 192.608 60.9616C192.608 61.9185 192.394 62.7628 191.966 63.4946C191.549 64.2151 190.981 64.7723 190.26 65.1664C189.54 65.5604 188.741 65.7574 187.863 65.7574ZM187.863 64.4065C188.414 64.4065 188.932 64.277 189.416 64.0181C189.9 63.7592 190.289 63.3708 190.581 62.8529C190.885 62.3351 191.037 61.7046 191.037 60.9616C191.037 60.2186 190.891 59.5882 190.598 59.0703C190.305 58.5525 189.923 58.1697 189.45 57.9221C188.977 57.6631 188.465 57.5337 187.913 57.5337C187.35 57.5337 186.832 57.6631 186.36 57.9221C185.898 58.1697 185.527 58.5525 185.245 59.0703C184.964 59.5882 184.823 60.2186 184.823 60.9616C184.823 61.7159 184.958 62.3519 185.228 62.8698C185.51 63.3876 185.881 63.776 186.343 64.035C186.804 64.2826 187.311 64.4065 187.863 64.4065ZM198.444 56.1996C199.244 56.1996 199.942 56.3741 200.538 56.7231C201.146 57.0721 201.597 57.5112 201.889 58.0403V56.3516H203.443V65.808C203.443 66.6524 203.263 67.401 202.902 68.0539C202.542 68.7182 202.024 69.236 201.349 69.6075C200.685 69.979 199.908 70.1648 199.019 70.1648C197.803 70.1648 196.79 69.8777 195.979 69.3035C195.168 68.7294 194.69 67.947 194.544 66.9563H196.063C196.232 67.5192 196.581 67.9695 197.11 68.3072C197.64 68.6562 198.276 68.8307 199.019 68.8307C199.863 68.8307 200.55 68.5662 201.079 68.0371C201.619 67.508 201.889 66.7649 201.889 65.808V63.8661C201.585 64.4065 201.135 64.8568 200.538 65.217C199.942 65.5773 199.244 65.7574 198.444 65.7574C197.623 65.7574 196.874 65.5547 196.199 65.1495C195.534 64.7442 195.011 64.1757 194.628 63.4439C194.245 62.7122 194.054 61.8791 194.054 60.9447C194.054 59.9991 194.245 59.1717 194.628 58.4624C195.011 57.7419 195.534 57.1847 196.199 56.7907C196.874 56.3966 197.623 56.1996 198.444 56.1996ZM201.889 60.9616C201.889 60.2636 201.749 59.6557 201.467 59.1379C201.186 58.62 200.803 58.226 200.319 57.9558C199.846 57.6744 199.323 57.5337 198.748 57.5337C198.174 57.5337 197.651 57.6688 197.178 57.9389C196.705 58.2091 196.328 58.6031 196.047 59.121C195.765 59.6388 195.624 60.2468 195.624 60.9447C195.624 61.654 195.765 62.2731 196.047 62.8023C196.328 63.3201 196.705 63.7198 197.178 64.0012C197.651 64.2714 198.174 64.4065 198.748 64.4065C199.323 64.4065 199.846 64.2714 200.319 64.0012C200.803 63.7198 201.186 63.3201 201.467 62.8023C201.749 62.2731 201.889 61.6596 201.889 60.9616ZM210.076 65.7574C209.209 65.7574 208.421 65.5604 207.711 65.1664C207.013 64.7723 206.462 64.2151 206.057 63.4946C205.663 62.7628 205.466 61.9185 205.466 60.9616C205.466 60.016 205.668 59.1829 206.073 58.4624C206.49 57.7307 207.053 57.1734 207.762 56.7907C208.471 56.3966 209.265 56.1996 210.143 56.1996C211.021 56.1996 211.815 56.3966 212.524 56.7907C213.233 57.1734 213.791 57.725 214.196 58.4455C214.612 59.166 214.821 60.0047 214.821 60.9616C214.821 61.9185 214.607 62.7628 214.179 63.4946C213.762 64.2151 213.194 64.7723 212.473 65.1664C211.753 65.5604 210.954 65.7574 210.076 65.7574ZM210.076 64.4065C210.627 64.4065 211.145 64.277 211.629 64.0181C212.113 63.7592 212.502 63.3708 212.794 62.8529C213.098 62.3351 213.25 61.7046 213.25 60.9616C213.25 60.2186 213.104 59.5882 212.811 59.0703C212.518 58.5525 212.136 58.1697 211.663 57.9221C211.19 57.6631 210.678 57.5337 210.126 57.5337C209.563 57.5337 209.045 57.6631 208.573 57.9221C208.111 58.1697 207.74 58.5525 207.458 59.0703C207.177 59.5882 207.036 60.2186 207.036 60.9616C207.036 61.7159 207.171 62.3519 207.441 62.8698C207.723 63.3876 208.094 63.776 208.556 64.035C209.017 64.2826 209.524 64.4065 210.076 64.4065Z" fill="black"/>
<rect x="27.7286" y="173.729" width="333.543" height="226.543" fill="#F1F1F1" stroke="black" stroke-width="1.45714"/>
<rect width="294.603" height="14" transform="matrix(1 0 0 -1 47 247)" fill="#C4C4C4"/>
<rect width="161.588" height="14" transform="matrix(1 0 0 -1 47 281)" fill="#C4C4C4"/>
<rect x="27.4429" y="545.443" width="154.114" height="97.2963" fill="#F1F1F1" stroke="black" stroke-width="0.885714"/>
<line y1="-0.442857" x2="181.352" y2="-0.442857" transform="matrix(0.84978 0.527138 -0.532531 0.84641 27 545.816)" stroke="black" stroke-width="0.885714"/>
<line y1="-0.442857" x2="182.046" y2="-0.442857" transform="matrix(-0.848243 0.529607 -0.535006 -0.844848 181.419 545)" stroke="black" stroke-width="0.885714"/>
<rect x="27.4429" y="642.064" width="154.114" height="57.4928" fill="white" stroke="black" stroke-width="0.885714"/>
<rect width="126.51" height="5.9156" transform="matrix(1 0 0 -1 33.9108 660.354)" fill="#C4C4C4"/>
<rect width="66.425" height="5.9156" transform="matrix(1 0 0 -1 33.9108 673.171)" fill="#C4C4C4"/>
<rect x="207.443" y="545.443" width="154.114" height="97.2963" fill="#F1F1F1" stroke="black" stroke-width="0.885714"/>
<line y1="-0.442857" x2="181.352" y2="-0.442857" transform="matrix(0.84978 0.527138 -0.532531 0.84641 207 545.816)" stroke="black" stroke-width="0.885714"/>
<line y1="-0.442857" x2="182.046" y2="-0.442857" transform="matrix(-0.848243 0.529607 -0.535006 -0.844848 361.419 545)" stroke="black" stroke-width="0.885714"/>
<rect x="207.443" y="642.064" width="154.114" height="57.4928" fill="white" stroke="black" stroke-width="0.885714"/>
<rect width="126.51" height="5.9156" transform="matrix(1 0 0 -1 213.911 660.354)" fill="#C4C4C4"/>
<rect width="66.425" height="5.9156" transform="matrix(1 0 0 -1 213.911 673.171)" fill="#C4C4C4"/>
<rect x="27.4429" y="724.443" width="154.114" height="97.2963" fill="#F1F1F1" stroke="black" stroke-width="0.885714"/>
<line y1="-0.442857" x2="181.352" y2="-0.442857" transform="matrix(0.84978 0.527138 -0.532531 0.84641 27 724.816)" stroke="black" stroke-width="0.885714"/>
<line y1="-0.442857" x2="182.046" y2="-0.442857" transform="matrix(-0.848243 0.529607 -0.535006 -0.844848 181.419 724)" stroke="black" stroke-width="0.885714"/>
<rect x="27.4429" y="821.064" width="154.114" height="57.4928" fill="white" stroke="black" stroke-width="0.885714"/>
<rect width="126.51" height="5.9156" transform="matrix(1 0 0 -1 33.9108 839.354)" fill="#C4C4C4"/>
<rect x="207.443" y="724.443" width="154.114" height="97.2963" fill="#F1F1F1" stroke="black" stroke-width="0.885714"/>
<line y1="-0.442857" x2="181.352" y2="-0.442857" transform="matrix(0.84978 0.527138 -0.532531 0.84641 207 724.816)" stroke="black" stroke-width="0.885714"/>
<line y1="-0.442857" x2="182.046" y2="-0.442857" transform="matrix(-0.848243 0.529607 -0.535006 -0.844848 361.419 724)" stroke="black" stroke-width="0.885714"/>
<rect x="207.443" y="821.064" width="154.114" height="57.4928" fill="white" stroke="black" stroke-width="0.885714"/>
<rect width="126.51" height="5.9156" transform="matrix(1 0 0 -1 213.911 839.354)" fill="#C4C4C4"/>
<path d="M29.688 491.816H33.592V493H28.232V481.848H29.688V491.816ZM38.9623 493.144C38.1409 493.144 37.3943 492.957 36.7223 492.584C36.0609 492.211 35.5383 491.683 35.1543 491C34.7809 490.307 34.5943 489.507 34.5943 488.6C34.5943 487.704 34.7863 486.915 35.1703 486.232C35.5649 485.539 36.0983 485.011 36.7703 484.648C37.4423 484.275 38.1943 484.088 39.0263 484.088C39.8583 484.088 40.6103 484.275 41.2823 484.648C41.9543 485.011 42.4823 485.533 42.8663 486.216C43.2609 486.899 43.4583 487.693 43.4583 488.6C43.4583 489.507 43.2556 490.307 42.8503 491C42.4556 491.683 41.9169 492.211 41.2343 492.584C40.5516 492.957 39.7943 493.144 38.9623 493.144ZM38.9623 491.864C39.4849 491.864 39.9756 491.741 40.4343 491.496C40.8929 491.251 41.2609 490.883 41.5383 490.392C41.8263 489.901 41.9703 489.304 41.9703 488.6C41.9703 487.896 41.8316 487.299 41.5543 486.808C41.2769 486.317 40.9143 485.955 40.4663 485.72C40.0183 485.475 39.5329 485.352 39.0103 485.352C38.4769 485.352 37.9863 485.475 37.5383 485.72C37.1009 485.955 36.7489 486.317 36.4823 486.808C36.2156 487.299 36.0823 487.896 36.0823 488.6C36.0823 489.315 36.2103 489.917 36.4663 490.408C36.7329 490.899 37.0849 491.267 37.5223 491.512C37.9596 491.747 38.4396 491.864 38.9623 491.864ZM44.8286 488.6C44.8286 487.693 45.01 486.904 45.3726 486.232C45.7353 485.549 46.2366 485.021 46.8766 484.648C47.5273 484.275 48.2686 484.088 49.1006 484.088C50.178 484.088 51.0633 484.349 51.7566 484.872C52.4606 485.395 52.9246 486.12 53.1486 487.048H51.5806C51.4313 486.515 51.138 486.093 50.7006 485.784C50.274 485.475 49.7406 485.32 49.1006 485.32C48.2686 485.32 47.5966 485.608 47.0846 486.184C46.5726 486.749 46.3166 487.555 46.3166 488.6C46.3166 489.656 46.5726 490.472 47.0846 491.048C47.5966 491.624 48.2686 491.912 49.1006 491.912C49.7406 491.912 50.274 491.763 50.7006 491.464C51.1273 491.165 51.4206 490.739 51.5806 490.184H53.1486C52.914 491.08 52.4446 491.8 51.7406 492.344C51.0366 492.877 50.1566 493.144 49.1006 493.144C48.2686 493.144 47.5273 492.957 46.8766 492.584C46.2366 492.211 45.7353 491.683 45.3726 491C45.01 490.317 44.8286 489.517 44.8286 488.6ZM54.5474 488.584C54.5474 487.688 54.7287 486.904 55.0914 486.232C55.454 485.549 55.95 485.021 56.5794 484.648C57.2194 484.275 57.9287 484.088 58.7074 484.088C59.4754 484.088 60.142 484.253 60.7074 484.584C61.2727 484.915 61.694 485.331 61.9714 485.832V484.232H63.4434V493H61.9714V491.368C61.6834 491.88 61.2514 492.307 60.6754 492.648C60.11 492.979 59.4487 493.144 58.6914 493.144C57.9127 493.144 57.2087 492.952 56.5794 492.568C55.95 492.184 55.454 491.645 55.0914 490.952C54.7287 490.259 54.5474 489.469 54.5474 488.584ZM61.9714 488.6C61.9714 487.939 61.838 487.363 61.5714 486.872C61.3047 486.381 60.942 486.008 60.4834 485.752C60.0354 485.485 59.5394 485.352 58.9954 485.352C58.4514 485.352 57.9554 485.48 57.5074 485.736C57.0594 485.992 56.702 486.365 56.4354 486.856C56.1687 487.347 56.0354 487.923 56.0354 488.584C56.0354 489.256 56.1687 489.843 56.4354 490.344C56.702 490.835 57.0594 491.213 57.5074 491.48C57.9554 491.736 58.4514 491.864 58.9954 491.864C59.5394 491.864 60.0354 491.736 60.4834 491.48C60.942 491.213 61.3047 490.835 61.5714 490.344C61.838 489.843 61.9714 489.261 61.9714 488.6ZM67.6799 485.432V490.6C67.6799 491.027 67.7705 491.331 67.9519 491.512C68.1332 491.683 68.4479 491.768 68.8959 491.768H69.9679V493H68.6559C67.8452 493 67.2372 492.813 66.8319 492.44C66.4265 492.067 66.2239 491.453 66.2239 490.6V485.432H65.0879V484.232H66.2239V482.024H67.6799V484.232H69.9679V485.432H67.6799ZM72.484 482.808C72.2067 482.808 71.972 482.712 71.78 482.52C71.588 482.328 71.492 482.093 71.492 481.816C71.492 481.539 71.588 481.304 71.78 481.112C71.972 480.92 72.2067 480.824 72.484 480.824C72.7507 480.824 72.9747 480.92 73.156 481.112C73.348 481.304 73.444 481.539 73.444 481.816C73.444 482.093 73.348 482.328 73.156 482.52C72.9747 482.712 72.7507 482.808 72.484 482.808ZM73.188 484.232V493H71.732V484.232H73.188ZM79.4935 493.144C78.6722 493.144 77.9255 492.957 77.2535 492.584C76.5922 492.211 76.0695 491.683 75.6855 491C75.3122 490.307 75.1255 489.507 75.1255 488.6C75.1255 487.704 75.3175 486.915 75.7015 486.232C76.0962 485.539 76.6295 485.011 77.3015 484.648C77.9735 484.275 78.7255 484.088 79.5575 484.088C80.3895 484.088 81.1415 484.275 81.8135 484.648C82.4855 485.011 83.0135 485.533 83.3975 486.216C83.7922 486.899 83.9895 487.693 83.9895 488.6C83.9895 489.507 83.7868 490.307 83.3815 491C82.9868 491.683 82.4482 492.211 81.7655 492.584C81.0828 492.957 80.3255 493.144 79.4935 493.144ZM79.4935 491.864C80.0162 491.864 80.5068 491.741 80.9655 491.496C81.4242 491.251 81.7922 490.883 82.0695 490.392C82.3575 489.901 82.5015 489.304 82.5015 488.6C82.5015 487.896 82.3628 487.299 82.0855 486.808C81.8082 486.317 81.4455 485.955 80.9975 485.72C80.5495 485.475 80.0642 485.352 79.5415 485.352C79.0082 485.352 78.5175 485.475 78.0695 485.72C77.6322 485.955 77.2802 486.317 77.0135 486.808C76.7468 487.299 76.6135 487.896 76.6135 488.6C76.6135 489.315 76.7415 489.917 76.9975 490.408C77.2642 490.899 77.6162 491.267 78.0535 491.512C78.4908 491.747 78.9708 491.864 79.4935 491.864ZM90.1759 484.072C91.2425 484.072 92.1065 484.397 92.7679 485.048C93.4292 485.688 93.7599 486.616 93.7599 487.832V493H92.3199V488.04C92.3199 487.165 92.1012 486.499 91.6639 486.04C91.2265 485.571 90.6292 485.336 89.8719 485.336C89.1039 485.336 88.4905 485.576 88.0319 486.056C87.5839 486.536 87.3599 487.235 87.3599 488.152V493H85.9039V484.232H87.3599V485.48C87.6479 485.032 88.0372 484.685 88.5279 484.44C89.0292 484.195 89.5785 484.072 90.1759 484.072Z" fill="#636363"/>
<path d="M51.616 503.832V511.672C51.616 512.76 51.3013 513.608 50.672 514.216C50.0427 514.813 49.2 515.112 48.144 515.112C47.0773 515.112 46.2133 514.803 45.552 514.184C44.9013 513.565 44.576 512.701 44.576 511.592H46.816C46.8267 512.072 46.9387 512.445 47.152 512.712C47.376 512.979 47.696 513.112 48.112 513.112C48.5173 513.112 48.8267 512.984 49.04 512.728C49.2533 512.472 49.36 512.12 49.36 511.672V503.832H51.616ZM53.653 510.536C53.653 509.64 53.829 508.845 54.181 508.152C54.5437 507.459 55.029 506.925 55.637 506.552C56.2557 506.179 56.9437 505.992 57.701 505.992C58.3623 505.992 58.9383 506.125 59.429 506.392C59.9303 506.659 60.3303 506.995 60.629 507.4V506.136H62.885V515H60.629V513.704C60.341 514.12 59.941 514.467 59.429 514.744C58.9277 515.011 58.3463 515.144 57.685 515.144C56.9383 515.144 56.2557 514.952 55.637 514.568C55.029 514.184 54.5437 513.645 54.181 512.952C53.829 512.248 53.653 511.443 53.653 510.536ZM60.629 510.568C60.629 510.024 60.5223 509.56 60.309 509.176C60.0957 508.781 59.8077 508.483 59.445 508.28C59.0823 508.067 58.693 507.96 58.277 507.96C57.861 507.96 57.477 508.061 57.125 508.264C56.773 508.467 56.485 508.765 56.261 509.16C56.0477 509.544 55.941 510.003 55.941 510.536C55.941 511.069 56.0477 511.539 56.261 511.944C56.485 512.339 56.773 512.643 57.125 512.856C57.4877 513.069 57.8717 513.176 58.277 513.176C58.693 513.176 59.0823 513.075 59.445 512.872C59.8077 512.659 60.0957 512.36 60.309 511.976C60.5223 511.581 60.629 511.112 60.629 510.568ZM70.3208 515L67.3128 511.224V515H65.0728V503.16H67.3128V509.896L70.2888 506.136H73.2008L69.2968 510.584L73.2328 515H70.3208ZM73.8405 510.536C73.8405 509.64 74.0165 508.845 74.3685 508.152C74.7312 507.459 75.2165 506.925 75.8245 506.552C76.4432 506.179 77.1312 505.992 77.8885 505.992C78.5498 505.992 79.1258 506.125 79.6165 506.392C80.1178 506.659 80.5178 506.995 80.8165 507.4V506.136H83.0725V515H80.8165V513.704C80.5285 514.12 80.1285 514.467 79.6165 514.744C79.1152 515.011 78.5338 515.144 77.8725 515.144C77.1258 515.144 76.4432 514.952 75.8245 514.568C75.2165 514.184 74.7312 513.645 74.3685 512.952C74.0165 512.248 73.8405 511.443 73.8405 510.536ZM80.8165 510.568C80.8165 510.024 80.7098 509.56 80.4965 509.176C80.2832 508.781 79.9952 508.483 79.6325 508.28C79.2698 508.067 78.8805 507.96 78.4645 507.96C78.0485 507.96 77.6645 508.061 77.3125 508.264C76.9605 508.467 76.6725 508.765 76.4485 509.16C76.2352 509.544 76.1285 510.003 76.1285 510.536C76.1285 511.069 76.2352 511.539 76.4485 511.944C76.6725 512.339 76.9605 512.643 77.3125 512.856C77.6752 513.069 78.0592 513.176 78.4645 513.176C78.8805 513.176 79.2698 513.075 79.6325 512.872C79.9952 512.659 80.2832 512.36 80.4965 511.976C80.7098 511.581 80.8165 511.112 80.8165 510.568ZM87.5003 507.512C87.7883 507.043 88.1616 506.675 88.6203 506.408C89.0896 506.141 89.6229 506.008 90.2203 506.008V508.36H89.6283C88.9243 508.36 88.3909 508.525 88.0283 508.856C87.6763 509.187 87.5003 509.763 87.5003 510.584V515H85.2603V506.136H87.5003V507.512ZM94.337 507.976V512.264C94.337 512.563 94.4063 512.781 94.545 512.92C94.6943 513.048 94.9397 513.112 95.281 513.112H96.321V515H94.913C93.025 515 92.081 514.083 92.081 512.248V507.976H91.025V506.136H92.081V503.944H94.337V506.136H96.321V507.976H94.337ZM97.3561 510.536C97.3561 509.64 97.5321 508.845 97.8841 508.152C98.2468 507.459 98.7321 506.925 99.3401 506.552C99.9588 506.179 100.647 505.992 101.404 505.992C102.065 505.992 102.641 506.125 103.132 506.392C103.633 506.659 104.033 506.995 104.332 507.4V506.136H106.588V515H104.332V513.704C104.044 514.12 103.644 514.467 103.132 514.744C102.631 515.011 102.049 515.144 101.388 515.144C100.641 515.144 99.9588 514.952 99.3401 514.568C98.7321 514.184 98.2468 513.645 97.8841 512.952C97.5321 512.248 97.3561 511.443 97.3561 510.536ZM104.332 510.568C104.332 510.024 104.225 509.56 104.012 509.176C103.799 508.781 103.511 508.483 103.148 508.28C102.785 508.067 102.396 507.96 101.98 507.96C101.564 507.96 101.18 508.061 100.828 508.264C100.476 508.467 100.188 508.765 99.9641 509.16C99.7508 509.544 99.6441 510.003 99.6441 510.536C99.6441 511.069 99.7508 511.539 99.9641 511.944C100.188 512.339 100.476 512.643 100.828 512.856C101.191 513.069 101.575 513.176 101.98 513.176C102.396 513.176 102.785 513.075 103.148 512.872C103.511 512.659 103.799 512.36 104.012 511.976C104.225 511.581 104.332 511.112 104.332 510.568ZM111.224 512.648L109.352 517.144H107.912L108.952 512.648H111.224ZM118.891 503.832V515H116.651V503.832H118.891ZM126.016 506.008C127.072 506.008 127.925 506.344 128.576 507.016C129.227 507.677 129.552 508.605 129.552 509.8V515H127.312V510.104C127.312 509.4 127.136 508.861 126.784 508.488C126.432 508.104 125.952 507.912 125.344 507.912C124.725 507.912 124.235 508.104 123.872 508.488C123.52 508.861 123.344 509.4 123.344 510.104V515H121.104V506.136H123.344V507.24C123.643 506.856 124.021 506.557 124.48 506.344C124.949 506.12 125.461 506.008 126.016 506.008ZM131.106 510.536C131.106 509.64 131.282 508.845 131.634 508.152C131.997 507.459 132.487 506.925 133.106 506.552C133.725 506.179 134.413 505.992 135.17 505.992C135.746 505.992 136.295 506.12 136.818 506.376C137.341 506.621 137.757 506.952 138.066 507.368V503.16H140.338V515H138.066V513.688C137.789 514.125 137.399 514.477 136.898 514.744C136.397 515.011 135.815 515.144 135.154 515.144C134.407 515.144 133.725 514.952 133.106 514.568C132.487 514.184 131.997 513.645 131.634 512.952C131.282 512.248 131.106 511.443 131.106 510.536ZM138.082 510.568C138.082 510.024 137.975 509.56 137.762 509.176C137.549 508.781 137.261 508.483 136.898 508.28C136.535 508.067 136.146 507.96 135.73 507.96C135.314 507.96 134.93 508.061 134.578 508.264C134.226 508.467 133.938 508.765 133.714 509.16C133.501 509.544 133.394 510.003 133.394 510.536C133.394 511.069 133.501 511.539 133.714 511.944C133.938 512.339 134.226 512.643 134.578 512.856C134.941 513.069 135.325 513.176 135.73 513.176C136.146 513.176 136.535 513.075 136.898 512.872C137.261 512.659 137.549 512.36 137.762 511.976C137.975 511.581 138.082 511.112 138.082 510.568ZM146.462 515.144C145.609 515.144 144.841 514.957 144.158 514.584C143.475 514.2 142.937 513.661 142.542 512.968C142.158 512.275 141.966 511.475 141.966 510.568C141.966 509.661 142.163 508.861 142.558 508.168C142.963 507.475 143.513 506.941 144.206 506.568C144.899 506.184 145.673 505.992 146.526 505.992C147.379 505.992 148.153 506.184 148.846 506.568C149.539 506.941 150.083 507.475 150.478 508.168C150.883 508.861 151.086 509.661 151.086 510.568C151.086 511.475 150.878 512.275 150.462 512.968C150.057 513.661 149.502 514.2 148.798 514.584C148.105 514.957 147.326 515.144 146.462 515.144ZM146.462 513.192C146.867 513.192 147.246 513.096 147.598 512.904C147.961 512.701 148.249 512.403 148.462 512.008C148.675 511.613 148.782 511.133 148.782 510.568C148.782 509.725 148.558 509.08 148.11 508.632C147.673 508.173 147.134 507.944 146.494 507.944C145.854 507.944 145.315 508.173 144.878 508.632C144.451 509.08 144.238 509.725 144.238 510.568C144.238 511.411 144.446 512.061 144.862 512.52C145.289 512.968 145.822 513.192 146.462 513.192ZM157.641 506.008C158.697 506.008 159.55 506.344 160.201 507.016C160.852 507.677 161.177 508.605 161.177 509.8V515H158.937V510.104C158.937 509.4 158.761 508.861 158.409 508.488C158.057 508.104 157.577 507.912 156.969 507.912C156.35 507.912 155.86 508.104 155.497 508.488C155.145 508.861 154.969 509.4 154.969 510.104V515H152.729V506.136H154.969V507.24C155.268 506.856 155.646 506.557 156.105 506.344C156.574 506.12 157.086 506.008 157.641 506.008ZM171.547 510.376C171.547 510.696 171.526 510.984 171.483 511.24H165.003C165.056 511.88 165.28 512.381 165.675 512.744C166.07 513.107 166.555 513.288 167.131 513.288C167.963 513.288 168.555 512.931 168.907 512.216H171.323C171.067 513.069 170.576 513.773 169.851 514.328C169.126 514.872 168.235 515.144 167.179 515.144C166.326 515.144 165.558 514.957 164.875 514.584C164.203 514.2 163.675 513.661 163.291 512.968C162.918 512.275 162.731 511.475 162.731 510.568C162.731 509.651 162.918 508.845 163.291 508.152C163.664 507.459 164.187 506.925 164.859 506.552C165.531 506.179 166.304 505.992 167.179 505.992C168.022 505.992 168.774 506.173 169.435 506.536C170.107 506.899 170.624 507.416 170.987 508.088C171.36 508.749 171.547 509.512 171.547 510.376ZM169.227 509.736C169.216 509.16 169.008 508.701 168.603 508.36C168.198 508.008 167.702 507.832 167.115 507.832C166.56 507.832 166.091 508.003 165.707 508.344C165.334 508.675 165.104 509.139 165.019 509.736H169.227ZM176.574 515.144C175.849 515.144 175.198 515.016 174.622 514.76C174.046 514.493 173.587 514.136 173.246 513.688C172.915 513.24 172.734 512.744 172.702 512.2H174.958C175.001 512.541 175.166 512.824 175.454 513.048C175.753 513.272 176.121 513.384 176.558 513.384C176.985 513.384 177.315 513.299 177.55 513.128C177.795 512.957 177.918 512.739 177.918 512.472C177.918 512.184 177.769 511.971 177.47 511.832C177.182 511.683 176.718 511.523 176.078 511.352C175.417 511.192 174.873 511.027 174.446 510.856C174.03 510.685 173.667 510.424 173.358 510.072C173.059 509.72 172.91 509.245 172.91 508.648C172.91 508.157 173.049 507.709 173.326 507.304C173.614 506.899 174.019 506.579 174.542 506.344C175.075 506.109 175.699 505.992 176.414 505.992C177.47 505.992 178.313 506.259 178.942 506.792C179.571 507.315 179.918 508.024 179.982 508.92H177.838C177.806 508.568 177.657 508.291 177.39 508.088C177.134 507.875 176.787 507.768 176.35 507.768C175.945 507.768 175.63 507.843 175.406 507.992C175.193 508.141 175.086 508.349 175.086 508.616C175.086 508.915 175.235 509.144 175.534 509.304C175.833 509.453 176.297 509.608 176.926 509.768C177.566 509.928 178.094 510.093 178.51 510.264C178.926 510.435 179.283 510.701 179.582 511.064C179.891 511.416 180.051 511.885 180.062 512.472C180.062 512.984 179.918 513.443 179.63 513.848C179.353 514.253 178.947 514.573 178.414 514.808C177.891 515.032 177.278 515.144 176.574 515.144ZM183.037 505.08C182.642 505.08 182.312 504.957 182.045 504.712C181.789 504.456 181.661 504.141 181.661 503.768C181.661 503.395 181.789 503.085 182.045 502.84C182.312 502.584 182.642 502.456 183.037 502.456C183.432 502.456 183.757 502.584 184.013 502.84C184.28 503.085 184.413 503.395 184.413 503.768C184.413 504.141 184.28 504.456 184.013 504.712C183.757 504.957 183.432 505.08 183.037 505.08ZM184.141 506.136V515H181.901V506.136H184.141ZM185.778 510.536C185.778 509.64 185.954 508.845 186.306 508.152C186.669 507.459 187.154 506.925 187.762 506.552C188.381 506.179 189.069 505.992 189.826 505.992C190.487 505.992 191.063 506.125 191.554 506.392C192.055 506.659 192.455 506.995 192.754 507.4V506.136H195.01V515H192.754V513.704C192.466 514.12 192.066 514.467 191.554 514.744C191.053 515.011 190.471 515.144 189.81 515.144C189.063 515.144 188.381 514.952 187.762 514.568C187.154 514.184 186.669 513.645 186.306 512.952C185.954 512.248 185.778 511.443 185.778 510.536ZM192.754 510.568C192.754 510.024 192.647 509.56 192.434 509.176C192.221 508.781 191.933 508.483 191.57 508.28C191.207 508.067 190.818 507.96 190.402 507.96C189.986 507.96 189.602 508.061 189.25 508.264C188.898 508.467 188.61 508.765 188.386 509.16C188.173 509.544 188.066 510.003 188.066 510.536C188.066 511.069 188.173 511.539 188.386 511.944C188.61 512.339 188.898 512.643 189.25 512.856C189.613 513.069 189.997 513.176 190.402 513.176C190.818 513.176 191.207 513.075 191.57 512.872C191.933 512.659 192.221 512.36 192.434 511.976C192.647 511.581 192.754 511.112 192.754 510.568Z" fill="#323232"/>
<path d="M32.9618 509.452C33.3717 509.452 33.7227 509.306 34.0148 509.014C34.3064 508.722 34.4522 508.372 34.4522 507.962C34.4522 507.552 34.3064 507.201 34.0148 506.909C33.7227 506.617 33.3717 506.471 32.9618 506.471C32.5519 506.471 32.2012 506.617 31.9095 506.909C31.6174 507.201 31.4713 507.552 31.4713 507.962C31.4713 508.372 31.6174 508.722 31.9095 509.014C32.2012 509.306 32.5519 509.452 32.9618 509.452ZM32.9618 516.625C32.8624 516.625 32.7631 516.606 32.6637 516.569C32.5643 516.532 32.4774 516.482 32.4029 516.42C30.5895 514.818 29.2357 513.331 28.3414 511.958C27.4471 510.586 27 509.303 27 508.111C27 506.248 27.5994 504.764 28.7982 503.658C29.9965 502.553 31.3844 502 32.9618 502C34.5392 502 35.927 502.553 37.1253 503.658C38.3242 504.764 38.9236 506.248 38.9236 508.111C38.9236 509.303 38.4764 510.586 37.5822 511.958C36.6879 513.331 35.3341 514.818 33.5207 516.42C33.4462 516.482 33.3592 516.532 33.2599 516.569C33.1605 516.606 33.0611 516.625 32.9618 516.625Z" fill="#3D3D3D"/>
<path d="M211.802 508.387L207.369 513.823C207.317 513.887 207.259 513.933 207.198 513.959C207.136 513.986 207.07 514 207 514C206.93 514 206.864 513.986 206.802 513.959C206.741 513.933 206.683 513.887 206.631 513.823L202.185 508.387C202.062 508.237 202 508.048 202 507.823C202 507.597 202.066 507.403 202.198 507.242C202.33 507.081 202.484 507 202.66 507C202.836 507 202.989 507.081 203.121 507.242L207 511.984L210.879 507.242C211.002 507.091 211.153 507.016 211.334 507.016C211.514 507.016 211.67 507.097 211.802 507.258C211.934 507.419 212 507.608 212 507.823C212 508.038 211.934 508.226 211.802 508.387Z" fill="#636363"/>
<rect y="781" width="390" height="63" fill="#C4C4C4"/>
<rect x="45" y="312" width="300" height="45" rx="10" fill="white"/>
<path d="M75.6388 333.522C75.6388 337.676 72.2139 341.044 67.9892 341.044C63.7644 341.044 60.3396 337.676 60.3396 333.522C60.3396 329.368 63.7644 326 67.9892 326C72.2139 326 75.6388 329.368 75.6388 333.522ZM61.7601 333.522C61.7601 336.905 64.5489 339.647 67.9892 339.647C71.4294 339.647 74.2183 336.905 74.2183 333.522C74.2183 330.139 71.4294 327.397 67.9892 327.397C64.5489 327.397 61.7601 330.139 61.7601 333.522Z" fill="#636363"/>
<line y1="-0.752212" x2="7.72815" y2="-0.752212" transform="matrix(0.788313 0.615274 -0.628094 0.778137 72.9124 338.245)" stroke="#636363" stroke-width="1.50442"/>
<path d="M96.248 331.273C96.1799 330.697 95.9033 330.25 95.4185 329.932C94.9336 329.614 94.3389 329.455 93.6344 329.455C93.1193 329.455 92.6685 329.538 92.2821 329.705C91.8996 329.871 91.6003 330.1 91.3844 330.392C91.1723 330.684 91.0662 331.015 91.0662 331.386C91.0662 331.697 91.1401 331.964 91.2878 332.188C91.4393 332.407 91.6325 332.591 91.8674 332.739C92.1022 332.883 92.3484 333.002 92.606 333.097C92.8636 333.187 93.1003 333.261 93.3162 333.318L94.498 333.636C94.8011 333.716 95.1382 333.826 95.5094 333.966C95.8844 334.106 96.2424 334.297 96.5833 334.54C96.928 334.778 97.2121 335.085 97.4355 335.46C97.659 335.835 97.7708 336.295 97.7708 336.841C97.7708 337.47 97.606 338.038 97.2764 338.545C96.9507 339.053 96.4734 339.456 95.8446 339.756C95.2196 340.055 94.4602 340.205 93.5662 340.205C92.7329 340.205 92.0113 340.07 91.4014 339.801C90.7954 339.532 90.3181 339.157 89.9696 338.676C89.6249 338.195 89.4299 337.636 89.3844 337H90.8389C90.8768 337.439 91.0246 337.803 91.2821 338.091C91.5435 338.375 91.873 338.587 92.2708 338.727C92.6723 338.864 93.1041 338.932 93.5662 338.932C94.1041 338.932 94.5871 338.845 95.0151 338.67C95.4431 338.492 95.7821 338.246 96.0321 337.932C96.2821 337.614 96.4071 337.242 96.4071 336.818C96.4071 336.432 96.2992 336.117 96.0833 335.875C95.8674 335.633 95.5833 335.436 95.231 335.284C94.8787 335.133 94.498 335 94.0889 334.886L92.6571 334.477C91.748 334.216 91.0283 333.843 90.498 333.358C89.9677 332.873 89.7026 332.239 89.7026 331.455C89.7026 330.803 89.8787 330.235 90.231 329.75C90.5871 329.261 91.0643 328.883 91.6628 328.614C92.2651 328.341 92.9374 328.205 93.6799 328.205C94.4299 328.205 95.0965 328.339 95.6799 328.608C96.2632 328.873 96.7253 329.237 97.0662 329.699C97.4109 330.161 97.5927 330.686 97.6117 331.273H96.248ZM103.565 340.182C102.724 340.182 101.999 339.996 101.389 339.625C100.783 339.25 100.315 338.727 99.9853 338.057C99.6595 337.383 99.4966 336.598 99.4966 335.705C99.4966 334.811 99.6595 334.023 99.9853 333.341C100.315 332.655 100.773 332.121 101.36 331.739C101.951 331.352 102.641 331.159 103.428 331.159C103.883 331.159 104.332 331.235 104.775 331.386C105.218 331.538 105.622 331.784 105.985 332.125C106.349 332.462 106.639 332.909 106.855 333.466C107.07 334.023 107.178 334.708 107.178 335.523V336.091H100.451V334.932H105.815C105.815 334.439 105.716 334 105.519 333.614C105.326 333.227 105.05 332.922 104.69 332.699C104.334 332.475 103.913 332.364 103.428 332.364C102.894 332.364 102.432 332.496 102.042 332.761C101.656 333.023 101.358 333.364 101.15 333.784C100.942 334.205 100.838 334.655 100.838 335.136V335.909C100.838 336.568 100.951 337.127 101.178 337.585C101.409 338.04 101.73 338.386 102.139 338.625C102.548 338.86 103.023 338.977 103.565 338.977C103.917 338.977 104.235 338.928 104.519 338.83C104.807 338.727 105.055 338.576 105.264 338.375C105.472 338.17 105.633 337.917 105.747 337.614L107.042 337.977C106.906 338.417 106.677 338.803 106.355 339.136C106.033 339.466 105.635 339.723 105.161 339.909C104.688 340.091 104.156 340.182 103.565 340.182ZM111.786 340.205C111.233 340.205 110.731 340.1 110.281 339.892C109.83 339.68 109.472 339.375 109.207 338.977C108.942 338.576 108.809 338.091 108.809 337.523C108.809 337.023 108.908 336.617 109.105 336.307C109.302 335.992 109.565 335.746 109.894 335.568C110.224 335.39 110.588 335.258 110.985 335.17C111.387 335.08 111.79 335.008 112.195 334.955C112.726 334.886 113.156 334.835 113.485 334.801C113.819 334.763 114.061 334.701 114.213 334.614C114.368 334.527 114.445 334.375 114.445 334.159V334.114C114.445 333.553 114.292 333.117 113.985 332.807C113.682 332.496 113.222 332.341 112.605 332.341C111.964 332.341 111.463 332.481 111.099 332.761C110.735 333.042 110.48 333.341 110.332 333.659L109.059 333.205C109.286 332.674 109.589 332.261 109.968 331.966C110.351 331.667 110.767 331.458 111.218 331.341C111.673 331.22 112.12 331.159 112.559 331.159C112.839 331.159 113.161 331.193 113.525 331.261C113.892 331.326 114.247 331.46 114.588 331.665C114.932 331.869 115.218 332.178 115.445 332.591C115.673 333.004 115.786 333.557 115.786 334.25V340H114.445V338.818H114.377C114.286 339.008 114.135 339.21 113.923 339.426C113.711 339.642 113.428 339.826 113.076 339.977C112.724 340.129 112.294 340.205 111.786 340.205ZM111.991 339C112.521 339 112.968 338.896 113.332 338.688C113.699 338.479 113.976 338.21 114.161 337.881C114.351 337.551 114.445 337.205 114.445 336.841V335.614C114.389 335.682 114.264 335.744 114.07 335.801C113.881 335.854 113.661 335.902 113.411 335.943C113.165 335.981 112.925 336.015 112.69 336.045C112.459 336.072 112.271 336.095 112.127 336.114C111.779 336.159 111.453 336.233 111.15 336.335C110.851 336.434 110.608 336.583 110.423 336.784C110.241 336.981 110.15 337.25 110.15 337.591C110.15 338.057 110.322 338.409 110.667 338.648C111.016 338.883 111.457 339 111.991 339ZM118.234 340V331.273H119.529V332.591H119.62C119.779 332.159 120.067 331.809 120.484 331.54C120.901 331.271 121.37 331.136 121.893 331.136C121.991 331.136 122.115 331.138 122.262 331.142C122.41 331.146 122.522 331.152 122.597 331.159V332.523C122.552 332.511 122.448 332.494 122.285 332.472C122.126 332.445 121.957 332.432 121.779 332.432C121.355 332.432 120.976 332.521 120.643 332.699C120.313 332.873 120.052 333.116 119.859 333.426C119.669 333.733 119.575 334.083 119.575 334.477V340H118.234ZM127.467 340.182C126.649 340.182 125.944 339.989 125.353 339.602C124.762 339.216 124.308 338.684 123.99 338.006C123.671 337.328 123.512 336.553 123.512 335.682C123.512 334.795 123.675 334.013 124.001 333.335C124.33 332.653 124.789 332.121 125.376 331.739C125.967 331.352 126.656 331.159 127.444 331.159C128.058 331.159 128.611 331.273 129.103 331.5C129.596 331.727 129.999 332.045 130.313 332.455C130.628 332.864 130.823 333.341 130.899 333.886H129.558C129.455 333.489 129.228 333.136 128.876 332.83C128.527 332.519 128.058 332.364 127.467 332.364C126.944 332.364 126.486 332.5 126.092 332.773C125.702 333.042 125.397 333.422 125.177 333.915C124.961 334.403 124.853 334.977 124.853 335.636C124.853 336.311 124.959 336.898 125.171 337.398C125.387 337.898 125.69 338.286 126.08 338.562C126.474 338.839 126.936 338.977 127.467 338.977C127.815 338.977 128.132 338.917 128.416 338.795C128.7 338.674 128.94 338.5 129.137 338.273C129.334 338.045 129.474 337.773 129.558 337.455H130.899C130.823 337.97 130.635 338.434 130.336 338.847C130.041 339.256 129.649 339.581 129.16 339.824C128.675 340.062 128.111 340.182 127.467 340.182ZM134.2 334.75V340H132.859V328.364H134.2V332.636H134.313C134.518 332.186 134.825 331.828 135.234 331.562C135.647 331.294 136.196 331.159 136.882 331.159C137.476 331.159 137.997 331.278 138.444 331.517C138.891 331.752 139.238 332.114 139.484 332.602C139.734 333.087 139.859 333.705 139.859 334.455V340H138.518V334.545C138.518 333.852 138.338 333.316 137.978 332.938C137.622 332.555 137.128 332.364 136.495 332.364C136.056 332.364 135.662 332.456 135.313 332.642C134.969 332.828 134.696 333.098 134.495 333.455C134.298 333.811 134.2 334.242 134.2 334.75Z" fill="#AFAFAF"/>
</g>
<defs>
<clipPath id="clip0_12_4">
<rect width="390" height="844" fill="white"/>
</clipPath>
</defs>
</svg>
