<svg width="1920" height="464" viewBox="0 0 1920 464" fill="none" xmlns="http://www.w3.org/2000/svg">
<path d="M582.026 276.727H494.604L473.721 334.407C473.319 335.626 472.676 336.752 471.831 337.719C470.986 338.685 469.956 339.472 468.801 340.034C467.646 340.595 466.391 340.919 465.109 340.987C463.826 341.054 462.544 340.864 461.336 340.428C460.129 339.991 459.022 339.316 458.079 338.444C457.137 337.572 456.379 336.52 455.851 335.35C455.323 334.18 455.034 332.915 455.003 331.632C454.972 330.348 455.198 329.072 455.669 327.877L520.71 148.244C522.024 144.63 524.418 141.508 527.568 139.301C530.717 137.095 534.469 135.911 538.315 135.911C542.16 135.911 545.913 137.095 549.062 139.301C552.212 141.508 554.606 144.63 555.92 148.244L620.961 327.877C621.39 329.063 621.581 330.322 621.523 331.582C621.465 332.842 621.16 334.079 620.624 335.221C620.089 336.363 619.333 337.388 618.402 338.238C617.47 339.088 616.38 339.746 615.193 340.175C614.007 340.604 612.748 340.795 611.488 340.737C610.228 340.679 608.992 340.373 607.85 339.838C606.708 339.302 605.683 338.547 604.833 337.615C603.983 336.683 603.324 335.593 602.896 334.407L582.026 276.727ZM640.051 211.455C651.741 189.907 674.659 183.223 694.901 183.223C708.307 183.223 721.584 187.218 731.75 194.555C742.005 201.942 749.572 213.184 749.572 227.178V331.142C749.572 333.689 748.561 336.131 746.76 337.932C744.959 339.733 742.516 340.745 739.97 340.745C737.423 340.745 734.98 339.733 733.18 337.932C731.379 336.131 730.367 333.689 730.367 331.142V330.374L729.804 330.694C718.37 337.352 702.968 340.745 685.619 340.745C672.162 340.745 659.397 336.712 649.833 328.607C640.103 320.374 634.251 308.403 634.251 294.012C634.251 282.246 638.72 270.185 649.206 261.197C659.577 252.311 674.813 247.279 694.901 247.279H730.367V227.178C730.367 220.738 727 214.797 720.521 210.124C713.953 205.386 704.709 202.442 694.901 202.442C678.014 202.442 663.802 207.947 656.926 220.622C655.697 222.834 653.644 224.47 651.214 225.177C648.784 225.883 646.174 225.601 643.95 224.393C641.727 223.185 640.07 221.149 639.34 218.726C638.61 216.303 638.866 213.69 640.051 211.455ZM575.061 257.522L538.315 156.016L501.569 257.522H575.061ZM730.367 266.484H694.901C677.86 266.484 667.579 270.748 661.702 275.78C659.061 278.017 656.951 280.813 655.525 283.967C654.099 287.12 653.392 290.552 653.457 294.012C653.457 302.834 656.875 309.415 662.24 313.947C667.745 318.62 675.875 321.539 685.619 321.539C700.765 321.539 712.532 318.531 720.15 314.101C727.602 309.747 730.367 304.626 730.367 299.581V266.484Z" fill="#E3E3E3"/>
<path d="M825.548 131.252C825.548 133.34 824.828 135.08 823.388 136.472C821.972 137.84 819.8 138.524 816.872 138.524H812.048V149H808.772V123.908H816.872C819.704 123.908 821.852 124.592 823.316 125.96C824.804 127.328 825.548 129.092 825.548 131.252ZM816.872 135.824C818.696 135.824 820.04 135.428 820.904 134.636C821.768 133.844 822.2 132.716 822.2 131.252C822.2 128.156 820.424 126.608 816.872 126.608H812.048V135.824H816.872ZM838.224 149.324C836.376 149.324 834.696 148.904 833.184 148.064C831.696 147.224 830.52 146.036 829.656 144.5C828.816 142.94 828.396 141.14 828.396 139.1C828.396 137.084 828.828 135.308 829.692 133.772C830.58 132.212 831.78 131.024 833.292 130.208C834.804 129.368 836.496 128.948 838.368 128.948C840.24 128.948 841.932 129.368 843.444 130.208C844.956 131.024 846.144 132.2 847.008 133.736C847.896 135.272 848.34 137.06 848.34 139.1C848.34 141.14 847.884 142.94 846.972 144.5C846.084 146.036 844.872 147.224 843.336 148.064C841.8 148.904 840.096 149.324 838.224 149.324ZM838.224 146.444C839.4 146.444 840.504 146.168 841.536 145.616C842.568 145.064 843.396 144.236 844.02 143.132C844.668 142.028 844.992 140.684 844.992 139.1C844.992 137.516 844.68 136.172 844.056 135.068C843.432 133.964 842.616 133.148 841.608 132.62C840.6 132.068 839.508 131.792 838.332 131.792C837.132 131.792 836.028 132.068 835.02 132.62C834.036 133.148 833.244 133.964 832.644 135.068C832.044 136.172 831.744 137.516 831.744 139.1C831.744 140.708 832.032 142.064 832.608 143.168C833.208 144.272 834 145.1 834.984 145.652C835.968 146.18 837.048 146.444 838.224 146.444ZM855.923 132.908C856.571 131.78 857.531 130.844 858.803 130.1C860.099 129.332 861.599 128.948 863.303 128.948C865.055 128.948 866.639 129.368 868.055 130.208C869.495 131.048 870.623 132.236 871.439 133.772C872.255 135.284 872.663 137.048 872.663 139.064C872.663 141.056 872.255 142.832 871.439 144.392C870.623 145.952 869.495 147.164 868.055 148.028C866.639 148.892 865.055 149.324 863.303 149.324C861.623 149.324 860.135 148.952 858.839 148.208C857.567 147.44 856.595 146.492 855.923 145.364V158.36H852.647V129.272H855.923V132.908ZM869.315 139.064C869.315 137.576 869.015 136.28 868.415 135.176C867.815 134.072 866.999 133.232 865.967 132.656C864.959 132.08 863.843 131.792 862.619 131.792C861.419 131.792 860.303 132.092 859.271 132.692C858.263 133.268 857.447 134.12 856.823 135.248C856.223 136.352 855.923 137.636 855.923 139.1C855.923 140.588 856.223 141.896 856.823 143.024C857.447 144.128 858.263 144.98 859.271 145.58C860.303 146.156 861.419 146.444 862.619 146.444C863.843 146.444 864.959 146.156 865.967 145.58C866.999 144.98 867.815 144.128 868.415 143.024C869.015 141.896 869.315 140.576 869.315 139.064ZM880.251 132.908C880.899 131.78 881.859 130.844 883.131 130.1C884.427 129.332 885.927 128.948 887.631 128.948C889.383 128.948 890.967 129.368 892.383 130.208C893.823 131.048 894.951 132.236 895.767 133.772C896.583 135.284 896.991 137.048 896.991 139.064C896.991 141.056 896.583 142.832 895.767 144.392C894.951 145.952 893.823 147.164 892.383 148.028C890.967 148.892 889.383 149.324 887.631 149.324C885.951 149.324 884.463 148.952 883.167 148.208C881.895 147.44 880.923 146.492 880.251 145.364V158.36H876.975V129.272H880.251V132.908ZM893.643 139.064C893.643 137.576 893.343 136.28 892.743 135.176C892.143 134.072 891.327 133.232 890.295 132.656C889.287 132.08 888.171 131.792 886.947 131.792C885.747 131.792 884.631 132.092 883.599 132.692C882.591 133.268 881.775 134.12 881.151 135.248C880.551 136.352 880.251 137.636 880.251 139.1C880.251 140.588 880.551 141.896 881.151 143.024C881.775 144.128 882.591 144.98 883.599 145.58C884.631 146.156 885.747 146.444 886.947 146.444C888.171 146.444 889.287 146.156 890.295 145.58C891.327 144.98 892.143 144.128 892.743 143.024C893.343 141.896 893.643 140.576 893.643 139.064ZM902.995 126.068C902.371 126.068 901.843 125.852 901.411 125.42C900.979 124.988 900.763 124.46 900.763 123.836C900.763 123.212 900.979 122.684 901.411 122.252C901.843 121.82 902.371 121.604 902.995 121.604C903.595 121.604 904.099 121.82 904.507 122.252C904.939 122.684 905.155 123.212 905.155 123.836C905.155 124.46 904.939 124.988 904.507 125.42C904.099 125.852 903.595 126.068 902.995 126.068ZM904.579 129.272V149H901.303V129.272H904.579ZM919.775 128.912C922.175 128.912 924.119 129.644 925.607 131.108C927.095 132.548 927.839 134.636 927.839 137.372V149H924.599V137.84C924.599 135.872 924.107 134.372 923.123 133.34C922.139 132.284 920.795 131.756 919.091 131.756C917.363 131.756 915.983 132.296 914.951 133.376C913.943 134.456 913.439 136.028 913.439 138.092V149H910.163V129.272H913.439V132.08C914.087 131.072 914.963 130.292 916.067 129.74C917.195 129.188 918.431 128.912 919.775 128.912ZM940.174 149.324C938.662 149.324 937.306 149.072 936.106 148.568C934.906 148.04 933.958 147.32 933.262 146.408C932.566 145.472 932.182 144.404 932.11 143.204H935.494C935.59 144.188 936.046 144.992 936.862 145.616C937.702 146.24 938.794 146.552 940.138 146.552C941.386 146.552 942.37 146.276 943.09 145.724C943.81 145.172 944.17 144.476 944.17 143.636C944.17 142.772 943.786 142.136 943.018 141.728C942.25 141.296 941.062 140.876 939.454 140.468C937.99 140.084 936.79 139.7 935.854 139.316C934.942 138.908 934.15 138.32 933.478 137.552C932.83 136.76 932.506 135.728 932.506 134.456C932.506 133.448 932.806 132.524 933.406 131.684C934.006 130.844 934.858 130.184 935.962 129.704C937.066 129.2 938.326 128.948 939.742 128.948C941.926 128.948 943.69 129.5 945.034 130.604C946.378 131.708 947.098 133.22 947.194 135.14H943.918C943.846 134.108 943.426 133.28 942.658 132.656C941.914 132.032 940.906 131.72 939.634 131.72C938.458 131.72 937.522 131.972 936.826 132.476C936.13 132.98 935.782 133.64 935.782 134.456C935.782 135.104 935.986 135.644 936.394 136.076C936.826 136.484 937.354 136.82 937.978 137.084C938.626 137.324 939.514 137.6 940.642 137.912C942.058 138.296 943.21 138.68 944.098 139.064C944.986 139.424 945.742 139.976 946.366 140.72C947.014 141.464 947.35 142.436 947.374 143.636C947.374 144.716 947.074 145.688 946.474 146.552C945.874 147.416 945.022 148.1 943.918 148.604C942.838 149.084 941.59 149.324 940.174 149.324ZM974.808 149L968.832 138.74H964.872V149H961.596V123.908H969.696C971.592 123.908 973.188 124.232 974.484 124.88C975.804 125.528 976.788 126.404 977.436 127.508C978.084 128.612 978.408 129.872 978.408 131.288C978.408 133.016 977.904 134.54 976.896 135.86C975.912 137.18 974.424 138.056 972.432 138.488L978.732 149H974.808ZM964.872 136.112H969.696C971.472 136.112 972.804 135.68 973.692 134.816C974.58 133.928 975.024 132.752 975.024 131.288C975.024 129.8 974.58 128.648 973.692 127.832C972.828 127.016 971.496 126.608 969.696 126.608H964.872V136.112ZM1001.5 138.38C1001.5 139.004 1001.46 139.664 1001.39 140.36H985.623C985.743 142.304 986.403 143.828 987.603 144.932C988.827 146.012 990.303 146.552 992.031 146.552C993.447 146.552 994.623 146.228 995.559 145.58C996.519 144.908 997.191 144.02 997.575 142.916H1001.1C1000.57 144.812 999.519 146.36 997.935 147.56C996.351 148.736 994.383 149.324 992.031 149.324C990.159 149.324 988.479 148.904 986.991 148.064C985.527 147.224 984.375 146.036 983.535 144.5C982.695 142.94 982.275 141.14 982.275 139.1C982.275 137.06 982.683 135.272 983.499 133.736C984.315 132.2 985.455 131.024 986.919 130.208C988.407 129.368 990.111 128.948 992.031 128.948C993.903 128.948 995.559 129.356 996.999 130.172C998.439 130.988 999.543 132.116 1000.31 133.556C1001.1 134.972 1001.5 136.58 1001.5 138.38ZM998.115 137.696C998.115 136.448 997.839 135.38 997.287 134.492C996.735 133.58 995.979 132.896 995.019 132.44C994.083 131.96 993.039 131.72 991.887 131.72C990.231 131.72 988.815 132.248 987.639 133.304C986.487 134.36 985.827 135.824 985.659 137.696H998.115ZM1013.96 128.948C1015.66 128.948 1017.15 129.32 1018.42 130.064C1019.72 130.808 1020.68 131.744 1021.3 132.872V129.272H1024.61V149.432C1024.61 151.232 1024.23 152.828 1023.46 154.22C1022.69 155.636 1021.59 156.74 1020.15 157.532C1018.73 158.324 1017.08 158.72 1015.18 158.72C1012.59 158.72 1010.43 158.108 1008.7 156.884C1006.97 155.66 1005.95 153.992 1005.64 151.88H1008.88C1009.24 153.08 1009.99 154.04 1011.11 154.76C1012.24 155.504 1013.6 155.876 1015.18 155.876C1016.98 155.876 1018.45 155.312 1019.57 154.184C1020.73 153.056 1021.3 151.472 1021.3 149.432V145.292C1020.65 146.444 1019.69 147.404 1018.42 148.172C1017.15 148.94 1015.66 149.324 1013.96 149.324C1012.21 149.324 1010.61 148.892 1009.17 148.028C1007.75 147.164 1006.64 145.952 1005.82 144.392C1005.01 142.832 1004.6 141.056 1004.6 139.064C1004.6 137.048 1005.01 135.284 1005.82 133.772C1006.64 132.236 1007.75 131.048 1009.17 130.208C1010.61 129.368 1012.21 128.948 1013.96 128.948ZM1021.3 139.1C1021.3 137.612 1021 136.316 1020.4 135.212C1019.8 134.108 1018.99 133.268 1017.95 132.692C1016.95 132.092 1015.83 131.792 1014.61 131.792C1013.38 131.792 1012.27 132.08 1011.26 132.656C1010.25 133.232 1009.45 134.072 1008.85 135.176C1008.25 136.28 1007.95 137.576 1007.95 139.064C1007.95 140.576 1008.25 141.896 1008.85 143.024C1009.45 144.128 1010.25 144.98 1011.26 145.58C1012.27 146.156 1013.38 146.444 1014.61 146.444C1015.83 146.444 1016.95 146.156 1017.95 145.58C1018.99 144.98 1019.8 144.128 1020.4 143.024C1021 141.896 1021.3 140.588 1021.3 139.1ZM1047.65 129.272V149H1044.37V146.084C1043.75 147.092 1042.87 147.884 1041.74 148.46C1040.64 149.012 1039.41 149.288 1038.07 149.288C1036.53 149.288 1035.15 148.976 1033.93 148.352C1032.71 147.704 1031.73 146.744 1031.01 145.472C1030.32 144.2 1029.97 142.652 1029.97 140.828V129.272H1033.21V140.396C1033.21 142.34 1033.7 143.84 1034.69 144.896C1035.67 145.928 1037.01 146.444 1038.72 146.444C1040.47 146.444 1041.85 145.904 1042.86 144.824C1043.87 143.744 1044.37 142.172 1044.37 140.108V129.272H1047.65ZM1056.45 122.36V149H1053.18V122.36H1056.45ZM1060.81 139.064C1060.81 137.048 1061.22 135.284 1062.04 133.772C1062.85 132.236 1063.97 131.048 1065.39 130.208C1066.83 129.368 1068.42 128.948 1070.17 128.948C1071.9 128.948 1073.4 129.32 1074.67 130.064C1075.95 130.808 1076.89 131.744 1077.52 132.872V129.272H1080.83V149H1077.52V145.328C1076.87 146.48 1075.9 147.44 1074.6 148.208C1073.33 148.952 1071.84 149.324 1070.14 149.324C1068.39 149.324 1066.8 148.892 1065.39 148.028C1063.97 147.164 1062.85 145.952 1062.04 144.392C1061.22 142.832 1060.81 141.056 1060.81 139.064ZM1077.52 139.1C1077.52 137.612 1077.22 136.316 1076.62 135.212C1076.02 134.108 1075.2 133.268 1074.17 132.692C1073.16 132.092 1072.05 131.792 1070.82 131.792C1069.6 131.792 1068.48 132.08 1067.47 132.656C1066.47 133.232 1065.66 134.072 1065.06 135.176C1064.46 136.28 1064.16 137.576 1064.16 139.064C1064.16 140.576 1064.46 141.896 1065.06 143.024C1065.66 144.128 1066.47 144.98 1067.47 145.58C1068.48 146.156 1069.6 146.444 1070.82 146.444C1072.05 146.444 1073.16 146.156 1074.17 145.58C1075.2 144.98 1076.02 144.128 1076.62 143.024C1077.22 141.896 1077.52 140.588 1077.52 139.1ZM1089.64 132.476C1090.22 131.348 1091.03 130.472 1092.09 129.848C1093.17 129.224 1094.48 128.912 1096.01 128.912V132.296H1095.15C1091.48 132.296 1089.64 134.288 1089.64 138.272V149H1086.37V129.272H1089.64V132.476Z" fill="black"/>
<path d="M826.196 179.432C826.196 180.704 825.896 181.904 825.296 183.032C824.696 184.16 823.736 185.084 822.416 185.804C821.096 186.5 819.404 186.848 817.34 186.848H812.804V197H808.7V171.98H817.34C819.26 171.98 820.88 172.316 822.2 172.988C823.544 173.636 824.54 174.524 825.188 175.652C825.86 176.78 826.196 178.04 826.196 179.432ZM817.34 183.5C818.9 183.5 820.064 183.152 820.832 182.456C821.6 181.736 821.984 180.728 821.984 179.432C821.984 176.696 820.436 175.328 817.34 175.328H812.804V183.5H817.34ZM838.714 197.324C836.842 197.324 835.15 196.904 833.638 196.064C832.126 195.2 830.938 194 830.074 192.464C829.21 190.904 828.778 189.104 828.778 187.064C828.778 185.048 829.222 183.26 830.11 181.7C830.998 180.14 832.21 178.94 833.746 178.1C835.282 177.26 836.998 176.84 838.894 176.84C840.79 176.84 842.506 177.26 844.042 178.1C845.578 178.94 846.79 180.14 847.678 181.7C848.566 183.26 849.01 185.048 849.01 187.064C849.01 189.08 848.554 190.868 847.642 192.428C846.73 193.988 845.482 195.2 843.898 196.064C842.338 196.904 840.61 197.324 838.714 197.324ZM838.714 193.76C839.77 193.76 840.754 193.508 841.666 193.004C842.602 192.5 843.358 191.744 843.934 190.736C844.51 189.728 844.798 188.504 844.798 187.064C844.798 185.624 844.522 184.412 843.97 183.428C843.418 182.42 842.686 181.664 841.774 181.16C840.862 180.656 839.878 180.404 838.822 180.404C837.766 180.404 836.782 180.656 835.87 181.16C834.982 181.664 834.274 182.42 833.746 183.428C833.218 184.412 832.954 185.624 832.954 187.064C832.954 189.2 833.494 190.856 834.574 192.032C835.678 193.184 837.058 193.76 838.714 193.76ZM857.171 180.08C857.867 179.168 858.815 178.4 860.015 177.776C861.215 177.152 862.571 176.84 864.083 176.84C865.811 176.84 867.383 177.272 868.799 178.136C870.239 178.976 871.367 180.164 872.183 181.7C872.999 183.236 873.407 185 873.407 186.992C873.407 188.984 872.999 190.772 872.183 192.356C871.367 193.916 870.239 195.14 868.799 196.028C867.383 196.892 865.811 197.324 864.083 197.324C862.571 197.324 861.227 197.024 860.051 196.424C858.875 195.8 857.915 195.032 857.171 194.12V206.432H853.067V177.164H857.171V180.08ZM869.231 186.992C869.231 185.624 868.943 184.448 868.367 183.464C867.815 182.456 867.071 181.7 866.135 181.196C865.223 180.668 864.239 180.404 863.183 180.404C862.151 180.404 861.167 180.668 860.231 181.196C859.319 181.724 858.575 182.492 857.999 183.5C857.447 184.508 857.171 185.696 857.171 187.064C857.171 188.432 857.447 189.632 857.999 190.664C858.575 191.672 859.319 192.44 860.231 192.968C861.167 193.496 862.151 193.76 863.183 193.76C864.239 193.76 865.223 193.496 866.135 192.968C867.071 192.416 867.815 191.624 868.367 190.592C868.943 189.56 869.231 188.36 869.231 186.992ZM881.57 180.08C882.266 179.168 883.214 178.4 884.414 177.776C885.614 177.152 886.97 176.84 888.482 176.84C890.21 176.84 891.782 177.272 893.198 178.136C894.638 178.976 895.766 180.164 896.582 181.7C897.398 183.236 897.806 185 897.806 186.992C897.806 188.984 897.398 190.772 896.582 192.356C895.766 193.916 894.638 195.14 893.198 196.028C891.782 196.892 890.21 197.324 888.482 197.324C886.97 197.324 885.626 197.024 884.45 196.424C883.274 195.8 882.314 195.032 881.57 194.12V206.432H877.466V177.164H881.57V180.08ZM893.63 186.992C893.63 185.624 893.342 184.448 892.766 183.464C892.214 182.456 891.47 181.7 890.534 181.196C889.622 180.668 888.638 180.404 887.582 180.404C886.55 180.404 885.566 180.668 884.63 181.196C883.718 181.724 882.974 182.492 882.398 183.5C881.846 184.508 881.57 185.696 881.57 187.064C881.57 188.432 881.846 189.632 882.398 190.664C882.974 191.672 883.718 192.44 884.63 192.968C885.566 193.496 886.55 193.76 887.582 193.76C888.638 193.76 889.622 193.496 890.534 192.968C891.47 192.416 892.214 191.624 892.766 190.592C893.342 189.56 893.63 188.36 893.63 186.992ZM903.952 174.536C903.208 174.536 902.584 174.284 902.08 173.78C901.576 173.276 901.324 172.652 901.324 171.908C901.324 171.164 901.576 170.54 902.08 170.036C902.584 169.532 903.208 169.28 903.952 169.28C904.672 169.28 905.284 169.532 905.788 170.036C906.292 170.54 906.544 171.164 906.544 171.908C906.544 172.652 906.292 173.276 905.788 173.78C905.284 174.284 904.672 174.536 903.952 174.536ZM905.968 177.164V197H901.864V177.164H905.968ZM921.364 176.84C922.924 176.84 924.316 177.164 925.54 177.812C926.788 178.46 927.76 179.42 928.456 180.692C929.152 181.964 929.5 183.5 929.5 185.3V197H925.432V185.912C925.432 184.136 924.988 182.78 924.1 181.844C923.212 180.884 922 180.404 920.464 180.404C918.928 180.404 917.704 180.884 916.792 181.844C915.904 182.78 915.46 184.136 915.46 185.912V197H911.356V177.164H915.46V179.432C916.132 178.616 916.984 177.98 918.016 177.524C919.072 177.068 920.188 176.84 921.364 176.84ZM941.935 197.324C940.375 197.324 938.971 197.048 937.723 196.496C936.499 195.92 935.527 195.152 934.807 194.192C934.087 193.208 933.703 192.116 933.655 190.916H937.903C937.975 191.756 938.371 192.464 939.091 193.04C939.835 193.592 940.759 193.868 941.863 193.868C943.015 193.868 943.903 193.652 944.527 193.22C945.175 192.764 945.499 192.188 945.499 191.492C945.499 190.748 945.139 190.196 944.419 189.836C943.723 189.476 942.607 189.08 941.071 188.648C939.583 188.24 938.371 187.844 937.435 187.46C936.499 187.076 935.683 186.488 934.987 185.696C934.315 184.904 933.979 183.86 933.979 182.564C933.979 181.508 934.291 180.548 934.915 179.684C935.539 178.796 936.427 178.1 937.579 177.596C938.755 177.092 940.099 176.84 941.611 176.84C943.867 176.84 945.679 177.416 947.047 178.568C948.439 179.696 949.183 181.244 949.279 183.212H945.175C945.103 182.324 944.743 181.616 944.095 181.088C943.447 180.56 942.571 180.296 941.467 180.296C940.387 180.296 939.559 180.5 938.983 180.908C938.407 181.316 938.119 181.856 938.119 182.528C938.119 183.056 938.311 183.5 938.695 183.86C939.079 184.22 939.547 184.508 940.099 184.724C940.651 184.916 941.467 185.168 942.547 185.48C943.987 185.864 945.163 186.26 946.075 186.668C947.011 187.052 947.815 187.628 948.487 188.396C949.159 189.164 949.507 190.184 949.531 191.456C949.531 192.584 949.219 193.592 948.595 194.48C947.971 195.368 947.083 196.064 945.931 196.568C944.803 197.072 943.471 197.324 941.935 197.324ZM989.669 171.98V197H985.565V179.864L977.933 197H975.089L967.421 179.864V197H963.317V171.98H967.745L976.529 191.6L985.277 171.98H989.669ZM1013.24 186.596C1013.24 187.34 1013.2 188.012 1013.1 188.612H997.943C998.063 190.196 998.651 191.468 999.707 192.428C1000.76 193.388 1002.06 193.868 1003.6 193.868C1005.8 193.868 1007.36 192.944 1008.28 191.096H1012.7C1012.1 192.92 1011.01 194.42 1009.43 195.596C1007.87 196.748 1005.92 197.324 1003.6 197.324C1001.7 197.324 999.995 196.904 998.483 196.064C996.995 195.2 995.819 194 994.955 192.464C994.115 190.904 993.695 189.104 993.695 187.064C993.695 185.024 994.103 183.236 994.919 181.7C995.759 180.14 996.923 178.94 998.411 178.1C999.923 177.26 1001.65 176.84 1003.6 176.84C1005.47 176.84 1007.14 177.248 1008.6 178.064C1010.06 178.88 1011.2 180.032 1012.02 181.52C1012.84 182.984 1013.24 184.676 1013.24 186.596ZM1008.96 185.3C1008.94 183.788 1008.4 182.576 1007.34 181.664C1006.28 180.752 1004.98 180.296 1003.42 180.296C1002 180.296 1000.79 180.752 999.779 181.664C998.771 182.552 998.171 183.764 997.979 185.3H1008.96ZM1015.91 186.992C1015.91 185 1016.32 183.236 1017.14 181.7C1017.98 180.164 1019.11 178.976 1020.52 178.136C1021.96 177.272 1023.56 176.84 1025.31 176.84C1026.61 176.84 1027.88 177.128 1029.13 177.704C1030.4 178.256 1031.41 179 1032.15 179.936V170.36H1036.29V197H1032.15V194.012C1031.48 194.972 1030.54 195.764 1029.34 196.388C1028.17 197.012 1026.81 197.324 1025.27 197.324C1023.55 197.324 1021.96 196.892 1020.52 196.028C1019.11 195.14 1017.98 193.916 1017.14 192.356C1016.32 190.772 1015.91 188.984 1015.91 186.992ZM1032.15 187.064C1032.15 185.696 1031.86 184.508 1031.29 183.5C1030.73 182.492 1030 181.724 1029.09 181.196C1028.18 180.668 1027.19 180.404 1026.14 180.404C1025.08 180.404 1024.1 180.668 1023.19 181.196C1022.27 181.7 1021.53 182.456 1020.95 183.464C1020.4 184.448 1020.13 185.624 1020.13 186.992C1020.13 188.36 1020.4 189.56 1020.95 190.592C1021.53 191.624 1022.27 192.416 1023.19 192.968C1024.12 193.496 1025.11 193.76 1026.14 193.76C1027.19 193.76 1028.18 193.496 1029.09 192.968C1030 192.44 1030.73 191.672 1031.29 190.664C1031.86 189.632 1032.15 188.432 1032.15 187.064ZM1043.77 174.536C1043.02 174.536 1042.4 174.284 1041.9 173.78C1041.39 173.276 1041.14 172.652 1041.14 171.908C1041.14 171.164 1041.39 170.54 1041.9 170.036C1042.4 169.532 1043.02 169.28 1043.77 169.28C1044.49 169.28 1045.1 169.532 1045.6 170.036C1046.11 170.54 1046.36 171.164 1046.36 171.908C1046.36 172.652 1046.11 173.276 1045.6 173.78C1045.1 174.284 1044.49 174.536 1043.77 174.536ZM1045.78 177.164V197H1041.68V177.164H1045.78ZM1069.14 177.164V197H1065.03V194.66C1064.38 195.476 1063.53 196.124 1062.48 196.604C1061.44 197.06 1060.34 197.288 1059.16 197.288C1057.6 197.288 1056.2 196.964 1054.95 196.316C1053.73 195.668 1052.76 194.708 1052.04 193.436C1051.34 192.164 1050.99 190.628 1050.99 188.828V177.164H1055.06V188.216C1055.06 189.992 1055.5 191.36 1056.39 192.32C1057.28 193.256 1058.49 193.724 1060.03 193.724C1061.56 193.724 1062.78 193.256 1063.66 192.32C1064.58 191.36 1065.03 189.992 1065.03 188.216V177.164H1069.14ZM1098.56 176.84C1100.12 176.84 1101.52 177.164 1102.74 177.812C1103.99 178.46 1104.96 179.42 1105.66 180.692C1106.38 181.964 1106.74 183.5 1106.74 185.3V197H1102.67V185.912C1102.67 184.136 1102.22 182.78 1101.34 181.844C1100.45 180.884 1099.24 180.404 1097.7 180.404C1096.16 180.404 1094.94 180.884 1094.03 181.844C1093.14 182.78 1092.7 184.136 1092.7 185.912V197H1088.63V185.912C1088.63 184.136 1088.18 182.78 1087.3 181.844C1086.41 180.884 1085.2 180.404 1083.66 180.404C1082.12 180.404 1080.9 180.884 1079.99 181.844C1079.1 182.78 1078.66 184.136 1078.66 185.912V197H1074.55V177.164H1078.66V179.432C1079.33 178.616 1080.18 177.98 1081.21 177.524C1082.24 177.068 1083.35 176.84 1084.52 176.84C1086.11 176.84 1087.52 177.176 1088.77 177.848C1090.02 178.52 1090.98 179.492 1091.65 180.764C1092.25 179.564 1093.19 178.616 1094.46 177.92C1095.73 177.2 1097.1 176.84 1098.56 176.84Z" fill="black"/>
<path d="M826.808 227.648C826.808 228.992 826.484 230.252 825.836 231.428C825.212 232.604 824.216 233.552 822.848 234.272C821.504 234.992 819.8 235.352 817.736 235.352H813.524V245H808.484V219.872H817.736C819.68 219.872 821.336 220.208 822.704 220.88C824.072 221.552 825.092 222.476 825.764 223.652C826.46 224.828 826.808 226.16 826.808 227.648ZM817.52 231.284C818.912 231.284 819.944 230.972 820.616 230.348C821.288 229.7 821.624 228.8 821.624 227.648C821.624 225.2 820.256 223.976 817.52 223.976H813.524V231.284H817.52ZM839.242 245.324C837.322 245.324 835.594 244.904 834.058 244.064C832.522 243.2 831.31 241.988 830.422 240.428C829.558 238.868 829.126 237.068 829.126 235.028C829.126 232.988 829.57 231.188 830.458 229.628C831.37 228.068 832.606 226.868 834.166 226.028C835.726 225.164 837.466 224.732 839.386 224.732C841.306 224.732 843.046 225.164 844.606 226.028C846.166 226.868 847.39 228.068 848.278 229.628C849.19 231.188 849.646 232.988 849.646 235.028C849.646 237.068 849.178 238.868 848.242 240.428C847.33 241.988 846.082 243.2 844.498 244.064C842.938 244.904 841.186 245.324 839.242 245.324ZM839.242 240.932C840.154 240.932 841.006 240.716 841.798 240.284C842.614 239.828 843.262 239.156 843.742 238.268C844.222 237.38 844.462 236.3 844.462 235.028C844.462 233.132 843.958 231.68 842.95 230.672C841.966 229.64 840.754 229.124 839.314 229.124C837.874 229.124 836.662 229.64 835.678 230.672C834.718 231.68 834.238 233.132 834.238 235.028C834.238 236.924 834.706 238.388 835.642 239.42C836.602 240.428 837.802 240.932 839.242 240.932ZM858.383 227.936C859.031 227.024 859.919 226.268 861.047 225.668C862.199 225.044 863.507 224.732 864.971 224.732C866.675 224.732 868.211 225.152 869.579 225.992C870.971 226.832 872.063 228.032 872.855 229.592C873.671 231.128 874.079 232.916 874.079 234.956C874.079 236.996 873.671 238.808 872.855 240.392C872.063 241.952 870.971 243.164 869.579 244.028C868.211 244.892 866.675 245.324 864.971 245.324C863.507 245.324 862.211 245.024 861.083 244.424C859.979 243.824 859.079 243.068 858.383 242.156V254.504H853.343V225.056H858.383V227.936ZM868.931 234.956C868.931 233.756 868.679 232.724 868.175 231.86C867.695 230.972 867.047 230.3 866.231 229.844C865.439 229.388 864.575 229.16 863.639 229.16C862.727 229.16 861.863 229.4 861.047 229.88C860.255 230.336 859.607 231.008 859.103 231.896C858.623 232.784 858.383 233.828 858.383 235.028C858.383 236.228 858.623 237.272 859.103 238.16C859.607 239.048 860.255 239.732 861.047 240.212C861.863 240.668 862.727 240.896 863.639 240.896C864.575 240.896 865.439 240.656 866.231 240.176C867.047 239.696 867.695 239.012 868.175 238.124C868.679 237.236 868.931 236.18 868.931 234.956ZM882.782 227.936C883.43 227.024 884.318 226.268 885.446 225.668C886.598 225.044 887.906 224.732 889.37 224.732C891.074 224.732 892.61 225.152 893.978 225.992C895.37 226.832 896.462 228.032 897.254 229.592C898.07 231.128 898.478 232.916 898.478 234.956C898.478 236.996 898.07 238.808 897.254 240.392C896.462 241.952 895.37 243.164 893.978 244.028C892.61 244.892 891.074 245.324 889.37 245.324C887.906 245.324 886.61 245.024 885.482 244.424C884.378 243.824 883.478 243.068 882.782 242.156V254.504H877.742V225.056H882.782V227.936ZM893.33 234.956C893.33 233.756 893.078 232.724 892.574 231.86C892.094 230.972 891.446 230.3 890.63 229.844C889.838 229.388 888.974 229.16 888.038 229.16C887.126 229.16 886.262 229.4 885.446 229.88C884.654 230.336 884.006 231.008 883.502 231.896C883.022 232.784 882.782 233.828 882.782 235.028C882.782 236.228 883.022 237.272 883.502 238.16C884.006 239.048 884.654 239.732 885.446 240.212C886.262 240.668 887.126 240.896 888.038 240.896C888.974 240.896 889.838 240.656 890.63 240.176C891.446 239.696 892.094 239.012 892.574 238.124C893.078 237.236 893.33 236.18 893.33 234.956ZM904.696 222.68C903.808 222.68 903.064 222.404 902.464 221.852C901.888 221.276 901.6 220.568 901.6 219.728C901.6 218.888 901.888 218.192 902.464 217.64C903.064 217.064 903.808 216.776 904.696 216.776C905.584 216.776 906.316 217.064 906.892 217.64C907.492 218.192 907.792 218.888 907.792 219.728C907.792 220.568 907.492 221.276 906.892 221.852C906.316 222.404 905.584 222.68 904.696 222.68ZM907.18 225.056V245H902.14V225.056H907.18ZM923.212 224.768C925.588 224.768 927.508 225.524 928.972 227.036C930.436 228.524 931.168 230.612 931.168 233.3V245H926.128V233.984C926.128 232.4 925.732 231.188 924.94 230.348C924.148 229.484 923.068 229.052 921.7 229.052C920.308 229.052 919.204 229.484 918.388 230.348C917.596 231.188 917.2 232.4 917.2 233.984V245H912.16V225.056H917.2V227.54C917.872 226.676 918.724 226.004 919.756 225.524C920.812 225.02 921.964 224.768 923.212 224.768ZM943.593 245.324C941.961 245.324 940.497 245.036 939.201 244.46C937.905 243.86 936.873 243.056 936.105 242.048C935.361 241.04 934.953 239.924 934.881 238.7H939.957C940.053 239.468 940.425 240.104 941.073 240.608C941.745 241.112 942.573 241.364 943.557 241.364C944.517 241.364 945.261 241.172 945.789 240.788C946.341 240.404 946.617 239.912 946.617 239.312C946.617 238.664 946.281 238.184 945.609 237.872C944.961 237.536 943.917 237.176 942.477 236.792C940.989 236.432 939.765 236.06 938.805 235.676C937.869 235.292 937.053 234.704 936.357 233.912C935.685 233.12 935.349 232.052 935.349 230.708C935.349 229.604 935.661 228.596 936.285 227.684C936.933 226.772 937.845 226.052 939.021 225.524C940.221 224.996 941.625 224.732 943.233 224.732C945.609 224.732 947.505 225.332 948.921 226.532C950.337 227.708 951.117 229.304 951.261 231.32H946.437C946.365 230.528 946.029 229.904 945.429 229.448C944.853 228.968 944.073 228.728 943.089 228.728C942.177 228.728 941.469 228.896 940.965 229.232C940.485 229.568 940.245 230.036 940.245 230.636C940.245 231.308 940.581 231.824 941.253 232.184C941.925 232.52 942.969 232.868 944.385 233.228C945.825 233.588 947.013 233.96 947.949 234.344C948.885 234.728 949.689 235.328 950.361 236.144C951.057 236.936 951.417 237.992 951.441 239.312C951.441 240.464 951.117 241.496 950.469 242.408C949.845 243.32 948.933 244.04 947.733 244.568C946.557 245.072 945.177 245.324 943.593 245.324ZM972.832 245.252C971.08 245.252 969.496 244.952 968.08 244.352C966.688 243.752 965.584 242.888 964.768 241.76C963.952 240.632 963.532 239.3 963.508 237.764H968.908C968.98 238.796 969.34 239.612 969.988 240.212C970.66 240.812 971.572 241.112 972.724 241.112C973.9 241.112 974.824 240.836 975.496 240.284C976.168 239.708 976.504 238.964 976.504 238.052C976.504 237.308 976.276 236.696 975.82 236.216C975.364 235.736 974.788 235.364 974.092 235.1C973.42 234.812 972.484 234.5 971.284 234.164C969.652 233.684 968.32 233.216 967.288 232.76C966.28 232.28 965.404 231.572 964.66 230.636C963.94 229.676 963.58 228.404 963.58 226.82C963.58 225.332 963.952 224.036 964.696 222.932C965.44 221.828 966.484 220.988 967.828 220.412C969.172 219.812 970.708 219.512 972.436 219.512C975.028 219.512 977.128 220.148 978.736 221.42C980.368 222.668 981.268 224.42 981.436 226.676H975.892C975.844 225.812 975.472 225.104 974.776 224.552C974.104 223.976 973.204 223.688 972.076 223.688C971.092 223.688 970.3 223.94 969.7 224.444C969.124 224.948 968.836 225.68 968.836 226.64C968.836 227.312 969.052 227.876 969.484 228.332C969.94 228.764 970.492 229.124 971.14 229.412C971.812 229.676 972.748 229.988 973.948 230.348C975.58 230.828 976.912 231.308 977.944 231.788C978.976 232.268 979.864 232.988 980.608 233.948C981.352 234.908 981.724 236.168 981.724 237.728C981.724 239.072 981.376 240.32 980.68 241.472C979.984 242.624 978.964 243.548 977.62 244.244C976.276 244.916 974.68 245.252 972.832 245.252ZM1004.63 234.596C1004.63 235.316 1004.59 235.964 1004.49 236.54H989.909C990.029 237.98 990.533 239.108 991.421 239.924C992.309 240.74 993.401 241.148 994.697 241.148C996.569 241.148 997.901 240.344 998.693 238.736H1004.13C1003.55 240.656 1002.45 242.24 1000.82 243.488C999.185 244.712 997.181 245.324 994.805 245.324C992.885 245.324 991.157 244.904 989.621 244.064C988.109 243.2 986.921 241.988 986.057 240.428C985.217 238.868 984.797 237.068 984.797 235.028C984.797 232.964 985.217 231.152 986.057 229.592C986.897 228.032 988.073 226.832 989.585 225.992C991.097 225.152 992.837 224.732 994.805 224.732C996.701 224.732 998.393 225.14 999.881 225.956C1001.39 226.772 1002.56 227.936 1003.37 229.448C1004.21 230.936 1004.63 232.652 1004.63 234.596ZM999.413 233.156C999.389 231.86 998.921 230.828 998.009 230.06C997.097 229.268 995.981 228.872 994.661 228.872C993.413 228.872 992.357 229.256 991.493 230.024C990.653 230.768 990.137 231.812 989.945 233.156H999.413ZM1033.08 224.768C1035.53 224.768 1037.5 225.524 1038.98 227.036C1040.5 228.524 1041.25 230.612 1041.25 233.3V245H1036.21V233.984C1036.21 232.424 1035.82 231.236 1035.02 230.42C1034.23 229.58 1033.15 229.16 1031.78 229.16C1030.42 229.16 1029.32 229.58 1028.51 230.42C1027.72 231.236 1027.32 232.424 1027.32 233.984V245H1022.28V233.984C1022.28 232.424 1021.88 231.236 1021.09 230.42C1020.3 229.58 1019.22 229.16 1017.85 229.16C1016.46 229.16 1015.36 229.58 1014.54 230.42C1013.75 231.236 1013.35 232.424 1013.35 233.984V245H1008.31V225.056H1013.35V227.468C1014 226.628 1014.83 225.968 1015.84 225.488C1016.87 225.008 1018 224.768 1019.22 224.768C1020.78 224.768 1022.17 225.104 1023.4 225.776C1024.62 226.424 1025.57 227.36 1026.24 228.584C1026.89 227.432 1027.82 226.508 1029.05 225.812C1030.3 225.116 1031.64 224.768 1033.08 224.768ZM1048.59 222.68C1047.7 222.68 1046.96 222.404 1046.36 221.852C1045.78 221.276 1045.49 220.568 1045.49 219.728C1045.49 218.888 1045.78 218.192 1046.36 217.64C1046.96 217.064 1047.7 216.776 1048.59 216.776C1049.48 216.776 1050.21 217.064 1050.79 217.64C1051.39 218.192 1051.69 218.888 1051.69 219.728C1051.69 220.568 1051.39 221.276 1050.79 221.852C1050.21 222.404 1049.48 222.68 1048.59 222.68ZM1051.07 225.056V245H1046.03V225.056H1051.07ZM1078.89 232.112C1080.3 232.376 1081.47 233.084 1082.38 234.236C1083.29 235.388 1083.75 236.708 1083.75 238.196C1083.75 239.54 1083.41 240.728 1082.74 241.76C1082.09 242.768 1081.14 243.56 1079.9 244.136C1078.65 244.712 1077.17 245 1075.47 245H1064.63V219.872H1075C1076.7 219.872 1078.17 220.148 1079.39 220.7C1080.64 221.252 1081.58 222.02 1082.2 223.004C1082.85 223.988 1083.17 225.104 1083.17 226.352C1083.17 227.816 1082.78 229.04 1081.98 230.024C1081.22 231.008 1080.18 231.704 1078.89 232.112ZM1069.67 230.24H1074.28C1075.48 230.24 1076.4 229.976 1077.05 229.448C1077.7 228.896 1078.02 228.116 1078.02 227.108C1078.02 226.1 1077.7 225.32 1077.05 224.768C1076.4 224.216 1075.48 223.94 1074.28 223.94H1069.67V230.24ZM1074.75 240.896C1075.97 240.896 1076.92 240.608 1077.59 240.032C1078.29 239.456 1078.64 238.64 1078.64 237.584C1078.64 236.504 1078.28 235.664 1077.56 235.064C1076.84 234.44 1075.86 234.128 1074.64 234.128H1069.67V240.896H1074.75ZM1096.62 245.324C1094.7 245.324 1092.97 244.904 1091.44 244.064C1089.9 243.2 1088.69 241.988 1087.8 240.428C1086.94 238.868 1086.51 237.068 1086.51 235.028C1086.51 232.988 1086.95 231.188 1087.84 229.628C1088.75 228.068 1089.99 226.868 1091.55 226.028C1093.11 225.164 1094.85 224.732 1096.77 224.732C1098.69 224.732 1100.43 225.164 1101.99 226.028C1103.55 226.868 1104.77 228.068 1105.66 229.628C1106.57 231.188 1107.03 232.988 1107.03 235.028C1107.03 237.068 1106.56 238.868 1105.62 240.428C1104.71 241.988 1103.46 243.2 1101.88 244.064C1100.32 244.904 1098.57 245.324 1096.62 245.324ZM1096.62 240.932C1097.53 240.932 1098.39 240.716 1099.18 240.284C1099.99 239.828 1100.64 239.156 1101.12 238.268C1101.6 237.38 1101.84 236.3 1101.84 235.028C1101.84 233.132 1101.34 231.68 1100.33 230.672C1099.35 229.64 1098.13 229.124 1096.69 229.124C1095.25 229.124 1094.04 229.64 1093.06 230.672C1092.1 231.68 1091.62 233.132 1091.62 235.028C1091.62 236.924 1092.09 238.388 1093.02 239.42C1093.98 240.428 1095.18 240.932 1096.62 240.932ZM1115.76 218.36V245H1110.72V218.36H1115.76ZM1119.45 234.956C1119.45 232.94 1119.84 231.152 1120.63 229.592C1121.45 228.032 1122.55 226.832 1123.95 225.992C1125.34 225.152 1126.89 224.732 1128.59 224.732C1129.89 224.732 1131.12 225.02 1132.3 225.596C1133.47 226.148 1134.41 226.892 1135.11 227.828V218.36H1140.22V245H1135.11V242.048C1134.48 243.032 1133.61 243.824 1132.48 244.424C1131.35 245.024 1130.04 245.324 1128.55 245.324C1126.87 245.324 1125.34 244.892 1123.95 244.028C1122.55 243.164 1121.45 241.952 1120.63 240.392C1119.84 238.808 1119.45 236.996 1119.45 234.956ZM1135.14 235.028C1135.14 233.804 1134.9 232.76 1134.42 231.896C1133.94 231.008 1133.29 230.336 1132.48 229.88C1131.66 229.4 1130.79 229.16 1129.85 229.16C1128.91 229.16 1128.05 229.388 1127.26 229.844C1126.47 230.3 1125.82 230.972 1125.31 231.86C1124.83 232.724 1124.59 233.756 1124.59 234.956C1124.59 236.156 1124.83 237.212 1125.31 238.124C1125.82 239.012 1126.47 239.696 1127.26 240.176C1128.07 240.656 1128.94 240.896 1129.85 240.896C1130.79 240.896 1131.66 240.668 1132.48 240.212C1133.29 239.732 1133.94 239.06 1134.42 238.196C1134.9 237.308 1135.14 236.252 1135.14 235.028Z" fill="black"/>
<path d="M813.325 266.818V293H808.582V266.818H813.325ZM822.885 281.494V293H818.257V273.364H822.68V276.7H822.91C823.362 275.601 824.082 274.727 825.071 274.08C826.068 273.432 827.299 273.108 828.765 273.108C830.12 273.108 831.301 273.398 832.306 273.977C833.321 274.557 834.105 275.396 834.659 276.496C835.221 277.595 835.498 278.929 835.49 280.497V293H830.862V281.213C830.862 279.901 830.521 278.874 829.839 278.132C829.166 277.391 828.233 277.02 827.039 277.02C826.23 277.02 825.51 277.199 824.879 277.557C824.257 277.906 823.767 278.413 823.409 279.078C823.059 279.743 822.885 280.548 822.885 281.494ZM850 273.364V276.943H838.711V273.364H850ZM841.498 268.659H846.126V287.094C846.126 287.716 846.22 288.193 846.407 288.526C846.603 288.849 846.859 289.071 847.174 289.19C847.49 289.31 847.839 289.369 848.223 289.369C848.512 289.369 848.777 289.348 849.015 289.305C849.262 289.263 849.45 289.224 849.578 289.19L850.358 292.808C850.11 292.893 849.757 292.987 849.297 293.089C848.845 293.192 848.291 293.251 847.635 293.268C846.475 293.303 845.431 293.128 844.502 292.744C843.574 292.352 842.836 291.747 842.291 290.929C841.754 290.111 841.49 289.088 841.498 287.861V268.659ZM862.352 293.384C860.384 293.384 858.683 292.974 857.251 292.156C855.828 291.33 854.733 290.162 853.966 288.653C853.199 287.136 852.815 285.351 852.815 283.297C852.815 281.277 853.199 279.504 853.966 277.979C854.741 276.445 855.824 275.251 857.213 274.399C858.602 273.538 860.234 273.108 862.109 273.108C863.32 273.108 864.462 273.304 865.536 273.696C866.618 274.08 867.572 274.676 868.399 275.486C869.234 276.295 869.891 277.327 870.368 278.58C870.845 279.824 871.084 281.307 871.084 283.028V284.447H854.989V281.328H866.648C866.639 280.442 866.447 279.653 866.072 278.963C865.697 278.264 865.173 277.714 864.5 277.314C863.835 276.913 863.06 276.713 862.173 276.713C861.227 276.713 860.396 276.943 859.68 277.403C858.964 277.855 858.406 278.452 858.006 279.193C857.614 279.926 857.413 280.732 857.405 281.609V284.332C857.405 285.474 857.614 286.455 858.031 287.273C858.449 288.082 859.033 288.705 859.783 289.139C860.533 289.565 861.411 289.778 862.416 289.778C863.089 289.778 863.699 289.685 864.244 289.497C864.79 289.301 865.263 289.016 865.663 288.641C866.064 288.266 866.366 287.801 866.571 287.247L870.892 287.733C870.619 288.875 870.099 289.872 869.332 290.724C868.574 291.568 867.602 292.224 866.418 292.693C865.233 293.153 863.878 293.384 862.352 293.384ZM874.999 293V273.364H879.486V276.636H879.691C880.049 275.503 880.662 274.629 881.532 274.016C882.409 273.393 883.411 273.082 884.536 273.082C884.792 273.082 885.077 273.095 885.392 273.121C885.716 273.138 885.985 273.168 886.198 273.21V277.467C886.002 277.399 885.691 277.339 885.265 277.288C884.847 277.229 884.442 277.199 884.05 277.199C883.206 277.199 882.448 277.382 881.775 277.749C881.11 278.107 880.586 278.605 880.202 279.244C879.819 279.884 879.627 280.621 879.627 281.456V293H874.999ZM912.635 274.016C912.516 272.899 912.013 272.03 911.127 271.408C910.249 270.786 909.107 270.474 907.701 270.474C906.712 270.474 905.864 270.624 905.157 270.922C904.449 271.22 903.908 271.625 903.533 272.136C903.158 272.648 902.966 273.232 902.958 273.888C902.958 274.433 903.081 274.906 903.328 275.307C903.584 275.707 903.929 276.048 904.364 276.33C904.799 276.602 905.28 276.832 905.809 277.02C906.337 277.207 906.87 277.365 907.407 277.493L909.861 278.107C910.85 278.337 911.8 278.648 912.712 279.04C913.632 279.432 914.455 279.926 915.179 280.523C915.912 281.119 916.492 281.839 916.918 282.683C917.344 283.527 917.557 284.516 917.557 285.649C917.557 287.183 917.165 288.534 916.381 289.702C915.597 290.861 914.463 291.768 912.98 292.425C911.506 293.072 909.721 293.396 907.624 293.396C905.587 293.396 903.819 293.081 902.319 292.45C900.827 291.82 899.659 290.899 898.816 289.689C897.98 288.479 897.529 287.004 897.461 285.266H902.127C902.195 286.178 902.476 286.936 902.971 287.541C903.465 288.146 904.108 288.598 904.901 288.896C905.702 289.195 906.597 289.344 907.586 289.344C908.617 289.344 909.52 289.19 910.296 288.884C911.08 288.568 911.694 288.134 912.137 287.58C912.58 287.017 912.806 286.361 912.814 285.611C912.806 284.929 912.605 284.366 912.213 283.923C911.821 283.472 911.272 283.097 910.564 282.798C909.865 282.491 909.047 282.219 908.11 281.98L905.131 281.213C902.975 280.659 901.27 279.82 900.017 278.695C898.773 277.561 898.151 276.057 898.151 274.182C898.151 272.639 898.569 271.288 899.404 270.129C900.248 268.97 901.394 268.071 902.843 267.432C904.292 266.784 905.932 266.46 907.765 266.46C909.623 266.46 911.25 266.784 912.648 267.432C914.054 268.071 915.158 268.962 915.959 270.104C916.76 271.237 917.174 272.541 917.199 274.016H912.635ZM930.274 293.384C928.305 293.384 926.605 292.974 925.173 292.156C923.75 291.33 922.655 290.162 921.888 288.653C921.121 287.136 920.737 285.351 920.737 283.297C920.737 281.277 921.121 279.504 921.888 277.979C922.663 276.445 923.746 275.251 925.135 274.399C926.524 273.538 928.156 273.108 930.031 273.108C931.241 273.108 932.384 273.304 933.457 273.696C934.54 274.08 935.494 274.676 936.321 275.486C937.156 276.295 937.813 277.327 938.29 278.58C938.767 279.824 939.006 281.307 939.006 283.028V284.447H922.911V281.328H934.57C934.561 280.442 934.369 279.653 933.994 278.963C933.619 278.264 933.095 277.714 932.422 277.314C931.757 276.913 930.982 276.713 930.095 276.713C929.149 276.713 928.318 276.943 927.602 277.403C926.886 277.855 926.328 278.452 925.928 279.193C925.536 279.926 925.335 280.732 925.327 281.609V284.332C925.327 285.474 925.536 286.455 925.953 287.273C926.371 288.082 926.955 288.705 927.705 289.139C928.455 289.565 929.332 289.778 930.338 289.778C931.011 289.778 931.621 289.685 932.166 289.497C932.712 289.301 933.185 289.016 933.585 288.641C933.986 288.266 934.288 287.801 934.493 287.247L938.814 287.733C938.541 288.875 938.021 289.872 937.254 290.724C936.496 291.568 935.524 292.224 934.339 292.693C933.155 293.153 931.8 293.384 930.274 293.384ZM942.921 293V273.364H947.344V276.7H947.574C947.983 275.575 948.661 274.697 949.607 274.067C950.553 273.428 951.682 273.108 952.995 273.108C954.324 273.108 955.445 273.432 956.357 274.08C957.277 274.719 957.925 275.592 958.3 276.7H958.505C958.939 275.609 959.672 274.74 960.703 274.092C961.743 273.436 962.975 273.108 964.398 273.108C966.205 273.108 967.679 273.679 968.821 274.821C969.963 275.963 970.534 277.629 970.534 279.82V293H965.894V280.536C965.894 279.317 965.57 278.426 964.922 277.864C964.275 277.293 963.482 277.007 962.544 277.007C961.428 277.007 960.554 277.357 959.924 278.055C959.301 278.746 958.99 279.645 958.99 280.753V293H954.452V280.344C954.452 279.33 954.145 278.52 953.532 277.915C952.926 277.31 952.134 277.007 951.154 277.007C950.489 277.007 949.884 277.178 949.338 277.518C948.793 277.851 948.358 278.324 948.034 278.938C947.711 279.543 947.549 280.25 947.549 281.06V293H942.921ZM975.229 293V273.364H979.857V293H975.229ZM977.556 270.577C976.823 270.577 976.192 270.334 975.664 269.848C975.136 269.354 974.871 268.761 974.871 268.071C974.871 267.372 975.136 266.78 975.664 266.294C976.192 265.8 976.823 265.553 977.556 265.553C978.298 265.553 978.928 265.8 979.448 266.294C979.977 266.78 980.241 267.372 980.241 268.071C980.241 268.761 979.977 269.354 979.448 269.848C978.928 270.334 978.298 270.577 977.556 270.577ZM993.75 293V266.818H1003.77C1005.67 266.818 1007.24 267.116 1008.49 267.713C1009.75 268.301 1010.69 269.107 1011.32 270.129C1011.95 271.152 1012.26 272.311 1012.26 273.607C1012.26 274.672 1012.06 275.584 1011.65 276.342C1011.24 277.092 1010.69 277.702 1010 278.17C1009.31 278.639 1008.54 278.976 1007.69 279.18V279.436C1008.61 279.487 1009.5 279.773 1010.36 280.293C1011.22 280.804 1011.92 281.528 1012.47 282.466C1013.01 283.403 1013.28 284.537 1013.28 285.866C1013.28 287.222 1012.96 288.44 1012.3 289.523C1011.64 290.597 1010.66 291.445 1009.33 292.067C1008.01 292.689 1006.35 293 1004.35 293H993.75ZM998.493 289.037H1003.59C1005.32 289.037 1006.56 288.709 1007.31 288.053C1008.08 287.388 1008.46 286.536 1008.46 285.496C1008.46 284.72 1008.27 284.021 1007.89 283.399C1007.51 282.768 1006.96 282.274 1006.25 281.916C1005.55 281.55 1004.7 281.366 1003.72 281.366H998.493V289.037ZM998.493 277.953H1003.19C1004 277.953 1004.74 277.804 1005.4 277.506C1006.05 277.199 1006.57 276.768 1006.94 276.214C1007.33 275.652 1007.52 274.987 1007.52 274.22C1007.52 273.206 1007.16 272.371 1006.44 271.714C1005.74 271.058 1004.69 270.73 1003.29 270.73H998.493V277.953ZM1025.77 293.384C1023.85 293.384 1022.19 292.962 1020.79 292.118C1019.38 291.274 1018.29 290.094 1017.51 288.577C1016.75 287.06 1016.36 285.287 1016.36 283.259C1016.36 281.23 1016.75 279.453 1017.51 277.928C1018.29 276.402 1019.38 275.217 1020.79 274.374C1022.19 273.53 1023.85 273.108 1025.77 273.108C1027.69 273.108 1029.35 273.53 1030.76 274.374C1032.16 275.217 1033.25 276.402 1034.02 277.928C1034.79 279.453 1035.18 281.23 1035.18 283.259C1035.18 285.287 1034.79 287.06 1034.02 288.577C1033.25 290.094 1032.16 291.274 1030.76 292.118C1029.35 292.962 1027.69 293.384 1025.77 293.384ZM1025.8 289.676C1026.84 289.676 1027.71 289.391 1028.4 288.82C1029.1 288.24 1029.62 287.464 1029.96 286.493C1030.31 285.521 1030.49 284.439 1030.49 283.246C1030.49 282.044 1030.31 280.957 1029.96 279.986C1029.62 279.006 1029.1 278.226 1028.4 277.646C1027.71 277.067 1026.84 276.777 1025.8 276.777C1024.73 276.777 1023.85 277.067 1023.14 277.646C1022.44 278.226 1021.91 279.006 1021.57 279.986C1021.22 280.957 1021.05 282.044 1021.05 283.246C1021.05 284.439 1021.22 285.521 1021.57 286.493C1021.91 287.464 1022.44 288.24 1023.14 288.82C1023.85 289.391 1024.73 289.676 1025.8 289.676ZM1043.74 266.818V293H1039.11V266.818H1043.74ZM1055.78 293.345C1054.24 293.345 1052.86 292.949 1051.64 292.156C1050.42 291.364 1049.46 290.213 1048.75 288.705C1048.04 287.196 1047.69 285.364 1047.69 283.207C1047.69 281.026 1048.05 279.185 1048.76 277.685C1049.49 276.176 1050.46 275.038 1051.69 274.271C1052.92 273.496 1054.29 273.108 1055.79 273.108C1056.95 273.108 1057.89 273.304 1058.63 273.696C1059.37 274.08 1059.96 274.544 1060.4 275.089C1060.83 275.626 1061.17 276.134 1061.41 276.611H1061.6V266.818H1066.24V293H1061.69V289.906H1061.41C1061.17 290.384 1060.82 290.891 1060.37 291.428C1059.92 291.956 1059.32 292.408 1058.58 292.783C1057.84 293.158 1056.91 293.345 1055.78 293.345ZM1057.07 289.548C1058.05 289.548 1058.89 289.284 1059.58 288.756C1060.27 288.219 1060.79 287.473 1061.15 286.518C1061.51 285.564 1061.69 284.452 1061.69 283.182C1061.69 281.912 1061.51 280.808 1061.15 279.871C1060.8 278.933 1060.28 278.205 1059.59 277.685C1058.91 277.165 1058.07 276.905 1057.07 276.905C1056.04 276.905 1055.18 277.173 1054.49 277.71C1053.8 278.247 1053.28 278.989 1052.93 279.935C1052.58 280.881 1052.41 281.963 1052.41 283.182C1052.41 284.409 1052.58 285.504 1052.93 286.467C1053.29 287.422 1053.81 288.176 1054.5 288.73C1055.2 289.276 1056.06 289.548 1057.07 289.548Z" fill="black"/>
<path d="M811.904 316.484L807.98 316.052V314.252H817.52L822.596 330.452L823.784 335.024L824.864 330.452L829.904 314.252H839.372V316.052L835.412 316.484L838.292 338.84L841.424 339.236V341H831.056V339.236L834.332 338.876L832.712 322.712L831.956 315.764L830.444 320.948L824.432 339.776H822.092L816.26 322.532L814.136 315.728L813.488 322.712L812.048 338.876L815.612 339.236V341H806.216V339.236L809.276 338.876L811.904 316.484ZM852.124 341.396C849.22 341.396 847 340.448 845.464 338.552C843.952 336.656 843.196 334.124 843.196 330.956C843.196 328.868 843.592 327.032 844.384 325.448C845.176 323.864 846.28 322.64 847.696 321.776C849.136 320.912 850.768 320.48 852.592 320.48C854.824 320.48 856.552 321.104 857.776 322.352C859.024 323.576 859.684 325.34 859.756 327.644C859.756 329.108 859.672 330.224 859.504 330.992H847.12C847.168 333.368 847.72 335.288 848.776 336.752C849.832 338.192 851.332 338.912 853.276 338.912C854.236 338.912 855.232 338.744 856.264 338.408C857.32 338.048 858.136 337.628 858.712 337.148L859.396 338.732C858.7 339.452 857.668 340.076 856.3 340.604C854.932 341.132 853.54 341.396 852.124 341.396ZM855.796 329.084C855.868 328.58 855.904 328.064 855.904 327.536C855.88 325.976 855.544 324.752 854.896 323.864C854.272 322.952 853.276 322.496 851.908 322.496C850.516 322.496 849.4 323 848.56 324.008C847.744 325.016 847.276 326.708 847.156 329.084H855.796ZM862.922 339.236L865.622 339.02V323.792L863.03 323.144V321.2L867.998 320.552H868.07L868.862 321.2V321.848L868.754 324.656H868.862C869.102 324.248 869.534 323.72 870.158 323.072C870.782 322.424 871.586 321.836 872.57 321.308C873.554 320.756 874.622 320.48 875.774 320.48C876.254 320.48 876.65 320.54 876.962 320.66V324.692C876.794 324.572 876.518 324.464 876.134 324.368C875.774 324.248 875.366 324.188 874.91 324.188C872.918 324.188 871.07 324.8 869.366 326.024V338.984L873.938 339.272V341H862.922V339.236ZM879.411 339.236L882.111 339.02V323.792L879.519 323.144V321.2L884.487 320.552H884.559L885.351 321.2V321.848L885.243 324.656H885.351C885.591 324.248 886.023 323.72 886.647 323.072C887.271 322.424 888.075 321.836 889.059 321.308C890.043 320.756 891.111 320.48 892.263 320.48C892.743 320.48 893.139 320.54 893.451 320.66V324.692C893.283 324.572 893.007 324.464 892.623 324.368C892.263 324.248 891.855 324.188 891.399 324.188C889.407 324.188 887.559 324.8 885.855 326.024V338.984L890.427 339.272V341H879.411V339.236ZM900.075 317.42C899.307 317.42 898.731 317.204 898.347 316.772C897.963 316.34 897.771 315.788 897.771 315.116C897.771 314.348 897.999 313.712 898.455 313.208C898.935 312.704 899.583 312.452 900.399 312.452C901.215 312.452 901.815 312.668 902.199 313.1C902.583 313.532 902.775 314.084 902.775 314.756C902.775 315.572 902.535 316.22 902.055 316.7C901.599 317.18 900.951 317.42 900.111 317.42H900.075ZM898.635 323.792L895.899 323.144V321.236L901.479 320.552H901.551L902.379 321.2V338.948L905.259 339.236V341H895.719V339.236L898.635 338.912V323.792ZM905.943 321.02H914.331V322.712L911.595 323.144L914.583 333.728L915.627 338.3L916.671 333.692L920.127 321.02H923.655L927.219 333.692L928.263 338.336L929.415 333.728L932.331 323.18L929.595 322.712V321.02H936.903V322.712L934.995 323.18L929.415 341.288H926.031L922.215 328.58L921.279 324.116L920.523 328.58L916.887 341.288H913.539L907.779 323.144L905.943 322.712V321.02ZM946.871 341.396C943.967 341.396 941.747 340.448 940.211 338.552C938.699 336.656 937.943 334.124 937.943 330.956C937.943 328.868 938.339 327.032 939.131 325.448C939.923 323.864 941.027 322.64 942.443 321.776C943.883 320.912 945.515 320.48 947.339 320.48C949.571 320.48 951.299 321.104 952.523 322.352C953.771 323.576 954.431 325.34 954.503 327.644C954.503 329.108 954.419 330.224 954.251 330.992H941.867C941.915 333.368 942.467 335.288 943.523 336.752C944.579 338.192 946.079 338.912 948.023 338.912C948.983 338.912 949.979 338.744 951.011 338.408C952.067 338.048 952.883 337.628 953.459 337.148L954.143 338.732C953.447 339.452 952.415 340.076 951.047 340.604C949.679 341.132 948.287 341.396 946.871 341.396ZM950.543 329.084C950.615 328.58 950.651 328.064 950.651 327.536C950.627 325.976 950.291 324.752 949.643 323.864C949.019 322.952 948.023 322.496 946.655 322.496C945.263 322.496 944.147 323 943.307 324.008C942.491 325.016 942.023 326.708 941.903 329.084H950.543ZM957.597 335.6C957.597 333.344 958.725 331.688 960.981 330.632C963.237 329.552 966.093 328.976 969.549 328.904V327.896C969.549 326.768 969.429 325.88 969.189 325.232C968.949 324.584 968.529 324.116 967.929 323.828C967.353 323.516 966.525 323.36 965.445 323.36C964.221 323.36 963.117 323.54 962.133 323.9C961.173 324.236 960.213 324.656 959.253 325.16L958.353 323.288C958.665 323.024 959.241 322.676 960.081 322.244C960.921 321.812 961.893 321.428 962.997 321.092C964.101 320.756 965.205 320.588 966.309 320.588C968.013 320.588 969.357 320.828 970.341 321.308C971.349 321.764 972.069 322.508 972.501 323.54C972.933 324.572 973.149 325.952 973.149 327.68V339.236H975.273V340.82C974.793 340.94 974.181 341.06 973.437 341.18C972.717 341.3 972.081 341.36 971.529 341.36C970.857 341.36 970.401 341.252 970.161 341.036C969.921 340.844 969.801 340.4 969.801 339.704V338.516C969.081 339.236 968.193 339.896 967.137 340.496C966.105 341.096 964.929 341.396 963.609 341.396C961.881 341.396 960.441 340.904 959.289 339.92C958.161 338.912 957.597 337.472 957.597 335.6ZM965.157 338.948C965.781 338.948 966.501 338.756 967.317 338.372C968.133 337.988 968.877 337.532 969.549 337.004V330.812C966.933 330.812 964.953 331.22 963.609 332.036C962.289 332.828 961.629 333.872 961.629 335.168C961.629 336.464 961.941 337.424 962.565 338.048C963.213 338.648 964.077 338.948 965.157 338.948ZM983.932 341.36C982.564 341.36 981.544 341.048 980.872 340.424C980.2 339.8 979.864 338.732 979.864 337.22V323.396H977.272V321.776C977.392 321.752 977.728 321.668 978.28 321.524C978.832 321.38 979.204 321.248 979.396 321.128C979.78 320.912 980.08 320.48 980.296 319.832C980.488 319.376 980.716 318.644 980.98 317.636C981.244 316.628 981.4 316.028 981.448 315.836H983.572L983.644 321.02H989.656V323.396H983.644V334.448C983.644 335.816 983.68 336.776 983.752 337.328C983.848 337.88 984.028 338.24 984.292 338.408C984.58 338.576 985.06 338.66 985.732 338.66C986.38 338.66 987.088 338.576 987.856 338.408C988.648 338.24 989.26 338.06 989.692 337.868L990.232 339.488C989.656 339.92 988.72 340.34 987.424 340.748C986.152 341.156 984.988 341.36 983.932 341.36ZM994.38 314.144L991.356 313.748V312.2L997.224 311.516H997.296L998.088 312.056V320.408L997.944 323.468C998.712 322.772 999.768 322.112 1001.11 321.488C1002.46 320.864 1003.81 320.552 1005.18 320.552C1006.69 320.552 1007.87 320.84 1008.71 321.416C1009.55 321.992 1010.14 322.88 1010.47 324.08C1010.81 325.256 1010.98 326.852 1010.98 328.868V338.912L1013.5 339.236V341H1004.89V339.236L1007.23 338.912V328.832C1007.23 327.416 1007.14 326.312 1006.94 325.52C1006.75 324.704 1006.39 324.104 1005.86 323.72C1005.34 323.312 1004.54 323.108 1003.49 323.108C1002.62 323.108 1001.7 323.324 1000.72 323.756C999.732 324.188 998.868 324.692 998.124 325.268V338.912L1000.61 339.236V341H992.22V339.236L994.38 338.948V314.144ZM1025.02 341.396C1022.12 341.396 1019.9 340.448 1018.36 338.552C1016.85 336.656 1016.09 334.124 1016.09 330.956C1016.09 328.868 1016.49 327.032 1017.28 325.448C1018.07 323.864 1019.18 322.64 1020.59 321.776C1022.03 320.912 1023.67 320.48 1025.49 320.48C1027.72 320.48 1029.45 321.104 1030.67 322.352C1031.92 323.576 1032.58 325.34 1032.65 327.644C1032.65 329.108 1032.57 330.224 1032.4 330.992H1020.02C1020.07 333.368 1020.62 335.288 1021.67 336.752C1022.73 338.192 1024.23 338.912 1026.17 338.912C1027.13 338.912 1028.13 338.744 1029.16 338.408C1030.22 338.048 1031.03 337.628 1031.61 337.148L1032.29 338.732C1031.6 339.452 1030.57 340.076 1029.2 340.604C1027.83 341.132 1026.44 341.396 1025.02 341.396ZM1028.69 329.084C1028.77 328.58 1028.8 328.064 1028.8 327.536C1028.78 325.976 1028.44 324.752 1027.79 323.864C1027.17 322.952 1026.17 322.496 1024.81 322.496C1023.41 322.496 1022.3 323 1021.46 324.008C1020.64 325.016 1020.17 326.708 1020.05 329.084H1028.69ZM1035.82 339.236L1038.52 339.02V323.792L1035.93 323.144V321.2L1040.9 320.552H1040.97L1041.76 321.2V321.848L1041.65 324.656H1041.76C1042 324.248 1042.43 323.72 1043.06 323.072C1043.68 322.424 1044.48 321.836 1045.47 321.308C1046.45 320.756 1047.52 320.48 1048.67 320.48C1049.15 320.48 1049.55 320.54 1049.86 320.66V324.692C1049.69 324.572 1049.42 324.464 1049.03 324.368C1048.67 324.248 1048.26 324.188 1047.81 324.188C1045.82 324.188 1043.97 324.8 1042.26 326.024V338.984L1046.84 339.272V341H1035.82V339.236ZM1060.82 339.236L1063.8 338.876V316.484L1061 316.016V314.252H1065.71C1066.38 314.252 1067.3 314.204 1068.45 314.108C1069.65 314.012 1070.58 313.964 1071.26 313.964C1074.78 313.964 1077.29 314.54 1078.78 315.692C1080.29 316.82 1081.05 318.608 1081.05 321.056C1081.05 322.76 1080.57 324.32 1079.61 325.736C1078.67 327.152 1077.38 328.112 1075.72 328.616C1076.49 329.024 1077.2 329.732 1077.84 330.74C1078.52 331.724 1079.33 333.104 1080.29 334.88C1081.04 336.224 1081.6 337.208 1081.98 337.832C1082.39 338.456 1082.78 338.804 1083.14 338.876L1084.54 339.236V341H1079.57C1079.19 341 1078.76 340.592 1078.28 339.776C1077.8 338.936 1077.16 337.652 1076.37 335.924C1075.5 334.028 1074.75 332.528 1074.1 331.424C1073.48 330.296 1072.85 329.576 1072.23 329.264C1069.66 329.264 1068.14 329.252 1067.66 329.228V338.876L1071.22 339.236V341H1060.82V339.236ZM1071.94 327.32C1073.48 327.32 1074.69 326.816 1075.58 325.808C1076.46 324.8 1076.91 323.3 1076.91 321.308C1076.91 319.556 1076.45 318.224 1075.54 317.312C1074.65 316.376 1073.1 315.908 1070.9 315.908C1070.13 315.908 1069.36 315.956 1068.59 316.052C1068.11 316.1 1067.8 316.124 1067.66 316.124V327.284C1068.02 327.308 1068.76 327.32 1069.89 327.32H1071.94ZM1094.98 341.396C1092.08 341.396 1089.86 340.448 1088.32 338.552C1086.81 336.656 1086.06 334.124 1086.06 330.956C1086.06 328.868 1086.45 327.032 1087.24 325.448C1088.04 323.864 1089.14 322.64 1090.56 321.776C1092 320.912 1093.63 320.48 1095.45 320.48C1097.68 320.48 1099.41 321.104 1100.64 322.352C1101.88 323.576 1102.54 325.34 1102.62 327.644C1102.62 329.108 1102.53 330.224 1102.36 330.992H1089.98C1090.03 333.368 1090.58 335.288 1091.64 336.752C1092.69 338.192 1094.19 338.912 1096.14 338.912C1097.1 338.912 1098.09 338.744 1099.12 338.408C1100.18 338.048 1101 337.628 1101.57 337.148L1102.26 338.732C1101.56 339.452 1100.53 340.076 1099.16 340.604C1097.79 341.132 1096.4 341.396 1094.98 341.396ZM1098.66 329.084C1098.73 328.58 1098.76 328.064 1098.76 327.536C1098.74 325.976 1098.4 324.752 1097.76 323.864C1097.13 322.952 1096.14 322.496 1094.77 322.496C1093.38 322.496 1092.26 323 1091.42 324.008C1090.6 325.016 1090.14 326.708 1090.02 329.084H1098.66ZM1114.31 350.72C1111.24 350.72 1109.01 350.228 1107.62 349.244C1106.25 348.284 1105.57 346.952 1105.57 345.248C1105.57 344.192 1105.89 343.22 1106.54 342.332C1107.21 341.444 1108 340.772 1108.91 340.316C1107.81 339.692 1107.26 338.684 1107.26 337.292C1107.26 336.428 1107.51 335.612 1108.01 334.844C1108.52 334.076 1109.18 333.488 1109.99 333.08C1108.79 332.552 1107.87 331.796 1107.22 330.812C1106.6 329.828 1106.29 328.664 1106.29 327.32C1106.29 325.928 1106.67 324.716 1107.44 323.684C1108.23 322.652 1109.26 321.86 1110.53 321.308C1111.83 320.756 1113.2 320.48 1114.64 320.48C1117.06 320.48 1118.96 320.984 1120.33 321.992C1120.69 321.632 1121.24 321.284 1121.98 320.948C1122.73 320.612 1123.52 320.444 1124.36 320.444H1125.58V323.612H1121.62C1122.2 324.5 1122.49 325.532 1122.49 326.708C1122.49 328.124 1122.13 329.384 1121.41 330.488C1120.71 331.568 1119.73 332.408 1118.45 333.008C1117.21 333.608 1115.79 333.908 1114.21 333.908C1113.17 333.908 1112.25 333.8 1111.43 333.584C1111.1 333.92 1110.82 334.292 1110.61 334.7C1110.39 335.108 1110.28 335.504 1110.28 335.888C1110.28 336.752 1110.57 337.352 1111.15 337.688C1111.72 338 1112.75 338.156 1114.24 338.156H1118.31C1120.64 338.156 1122.37 338.6 1123.49 339.488C1124.62 340.376 1125.19 341.636 1125.19 343.268C1125.19 344.636 1124.69 345.884 1123.71 347.012C1122.73 348.164 1121.39 349.064 1119.71 349.712C1118.06 350.384 1116.26 350.72 1114.31 350.72ZM1114.57 331.928C1117.3 331.928 1118.67 330.308 1118.67 327.068C1118.67 325.46 1118.31 324.284 1117.59 323.54C1116.89 322.772 1115.84 322.388 1114.42 322.388C1113.1 322.388 1112.06 322.76 1111.29 323.504C1110.52 324.224 1110.14 325.388 1110.14 326.996C1110.14 328.508 1110.5 329.708 1111.22 330.596C1111.96 331.484 1113.08 331.928 1114.57 331.928ZM1114.64 348.632C1115.81 348.632 1116.92 348.452 1117.95 348.092C1119.01 347.756 1119.86 347.24 1120.51 346.544C1121.15 345.872 1121.48 345.08 1121.48 344.168C1121.48 343.088 1121.19 342.296 1120.61 341.792C1120.04 341.312 1118.92 341.072 1117.27 341.072H1113.02C1112.06 341.072 1111.3 341.012 1110.75 340.892C1109.77 341.972 1109.27 343.184 1109.27 344.528C1109.27 345.872 1109.68 346.892 1110.5 347.588C1111.31 348.284 1112.69 348.632 1114.64 348.632ZM1143.96 341.324C1143.29 341.324 1142.78 341.192 1142.45 340.928C1142.13 340.664 1141.98 340.232 1141.98 339.632V338.408C1141.19 339.2 1140.19 339.896 1138.99 340.496C1137.81 341.096 1136.63 341.396 1135.43 341.396C1133.19 341.396 1131.61 340.796 1130.67 339.596C1129.74 338.396 1129.27 336.416 1129.27 333.656V323.216L1127.25 322.64V321.056L1132.29 320.588H1132.33L1133.01 321.02V333.368C1133.01 334.76 1133.11 335.852 1133.3 336.644C1133.52 337.412 1133.88 337.988 1134.38 338.372C1134.91 338.732 1135.67 338.912 1136.65 338.912C1137.61 338.912 1138.51 338.708 1139.35 338.3C1140.19 337.892 1140.92 337.412 1141.55 336.86V323.216L1138.95 322.64V321.056L1144.43 320.588H1144.46L1145.29 321.02V339.164H1147.45L1147.41 340.784C1146.74 340.952 1146.15 341.084 1145.65 341.18C1145.17 341.276 1144.61 341.324 1143.96 341.324ZM1152.95 314.144L1150.04 313.748V312.2L1155.83 311.516H1155.9L1156.7 312.056V338.948L1159.76 339.236V341H1150.04V339.236L1152.95 338.912V314.144ZM1162.31 335.6C1162.31 333.344 1163.44 331.688 1165.7 330.632C1167.95 329.552 1170.81 328.976 1174.26 328.904V327.896C1174.26 326.768 1174.14 325.88 1173.9 325.232C1173.66 324.584 1173.24 324.116 1172.64 323.828C1172.07 323.516 1171.24 323.36 1170.16 323.36C1168.94 323.36 1167.83 323.54 1166.85 323.9C1165.89 324.236 1164.93 324.656 1163.97 325.16L1163.07 323.288C1163.38 323.024 1163.96 322.676 1164.8 322.244C1165.64 321.812 1166.61 321.428 1167.71 321.092C1168.82 320.756 1169.92 320.588 1171.02 320.588C1172.73 320.588 1174.07 320.828 1175.06 321.308C1176.06 321.764 1176.78 322.508 1177.22 323.54C1177.65 324.572 1177.86 325.952 1177.86 327.68V339.236H1179.99V340.82C1179.51 340.94 1178.9 341.06 1178.15 341.18C1177.43 341.3 1176.8 341.36 1176.24 341.36C1175.57 341.36 1175.12 341.252 1174.88 341.036C1174.64 340.844 1174.52 340.4 1174.52 339.704V338.516C1173.8 339.236 1172.91 339.896 1171.85 340.496C1170.82 341.096 1169.64 341.396 1168.32 341.396C1166.6 341.396 1165.16 340.904 1164 339.92C1162.88 338.912 1162.31 337.472 1162.31 335.6ZM1169.87 338.948C1170.5 338.948 1171.22 338.756 1172.03 338.372C1172.85 337.988 1173.59 337.532 1174.26 337.004V330.812C1171.65 330.812 1169.67 331.22 1168.32 332.036C1167 332.828 1166.34 333.872 1166.34 335.168C1166.34 336.464 1166.66 337.424 1167.28 338.048C1167.93 338.648 1168.79 338.948 1169.87 338.948ZM1182.56 339.236L1185.26 339.02V323.792L1182.67 323.144V321.2L1187.64 320.552H1187.71L1188.5 321.2V321.848L1188.4 324.656H1188.5C1188.74 324.248 1189.18 323.72 1189.8 323.072C1190.42 322.424 1191.23 321.836 1192.21 321.308C1193.2 320.756 1194.26 320.48 1195.42 320.48C1195.9 320.48 1196.29 320.54 1196.6 320.66V324.692C1196.44 324.572 1196.16 324.464 1195.78 324.368C1195.42 324.248 1195.01 324.188 1194.55 324.188C1192.56 324.188 1190.71 324.8 1189.01 326.024V338.984L1193.58 339.272V341H1182.56V339.236Z" fill="black"/>
<path d="M1480.73 116H1375.27V348H1480.73V116Z" fill="#6A62B7"/>
<path d="M1642.73 116H1537.27V348H1642.73V116Z" fill="#47CEB6"/>
<path d="M1801.73 116H1696.27V348H1801.73V116Z" fill="#8D88B8"/>
<path d="M163.783 183.594C136.952 183.594 115 205.546 115 232.377C115 265.305 157.685 302.502 159.514 304.331C160.734 304.941 162.563 305.551 163.783 305.551C165.002 305.551 166.832 304.941 168.051 304.331C169.88 302.502 212.565 265.305 212.565 232.377C212.565 205.546 190.613 183.594 163.783 183.594ZM163.783 291.526C150.977 279.33 127.196 253.109 127.196 232.377C127.196 212.254 143.66 195.79 163.783 195.79C183.905 195.79 200.37 212.254 200.37 232.377C200.37 252.5 176.588 279.33 163.783 291.526Z" fill="#6A62B7"/>
<path d="M263.155 143.845C241.79 143.845 224.309 161.326 224.309 182.691C224.309 208.912 258.299 238.531 259.756 239.988C260.727 240.473 262.183 240.959 263.155 240.959C264.126 240.959 265.582 240.473 266.554 239.988C268.01 238.531 302 208.912 302 182.691C302 161.326 284.52 143.845 263.155 143.845ZM263.155 229.791C252.958 220.08 234.021 199.2 234.021 182.691C234.021 166.667 247.131 153.557 263.155 153.557C279.178 153.557 292.289 166.667 292.289 182.691C292.289 198.715 273.352 220.08 263.155 229.791Z" fill="#6A62B7"/>
<path d="M194.032 121.578C184.118 121.578 176.007 129.689 176.007 139.603C176.007 151.769 191.779 165.513 192.454 166.188C192.905 166.414 193.581 166.639 194.032 166.639C194.482 166.639 195.158 166.414 195.609 166.188C196.285 165.513 212.056 151.769 212.056 139.603C212.056 129.689 203.945 121.578 194.032 121.578ZM194.032 161.457C189.3 156.951 180.513 147.263 180.513 139.603C180.513 132.167 186.597 126.084 194.032 126.084C201.467 126.084 207.55 132.167 207.55 139.603C207.55 147.038 198.763 156.951 194.032 161.457Z" fill="#6A62B7"/>
<path d="M204.435 278.449L209.122 275.021" stroke="#6A62B7" stroke-width="6.32367" stroke-linecap="round"/>
<path d="M218.153 268.415L222.84 264.987" stroke="#6A62B7" stroke-width="6.32367" stroke-linecap="round"/>
<path d="M231.871 258.381L236.558 254.953" stroke="#6A62B7" stroke-width="6.32367" stroke-linecap="round"/>
<path d="M245.589 248.347L250.276 244.919" stroke="#6A62B7" stroke-width="6.32367" stroke-linecap="round"/>
<path d="M216.294 188.426L212.102 184.408" stroke="#6A62B7" stroke-width="6.32367" stroke-linecap="round"/>
<path d="M205.398 177.983L201.206 173.965" stroke="#6A62B7" stroke-width="6.32367" stroke-linecap="round"/>
<path d="M168.775 230.899L176.812 222.555" stroke="#6A62B7" stroke-width="5.05245" stroke-linecap="round"/>
<path d="M168.216 240.582L176.559 248.62" stroke="#6A62B7" stroke-width="5.05245" stroke-linecap="round"/>
<path d="M150.932 223.932L159.276 231.97" stroke="#6A62B7" stroke-width="5.05245" stroke-linecap="round"/>
<path d="M151.248 249.092L159.286 240.749" stroke="#6A62B7" stroke-width="5.05245" stroke-linecap="round"/>
<path d="M266.996 181.269L272.669 175.268" stroke="#6A62B7" stroke-width="3.60147" stroke-linecap="round"/>
<path d="M266.662 188.175L272.663 193.848" stroke="#6A62B7" stroke-width="3.60147" stroke-linecap="round"/>
<path d="M254.231 176.422L260.232 182.096" stroke="#6A62B7" stroke-width="3.60147" stroke-linecap="round"/>
<path d="M254.625 194.354L260.298 188.353" stroke="#6A62B7" stroke-width="3.60147" stroke-linecap="round"/>
<path d="M231.536 113.286V105" stroke="#6A62B7" stroke-width="3.61353" stroke-linecap="round"/>
<path d="M236.053 118.551H244.339" stroke="#6A62B7" stroke-width="3.61353" stroke-linecap="round"/>
<path d="M218.889 118.551H227.175" stroke="#6A62B7" stroke-width="3.61353" stroke-linecap="round"/>
<path d="M231.536 131.354V123.068" stroke="#6A62B7" stroke-width="3.61353" stroke-linecap="round"/>
<path d="M132.734 330.323C132.294 330.052 132.227 329.308 132.734 329.308H143.091C147.254 329.308 152.196 330.966 152.196 335.806C152.196 339.698 147.187 342.338 144.716 342.338H143.633C147.627 342.338 149.387 343.625 151.282 347.145C152.907 350.191 153.617 351.511 154.937 351.883C155.648 352.086 155.547 353 154.87 353H147.085C146.577 353 146.577 352.289 147.051 351.985C147.796 351.511 146.713 348.972 146.239 347.957C144.885 345.148 144.107 342.643 140.925 342.643H139.842C139.876 346.806 140.011 351.138 141.331 351.985C141.839 352.289 141.839 353 141.331 353H132.734C132.227 353 132.294 352.255 132.734 351.985C134.156 351.138 134.088 345.723 134.088 341.154C134.088 336.585 134.291 331.237 132.734 330.323ZM143.091 330.323C139.233 330.323 139.842 336.585 139.842 341.154C139.842 341.323 139.842 341.458 139.842 341.628C144.547 341.526 146.442 339.834 146.442 336.009C146.442 332.625 145.224 330.323 143.091 330.323ZM164.935 353.677C159.926 353.677 155.796 349.514 155.796 344.538C155.796 339.529 159.926 335.434 164.935 335.434C169.91 335.434 174.04 339.529 174.04 344.538C174.04 349.514 169.944 353.677 164.935 353.677ZM161.415 337.228C159.316 338.243 160.095 342.203 161.855 345.994C163.446 349.277 165.612 352.052 167.575 352.052C167.88 352.052 168.184 351.985 168.455 351.849C170.553 350.834 169.741 346.84 167.947 343.083C166.39 339.8 164.224 337.025 162.295 337.025C161.99 337.025 161.686 337.092 161.415 337.228ZM174.811 337.092C174.371 336.822 174.303 336.111 174.811 336.077L181.072 335.535C181.648 335.468 182.02 335.84 182.02 336.415C182.02 338.514 181.986 340.951 181.986 343.489C181.986 345.588 181.241 351.985 184.491 351.985C188.214 351.985 187.977 347.618 187.977 347.618H188.011V341.628C188.011 340.342 188.18 338.108 186.589 337.16C186.149 336.889 186.081 336.178 186.589 336.145L192.783 335.603C193.358 335.535 193.764 335.908 193.764 336.483V343.895C193.764 346.772 193.528 351.172 195.186 352.018C195.694 352.289 195.694 353 195.017 353C191.361 353 189.263 352.154 188.451 350.292C187.841 351.646 186.657 353 184.22 353C180.598 353 176.232 351.24 176.232 344.572C176.232 341.695 176.401 338.04 174.811 337.092ZM196.125 337.092C195.82 337.092 195.617 336.889 195.617 336.585C195.617 336.28 195.82 336.077 196.125 336.077H196.903C199.34 336.077 201.642 334.486 201.642 331.135C201.642 330.831 201.913 330.662 202.15 330.662C202.42 330.662 202.657 330.831 202.657 331.135V336.077H205.568C205.873 336.077 206.076 336.28 206.076 336.585C206.076 336.923 205.873 337.092 205.568 337.092H202.657V343.828C202.657 346.705 202.488 351.037 204.079 351.985C204.519 352.255 204.586 353 203.063 353C199.645 353 196.903 351.409 196.903 348.295V337.092H196.125ZM215.474 353.677C210.803 353.677 206.301 349.954 206.301 344.606C206.301 339.157 210.498 335.434 214.966 335.434C220.686 335.434 222.751 340.172 223.394 342.474C223.664 343.117 223.224 343.692 222.412 343.692H211.277C212.292 347.111 214.458 350.902 217.741 350.902C220.381 350.902 221.871 349.074 222.344 348.363C222.547 348.058 222.784 347.923 223.021 347.923C223.394 347.923 223.631 348.295 223.36 348.905C222.446 350.834 219.501 353.677 215.474 353.677ZM211.006 342.677H218.824C218.114 340.748 216.32 336.788 213.511 336.788C211.751 336.788 210.634 338.006 210.634 339.868C210.634 340.612 210.769 341.594 211.006 342.677ZM247.86 353H247.488V352.966V353C246.98 353 246.845 352.865 246.608 352.086C246.134 350.597 243.663 343.76 242.682 341.154C242.309 340.138 241.937 339.055 241.531 338.006C239.805 342.745 237.266 349.818 236.42 352.255C236.285 352.695 235.879 353 235.439 353H235.066V352.966V353C234.559 353 234.423 352.865 234.186 352.086C233.712 350.597 231.242 343.76 230.26 341.154C228.602 336.585 226.571 331.169 224.879 330.323C224.337 330.052 224.371 329.308 224.879 329.308H233.103C233.611 329.308 233.611 330.052 233.103 330.323C231.919 330.966 234.356 336.585 236.014 341.154C236.42 342.237 236.996 343.76 237.368 344.877C238.552 341.594 239.839 337.972 240.617 335.772C239.5 333.065 238.349 330.831 237.3 330.323C236.759 330.052 236.792 329.308 237.3 329.308H245.525C246.032 329.308 246.032 330.052 245.525 330.323C244.34 330.966 246.777 336.585 248.436 341.154C248.842 342.237 249.417 343.76 249.789 344.877C250.399 343.151 250.94 341.662 251.143 341.154C252.802 336.585 254.02 331.609 251.685 330.323C251.177 330.052 251.177 329.308 251.685 329.308H258.217C258.725 329.308 258.759 330.052 258.217 330.323C256.525 331.169 254.494 336.585 252.836 341.154C251.989 343.455 249.688 349.785 248.842 352.255C248.706 352.695 248.3 353 247.86 353ZM259.099 353C258.592 353 258.659 352.255 259.099 351.985C260.487 351.138 260.521 349.446 260.521 347.72V340.714C260.521 339.157 260.419 337.905 259.099 337.092C258.659 336.822 258.592 336.111 259.099 336.077L265.293 335.535C265.869 335.468 266.275 335.84 266.275 336.415V347.754C266.275 349.446 266.106 351.037 267.696 351.985C268.136 352.255 268.204 353 267.696 353H259.099ZM263.398 334.588C261.739 334.588 260.419 333.268 260.419 331.609C260.419 329.951 261.739 328.631 263.398 328.631C265.056 328.631 266.376 329.951 266.376 331.609C266.376 333.268 265.056 334.588 263.398 334.588ZM274.505 339.8C274.167 341.458 273.084 342.169 272.102 342.169C270.884 342.169 269.767 341.052 270.274 339.157C271.019 336.415 274.031 336.077 278.025 336.077H283.881C284.456 336.077 284.693 336.415 284.388 336.923L275.588 351.985C278.533 351.985 279.751 351.815 280.293 349.277C280.631 347.618 281.714 346.908 282.696 346.908C283.914 346.908 285.031 348.025 284.524 349.92C283.779 352.662 280.767 353 276.773 353H270.241C269.665 353 269.428 352.662 269.733 352.154L278.533 337.092C276.062 337.126 275.013 337.498 274.505 339.8Z" fill="#6A62B7"/>
<path d="M1389.37 334L1390.21 331.078H1388.2V329.398H1390.68L1391.64 326.072H1389.62V324.393H1392.13L1392.97 321.487H1394.9L1394.06 324.393H1397.08L1397.9 321.487H1399.83L1399.01 324.393H1401.03V326.072H1398.52L1397.57 329.398H1399.58V331.078H1397.08L1396.26 334H1394.33L1395.15 331.078H1392.14L1391.3 334H1389.37ZM1392.61 329.398H1395.64L1396.59 326.072H1393.57L1392.61 329.398ZM1407.49 334.202C1406.68 334.202 1405.95 334.022 1405.31 333.664C1404.67 333.306 1404.17 332.813 1403.8 332.186C1403.44 331.559 1403.26 330.848 1403.26 330.053C1403.26 329.639 1403.31 329.224 1403.4 328.81C1403.49 328.396 1403.64 327.965 1403.87 327.517C1404.1 327.069 1404.42 326.588 1404.81 326.072L1408.3 321.487H1410.67L1406.39 327.03L1406.05 326.811C1406.21 326.632 1406.37 326.492 1406.55 326.392C1406.74 326.291 1406.94 326.218 1407.14 326.173C1407.35 326.128 1407.58 326.106 1407.81 326.106C1408.56 326.106 1409.24 326.28 1409.83 326.627C1410.42 326.974 1410.89 327.444 1411.22 328.038C1411.57 328.631 1411.74 329.314 1411.74 330.087C1411.74 330.87 1411.56 331.576 1411.19 332.203C1410.82 332.819 1410.32 333.306 1409.68 333.664C1409.05 334.022 1408.32 334.202 1407.49 334.202ZM1407.49 332.438C1407.93 332.438 1408.32 332.337 1408.65 332.136C1408.99 331.934 1409.26 331.66 1409.46 331.313C1409.66 330.954 1409.76 330.551 1409.76 330.103C1409.76 329.644 1409.66 329.241 1409.46 328.894C1409.27 328.547 1409 328.278 1408.65 328.088C1408.32 327.886 1407.93 327.786 1407.49 327.786C1407.07 327.786 1406.68 327.886 1406.34 328.088C1406 328.278 1405.73 328.547 1405.53 328.894C1405.33 329.241 1405.23 329.644 1405.23 330.103C1405.23 330.551 1405.33 330.954 1405.53 331.313C1405.73 331.66 1406 331.934 1406.34 332.136C1406.68 332.337 1407.07 332.438 1407.49 332.438ZM1413.21 334L1417.62 321.487H1420.07L1424.47 334H1422.35L1421.39 331.195H1416.31L1415.33 334H1413.21ZM1416.88 329.432H1420.79L1418.57 322.881H1419.13L1416.88 329.432ZM1430.22 334.202C1429.4 334.202 1428.67 334.022 1428.03 333.664C1427.4 333.306 1426.89 332.813 1426.52 332.186C1426.16 331.559 1425.99 330.848 1425.99 330.053C1425.99 329.639 1426.03 329.224 1426.12 328.81C1426.21 328.396 1426.37 327.965 1426.59 327.517C1426.83 327.069 1427.14 326.588 1427.53 326.072L1431.02 321.487H1433.39L1429.11 327.03L1428.77 326.811C1428.93 326.632 1429.1 326.492 1429.28 326.392C1429.47 326.291 1429.66 326.218 1429.87 326.173C1430.08 326.128 1430.3 326.106 1430.54 326.106C1431.29 326.106 1431.96 326.28 1432.55 326.627C1433.15 326.974 1433.61 327.444 1433.95 328.038C1434.29 328.631 1434.47 329.314 1434.47 330.087C1434.47 330.87 1434.28 331.576 1433.91 332.203C1433.54 332.819 1433.04 333.306 1432.4 333.664C1431.77 334.022 1431.05 334.202 1430.22 334.202ZM1430.22 332.438C1430.65 332.438 1431.04 332.337 1431.38 332.136C1431.71 331.934 1431.98 331.66 1432.18 331.313C1432.38 330.954 1432.49 330.551 1432.49 330.103C1432.49 329.644 1432.38 329.241 1432.18 328.894C1431.99 328.547 1431.72 328.278 1431.38 328.088C1431.04 327.886 1430.65 327.786 1430.22 327.786C1429.79 327.786 1429.41 327.886 1429.06 328.088C1428.72 328.278 1428.45 328.547 1428.25 328.894C1428.05 329.241 1427.95 329.644 1427.95 330.103C1427.95 330.551 1428.05 330.954 1428.25 331.313C1428.45 331.66 1428.72 331.934 1429.06 332.136C1429.41 332.337 1429.79 332.438 1430.22 332.438ZM1436.59 334V332.572L1440.02 328.911C1440.69 328.194 1441.22 327.618 1441.6 327.181C1441.99 326.733 1442.27 326.341 1442.44 326.005C1442.62 325.669 1442.71 325.317 1442.71 324.947C1442.71 324.343 1442.52 323.878 1442.15 323.553C1441.78 323.217 1441.31 323.049 1440.73 323.049C1440.12 323.049 1439.6 323.223 1439.16 323.57C1438.73 323.906 1438.42 324.399 1438.26 325.048L1436.51 324.544C1436.64 323.883 1436.91 323.312 1437.32 322.831C1437.72 322.338 1438.21 321.958 1438.79 321.689C1439.39 321.42 1440.03 321.286 1440.71 321.286C1441.5 321.286 1442.2 321.437 1442.79 321.739C1443.38 322.03 1443.84 322.439 1444.17 322.965C1444.5 323.492 1444.67 324.102 1444.67 324.796C1444.67 325.255 1444.58 325.703 1444.4 326.14C1444.24 326.565 1443.97 327.019 1443.61 327.5C1443.26 327.97 1442.8 328.502 1442.24 329.096L1439.21 332.32H1444.91V334H1436.59ZM1447.59 334V321.487H1452.86C1453.65 321.487 1454.32 321.627 1454.89 321.907C1455.47 322.176 1455.9 322.568 1456.21 323.083C1456.51 323.587 1456.66 324.186 1456.66 324.88C1456.66 325.485 1456.5 326.039 1456.19 326.543C1455.89 327.035 1455.41 327.427 1454.76 327.718V326.879C1455.33 327.103 1455.8 327.388 1456.15 327.735C1456.51 328.071 1456.77 328.452 1456.93 328.877C1457.1 329.303 1457.18 329.751 1457.18 330.221C1457.18 331.397 1456.79 332.32 1456.02 332.992C1455.26 333.664 1454.21 334 1452.88 334H1447.59ZM1449.57 332.236H1453.03C1453.69 332.236 1454.22 332.057 1454.61 331.699C1455 331.33 1455.2 330.842 1455.2 330.238C1455.2 329.622 1455 329.135 1454.61 328.777C1454.22 328.407 1453.69 328.222 1453.03 328.222H1449.57V332.236ZM1449.57 326.476H1452.91C1453.45 326.476 1453.88 326.324 1454.21 326.022C1454.53 325.709 1454.69 325.3 1454.69 324.796C1454.69 324.292 1454.53 323.9 1454.21 323.62C1453.88 323.34 1453.45 323.2 1452.91 323.2H1449.57V326.476ZM1459.69 334L1465.03 323.167H1459.02V321.487H1467.09V323.167L1461.84 334H1459.69Z" fill="white"/>
<path d="M1550.25 334L1551.09 331.078H1549.07V329.398H1551.56L1552.51 326.072H1550.5V324.393H1553L1553.84 321.487H1555.77L1554.93 324.393H1557.96L1558.78 321.487H1560.71L1559.89 324.393H1561.9V326.072H1559.4L1558.44 329.398H1560.46V331.078H1557.96L1557.13 334H1555.2L1556.03 331.078H1553.02L1552.18 334H1550.25ZM1553.49 329.398H1556.51L1557.47 326.072H1554.45L1553.49 329.398ZM1569.93 334V331.178H1563.97V329.532L1569.85 321.487H1571.81V329.532H1573.54V331.178H1571.81V334H1569.93ZM1565.43 330.255L1565.11 329.532H1569.93V323.066L1570.47 323.234L1565.43 330.255ZM1575.94 334L1581.28 323.167H1575.27V321.487H1583.34V323.167L1578.09 334H1575.94ZM1591.6 334.202C1590.72 334.202 1589.89 334.039 1589.13 333.714C1588.38 333.39 1587.73 332.942 1587.17 332.371C1586.62 331.789 1586.19 331.106 1585.88 330.322C1585.56 329.538 1585.4 328.676 1585.4 327.735C1585.4 326.806 1585.56 325.949 1585.86 325.166C1586.17 324.371 1586.61 323.688 1587.17 323.116C1587.73 322.534 1588.38 322.086 1589.13 321.773C1589.88 321.448 1590.71 321.286 1591.6 321.286C1592.49 321.286 1593.28 321.437 1593.97 321.739C1594.68 322.042 1595.27 322.439 1595.75 322.932C1596.23 323.413 1596.58 323.939 1596.79 324.51L1595.01 325.35C1594.74 324.678 1594.31 324.135 1593.72 323.721C1593.14 323.296 1592.43 323.083 1591.6 323.083C1590.77 323.083 1590.04 323.279 1589.4 323.671C1588.76 324.063 1588.27 324.606 1587.91 325.3C1587.56 325.994 1587.39 326.806 1587.39 327.735C1587.39 328.665 1587.56 329.482 1587.91 330.187C1588.27 330.882 1588.76 331.425 1589.4 331.817C1590.04 332.197 1590.77 332.388 1591.6 332.388C1592.43 332.388 1593.14 332.18 1593.72 331.766C1594.31 331.352 1594.74 330.809 1595.01 330.137L1596.79 330.977C1596.58 331.537 1596.23 332.063 1595.75 332.556C1595.27 333.048 1594.68 333.446 1593.97 333.748C1593.28 334.05 1592.49 334.202 1591.6 334.202ZM1599.33 334V321.487H1607.58V323.251H1601.32V326.845H1607.24V328.609H1601.32V332.236H1607.58V334H1599.33ZM1609.93 334V321.487H1615.2C1615.98 321.487 1616.66 321.627 1617.23 321.907C1617.8 322.176 1618.24 322.568 1618.54 323.083C1618.84 323.587 1618.99 324.186 1618.99 324.88C1618.99 325.485 1618.84 326.039 1618.52 326.543C1618.22 327.035 1617.75 327.427 1617.1 327.718V326.879C1617.67 327.103 1618.13 327.388 1618.49 327.735C1618.85 328.071 1619.11 328.452 1619.26 328.877C1619.43 329.303 1619.52 329.751 1619.52 330.221C1619.52 331.397 1619.13 332.32 1618.36 332.992C1617.6 333.664 1616.55 334 1615.22 334H1609.93ZM1611.91 332.236H1615.37C1616.03 332.236 1616.55 332.057 1616.95 331.699C1617.34 331.33 1617.53 330.842 1617.53 330.238C1617.53 329.622 1617.34 329.135 1616.95 328.777C1616.55 328.407 1616.03 328.222 1615.37 328.222H1611.91V332.236ZM1611.91 326.476H1615.25C1615.79 326.476 1616.22 326.324 1616.54 326.022C1616.87 325.709 1617.03 325.3 1617.03 324.796C1617.03 324.292 1616.87 323.9 1616.54 323.62C1616.22 323.34 1615.79 323.2 1615.25 323.2H1611.91V326.476ZM1625.82 334.202C1625 334.202 1624.27 334.022 1623.64 333.664C1623 333.306 1622.49 332.813 1622.13 332.186C1621.77 331.559 1621.59 330.848 1621.59 330.053C1621.59 329.639 1621.63 329.224 1621.72 328.81C1621.81 328.396 1621.97 327.965 1622.19 327.517C1622.43 327.069 1622.74 326.588 1623.13 326.072L1626.63 321.487H1628.99L1624.71 327.03L1624.38 326.811C1624.53 326.632 1624.7 326.492 1624.88 326.392C1625.07 326.291 1625.27 326.218 1625.47 326.173C1625.68 326.128 1625.9 326.106 1626.14 326.106C1626.89 326.106 1627.56 326.28 1628.15 326.627C1628.75 326.974 1629.21 327.444 1629.55 328.038C1629.9 328.631 1630.07 329.314 1630.07 330.087C1630.07 330.87 1629.88 331.576 1629.52 332.203C1629.15 332.819 1628.64 333.306 1628 333.664C1627.38 334.022 1626.65 334.202 1625.82 334.202ZM1625.82 332.438C1626.26 332.438 1626.64 332.337 1626.98 332.136C1627.31 331.934 1627.58 331.66 1627.79 331.313C1627.99 330.954 1628.09 330.551 1628.09 330.103C1628.09 329.644 1627.99 329.241 1627.79 328.894C1627.59 328.547 1627.33 328.278 1626.98 328.088C1626.64 327.886 1626.26 327.786 1625.82 327.786C1625.39 327.786 1625.01 327.886 1624.66 328.088C1624.33 328.278 1624.06 328.547 1623.86 328.894C1623.65 329.241 1623.55 329.644 1623.55 330.103C1623.55 330.551 1623.65 330.954 1623.86 331.313C1624.06 331.66 1624.33 331.934 1624.66 332.136C1625.01 332.337 1625.39 332.438 1625.82 332.438Z" fill="white"/>
<path d="M1708.53 334L1709.37 331.078H1707.35V329.398H1709.84L1710.79 326.072H1708.78V324.393H1711.28L1712.12 321.487H1714.05L1713.21 324.393H1716.24L1717.06 321.487H1718.99L1718.17 324.393H1720.18V326.072H1717.68L1716.72 329.398H1718.74V331.078H1716.24L1715.41 334H1713.48L1714.3 331.078H1711.3L1710.46 334H1708.53ZM1711.77 329.398H1714.79L1715.75 326.072H1712.72L1711.77 329.398ZM1726.88 334.202C1726.01 334.202 1725.24 334.034 1724.58 333.698C1723.93 333.351 1723.43 332.891 1723.07 332.32C1722.71 331.738 1722.53 331.094 1722.53 330.389C1722.53 329.583 1722.75 328.889 1723.19 328.306C1723.64 327.713 1724.26 327.282 1725.07 327.013L1724.99 327.517C1724.39 327.293 1723.92 326.918 1723.58 326.392C1723.24 325.854 1723.07 325.266 1723.07 324.628C1723.07 323.99 1723.23 323.419 1723.56 322.915C1723.89 322.411 1724.35 322.014 1724.92 321.722C1725.5 321.431 1726.16 321.286 1726.88 321.286C1727.62 321.286 1728.28 321.431 1728.85 321.722C1729.42 322.002 1729.87 322.394 1730.19 322.898C1730.53 323.402 1730.7 323.979 1730.7 324.628C1730.7 325.289 1730.52 325.882 1730.18 326.408C1729.84 326.923 1729.38 327.293 1728.8 327.517L1728.71 327.013C1729.52 327.293 1730.15 327.724 1730.6 328.306C1731.04 328.889 1731.27 329.583 1731.27 330.389C1731.27 331.094 1731.08 331.738 1730.71 332.32C1730.36 332.891 1729.85 333.351 1729.19 333.698C1728.52 334.034 1727.76 334.202 1726.88 334.202ZM1726.88 332.522C1727.37 332.522 1727.79 332.432 1728.14 332.253C1728.5 332.063 1728.78 331.805 1728.98 331.481C1729.19 331.156 1729.29 330.775 1729.29 330.339C1729.29 329.902 1729.19 329.521 1728.98 329.196C1728.78 328.872 1728.5 328.62 1728.14 328.441C1727.79 328.262 1727.37 328.172 1726.88 328.172C1726.41 328.172 1726 328.262 1725.64 328.441C1725.28 328.62 1725 328.872 1724.8 329.196C1724.6 329.521 1724.5 329.902 1724.5 330.339C1724.5 330.775 1724.6 331.156 1724.8 331.481C1725 331.805 1725.28 332.063 1725.64 332.253C1726 332.432 1726.41 332.522 1726.88 332.522ZM1726.88 326.492C1727.24 326.492 1727.56 326.42 1727.82 326.274C1728.1 326.117 1728.32 325.905 1728.48 325.636C1728.64 325.367 1728.71 325.065 1728.71 324.729C1728.71 324.382 1728.64 324.079 1728.48 323.822C1728.32 323.553 1728.1 323.346 1727.82 323.2C1727.56 323.044 1727.24 322.965 1726.88 322.965C1726.54 322.965 1726.22 323.044 1725.94 323.2C1725.66 323.346 1725.45 323.553 1725.29 323.822C1725.13 324.079 1725.05 324.382 1725.05 324.729C1725.05 325.065 1725.13 325.367 1725.29 325.636C1725.45 325.905 1725.66 326.117 1725.94 326.274C1726.22 326.42 1726.54 326.492 1726.88 326.492ZM1733.99 334V321.487H1738.08C1739.38 321.487 1740.51 321.75 1741.46 322.277C1742.42 322.792 1743.17 323.52 1743.69 324.46C1744.22 325.401 1744.48 326.492 1744.48 327.735C1744.48 328.967 1744.22 330.059 1743.69 331.01C1743.17 331.951 1742.42 332.684 1741.46 333.211C1740.51 333.737 1739.38 334 1738.08 334H1733.99ZM1735.97 332.236H1738.12C1739 332.236 1739.77 332.052 1740.42 331.682C1741.08 331.313 1741.59 330.792 1741.95 330.12C1742.31 329.448 1742.48 328.653 1742.48 327.735C1742.48 326.817 1742.3 326.028 1741.93 325.367C1741.57 324.695 1741.07 324.175 1740.42 323.805C1739.77 323.436 1739 323.251 1738.12 323.251H1735.97V332.236ZM1750.94 334.202C1750.06 334.202 1749.3 334.034 1748.64 333.698C1747.99 333.351 1747.48 332.891 1747.12 332.32C1746.77 331.738 1746.59 331.094 1746.59 330.389C1746.59 329.583 1746.8 328.889 1747.24 328.306C1747.69 327.713 1748.32 327.282 1749.12 327.013L1749.04 327.517C1748.45 327.293 1747.98 326.918 1747.63 326.392C1747.29 325.854 1747.12 325.266 1747.12 324.628C1747.12 323.99 1747.29 323.419 1747.61 322.915C1747.95 322.411 1748.4 322.014 1748.97 321.722C1749.55 321.431 1750.21 321.286 1750.94 321.286C1751.68 321.286 1752.33 321.431 1752.9 321.722C1753.47 322.002 1753.92 322.394 1754.25 322.898C1754.58 323.402 1754.75 323.979 1754.75 324.628C1754.75 325.289 1754.58 325.882 1754.23 326.408C1753.89 326.923 1753.43 327.293 1752.85 327.517L1752.77 327.013C1753.57 327.293 1754.2 327.724 1754.65 328.306C1755.1 328.889 1755.32 329.583 1755.32 330.389C1755.32 331.094 1755.14 331.738 1754.77 332.32C1754.41 332.891 1753.9 333.351 1753.24 333.698C1752.58 334.034 1751.81 334.202 1750.94 334.202ZM1750.94 332.522C1751.42 332.522 1751.84 332.432 1752.2 332.253C1752.55 332.063 1752.83 331.805 1753.04 331.481C1753.24 331.156 1753.34 330.775 1753.34 330.339C1753.34 329.902 1753.24 329.521 1753.04 329.196C1752.83 328.872 1752.55 328.62 1752.2 328.441C1751.84 328.262 1751.42 328.172 1750.94 328.172C1750.47 328.172 1750.05 328.262 1749.69 328.441C1749.34 328.62 1749.06 328.872 1748.85 329.196C1748.65 329.521 1748.55 329.902 1748.55 330.339C1748.55 330.775 1748.65 331.156 1748.85 331.481C1749.06 331.805 1749.34 332.063 1749.69 332.253C1750.05 332.432 1750.47 332.522 1750.94 332.522ZM1750.94 326.492C1751.29 326.492 1751.61 326.42 1751.88 326.274C1752.16 326.117 1752.38 325.905 1752.53 325.636C1752.69 325.367 1752.77 325.065 1752.77 324.729C1752.77 324.382 1752.69 324.079 1752.53 323.822C1752.38 323.553 1752.16 323.346 1751.88 323.2C1751.61 323.044 1751.29 322.965 1750.94 322.965C1750.59 322.965 1750.28 323.044 1750 323.2C1749.72 323.346 1749.5 323.553 1749.34 323.822C1749.18 324.079 1749.11 324.382 1749.11 324.729C1749.11 325.065 1749.18 325.367 1749.34 325.636C1749.5 325.905 1749.72 326.117 1750 326.274C1750.28 326.42 1750.59 326.492 1750.94 326.492ZM1762.04 334.202C1761.16 334.202 1760.4 334.034 1759.74 333.698C1759.09 333.351 1758.58 332.891 1758.22 332.32C1757.87 331.738 1757.69 331.094 1757.69 330.389C1757.69 329.583 1757.9 328.889 1758.34 328.306C1758.79 327.713 1759.42 327.282 1760.22 327.013L1760.14 327.517C1759.54 327.293 1759.07 326.918 1758.73 326.392C1758.39 325.854 1758.22 325.266 1758.22 324.628C1758.22 323.99 1758.39 323.419 1758.71 322.915C1759.05 322.411 1759.5 322.014 1760.07 321.722C1760.65 321.431 1761.31 321.286 1762.04 321.286C1762.78 321.286 1763.43 321.431 1764 321.722C1764.57 322.002 1765.02 322.394 1765.34 322.898C1765.68 323.402 1765.85 323.979 1765.85 324.628C1765.85 325.289 1765.68 325.882 1765.33 326.408C1764.99 326.923 1764.53 327.293 1763.95 327.517L1763.87 327.013C1764.67 327.293 1765.3 327.724 1765.75 328.306C1766.2 328.889 1766.42 329.583 1766.42 330.389C1766.42 331.094 1766.24 331.738 1765.87 332.32C1765.51 332.891 1765 333.351 1764.34 333.698C1763.68 334.034 1762.91 334.202 1762.04 334.202ZM1762.04 332.522C1762.52 332.522 1762.94 332.432 1763.3 332.253C1763.65 332.063 1763.93 331.805 1764.14 331.481C1764.34 331.156 1764.44 330.775 1764.44 330.339C1764.44 329.902 1764.34 329.521 1764.14 329.196C1763.93 328.872 1763.65 328.62 1763.3 328.441C1762.94 328.262 1762.52 328.172 1762.04 328.172C1761.57 328.172 1761.15 328.262 1760.79 328.441C1760.44 328.62 1760.16 328.872 1759.95 329.196C1759.75 329.521 1759.65 329.902 1759.65 330.339C1759.65 330.775 1759.75 331.156 1759.95 331.481C1760.16 331.805 1760.44 332.063 1760.79 332.253C1761.15 332.432 1761.57 332.522 1762.04 332.522ZM1762.04 326.492C1762.39 326.492 1762.71 326.42 1762.98 326.274C1763.26 326.117 1763.48 325.905 1763.63 325.636C1763.79 325.367 1763.87 325.065 1763.87 324.729C1763.87 324.382 1763.79 324.079 1763.63 323.822C1763.48 323.553 1763.26 323.346 1762.98 323.2C1762.71 323.044 1762.39 322.965 1762.04 322.965C1761.69 322.965 1761.38 323.044 1761.1 323.2C1760.82 323.346 1760.6 323.553 1760.44 323.822C1760.28 324.079 1760.21 324.382 1760.21 324.729C1760.21 325.065 1760.28 325.367 1760.44 325.636C1760.6 325.905 1760.82 326.117 1761.1 326.274C1761.38 326.42 1761.69 326.492 1762.04 326.492ZM1769.14 334V321.487H1774.41C1775.2 321.487 1775.87 321.627 1776.44 321.907C1777.02 322.176 1777.45 322.568 1777.75 323.083C1778.06 323.587 1778.21 324.186 1778.21 324.88C1778.21 325.485 1778.05 326.039 1777.74 326.543C1777.44 327.035 1776.96 327.427 1776.31 327.718V326.879C1776.88 327.103 1777.35 327.388 1777.7 327.735C1778.06 328.071 1778.32 328.452 1778.48 328.877C1778.64 329.303 1778.73 329.751 1778.73 330.221C1778.73 331.397 1778.34 332.32 1777.57 332.992C1776.81 333.664 1775.76 334 1774.43 334H1769.14ZM1771.12 332.236H1774.58C1775.24 332.236 1775.77 332.057 1776.16 331.699C1776.55 331.33 1776.75 330.842 1776.75 330.238C1776.75 329.622 1776.55 329.135 1776.16 328.777C1775.77 328.407 1775.24 328.222 1774.58 328.222H1771.12V332.236ZM1771.12 326.476H1774.46C1775 326.476 1775.43 326.324 1775.76 326.022C1776.08 325.709 1776.24 325.3 1776.24 324.796C1776.24 324.292 1776.08 323.9 1775.76 323.62C1775.43 323.34 1775 323.2 1774.46 323.2H1771.12V326.476ZM1785.27 334.202C1784.4 334.202 1783.63 334.034 1782.97 333.698C1782.32 333.351 1781.81 332.891 1781.46 332.32C1781.1 331.738 1780.92 331.094 1780.92 330.389C1780.92 329.583 1781.14 328.889 1781.57 328.306C1782.02 327.713 1782.65 327.282 1783.45 327.013L1783.37 327.517C1782.78 327.293 1782.31 326.918 1781.96 326.392C1781.62 325.854 1781.46 325.266 1781.46 324.628C1781.46 323.99 1781.62 323.419 1781.94 322.915C1782.28 322.411 1782.73 322.014 1783.3 321.722C1783.89 321.431 1784.54 321.286 1785.27 321.286C1786.01 321.286 1786.66 321.431 1787.23 321.722C1787.8 322.002 1788.25 322.394 1788.58 322.898C1788.91 323.402 1789.08 323.979 1789.08 324.628C1789.08 325.289 1788.91 325.882 1788.56 326.408C1788.22 326.923 1787.77 327.293 1787.18 327.517L1787.1 327.013C1787.91 327.293 1788.53 327.724 1788.98 328.306C1789.43 328.889 1789.65 329.583 1789.65 330.389C1789.65 331.094 1789.47 331.738 1789.1 332.32C1788.74 332.891 1788.23 333.351 1787.57 333.698C1786.91 334.034 1786.14 334.202 1785.27 334.202ZM1785.27 332.522C1785.75 332.522 1786.17 332.432 1786.53 332.253C1786.89 332.063 1787.17 331.805 1787.37 331.481C1787.57 331.156 1787.67 330.775 1787.67 330.339C1787.67 329.902 1787.57 329.521 1787.37 329.196C1787.17 328.872 1786.89 328.62 1786.53 328.441C1786.17 328.262 1785.75 328.172 1785.27 328.172C1784.8 328.172 1784.38 328.262 1784.03 328.441C1783.67 328.62 1783.39 328.872 1783.19 329.196C1782.98 329.521 1782.88 329.902 1782.88 330.339C1782.88 330.775 1782.98 331.156 1783.19 331.481C1783.39 331.805 1783.67 332.063 1784.03 332.253C1784.38 332.432 1784.8 332.522 1785.27 332.522ZM1785.27 326.492C1785.63 326.492 1785.94 326.42 1786.21 326.274C1786.49 326.117 1786.71 325.905 1786.86 325.636C1787.02 325.367 1787.1 325.065 1787.1 324.729C1787.1 324.382 1787.02 324.079 1786.86 323.822C1786.71 323.553 1786.49 323.346 1786.21 323.2C1785.94 323.044 1785.63 322.965 1785.27 322.965C1784.92 322.965 1784.61 323.044 1784.33 323.2C1784.05 323.346 1783.83 323.553 1783.67 323.822C1783.52 324.079 1783.44 324.382 1783.44 324.729C1783.44 325.065 1783.52 325.367 1783.67 325.636C1783.83 325.905 1784.05 326.117 1784.33 326.274C1784.61 326.42 1784.92 326.492 1785.27 326.492Z" fill="white"/>
</svg>
